%TF.GenerationSoftware,KiCad,Pcbnew,7.0.5-0*%
%TF.CreationDate,2024-02-16T16:09:16-04:00*%
%TF.ProjectId,Conditioning,436f6e64-6974-4696-9f6e-696e672e6b69,rev?*%
%TF.SameCoordinates,Original*%
%TF.FileFunction,Soldermask,Bot*%
%TF.FilePolarity,Negative*%
%FSLAX46Y46*%
G04 Gerber Fmt 4.6, Leading zero omitted, Abs format (unit mm)*
G04 Created by KiCad (PCBNEW 7.0.5-0) date 2024-02-16 16:09:16*
%MOMM*%
%LPD*%
G01*
G04 APERTURE LIST*
G04 Aperture macros list*
%AMRoundRect*
0 Rectangle with rounded corners*
0 $1 Rounding radius*
0 $2 $3 $4 $5 $6 $7 $8 $9 X,Y pos of 4 corners*
0 Add a 4 corners polygon primitive as box body*
4,1,4,$2,$3,$4,$5,$6,$7,$8,$9,$2,$3,0*
0 Add four circle primitives for the rounded corners*
1,1,$1+$1,$2,$3*
1,1,$1+$1,$4,$5*
1,1,$1+$1,$6,$7*
1,1,$1+$1,$8,$9*
0 Add four rect primitives between the rounded corners*
20,1,$1+$1,$2,$3,$4,$5,0*
20,1,$1+$1,$4,$5,$6,$7,0*
20,1,$1+$1,$6,$7,$8,$9,0*
20,1,$1+$1,$8,$9,$2,$3,0*%
G04 Aperture macros list end*
%ADD10C,3.900000*%
%ADD11C,4.100000*%
%ADD12C,0.200000*%
%ADD13C,3.550000*%
%ADD14C,0.800000*%
%ADD15C,5.400000*%
%ADD16RoundRect,0.250000X0.620000X0.845000X-0.620000X0.845000X-0.620000X-0.845000X0.620000X-0.845000X0*%
%ADD17O,1.740000X2.190000*%
%ADD18C,1.440000*%
%ADD19R,1.700000X1.700000*%
%ADD20O,1.700000X1.700000*%
%ADD21RoundRect,0.237500X-0.300000X-0.237500X0.300000X-0.237500X0.300000X0.237500X-0.300000X0.237500X0*%
%ADD22RoundRect,0.250000X-0.412500X-0.650000X0.412500X-0.650000X0.412500X0.650000X-0.412500X0.650000X0*%
%ADD23RoundRect,0.250000X0.450000X-0.325000X0.450000X0.325000X-0.450000X0.325000X-0.450000X-0.325000X0*%
%ADD24RoundRect,0.250000X0.412500X0.650000X-0.412500X0.650000X-0.412500X-0.650000X0.412500X-0.650000X0*%
G04 APERTURE END LIST*
D10*
X140870000Y-121130000D02*
G75*
G03*
X140870000Y-121130000I-1950000J0D01*
G01*
D11*
X163050000Y-99000000D02*
G75*
G03*
X163050000Y-99000000I-2050000J0D01*
G01*
D12*
X139000000Y-95000000D02*
X161000000Y-95000000D01*
X161000000Y-96540000D01*
X139000000Y-96540000D01*
X139000000Y-95000000D01*
G36*
X139000000Y-95000000D02*
G01*
X161000000Y-95000000D01*
X161000000Y-96540000D01*
X139000000Y-96540000D01*
X139000000Y-95000000D01*
G37*
X139000000Y-122360000D02*
X161000000Y-122360000D01*
X161000000Y-125000000D01*
X139000000Y-125000000D01*
X139000000Y-122360000D01*
G36*
X139000000Y-122360000D02*
G01*
X161000000Y-122360000D01*
X161000000Y-125000000D01*
X139000000Y-125000000D01*
X139000000Y-122360000D01*
G37*
D11*
X141050000Y-99000000D02*
G75*
G03*
X141050000Y-99000000I-2050000J0D01*
G01*
D13*
X162775000Y-121000000D02*
G75*
G03*
X162775000Y-121000000I-1775000J0D01*
G01*
D14*
%TO.C,MH1*%
X136975000Y-99000000D03*
X137568109Y-97568109D03*
X137568109Y-100431891D03*
X139000000Y-96975000D03*
D15*
X139000000Y-99000000D03*
D14*
X139000000Y-101025000D03*
X140431891Y-97568109D03*
X140431891Y-100431891D03*
X141025000Y-99000000D03*
%TD*%
D16*
%TO.C,J1*%
X151000000Y-100090000D03*
D17*
X148460000Y-100090000D03*
X145920000Y-100090000D03*
%TD*%
D14*
%TO.C,MH4*%
X158975000Y-121000000D03*
X159568109Y-119568109D03*
X159568109Y-122431891D03*
X161000000Y-118975000D03*
D15*
X161000000Y-121000000D03*
D14*
X161000000Y-123025000D03*
X162431891Y-119568109D03*
X162431891Y-122431891D03*
X163025000Y-121000000D03*
%TD*%
%TO.C,MH3*%
X136975000Y-121000000D03*
X137568109Y-119568109D03*
X137568109Y-122431891D03*
X139000000Y-118975000D03*
D15*
X139000000Y-121000000D03*
D14*
X139000000Y-123025000D03*
X140431891Y-119568109D03*
X140431891Y-122431891D03*
X141025000Y-121000000D03*
%TD*%
D18*
%TO.C,RV2*%
X143810000Y-118670000D03*
X146350000Y-118670000D03*
X148890000Y-118670000D03*
%TD*%
D19*
%TO.C,P1*%
X155915000Y-120730000D03*
D20*
X153375000Y-120730000D03*
%TD*%
D14*
%TO.C,MH2*%
X158975000Y-99000000D03*
X159568109Y-97568109D03*
X159568109Y-100431891D03*
X161000000Y-96975000D03*
D15*
X161000000Y-99000000D03*
D14*
X161000000Y-101025000D03*
X162431891Y-97568109D03*
X162431891Y-100431891D03*
X163025000Y-99000000D03*
%TD*%
D21*
%TO.C,C1*%
X150905000Y-111280000D03*
X152630000Y-111280000D03*
%TD*%
D22*
%TO.C,C6*%
X150897500Y-105690000D03*
X154022500Y-105690000D03*
%TD*%
D23*
%TO.C,FB1*%
X145930000Y-109745000D03*
X145930000Y-107695000D03*
%TD*%
D21*
%TO.C,C3*%
X144257500Y-111300000D03*
X145982500Y-111300000D03*
%TD*%
D23*
%TO.C,FB2*%
X150900000Y-109725000D03*
X150900000Y-107675000D03*
%TD*%
D24*
%TO.C,C5*%
X145932500Y-105720000D03*
X142807500Y-105720000D03*
%TD*%
M02*
