M48
; DRILL file {KiCad 7.0.5-0} date 2024 February 16, Friday 16:09:19
; FORMAT={-:-/ absolute / inch / decimal}
; #@! TF.CreationDate,2024-02-16T16:09:19-04:00
; #@! TF.GenerationSoftware,Kicad,Pcbnew,7.0.5-0
; #@! TF.FileFunction,Plated,1,4,PTH
FMAT,2
INCH
; #@! TA.AperFunction,Plated,PTH,ViaDrill
T1C0.0118
; #@! TA.AperFunction,Plated,PTH,ViaDrill
T2C0.0197
; #@! TA.AperFunction,Plated,PTH,ComponentDrill
T3C0.0197
; #@! TA.AperFunction,Plated,PTH,ComponentDrill
T4C0.0315
; #@! TA.AperFunction,Plated,PTH,ComponentDrill
T5C0.0394
; #@! TA.AperFunction,Plated,PTH,ComponentDrill
T6C0.0469
; #@! TA.AperFunction,Plated,PTH,ComponentDrill
T7C0.1063
%
G90
G05
T1
X5.3346Y-4.2028
X5.3346Y-4.2323
X5.3346Y-4.2717
X5.3346Y-4.3898
X5.3346Y-4.4193
X5.3346Y-4.4488
X5.3445Y-3.8504
X5.3445Y-3.8911
X5.3445Y-3.9317
X5.3445Y-3.9724
X5.3445Y-4.0131
X5.3445Y-4.0538
X5.3445Y-4.627
X5.3445Y-4.6669
X5.3445Y-4.7067
X5.3445Y-4.7466
X5.3445Y-4.7865
X5.3642Y-4.2028
X5.3642Y-4.2717
X5.3642Y-4.3898
X5.3642Y-4.4488
X5.3839Y-3.8091
X5.3839Y-4.0129
X5.3839Y-4.0537
X5.3839Y-4.6344
X5.3839Y-4.678
X5.3839Y-4.8524
X5.3937Y-4.2028
X5.3937Y-4.2717
X5.3937Y-4.3898
X5.3937Y-4.4488
X5.4232Y-4.2028
X5.4232Y-4.2717
X5.4232Y-4.3898
X5.4232Y-4.4488
X5.435Y-3.7697
X5.447Y-4.8917
X5.4528Y-4.2028
X5.4528Y-4.2717
X5.4528Y-4.3898
X5.4528Y-4.4488
X5.4757Y-3.7697
X5.4823Y-4.2028
X5.4823Y-4.2717
X5.4823Y-4.3898
X5.4823Y-4.4488
X5.4869Y-4.8917
X5.5118Y-4.2028
X5.5118Y-4.2717
X5.5118Y-4.3898
X5.5118Y-4.4488
X5.5268Y-4.8917
X5.5294Y-3.7697
X5.5413Y-4.2717
X5.5413Y-4.3898
X5.5517Y-3.8091
X5.5659Y-4.2913
X5.5666Y-4.8917
X5.5696Y-3.7697
X5.5823Y-4.3823
X5.5845Y-4.8524
X5.5915Y-3.8091
X5.6024Y-4.5969
X5.6065Y-4.8917
X5.6071Y-4.6591
X5.6097Y-3.7697
X5.6118Y-4.5209
X5.6228Y-4.2945
X5.626Y-4.3839
X5.6464Y-4.8917
X5.6705Y-4.3776
X5.6748Y-4.4591
X5.6772Y-4.5472
X5.6811Y-4.2937
X5.6823Y-4.2283
X5.6933Y-4.1413
X5.7016Y-4.6173
X5.7461Y-4.3823
X5.785Y-4.0535
X5.789Y-4.6181
X5.8087Y-4.4437
X5.8091Y-4.224
X5.8094Y-4.3067
X5.8126Y-4.7311
X5.8287Y-4.5413
X5.8417Y-3.9972
X5.8421Y-4.1102
X5.8543Y-4.4878
X5.8787Y-4.3071
X5.8795Y-4.2362
X5.8843Y-4.1772
X5.8996Y-4.0535
X5.9087Y-4.5764
X5.9402Y-4.3819
X5.9638Y-4.6441
X5.9689Y-4.7035
X5.9886Y-4.113
X5.9925Y-4.5878
X6.002Y-4.1961
X6.0031Y-4.2657
X6.0157Y-4.3673
X6.0177Y-4.4228
X6.0472Y-4.687
X6.052Y-4.4524
X6.063Y-4.5252
X6.0748Y-4.3335
X6.0891Y-4.489
X6.1102Y-4.1949
X6.1118Y-4.265
X6.113Y-4.6484
X6.1134Y-4.5244
X6.1134Y-4.5886
X6.1382Y-4.4016
X6.1445Y-4.3374
X6.1638Y-4.6291
X6.1713Y-4.5291
X6.1851Y-4.4718
X6.1864Y-4.8524
X6.1988Y-4.2634
X6.1996Y-4.1957
X6.2028Y-4.3154
X6.2045Y-4.8917
X6.2087Y-4.5925
X6.2116Y-3.7697
X6.214Y-4.3925
X6.2207Y-4.8014
X6.2265Y-4.8524
X6.2295Y-3.8091
X6.2444Y-4.8917
X6.2449Y-4.4717
X6.2508Y-4.5461
X6.2517Y-3.7697
X6.2667Y-4.8524
X6.2843Y-4.8917
X6.2914Y-3.7697
X6.2992Y-4.2028
X6.2992Y-4.4488
X6.3189Y-4.2717
X6.3189Y-4.3898
X6.3241Y-4.8917
X6.3287Y-4.2028
X6.3287Y-4.4488
X6.3353Y-3.7697
X6.3484Y-4.2717
X6.3484Y-4.3898
X6.3583Y-4.2028
X6.3583Y-4.4488
X6.364Y-4.8917
X6.376Y-3.7697
X6.378Y-4.2717
X6.378Y-4.3898
X6.3878Y-4.2028
X6.3878Y-4.4488
X6.4075Y-4.2717
X6.4075Y-4.3898
X6.4173Y-4.2028
X6.4173Y-4.4488
X6.4272Y-3.8091
X6.4272Y-4.0129
X6.4272Y-4.0537
X6.4272Y-4.5908
X6.4272Y-4.6344
X6.4272Y-4.678
X6.4272Y-4.8524
X6.437Y-4.2717
X6.437Y-4.3898
X6.4469Y-4.2028
X6.4469Y-4.4488
X6.4665Y-3.8504
X6.4665Y-3.8911
X6.4665Y-3.9317
X6.4665Y-3.9724
X6.4665Y-4.0131
X6.4665Y-4.0538
X6.4665Y-4.2717
X6.4665Y-4.3898
X6.4665Y-4.5871
X6.4665Y-4.627
X6.4665Y-4.6669
X6.4665Y-4.7067
X6.4665Y-4.7466
X6.4665Y-4.7865
X6.4764Y-4.2028
X6.4764Y-4.2421
X6.4764Y-4.4193
X6.4764Y-4.4488
T2
X5.9406Y-4.1598
T3
X5.3927Y-3.8976
X5.3927Y-4.7638
X5.4161Y-3.8413
X5.4161Y-3.954
X5.4161Y-4.7074
X5.4161Y-4.8202
X5.4724Y-3.8179
X5.4724Y-3.9774
X5.4724Y-4.6841
X5.4724Y-4.8435
X5.5288Y-3.8413
X5.5288Y-3.954
X5.5288Y-4.7074
X5.5288Y-4.8202
X5.5522Y-3.8976
X5.5522Y-4.7638
X6.2589Y-3.8976
X6.2589Y-4.7638
X6.2822Y-3.8413
X6.2822Y-3.954
X6.2822Y-4.7074
X6.2822Y-4.8202
X6.3386Y-3.8179
X6.3386Y-3.9774
X6.3386Y-4.6841
X6.3386Y-4.8435
X6.395Y-3.8413
X6.395Y-3.954
X6.395Y-4.7074
X6.395Y-4.8202
X6.4183Y-3.8976
X6.4183Y-4.7638
T4
X5.6618Y-4.672
X5.7618Y-4.672
X5.8618Y-4.672
T5
X6.0384Y-4.7531
X6.1384Y-4.7531
T6
X5.7449Y-3.9406
X5.8449Y-3.9406
X5.9449Y-3.9406
T7
X5.4724Y-3.8976
X5.4724Y-4.7638
X6.3386Y-3.8976
X6.3386Y-4.7638
T0
M30
