%TF.GenerationSoftware,KiCad,Pcbnew,7.0.5-0*%
%TF.CreationDate,2024-02-16T16:09:16-04:00*%
%TF.ProjectId,Conditioning,436f6e64-6974-4696-9f6e-696e672e6b69,rev?*%
%TF.SameCoordinates,Original*%
%TF.FileFunction,Copper,L1,Top*%
%TF.FilePolarity,Positive*%
%FSLAX46Y46*%
G04 Gerber Fmt 4.6, Leading zero omitted, Abs format (unit mm)*
G04 Created by KiCad (PCBNEW 7.0.5-0) date 2024-02-16 16:09:16*
%MOMM*%
%LPD*%
G01*
G04 APERTURE LIST*
G04 Aperture macros list*
%AMRoundRect*
0 Rectangle with rounded corners*
0 $1 Rounding radius*
0 $2 $3 $4 $5 $6 $7 $8 $9 X,Y pos of 4 corners*
0 Add a 4 corners polygon primitive as box body*
4,1,4,$2,$3,$4,$5,$6,$7,$8,$9,$2,$3,0*
0 Add four circle primitives for the rounded corners*
1,1,$1+$1,$2,$3*
1,1,$1+$1,$4,$5*
1,1,$1+$1,$6,$7*
1,1,$1+$1,$8,$9*
0 Add four rect primitives between the rounded corners*
20,1,$1+$1,$2,$3,$4,$5,0*
20,1,$1+$1,$4,$5,$6,$7,0*
20,1,$1+$1,$6,$7,$8,$9,0*
20,1,$1+$1,$8,$9,$2,$3,0*%
%AMFreePoly0*
4,1,93,0.006530,2.344911,0.071157,2.344911,0.077575,2.343026,0.084259,2.342849,0.145712,2.323019,0.207708,2.304816,0.213335,2.301199,0.219699,2.299146,0.273087,2.262799,0.327430,2.227875,0.331809,2.222820,0.337338,2.219057,0.378328,2.169135,0.420627,2.120320,0.423405,2.114236,0.427649,2.109068,0.452917,2.049612,0.479746,1.990866,0.480697,1.984248,0.483314,1.978092,
0.490807,1.913930,0.500000,1.850000,0.500000,-1.850000,0.494911,-1.885393,0.494911,-1.921157,0.484834,-1.955473,0.479746,-1.990866,0.464892,-2.023391,0.454816,-2.057708,0.435481,-2.087793,0.420627,-2.120320,0.397209,-2.147345,0.377875,-2.177430,0.350848,-2.200848,0.327430,-2.227875,0.297345,-2.247209,0.270320,-2.270627,0.237793,-2.285481,0.207708,-2.304816,0.173391,-2.314892,
0.140866,-2.329746,0.105473,-2.334834,0.071157,-2.344911,0.035394,-2.344911,0.000000,-2.350000,-2.000000,-2.350000,-2.035394,-2.344911,-2.071157,-2.344911,-2.105473,-2.334834,-2.140866,-2.329746,-2.173391,-2.314892,-2.207708,-2.304816,-2.237793,-2.285481,-2.270320,-2.270627,-2.297345,-2.247209,-2.327430,-2.227875,-2.350848,-2.200848,-2.377875,-2.177430,-2.397209,-2.147345,-2.420627,-2.120320,
-2.435481,-2.087793,-2.454816,-2.057708,-2.464892,-2.023391,-2.479746,-1.990866,-2.484834,-1.955473,-2.494911,-1.921157,-2.494911,-1.885393,-2.500000,-1.850000,-2.500000,1.000000,-2.499048,1.006620,-2.499824,1.013263,-2.488937,1.076938,-2.479746,1.140866,-2.476968,1.146948,-2.475841,1.153542,-2.447458,1.211566,-2.420627,1.270320,-2.416246,1.275375,-2.413308,1.281383,-2.369734,1.329053,
-2.327430,1.377875,-2.321801,1.381491,-2.317291,1.386427,-2.262067,1.419881,-2.207708,1.454816,-2.201287,1.456701,-2.195570,1.460165,-0.195571,2.310165,-0.133159,2.326705,-0.071157,2.344911,-0.064465,2.344911,-0.058005,2.346623,0.006530,2.344911,0.006530,2.344911,$1*%
%AMFreePoly1*
4,1,93,0.064465,2.344911,0.071157,2.344911,0.133164,2.326703,0.195570,2.310165,2.195570,1.460166,2.201290,1.456700,2.207708,1.454816,2.262054,1.419889,2.317291,1.386427,2.321801,1.381491,2.327430,1.377875,2.369734,1.329053,2.413308,1.281383,2.416246,1.275375,2.420627,1.270320,2.447458,1.211566,2.475841,1.153542,2.476968,1.146948,2.479746,1.140866,2.488937,1.076938,
2.499824,1.013263,2.499048,1.006620,2.500000,1.000000,2.500000,-1.850000,2.494911,-1.885393,2.494911,-1.921157,2.484834,-1.955473,2.479746,-1.990866,2.464892,-2.023391,2.454816,-2.057708,2.435481,-2.087793,2.420627,-2.120320,2.397209,-2.147345,2.377875,-2.177430,2.350848,-2.200848,2.327430,-2.227875,2.297345,-2.247209,2.270320,-2.270627,2.237793,-2.285481,2.207708,-2.304816,
2.173391,-2.314892,2.140866,-2.329746,2.105473,-2.334834,2.071157,-2.344911,2.035394,-2.344911,2.000000,-2.350000,0.000000,-2.350000,-0.035394,-2.344911,-0.071157,-2.344911,-0.105473,-2.334834,-0.140866,-2.329746,-0.173391,-2.314892,-0.207708,-2.304816,-0.237793,-2.285481,-0.270320,-2.270627,-0.297345,-2.247209,-0.327430,-2.227875,-0.350848,-2.200848,-0.377875,-2.177430,-0.397209,-2.147345,
-0.420627,-2.120320,-0.435481,-2.087793,-0.454816,-2.057708,-0.464892,-2.023391,-0.479746,-1.990866,-0.484834,-1.955473,-0.494911,-1.921157,-0.494911,-1.885393,-0.500000,-1.850000,-0.500000,1.850000,-0.490807,1.913930,-0.483314,1.978092,-0.480697,1.984248,-0.479746,1.990866,-0.452925,2.049595,-0.427650,2.109068,-0.423404,2.114239,-0.420627,2.120320,-0.378336,2.169125,-0.337338,2.219057,
-0.331809,2.222820,-0.327430,2.227875,-0.273087,2.262799,-0.219699,2.299146,-0.213335,2.301199,-0.207708,2.304816,-0.145719,2.323017,-0.084260,2.342849,-0.077575,2.343026,-0.071157,2.344911,-0.006531,2.344911,0.058005,2.346623,0.064465,2.344911,0.064465,2.344911,$1*%
G04 Aperture macros list end*
%TA.AperFunction,ComponentPad*%
%ADD10C,0.800000*%
%TD*%
%TA.AperFunction,ComponentPad*%
%ADD11C,5.400000*%
%TD*%
%TA.AperFunction,ComponentPad*%
%ADD12RoundRect,0.250000X0.620000X0.845000X-0.620000X0.845000X-0.620000X-0.845000X0.620000X-0.845000X0*%
%TD*%
%TA.AperFunction,ComponentPad*%
%ADD13O,1.740000X2.190000*%
%TD*%
%TA.AperFunction,SMDPad,CuDef*%
%ADD14RoundRect,0.237500X0.237500X-0.250000X0.237500X0.250000X-0.237500X0.250000X-0.237500X-0.250000X0*%
%TD*%
%TA.AperFunction,SMDPad,CuDef*%
%ADD15RoundRect,0.237500X-0.237500X0.250000X-0.237500X-0.250000X0.237500X-0.250000X0.237500X0.250000X0*%
%TD*%
%TA.AperFunction,ComponentPad*%
%ADD16C,1.440000*%
%TD*%
%TA.AperFunction,SMDPad,CuDef*%
%ADD17RoundRect,0.250000X2.290000X-0.250000X2.290000X0.250000X-2.290000X0.250000X-2.290000X-0.250000X0*%
%TD*%
%TA.AperFunction,SMDPad,CuDef*%
%ADD18FreePoly0,90.000000*%
%TD*%
%TA.AperFunction,SMDPad,CuDef*%
%ADD19FreePoly1,90.000000*%
%TD*%
%TA.AperFunction,ComponentPad*%
%ADD20R,1.700000X1.700000*%
%TD*%
%TA.AperFunction,ComponentPad*%
%ADD21O,1.700000X1.700000*%
%TD*%
%TA.AperFunction,SMDPad,CuDef*%
%ADD22RoundRect,0.237500X0.250000X0.237500X-0.250000X0.237500X-0.250000X-0.237500X0.250000X-0.237500X0*%
%TD*%
%TA.AperFunction,SMDPad,CuDef*%
%ADD23RoundRect,0.237500X-0.250000X-0.237500X0.250000X-0.237500X0.250000X0.237500X-0.250000X0.237500X0*%
%TD*%
%TA.AperFunction,SMDPad,CuDef*%
%ADD24RoundRect,0.250000X-2.290000X0.250000X-2.290000X-0.250000X2.290000X-0.250000X2.290000X0.250000X0*%
%TD*%
%TA.AperFunction,SMDPad,CuDef*%
%ADD25FreePoly0,270.000000*%
%TD*%
%TA.AperFunction,SMDPad,CuDef*%
%ADD26FreePoly1,270.000000*%
%TD*%
%TA.AperFunction,SMDPad,CuDef*%
%ADD27RoundRect,0.150000X-0.825000X-0.150000X0.825000X-0.150000X0.825000X0.150000X-0.825000X0.150000X0*%
%TD*%
%TA.AperFunction,ViaPad*%
%ADD28C,0.600000*%
%TD*%
%TA.AperFunction,ViaPad*%
%ADD29C,1.000000*%
%TD*%
%TA.AperFunction,Conductor*%
%ADD30C,1.000000*%
%TD*%
%TA.AperFunction,Conductor*%
%ADD31C,0.500000*%
%TD*%
%TA.AperFunction,Conductor*%
%ADD32C,0.800000*%
%TD*%
%TA.AperFunction,Conductor*%
%ADD33C,0.250000*%
%TD*%
G04 APERTURE END LIST*
D10*
%TO.P,MH1,1,1*%
%TO.N,GND*%
X136975000Y-99000000D03*
X137568109Y-97568109D03*
X137568109Y-100431891D03*
X139000000Y-96975000D03*
D11*
X139000000Y-99000000D03*
D10*
X139000000Y-101025000D03*
X140431891Y-97568109D03*
X140431891Y-100431891D03*
X141025000Y-99000000D03*
%TD*%
D12*
%TO.P,J1,1,Pin_1*%
%TO.N,/+Pwr*%
X151000000Y-100090000D03*
D13*
%TO.P,J1,2,Pin_2*%
%TO.N,GND*%
X148460000Y-100090000D03*
%TO.P,J1,3,Pin_3*%
%TO.N,/-Pwr*%
X145920000Y-100090000D03*
%TD*%
D10*
%TO.P,MH4,1,1*%
%TO.N,GND*%
X158975000Y-121000000D03*
X159568109Y-119568109D03*
X159568109Y-122431891D03*
X161000000Y-118975000D03*
D11*
X161000000Y-121000000D03*
D10*
X161000000Y-123025000D03*
X162431891Y-119568109D03*
X162431891Y-122431891D03*
X163025000Y-121000000D03*
%TD*%
D14*
%TO.P,R8,1*%
%TO.N,Net-(J4-In)*%
X158650000Y-109282500D03*
%TO.P,R8,2*%
%TO.N,Net-(U1D--)*%
X158650000Y-107457500D03*
%TD*%
D10*
%TO.P,MH3,1,1*%
%TO.N,GND*%
X136975000Y-121000000D03*
X137568109Y-119568109D03*
X137568109Y-122431891D03*
X139000000Y-118975000D03*
D11*
X139000000Y-121000000D03*
D10*
X139000000Y-123025000D03*
X140431891Y-119568109D03*
X140431891Y-122431891D03*
X141025000Y-121000000D03*
%TD*%
D15*
%TO.P,R4,1*%
%TO.N,Net-(U1C--)*%
X152980000Y-115487500D03*
%TO.P,R4,2*%
%TO.N,Net-(J4-In)*%
X152980000Y-117312500D03*
%TD*%
D16*
%TO.P,RV2,1,1*%
%TO.N,Net-(U1B--)*%
X143810000Y-118670000D03*
%TO.P,RV2,2,2*%
%TO.N,Net-(R2-Pad1)*%
X146350000Y-118670000D03*
%TO.P,RV2,3,3*%
X148890000Y-118670000D03*
%TD*%
D15*
%TO.P,R7,1*%
%TO.N,Net-(U1D-+)*%
X157010000Y-110757500D03*
%TO.P,R7,2*%
%TO.N,Net-(J4-In)*%
X157010000Y-112582500D03*
%TD*%
D17*
%TO.P,J4,1,In*%
%TO.N,Net-(J4-In)*%
X162435000Y-110000000D03*
D18*
%TO.P,J4,2,Ext*%
%TO.N,GND*%
X162435000Y-105750000D03*
D19*
X162435000Y-114250000D03*
%TD*%
D15*
%TO.P,R5,1*%
%TO.N,Net-(J4-In)*%
X158650000Y-110757500D03*
%TO.P,R5,2*%
X158650000Y-112582500D03*
%TD*%
D20*
%TO.P,P1,1,Pin_1*%
%TO.N,Net-(P1-Pin_1)*%
X155915000Y-120730000D03*
D21*
%TO.P,P1,2,Pin_2*%
%TO.N,GND*%
X153375000Y-120730000D03*
%TD*%
D22*
%TO.P,R3,1*%
%TO.N,Net-(R2-Pad1)*%
X154672500Y-112360000D03*
%TO.P,R3,2*%
%TO.N,Net-(P1-Pin_1)*%
X152847500Y-112360000D03*
%TD*%
D23*
%TO.P,R6,1*%
%TO.N,Net-(U1D-+)*%
X152867500Y-109840000D03*
%TO.P,R6,2*%
%TO.N,GND*%
X154692500Y-109840000D03*
%TD*%
%TO.P,R1,1*%
%TO.N,Net-(U1A--)*%
X146357500Y-105980000D03*
%TO.P,R1,2*%
%TO.N,Net-(U1B--)*%
X148182500Y-105980000D03*
%TD*%
D10*
%TO.P,MH2,1,1*%
%TO.N,GND*%
X158975000Y-99000000D03*
X159568109Y-97568109D03*
X159568109Y-100431891D03*
X161000000Y-96975000D03*
D11*
X161000000Y-99000000D03*
D10*
X161000000Y-101025000D03*
X162431891Y-97568109D03*
X162431891Y-100431891D03*
X163025000Y-99000000D03*
%TD*%
D24*
%TO.P,J3,1,In*%
%TO.N,Net-(J3-In)*%
X137565000Y-110000000D03*
D25*
%TO.P,J3,2,Ext*%
%TO.N,GND*%
X137565000Y-114250000D03*
D26*
X137565000Y-105750000D03*
%TD*%
D22*
%TO.P,R2,1*%
%TO.N,Net-(R2-Pad1)*%
X154662500Y-114020000D03*
%TO.P,R2,2*%
%TO.N,Net-(U1C--)*%
X152837500Y-114020000D03*
%TD*%
D27*
%TO.P,U1,1*%
%TO.N,Net-(U1A--)*%
X145925000Y-107490000D03*
%TO.P,U1,2,-*%
X145925000Y-108760000D03*
%TO.P,U1,3,+*%
%TO.N,Net-(J3-In)*%
X145925000Y-110030000D03*
%TO.P,U1,4,V+*%
%TO.N,Net-(U1E-V+)*%
X145925000Y-111300000D03*
%TO.P,U1,5,+*%
%TO.N,GND*%
X145925000Y-112570000D03*
%TO.P,U1,6,-*%
%TO.N,Net-(U1B--)*%
X145925000Y-113840000D03*
%TO.P,U1,7*%
%TO.N,Net-(R2-Pad1)*%
X145925000Y-115110000D03*
%TO.P,U1,8*%
%TO.N,Net-(J4-In)*%
X150875000Y-115110000D03*
%TO.P,U1,9,-*%
%TO.N,Net-(U1C--)*%
X150875000Y-113840000D03*
%TO.P,U1,10,+*%
%TO.N,Net-(P1-Pin_1)*%
X150875000Y-112570000D03*
%TO.P,U1,11,V-*%
%TO.N,Net-(U1E-V-)*%
X150875000Y-111300000D03*
%TO.P,U1,12,+*%
%TO.N,Net-(U1D-+)*%
X150875000Y-110030000D03*
%TO.P,U1,13,-*%
%TO.N,Net-(U1D--)*%
X150875000Y-108760000D03*
%TO.P,U1,14*%
X150875000Y-107490000D03*
%TD*%
D28*
%TO.N,GND*%
X164250000Y-117525368D03*
X152450000Y-106580000D03*
X140750000Y-111500000D03*
X160750000Y-106750000D03*
X158153846Y-123250000D03*
X149460000Y-106100000D03*
X162750000Y-108500000D03*
X160750000Y-113000000D03*
X140447425Y-95750000D03*
X159620501Y-124250000D03*
X137000000Y-108500000D03*
X141466655Y-95750000D03*
X135500000Y-106750000D03*
X163250000Y-102964285D03*
X164500000Y-113000000D03*
X144140000Y-113260000D03*
X139250000Y-108500000D03*
X158228319Y-96750000D03*
X164250000Y-116512684D03*
X152480000Y-108350000D03*
X135750000Y-120563421D03*
X135750000Y-97799225D03*
X157550000Y-109610000D03*
X135750000Y-101933075D03*
X163250000Y-123250000D03*
X138500000Y-108500000D03*
X164250000Y-118538053D03*
X163250000Y-116607142D03*
X139250000Y-111500000D03*
X150080000Y-116240000D03*
X138500000Y-111500000D03*
X135750000Y-98832687D03*
X163750000Y-113000000D03*
X158793578Y-95750000D03*
X141012684Y-96750000D03*
X136750000Y-102964285D03*
X153720000Y-113090000D03*
X137000000Y-111500000D03*
X137750000Y-106750000D03*
X149340000Y-107600000D03*
X156070000Y-110170000D03*
X164250000Y-102966537D03*
X143417551Y-124250000D03*
X163000000Y-106750000D03*
X135500000Y-107500000D03*
X155280000Y-116550000D03*
X164250000Y-99866150D03*
X137000000Y-113000000D03*
X144610000Y-105190000D03*
X135750000Y-100899612D03*
X157595132Y-124250000D03*
X141846153Y-123250000D03*
X164250000Y-121576106D03*
X157101668Y-113583127D03*
X136750000Y-117714285D03*
X163250000Y-118821428D03*
X148050000Y-115350000D03*
X153600000Y-119050000D03*
X135750000Y-118538053D03*
X163500000Y-111500000D03*
X164250000Y-101933075D03*
X157470000Y-106570000D03*
X163250000Y-96750000D03*
X161500000Y-113000000D03*
X160633185Y-124250000D03*
X164250000Y-100899612D03*
X142025369Y-96750000D03*
X147540000Y-112870000D03*
X137000000Y-106750000D03*
X135750000Y-99866150D03*
X135500000Y-108500000D03*
X160917312Y-95750000D03*
X136250000Y-106750000D03*
X159173076Y-123250000D03*
X152210000Y-116530000D03*
X157134615Y-123250000D03*
X163750000Y-106750000D03*
X135750000Y-117525368D03*
X147640000Y-120170000D03*
X157774348Y-95750000D03*
X139250000Y-106750000D03*
X156750000Y-115040000D03*
X137750000Y-113000000D03*
X164250000Y-97799225D03*
X137750000Y-108500000D03*
X135750000Y-121576106D03*
X136250000Y-111500000D03*
X164250000Y-111500000D03*
X160500000Y-108500000D03*
X162000000Y-111500000D03*
X144030000Y-111190000D03*
X163000000Y-113000000D03*
X139366814Y-124250000D03*
X142485886Y-95750000D03*
X136750000Y-118821428D03*
X158607817Y-124250000D03*
X136250000Y-113000000D03*
X157700000Y-116650000D03*
X142404867Y-124250000D03*
X162250000Y-113000000D03*
X158620000Y-113580000D03*
X141790000Y-111310000D03*
X142540000Y-114830000D03*
X151480000Y-117960000D03*
X139082687Y-95750000D03*
X162750000Y-111500000D03*
X140000000Y-108500000D03*
X156560000Y-117580000D03*
X160000000Y-106750000D03*
X161645870Y-124250000D03*
X161500000Y-106750000D03*
X149320000Y-109400000D03*
X147550000Y-107290000D03*
X136750000Y-96750000D03*
X144820000Y-117280000D03*
X142300000Y-116760000D03*
X146940000Y-102960000D03*
X140000000Y-113000000D03*
X154300000Y-110070000D03*
X164250000Y-120563421D03*
X163250000Y-101928571D03*
X164250000Y-119550737D03*
X137750000Y-111500000D03*
X135500000Y-113000000D03*
X164500000Y-112250000D03*
X135500000Y-111500000D03*
X144200000Y-115500000D03*
X142820000Y-109080000D03*
X140379498Y-124250000D03*
X163500000Y-108500000D03*
X152800000Y-110930000D03*
X140750000Y-108500000D03*
X158004999Y-121954999D03*
X136750000Y-123250000D03*
X157450000Y-108290000D03*
X144330000Y-107400000D03*
X164500000Y-106750000D03*
X161250000Y-108500000D03*
X142900000Y-111350000D03*
X164250000Y-98832687D03*
X162250000Y-106750000D03*
X161250000Y-111500000D03*
X162000000Y-108500000D03*
X160500000Y-111500000D03*
X155280000Y-114920000D03*
X140000000Y-106750000D03*
X163250000Y-117714285D03*
X142420000Y-118340000D03*
X148380000Y-101530000D03*
X155200000Y-106550000D03*
X138500000Y-113000000D03*
X139250000Y-113000000D03*
X147040000Y-117300000D03*
X141375000Y-109000000D03*
X136250000Y-108500000D03*
X152110000Y-104470000D03*
X138500000Y-106750000D03*
X140000000Y-111500000D03*
X154000000Y-114940000D03*
X158770000Y-115470000D03*
X155910000Y-111800000D03*
X157835635Y-111569214D03*
X144300000Y-109060000D03*
X160000000Y-113000000D03*
X135750000Y-119550737D03*
X149850000Y-102960000D03*
X164500000Y-107750000D03*
X159802575Y-95750000D03*
X138354129Y-124250000D03*
X151610000Y-119470000D03*
X136750000Y-101928571D03*
X138049225Y-95750000D03*
X155240000Y-108330000D03*
X155270000Y-118070000D03*
X148390000Y-104400000D03*
X141392182Y-124250000D03*
X164250000Y-108500000D03*
X135500000Y-112250000D03*
X161950774Y-95750000D03*
X147560000Y-109390000D03*
X148700000Y-113990000D03*
X135750000Y-102966537D03*
%TO.N,Net-(U1E-V+)*%
X145950000Y-111310000D03*
%TO.N,Net-(U1E-V-)*%
X150880000Y-111300000D03*
D29*
%TO.N,/-Pwr*%
X150890000Y-105660000D03*
D28*
%TO.N,Net-(P1-Pin_1)*%
X152850000Y-112340000D03*
%TO.N,Net-(R2-Pad1)*%
X154662500Y-114020000D03*
%TD*%
D30*
%TO.N,/-Pwr*%
X150890000Y-105660000D02*
X150890000Y-105470000D01*
X145920000Y-100500000D02*
X145920000Y-100090000D01*
X150890000Y-105470000D02*
X145920000Y-100500000D01*
D31*
%TO.N,Net-(R2-Pad1)*%
X145920000Y-118240000D02*
X146350000Y-118670000D01*
X145925000Y-115110000D02*
X145920000Y-115115000D01*
D32*
X154662500Y-114020000D02*
X154662500Y-112500000D01*
D31*
X145920000Y-115115000D02*
X145920000Y-118240000D01*
%TO.N,Net-(J3-In)*%
X138965000Y-110000000D02*
X139005000Y-110040000D01*
D33*
X145895000Y-110000000D02*
X145925000Y-110030000D01*
D31*
X139005000Y-110040000D02*
X145855000Y-110040000D01*
X145855000Y-110040000D02*
X145895000Y-110000000D01*
%TO.N,Net-(J4-In)*%
X151080026Y-116550026D02*
X151637475Y-117107475D01*
X152132449Y-117312500D02*
X152980000Y-117312500D01*
D33*
X160883884Y-110000000D02*
X162435000Y-110000000D01*
D31*
X152980000Y-117312500D02*
X155457551Y-117312500D01*
X157860000Y-114910051D02*
X157860000Y-113000000D01*
X158650000Y-110757500D02*
X158650000Y-112582500D01*
X150875000Y-115110000D02*
X150875000Y-116055051D01*
X155952526Y-117107474D02*
X157654975Y-115405025D01*
X150875035Y-116055051D02*
G75*
G03*
X151080026Y-116550026I699965J-49D01*
G01*
X155457551Y-117312465D02*
G75*
G03*
X155952526Y-117107474I49J699965D01*
G01*
X151637450Y-117107500D02*
G75*
G03*
X152132449Y-117312500I494950J495000D01*
G01*
X157654950Y-115405000D02*
G75*
G03*
X157860000Y-114910051I-494950J495000D01*
G01*
%TO.N,Net-(U1D-+)*%
X154179949Y-110950000D02*
X156817500Y-110950000D01*
X153175026Y-110235026D02*
X153684975Y-110744975D01*
X156817500Y-110950000D02*
X157010000Y-110757500D01*
X150875000Y-110030000D02*
X152680051Y-110030000D01*
X153685000Y-110744950D02*
G75*
G03*
X154179949Y-110950000I495000J494950D01*
G01*
X153175001Y-110235051D02*
G75*
G03*
X152680051Y-110030000I-495001J-494949D01*
G01*
%TO.N,Net-(U1B--)*%
X148470000Y-106507500D02*
X148470000Y-112800051D01*
X143515026Y-114934974D02*
X144404975Y-114045025D01*
X144899949Y-113840000D02*
X145925000Y-113840000D01*
X143810000Y-118670000D02*
X143515025Y-118375025D01*
X147430051Y-113840000D02*
X145925000Y-113840000D01*
X148264974Y-113295026D02*
X147925025Y-113634975D01*
X143310000Y-117880051D02*
X143310000Y-115429949D01*
X144899949Y-113840035D02*
G75*
G03*
X144404975Y-114045025I-49J-699965D01*
G01*
X147430051Y-113839965D02*
G75*
G03*
X147925025Y-113634975I49J699965D01*
G01*
X143515001Y-114934949D02*
G75*
G03*
X143310000Y-115429949I494999J-494951D01*
G01*
X148264999Y-113295051D02*
G75*
G03*
X148470000Y-112800051I-494999J494951D01*
G01*
X143309965Y-117880051D02*
G75*
G03*
X143515026Y-118375024I700035J51D01*
G01*
D33*
%TO.N,Net-(U1C--)*%
X152900000Y-114062500D02*
X152837500Y-114000000D01*
X152712500Y-114125000D02*
X152837500Y-114000000D01*
D31*
%TO.N,Net-(U1D--)*%
X150907500Y-107457500D02*
X150875000Y-107490000D01*
X158650000Y-107457500D02*
X150907500Y-107457500D01*
%TD*%
%TA.AperFunction,Conductor*%
%TO.N,Net-(U1C--)*%
G36*
X152864792Y-113541550D02*
G01*
X152982072Y-113560126D01*
X153019564Y-113572308D01*
X153116419Y-113621658D01*
X153148311Y-113644830D01*
X153225169Y-113721688D01*
X153248341Y-113753580D01*
X153297691Y-113850435D01*
X153309873Y-113887927D01*
X153328449Y-114005207D01*
X153330000Y-114024917D01*
X153330000Y-114490000D01*
X153345491Y-114550774D01*
X153345492Y-114550777D01*
X153444019Y-114937310D01*
X153444871Y-114941146D01*
X153455378Y-114996616D01*
X153456358Y-115004421D01*
X153459877Y-115060762D01*
X153460000Y-115064692D01*
X153460000Y-115485081D01*
X153458449Y-115504792D01*
X153439873Y-115622072D01*
X153427691Y-115659564D01*
X153378341Y-115756419D01*
X153355169Y-115788311D01*
X153278311Y-115865169D01*
X153246419Y-115888341D01*
X153149564Y-115937691D01*
X153112073Y-115949873D01*
X153004712Y-115966878D01*
X152965289Y-115966878D01*
X152857927Y-115949873D01*
X152820435Y-115937691D01*
X152723580Y-115888341D01*
X152691688Y-115865169D01*
X152614830Y-115788311D01*
X152591658Y-115756419D01*
X152542308Y-115659564D01*
X152530126Y-115622071D01*
X152511551Y-115504791D01*
X152510000Y-115485081D01*
X152510000Y-115007178D01*
X152510000Y-115007141D01*
X152510000Y-115000000D01*
X152490000Y-114300000D01*
X151850000Y-114140000D01*
X151788447Y-114140000D01*
X151062410Y-114140000D01*
X151037829Y-114137579D01*
X151007954Y-114131636D01*
X150959775Y-114122053D01*
X150914356Y-114103240D01*
X150858704Y-114066054D01*
X150823945Y-114031295D01*
X150786758Y-113975640D01*
X150767946Y-113930223D01*
X150759533Y-113887927D01*
X150754889Y-113864578D01*
X150754889Y-113815419D01*
X150767947Y-113749773D01*
X150786757Y-113704360D01*
X150823947Y-113648701D01*
X150858701Y-113613947D01*
X150914360Y-113576757D01*
X150959775Y-113557946D01*
X151006043Y-113548743D01*
X151037830Y-113542421D01*
X151062410Y-113540000D01*
X152845082Y-113540000D01*
X152864792Y-113541550D01*
G37*
%TD.AperFunction*%
%TD*%
%TA.AperFunction,Conductor*%
%TO.N,GND*%
G36*
X161001445Y-95000567D02*
G01*
X161037696Y-95002242D01*
X161172746Y-95008486D01*
X161172743Y-95008573D01*
X161173106Y-95008504D01*
X161341714Y-95016786D01*
X161342207Y-95016811D01*
X161343739Y-95016904D01*
X161385405Y-95019978D01*
X161389399Y-95020402D01*
X161563343Y-95044667D01*
X161731102Y-95069552D01*
X161732448Y-95069769D01*
X161758980Y-95074372D01*
X161762588Y-95075109D01*
X161939372Y-95116688D01*
X162112762Y-95160120D01*
X162114166Y-95160490D01*
X162125019Y-95163494D01*
X162128153Y-95164452D01*
X162305050Y-95223742D01*
X162306050Y-95224089D01*
X162480317Y-95286443D01*
X162484490Y-95288108D01*
X162593993Y-95336458D01*
X162658697Y-95365028D01*
X162660156Y-95365694D01*
X162826934Y-95444573D01*
X162830647Y-95446483D01*
X162997273Y-95539294D01*
X162999005Y-95540295D01*
X163156943Y-95634959D01*
X163160149Y-95637017D01*
X163317620Y-95744886D01*
X163319545Y-95746259D01*
X163467337Y-95855868D01*
X163470056Y-95858003D01*
X163616970Y-95980000D01*
X163619030Y-95981788D01*
X163712033Y-96066079D01*
X163755313Y-96105307D01*
X163757517Y-96107405D01*
X163892592Y-96242480D01*
X163894694Y-96244688D01*
X163923823Y-96276826D01*
X164018210Y-96380968D01*
X164019998Y-96383028D01*
X164141995Y-96529942D01*
X164144130Y-96532661D01*
X164253739Y-96680453D01*
X164255112Y-96682378D01*
X164362981Y-96839849D01*
X164365044Y-96843064D01*
X164459703Y-97000993D01*
X164460704Y-97002725D01*
X164553515Y-97169351D01*
X164555429Y-97173073D01*
X164634290Y-97339812D01*
X164634970Y-97341301D01*
X164711882Y-97515488D01*
X164713568Y-97519713D01*
X164775870Y-97693836D01*
X164776287Y-97695038D01*
X164835532Y-97871801D01*
X164836517Y-97875021D01*
X164839495Y-97885783D01*
X164839888Y-97887277D01*
X164883319Y-98060662D01*
X164924883Y-98237384D01*
X164925629Y-98241037D01*
X164930220Y-98267495D01*
X164930466Y-98269022D01*
X164955334Y-98436672D01*
X164979589Y-98610548D01*
X164980023Y-98614619D01*
X164983094Y-98656257D01*
X164983189Y-98657801D01*
X164991514Y-98827261D01*
X164991573Y-98828542D01*
X164991574Y-98828590D01*
X164999433Y-98998554D01*
X164999500Y-99001465D01*
X164999500Y-109191187D01*
X164979498Y-109259308D01*
X164925842Y-109305801D01*
X164855568Y-109315905D01*
X164831887Y-109310117D01*
X164809701Y-109302354D01*
X164779266Y-109299500D01*
X161483164Y-109299500D01*
X161474647Y-109298922D01*
X161450879Y-109295683D01*
X161438515Y-109293998D01*
X161434173Y-109293549D01*
X161431845Y-109293309D01*
X161431805Y-109293306D01*
X161416978Y-109292263D01*
X161413327Y-109292125D01*
X161410262Y-109292010D01*
X161410252Y-109292009D01*
X161410255Y-109292009D01*
X159918355Y-109284588D01*
X159910255Y-109284025D01*
X159598523Y-109242062D01*
X159533680Y-109213150D01*
X159498475Y-109164308D01*
X159447664Y-109038297D01*
X159444552Y-109031337D01*
X159432934Y-109007737D01*
X159429312Y-109001021D01*
X159367415Y-108895797D01*
X159350055Y-108870743D01*
X159326615Y-108841768D01*
X159326610Y-108841762D01*
X159326608Y-108841760D01*
X159305749Y-108819565D01*
X159258641Y-108776362D01*
X159225578Y-108746039D01*
X159225573Y-108746035D01*
X159223782Y-108744510D01*
X159224039Y-108744207D01*
X159203258Y-108722741D01*
X159200711Y-108719289D01*
X159200706Y-108719285D01*
X159094478Y-108640885D01*
X159094475Y-108640883D01*
X158969854Y-108597276D01*
X158969849Y-108597275D01*
X158940258Y-108594500D01*
X158940256Y-108594500D01*
X158359744Y-108594500D01*
X158359741Y-108594500D01*
X158330150Y-108597275D01*
X158330145Y-108597276D01*
X158205525Y-108640883D01*
X158099289Y-108719289D01*
X158020883Y-108825525D01*
X157977276Y-108950145D01*
X157977275Y-108950150D01*
X157974500Y-108979741D01*
X157974500Y-109190773D01*
X157972949Y-109210481D01*
X157967950Y-109242042D01*
X157967948Y-109242062D01*
X157967001Y-109250057D01*
X157964817Y-109277806D01*
X157964792Y-109278445D01*
X157964500Y-109285883D01*
X157964500Y-110769116D01*
X157964658Y-110773148D01*
X157964817Y-110777194D01*
X157967000Y-110804935D01*
X157967948Y-110812939D01*
X157967949Y-110812945D01*
X157972949Y-110844514D01*
X157974500Y-110864224D01*
X157974500Y-111060258D01*
X157977275Y-111089849D01*
X157977276Y-111089854D01*
X158020883Y-111214475D01*
X158020885Y-111214478D01*
X158099288Y-111320711D01*
X158148320Y-111356897D01*
X158191253Y-111413441D01*
X158199500Y-111458277D01*
X158199500Y-111764433D01*
X158179498Y-111832554D01*
X158125842Y-111879047D01*
X158073015Y-111890432D01*
X156630185Y-111884883D01*
X156630162Y-111884884D01*
X156597632Y-111887349D01*
X156597626Y-111887349D01*
X156597625Y-111887350D01*
X156566653Y-111892194D01*
X156566643Y-111892195D01*
X156566609Y-111892201D01*
X156561714Y-111893028D01*
X156477617Y-111928972D01*
X156428117Y-111964937D01*
X156428107Y-111964945D01*
X156400372Y-111989177D01*
X156353466Y-112067682D01*
X156353464Y-112067688D01*
X156334555Y-112125886D01*
X156324500Y-112189381D01*
X156324500Y-112971007D01*
X156327029Y-113003140D01*
X156331882Y-113033782D01*
X156332647Y-113038285D01*
X156332649Y-113038289D01*
X156368590Y-113122380D01*
X156368591Y-113122382D01*
X156368592Y-113122383D01*
X156404556Y-113171883D01*
X156404564Y-113171892D01*
X156425140Y-113195443D01*
X156428797Y-113199628D01*
X156460799Y-113218748D01*
X156507301Y-113246533D01*
X156507303Y-113246533D01*
X156507307Y-113246536D01*
X156565498Y-113265443D01*
X156629000Y-113275500D01*
X157283500Y-113275500D01*
X157351621Y-113295502D01*
X157398114Y-113349158D01*
X157409500Y-113401500D01*
X157409500Y-114905881D01*
X157408960Y-114914118D01*
X157403160Y-114958147D01*
X157394646Y-114989913D01*
X157382416Y-115019435D01*
X157365967Y-115047922D01*
X157338764Y-115083369D01*
X157333326Y-115089569D01*
X157292206Y-115130686D01*
X157292160Y-115130736D01*
X155636908Y-116785987D01*
X155630703Y-116791428D01*
X155595479Y-116818453D01*
X155566994Y-116834897D01*
X155537479Y-116847121D01*
X155505703Y-116855633D01*
X155461415Y-116861460D01*
X155453184Y-116861999D01*
X155394216Y-116861995D01*
X155394144Y-116862000D01*
X153677503Y-116862000D01*
X153609382Y-116841998D01*
X153576124Y-116810822D01*
X153575867Y-116810474D01*
X153530711Y-116749289D01*
X153424475Y-116670884D01*
X153424474Y-116670883D01*
X153424475Y-116670883D01*
X153299854Y-116627276D01*
X153299849Y-116627275D01*
X153270258Y-116624500D01*
X153270256Y-116624500D01*
X152689744Y-116624500D01*
X152689741Y-116624500D01*
X152660150Y-116627275D01*
X152660145Y-116627276D01*
X152535525Y-116670883D01*
X152429289Y-116749289D01*
X152383876Y-116810822D01*
X152327331Y-116853754D01*
X152282497Y-116862000D01*
X152195856Y-116862000D01*
X152195783Y-116861995D01*
X152136548Y-116861999D01*
X152128317Y-116861460D01*
X152084288Y-116855667D01*
X152052516Y-116847156D01*
X152022982Y-116834925D01*
X151994502Y-116818483D01*
X151959483Y-116791615D01*
X151953278Y-116786173D01*
X151401516Y-116234412D01*
X151396074Y-116228207D01*
X151369046Y-116192979D01*
X151352604Y-116164498D01*
X151340375Y-116134971D01*
X151331867Y-116103208D01*
X151326038Y-116058911D01*
X151325500Y-116050682D01*
X151325504Y-115991611D01*
X151325500Y-115991538D01*
X151325500Y-115736500D01*
X151345502Y-115668379D01*
X151399158Y-115621886D01*
X151451500Y-115610500D01*
X151733255Y-115610500D01*
X151733260Y-115610500D01*
X151801393Y-115600573D01*
X151906483Y-115549198D01*
X151989198Y-115466483D01*
X152040573Y-115361393D01*
X152050500Y-115293260D01*
X152050500Y-114934751D01*
X152051544Y-114931194D01*
X152051157Y-114931251D01*
X152050500Y-114926740D01*
X152040573Y-114858607D01*
X151989198Y-114753517D01*
X151989196Y-114753514D01*
X151906485Y-114670803D01*
X151906482Y-114670801D01*
X151801394Y-114619427D01*
X151733261Y-114609500D01*
X151733260Y-114609500D01*
X150016740Y-114609500D01*
X150016738Y-114609500D01*
X149948605Y-114619427D01*
X149843517Y-114670801D01*
X149843514Y-114670803D01*
X149760803Y-114753514D01*
X149760801Y-114753517D01*
X149709427Y-114858605D01*
X149699500Y-114926738D01*
X149699500Y-115293261D01*
X149709427Y-115361394D01*
X149760801Y-115466482D01*
X149760803Y-115466485D01*
X149843514Y-115549196D01*
X149843517Y-115549198D01*
X149948607Y-115600573D01*
X150016740Y-115610500D01*
X150298500Y-115610500D01*
X150366621Y-115630502D01*
X150413114Y-115684158D01*
X150424500Y-115736500D01*
X150424500Y-116090744D01*
X150424531Y-116091612D01*
X150424529Y-116145565D01*
X150452845Y-116324424D01*
X150452847Y-116324430D01*
X150508797Y-116496662D01*
X150508799Y-116496665D01*
X150508800Y-116496669D01*
X150590996Y-116658013D01*
X150591003Y-116658024D01*
X150697437Y-116804533D01*
X150710428Y-116817526D01*
X150710470Y-116817574D01*
X150713459Y-116820563D01*
X150713460Y-116820564D01*
X150770048Y-116877152D01*
X150803395Y-116910502D01*
X150803396Y-116910502D01*
X150809320Y-116916427D01*
X150809343Y-116916447D01*
X151273942Y-117381045D01*
X151273970Y-117381077D01*
X151282010Y-117389117D01*
X151282067Y-117389222D01*
X151382944Y-117490091D01*
X151529462Y-117596531D01*
X151640534Y-117653116D01*
X151690825Y-117678737D01*
X151863063Y-117734689D01*
X151863066Y-117734689D01*
X151863068Y-117734690D01*
X151922685Y-117744128D01*
X152041932Y-117763007D01*
X152132451Y-117763000D01*
X152132486Y-117763000D01*
X152282497Y-117763000D01*
X152350618Y-117783002D01*
X152383876Y-117814178D01*
X152429289Y-117875711D01*
X152535525Y-117954116D01*
X152535524Y-117954116D01*
X152615686Y-117982166D01*
X152660151Y-117997725D01*
X152689744Y-118000500D01*
X152689747Y-118000500D01*
X153270253Y-118000500D01*
X153270256Y-118000500D01*
X153299849Y-117997725D01*
X153424475Y-117954116D01*
X153530711Y-117875711D01*
X153576123Y-117814178D01*
X153632669Y-117771246D01*
X153677503Y-117763000D01*
X155493240Y-117763000D01*
X155494101Y-117762967D01*
X155548065Y-117762971D01*
X155716880Y-117736244D01*
X155726924Y-117734654D01*
X155726924Y-117734653D01*
X155726930Y-117734653D01*
X155899162Y-117678703D01*
X156060521Y-117596499D01*
X156207033Y-117490063D01*
X156215855Y-117481242D01*
X156215899Y-117481204D01*
X156223061Y-117474041D01*
X156223064Y-117474040D01*
X156283226Y-117413878D01*
X156313002Y-117384105D01*
X156313002Y-117384103D01*
X156320163Y-117376944D01*
X156320185Y-117376917D01*
X157997400Y-115699704D01*
X157997402Y-115699700D01*
X157998758Y-115698345D01*
X157999386Y-115697668D01*
X158037513Y-115659547D01*
X158143962Y-115513050D01*
X158226183Y-115351705D01*
X158282153Y-115179484D01*
X158310494Y-115000628D01*
X158310494Y-114988810D01*
X158310500Y-114988753D01*
X158310500Y-114910022D01*
X158310504Y-114846612D01*
X158310500Y-114846539D01*
X158310500Y-113401500D01*
X158330502Y-113333379D01*
X158384158Y-113286886D01*
X158436500Y-113275500D01*
X159031007Y-113275500D01*
X159051455Y-113273890D01*
X159063144Y-113272970D01*
X159093737Y-113268125D01*
X159098287Y-113267352D01*
X159182383Y-113231408D01*
X159231883Y-113195444D01*
X159259628Y-113171203D01*
X159306536Y-113092693D01*
X159325443Y-113034502D01*
X159335500Y-112971000D01*
X159335500Y-112198619D01*
X159333032Y-112166865D01*
X159328304Y-112136635D01*
X159327609Y-112132471D01*
X159291987Y-112048238D01*
X159256213Y-111998600D01*
X159232084Y-111970766D01*
X159232083Y-111970765D01*
X159232082Y-111970764D01*
X159161456Y-111928195D01*
X159113439Y-111875899D01*
X159100500Y-111820282D01*
X159100500Y-111458277D01*
X159120502Y-111390156D01*
X159151676Y-111356899D01*
X159200711Y-111320711D01*
X159200713Y-111320707D01*
X159200717Y-111320705D01*
X159207394Y-111314029D01*
X159207425Y-111314060D01*
X159214743Y-111305988D01*
X159215160Y-111305611D01*
X159215173Y-111305602D01*
X159297291Y-111231583D01*
X159318127Y-111209830D01*
X159341591Y-111181430D01*
X159359024Y-111156863D01*
X159423019Y-111051016D01*
X159426682Y-111044423D01*
X159438469Y-111021241D01*
X159441636Y-111014404D01*
X159505296Y-110862597D01*
X159550084Y-110807516D01*
X159590927Y-110789091D01*
X159910248Y-110709262D01*
X159940808Y-110705500D01*
X161409213Y-110705500D01*
X161409233Y-110705500D01*
X161415960Y-110705280D01*
X161430903Y-110704299D01*
X161437591Y-110703641D01*
X161450655Y-110701920D01*
X161457350Y-110701040D01*
X161465582Y-110700500D01*
X164779264Y-110700500D01*
X164779266Y-110700500D01*
X164809699Y-110697646D01*
X164831884Y-110689882D01*
X164902787Y-110686263D01*
X164964393Y-110721551D01*
X164997141Y-110784544D01*
X164999500Y-110808812D01*
X164999500Y-120998534D01*
X164999433Y-121001445D01*
X164991504Y-121172930D01*
X164983189Y-121342198D01*
X164983094Y-121343742D01*
X164980023Y-121385379D01*
X164979589Y-121389449D01*
X164955334Y-121563326D01*
X164930466Y-121730977D01*
X164930220Y-121732504D01*
X164925629Y-121758961D01*
X164924883Y-121762615D01*
X164883319Y-121939336D01*
X164839884Y-122112738D01*
X164839490Y-122114234D01*
X164836519Y-122124970D01*
X164835535Y-122128188D01*
X164776287Y-122304960D01*
X164775870Y-122306162D01*
X164713568Y-122480285D01*
X164711882Y-122484510D01*
X164634970Y-122658697D01*
X164634290Y-122660186D01*
X164555429Y-122826925D01*
X164553515Y-122830647D01*
X164460704Y-122997273D01*
X164459703Y-122999005D01*
X164365044Y-123156934D01*
X164362981Y-123160149D01*
X164255112Y-123317620D01*
X164253739Y-123319545D01*
X164144130Y-123467337D01*
X164141995Y-123470056D01*
X164019998Y-123616970D01*
X164018210Y-123619030D01*
X163894706Y-123755298D01*
X163892573Y-123757538D01*
X163757538Y-123892573D01*
X163755298Y-123894706D01*
X163619030Y-124018210D01*
X163616970Y-124019998D01*
X163470056Y-124141995D01*
X163467337Y-124144130D01*
X163319545Y-124253739D01*
X163317620Y-124255112D01*
X163160149Y-124362981D01*
X163156934Y-124365044D01*
X162999005Y-124459703D01*
X162997273Y-124460704D01*
X162830647Y-124553515D01*
X162826925Y-124555429D01*
X162660186Y-124634290D01*
X162658697Y-124634970D01*
X162484510Y-124711882D01*
X162480285Y-124713568D01*
X162306162Y-124775870D01*
X162304960Y-124776287D01*
X162128188Y-124835535D01*
X162124970Y-124836519D01*
X162114234Y-124839490D01*
X162112738Y-124839884D01*
X161939336Y-124883319D01*
X161762615Y-124924883D01*
X161758961Y-124925629D01*
X161732504Y-124930220D01*
X161730977Y-124930466D01*
X161563336Y-124955332D01*
X161389452Y-124979588D01*
X161385381Y-124980022D01*
X161343742Y-124983093D01*
X161342199Y-124983188D01*
X161201973Y-124990077D01*
X161195644Y-124990310D01*
X161178346Y-124990949D01*
X161176897Y-124990985D01*
X161153248Y-124991281D01*
X161079354Y-124991305D01*
X138997710Y-124998663D01*
X138977460Y-124998420D01*
X138975307Y-124998357D01*
X138828742Y-124991581D01*
X138828692Y-124991580D01*
X138827572Y-124991528D01*
X138657804Y-124983189D01*
X138656260Y-124983095D01*
X138614620Y-124980023D01*
X138610549Y-124979589D01*
X138436662Y-124955332D01*
X138299535Y-124934992D01*
X138269000Y-124930462D01*
X138267494Y-124930220D01*
X138241037Y-124925629D01*
X138237383Y-124924883D01*
X138060662Y-124883319D01*
X137887277Y-124839888D01*
X137885783Y-124839495D01*
X137875021Y-124836517D01*
X137871801Y-124835532D01*
X137695038Y-124776287D01*
X137693836Y-124775870D01*
X137519713Y-124713568D01*
X137515488Y-124711882D01*
X137341301Y-124634970D01*
X137339812Y-124634290D01*
X137173073Y-124555429D01*
X137169351Y-124553515D01*
X137002725Y-124460704D01*
X137000993Y-124459703D01*
X136843064Y-124365044D01*
X136839849Y-124362981D01*
X136682378Y-124255112D01*
X136680453Y-124253739D01*
X136532661Y-124144130D01*
X136529942Y-124141995D01*
X136383028Y-124019998D01*
X136380968Y-124018210D01*
X136276826Y-123923823D01*
X136244688Y-123894694D01*
X136242480Y-123892592D01*
X136107405Y-123757517D01*
X136105307Y-123755313D01*
X136066079Y-123712033D01*
X135981788Y-123619030D01*
X135980000Y-123616970D01*
X135858003Y-123470056D01*
X135855868Y-123467337D01*
X135746259Y-123319545D01*
X135744886Y-123317620D01*
X135637017Y-123160149D01*
X135634954Y-123156934D01*
X135540295Y-122999005D01*
X135539294Y-122997273D01*
X135446483Y-122830647D01*
X135444569Y-122826925D01*
X135365708Y-122660186D01*
X135365028Y-122658697D01*
X135346887Y-122617612D01*
X135288108Y-122484490D01*
X135286443Y-122480317D01*
X135224089Y-122306050D01*
X135223742Y-122305050D01*
X135164452Y-122128153D01*
X135163494Y-122125019D01*
X135160490Y-122114166D01*
X135160113Y-122112732D01*
X135116680Y-121939336D01*
X135075109Y-121762588D01*
X135074372Y-121758980D01*
X135069769Y-121732448D01*
X135069552Y-121731102D01*
X135050067Y-121599748D01*
X154864500Y-121599748D01*
X154876133Y-121658231D01*
X154920448Y-121724552D01*
X154986769Y-121768867D01*
X155045252Y-121780500D01*
X155045253Y-121780500D01*
X156784747Y-121780500D01*
X156784748Y-121780500D01*
X156843231Y-121768867D01*
X156909552Y-121724552D01*
X156953867Y-121658231D01*
X156965500Y-121599748D01*
X156965500Y-119860252D01*
X156953867Y-119801769D01*
X156909552Y-119735448D01*
X156843231Y-119691133D01*
X156843228Y-119691132D01*
X156784750Y-119679500D01*
X156784748Y-119679500D01*
X155045252Y-119679500D01*
X155045249Y-119679500D01*
X154986771Y-119691132D01*
X154986768Y-119691133D01*
X154920448Y-119735448D01*
X154876133Y-119801768D01*
X154876132Y-119801771D01*
X154864500Y-119860249D01*
X154864500Y-119860252D01*
X154864500Y-121599748D01*
X135050067Y-121599748D01*
X135044667Y-121563343D01*
X135020402Y-121389399D01*
X135019978Y-121385405D01*
X135016904Y-121343739D01*
X135016811Y-121342207D01*
X135008495Y-121172930D01*
X135000567Y-121001444D01*
X135000500Y-120998534D01*
X135000500Y-117827971D01*
X142859462Y-117827971D01*
X142859470Y-117970630D01*
X142887810Y-118149482D01*
X142887812Y-118149491D01*
X142936884Y-118300488D01*
X142938915Y-118371456D01*
X142936886Y-118378367D01*
X142904655Y-118477562D01*
X142884430Y-118670000D01*
X142904655Y-118862437D01*
X142964447Y-119046457D01*
X142964451Y-119046465D01*
X143061195Y-119214032D01*
X143061196Y-119214034D01*
X143061198Y-119214036D01*
X143190672Y-119357832D01*
X143190673Y-119357833D01*
X143347210Y-119471564D01*
X143347212Y-119471565D01*
X143347215Y-119471567D01*
X143523983Y-119550269D01*
X143713252Y-119590500D01*
X143713256Y-119590500D01*
X143906744Y-119590500D01*
X143906748Y-119590500D01*
X144096017Y-119550269D01*
X144272785Y-119471567D01*
X144429327Y-119357833D01*
X144558802Y-119214036D01*
X144655550Y-119046463D01*
X144715344Y-118862437D01*
X144735570Y-118670000D01*
X144715344Y-118477563D01*
X144680868Y-118371456D01*
X144655552Y-118293542D01*
X144655548Y-118293534D01*
X144634475Y-118257035D01*
X144558802Y-118125964D01*
X144429327Y-117982167D01*
X144413448Y-117970630D01*
X144272789Y-117868435D01*
X144181905Y-117827971D01*
X144096017Y-117789731D01*
X143906748Y-117749500D01*
X143906744Y-117749500D01*
X143886500Y-117749500D01*
X143818379Y-117729498D01*
X143771886Y-117675842D01*
X143760500Y-117623500D01*
X143760500Y-115498036D01*
X143760504Y-115497965D01*
X143760503Y-115489228D01*
X143760504Y-115489227D01*
X143760500Y-115434045D01*
X143761039Y-115425817D01*
X143766833Y-115381782D01*
X143775340Y-115350023D01*
X143787577Y-115320476D01*
X143804015Y-115292004D01*
X143804520Y-115291344D01*
X143830888Y-115256976D01*
X143836316Y-115250786D01*
X143962422Y-115124680D01*
X144747440Y-115124680D01*
X144747441Y-115124688D01*
X144747441Y-115124698D01*
X144747760Y-115130736D01*
X144749412Y-115162007D01*
X144749500Y-115165331D01*
X144749500Y-115293261D01*
X144759427Y-115361394D01*
X144810801Y-115466482D01*
X144810803Y-115466485D01*
X144893514Y-115549196D01*
X144902014Y-115555265D01*
X144900678Y-115557135D01*
X144929108Y-115579827D01*
X144939459Y-115592673D01*
X144948923Y-115602913D01*
X144983832Y-115635887D01*
X144983836Y-115635890D01*
X144983841Y-115635895D01*
X144994583Y-115644744D01*
X144994603Y-115644760D01*
X145095029Y-115716649D01*
X145095074Y-115716680D01*
X145098263Y-115718802D01*
X145100856Y-115720528D01*
X145114059Y-115728685D01*
X145120103Y-115732141D01*
X145402314Y-115881084D01*
X145453220Y-115930568D01*
X145469500Y-115992515D01*
X145469500Y-118211156D01*
X145469104Y-118218212D01*
X145464730Y-118257035D01*
X145475573Y-118314346D01*
X145475961Y-118316629D01*
X145478177Y-118331337D01*
X145473417Y-118389043D01*
X145444655Y-118477564D01*
X145424430Y-118669999D01*
X145444655Y-118862437D01*
X145504447Y-119046457D01*
X145504451Y-119046465D01*
X145601195Y-119214032D01*
X145601196Y-119214034D01*
X145601198Y-119214036D01*
X145730673Y-119357833D01*
X145887210Y-119471564D01*
X145887212Y-119471565D01*
X145887215Y-119471567D01*
X146063983Y-119550269D01*
X146253252Y-119590500D01*
X146253256Y-119590500D01*
X146446744Y-119590500D01*
X146446748Y-119590500D01*
X146636017Y-119550269D01*
X146812785Y-119471567D01*
X146969327Y-119357833D01*
X147098802Y-119214036D01*
X147195550Y-119046463D01*
X147255344Y-118862437D01*
X147275570Y-118670000D01*
X147964430Y-118670000D01*
X147984655Y-118862437D01*
X148044447Y-119046457D01*
X148044451Y-119046465D01*
X148141195Y-119214032D01*
X148141196Y-119214034D01*
X148141198Y-119214036D01*
X148270673Y-119357833D01*
X148427210Y-119471564D01*
X148427212Y-119471565D01*
X148427215Y-119471567D01*
X148603983Y-119550269D01*
X148793252Y-119590500D01*
X148793256Y-119590500D01*
X148986744Y-119590500D01*
X148986748Y-119590500D01*
X149176017Y-119550269D01*
X149352785Y-119471567D01*
X149509327Y-119357833D01*
X149638802Y-119214036D01*
X149735550Y-119046463D01*
X149795344Y-118862437D01*
X149815570Y-118670000D01*
X149795344Y-118477563D01*
X149760868Y-118371456D01*
X149735552Y-118293542D01*
X149735548Y-118293534D01*
X149714475Y-118257035D01*
X149638802Y-118125964D01*
X149509327Y-117982167D01*
X149493448Y-117970630D01*
X149352789Y-117868435D01*
X149261905Y-117827971D01*
X149176017Y-117789731D01*
X148986748Y-117749500D01*
X148793252Y-117749500D01*
X148641836Y-117781684D01*
X148603982Y-117789731D01*
X148427210Y-117868435D01*
X148270673Y-117982166D01*
X148141195Y-118125967D01*
X148044451Y-118293534D01*
X148044447Y-118293542D01*
X147984655Y-118477562D01*
X147964430Y-118670000D01*
X147275570Y-118670000D01*
X147255344Y-118477563D01*
X147220868Y-118371456D01*
X147195552Y-118293542D01*
X147195548Y-118293534D01*
X147174475Y-118257035D01*
X147098802Y-118125964D01*
X146969327Y-117982167D01*
X146953448Y-117970630D01*
X146812789Y-117868435D01*
X146721905Y-117827971D01*
X146636017Y-117789731D01*
X146470302Y-117754506D01*
X146407829Y-117720778D01*
X146373508Y-117658629D01*
X146370500Y-117631260D01*
X146370500Y-115997793D01*
X146390502Y-115929672D01*
X146437686Y-115886362D01*
X146733522Y-115730227D01*
X146739482Y-115726823D01*
X146752493Y-115718802D01*
X146758213Y-115715007D01*
X146857841Y-115643997D01*
X146868467Y-115635299D01*
X146902981Y-115602963D01*
X146912353Y-115592927D01*
X146925568Y-115576729D01*
X146949983Y-115553838D01*
X146956477Y-115549200D01*
X146956483Y-115549198D01*
X147039198Y-115466483D01*
X147090573Y-115361393D01*
X147100500Y-115293260D01*
X147100500Y-115204205D01*
X147101915Y-115185376D01*
X147102011Y-115184744D01*
X147105708Y-115160279D01*
X147107988Y-115126218D01*
X147107307Y-115084506D01*
X147103916Y-115050536D01*
X147102596Y-115043388D01*
X147100500Y-115020503D01*
X147100500Y-114926744D01*
X147100500Y-114926740D01*
X147090573Y-114858607D01*
X147039198Y-114753517D01*
X147039196Y-114753514D01*
X146956485Y-114670803D01*
X146956482Y-114670801D01*
X146851394Y-114619427D01*
X146783261Y-114609500D01*
X146783260Y-114609500D01*
X146705659Y-114609500D01*
X146681375Y-114607138D01*
X146651905Y-114601349D01*
X146651887Y-114601346D01*
X146641773Y-114599877D01*
X146606656Y-114596552D01*
X146599919Y-114596252D01*
X146596445Y-114596097D01*
X146596436Y-114596097D01*
X145256321Y-114602931D01*
X145256273Y-114602933D01*
X145246258Y-114603474D01*
X145211765Y-114607038D01*
X145211112Y-114607138D01*
X145205150Y-114608050D01*
X145186095Y-114609500D01*
X145066738Y-114609500D01*
X144998605Y-114619427D01*
X144893517Y-114670801D01*
X144893514Y-114670803D01*
X144810803Y-114753514D01*
X144810801Y-114753517D01*
X144759427Y-114858605D01*
X144749500Y-114926738D01*
X144749500Y-115072453D01*
X144749099Y-115079555D01*
X144748690Y-115083157D01*
X144748689Y-115083176D01*
X144747440Y-115124680D01*
X143962422Y-115124680D01*
X144716743Y-114370359D01*
X144720584Y-114366518D01*
X144726753Y-114361104D01*
X144762025Y-114334042D01*
X144790497Y-114317606D01*
X144820030Y-114305375D01*
X144851790Y-114296867D01*
X144875496Y-114293748D01*
X144945642Y-114304695D01*
X144947266Y-114305475D01*
X144998601Y-114330571D01*
X144998604Y-114330571D01*
X144998607Y-114330573D01*
X145066740Y-114340500D01*
X145066745Y-114340500D01*
X146783255Y-114340500D01*
X146783260Y-114340500D01*
X146851393Y-114330573D01*
X146907174Y-114303303D01*
X146962514Y-114290500D01*
X147465740Y-114290500D01*
X147466601Y-114290467D01*
X147520565Y-114290471D01*
X147699429Y-114262154D01*
X147871661Y-114206204D01*
X147992679Y-114144550D01*
X148033018Y-114124000D01*
X148171690Y-114023261D01*
X149699500Y-114023261D01*
X149709427Y-114091394D01*
X149760801Y-114196482D01*
X149760803Y-114196485D01*
X149843514Y-114279196D01*
X149843517Y-114279198D01*
X149948607Y-114330573D01*
X150016740Y-114340500D01*
X150999908Y-114340500D01*
X151007623Y-114340974D01*
X151012682Y-114341597D01*
X151039219Y-114344210D01*
X151047288Y-114345005D01*
X151057365Y-114345500D01*
X151809192Y-114345500D01*
X151839751Y-114349262D01*
X152128260Y-114421389D01*
X152189496Y-114457316D01*
X152199075Y-114468799D01*
X152269427Y-114564124D01*
X152293784Y-114630809D01*
X152293996Y-114635344D01*
X152301855Y-114910394D01*
X152300173Y-114916789D01*
X152302449Y-114931152D01*
X152304474Y-115002043D01*
X152304500Y-115003842D01*
X152304500Y-115790258D01*
X152307275Y-115819849D01*
X152307276Y-115819854D01*
X152350883Y-115944474D01*
X152350884Y-115944475D01*
X152429289Y-116050711D01*
X152535525Y-116129116D01*
X152535524Y-116129116D01*
X152636628Y-116164494D01*
X152660151Y-116172725D01*
X152689744Y-116175500D01*
X152689747Y-116175500D01*
X153270253Y-116175500D01*
X153270256Y-116175500D01*
X153299849Y-116172725D01*
X153424475Y-116129116D01*
X153530711Y-116050711D01*
X153609116Y-115944475D01*
X153652725Y-115819849D01*
X153655500Y-115790256D01*
X153655500Y-115584224D01*
X153657051Y-115564515D01*
X153658220Y-115557135D01*
X153662050Y-115532954D01*
X153662999Y-115524936D01*
X153665183Y-115497179D01*
X153665500Y-115489116D01*
X153665500Y-115063085D01*
X153665450Y-115059870D01*
X153665226Y-115052737D01*
X153665077Y-115049546D01*
X153661258Y-114988404D01*
X153660657Y-114982007D01*
X153658878Y-114967839D01*
X153657883Y-114961515D01*
X153646481Y-114901318D01*
X153645832Y-114898162D01*
X153644285Y-114891197D01*
X153643545Y-114888096D01*
X153539404Y-114479534D01*
X153535500Y-114448412D01*
X153535500Y-114310258D01*
X153974500Y-114310258D01*
X153977275Y-114339849D01*
X153977276Y-114339854D01*
X154020883Y-114464474D01*
X154020884Y-114464475D01*
X154099289Y-114570711D01*
X154205525Y-114649116D01*
X154205524Y-114649116D01*
X154267496Y-114670801D01*
X154330151Y-114692725D01*
X154359744Y-114695500D01*
X154359747Y-114695500D01*
X154965253Y-114695500D01*
X154965256Y-114695500D01*
X154994849Y-114692725D01*
X155119475Y-114649116D01*
X155225711Y-114570711D01*
X155304116Y-114464475D01*
X155347725Y-114339849D01*
X155350500Y-114310256D01*
X155350500Y-113729744D01*
X155347725Y-113700151D01*
X155334618Y-113662695D01*
X155304116Y-113575525D01*
X155287620Y-113553173D01*
X155263263Y-113486485D01*
X155263000Y-113478352D01*
X155263000Y-112915195D01*
X155283002Y-112847074D01*
X155287604Y-112840397D01*
X155314116Y-112804475D01*
X155357725Y-112679849D01*
X155360500Y-112650256D01*
X155360500Y-112069744D01*
X155357725Y-112040151D01*
X155356833Y-112037603D01*
X155314116Y-111915525D01*
X155299165Y-111895267D01*
X155235711Y-111809289D01*
X155140740Y-111739198D01*
X155129474Y-111730883D01*
X155129475Y-111730883D01*
X155004854Y-111687276D01*
X155004849Y-111687275D01*
X154975258Y-111684500D01*
X154975256Y-111684500D01*
X154369744Y-111684500D01*
X154369741Y-111684500D01*
X154340150Y-111687275D01*
X154340145Y-111687276D01*
X154215525Y-111730883D01*
X154109289Y-111809289D01*
X154030883Y-111915525D01*
X153987276Y-112040145D01*
X153987275Y-112040150D01*
X153984500Y-112069741D01*
X153984500Y-112650258D01*
X153987275Y-112679849D01*
X153987276Y-112679854D01*
X154030883Y-112804475D01*
X154030885Y-112804478D01*
X154037379Y-112813277D01*
X154061737Y-112879964D01*
X154062000Y-112888098D01*
X154062000Y-113478352D01*
X154041998Y-113546473D01*
X154037380Y-113553173D01*
X154020883Y-113575525D01*
X153977276Y-113700145D01*
X153977275Y-113700150D01*
X153974500Y-113729741D01*
X153974500Y-114310258D01*
X153535500Y-114310258D01*
X153535500Y-114020895D01*
X153535500Y-114020894D01*
X153535500Y-114020882D01*
X153535183Y-114012818D01*
X153532999Y-113985062D01*
X153532050Y-113977045D01*
X153527051Y-113945481D01*
X153525500Y-113925772D01*
X153525500Y-113729747D01*
X153525500Y-113729744D01*
X153522725Y-113700151D01*
X153509618Y-113662695D01*
X153479116Y-113575525D01*
X153464704Y-113555997D01*
X153400711Y-113469289D01*
X153294475Y-113390884D01*
X153294474Y-113390883D01*
X153294475Y-113390883D01*
X153169854Y-113347276D01*
X153169849Y-113347275D01*
X153140258Y-113344500D01*
X153140256Y-113344500D01*
X152944236Y-113344500D01*
X152924527Y-113342949D01*
X152892952Y-113337948D01*
X152892911Y-113337942D01*
X152884969Y-113337003D01*
X152884913Y-113336997D01*
X152857187Y-113334817D01*
X152857132Y-113334813D01*
X152849128Y-113334500D01*
X152849114Y-113334500D01*
X151057365Y-113334500D01*
X151057360Y-113334500D01*
X151047271Y-113334995D01*
X151012674Y-113338403D01*
X151007653Y-113339024D01*
X150999922Y-113339500D01*
X150016738Y-113339500D01*
X149948605Y-113349427D01*
X149843517Y-113400801D01*
X149843514Y-113400803D01*
X149760803Y-113483514D01*
X149760801Y-113483517D01*
X149709427Y-113588605D01*
X149699500Y-113656738D01*
X149699500Y-114023261D01*
X148171690Y-114023261D01*
X148179531Y-114017565D01*
X148187659Y-114009437D01*
X148187698Y-114009405D01*
X148195560Y-114001541D01*
X148195563Y-114001541D01*
X148243560Y-113953542D01*
X148285500Y-113911606D01*
X148285500Y-113911604D01*
X148294538Y-113902568D01*
X148294551Y-113902551D01*
X148534413Y-113662689D01*
X148534441Y-113662666D01*
X148541603Y-113655502D01*
X148541605Y-113655502D01*
X148546608Y-113650497D01*
X148546720Y-113650436D01*
X148583565Y-113613586D01*
X148583566Y-113613587D01*
X148647591Y-113549556D01*
X148754029Y-113403040D01*
X148836237Y-113241676D01*
X148892188Y-113069438D01*
X148920507Y-112890568D01*
X148920500Y-112800019D01*
X148920500Y-112799953D01*
X148920500Y-112753261D01*
X149699500Y-112753261D01*
X149709427Y-112821394D01*
X149760801Y-112926482D01*
X149760803Y-112926485D01*
X149843514Y-113009196D01*
X149843517Y-113009198D01*
X149948607Y-113060573D01*
X150016740Y-113070500D01*
X150016745Y-113070500D01*
X151733255Y-113070500D01*
X151733260Y-113070500D01*
X151758545Y-113066815D01*
X151776710Y-113065500D01*
X151835520Y-113065500D01*
X151835610Y-113065500D01*
X151842025Y-113065469D01*
X151848169Y-113065381D01*
X152156434Y-113059452D01*
X152361991Y-113055500D01*
X152854103Y-113055500D01*
X152854117Y-113055500D01*
X152862181Y-113055183D01*
X152862192Y-113055182D01*
X152862195Y-113055182D01*
X152877828Y-113053951D01*
X152889937Y-113052999D01*
X152897953Y-113052050D01*
X152992652Y-113037050D01*
X153012362Y-113035500D01*
X153150253Y-113035500D01*
X153150256Y-113035500D01*
X153179849Y-113032725D01*
X153304475Y-112989116D01*
X153410711Y-112910711D01*
X153489116Y-112804475D01*
X153532725Y-112679849D01*
X153535500Y-112650256D01*
X153535500Y-112459226D01*
X153537051Y-112439516D01*
X153542050Y-112407955D01*
X153542999Y-112399937D01*
X153545183Y-112372178D01*
X153545500Y-112364116D01*
X153545500Y-112340951D01*
X153545178Y-112332827D01*
X153542962Y-112304872D01*
X153542000Y-112296803D01*
X153537073Y-112265918D01*
X153535500Y-112246069D01*
X153535500Y-112069747D01*
X153535500Y-112069744D01*
X153532725Y-112040151D01*
X153531833Y-112037603D01*
X153489116Y-111915525D01*
X153474165Y-111895267D01*
X153410711Y-111809289D01*
X153315740Y-111739198D01*
X153304474Y-111730883D01*
X153304475Y-111730883D01*
X153179854Y-111687276D01*
X153179849Y-111687275D01*
X153150258Y-111684500D01*
X153150256Y-111684500D01*
X152544744Y-111684500D01*
X152544741Y-111684500D01*
X152515150Y-111687275D01*
X152515145Y-111687276D01*
X152390527Y-111730882D01*
X152294447Y-111801790D01*
X152289872Y-111804867D01*
X152281856Y-111809762D01*
X152281852Y-111809765D01*
X152270599Y-111817718D01*
X152270594Y-111817722D01*
X152175175Y-111895265D01*
X152175172Y-111895268D01*
X152169956Y-111899805D01*
X152158768Y-111910218D01*
X152158755Y-111910231D01*
X152158747Y-111910238D01*
X152158748Y-111910238D01*
X152153859Y-111915105D01*
X152145921Y-111923555D01*
X152072559Y-112001649D01*
X152011340Y-112037603D01*
X151995896Y-112040462D01*
X151887801Y-112053564D01*
X151800069Y-112064198D01*
X151793095Y-112064653D01*
X151327299Y-112069175D01*
X151293899Y-112069500D01*
X150016738Y-112069500D01*
X149948605Y-112079427D01*
X149843517Y-112130801D01*
X149843514Y-112130803D01*
X149760803Y-112213514D01*
X149760801Y-112213517D01*
X149709427Y-112318605D01*
X149699500Y-112386738D01*
X149699500Y-112753261D01*
X148920500Y-112753261D01*
X148920500Y-111483261D01*
X149699500Y-111483261D01*
X149709427Y-111551394D01*
X149760801Y-111656482D01*
X149760803Y-111656485D01*
X149843514Y-111739196D01*
X149843517Y-111739198D01*
X149948607Y-111790573D01*
X150016740Y-111800500D01*
X150016745Y-111800500D01*
X151733255Y-111800500D01*
X151733260Y-111800500D01*
X151801393Y-111790573D01*
X151906483Y-111739198D01*
X151989198Y-111656483D01*
X152040573Y-111551393D01*
X152050500Y-111483260D01*
X152050500Y-111116740D01*
X152040573Y-111048607D01*
X151989198Y-110943517D01*
X151989196Y-110943514D01*
X151906485Y-110860803D01*
X151906482Y-110860801D01*
X151801394Y-110809427D01*
X151733261Y-110799500D01*
X151733260Y-110799500D01*
X150016740Y-110799500D01*
X150016738Y-110799500D01*
X149948605Y-110809427D01*
X149843517Y-110860801D01*
X149843514Y-110860803D01*
X149760803Y-110943514D01*
X149760801Y-110943517D01*
X149709427Y-111048605D01*
X149699500Y-111116738D01*
X149699500Y-111483261D01*
X148920500Y-111483261D01*
X148920500Y-110213261D01*
X149699500Y-110213261D01*
X149709427Y-110281394D01*
X149760801Y-110386482D01*
X149760803Y-110386485D01*
X149843514Y-110469196D01*
X149843517Y-110469198D01*
X149948607Y-110520573D01*
X150016740Y-110530500D01*
X150016745Y-110530500D01*
X151733255Y-110530500D01*
X151733260Y-110530500D01*
X151801393Y-110520573D01*
X151857174Y-110493303D01*
X151912514Y-110480500D01*
X152421650Y-110480500D01*
X152463264Y-110487570D01*
X152535151Y-110512725D01*
X152564744Y-110515500D01*
X152764028Y-110515500D01*
X152832149Y-110535502D01*
X152840737Y-110541541D01*
X152853372Y-110551238D01*
X152859563Y-110556667D01*
X152862719Y-110559823D01*
X152862721Y-110559828D01*
X152862723Y-110559827D01*
X152904319Y-110601426D01*
X152904342Y-110601446D01*
X153359784Y-111056887D01*
X153366407Y-111063511D01*
X153424911Y-111122024D01*
X153425972Y-111123032D01*
X153430451Y-111127512D01*
X153521833Y-111193913D01*
X153576950Y-111233962D01*
X153738295Y-111316183D01*
X153910516Y-111372153D01*
X153910519Y-111372153D01*
X153910521Y-111372154D01*
X153950038Y-111378415D01*
X154089372Y-111400494D01*
X154101862Y-111400494D01*
X154101925Y-111400500D01*
X154112047Y-111400500D01*
X154179913Y-111400500D01*
X154179959Y-111400500D01*
X154239226Y-111400504D01*
X154239226Y-111400503D01*
X154243283Y-111400504D01*
X154243355Y-111400500D01*
X156548071Y-111400500D01*
X156589687Y-111407571D01*
X156690145Y-111442723D01*
X156690151Y-111442725D01*
X156719744Y-111445500D01*
X156719747Y-111445500D01*
X157300253Y-111445500D01*
X157300256Y-111445500D01*
X157329849Y-111442725D01*
X157454475Y-111399116D01*
X157560711Y-111320711D01*
X157639116Y-111214475D01*
X157682725Y-111089849D01*
X157685500Y-111060256D01*
X157685500Y-110454744D01*
X157682725Y-110425151D01*
X157668500Y-110384500D01*
X157639116Y-110300525D01*
X157624996Y-110281393D01*
X157560711Y-110194289D01*
X157454475Y-110115884D01*
X157454474Y-110115883D01*
X157454475Y-110115883D01*
X157329854Y-110072276D01*
X157329849Y-110072275D01*
X157300258Y-110069500D01*
X157300256Y-110069500D01*
X156719744Y-110069500D01*
X156719741Y-110069500D01*
X156690150Y-110072275D01*
X156690145Y-110072276D01*
X156565525Y-110115883D01*
X156459289Y-110194289D01*
X156380883Y-110300525D01*
X156340786Y-110415116D01*
X156299408Y-110472807D01*
X156233407Y-110498969D01*
X156221857Y-110499500D01*
X154184119Y-110499500D01*
X154175883Y-110498960D01*
X154149616Y-110495500D01*
X154131853Y-110493160D01*
X154100086Y-110484646D01*
X154090078Y-110480500D01*
X154070561Y-110472414D01*
X154042075Y-110455965D01*
X154006629Y-110428762D01*
X154000431Y-110423326D01*
X153959033Y-110381927D01*
X153959005Y-110381902D01*
X153592403Y-110015300D01*
X153558379Y-109952989D01*
X153555500Y-109926206D01*
X153555500Y-109549747D01*
X153555500Y-109549744D01*
X153552725Y-109520151D01*
X153543964Y-109495115D01*
X153509116Y-109395525D01*
X153473456Y-109347207D01*
X153430711Y-109289289D01*
X153330663Y-109215451D01*
X153324474Y-109210883D01*
X153324475Y-109210883D01*
X153199854Y-109167276D01*
X153199849Y-109167275D01*
X153170258Y-109164500D01*
X153170256Y-109164500D01*
X152564744Y-109164500D01*
X152564741Y-109164500D01*
X152535150Y-109167275D01*
X152535145Y-109167276D01*
X152410525Y-109210883D01*
X152304289Y-109289289D01*
X152225883Y-109395525D01*
X152225882Y-109395526D01*
X152191035Y-109495115D01*
X152149657Y-109552807D01*
X152083656Y-109578969D01*
X152072106Y-109579500D01*
X151912514Y-109579500D01*
X151857175Y-109566697D01*
X151801394Y-109539427D01*
X151733261Y-109529500D01*
X151733260Y-109529500D01*
X150016740Y-109529500D01*
X150016738Y-109529500D01*
X149948605Y-109539427D01*
X149843517Y-109590801D01*
X149843514Y-109590803D01*
X149760803Y-109673514D01*
X149760801Y-109673517D01*
X149709427Y-109778605D01*
X149699500Y-109846738D01*
X149699500Y-110213261D01*
X148920500Y-110213261D01*
X148920500Y-108943261D01*
X149699500Y-108943261D01*
X149709427Y-109011394D01*
X149760801Y-109116482D01*
X149760803Y-109116485D01*
X149843514Y-109199196D01*
X149843517Y-109199198D01*
X149948607Y-109250573D01*
X150016740Y-109260500D01*
X150297892Y-109260500D01*
X150305826Y-109261001D01*
X150316472Y-109262351D01*
X150385974Y-109271165D01*
X150392689Y-109271794D01*
X150392730Y-109271796D01*
X150392748Y-109271798D01*
X150401795Y-109272345D01*
X150407660Y-109272701D01*
X150414408Y-109272888D01*
X150414457Y-109272887D01*
X150414473Y-109272888D01*
X151188133Y-109268879D01*
X151342878Y-109268078D01*
X151349571Y-109267825D01*
X151364459Y-109266776D01*
X151371133Y-109266086D01*
X151407819Y-109261079D01*
X151416349Y-109260500D01*
X151733255Y-109260500D01*
X151733260Y-109260500D01*
X151801393Y-109250573D01*
X151906483Y-109199198D01*
X151989198Y-109116483D01*
X152040573Y-109011393D01*
X152050500Y-108943260D01*
X152050500Y-108576740D01*
X152046816Y-108551454D01*
X152045500Y-108533289D01*
X152045500Y-108034000D01*
X152065502Y-107965879D01*
X152119158Y-107919386D01*
X152171500Y-107908000D01*
X157952497Y-107908000D01*
X158020618Y-107928002D01*
X158053876Y-107959178D01*
X158099289Y-108020711D01*
X158205525Y-108099116D01*
X158205524Y-108099116D01*
X158330145Y-108142723D01*
X158330151Y-108142725D01*
X158359744Y-108145500D01*
X158359747Y-108145500D01*
X158940253Y-108145500D01*
X158940256Y-108145500D01*
X158969849Y-108142725D01*
X159094475Y-108099116D01*
X159200711Y-108020711D01*
X159279116Y-107914475D01*
X159322725Y-107789849D01*
X159325500Y-107760256D01*
X159325500Y-107154744D01*
X159322725Y-107125151D01*
X159279116Y-107000525D01*
X159200711Y-106894289D01*
X159094475Y-106815884D01*
X159094474Y-106815883D01*
X159094475Y-106815883D01*
X158969854Y-106772276D01*
X158969849Y-106772275D01*
X158940258Y-106769500D01*
X158940256Y-106769500D01*
X158359744Y-106769500D01*
X158359741Y-106769500D01*
X158330150Y-106772275D01*
X158330145Y-106772276D01*
X158205525Y-106815883D01*
X158099289Y-106894289D01*
X158053876Y-106955822D01*
X157997331Y-106998754D01*
X157952497Y-107007000D01*
X151844924Y-107007000D01*
X151807724Y-107001383D01*
X151801396Y-106999427D01*
X151733261Y-106989500D01*
X151733260Y-106989500D01*
X151373550Y-106989500D01*
X151366656Y-106989122D01*
X151364030Y-106988833D01*
X151357289Y-106988202D01*
X151357298Y-106988202D01*
X151342378Y-106987298D01*
X151342348Y-106987297D01*
X151337839Y-106987172D01*
X151335590Y-106987110D01*
X151335585Y-106987110D01*
X151335524Y-106987109D01*
X150961134Y-106989050D01*
X150874341Y-106989500D01*
X150016738Y-106989500D01*
X149948605Y-106999427D01*
X149843517Y-107050801D01*
X149843514Y-107050803D01*
X149760803Y-107133514D01*
X149760801Y-107133517D01*
X149709427Y-107238605D01*
X149699500Y-107306738D01*
X149699500Y-107673261D01*
X149703184Y-107698544D01*
X149704500Y-107716710D01*
X149704500Y-108533289D01*
X149703184Y-108551454D01*
X149699500Y-108576736D01*
X149699500Y-108943261D01*
X148920500Y-108943261D01*
X148920500Y-106762623D01*
X148924688Y-106730406D01*
X148936181Y-106686951D01*
X148938741Y-106673914D01*
X148944642Y-106628524D01*
X148945500Y-106615263D01*
X148945500Y-106454468D01*
X148945203Y-106436063D01*
X148945032Y-106430728D01*
X148944143Y-106412356D01*
X148915435Y-105967390D01*
X148914646Y-105959687D01*
X148910926Y-105933244D01*
X148909560Y-105925629D01*
X148883013Y-105804099D01*
X148878246Y-105788147D01*
X148875774Y-105779873D01*
X148870500Y-105743800D01*
X148870500Y-105689747D01*
X148870500Y-105689744D01*
X148867725Y-105660151D01*
X148867671Y-105659998D01*
X148824116Y-105535525D01*
X148824115Y-105535525D01*
X148745711Y-105429289D01*
X148667305Y-105371423D01*
X148639474Y-105350883D01*
X148639475Y-105350883D01*
X148514854Y-105307276D01*
X148514849Y-105307275D01*
X148485258Y-105304500D01*
X148485256Y-105304500D01*
X147879744Y-105304500D01*
X147879741Y-105304500D01*
X147850150Y-105307275D01*
X147850145Y-105307276D01*
X147725525Y-105350883D01*
X147619289Y-105429289D01*
X147540883Y-105535525D01*
X147497276Y-105660145D01*
X147497275Y-105660150D01*
X147494500Y-105689741D01*
X147494500Y-106270258D01*
X147497275Y-106299850D01*
X147499108Y-106305088D01*
X147503823Y-106322459D01*
X147510615Y-106357108D01*
X147521985Y-106395162D01*
X147540286Y-106440051D01*
X147558767Y-106475212D01*
X147580239Y-106507934D01*
X147605139Y-106538883D01*
X147637577Y-106572048D01*
X147639032Y-106573536D01*
X147639041Y-106573545D01*
X147669416Y-106599113D01*
X147701640Y-106621298D01*
X147701643Y-106621300D01*
X147701648Y-106621303D01*
X147736383Y-106640557D01*
X147780854Y-106659852D01*
X147818649Y-106672066D01*
X147873910Y-106684179D01*
X147883716Y-106685836D01*
X147908457Y-106688794D01*
X147973721Y-106716740D01*
X148013516Y-106775535D01*
X148019500Y-106813903D01*
X148019500Y-112736538D01*
X148019495Y-112736612D01*
X148019499Y-112795951D01*
X148018960Y-112804182D01*
X148013167Y-112848211D01*
X148004656Y-112879985D01*
X147992427Y-112909513D01*
X147975983Y-112937998D01*
X147949111Y-112973022D01*
X147943669Y-112979226D01*
X147613479Y-113309417D01*
X147612441Y-113310455D01*
X147609384Y-113313509D01*
X147603199Y-113318931D01*
X147567980Y-113345953D01*
X147539494Y-113362397D01*
X147509979Y-113374621D01*
X147478203Y-113383133D01*
X147433915Y-113388960D01*
X147425684Y-113389499D01*
X147366716Y-113389495D01*
X147366644Y-113389500D01*
X146962514Y-113389500D01*
X146907175Y-113376697D01*
X146851394Y-113349427D01*
X146783261Y-113339500D01*
X146783260Y-113339500D01*
X145066740Y-113339500D01*
X145066738Y-113339500D01*
X144998606Y-113349427D01*
X144998604Y-113349427D01*
X144942825Y-113376697D01*
X144887486Y-113389500D01*
X144864263Y-113389500D01*
X144863391Y-113389531D01*
X144809439Y-113389529D01*
X144809435Y-113389529D01*
X144809434Y-113389529D01*
X144809433Y-113389529D01*
X144630576Y-113417844D01*
X144458338Y-113473796D01*
X144458335Y-113473798D01*
X144296986Y-113555997D01*
X144150467Y-113662436D01*
X144137832Y-113675068D01*
X144137791Y-113675104D01*
X144086779Y-113726116D01*
X144086506Y-113726390D01*
X144041337Y-113771556D01*
X144041332Y-113771560D01*
X144041333Y-113771561D01*
X143241186Y-114571708D01*
X143241143Y-114571747D01*
X143233383Y-114579508D01*
X143233277Y-114579565D01*
X143132409Y-114680444D01*
X143025968Y-114826964D01*
X142943765Y-114988320D01*
X142943762Y-114988327D01*
X142887811Y-115160565D01*
X142859494Y-115339424D01*
X142859493Y-115339437D01*
X142859500Y-115429922D01*
X142859500Y-117816539D01*
X142859495Y-117816613D01*
X142859496Y-117827856D01*
X142859462Y-117827971D01*
X135000500Y-117827971D01*
X135000500Y-111483261D01*
X144749500Y-111483261D01*
X144759427Y-111551394D01*
X144810801Y-111656482D01*
X144810803Y-111656485D01*
X144893514Y-111739196D01*
X144893517Y-111739198D01*
X144998607Y-111790573D01*
X145066740Y-111800500D01*
X145825866Y-111800500D01*
X145861365Y-111805604D01*
X145878035Y-111810499D01*
X145878036Y-111810499D01*
X145878039Y-111810500D01*
X145878042Y-111810500D01*
X146021958Y-111810500D01*
X146021961Y-111810500D01*
X146038635Y-111805603D01*
X146074134Y-111800500D01*
X146783255Y-111800500D01*
X146783260Y-111800500D01*
X146851393Y-111790573D01*
X146956483Y-111739198D01*
X147039198Y-111656483D01*
X147090573Y-111551393D01*
X147100500Y-111483260D01*
X147100500Y-111116740D01*
X147090573Y-111048607D01*
X147039198Y-110943517D01*
X147039196Y-110943514D01*
X146956485Y-110860803D01*
X146956482Y-110860801D01*
X146851394Y-110809427D01*
X146783261Y-110799500D01*
X146783260Y-110799500D01*
X145066740Y-110799500D01*
X145066738Y-110799500D01*
X144998605Y-110809427D01*
X144893517Y-110860801D01*
X144893514Y-110860803D01*
X144810803Y-110943514D01*
X144810801Y-110943517D01*
X144759427Y-111048605D01*
X144749500Y-111116738D01*
X144749500Y-111483261D01*
X135000500Y-111483261D01*
X135000500Y-110808812D01*
X135020502Y-110740691D01*
X135074158Y-110694198D01*
X135144432Y-110684094D01*
X135168112Y-110689881D01*
X135190301Y-110697646D01*
X135220734Y-110700500D01*
X139749908Y-110700500D01*
X139757623Y-110700974D01*
X139762682Y-110701597D01*
X139789219Y-110704210D01*
X139797288Y-110705005D01*
X139807365Y-110705500D01*
X139807369Y-110705500D01*
X139995879Y-110705500D01*
X139997721Y-110705475D01*
X139998517Y-110705465D01*
X140004405Y-110705312D01*
X140007048Y-110705209D01*
X140059874Y-110702473D01*
X140109485Y-110699904D01*
X140114744Y-110699494D01*
X140114750Y-110699493D01*
X140114769Y-110699492D01*
X140114777Y-110699491D01*
X140114802Y-110699489D01*
X140118818Y-110699071D01*
X140126544Y-110698269D01*
X140131812Y-110697583D01*
X140233152Y-110681723D01*
X140235795Y-110681274D01*
X140241617Y-110680207D01*
X140244204Y-110679698D01*
X140244228Y-110679692D01*
X140244243Y-110679690D01*
X141026108Y-110515499D01*
X141108532Y-110498189D01*
X141134427Y-110495500D01*
X141183304Y-110495500D01*
X141203004Y-110493303D01*
X141224662Y-110490887D01*
X141231647Y-110490500D01*
X144907941Y-110490500D01*
X144963277Y-110503301D01*
X144998607Y-110520573D01*
X145066740Y-110530500D01*
X145066745Y-110530500D01*
X146783255Y-110530500D01*
X146783260Y-110530500D01*
X146851393Y-110520573D01*
X146956483Y-110469198D01*
X147039198Y-110386483D01*
X147090573Y-110281393D01*
X147100500Y-110213260D01*
X147100500Y-109846740D01*
X147090573Y-109778607D01*
X147039198Y-109673517D01*
X147039196Y-109673514D01*
X146956485Y-109590803D01*
X146956482Y-109590801D01*
X146851394Y-109539427D01*
X146783261Y-109529500D01*
X146783260Y-109529500D01*
X145066740Y-109529500D01*
X145066738Y-109529500D01*
X144998606Y-109539427D01*
X144971237Y-109552807D01*
X144922368Y-109576697D01*
X144867031Y-109589500D01*
X141232138Y-109589500D01*
X141224950Y-109589089D01*
X141201395Y-109586386D01*
X141184954Y-109584500D01*
X141184952Y-109584500D01*
X141142963Y-109584500D01*
X141110842Y-109580337D01*
X141107667Y-109579500D01*
X140955668Y-109539427D01*
X140178048Y-109334416D01*
X140174816Y-109333620D01*
X140171092Y-109332767D01*
X140167651Y-109331978D01*
X140164431Y-109331294D01*
X140164418Y-109331291D01*
X140164383Y-109331284D01*
X140039171Y-109306770D01*
X140039106Y-109306758D01*
X140032623Y-109305705D01*
X140032602Y-109305702D01*
X140032594Y-109305701D01*
X140025924Y-109304836D01*
X140017995Y-109303809D01*
X140011407Y-109303171D01*
X139884007Y-109294948D01*
X139880685Y-109294788D01*
X139873335Y-109294553D01*
X139870333Y-109294505D01*
X139870020Y-109294500D01*
X139757365Y-109294500D01*
X139757360Y-109294500D01*
X139747271Y-109294995D01*
X139712674Y-109298403D01*
X139707653Y-109299024D01*
X139699922Y-109299500D01*
X135220733Y-109299500D01*
X135190299Y-109302354D01*
X135190297Y-109302354D01*
X135168113Y-109310117D01*
X135097209Y-109313735D01*
X135035604Y-109278445D01*
X135002858Y-109215451D01*
X135000500Y-109191187D01*
X135000500Y-108943261D01*
X144749500Y-108943261D01*
X144759427Y-109011394D01*
X144810801Y-109116482D01*
X144810803Y-109116485D01*
X144893514Y-109199196D01*
X144893517Y-109199198D01*
X144998607Y-109250573D01*
X145066740Y-109260500D01*
X145066745Y-109260500D01*
X146783255Y-109260500D01*
X146783260Y-109260500D01*
X146851393Y-109250573D01*
X146956483Y-109199198D01*
X147039198Y-109116483D01*
X147090573Y-109011393D01*
X147100500Y-108943260D01*
X147100500Y-108626981D01*
X147101081Y-108618443D01*
X147101872Y-108612651D01*
X147106162Y-108581257D01*
X147106853Y-108574593D01*
X147107906Y-108559706D01*
X147108160Y-108553005D01*
X147115382Y-107202505D01*
X147115361Y-107198889D01*
X147114999Y-107176893D01*
X147114938Y-107174665D01*
X147114747Y-107169673D01*
X147114636Y-107167417D01*
X147113313Y-107145443D01*
X147113055Y-107141829D01*
X147080590Y-106746832D01*
X147055712Y-106444144D01*
X147055500Y-106438982D01*
X147055500Y-105980895D01*
X147055500Y-105980882D01*
X147055183Y-105972818D01*
X147052999Y-105945062D01*
X147052050Y-105937045D01*
X147047051Y-105905481D01*
X147045500Y-105885772D01*
X147045500Y-105689747D01*
X147045500Y-105689744D01*
X147042725Y-105660151D01*
X147042671Y-105659998D01*
X146999116Y-105535525D01*
X146999115Y-105535525D01*
X146920711Y-105429289D01*
X146842305Y-105371423D01*
X146814474Y-105350883D01*
X146814475Y-105350883D01*
X146689854Y-105307276D01*
X146689849Y-105307275D01*
X146660258Y-105304500D01*
X146660256Y-105304500D01*
X146464236Y-105304500D01*
X146444527Y-105302949D01*
X146412952Y-105297948D01*
X146412911Y-105297942D01*
X146404969Y-105297003D01*
X146404913Y-105296997D01*
X146377187Y-105294817D01*
X146377132Y-105294813D01*
X146369128Y-105294500D01*
X146369114Y-105294500D01*
X146355886Y-105294500D01*
X146355872Y-105294500D01*
X146347867Y-105294814D01*
X146347838Y-105294815D01*
X146347828Y-105294816D01*
X146347820Y-105294816D01*
X146347813Y-105294817D01*
X146320085Y-105296997D01*
X146320029Y-105297003D01*
X146312087Y-105297942D01*
X146312046Y-105297948D01*
X146280472Y-105302949D01*
X146260763Y-105304500D01*
X146054741Y-105304500D01*
X146025150Y-105307275D01*
X146025145Y-105307276D01*
X145900525Y-105350883D01*
X145794289Y-105429289D01*
X145715883Y-105535525D01*
X145672276Y-105660145D01*
X145672275Y-105660150D01*
X145669500Y-105689741D01*
X145669500Y-105922345D01*
X145668047Y-105940814D01*
X145668095Y-105940820D01*
X145668093Y-105940831D01*
X145668118Y-105940835D01*
X145667946Y-105942071D01*
X145667002Y-105950045D01*
X145666999Y-105950075D01*
X145664817Y-105977806D01*
X145664696Y-105980895D01*
X145664500Y-105985883D01*
X145664500Y-105985896D01*
X145664500Y-106396848D01*
X145655675Y-106443173D01*
X145560738Y-106683307D01*
X145517092Y-106739303D01*
X145491457Y-106753524D01*
X145205142Y-106871187D01*
X145205082Y-106871213D01*
X145198215Y-106874336D01*
X145198204Y-106874341D01*
X145174955Y-106885959D01*
X145174917Y-106885979D01*
X145168360Y-106889562D01*
X145168301Y-106889597D01*
X145063253Y-106952116D01*
X145038533Y-106969406D01*
X145038531Y-106969407D01*
X145017563Y-106986496D01*
X144993304Y-107002019D01*
X144893515Y-107050802D01*
X144810803Y-107133514D01*
X144810801Y-107133517D01*
X144759427Y-107238605D01*
X144749500Y-107306738D01*
X144749500Y-107673261D01*
X144760092Y-107745956D01*
X144761406Y-107764799D01*
X144759360Y-108145500D01*
X144757354Y-108518592D01*
X144756696Y-108527345D01*
X144749500Y-108576740D01*
X144749500Y-108943261D01*
X135000500Y-108943261D01*
X135000500Y-100367599D01*
X144849500Y-100367599D01*
X144864987Y-100524848D01*
X144864988Y-100524854D01*
X144864989Y-100524855D01*
X144926201Y-100726645D01*
X145025605Y-100912616D01*
X145159379Y-101075621D01*
X145322384Y-101209395D01*
X145508355Y-101308799D01*
X145710145Y-101370011D01*
X145710150Y-101370011D01*
X145710152Y-101370012D01*
X145764232Y-101375338D01*
X145830065Y-101401919D01*
X145840979Y-101411636D01*
X150166740Y-105737397D01*
X150200766Y-105799709D01*
X150202726Y-105811303D01*
X150204859Y-105828871D01*
X150265179Y-105987925D01*
X150265181Y-105987929D01*
X150265182Y-105987930D01*
X150361817Y-106127929D01*
X150489148Y-106240734D01*
X150639775Y-106319790D01*
X150639776Y-106319790D01*
X150639778Y-106319791D01*
X150791182Y-106357108D01*
X150804944Y-106360500D01*
X150804947Y-106360500D01*
X150975053Y-106360500D01*
X150975056Y-106360500D01*
X151140225Y-106319790D01*
X151290852Y-106240734D01*
X151418183Y-106127929D01*
X151514818Y-105987930D01*
X151518658Y-105977806D01*
X151531075Y-105945062D01*
X151575140Y-105828872D01*
X151583036Y-105763841D01*
X151595645Y-105660002D01*
X151595645Y-105659998D01*
X151590960Y-105621415D01*
X151590500Y-105613814D01*
X151590500Y-105493060D01*
X151590615Y-105489255D01*
X151594357Y-105427394D01*
X151583180Y-105366405D01*
X151582613Y-105362682D01*
X151575140Y-105301128D01*
X151571611Y-105291823D01*
X151565487Y-105269854D01*
X151563694Y-105260070D01*
X151563694Y-105260068D01*
X151538250Y-105203537D01*
X151536808Y-105200056D01*
X151514818Y-105142070D01*
X151513364Y-105139963D01*
X151509161Y-105133874D01*
X151497957Y-105114009D01*
X151493877Y-105104943D01*
X151455635Y-105056131D01*
X151453400Y-105053092D01*
X151418183Y-105002071D01*
X151418181Y-105002069D01*
X151371788Y-104960969D01*
X151369033Y-104958376D01*
X147399923Y-100989266D01*
X149929500Y-100989266D01*
X149932354Y-101019700D01*
X149932355Y-101019704D01*
X149977206Y-101147881D01*
X149977208Y-101147885D01*
X150057849Y-101257150D01*
X150167114Y-101337791D01*
X150167118Y-101337793D01*
X150287044Y-101379757D01*
X150295301Y-101382646D01*
X150325734Y-101385500D01*
X150325736Y-101385500D01*
X151674264Y-101385500D01*
X151674266Y-101385500D01*
X151704699Y-101382646D01*
X151832882Y-101337793D01*
X151942150Y-101257150D01*
X152022793Y-101147882D01*
X152067646Y-101019699D01*
X152070500Y-100989266D01*
X152070500Y-99190734D01*
X152067646Y-99160301D01*
X152022793Y-99032118D01*
X152022791Y-99032114D01*
X151942150Y-98922849D01*
X151832885Y-98842208D01*
X151832881Y-98842206D01*
X151704704Y-98797355D01*
X151704700Y-98797354D01*
X151674266Y-98794500D01*
X150325734Y-98794500D01*
X150325733Y-98794500D01*
X150295299Y-98797354D01*
X150295295Y-98797355D01*
X150167118Y-98842206D01*
X150167114Y-98842208D01*
X150057849Y-98922849D01*
X149977208Y-99032114D01*
X149977206Y-99032118D01*
X149932355Y-99160295D01*
X149932354Y-99160299D01*
X149929500Y-99190733D01*
X149929500Y-100989266D01*
X147399923Y-100989266D01*
X147013608Y-100602951D01*
X146979582Y-100540639D01*
X146977310Y-100501509D01*
X146990500Y-100367593D01*
X146990500Y-99812407D01*
X146975011Y-99655145D01*
X146913799Y-99453355D01*
X146814395Y-99267384D01*
X146680621Y-99104379D01*
X146517616Y-98970605D01*
X146517614Y-98970604D01*
X146517613Y-98970603D01*
X146331645Y-98871201D01*
X146236061Y-98842206D01*
X146129855Y-98809989D01*
X146129854Y-98809988D01*
X146129848Y-98809987D01*
X145920003Y-98789320D01*
X145919997Y-98789320D01*
X145710151Y-98809987D01*
X145508354Y-98871201D01*
X145322386Y-98970603D01*
X145159379Y-99104379D01*
X145025603Y-99267386D01*
X144926201Y-99453354D01*
X144864987Y-99655151D01*
X144849500Y-99812400D01*
X144849500Y-100367599D01*
X135000500Y-100367599D01*
X135000500Y-99001464D01*
X135000567Y-98998554D01*
X135007795Y-98842206D01*
X135008486Y-98827259D01*
X135008533Y-98827261D01*
X135008503Y-98826902D01*
X135016811Y-98657783D01*
X135016905Y-98656249D01*
X135019978Y-98614591D01*
X135020402Y-98610603D01*
X135044665Y-98436672D01*
X135069554Y-98268884D01*
X135069759Y-98267610D01*
X135074380Y-98240974D01*
X135075102Y-98237444D01*
X135116696Y-98060595D01*
X135160125Y-97887218D01*
X135160502Y-97885791D01*
X135163504Y-97874942D01*
X135164437Y-97871890D01*
X135223767Y-97694874D01*
X135224066Y-97694011D01*
X135286450Y-97519662D01*
X135288099Y-97515528D01*
X135365047Y-97341258D01*
X135365668Y-97339899D01*
X135444585Y-97173041D01*
X135446466Y-97169382D01*
X135539325Y-97002671D01*
X135540267Y-97001041D01*
X135634977Y-96843026D01*
X135637007Y-96839864D01*
X135744922Y-96682326D01*
X135746259Y-96680453D01*
X135855893Y-96532628D01*
X135857973Y-96529979D01*
X135980010Y-96383016D01*
X135981788Y-96380968D01*
X136105344Y-96244644D01*
X136107364Y-96242523D01*
X136242523Y-96107364D01*
X136244644Y-96105344D01*
X136380974Y-95981782D01*
X136383015Y-95980010D01*
X136529979Y-95857973D01*
X136532628Y-95855893D01*
X136680465Y-95746250D01*
X136682326Y-95744923D01*
X136839864Y-95637007D01*
X136843026Y-95634977D01*
X137001041Y-95540267D01*
X137002671Y-95539325D01*
X137169382Y-95446466D01*
X137173041Y-95444585D01*
X137339899Y-95365668D01*
X137341258Y-95365047D01*
X137515528Y-95288099D01*
X137519662Y-95286450D01*
X137694011Y-95224066D01*
X137694874Y-95223767D01*
X137871890Y-95164437D01*
X137874942Y-95163504D01*
X137885791Y-95160502D01*
X137887218Y-95160125D01*
X138060595Y-95116696D01*
X138237444Y-95075102D01*
X138240974Y-95074380D01*
X138267610Y-95069759D01*
X138268884Y-95069554D01*
X138436681Y-95044663D01*
X138610603Y-95020402D01*
X138614591Y-95019978D01*
X138656284Y-95016902D01*
X138657772Y-95016811D01*
X138826891Y-95008504D01*
X138827255Y-95008592D01*
X138827251Y-95008486D01*
X138972379Y-95001776D01*
X138998555Y-95000567D01*
X139001465Y-95000500D01*
X160998535Y-95000500D01*
X161001445Y-95000567D01*
G37*
%TD.AperFunction*%
%TD*%
%TA.AperFunction,Conductor*%
%TO.N,Net-(P1-Pin_1)*%
G36*
X152904875Y-111896461D02*
G01*
X153012280Y-111912361D01*
X153050141Y-111924288D01*
X153129601Y-111963991D01*
X153138215Y-111968295D01*
X153170489Y-111991413D01*
X153240497Y-112060638D01*
X153263977Y-112092652D01*
X153308968Y-112180220D01*
X153321321Y-112217950D01*
X153338426Y-112325166D01*
X153340000Y-112345017D01*
X153340000Y-112360081D01*
X153338449Y-112379793D01*
X153319628Y-112498618D01*
X153307446Y-112536108D01*
X153257386Y-112634357D01*
X153234214Y-112666250D01*
X153156250Y-112744214D01*
X153124357Y-112767386D01*
X153026108Y-112817446D01*
X152988618Y-112829628D01*
X152905244Y-112842834D01*
X152869791Y-112848449D01*
X152850082Y-112850000D01*
X152360000Y-112850000D01*
X152355333Y-112850088D01*
X152355262Y-112850090D01*
X151943357Y-112858012D01*
X151844719Y-112859909D01*
X151842485Y-112859941D01*
X151840051Y-112859976D01*
X151835111Y-112860000D01*
X151062857Y-112860000D01*
X151037743Y-112857472D01*
X151001450Y-112850090D01*
X150965775Y-112842833D01*
X150919539Y-112823213D01*
X150869678Y-112788956D01*
X150834780Y-112752834D01*
X150802261Y-112701820D01*
X150784246Y-112654935D01*
X150783777Y-112652137D01*
X150774132Y-112594635D01*
X150775579Y-112545653D01*
X150790264Y-112481581D01*
X150809582Y-112437868D01*
X150847439Y-112383350D01*
X150881649Y-112349977D01*
X150937087Y-112313482D01*
X150981264Y-112295252D01*
X151058354Y-112279582D01*
X151082208Y-112277065D01*
X151170100Y-112276212D01*
X151810000Y-112270000D01*
X151837551Y-112266660D01*
X151837556Y-112266660D01*
X151837577Y-112266657D01*
X151837602Y-112266655D01*
X151934289Y-112254934D01*
X151975000Y-112250000D01*
X152140000Y-112230000D01*
X152264992Y-112096944D01*
X152301276Y-112058319D01*
X152307451Y-112052572D01*
X152394832Y-111981561D01*
X152423604Y-111963994D01*
X152514984Y-111923849D01*
X152547393Y-111914540D01*
X152658791Y-111898220D01*
X152667195Y-111897559D01*
X152885013Y-111895112D01*
X152904875Y-111896461D01*
G37*
%TD.AperFunction*%
%TD*%
%TA.AperFunction,Conductor*%
%TO.N,Net-(U1D--)*%
G36*
X151341515Y-107193124D02*
G01*
X151450814Y-107206986D01*
X151482721Y-107215388D01*
X151573108Y-107252417D01*
X151601731Y-107268811D01*
X151679404Y-107328039D01*
X151702793Y-107351307D01*
X151762422Y-107428671D01*
X151778969Y-107457218D01*
X151816461Y-107547401D01*
X151825030Y-107579269D01*
X151839457Y-107688485D01*
X151840000Y-107696744D01*
X151840000Y-108558465D01*
X151839464Y-108566670D01*
X151825224Y-108675186D01*
X151816766Y-108706859D01*
X151779751Y-108796551D01*
X151763408Y-108824972D01*
X151704504Y-108902082D01*
X151681382Y-108925324D01*
X151604581Y-108984625D01*
X151576245Y-109001116D01*
X151486743Y-109038597D01*
X151455112Y-109047219D01*
X151346667Y-109062020D01*
X151338465Y-109062598D01*
X151101917Y-109063823D01*
X150676322Y-109066029D01*
X150416719Y-109067373D01*
X150408483Y-109066874D01*
X150379895Y-109063248D01*
X150299186Y-109053013D01*
X150267275Y-109044610D01*
X150242960Y-109034649D01*
X150176894Y-109007583D01*
X150148265Y-108991186D01*
X150070595Y-108931960D01*
X150047206Y-108908692D01*
X149987575Y-108831325D01*
X149971032Y-108802784D01*
X149933537Y-108712595D01*
X149924969Y-108680729D01*
X149910543Y-108571513D01*
X149910000Y-108563254D01*
X149910000Y-107701535D01*
X149910536Y-107693330D01*
X149924775Y-107584814D01*
X149933232Y-107553143D01*
X149970249Y-107463445D01*
X149986591Y-107435027D01*
X150045501Y-107357910D01*
X150068610Y-107334681D01*
X150145422Y-107275371D01*
X150173750Y-107258884D01*
X150263258Y-107221401D01*
X150294884Y-107212780D01*
X150403338Y-107197978D01*
X150411524Y-107197401D01*
X151073677Y-107193970D01*
X151333279Y-107192625D01*
X151341515Y-107193124D01*
G37*
%TD.AperFunction*%
%TD*%
%TA.AperFunction,Conductor*%
%TO.N,Net-(J4-In)*%
G36*
X158805016Y-108801386D02*
G01*
X158921969Y-108818875D01*
X158957608Y-108829777D01*
X159055789Y-108876638D01*
X159086679Y-108897490D01*
X159166848Y-108971015D01*
X159190288Y-108999990D01*
X159250250Y-109101925D01*
X159258500Y-109118683D01*
X159380000Y-109420000D01*
X159640000Y-109455000D01*
X159836069Y-109481394D01*
X159836071Y-109481394D01*
X159900000Y-109490000D01*
X159964487Y-109490319D01*
X159964490Y-109490320D01*
X159964505Y-109490320D01*
X159964506Y-109490321D01*
X159970167Y-109490349D01*
X160821504Y-109494584D01*
X161405885Y-109497491D01*
X161414082Y-109498068D01*
X161491894Y-109508673D01*
X161523194Y-109512939D01*
X161554821Y-109521555D01*
X161644941Y-109559278D01*
X161673280Y-109575765D01*
X161750618Y-109635466D01*
X161773745Y-109658708D01*
X161833055Y-109736335D01*
X161849403Y-109764759D01*
X161886677Y-109855064D01*
X161895137Y-109886742D01*
X161907845Y-109983579D01*
X161907838Y-110016420D01*
X161895128Y-110112962D01*
X161886615Y-110144734D01*
X161849361Y-110234673D01*
X161832914Y-110263160D01*
X161773650Y-110340393D01*
X161750393Y-110363650D01*
X161673160Y-110422914D01*
X161644673Y-110439361D01*
X161554734Y-110476615D01*
X161522963Y-110485128D01*
X161414099Y-110499460D01*
X161405867Y-110500000D01*
X159900000Y-110500000D01*
X159780583Y-110529853D01*
X159780580Y-110529854D01*
X159780575Y-110529855D01*
X159640000Y-110564999D01*
X159639995Y-110565000D01*
X159380000Y-110630000D01*
X159276355Y-110877151D01*
X159276353Y-110877156D01*
X159253582Y-110931457D01*
X159245211Y-110947920D01*
X159183167Y-111050540D01*
X159159703Y-111078940D01*
X159077585Y-111152959D01*
X159046910Y-111173358D01*
X158988745Y-111200751D01*
X158946894Y-111220461D01*
X158911631Y-111231115D01*
X158804146Y-111246999D01*
X158793006Y-111248646D01*
X158774587Y-111250000D01*
X158654918Y-111250000D01*
X158635207Y-111248449D01*
X158517927Y-111229873D01*
X158480435Y-111217691D01*
X158383580Y-111168341D01*
X158351688Y-111145169D01*
X158274830Y-111068311D01*
X158251658Y-111036419D01*
X158202308Y-110939564D01*
X158190126Y-110902071D01*
X158171551Y-110784791D01*
X158170000Y-110765081D01*
X158170000Y-109289918D01*
X158171551Y-109270207D01*
X158186362Y-109176692D01*
X158190371Y-109151380D01*
X158202553Y-109113891D01*
X158252613Y-109015642D01*
X158275782Y-108983752D01*
X158353752Y-108905782D01*
X158385642Y-108882613D01*
X158483891Y-108832553D01*
X158521380Y-108820371D01*
X158640207Y-108801550D01*
X158659918Y-108800000D01*
X158786381Y-108800000D01*
X158805016Y-108801386D01*
G37*
%TD.AperFunction*%
%TD*%
%TA.AperFunction,Conductor*%
%TO.N,Net-(J3-In)*%
G36*
X139872423Y-109500130D02*
G01*
X139994877Y-109508032D01*
X140002904Y-109509072D01*
X140121001Y-109532192D01*
X140123333Y-109532649D01*
X140127263Y-109533550D01*
X141100000Y-109790000D01*
X141184954Y-109790000D01*
X141219265Y-109797979D01*
X141222206Y-109799197D01*
X141277491Y-109843739D01*
X141299919Y-109911100D01*
X141300000Y-109915611D01*
X141300000Y-110164388D01*
X141279998Y-110232509D01*
X141226342Y-110279002D01*
X141222192Y-110280808D01*
X141220013Y-110281710D01*
X141183303Y-110290000D01*
X141100000Y-110290000D01*
X141002143Y-110310549D01*
X141002136Y-110310551D01*
X140203260Y-110478314D01*
X140200053Y-110478902D01*
X140102662Y-110494144D01*
X140096176Y-110494818D01*
X140070051Y-110496171D01*
X139997740Y-110499916D01*
X139994510Y-110500000D01*
X139812410Y-110500000D01*
X139787829Y-110497579D01*
X139757954Y-110491636D01*
X139709775Y-110482053D01*
X139664356Y-110463240D01*
X139608704Y-110426054D01*
X139573945Y-110391295D01*
X139536758Y-110335640D01*
X139517946Y-110290223D01*
X139516073Y-110280808D01*
X139502421Y-110212171D01*
X139500000Y-110187590D01*
X139500000Y-109762409D01*
X139502421Y-109737829D01*
X139514140Y-109678911D01*
X139532953Y-109633491D01*
X139559300Y-109594059D01*
X139594059Y-109559300D01*
X139633492Y-109532952D01*
X139678909Y-109514140D01*
X139713926Y-109507175D01*
X139737830Y-109502421D01*
X139762410Y-109500000D01*
X139868372Y-109500000D01*
X139872423Y-109500130D01*
G37*
%TD.AperFunction*%
%TD*%
%TA.AperFunction,Conductor*%
%TO.N,Net-(U1A--)*%
G36*
X146384792Y-105501550D02*
G01*
X146502072Y-105520126D01*
X146539564Y-105532308D01*
X146636419Y-105581658D01*
X146668311Y-105604830D01*
X146745169Y-105681688D01*
X146768341Y-105713580D01*
X146817691Y-105810435D01*
X146829873Y-105847927D01*
X146848449Y-105965207D01*
X146850000Y-105984917D01*
X146850000Y-106450000D01*
X146851677Y-106470415D01*
X146851678Y-106470416D01*
X146908155Y-107157556D01*
X146908253Y-107158930D01*
X146909440Y-107178642D01*
X146909545Y-107181392D01*
X146909871Y-107201180D01*
X146909879Y-107202554D01*
X146902681Y-108548553D01*
X146902101Y-108556754D01*
X146887285Y-108665182D01*
X146878660Y-108696807D01*
X146841174Y-108786291D01*
X146824681Y-108814623D01*
X146765375Y-108891414D01*
X146742135Y-108914531D01*
X146665029Y-108973425D01*
X146636609Y-108989765D01*
X146546926Y-109026772D01*
X146515255Y-109035228D01*
X146439463Y-109045172D01*
X146406750Y-109049464D01*
X146398550Y-109050000D01*
X145466845Y-109050000D01*
X145458585Y-109049457D01*
X145349355Y-109035027D01*
X145317482Y-109026456D01*
X145229238Y-108989765D01*
X145227287Y-108988953D01*
X145198735Y-108972400D01*
X145121376Y-108912764D01*
X145098102Y-108889364D01*
X145038882Y-108811684D01*
X145022481Y-108783042D01*
X144985464Y-108692644D01*
X144977066Y-108660729D01*
X144963898Y-108556754D01*
X144963222Y-108551415D01*
X144962725Y-108543158D01*
X144968159Y-107532420D01*
X144969616Y-107513980D01*
X144987594Y-107396861D01*
X144998469Y-107361612D01*
X145045557Y-107263175D01*
X145066173Y-107232592D01*
X145139764Y-107152007D01*
X145168352Y-107128709D01*
X145270185Y-107068102D01*
X145286708Y-107059845D01*
X145700000Y-106890000D01*
X145870000Y-106460000D01*
X145870000Y-105989918D01*
X145871551Y-105970207D01*
X145890371Y-105851382D01*
X145902553Y-105813891D01*
X145952613Y-105715642D01*
X145975782Y-105683752D01*
X146053752Y-105605782D01*
X146085642Y-105582613D01*
X146087517Y-105581658D01*
X146183890Y-105532553D01*
X146221380Y-105520371D01*
X146340207Y-105501550D01*
X146359918Y-105500000D01*
X146365082Y-105500000D01*
X146384792Y-105501550D01*
G37*
%TD.AperFunction*%
%TD*%
%TA.AperFunction,Conductor*%
%TO.N,Net-(J4-In)*%
G36*
X159031383Y-112099620D02*
G01*
X159089498Y-112118751D01*
X159125272Y-112168389D01*
X159130000Y-112198619D01*
X159130000Y-112971000D01*
X159111093Y-113029191D01*
X159061593Y-113065155D01*
X159031000Y-113070000D01*
X158170000Y-113070000D01*
X158027644Y-113346338D01*
X157984188Y-113389409D01*
X157939636Y-113400000D01*
X157777237Y-113400000D01*
X157719046Y-113381093D01*
X157691441Y-113350397D01*
X157530000Y-113070000D01*
X156629000Y-113070000D01*
X156570809Y-113051093D01*
X156534845Y-113001593D01*
X156530000Y-112971000D01*
X156530000Y-112189381D01*
X156548907Y-112131190D01*
X156598407Y-112095226D01*
X156629379Y-112090382D01*
X159031383Y-112099620D01*
G37*
%TD.AperFunction*%
%TD*%
%TA.AperFunction,Conductor*%
%TO.N,Net-(U1B--)*%
G36*
X148223434Y-105511427D02*
G01*
X148342603Y-105529515D01*
X148378711Y-105540734D01*
X148478502Y-105589174D01*
X148509653Y-105610602D01*
X148590571Y-105686468D01*
X148613965Y-105716182D01*
X148668724Y-105812640D01*
X148682247Y-105847955D01*
X148707969Y-105965706D01*
X148710611Y-105984484D01*
X148738963Y-106423937D01*
X148739691Y-106438985D01*
X148739756Y-106441013D01*
X148740000Y-106456127D01*
X148740000Y-106608619D01*
X148735812Y-106640833D01*
X148723854Y-106686050D01*
X148692006Y-106742055D01*
X148671124Y-106763350D01*
X148615757Y-106796288D01*
X148608942Y-106798233D01*
X148570781Y-106809130D01*
X148538669Y-106813946D01*
X148413997Y-106816391D01*
X148385784Y-106813756D01*
X148356837Y-106807712D01*
X148335453Y-106803248D01*
X148284283Y-106779703D01*
X148255147Y-106757245D01*
X148219350Y-106713756D01*
X148205510Y-106686050D01*
X148190000Y-106655000D01*
X148150000Y-106490000D01*
X147980267Y-106486228D01*
X147980259Y-106486227D01*
X147937229Y-106485271D01*
X147913052Y-106482380D01*
X147862649Y-106471332D01*
X147818178Y-106452037D01*
X147785946Y-106429847D01*
X147752051Y-106395192D01*
X147730579Y-106362470D01*
X147712278Y-106317581D01*
X147702353Y-106266945D01*
X147700000Y-106242709D01*
X147700000Y-106004918D01*
X147701551Y-105985207D01*
X147720616Y-105864837D01*
X147732798Y-105827346D01*
X147783568Y-105727703D01*
X147806737Y-105695813D01*
X147885813Y-105616737D01*
X147917703Y-105593568D01*
X148017346Y-105542798D01*
X148054835Y-105530616D01*
X148175207Y-105511551D01*
X148194919Y-105510000D01*
X148204526Y-105510000D01*
X148223434Y-105511427D01*
G37*
%TD.AperFunction*%
%TD*%
%TA.AperFunction,Conductor*%
%TO.N,Net-(R2-Pad1)*%
G36*
X146617305Y-114803980D02*
G01*
X146695875Y-114819412D01*
X146741902Y-114838492D01*
X146797693Y-114876009D01*
X146832726Y-114911440D01*
X146869612Y-114967651D01*
X146888172Y-115013893D01*
X146901834Y-115087861D01*
X146902515Y-115129573D01*
X146887477Y-115229084D01*
X146878085Y-115261311D01*
X146837837Y-115352122D01*
X146820270Y-115380724D01*
X146757470Y-115457691D01*
X146732977Y-115480638D01*
X146686563Y-115513719D01*
X146641735Y-115545670D01*
X146634568Y-115550088D01*
X146292920Y-115730402D01*
X146285950Y-115733556D01*
X146190730Y-115769856D01*
X146161108Y-115777193D01*
X146059952Y-115789536D01*
X146052315Y-115790000D01*
X145797685Y-115790000D01*
X145790048Y-115789536D01*
X145688892Y-115777193D01*
X145659269Y-115769856D01*
X145564049Y-115733556D01*
X145557079Y-115730402D01*
X145219101Y-115552025D01*
X145211828Y-115547532D01*
X145119876Y-115481709D01*
X145095103Y-115458309D01*
X145032249Y-115380302D01*
X145014653Y-115351118D01*
X144975003Y-115259123D01*
X144965873Y-115226298D01*
X144952848Y-115130874D01*
X144954097Y-115089335D01*
X144967948Y-115019465D01*
X144986643Y-114974167D01*
X145023937Y-114918121D01*
X145058495Y-114883386D01*
X145114353Y-114845805D01*
X145159550Y-114826880D01*
X145237882Y-114810934D01*
X145262358Y-114808405D01*
X146592380Y-114801620D01*
X146617305Y-114803980D01*
G37*
%TD.AperFunction*%
%TD*%
M02*
