%TF.GenerationSoftware,KiCad,Pcbnew,7.0.5-0*%
%TF.CreationDate,2024-02-16T16:09:16-04:00*%
%TF.ProjectId,Conditioning,436f6e64-6974-4696-9f6e-696e672e6b69,rev?*%
%TF.SameCoordinates,Original*%
%TF.FileFunction,Legend,Top*%
%TF.FilePolarity,Positive*%
%FSLAX46Y46*%
G04 Gerber Fmt 4.6, Leading zero omitted, Abs format (unit mm)*
G04 Created by KiCad (PCBNEW 7.0.5-0) date 2024-02-16 16:09:16*
%MOMM*%
%LPD*%
G01*
G04 APERTURE LIST*
%ADD10C,0.150000*%
%ADD11C,0.175000*%
%ADD12C,0.120000*%
G04 APERTURE END LIST*
D10*
X153185350Y-100169033D02*
X153185350Y-99469033D01*
X153585350Y-100169033D02*
X153285350Y-99769033D01*
X153585350Y-99469033D02*
X153185350Y-99869033D01*
X153885350Y-100102366D02*
X153918684Y-100135700D01*
X153918684Y-100135700D02*
X153885350Y-100169033D01*
X153885350Y-100169033D02*
X153852017Y-100135700D01*
X153852017Y-100135700D02*
X153885350Y-100102366D01*
X153885350Y-100102366D02*
X153885350Y-100169033D01*
X154185350Y-100135700D02*
X154285350Y-100169033D01*
X154285350Y-100169033D02*
X154452017Y-100169033D01*
X154452017Y-100169033D02*
X154518683Y-100135700D01*
X154518683Y-100135700D02*
X154552017Y-100102366D01*
X154552017Y-100102366D02*
X154585350Y-100035700D01*
X154585350Y-100035700D02*
X154585350Y-99969033D01*
X154585350Y-99969033D02*
X154552017Y-99902366D01*
X154552017Y-99902366D02*
X154518683Y-99869033D01*
X154518683Y-99869033D02*
X154452017Y-99835700D01*
X154452017Y-99835700D02*
X154318683Y-99802366D01*
X154318683Y-99802366D02*
X154252017Y-99769033D01*
X154252017Y-99769033D02*
X154218683Y-99735700D01*
X154218683Y-99735700D02*
X154185350Y-99669033D01*
X154185350Y-99669033D02*
X154185350Y-99602366D01*
X154185350Y-99602366D02*
X154218683Y-99535700D01*
X154218683Y-99535700D02*
X154252017Y-99502366D01*
X154252017Y-99502366D02*
X154318683Y-99469033D01*
X154318683Y-99469033D02*
X154485350Y-99469033D01*
X154485350Y-99469033D02*
X154585350Y-99502366D01*
X154885350Y-100169033D02*
X154885350Y-99469033D01*
X155185350Y-100169033D02*
X155185350Y-99802366D01*
X155185350Y-99802366D02*
X155152017Y-99735700D01*
X155152017Y-99735700D02*
X155085350Y-99702366D01*
X155085350Y-99702366D02*
X154985350Y-99702366D01*
X154985350Y-99702366D02*
X154918684Y-99735700D01*
X154918684Y-99735700D02*
X154885350Y-99769033D01*
X155818683Y-100169033D02*
X155818683Y-99802366D01*
X155818683Y-99802366D02*
X155785350Y-99735700D01*
X155785350Y-99735700D02*
X155718683Y-99702366D01*
X155718683Y-99702366D02*
X155585350Y-99702366D01*
X155585350Y-99702366D02*
X155518683Y-99735700D01*
X155818683Y-100135700D02*
X155752017Y-100169033D01*
X155752017Y-100169033D02*
X155585350Y-100169033D01*
X155585350Y-100169033D02*
X155518683Y-100135700D01*
X155518683Y-100135700D02*
X155485350Y-100069033D01*
X155485350Y-100069033D02*
X155485350Y-100002366D01*
X155485350Y-100002366D02*
X155518683Y-99935700D01*
X155518683Y-99935700D02*
X155585350Y-99902366D01*
X155585350Y-99902366D02*
X155752017Y-99902366D01*
X155752017Y-99902366D02*
X155818683Y-99869033D01*
X156252016Y-100169033D02*
X156185350Y-100135700D01*
X156185350Y-100135700D02*
X156152016Y-100069033D01*
X156152016Y-100069033D02*
X156152016Y-99469033D01*
X156818683Y-100169033D02*
X156818683Y-99802366D01*
X156818683Y-99802366D02*
X156785350Y-99735700D01*
X156785350Y-99735700D02*
X156718683Y-99702366D01*
X156718683Y-99702366D02*
X156585350Y-99702366D01*
X156585350Y-99702366D02*
X156518683Y-99735700D01*
X156818683Y-100135700D02*
X156752017Y-100169033D01*
X156752017Y-100169033D02*
X156585350Y-100169033D01*
X156585350Y-100169033D02*
X156518683Y-100135700D01*
X156518683Y-100135700D02*
X156485350Y-100069033D01*
X156485350Y-100069033D02*
X156485350Y-100002366D01*
X156485350Y-100002366D02*
X156518683Y-99935700D01*
X156518683Y-99935700D02*
X156585350Y-99902366D01*
X156585350Y-99902366D02*
X156752017Y-99902366D01*
X156752017Y-99902366D02*
X156818683Y-99869033D01*
X157152016Y-100169033D02*
X157152016Y-99469033D01*
X157152016Y-99735700D02*
X157218683Y-99702366D01*
X157218683Y-99702366D02*
X157352016Y-99702366D01*
X157352016Y-99702366D02*
X157418683Y-99735700D01*
X157418683Y-99735700D02*
X157452016Y-99769033D01*
X157452016Y-99769033D02*
X157485350Y-99835700D01*
X157485350Y-99835700D02*
X157485350Y-100035700D01*
X157485350Y-100035700D02*
X157452016Y-100102366D01*
X157452016Y-100102366D02*
X157418683Y-100135700D01*
X157418683Y-100135700D02*
X157352016Y-100169033D01*
X157352016Y-100169033D02*
X157218683Y-100169033D01*
X157218683Y-100169033D02*
X157152016Y-100135700D01*
X157718683Y-99702366D02*
X157885349Y-100169033D01*
X158052016Y-99702366D02*
X157885349Y-100169033D01*
X157885349Y-100169033D02*
X157818683Y-100335700D01*
X157818683Y-100335700D02*
X157785349Y-100369033D01*
X157785349Y-100369033D02*
X157718683Y-100402366D01*
X153318684Y-100596033D02*
X153385350Y-100596033D01*
X153385350Y-100596033D02*
X153452017Y-100629366D01*
X153452017Y-100629366D02*
X153485350Y-100662700D01*
X153485350Y-100662700D02*
X153518684Y-100729366D01*
X153518684Y-100729366D02*
X153552017Y-100862700D01*
X153552017Y-100862700D02*
X153552017Y-101029366D01*
X153552017Y-101029366D02*
X153518684Y-101162700D01*
X153518684Y-101162700D02*
X153485350Y-101229366D01*
X153485350Y-101229366D02*
X153452017Y-101262700D01*
X153452017Y-101262700D02*
X153385350Y-101296033D01*
X153385350Y-101296033D02*
X153318684Y-101296033D01*
X153318684Y-101296033D02*
X153252017Y-101262700D01*
X153252017Y-101262700D02*
X153218684Y-101229366D01*
X153218684Y-101229366D02*
X153185350Y-101162700D01*
X153185350Y-101162700D02*
X153152017Y-101029366D01*
X153152017Y-101029366D02*
X153152017Y-100862700D01*
X153152017Y-100862700D02*
X153185350Y-100729366D01*
X153185350Y-100729366D02*
X153218684Y-100662700D01*
X153218684Y-100662700D02*
X153252017Y-100629366D01*
X153252017Y-100629366D02*
X153318684Y-100596033D01*
X154218684Y-101296033D02*
X153818684Y-101296033D01*
X154018684Y-101296033D02*
X154018684Y-100596033D01*
X154018684Y-100596033D02*
X153952017Y-100696033D01*
X153952017Y-100696033D02*
X153885351Y-100762700D01*
X153885351Y-100762700D02*
X153818684Y-100796033D01*
X155018684Y-100562700D02*
X154418684Y-101462700D01*
X155218684Y-100662700D02*
X155252017Y-100629366D01*
X155252017Y-100629366D02*
X155318684Y-100596033D01*
X155318684Y-100596033D02*
X155485351Y-100596033D01*
X155485351Y-100596033D02*
X155552017Y-100629366D01*
X155552017Y-100629366D02*
X155585351Y-100662700D01*
X155585351Y-100662700D02*
X155618684Y-100729366D01*
X155618684Y-100729366D02*
X155618684Y-100796033D01*
X155618684Y-100796033D02*
X155585351Y-100896033D01*
X155585351Y-100896033D02*
X155185351Y-101296033D01*
X155185351Y-101296033D02*
X155618684Y-101296033D01*
X156052018Y-100596033D02*
X156118684Y-100596033D01*
X156118684Y-100596033D02*
X156185351Y-100629366D01*
X156185351Y-100629366D02*
X156218684Y-100662700D01*
X156218684Y-100662700D02*
X156252018Y-100729366D01*
X156252018Y-100729366D02*
X156285351Y-100862700D01*
X156285351Y-100862700D02*
X156285351Y-101029366D01*
X156285351Y-101029366D02*
X156252018Y-101162700D01*
X156252018Y-101162700D02*
X156218684Y-101229366D01*
X156218684Y-101229366D02*
X156185351Y-101262700D01*
X156185351Y-101262700D02*
X156118684Y-101296033D01*
X156118684Y-101296033D02*
X156052018Y-101296033D01*
X156052018Y-101296033D02*
X155985351Y-101262700D01*
X155985351Y-101262700D02*
X155952018Y-101229366D01*
X155952018Y-101229366D02*
X155918684Y-101162700D01*
X155918684Y-101162700D02*
X155885351Y-101029366D01*
X155885351Y-101029366D02*
X155885351Y-100862700D01*
X155885351Y-100862700D02*
X155918684Y-100729366D01*
X155918684Y-100729366D02*
X155952018Y-100662700D01*
X155952018Y-100662700D02*
X155985351Y-100629366D01*
X155985351Y-100629366D02*
X156052018Y-100596033D01*
X156552018Y-100662700D02*
X156585351Y-100629366D01*
X156585351Y-100629366D02*
X156652018Y-100596033D01*
X156652018Y-100596033D02*
X156818685Y-100596033D01*
X156818685Y-100596033D02*
X156885351Y-100629366D01*
X156885351Y-100629366D02*
X156918685Y-100662700D01*
X156918685Y-100662700D02*
X156952018Y-100729366D01*
X156952018Y-100729366D02*
X156952018Y-100796033D01*
X156952018Y-100796033D02*
X156918685Y-100896033D01*
X156918685Y-100896033D02*
X156518685Y-101296033D01*
X156518685Y-101296033D02*
X156952018Y-101296033D01*
X157552018Y-100829366D02*
X157552018Y-101296033D01*
X157385352Y-100562700D02*
X157218685Y-101062700D01*
X157218685Y-101062700D02*
X157652018Y-101062700D01*
X153185350Y-102423033D02*
X153185350Y-101723033D01*
X153185350Y-101723033D02*
X153452017Y-101723033D01*
X153452017Y-101723033D02*
X153518684Y-101756366D01*
X153518684Y-101756366D02*
X153552017Y-101789700D01*
X153552017Y-101789700D02*
X153585350Y-101856366D01*
X153585350Y-101856366D02*
X153585350Y-101956366D01*
X153585350Y-101956366D02*
X153552017Y-102023033D01*
X153552017Y-102023033D02*
X153518684Y-102056366D01*
X153518684Y-102056366D02*
X153452017Y-102089700D01*
X153452017Y-102089700D02*
X153185350Y-102089700D01*
X153885350Y-102423033D02*
X153885350Y-101723033D01*
X154218683Y-102423033D02*
X154218683Y-101723033D01*
X154218683Y-101723033D02*
X154385350Y-101723033D01*
X154385350Y-101723033D02*
X154485350Y-101756366D01*
X154485350Y-101756366D02*
X154552017Y-101823033D01*
X154552017Y-101823033D02*
X154585350Y-101889700D01*
X154585350Y-101889700D02*
X154618683Y-102023033D01*
X154618683Y-102023033D02*
X154618683Y-102123033D01*
X154618683Y-102123033D02*
X154585350Y-102256366D01*
X154585350Y-102256366D02*
X154552017Y-102323033D01*
X154552017Y-102323033D02*
X154485350Y-102389700D01*
X154485350Y-102389700D02*
X154385350Y-102423033D01*
X154385350Y-102423033D02*
X154218683Y-102423033D01*
X155852016Y-102356366D02*
X155818683Y-102389700D01*
X155818683Y-102389700D02*
X155718683Y-102423033D01*
X155718683Y-102423033D02*
X155652016Y-102423033D01*
X155652016Y-102423033D02*
X155552016Y-102389700D01*
X155552016Y-102389700D02*
X155485350Y-102323033D01*
X155485350Y-102323033D02*
X155452016Y-102256366D01*
X155452016Y-102256366D02*
X155418683Y-102123033D01*
X155418683Y-102123033D02*
X155418683Y-102023033D01*
X155418683Y-102023033D02*
X155452016Y-101889700D01*
X155452016Y-101889700D02*
X155485350Y-101823033D01*
X155485350Y-101823033D02*
X155552016Y-101756366D01*
X155552016Y-101756366D02*
X155652016Y-101723033D01*
X155652016Y-101723033D02*
X155718683Y-101723033D01*
X155718683Y-101723033D02*
X155818683Y-101756366D01*
X155818683Y-101756366D02*
X155852016Y-101789700D01*
X156252016Y-102423033D02*
X156185350Y-102389700D01*
X156185350Y-102389700D02*
X156152016Y-102356366D01*
X156152016Y-102356366D02*
X156118683Y-102289700D01*
X156118683Y-102289700D02*
X156118683Y-102089700D01*
X156118683Y-102089700D02*
X156152016Y-102023033D01*
X156152016Y-102023033D02*
X156185350Y-101989700D01*
X156185350Y-101989700D02*
X156252016Y-101956366D01*
X156252016Y-101956366D02*
X156352016Y-101956366D01*
X156352016Y-101956366D02*
X156418683Y-101989700D01*
X156418683Y-101989700D02*
X156452016Y-102023033D01*
X156452016Y-102023033D02*
X156485350Y-102089700D01*
X156485350Y-102089700D02*
X156485350Y-102289700D01*
X156485350Y-102289700D02*
X156452016Y-102356366D01*
X156452016Y-102356366D02*
X156418683Y-102389700D01*
X156418683Y-102389700D02*
X156352016Y-102423033D01*
X156352016Y-102423033D02*
X156252016Y-102423033D01*
X156785349Y-101956366D02*
X156785349Y-102423033D01*
X156785349Y-102023033D02*
X156818683Y-101989700D01*
X156818683Y-101989700D02*
X156885349Y-101956366D01*
X156885349Y-101956366D02*
X156985349Y-101956366D01*
X156985349Y-101956366D02*
X157052016Y-101989700D01*
X157052016Y-101989700D02*
X157085349Y-102056366D01*
X157085349Y-102056366D02*
X157085349Y-102423033D01*
X157718682Y-102423033D02*
X157718682Y-101723033D01*
X157718682Y-102389700D02*
X157652016Y-102423033D01*
X157652016Y-102423033D02*
X157518682Y-102423033D01*
X157518682Y-102423033D02*
X157452016Y-102389700D01*
X157452016Y-102389700D02*
X157418682Y-102356366D01*
X157418682Y-102356366D02*
X157385349Y-102289700D01*
X157385349Y-102289700D02*
X157385349Y-102089700D01*
X157385349Y-102089700D02*
X157418682Y-102023033D01*
X157418682Y-102023033D02*
X157452016Y-101989700D01*
X157452016Y-101989700D02*
X157518682Y-101956366D01*
X157518682Y-101956366D02*
X157652016Y-101956366D01*
X157652016Y-101956366D02*
X157718682Y-101989700D01*
X158052015Y-102423033D02*
X158052015Y-101956366D01*
X158052015Y-101723033D02*
X158018682Y-101756366D01*
X158018682Y-101756366D02*
X158052015Y-101789700D01*
X158052015Y-101789700D02*
X158085349Y-101756366D01*
X158085349Y-101756366D02*
X158052015Y-101723033D01*
X158052015Y-101723033D02*
X158052015Y-101789700D01*
X158285348Y-101956366D02*
X158552015Y-101956366D01*
X158385348Y-101723033D02*
X158385348Y-102323033D01*
X158385348Y-102323033D02*
X158418682Y-102389700D01*
X158418682Y-102389700D02*
X158485348Y-102423033D01*
X158485348Y-102423033D02*
X158552015Y-102423033D01*
X158785348Y-102423033D02*
X158785348Y-101956366D01*
X158785348Y-101723033D02*
X158752015Y-101756366D01*
X158752015Y-101756366D02*
X158785348Y-101789700D01*
X158785348Y-101789700D02*
X158818682Y-101756366D01*
X158818682Y-101756366D02*
X158785348Y-101723033D01*
X158785348Y-101723033D02*
X158785348Y-101789700D01*
X159218681Y-102423033D02*
X159152015Y-102389700D01*
X159152015Y-102389700D02*
X159118681Y-102356366D01*
X159118681Y-102356366D02*
X159085348Y-102289700D01*
X159085348Y-102289700D02*
X159085348Y-102089700D01*
X159085348Y-102089700D02*
X159118681Y-102023033D01*
X159118681Y-102023033D02*
X159152015Y-101989700D01*
X159152015Y-101989700D02*
X159218681Y-101956366D01*
X159218681Y-101956366D02*
X159318681Y-101956366D01*
X159318681Y-101956366D02*
X159385348Y-101989700D01*
X159385348Y-101989700D02*
X159418681Y-102023033D01*
X159418681Y-102023033D02*
X159452015Y-102089700D01*
X159452015Y-102089700D02*
X159452015Y-102289700D01*
X159452015Y-102289700D02*
X159418681Y-102356366D01*
X159418681Y-102356366D02*
X159385348Y-102389700D01*
X159385348Y-102389700D02*
X159318681Y-102423033D01*
X159318681Y-102423033D02*
X159218681Y-102423033D01*
X159752014Y-101956366D02*
X159752014Y-102423033D01*
X159752014Y-102023033D02*
X159785348Y-101989700D01*
X159785348Y-101989700D02*
X159852014Y-101956366D01*
X159852014Y-101956366D02*
X159952014Y-101956366D01*
X159952014Y-101956366D02*
X160018681Y-101989700D01*
X160018681Y-101989700D02*
X160052014Y-102056366D01*
X160052014Y-102056366D02*
X160052014Y-102423033D01*
D11*
X144206797Y-103808566D02*
X144740131Y-103808566D01*
X145440131Y-104075233D02*
X145040131Y-104075233D01*
X145240131Y-104075233D02*
X145240131Y-103375233D01*
X145240131Y-103375233D02*
X145173464Y-103475233D01*
X145173464Y-103475233D02*
X145106798Y-103541900D01*
X145106798Y-103541900D02*
X145040131Y-103575233D01*
X145706798Y-103441900D02*
X145740131Y-103408566D01*
X145740131Y-103408566D02*
X145806798Y-103375233D01*
X145806798Y-103375233D02*
X145973465Y-103375233D01*
X145973465Y-103375233D02*
X146040131Y-103408566D01*
X146040131Y-103408566D02*
X146073465Y-103441900D01*
X146073465Y-103441900D02*
X146106798Y-103508566D01*
X146106798Y-103508566D02*
X146106798Y-103575233D01*
X146106798Y-103575233D02*
X146073465Y-103675233D01*
X146073465Y-103675233D02*
X145673465Y-104075233D01*
X145673465Y-104075233D02*
X146106798Y-104075233D01*
X146306798Y-103375233D02*
X146540132Y-104075233D01*
X146540132Y-104075233D02*
X146773465Y-103375233D01*
X149671797Y-103758566D02*
X150205131Y-103758566D01*
X149938464Y-104025233D02*
X149938464Y-103491900D01*
X150905131Y-104025233D02*
X150505131Y-104025233D01*
X150705131Y-104025233D02*
X150705131Y-103325233D01*
X150705131Y-103325233D02*
X150638464Y-103425233D01*
X150638464Y-103425233D02*
X150571798Y-103491900D01*
X150571798Y-103491900D02*
X150505131Y-103525233D01*
X151171798Y-103391900D02*
X151205131Y-103358566D01*
X151205131Y-103358566D02*
X151271798Y-103325233D01*
X151271798Y-103325233D02*
X151438465Y-103325233D01*
X151438465Y-103325233D02*
X151505131Y-103358566D01*
X151505131Y-103358566D02*
X151538465Y-103391900D01*
X151538465Y-103391900D02*
X151571798Y-103458566D01*
X151571798Y-103458566D02*
X151571798Y-103525233D01*
X151571798Y-103525233D02*
X151538465Y-103625233D01*
X151538465Y-103625233D02*
X151138465Y-104025233D01*
X151138465Y-104025233D02*
X151571798Y-104025233D01*
X151771798Y-103325233D02*
X152005132Y-104025233D01*
X152005132Y-104025233D02*
X152238465Y-103325233D01*
D10*
%TO.C,J1*%
X153396666Y-97746033D02*
X153396666Y-98246033D01*
X153396666Y-98246033D02*
X153363333Y-98346033D01*
X153363333Y-98346033D02*
X153296666Y-98412700D01*
X153296666Y-98412700D02*
X153196666Y-98446033D01*
X153196666Y-98446033D02*
X153130000Y-98446033D01*
X154096666Y-98446033D02*
X153696666Y-98446033D01*
X153896666Y-98446033D02*
X153896666Y-97746033D01*
X153896666Y-97746033D02*
X153829999Y-97846033D01*
X153829999Y-97846033D02*
X153763333Y-97912700D01*
X153763333Y-97912700D02*
X153696666Y-97946033D01*
%TO.C,R8*%
X158573333Y-106346033D02*
X158340000Y-106012700D01*
X158173333Y-106346033D02*
X158173333Y-105646033D01*
X158173333Y-105646033D02*
X158440000Y-105646033D01*
X158440000Y-105646033D02*
X158506667Y-105679366D01*
X158506667Y-105679366D02*
X158540000Y-105712700D01*
X158540000Y-105712700D02*
X158573333Y-105779366D01*
X158573333Y-105779366D02*
X158573333Y-105879366D01*
X158573333Y-105879366D02*
X158540000Y-105946033D01*
X158540000Y-105946033D02*
X158506667Y-105979366D01*
X158506667Y-105979366D02*
X158440000Y-106012700D01*
X158440000Y-106012700D02*
X158173333Y-106012700D01*
X158973333Y-105946033D02*
X158906667Y-105912700D01*
X158906667Y-105912700D02*
X158873333Y-105879366D01*
X158873333Y-105879366D02*
X158840000Y-105812700D01*
X158840000Y-105812700D02*
X158840000Y-105779366D01*
X158840000Y-105779366D02*
X158873333Y-105712700D01*
X158873333Y-105712700D02*
X158906667Y-105679366D01*
X158906667Y-105679366D02*
X158973333Y-105646033D01*
X158973333Y-105646033D02*
X159106667Y-105646033D01*
X159106667Y-105646033D02*
X159173333Y-105679366D01*
X159173333Y-105679366D02*
X159206667Y-105712700D01*
X159206667Y-105712700D02*
X159240000Y-105779366D01*
X159240000Y-105779366D02*
X159240000Y-105812700D01*
X159240000Y-105812700D02*
X159206667Y-105879366D01*
X159206667Y-105879366D02*
X159173333Y-105912700D01*
X159173333Y-105912700D02*
X159106667Y-105946033D01*
X159106667Y-105946033D02*
X158973333Y-105946033D01*
X158973333Y-105946033D02*
X158906667Y-105979366D01*
X158906667Y-105979366D02*
X158873333Y-106012700D01*
X158873333Y-106012700D02*
X158840000Y-106079366D01*
X158840000Y-106079366D02*
X158840000Y-106212700D01*
X158840000Y-106212700D02*
X158873333Y-106279366D01*
X158873333Y-106279366D02*
X158906667Y-106312700D01*
X158906667Y-106312700D02*
X158973333Y-106346033D01*
X158973333Y-106346033D02*
X159106667Y-106346033D01*
X159106667Y-106346033D02*
X159173333Y-106312700D01*
X159173333Y-106312700D02*
X159206667Y-106279366D01*
X159206667Y-106279366D02*
X159240000Y-106212700D01*
X159240000Y-106212700D02*
X159240000Y-106079366D01*
X159240000Y-106079366D02*
X159206667Y-106012700D01*
X159206667Y-106012700D02*
X159173333Y-105979366D01*
X159173333Y-105979366D02*
X159106667Y-105946033D01*
%TO.C,R4*%
X151333966Y-117413333D02*
X151667300Y-117180000D01*
X151333966Y-117013333D02*
X152033966Y-117013333D01*
X152033966Y-117013333D02*
X152033966Y-117280000D01*
X152033966Y-117280000D02*
X152000633Y-117346667D01*
X152000633Y-117346667D02*
X151967300Y-117380000D01*
X151967300Y-117380000D02*
X151900633Y-117413333D01*
X151900633Y-117413333D02*
X151800633Y-117413333D01*
X151800633Y-117413333D02*
X151733966Y-117380000D01*
X151733966Y-117380000D02*
X151700633Y-117346667D01*
X151700633Y-117346667D02*
X151667300Y-117280000D01*
X151667300Y-117280000D02*
X151667300Y-117013333D01*
X151800633Y-118013333D02*
X151333966Y-118013333D01*
X152067300Y-117846667D02*
X151567300Y-117680000D01*
X151567300Y-117680000D02*
X151567300Y-118113333D01*
%TO.C,RV2*%
X145933333Y-122396033D02*
X145700000Y-122062700D01*
X145533333Y-122396033D02*
X145533333Y-121696033D01*
X145533333Y-121696033D02*
X145800000Y-121696033D01*
X145800000Y-121696033D02*
X145866667Y-121729366D01*
X145866667Y-121729366D02*
X145900000Y-121762700D01*
X145900000Y-121762700D02*
X145933333Y-121829366D01*
X145933333Y-121829366D02*
X145933333Y-121929366D01*
X145933333Y-121929366D02*
X145900000Y-121996033D01*
X145900000Y-121996033D02*
X145866667Y-122029366D01*
X145866667Y-122029366D02*
X145800000Y-122062700D01*
X145800000Y-122062700D02*
X145533333Y-122062700D01*
X146133333Y-121696033D02*
X146366667Y-122396033D01*
X146366667Y-122396033D02*
X146600000Y-121696033D01*
X146800000Y-121762700D02*
X146833333Y-121729366D01*
X146833333Y-121729366D02*
X146900000Y-121696033D01*
X146900000Y-121696033D02*
X147066667Y-121696033D01*
X147066667Y-121696033D02*
X147133333Y-121729366D01*
X147133333Y-121729366D02*
X147166667Y-121762700D01*
X147166667Y-121762700D02*
X147200000Y-121829366D01*
X147200000Y-121829366D02*
X147200000Y-121896033D01*
X147200000Y-121896033D02*
X147166667Y-121996033D01*
X147166667Y-121996033D02*
X146766667Y-122396033D01*
X146766667Y-122396033D02*
X147200000Y-122396033D01*
%TO.C,R7*%
X156303333Y-109786033D02*
X156070000Y-109452700D01*
X155903333Y-109786033D02*
X155903333Y-109086033D01*
X155903333Y-109086033D02*
X156170000Y-109086033D01*
X156170000Y-109086033D02*
X156236667Y-109119366D01*
X156236667Y-109119366D02*
X156270000Y-109152700D01*
X156270000Y-109152700D02*
X156303333Y-109219366D01*
X156303333Y-109219366D02*
X156303333Y-109319366D01*
X156303333Y-109319366D02*
X156270000Y-109386033D01*
X156270000Y-109386033D02*
X156236667Y-109419366D01*
X156236667Y-109419366D02*
X156170000Y-109452700D01*
X156170000Y-109452700D02*
X155903333Y-109452700D01*
X156536667Y-109086033D02*
X157003333Y-109086033D01*
X157003333Y-109086033D02*
X156703333Y-109786033D01*
%TO.C,J4*%
X161399866Y-115686633D02*
X161399866Y-116186633D01*
X161399866Y-116186633D02*
X161366533Y-116286633D01*
X161366533Y-116286633D02*
X161299866Y-116353300D01*
X161299866Y-116353300D02*
X161199866Y-116386633D01*
X161199866Y-116386633D02*
X161133200Y-116386633D01*
X162033199Y-115919966D02*
X162033199Y-116386633D01*
X161866533Y-115653300D02*
X161699866Y-116153300D01*
X161699866Y-116153300D02*
X162133199Y-116153300D01*
%TO.C,R5*%
X158856666Y-113743966D02*
X159089999Y-114077300D01*
X159256666Y-113743966D02*
X159256666Y-114443966D01*
X159256666Y-114443966D02*
X158989999Y-114443966D01*
X158989999Y-114443966D02*
X158923333Y-114410633D01*
X158923333Y-114410633D02*
X158889999Y-114377300D01*
X158889999Y-114377300D02*
X158856666Y-114310633D01*
X158856666Y-114310633D02*
X158856666Y-114210633D01*
X158856666Y-114210633D02*
X158889999Y-114143966D01*
X158889999Y-114143966D02*
X158923333Y-114110633D01*
X158923333Y-114110633D02*
X158989999Y-114077300D01*
X158989999Y-114077300D02*
X159256666Y-114077300D01*
X158223333Y-114443966D02*
X158556666Y-114443966D01*
X158556666Y-114443966D02*
X158589999Y-114110633D01*
X158589999Y-114110633D02*
X158556666Y-114143966D01*
X158556666Y-114143966D02*
X158489999Y-114177300D01*
X158489999Y-114177300D02*
X158323333Y-114177300D01*
X158323333Y-114177300D02*
X158256666Y-114143966D01*
X158256666Y-114143966D02*
X158223333Y-114110633D01*
X158223333Y-114110633D02*
X158189999Y-114043966D01*
X158189999Y-114043966D02*
X158189999Y-113877300D01*
X158189999Y-113877300D02*
X158223333Y-113810633D01*
X158223333Y-113810633D02*
X158256666Y-113777300D01*
X158256666Y-113777300D02*
X158323333Y-113743966D01*
X158323333Y-113743966D02*
X158489999Y-113743966D01*
X158489999Y-113743966D02*
X158556666Y-113777300D01*
X158556666Y-113777300D02*
X158589999Y-113810633D01*
%TO.C,P1*%
X158386666Y-117963966D02*
X158386666Y-118663966D01*
X158386666Y-118663966D02*
X158119999Y-118663966D01*
X158119999Y-118663966D02*
X158053333Y-118630633D01*
X158053333Y-118630633D02*
X158019999Y-118597300D01*
X158019999Y-118597300D02*
X157986666Y-118530633D01*
X157986666Y-118530633D02*
X157986666Y-118430633D01*
X157986666Y-118430633D02*
X158019999Y-118363966D01*
X158019999Y-118363966D02*
X158053333Y-118330633D01*
X158053333Y-118330633D02*
X158119999Y-118297300D01*
X158119999Y-118297300D02*
X158386666Y-118297300D01*
X157319999Y-117963966D02*
X157719999Y-117963966D01*
X157519999Y-117963966D02*
X157519999Y-118663966D01*
X157519999Y-118663966D02*
X157586666Y-118563966D01*
X157586666Y-118563966D02*
X157653333Y-118497300D01*
X157653333Y-118497300D02*
X157719999Y-118463966D01*
%TO.C,R3*%
X153543333Y-111436033D02*
X153310000Y-111102700D01*
X153143333Y-111436033D02*
X153143333Y-110736033D01*
X153143333Y-110736033D02*
X153410000Y-110736033D01*
X153410000Y-110736033D02*
X153476667Y-110769366D01*
X153476667Y-110769366D02*
X153510000Y-110802700D01*
X153510000Y-110802700D02*
X153543333Y-110869366D01*
X153543333Y-110869366D02*
X153543333Y-110969366D01*
X153543333Y-110969366D02*
X153510000Y-111036033D01*
X153510000Y-111036033D02*
X153476667Y-111069366D01*
X153476667Y-111069366D02*
X153410000Y-111102700D01*
X153410000Y-111102700D02*
X153143333Y-111102700D01*
X153776667Y-110736033D02*
X154210000Y-110736033D01*
X154210000Y-110736033D02*
X153976667Y-111002700D01*
X153976667Y-111002700D02*
X154076667Y-111002700D01*
X154076667Y-111002700D02*
X154143333Y-111036033D01*
X154143333Y-111036033D02*
X154176667Y-111069366D01*
X154176667Y-111069366D02*
X154210000Y-111136033D01*
X154210000Y-111136033D02*
X154210000Y-111302700D01*
X154210000Y-111302700D02*
X154176667Y-111369366D01*
X154176667Y-111369366D02*
X154143333Y-111402700D01*
X154143333Y-111402700D02*
X154076667Y-111436033D01*
X154076667Y-111436033D02*
X153876667Y-111436033D01*
X153876667Y-111436033D02*
X153810000Y-111402700D01*
X153810000Y-111402700D02*
X153776667Y-111369366D01*
%TO.C,R6*%
X153673333Y-108796033D02*
X153440000Y-108462700D01*
X153273333Y-108796033D02*
X153273333Y-108096033D01*
X153273333Y-108096033D02*
X153540000Y-108096033D01*
X153540000Y-108096033D02*
X153606667Y-108129366D01*
X153606667Y-108129366D02*
X153640000Y-108162700D01*
X153640000Y-108162700D02*
X153673333Y-108229366D01*
X153673333Y-108229366D02*
X153673333Y-108329366D01*
X153673333Y-108329366D02*
X153640000Y-108396033D01*
X153640000Y-108396033D02*
X153606667Y-108429366D01*
X153606667Y-108429366D02*
X153540000Y-108462700D01*
X153540000Y-108462700D02*
X153273333Y-108462700D01*
X154273333Y-108096033D02*
X154140000Y-108096033D01*
X154140000Y-108096033D02*
X154073333Y-108129366D01*
X154073333Y-108129366D02*
X154040000Y-108162700D01*
X154040000Y-108162700D02*
X153973333Y-108262700D01*
X153973333Y-108262700D02*
X153940000Y-108396033D01*
X153940000Y-108396033D02*
X153940000Y-108662700D01*
X153940000Y-108662700D02*
X153973333Y-108729366D01*
X153973333Y-108729366D02*
X154006667Y-108762700D01*
X154006667Y-108762700D02*
X154073333Y-108796033D01*
X154073333Y-108796033D02*
X154206667Y-108796033D01*
X154206667Y-108796033D02*
X154273333Y-108762700D01*
X154273333Y-108762700D02*
X154306667Y-108729366D01*
X154306667Y-108729366D02*
X154340000Y-108662700D01*
X154340000Y-108662700D02*
X154340000Y-108496033D01*
X154340000Y-108496033D02*
X154306667Y-108429366D01*
X154306667Y-108429366D02*
X154273333Y-108396033D01*
X154273333Y-108396033D02*
X154206667Y-108362700D01*
X154206667Y-108362700D02*
X154073333Y-108362700D01*
X154073333Y-108362700D02*
X154006667Y-108396033D01*
X154006667Y-108396033D02*
X153973333Y-108429366D01*
X153973333Y-108429366D02*
X153940000Y-108496033D01*
%TO.C,R1*%
X147153333Y-104866033D02*
X146920000Y-104532700D01*
X146753333Y-104866033D02*
X146753333Y-104166033D01*
X146753333Y-104166033D02*
X147020000Y-104166033D01*
X147020000Y-104166033D02*
X147086667Y-104199366D01*
X147086667Y-104199366D02*
X147120000Y-104232700D01*
X147120000Y-104232700D02*
X147153333Y-104299366D01*
X147153333Y-104299366D02*
X147153333Y-104399366D01*
X147153333Y-104399366D02*
X147120000Y-104466033D01*
X147120000Y-104466033D02*
X147086667Y-104499366D01*
X147086667Y-104499366D02*
X147020000Y-104532700D01*
X147020000Y-104532700D02*
X146753333Y-104532700D01*
X147820000Y-104866033D02*
X147420000Y-104866033D01*
X147620000Y-104866033D02*
X147620000Y-104166033D01*
X147620000Y-104166033D02*
X147553333Y-104266033D01*
X147553333Y-104266033D02*
X147486667Y-104332700D01*
X147486667Y-104332700D02*
X147420000Y-104366033D01*
%TO.C,J3*%
X138133466Y-103545433D02*
X138133466Y-104045433D01*
X138133466Y-104045433D02*
X138100133Y-104145433D01*
X138100133Y-104145433D02*
X138033466Y-104212100D01*
X138033466Y-104212100D02*
X137933466Y-104245433D01*
X137933466Y-104245433D02*
X137866800Y-104245433D01*
X138400133Y-103545433D02*
X138833466Y-103545433D01*
X138833466Y-103545433D02*
X138600133Y-103812100D01*
X138600133Y-103812100D02*
X138700133Y-103812100D01*
X138700133Y-103812100D02*
X138766799Y-103845433D01*
X138766799Y-103845433D02*
X138800133Y-103878766D01*
X138800133Y-103878766D02*
X138833466Y-103945433D01*
X138833466Y-103945433D02*
X138833466Y-104112100D01*
X138833466Y-104112100D02*
X138800133Y-104178766D01*
X138800133Y-104178766D02*
X138766799Y-104212100D01*
X138766799Y-104212100D02*
X138700133Y-104245433D01*
X138700133Y-104245433D02*
X138500133Y-104245433D01*
X138500133Y-104245433D02*
X138433466Y-104212100D01*
X138433466Y-104212100D02*
X138400133Y-104178766D01*
%TO.C,R2*%
X154793333Y-115756033D02*
X154560000Y-115422700D01*
X154393333Y-115756033D02*
X154393333Y-115056033D01*
X154393333Y-115056033D02*
X154660000Y-115056033D01*
X154660000Y-115056033D02*
X154726667Y-115089366D01*
X154726667Y-115089366D02*
X154760000Y-115122700D01*
X154760000Y-115122700D02*
X154793333Y-115189366D01*
X154793333Y-115189366D02*
X154793333Y-115289366D01*
X154793333Y-115289366D02*
X154760000Y-115356033D01*
X154760000Y-115356033D02*
X154726667Y-115389366D01*
X154726667Y-115389366D02*
X154660000Y-115422700D01*
X154660000Y-115422700D02*
X154393333Y-115422700D01*
X155060000Y-115122700D02*
X155093333Y-115089366D01*
X155093333Y-115089366D02*
X155160000Y-115056033D01*
X155160000Y-115056033D02*
X155326667Y-115056033D01*
X155326667Y-115056033D02*
X155393333Y-115089366D01*
X155393333Y-115089366D02*
X155426667Y-115122700D01*
X155426667Y-115122700D02*
X155460000Y-115189366D01*
X155460000Y-115189366D02*
X155460000Y-115256033D01*
X155460000Y-115256033D02*
X155426667Y-115356033D01*
X155426667Y-115356033D02*
X155026667Y-115756033D01*
X155026667Y-115756033D02*
X155460000Y-115756033D01*
%TO.C,U1*%
X150386666Y-105586033D02*
X150386666Y-106152700D01*
X150386666Y-106152700D02*
X150420000Y-106219366D01*
X150420000Y-106219366D02*
X150453333Y-106252700D01*
X150453333Y-106252700D02*
X150520000Y-106286033D01*
X150520000Y-106286033D02*
X150653333Y-106286033D01*
X150653333Y-106286033D02*
X150720000Y-106252700D01*
X150720000Y-106252700D02*
X150753333Y-106219366D01*
X150753333Y-106219366D02*
X150786666Y-106152700D01*
X150786666Y-106152700D02*
X150786666Y-105586033D01*
X151486666Y-106286033D02*
X151086666Y-106286033D01*
X151286666Y-106286033D02*
X151286666Y-105586033D01*
X151286666Y-105586033D02*
X151219999Y-105686033D01*
X151219999Y-105686033D02*
X151153333Y-105752700D01*
X151153333Y-105752700D02*
X151086666Y-105786033D01*
D12*
%TO.C,J1*%
X152670000Y-102090000D02*
X152670000Y-98090000D01*
X152380000Y-103120000D02*
X152380000Y-97100000D01*
X152380000Y-97100000D02*
X144540000Y-97100000D01*
X151800000Y-103120000D02*
X151800000Y-102520000D01*
X151800000Y-102520000D02*
X150200000Y-102520000D01*
X151000000Y-98100000D02*
X150750000Y-98630000D01*
X151000000Y-98100000D02*
X145920000Y-98100000D01*
X151000000Y-97100000D02*
X151000000Y-98100000D01*
X150750000Y-98630000D02*
X146170000Y-98630000D01*
X150750000Y-97100000D02*
X150750000Y-98100000D01*
X150200000Y-102520000D02*
X150200000Y-103120000D01*
X149260000Y-103120000D02*
X149260000Y-102520000D01*
X149260000Y-102520000D02*
X147660000Y-102520000D01*
X147660000Y-102520000D02*
X147660000Y-103120000D01*
X146720000Y-103120000D02*
X146720000Y-102520000D01*
X146720000Y-102520000D02*
X145120000Y-102520000D01*
X146170000Y-98630000D02*
X145920000Y-98100000D01*
X146170000Y-97100000D02*
X146170000Y-98100000D01*
X145920000Y-98100000D02*
X145920000Y-97100000D01*
X145120000Y-102520000D02*
X145120000Y-103120000D01*
X144540000Y-103120000D02*
X152380000Y-103120000D01*
X144540000Y-97100000D02*
X144540000Y-103120000D01*
%TO.C,R8*%
X158127500Y-108624724D02*
X158127500Y-108115276D01*
X159172500Y-108624724D02*
X159172500Y-108115276D01*
%TO.C,R4*%
X153502500Y-116145276D02*
X153502500Y-116654724D01*
X152457500Y-116145276D02*
X152457500Y-116654724D01*
%TO.C,RV2*%
X149825000Y-120950000D02*
X149825000Y-119164000D01*
X149825000Y-120950000D02*
X142875000Y-120950000D01*
X149825000Y-118174000D02*
X149825000Y-116210000D01*
X149825000Y-116210000D02*
X142875000Y-116210000D01*
X142875000Y-120950000D02*
X142875000Y-119164000D01*
X142875000Y-118174000D02*
X142875000Y-116210000D01*
%TO.C,R7*%
X157532500Y-111415276D02*
X157532500Y-111924724D01*
X156487500Y-111415276D02*
X156487500Y-111924724D01*
%TO.C,R5*%
X159172500Y-111415276D02*
X159172500Y-111924724D01*
X158127500Y-111415276D02*
X158127500Y-111924724D01*
%TO.C,P1*%
X157245000Y-119400000D02*
X157245000Y-120730000D01*
X155915000Y-119400000D02*
X157245000Y-119400000D01*
X154645000Y-119400000D02*
X152045000Y-119400000D01*
X154645000Y-119400000D02*
X154645000Y-122060000D01*
X152045000Y-119400000D02*
X152045000Y-122060000D01*
X154645000Y-122060000D02*
X152045000Y-122060000D01*
%TO.C,R3*%
X154014724Y-112882500D02*
X153505276Y-112882500D01*
X154014724Y-111837500D02*
X153505276Y-111837500D01*
%TO.C,R6*%
X153525276Y-109317500D02*
X154034724Y-109317500D01*
X153525276Y-110362500D02*
X154034724Y-110362500D01*
%TO.C,R1*%
X147015276Y-105457500D02*
X147524724Y-105457500D01*
X147015276Y-106502500D02*
X147524724Y-106502500D01*
%TO.C,R2*%
X154004724Y-114542500D02*
X153495276Y-114542500D01*
X154004724Y-113497500D02*
X153495276Y-113497500D01*
%TO.C,U1*%
X148400000Y-106865000D02*
X144950000Y-106865000D01*
X148400000Y-106865000D02*
X150350000Y-106865000D01*
X148400000Y-115735000D02*
X146450000Y-115735000D01*
X148400000Y-115735000D02*
X150350000Y-115735000D01*
%TD*%
M02*
