%TF.GenerationSoftware,KiCad,Pcbnew,7.0.5-0*%
%TF.CreationDate,2024-02-16T16:09:16-04:00*%
%TF.ProjectId,Conditioning,436f6e64-6974-4696-9f6e-696e672e6b69,rev?*%
%TF.SameCoordinates,Original*%
%TF.FileFunction,Copper,L3,Inr*%
%TF.FilePolarity,Positive*%
%FSLAX46Y46*%
G04 Gerber Fmt 4.6, Leading zero omitted, Abs format (unit mm)*
G04 Created by KiCad (PCBNEW 7.0.5-0) date 2024-02-16 16:09:16*
%MOMM*%
%LPD*%
G01*
G04 APERTURE LIST*
G04 Aperture macros list*
%AMRoundRect*
0 Rectangle with rounded corners*
0 $1 Rounding radius*
0 $2 $3 $4 $5 $6 $7 $8 $9 X,Y pos of 4 corners*
0 Add a 4 corners polygon primitive as box body*
4,1,4,$2,$3,$4,$5,$6,$7,$8,$9,$2,$3,0*
0 Add four circle primitives for the rounded corners*
1,1,$1+$1,$2,$3*
1,1,$1+$1,$4,$5*
1,1,$1+$1,$6,$7*
1,1,$1+$1,$8,$9*
0 Add four rect primitives between the rounded corners*
20,1,$1+$1,$2,$3,$4,$5,0*
20,1,$1+$1,$4,$5,$6,$7,0*
20,1,$1+$1,$6,$7,$8,$9,0*
20,1,$1+$1,$8,$9,$2,$3,0*%
G04 Aperture macros list end*
%TA.AperFunction,ComponentPad*%
%ADD10C,0.800000*%
%TD*%
%TA.AperFunction,ComponentPad*%
%ADD11C,5.400000*%
%TD*%
%TA.AperFunction,ComponentPad*%
%ADD12RoundRect,0.250000X0.620000X0.845000X-0.620000X0.845000X-0.620000X-0.845000X0.620000X-0.845000X0*%
%TD*%
%TA.AperFunction,ComponentPad*%
%ADD13O,1.740000X2.190000*%
%TD*%
%TA.AperFunction,ComponentPad*%
%ADD14C,1.440000*%
%TD*%
%TA.AperFunction,ComponentPad*%
%ADD15R,1.700000X1.700000*%
%TD*%
%TA.AperFunction,ComponentPad*%
%ADD16O,1.700000X1.700000*%
%TD*%
%TA.AperFunction,ViaPad*%
%ADD17C,0.600000*%
%TD*%
%TA.AperFunction,Conductor*%
%ADD18C,0.250000*%
%TD*%
G04 APERTURE END LIST*
D10*
%TO.N,GND*%
%TO.C,MH1*%
X136975000Y-99000000D03*
X137568109Y-97568109D03*
X137568109Y-100431891D03*
X139000000Y-96975000D03*
D11*
X139000000Y-99000000D03*
D10*
X139000000Y-101025000D03*
X140431891Y-97568109D03*
X140431891Y-100431891D03*
X141025000Y-99000000D03*
%TD*%
D12*
%TO.N,/+Pwr*%
%TO.C,J1*%
X151000000Y-100090000D03*
D13*
%TO.N,GND*%
X148460000Y-100090000D03*
%TO.N,/-Pwr*%
X145920000Y-100090000D03*
%TD*%
D10*
%TO.N,GND*%
%TO.C,MH4*%
X158975000Y-121000000D03*
X159568109Y-119568109D03*
X159568109Y-122431891D03*
X161000000Y-118975000D03*
D11*
X161000000Y-121000000D03*
D10*
X161000000Y-123025000D03*
X162431891Y-119568109D03*
X162431891Y-122431891D03*
X163025000Y-121000000D03*
%TD*%
%TO.N,GND*%
%TO.C,MH3*%
X136975000Y-121000000D03*
X137568109Y-119568109D03*
X137568109Y-122431891D03*
X139000000Y-118975000D03*
D11*
X139000000Y-121000000D03*
D10*
X139000000Y-123025000D03*
X140431891Y-119568109D03*
X140431891Y-122431891D03*
X141025000Y-121000000D03*
%TD*%
D14*
%TO.N,Net-(U1B--)*%
%TO.C,RV2*%
X143810000Y-118670000D03*
%TO.N,Net-(R2-Pad1)*%
X146350000Y-118670000D03*
X148890000Y-118670000D03*
%TD*%
D15*
%TO.N,Net-(P1-Pin_1)*%
%TO.C,P1*%
X155915000Y-120730000D03*
D16*
%TO.N,GND*%
X153375000Y-120730000D03*
%TD*%
D10*
%TO.N,GND*%
%TO.C,MH2*%
X158975000Y-99000000D03*
X159568109Y-97568109D03*
X159568109Y-100431891D03*
X161000000Y-96975000D03*
D11*
X161000000Y-99000000D03*
D10*
X161000000Y-101025000D03*
X162431891Y-97568109D03*
X162431891Y-100431891D03*
X163025000Y-99000000D03*
%TD*%
D17*
%TO.N,GND*%
X164250000Y-117525368D03*
X152450000Y-106580000D03*
X140750000Y-111500000D03*
X160750000Y-106750000D03*
X158153846Y-123250000D03*
X149460000Y-106100000D03*
X162750000Y-108500000D03*
X160750000Y-113000000D03*
X140447425Y-95750000D03*
X159620501Y-124250000D03*
X137000000Y-108500000D03*
X141466655Y-95750000D03*
X135500000Y-106750000D03*
X163250000Y-102964285D03*
X164500000Y-113000000D03*
X144140000Y-113260000D03*
X139250000Y-108500000D03*
X158228319Y-96750000D03*
X164250000Y-116512684D03*
X152480000Y-108350000D03*
X135750000Y-120563421D03*
X135750000Y-97799225D03*
X157550000Y-109610000D03*
X135750000Y-101933075D03*
X163250000Y-123250000D03*
X138500000Y-108500000D03*
X164250000Y-118538053D03*
X163250000Y-116607142D03*
X139250000Y-111500000D03*
X150080000Y-116240000D03*
X138500000Y-111500000D03*
X135750000Y-98832687D03*
X163750000Y-113000000D03*
X158793578Y-95750000D03*
X141012684Y-96750000D03*
X136750000Y-102964285D03*
X153720000Y-113090000D03*
X137000000Y-111500000D03*
X137750000Y-106750000D03*
X149340000Y-107600000D03*
X156070000Y-110170000D03*
X164250000Y-102966537D03*
X143417551Y-124250000D03*
X163000000Y-106750000D03*
X135500000Y-107500000D03*
X155280000Y-116550000D03*
X164250000Y-99866150D03*
X137000000Y-113000000D03*
X144610000Y-105190000D03*
X135750000Y-100899612D03*
X157595132Y-124250000D03*
X141846153Y-123250000D03*
X164250000Y-121576106D03*
X157101668Y-113583127D03*
X136750000Y-117714285D03*
X163250000Y-118821428D03*
X148050000Y-115350000D03*
X153600000Y-119050000D03*
X135750000Y-118538053D03*
X163500000Y-111500000D03*
X164250000Y-101933075D03*
X157470000Y-106570000D03*
X163250000Y-96750000D03*
X161500000Y-113000000D03*
X160633185Y-124250000D03*
X164250000Y-100899612D03*
X142025369Y-96750000D03*
X147540000Y-112870000D03*
X137000000Y-106750000D03*
X135750000Y-99866150D03*
X135500000Y-108500000D03*
X160917312Y-95750000D03*
X136250000Y-106750000D03*
X159173076Y-123250000D03*
X152210000Y-116530000D03*
X157134615Y-123250000D03*
X163750000Y-106750000D03*
X135750000Y-117525368D03*
X147640000Y-120170000D03*
X157774348Y-95750000D03*
X139250000Y-106750000D03*
X156750000Y-115040000D03*
X137750000Y-113000000D03*
X164250000Y-97799225D03*
X137750000Y-108500000D03*
X135750000Y-121576106D03*
X136250000Y-111500000D03*
X164250000Y-111500000D03*
X160500000Y-108500000D03*
X162000000Y-111500000D03*
X144030000Y-111190000D03*
X163000000Y-113000000D03*
X139366814Y-124250000D03*
X142485886Y-95750000D03*
X136750000Y-118821428D03*
X158607817Y-124250000D03*
X136250000Y-113000000D03*
X157700000Y-116650000D03*
X142404867Y-124250000D03*
X162250000Y-113000000D03*
X158620000Y-113580000D03*
X141790000Y-111310000D03*
X142540000Y-114830000D03*
X151480000Y-117960000D03*
X139082687Y-95750000D03*
X162750000Y-111500000D03*
X140000000Y-108500000D03*
X156560000Y-117580000D03*
X160000000Y-106750000D03*
X161645870Y-124250000D03*
X161500000Y-106750000D03*
X149320000Y-109400000D03*
X147550000Y-107290000D03*
X136750000Y-96750000D03*
X144820000Y-117280000D03*
X142300000Y-116760000D03*
X146940000Y-102960000D03*
X140000000Y-113000000D03*
X154300000Y-110070000D03*
X164250000Y-120563421D03*
X163250000Y-101928571D03*
X164250000Y-119550737D03*
X137750000Y-111500000D03*
X135500000Y-113000000D03*
X164500000Y-112250000D03*
X135500000Y-111500000D03*
X144200000Y-115500000D03*
X142820000Y-109080000D03*
X140379498Y-124250000D03*
X163500000Y-108500000D03*
X152800000Y-110930000D03*
X140750000Y-108500000D03*
X158004999Y-121954999D03*
X136750000Y-123250000D03*
X157450000Y-108290000D03*
X144330000Y-107400000D03*
X164500000Y-106750000D03*
X161250000Y-108500000D03*
X142900000Y-111350000D03*
X164250000Y-98832687D03*
X162250000Y-106750000D03*
X161250000Y-111500000D03*
X162000000Y-108500000D03*
X160500000Y-111500000D03*
X155280000Y-114920000D03*
X140000000Y-106750000D03*
X163250000Y-117714285D03*
X142420000Y-118340000D03*
X148380000Y-101530000D03*
X155200000Y-106550000D03*
X138500000Y-113000000D03*
X139250000Y-113000000D03*
X147040000Y-117300000D03*
X141375000Y-109000000D03*
X136250000Y-108500000D03*
X152110000Y-104470000D03*
X138500000Y-106750000D03*
X140000000Y-111500000D03*
X154000000Y-114940000D03*
X158770000Y-115470000D03*
X155910000Y-111800000D03*
X157835635Y-111569214D03*
X144300000Y-109060000D03*
X160000000Y-113000000D03*
X135750000Y-119550737D03*
X149850000Y-102960000D03*
X164500000Y-107750000D03*
X159802575Y-95750000D03*
X138354129Y-124250000D03*
X151610000Y-119470000D03*
X136750000Y-101928571D03*
X138049225Y-95750000D03*
X155240000Y-108330000D03*
X155270000Y-118070000D03*
X148390000Y-104400000D03*
X141392182Y-124250000D03*
X164250000Y-108500000D03*
X135500000Y-112250000D03*
X161950774Y-95750000D03*
X147560000Y-109390000D03*
X148700000Y-113990000D03*
X135750000Y-102966537D03*
%TO.N,Net-(P1-Pin_1)*%
X152850000Y-112340000D03*
%TD*%
D18*
%TO.N,Net-(P1-Pin_1)*%
X155915000Y-120730000D02*
X155915000Y-113915000D01*
X154340000Y-112340000D02*
X152850000Y-112340000D01*
X155915000Y-113915000D02*
X154340000Y-112340000D01*
%TD*%
%TA.AperFunction,Conductor*%
%TO.N,GND*%
G36*
X160995001Y-95001144D02*
G01*
X160999323Y-95001197D01*
X161000572Y-95001227D01*
X161075035Y-95003969D01*
X161172692Y-95008484D01*
X161195443Y-95009601D01*
X161196643Y-95009675D01*
X161390244Y-95023956D01*
X161392931Y-95024220D01*
X161584899Y-95047897D01*
X161587538Y-95048289D01*
X161778061Y-95081349D01*
X161780740Y-95081881D01*
X161969441Y-95124255D01*
X161972049Y-95124908D01*
X162158414Y-95176483D01*
X162161033Y-95177277D01*
X162344627Y-95237928D01*
X162347204Y-95238850D01*
X162417039Y-95265788D01*
X162527641Y-95308451D01*
X162530109Y-95309473D01*
X162706939Y-95387856D01*
X162709348Y-95388996D01*
X162853937Y-95461776D01*
X162882092Y-95475948D01*
X162884506Y-95477238D01*
X163052723Y-95572532D01*
X163055059Y-95573931D01*
X163218456Y-95677401D01*
X163220693Y-95678895D01*
X163313037Y-95743931D01*
X163378816Y-95790258D01*
X163381012Y-95791887D01*
X163533467Y-95910864D01*
X163535529Y-95912557D01*
X163681970Y-96038876D01*
X163683961Y-96040681D01*
X163777968Y-96130183D01*
X163824028Y-96174036D01*
X163825963Y-96175971D01*
X163874378Y-96226823D01*
X163959316Y-96316036D01*
X163961124Y-96318031D01*
X164087438Y-96464466D01*
X164089138Y-96466537D01*
X164191915Y-96598232D01*
X164208110Y-96618984D01*
X164209741Y-96621183D01*
X164321092Y-96779288D01*
X164322612Y-96781564D01*
X164426061Y-96944929D01*
X164427467Y-96947277D01*
X164522756Y-97115486D01*
X164524046Y-97117899D01*
X164610996Y-97290637D01*
X164612156Y-97293090D01*
X164690523Y-97469884D01*
X164691554Y-97472373D01*
X164761149Y-97652795D01*
X164762071Y-97655372D01*
X164822722Y-97838966D01*
X164823516Y-97841585D01*
X164875086Y-98027932D01*
X164875751Y-98030587D01*
X164918117Y-98219255D01*
X164918650Y-98221938D01*
X164951706Y-98412438D01*
X164952108Y-98415145D01*
X164975775Y-98607033D01*
X164976043Y-98609757D01*
X164990317Y-98803272D01*
X164990401Y-98804636D01*
X164991517Y-98827331D01*
X164992205Y-98842207D01*
X164996029Y-98924954D01*
X164997711Y-98970602D01*
X164998768Y-98999310D01*
X164998769Y-98999313D01*
X164998802Y-99000681D01*
X164999500Y-99057494D01*
X164999500Y-120942504D01*
X164998802Y-120999318D01*
X164998769Y-121000686D01*
X164996029Y-121075044D01*
X164992608Y-121149066D01*
X164991557Y-121171817D01*
X164991526Y-121172487D01*
X164990401Y-121195363D01*
X164990317Y-121196727D01*
X164976043Y-121390242D01*
X164975775Y-121392966D01*
X164952108Y-121584854D01*
X164951706Y-121587561D01*
X164918650Y-121778061D01*
X164918117Y-121780744D01*
X164875751Y-121969412D01*
X164875086Y-121972067D01*
X164823511Y-122158433D01*
X164822717Y-122161052D01*
X164762073Y-122344624D01*
X164761151Y-122347200D01*
X164691554Y-122527626D01*
X164690517Y-122530129D01*
X164645712Y-122631208D01*
X164612148Y-122706927D01*
X164610978Y-122709401D01*
X164524055Y-122882084D01*
X164522765Y-122884497D01*
X164427467Y-123052722D01*
X164426061Y-123055070D01*
X164322612Y-123218435D01*
X164321092Y-123220711D01*
X164209741Y-123378816D01*
X164208110Y-123381015D01*
X164089156Y-123533441D01*
X164087420Y-123535556D01*
X163961130Y-123681962D01*
X163959292Y-123683990D01*
X163825974Y-123824018D01*
X163824039Y-123825953D01*
X163683982Y-123959299D01*
X163681954Y-123961137D01*
X163535556Y-124087420D01*
X163533441Y-124089156D01*
X163381015Y-124208110D01*
X163378816Y-124209741D01*
X163220711Y-124321092D01*
X163218435Y-124322612D01*
X163055070Y-124426061D01*
X163052723Y-124427467D01*
X162884506Y-124522761D01*
X162882092Y-124524051D01*
X162709352Y-124611001D01*
X162706887Y-124612166D01*
X162530144Y-124690511D01*
X162527626Y-124691554D01*
X162347200Y-124761151D01*
X162344623Y-124762073D01*
X162161033Y-124822722D01*
X162158414Y-124823516D01*
X161972067Y-124875086D01*
X161969412Y-124875751D01*
X161780744Y-124918117D01*
X161778061Y-124918650D01*
X161587561Y-124951706D01*
X161584859Y-124952107D01*
X161493392Y-124963388D01*
X161392966Y-124975775D01*
X161390242Y-124976043D01*
X161196726Y-124990317D01*
X161195360Y-124990401D01*
X161172510Y-124991524D01*
X161075044Y-124996029D01*
X161018030Y-124998129D01*
X161000656Y-124998769D01*
X160999318Y-124998802D01*
X160942506Y-124999500D01*
X139057494Y-124999500D01*
X139000681Y-124998802D01*
X138999344Y-124998769D01*
X138979779Y-124998049D01*
X138924954Y-124996029D01*
X138827489Y-124991524D01*
X138804639Y-124990401D01*
X138803273Y-124990317D01*
X138609757Y-124976043D01*
X138607033Y-124975775D01*
X138589829Y-124973653D01*
X138415134Y-124952106D01*
X138412438Y-124951706D01*
X138221938Y-124918650D01*
X138219255Y-124918117D01*
X138030587Y-124875751D01*
X138027932Y-124875086D01*
X137841585Y-124823516D01*
X137838966Y-124822722D01*
X137655372Y-124762071D01*
X137652795Y-124761149D01*
X137472373Y-124691554D01*
X137469884Y-124690523D01*
X137293090Y-124612156D01*
X137290637Y-124610996D01*
X137117899Y-124524046D01*
X137115486Y-124522756D01*
X136947277Y-124427467D01*
X136944929Y-124426061D01*
X136942679Y-124424636D01*
X136781553Y-124322604D01*
X136779288Y-124321092D01*
X136621183Y-124209741D01*
X136618984Y-124208110D01*
X136598232Y-124191915D01*
X136466537Y-124089138D01*
X136464466Y-124087438D01*
X136318025Y-123961119D01*
X136316017Y-123959299D01*
X136175960Y-123825953D01*
X136174046Y-123824039D01*
X136174026Y-123824018D01*
X136040681Y-123683961D01*
X136038876Y-123681970D01*
X135912557Y-123535529D01*
X135910864Y-123533467D01*
X135791887Y-123381012D01*
X135790258Y-123378816D01*
X135743931Y-123313037D01*
X135678895Y-123220693D01*
X135677401Y-123218456D01*
X135573931Y-123055059D01*
X135572532Y-123052722D01*
X135477243Y-122884513D01*
X135475953Y-122882100D01*
X135389013Y-122709381D01*
X135387843Y-122706907D01*
X135309472Y-122530106D01*
X135308442Y-122527618D01*
X135238848Y-122347200D01*
X135237942Y-122344669D01*
X135177266Y-122160999D01*
X135176488Y-122158433D01*
X135124913Y-121972067D01*
X135124255Y-121969441D01*
X135081881Y-121780740D01*
X135081349Y-121778061D01*
X135048289Y-121587538D01*
X135047897Y-121584899D01*
X135024220Y-121392931D01*
X135023956Y-121390242D01*
X135009675Y-121196643D01*
X135009601Y-121195443D01*
X135008474Y-121172487D01*
X135003969Y-121075035D01*
X135001227Y-121000572D01*
X135001197Y-120999321D01*
X135000500Y-120942503D01*
X135000500Y-118670000D01*
X142884430Y-118670000D01*
X142904656Y-118862437D01*
X142964450Y-119046463D01*
X143061198Y-119214036D01*
X143190673Y-119357833D01*
X143347215Y-119471567D01*
X143347217Y-119471568D01*
X143347220Y-119471570D01*
X143484978Y-119532902D01*
X143523983Y-119550269D01*
X143713252Y-119590500D01*
X143713254Y-119590500D01*
X143906746Y-119590500D01*
X143906748Y-119590500D01*
X144096017Y-119550269D01*
X144272778Y-119471570D01*
X144272779Y-119471570D01*
X144272780Y-119471569D01*
X144272785Y-119471567D01*
X144429327Y-119357833D01*
X144558802Y-119214036D01*
X144655550Y-119046463D01*
X144715344Y-118862437D01*
X144735570Y-118670000D01*
X145424430Y-118670000D01*
X145444656Y-118862437D01*
X145504450Y-119046463D01*
X145601198Y-119214036D01*
X145730673Y-119357833D01*
X145887215Y-119471567D01*
X145887217Y-119471568D01*
X145887220Y-119471570D01*
X146024978Y-119532902D01*
X146063983Y-119550269D01*
X146253252Y-119590500D01*
X146253254Y-119590500D01*
X146446746Y-119590500D01*
X146446748Y-119590500D01*
X146636017Y-119550269D01*
X146812778Y-119471570D01*
X146812779Y-119471570D01*
X146812780Y-119471569D01*
X146812785Y-119471567D01*
X146969327Y-119357833D01*
X147098802Y-119214036D01*
X147195550Y-119046463D01*
X147255344Y-118862437D01*
X147275570Y-118670000D01*
X147964430Y-118670000D01*
X147984656Y-118862437D01*
X148044450Y-119046463D01*
X148141198Y-119214036D01*
X148270673Y-119357833D01*
X148427215Y-119471567D01*
X148427217Y-119471568D01*
X148427220Y-119471570D01*
X148564978Y-119532902D01*
X148603983Y-119550269D01*
X148793252Y-119590500D01*
X148793254Y-119590500D01*
X148986746Y-119590500D01*
X148986748Y-119590500D01*
X149176017Y-119550269D01*
X149352778Y-119471570D01*
X149352779Y-119471570D01*
X149352780Y-119471569D01*
X149352785Y-119471567D01*
X149509327Y-119357833D01*
X149638802Y-119214036D01*
X149735550Y-119046463D01*
X149795344Y-118862437D01*
X149815570Y-118670000D01*
X149795344Y-118477563D01*
X149735550Y-118293537D01*
X149638802Y-118125964D01*
X149509327Y-117982167D01*
X149352785Y-117868433D01*
X149352783Y-117868432D01*
X149352779Y-117868429D01*
X149176020Y-117789732D01*
X149176018Y-117789731D01*
X148986750Y-117749500D01*
X148986748Y-117749500D01*
X148793252Y-117749500D01*
X148793249Y-117749500D01*
X148603981Y-117789731D01*
X148603979Y-117789732D01*
X148427221Y-117868429D01*
X148427220Y-117868429D01*
X148270670Y-117982169D01*
X148141198Y-118125963D01*
X148044450Y-118293536D01*
X148044450Y-118293537D01*
X147984656Y-118477563D01*
X147964430Y-118670000D01*
X147275570Y-118670000D01*
X147255344Y-118477563D01*
X147195550Y-118293537D01*
X147098802Y-118125964D01*
X146969327Y-117982167D01*
X146812785Y-117868433D01*
X146812783Y-117868432D01*
X146812779Y-117868429D01*
X146636020Y-117789732D01*
X146636018Y-117789731D01*
X146446750Y-117749500D01*
X146446748Y-117749500D01*
X146253252Y-117749500D01*
X146253249Y-117749500D01*
X146063981Y-117789731D01*
X146063979Y-117789732D01*
X145887221Y-117868429D01*
X145887220Y-117868429D01*
X145730670Y-117982169D01*
X145601198Y-118125963D01*
X145504450Y-118293536D01*
X145504450Y-118293537D01*
X145444656Y-118477563D01*
X145424430Y-118670000D01*
X144735570Y-118670000D01*
X144715344Y-118477563D01*
X144655550Y-118293537D01*
X144558802Y-118125964D01*
X144429327Y-117982167D01*
X144272785Y-117868433D01*
X144272783Y-117868432D01*
X144272779Y-117868429D01*
X144096020Y-117789732D01*
X144096018Y-117789731D01*
X143906750Y-117749500D01*
X143906748Y-117749500D01*
X143713252Y-117749500D01*
X143713249Y-117749500D01*
X143523981Y-117789731D01*
X143523979Y-117789732D01*
X143347221Y-117868429D01*
X143347220Y-117868429D01*
X143190670Y-117982169D01*
X143061198Y-118125963D01*
X142964450Y-118293536D01*
X142964450Y-118293537D01*
X142904656Y-118477563D01*
X142884430Y-118670000D01*
X135000500Y-118670000D01*
X135000500Y-114020002D01*
X154257008Y-114020002D01*
X154276852Y-114145301D01*
X154276854Y-114145304D01*
X154334450Y-114258342D01*
X154424158Y-114348050D01*
X154424160Y-114348051D01*
X154537198Y-114405647D01*
X154537197Y-114405647D01*
X154662498Y-114425492D01*
X154662500Y-114425492D01*
X154662502Y-114425492D01*
X154787801Y-114405647D01*
X154787802Y-114405646D01*
X154787804Y-114405646D01*
X154900842Y-114348050D01*
X154990550Y-114258342D01*
X155048146Y-114145304D01*
X155048146Y-114145302D01*
X155048147Y-114145301D01*
X155067992Y-114020002D01*
X155067992Y-114019997D01*
X155048147Y-113894698D01*
X154990551Y-113781660D01*
X154990550Y-113781658D01*
X154900842Y-113691950D01*
X154900840Y-113691949D01*
X154900839Y-113691948D01*
X154787801Y-113634352D01*
X154787802Y-113634352D01*
X154662502Y-113614508D01*
X154662498Y-113614508D01*
X154537198Y-113634352D01*
X154424160Y-113691948D01*
X154424156Y-113691951D01*
X154334451Y-113781656D01*
X154334448Y-113781660D01*
X154276852Y-113894698D01*
X154257008Y-114019997D01*
X154257008Y-114020002D01*
X135000500Y-114020002D01*
X135000500Y-112340001D01*
X152344353Y-112340001D01*
X152364835Y-112482457D01*
X152424622Y-112613372D01*
X152424623Y-112613373D01*
X152518872Y-112722143D01*
X152639947Y-112799953D01*
X152778039Y-112840500D01*
X152778041Y-112840500D01*
X152921959Y-112840500D01*
X152921961Y-112840500D01*
X153060053Y-112799953D01*
X153181128Y-112722143D01*
X153196863Y-112703983D01*
X153255875Y-112668398D01*
X153281130Y-112665500D01*
X154158990Y-112665500D01*
X154224528Y-112686795D01*
X154237832Y-112698158D01*
X155556842Y-114017168D01*
X155588127Y-114078568D01*
X155589500Y-114096010D01*
X155589500Y-119568000D01*
X155568205Y-119633538D01*
X155512455Y-119674043D01*
X155478000Y-119679500D01*
X155045252Y-119679500D01*
X155001389Y-119688224D01*
X154986768Y-119691133D01*
X154920448Y-119735448D01*
X154876133Y-119801768D01*
X154876132Y-119801769D01*
X154876133Y-119801769D01*
X154864500Y-119860252D01*
X154864500Y-121599748D01*
X154876133Y-121658231D01*
X154920448Y-121724552D01*
X154986769Y-121768867D01*
X155045252Y-121780500D01*
X155045255Y-121780500D01*
X156784745Y-121780500D01*
X156784748Y-121780500D01*
X156843231Y-121768867D01*
X156909552Y-121724552D01*
X156953867Y-121658231D01*
X156965500Y-121599748D01*
X156965500Y-119860252D01*
X156953867Y-119801769D01*
X156909552Y-119735448D01*
X156843231Y-119691133D01*
X156784748Y-119679500D01*
X156784745Y-119679500D01*
X156352000Y-119679500D01*
X156286462Y-119658205D01*
X156245957Y-119602455D01*
X156240500Y-119568000D01*
X156240500Y-113931640D01*
X156240712Y-113926779D01*
X156240726Y-113926615D01*
X156244263Y-113886193D01*
X156233713Y-113846823D01*
X156232663Y-113842087D01*
X156225588Y-113801955D01*
X156225587Y-113801953D01*
X156225587Y-113801952D01*
X156225445Y-113801562D01*
X156214739Y-113775715D01*
X156214555Y-113775321D01*
X156214554Y-113775316D01*
X156211435Y-113770862D01*
X156191179Y-113741931D01*
X156188565Y-113737828D01*
X156168195Y-113702546D01*
X156136975Y-113676349D01*
X156133399Y-113673072D01*
X154581924Y-112121598D01*
X154578659Y-112118036D01*
X154552455Y-112086806D01*
X154552454Y-112086805D01*
X154552453Y-112086804D01*
X154517164Y-112066430D01*
X154513062Y-112063816D01*
X154479686Y-112040447D01*
X154479318Y-112040275D01*
X154453424Y-112029549D01*
X154453046Y-112029411D01*
X154412922Y-112022336D01*
X154408173Y-112021283D01*
X154368808Y-112010736D01*
X154368807Y-112010736D01*
X154349235Y-112012448D01*
X154328208Y-112014288D01*
X154323347Y-112014500D01*
X153281130Y-112014500D01*
X153215592Y-111993205D01*
X153196864Y-111976017D01*
X153181130Y-111957859D01*
X153181129Y-111957858D01*
X153181128Y-111957857D01*
X153060053Y-111880047D01*
X153060052Y-111880046D01*
X153060051Y-111880046D01*
X153003053Y-111863310D01*
X152921961Y-111839500D01*
X152778039Y-111839500D01*
X152715353Y-111857906D01*
X152639948Y-111880046D01*
X152518869Y-111957859D01*
X152424622Y-112066627D01*
X152364835Y-112197542D01*
X152344353Y-112339998D01*
X152344353Y-112340001D01*
X135000500Y-112340001D01*
X135000500Y-111310002D01*
X145544508Y-111310002D01*
X145564352Y-111435301D01*
X145616855Y-111538342D01*
X145621950Y-111548342D01*
X145711658Y-111638050D01*
X145711660Y-111638051D01*
X145824698Y-111695647D01*
X145824697Y-111695647D01*
X145949998Y-111715492D01*
X145950000Y-111715492D01*
X145950002Y-111715492D01*
X146075301Y-111695647D01*
X146075302Y-111695646D01*
X146075304Y-111695646D01*
X146188342Y-111638050D01*
X146278050Y-111548342D01*
X146335646Y-111435304D01*
X146335646Y-111435302D01*
X146335647Y-111435301D01*
X146355492Y-111310002D01*
X146355492Y-111309997D01*
X146353909Y-111300002D01*
X150474508Y-111300002D01*
X150494352Y-111425301D01*
X150499448Y-111435301D01*
X150551950Y-111538342D01*
X150641658Y-111628050D01*
X150641660Y-111628051D01*
X150754698Y-111685647D01*
X150754697Y-111685647D01*
X150879998Y-111705492D01*
X150880000Y-111705492D01*
X150880002Y-111705492D01*
X151005301Y-111685647D01*
X151005302Y-111685646D01*
X151005304Y-111685646D01*
X151118342Y-111628050D01*
X151208050Y-111538342D01*
X151265646Y-111425304D01*
X151265646Y-111425302D01*
X151265647Y-111425301D01*
X151285492Y-111300002D01*
X151285492Y-111299997D01*
X151265647Y-111174698D01*
X151208051Y-111061660D01*
X151208050Y-111061658D01*
X151118342Y-110971950D01*
X151118340Y-110971949D01*
X151118339Y-110971948D01*
X151005301Y-110914352D01*
X151005302Y-110914352D01*
X150880002Y-110894508D01*
X150879998Y-110894508D01*
X150754698Y-110914352D01*
X150641660Y-110971948D01*
X150641656Y-110971951D01*
X150551951Y-111061656D01*
X150551948Y-111061660D01*
X150494352Y-111174698D01*
X150474508Y-111299997D01*
X150474508Y-111300002D01*
X146353909Y-111300002D01*
X146335647Y-111184698D01*
X146278051Y-111071660D01*
X146278050Y-111071658D01*
X146188342Y-110981950D01*
X146188340Y-110981949D01*
X146188339Y-110981948D01*
X146075301Y-110924352D01*
X146075302Y-110924352D01*
X145950002Y-110904508D01*
X145949998Y-110904508D01*
X145824698Y-110924352D01*
X145711660Y-110981948D01*
X145711656Y-110981951D01*
X145621951Y-111071656D01*
X145621948Y-111071660D01*
X145564352Y-111184698D01*
X145544508Y-111309997D01*
X145544508Y-111310002D01*
X135000500Y-111310002D01*
X135000500Y-105660001D01*
X150384353Y-105660001D01*
X150404835Y-105802457D01*
X150464622Y-105933372D01*
X150464623Y-105933373D01*
X150558872Y-106042143D01*
X150679947Y-106119953D01*
X150818039Y-106160500D01*
X150818041Y-106160500D01*
X150961959Y-106160500D01*
X150961961Y-106160500D01*
X151100053Y-106119953D01*
X151221128Y-106042143D01*
X151315377Y-105933373D01*
X151375165Y-105802457D01*
X151395647Y-105660000D01*
X151375165Y-105517543D01*
X151315377Y-105386627D01*
X151221128Y-105277857D01*
X151100053Y-105200047D01*
X151100052Y-105200046D01*
X151100051Y-105200046D01*
X151043053Y-105183310D01*
X150961961Y-105159500D01*
X150818039Y-105159500D01*
X150755353Y-105177906D01*
X150679948Y-105200046D01*
X150558869Y-105277859D01*
X150464622Y-105386627D01*
X150404835Y-105517542D01*
X150384353Y-105659998D01*
X150384353Y-105660001D01*
X135000500Y-105660001D01*
X135000500Y-100367593D01*
X144849500Y-100367593D01*
X144864989Y-100524855D01*
X144926201Y-100726645D01*
X145025605Y-100912616D01*
X145159379Y-101075621D01*
X145322384Y-101209395D01*
X145508355Y-101308799D01*
X145710145Y-101370011D01*
X145901183Y-101388826D01*
X145919999Y-101390680D01*
X145920000Y-101390680D01*
X145920001Y-101390680D01*
X145937268Y-101388979D01*
X146129855Y-101370011D01*
X146331645Y-101308799D01*
X146517616Y-101209395D01*
X146680621Y-101075621D01*
X146751493Y-100989263D01*
X149929500Y-100989263D01*
X149932354Y-101019701D01*
X149977207Y-101147883D01*
X150017528Y-101202516D01*
X150057850Y-101257150D01*
X150127831Y-101308798D01*
X150167116Y-101337792D01*
X150167117Y-101337792D01*
X150167118Y-101337793D01*
X150295301Y-101382646D01*
X150325734Y-101385500D01*
X150325741Y-101385500D01*
X151674259Y-101385500D01*
X151674266Y-101385500D01*
X151704699Y-101382646D01*
X151832882Y-101337793D01*
X151942150Y-101257150D01*
X152022793Y-101147882D01*
X152067646Y-101019699D01*
X152070500Y-100989266D01*
X152070500Y-99190734D01*
X152067646Y-99160301D01*
X152022793Y-99032118D01*
X151942150Y-98922850D01*
X151872168Y-98871201D01*
X151832883Y-98842207D01*
X151704701Y-98797354D01*
X151692525Y-98796212D01*
X151674266Y-98794500D01*
X150325734Y-98794500D01*
X150313560Y-98795641D01*
X150295298Y-98797354D01*
X150167116Y-98842207D01*
X150057850Y-98922850D01*
X149977207Y-99032116D01*
X149932354Y-99160298D01*
X149929500Y-99190736D01*
X149929500Y-100989263D01*
X146751493Y-100989263D01*
X146814395Y-100912616D01*
X146913799Y-100726645D01*
X146975011Y-100524855D01*
X146990500Y-100367593D01*
X146990500Y-99812407D01*
X146975011Y-99655145D01*
X146913799Y-99453355D01*
X146814395Y-99267384D01*
X146680621Y-99104379D01*
X146517616Y-98970605D01*
X146517613Y-98970603D01*
X146517611Y-98970602D01*
X146428273Y-98922850D01*
X146331645Y-98871201D01*
X146129855Y-98809989D01*
X146001570Y-98797354D01*
X145920001Y-98789320D01*
X145919999Y-98789320D01*
X145710145Y-98809989D01*
X145508355Y-98871201D01*
X145322388Y-98970602D01*
X145322385Y-98970604D01*
X145159379Y-99104379D01*
X145025604Y-99267385D01*
X145025602Y-99267388D01*
X144926201Y-99453355D01*
X144864989Y-99655145D01*
X144849500Y-99812407D01*
X144849500Y-100367593D01*
X135000500Y-100367593D01*
X135000500Y-99057495D01*
X135001197Y-99000678D01*
X135001227Y-98999429D01*
X135003967Y-98925003D01*
X135008488Y-98827213D01*
X135009598Y-98804635D01*
X135009682Y-98803269D01*
X135010119Y-98797354D01*
X135023956Y-98609751D01*
X135024220Y-98607072D01*
X135047898Y-98415094D01*
X135048288Y-98412467D01*
X135081350Y-98221930D01*
X135081882Y-98219255D01*
X135124257Y-98030548D01*
X135124905Y-98027960D01*
X135176494Y-97841544D01*
X135177262Y-97839011D01*
X135237946Y-97655317D01*
X135238840Y-97652819D01*
X135308456Y-97472344D01*
X135309461Y-97469918D01*
X135387847Y-97293081D01*
X135388999Y-97290647D01*
X135475962Y-97117879D01*
X135477238Y-97115494D01*
X135477243Y-97115486D01*
X135572541Y-96947259D01*
X135573920Y-96944958D01*
X135677413Y-96781524D01*
X135678882Y-96779324D01*
X135790262Y-96621176D01*
X135791872Y-96619006D01*
X135910880Y-96466512D01*
X135912540Y-96464490D01*
X136038894Y-96318008D01*
X136040662Y-96316058D01*
X136174046Y-96175960D01*
X136175960Y-96174046D01*
X136316058Y-96040662D01*
X136318008Y-96038894D01*
X136464490Y-95912540D01*
X136466512Y-95910880D01*
X136619006Y-95791872D01*
X136621183Y-95790258D01*
X136779324Y-95678882D01*
X136781524Y-95677413D01*
X136944958Y-95573920D01*
X136947259Y-95572541D01*
X137115497Y-95477235D01*
X137117894Y-95475954D01*
X137290635Y-95389005D01*
X137293050Y-95387862D01*
X137469908Y-95309465D01*
X137472355Y-95308452D01*
X137652791Y-95238851D01*
X137655334Y-95237941D01*
X137839007Y-95177263D01*
X137841548Y-95176493D01*
X138027960Y-95124905D01*
X138030548Y-95124257D01*
X138219267Y-95081879D01*
X138221930Y-95081350D01*
X138412467Y-95048288D01*
X138415094Y-95047898D01*
X138607072Y-95024220D01*
X138609751Y-95023956D01*
X138803366Y-95009675D01*
X138804546Y-95009602D01*
X138827154Y-95008491D01*
X138925007Y-95003967D01*
X138999429Y-95001227D01*
X139000674Y-95001197D01*
X139006429Y-95001126D01*
X139057495Y-95000500D01*
X160942505Y-95000500D01*
X160995001Y-95001144D01*
G37*
%TD.AperFunction*%
%TD*%
M02*
