%TF.GenerationSoftware,KiCad,Pcbnew,7.0.5-0*%
%TF.CreationDate,2024-02-16T15:48:24-04:00*%
%TF.ProjectId,Filtering,46696c74-6572-4696-9e67-2e6b69636164,rev?*%
%TF.SameCoordinates,Original*%
%TF.FileFunction,Soldermask,Bot*%
%TF.FilePolarity,Negative*%
%FSLAX46Y46*%
G04 Gerber Fmt 4.6, Leading zero omitted, Abs format (unit mm)*
G04 Created by KiCad (PCBNEW 7.0.5-0) date 2024-02-16 15:48:24*
%MOMM*%
%LPD*%
G01*
G04 APERTURE LIST*
G04 Aperture macros list*
%AMRoundRect*
0 Rectangle with rounded corners*
0 $1 Rounding radius*
0 $2 $3 $4 $5 $6 $7 $8 $9 X,Y pos of 4 corners*
0 Add a 4 corners polygon primitive as box body*
4,1,4,$2,$3,$4,$5,$6,$7,$8,$9,$2,$3,0*
0 Add four circle primitives for the rounded corners*
1,1,$1+$1,$2,$3*
1,1,$1+$1,$4,$5*
1,1,$1+$1,$6,$7*
1,1,$1+$1,$8,$9*
0 Add four rect primitives between the rounded corners*
20,1,$1+$1,$2,$3,$4,$5,0*
20,1,$1+$1,$4,$5,$6,$7,0*
20,1,$1+$1,$6,$7,$8,$9,0*
20,1,$1+$1,$8,$9,$2,$3,0*%
G04 Aperture macros list end*
%ADD10C,0.200000*%
%ADD11C,4.100000*%
%ADD12C,0.800000*%
%ADD13C,5.400000*%
%ADD14RoundRect,0.250000X0.620000X0.845000X-0.620000X0.845000X-0.620000X-0.845000X0.620000X-0.845000X0*%
%ADD15O,1.740000X2.190000*%
G04 APERTURE END LIST*
D10*
X163000000Y-99000000D02*
X165000000Y-99000000D01*
X165000000Y-121000000D01*
X163000000Y-121000000D01*
X163000000Y-99000000D01*
G36*
X163000000Y-99000000D02*
G01*
X165000000Y-99000000D01*
X165000000Y-121000000D01*
X163000000Y-121000000D01*
X163000000Y-99000000D01*
G37*
D11*
X141050000Y-121000000D02*
G75*
G03*
X141050000Y-121000000I-2050000J0D01*
G01*
X163050000Y-99000000D02*
G75*
G03*
X163050000Y-99000000I-2050000J0D01*
G01*
D10*
X139000000Y-123082800D02*
X161000000Y-123082800D01*
X161000000Y-125000000D01*
X139000000Y-125000000D01*
X139000000Y-123082800D01*
G36*
X139000000Y-123082800D02*
G01*
X161000000Y-123082800D01*
X161000000Y-125000000D01*
X139000000Y-125000000D01*
X139000000Y-123082800D01*
G37*
D11*
X141050000Y-99000000D02*
G75*
G03*
X141050000Y-99000000I-2050000J0D01*
G01*
D10*
X135000000Y-99000000D02*
X137000000Y-99000000D01*
X137000000Y-121000000D01*
X135000000Y-121000000D01*
X135000000Y-99000000D01*
G36*
X135000000Y-99000000D02*
G01*
X137000000Y-99000000D01*
X137000000Y-121000000D01*
X135000000Y-121000000D01*
X135000000Y-99000000D01*
G37*
D11*
X163050000Y-121000000D02*
G75*
G03*
X163050000Y-121000000I-2050000J0D01*
G01*
D12*
%TO.C,MH1*%
X136975000Y-99000000D03*
X137568109Y-97568109D03*
X137568109Y-100431891D03*
X139000000Y-96975000D03*
D13*
X139000000Y-99000000D03*
D12*
X139000000Y-101025000D03*
X140431891Y-97568109D03*
X140431891Y-100431891D03*
X141025000Y-99000000D03*
%TD*%
%TO.C,MH4*%
X158975000Y-121000000D03*
X159568109Y-119568109D03*
X159568109Y-122431891D03*
X161000000Y-118975000D03*
D13*
X161000000Y-121000000D03*
D12*
X161000000Y-123025000D03*
X162431891Y-119568109D03*
X162431891Y-122431891D03*
X163025000Y-121000000D03*
%TD*%
%TO.C,MH3*%
X136975000Y-121000000D03*
X137568109Y-119568109D03*
X137568109Y-122431891D03*
X139000000Y-118975000D03*
D13*
X139000000Y-121000000D03*
D12*
X139000000Y-123025000D03*
X140431891Y-119568109D03*
X140431891Y-122431891D03*
X141025000Y-121000000D03*
%TD*%
%TO.C,MH2*%
X158975000Y-99000000D03*
X159568109Y-97568109D03*
X159568109Y-100431891D03*
X161000000Y-96975000D03*
D13*
X161000000Y-99000000D03*
D12*
X161000000Y-101025000D03*
X162431891Y-97568109D03*
X162431891Y-100431891D03*
X163025000Y-99000000D03*
%TD*%
D14*
%TO.C,J3*%
X152870200Y-98341400D03*
D15*
X150330200Y-98341400D03*
X147790200Y-98341400D03*
%TD*%
M02*
