%TF.GenerationSoftware,KiCad,Pcbnew,7.0.5-0*%
%TF.CreationDate,2024-02-16T15:48:24-04:00*%
%TF.ProjectId,Filtering,46696c74-6572-4696-9e67-2e6b69636164,rev?*%
%TF.SameCoordinates,Original*%
%TF.FileFunction,Legend,Top*%
%TF.FilePolarity,Positive*%
%FSLAX46Y46*%
G04 Gerber Fmt 4.6, Leading zero omitted, Abs format (unit mm)*
G04 Created by KiCad (PCBNEW 7.0.5-0) date 2024-02-16 15:48:24*
%MOMM*%
%LPD*%
G01*
G04 APERTURE LIST*
%ADD10C,0.150000*%
%ADD11C,0.175000*%
%ADD12C,0.120000*%
G04 APERTURE END LIST*
D10*
X144390017Y-120473000D02*
X144423350Y-120439666D01*
X144423350Y-120439666D02*
X144490017Y-120406333D01*
X144490017Y-120406333D02*
X144656684Y-120406333D01*
X144656684Y-120406333D02*
X144723350Y-120439666D01*
X144723350Y-120439666D02*
X144756684Y-120473000D01*
X144756684Y-120473000D02*
X144790017Y-120539666D01*
X144790017Y-120539666D02*
X144790017Y-120606333D01*
X144790017Y-120606333D02*
X144756684Y-120706333D01*
X144756684Y-120706333D02*
X144356684Y-121106333D01*
X144356684Y-121106333D02*
X144790017Y-121106333D01*
X145090017Y-120639666D02*
X145090017Y-121106333D01*
X145090017Y-120706333D02*
X145123351Y-120673000D01*
X145123351Y-120673000D02*
X145190017Y-120639666D01*
X145190017Y-120639666D02*
X145290017Y-120639666D01*
X145290017Y-120639666D02*
X145356684Y-120673000D01*
X145356684Y-120673000D02*
X145390017Y-120739666D01*
X145390017Y-120739666D02*
X145390017Y-121106333D01*
X146023350Y-121106333D02*
X146023350Y-120406333D01*
X146023350Y-121073000D02*
X145956684Y-121106333D01*
X145956684Y-121106333D02*
X145823350Y-121106333D01*
X145823350Y-121106333D02*
X145756684Y-121073000D01*
X145756684Y-121073000D02*
X145723350Y-121039666D01*
X145723350Y-121039666D02*
X145690017Y-120973000D01*
X145690017Y-120973000D02*
X145690017Y-120773000D01*
X145690017Y-120773000D02*
X145723350Y-120706333D01*
X145723350Y-120706333D02*
X145756684Y-120673000D01*
X145756684Y-120673000D02*
X145823350Y-120639666D01*
X145823350Y-120639666D02*
X145956684Y-120639666D01*
X145956684Y-120639666D02*
X146023350Y-120673000D01*
X147023350Y-120406333D02*
X147156683Y-120406333D01*
X147156683Y-120406333D02*
X147223350Y-120439666D01*
X147223350Y-120439666D02*
X147290016Y-120506333D01*
X147290016Y-120506333D02*
X147323350Y-120639666D01*
X147323350Y-120639666D02*
X147323350Y-120873000D01*
X147323350Y-120873000D02*
X147290016Y-121006333D01*
X147290016Y-121006333D02*
X147223350Y-121073000D01*
X147223350Y-121073000D02*
X147156683Y-121106333D01*
X147156683Y-121106333D02*
X147023350Y-121106333D01*
X147023350Y-121106333D02*
X146956683Y-121073000D01*
X146956683Y-121073000D02*
X146890016Y-121006333D01*
X146890016Y-121006333D02*
X146856683Y-120873000D01*
X146856683Y-120873000D02*
X146856683Y-120639666D01*
X146856683Y-120639666D02*
X146890016Y-120506333D01*
X146890016Y-120506333D02*
X146956683Y-120439666D01*
X146956683Y-120439666D02*
X147023350Y-120406333D01*
X147623349Y-121106333D02*
X147623349Y-120639666D01*
X147623349Y-120773000D02*
X147656683Y-120706333D01*
X147656683Y-120706333D02*
X147690016Y-120673000D01*
X147690016Y-120673000D02*
X147756683Y-120639666D01*
X147756683Y-120639666D02*
X147823349Y-120639666D01*
X148356682Y-121106333D02*
X148356682Y-120406333D01*
X148356682Y-121073000D02*
X148290016Y-121106333D01*
X148290016Y-121106333D02*
X148156682Y-121106333D01*
X148156682Y-121106333D02*
X148090016Y-121073000D01*
X148090016Y-121073000D02*
X148056682Y-121039666D01*
X148056682Y-121039666D02*
X148023349Y-120973000D01*
X148023349Y-120973000D02*
X148023349Y-120773000D01*
X148023349Y-120773000D02*
X148056682Y-120706333D01*
X148056682Y-120706333D02*
X148090016Y-120673000D01*
X148090016Y-120673000D02*
X148156682Y-120639666D01*
X148156682Y-120639666D02*
X148290016Y-120639666D01*
X148290016Y-120639666D02*
X148356682Y-120673000D01*
X148956682Y-121073000D02*
X148890015Y-121106333D01*
X148890015Y-121106333D02*
X148756682Y-121106333D01*
X148756682Y-121106333D02*
X148690015Y-121073000D01*
X148690015Y-121073000D02*
X148656682Y-121006333D01*
X148656682Y-121006333D02*
X148656682Y-120739666D01*
X148656682Y-120739666D02*
X148690015Y-120673000D01*
X148690015Y-120673000D02*
X148756682Y-120639666D01*
X148756682Y-120639666D02*
X148890015Y-120639666D01*
X148890015Y-120639666D02*
X148956682Y-120673000D01*
X148956682Y-120673000D02*
X148990015Y-120739666D01*
X148990015Y-120739666D02*
X148990015Y-120806333D01*
X148990015Y-120806333D02*
X148656682Y-120873000D01*
X149290015Y-121106333D02*
X149290015Y-120639666D01*
X149290015Y-120773000D02*
X149323349Y-120706333D01*
X149323349Y-120706333D02*
X149356682Y-120673000D01*
X149356682Y-120673000D02*
X149423349Y-120639666D01*
X149423349Y-120639666D02*
X149490015Y-120639666D01*
X150223348Y-120906333D02*
X150556681Y-120906333D01*
X150156681Y-121106333D02*
X150390015Y-120406333D01*
X150390015Y-120406333D02*
X150623348Y-121106333D01*
X151156681Y-121073000D02*
X151090015Y-121106333D01*
X151090015Y-121106333D02*
X150956681Y-121106333D01*
X150956681Y-121106333D02*
X150890015Y-121073000D01*
X150890015Y-121073000D02*
X150856681Y-121039666D01*
X150856681Y-121039666D02*
X150823348Y-120973000D01*
X150823348Y-120973000D02*
X150823348Y-120773000D01*
X150823348Y-120773000D02*
X150856681Y-120706333D01*
X150856681Y-120706333D02*
X150890015Y-120673000D01*
X150890015Y-120673000D02*
X150956681Y-120639666D01*
X150956681Y-120639666D02*
X151090015Y-120639666D01*
X151090015Y-120639666D02*
X151156681Y-120673000D01*
X151356681Y-120639666D02*
X151623348Y-120639666D01*
X151456681Y-120406333D02*
X151456681Y-121006333D01*
X151456681Y-121006333D02*
X151490015Y-121073000D01*
X151490015Y-121073000D02*
X151556681Y-121106333D01*
X151556681Y-121106333D02*
X151623348Y-121106333D01*
X151856681Y-121106333D02*
X151856681Y-120639666D01*
X151856681Y-120406333D02*
X151823348Y-120439666D01*
X151823348Y-120439666D02*
X151856681Y-120473000D01*
X151856681Y-120473000D02*
X151890015Y-120439666D01*
X151890015Y-120439666D02*
X151856681Y-120406333D01*
X151856681Y-120406333D02*
X151856681Y-120473000D01*
X152123348Y-120639666D02*
X152290014Y-121106333D01*
X152290014Y-121106333D02*
X152456681Y-120639666D01*
X152990014Y-121073000D02*
X152923347Y-121106333D01*
X152923347Y-121106333D02*
X152790014Y-121106333D01*
X152790014Y-121106333D02*
X152723347Y-121073000D01*
X152723347Y-121073000D02*
X152690014Y-121006333D01*
X152690014Y-121006333D02*
X152690014Y-120739666D01*
X152690014Y-120739666D02*
X152723347Y-120673000D01*
X152723347Y-120673000D02*
X152790014Y-120639666D01*
X152790014Y-120639666D02*
X152923347Y-120639666D01*
X152923347Y-120639666D02*
X152990014Y-120673000D01*
X152990014Y-120673000D02*
X153023347Y-120739666D01*
X153023347Y-120739666D02*
X153023347Y-120806333D01*
X153023347Y-120806333D02*
X152690014Y-120873000D01*
X154090014Y-120739666D02*
X153856680Y-120739666D01*
X153856680Y-121106333D02*
X153856680Y-120406333D01*
X153856680Y-120406333D02*
X154190014Y-120406333D01*
X154456680Y-121106333D02*
X154456680Y-120639666D01*
X154456680Y-120406333D02*
X154423347Y-120439666D01*
X154423347Y-120439666D02*
X154456680Y-120473000D01*
X154456680Y-120473000D02*
X154490014Y-120439666D01*
X154490014Y-120439666D02*
X154456680Y-120406333D01*
X154456680Y-120406333D02*
X154456680Y-120473000D01*
X154890013Y-121106333D02*
X154823347Y-121073000D01*
X154823347Y-121073000D02*
X154790013Y-121006333D01*
X154790013Y-121006333D02*
X154790013Y-120406333D01*
X155056680Y-120639666D02*
X155323347Y-120639666D01*
X155156680Y-120406333D02*
X155156680Y-121006333D01*
X155156680Y-121006333D02*
X155190014Y-121073000D01*
X155190014Y-121073000D02*
X155256680Y-121106333D01*
X155256680Y-121106333D02*
X155323347Y-121106333D01*
X155823347Y-121073000D02*
X155756680Y-121106333D01*
X155756680Y-121106333D02*
X155623347Y-121106333D01*
X155623347Y-121106333D02*
X155556680Y-121073000D01*
X155556680Y-121073000D02*
X155523347Y-121006333D01*
X155523347Y-121006333D02*
X155523347Y-120739666D01*
X155523347Y-120739666D02*
X155556680Y-120673000D01*
X155556680Y-120673000D02*
X155623347Y-120639666D01*
X155623347Y-120639666D02*
X155756680Y-120639666D01*
X155756680Y-120639666D02*
X155823347Y-120673000D01*
X155823347Y-120673000D02*
X155856680Y-120739666D01*
X155856680Y-120739666D02*
X155856680Y-120806333D01*
X155856680Y-120806333D02*
X155523347Y-120873000D01*
X156156680Y-121106333D02*
X156156680Y-120639666D01*
X156156680Y-120773000D02*
X156190014Y-120706333D01*
X156190014Y-120706333D02*
X156223347Y-120673000D01*
X156223347Y-120673000D02*
X156290014Y-120639666D01*
X156290014Y-120639666D02*
X156356680Y-120639666D01*
X144423350Y-122233333D02*
X144423350Y-121533333D01*
X144823350Y-122233333D02*
X144523350Y-121833333D01*
X144823350Y-121533333D02*
X144423350Y-121933333D01*
X145123350Y-122166666D02*
X145156684Y-122200000D01*
X145156684Y-122200000D02*
X145123350Y-122233333D01*
X145123350Y-122233333D02*
X145090017Y-122200000D01*
X145090017Y-122200000D02*
X145123350Y-122166666D01*
X145123350Y-122166666D02*
X145123350Y-122233333D01*
X145423350Y-122200000D02*
X145523350Y-122233333D01*
X145523350Y-122233333D02*
X145690017Y-122233333D01*
X145690017Y-122233333D02*
X145756683Y-122200000D01*
X145756683Y-122200000D02*
X145790017Y-122166666D01*
X145790017Y-122166666D02*
X145823350Y-122100000D01*
X145823350Y-122100000D02*
X145823350Y-122033333D01*
X145823350Y-122033333D02*
X145790017Y-121966666D01*
X145790017Y-121966666D02*
X145756683Y-121933333D01*
X145756683Y-121933333D02*
X145690017Y-121900000D01*
X145690017Y-121900000D02*
X145556683Y-121866666D01*
X145556683Y-121866666D02*
X145490017Y-121833333D01*
X145490017Y-121833333D02*
X145456683Y-121800000D01*
X145456683Y-121800000D02*
X145423350Y-121733333D01*
X145423350Y-121733333D02*
X145423350Y-121666666D01*
X145423350Y-121666666D02*
X145456683Y-121600000D01*
X145456683Y-121600000D02*
X145490017Y-121566666D01*
X145490017Y-121566666D02*
X145556683Y-121533333D01*
X145556683Y-121533333D02*
X145723350Y-121533333D01*
X145723350Y-121533333D02*
X145823350Y-121566666D01*
X146123350Y-122233333D02*
X146123350Y-121533333D01*
X146423350Y-122233333D02*
X146423350Y-121866666D01*
X146423350Y-121866666D02*
X146390017Y-121800000D01*
X146390017Y-121800000D02*
X146323350Y-121766666D01*
X146323350Y-121766666D02*
X146223350Y-121766666D01*
X146223350Y-121766666D02*
X146156684Y-121800000D01*
X146156684Y-121800000D02*
X146123350Y-121833333D01*
X147056683Y-122233333D02*
X147056683Y-121866666D01*
X147056683Y-121866666D02*
X147023350Y-121800000D01*
X147023350Y-121800000D02*
X146956683Y-121766666D01*
X146956683Y-121766666D02*
X146823350Y-121766666D01*
X146823350Y-121766666D02*
X146756683Y-121800000D01*
X147056683Y-122200000D02*
X146990017Y-122233333D01*
X146990017Y-122233333D02*
X146823350Y-122233333D01*
X146823350Y-122233333D02*
X146756683Y-122200000D01*
X146756683Y-122200000D02*
X146723350Y-122133333D01*
X146723350Y-122133333D02*
X146723350Y-122066666D01*
X146723350Y-122066666D02*
X146756683Y-122000000D01*
X146756683Y-122000000D02*
X146823350Y-121966666D01*
X146823350Y-121966666D02*
X146990017Y-121966666D01*
X146990017Y-121966666D02*
X147056683Y-121933333D01*
X147490016Y-122233333D02*
X147423350Y-122200000D01*
X147423350Y-122200000D02*
X147390016Y-122133333D01*
X147390016Y-122133333D02*
X147390016Y-121533333D01*
X148056683Y-122233333D02*
X148056683Y-121866666D01*
X148056683Y-121866666D02*
X148023350Y-121800000D01*
X148023350Y-121800000D02*
X147956683Y-121766666D01*
X147956683Y-121766666D02*
X147823350Y-121766666D01*
X147823350Y-121766666D02*
X147756683Y-121800000D01*
X148056683Y-122200000D02*
X147990017Y-122233333D01*
X147990017Y-122233333D02*
X147823350Y-122233333D01*
X147823350Y-122233333D02*
X147756683Y-122200000D01*
X147756683Y-122200000D02*
X147723350Y-122133333D01*
X147723350Y-122133333D02*
X147723350Y-122066666D01*
X147723350Y-122066666D02*
X147756683Y-122000000D01*
X147756683Y-122000000D02*
X147823350Y-121966666D01*
X147823350Y-121966666D02*
X147990017Y-121966666D01*
X147990017Y-121966666D02*
X148056683Y-121933333D01*
X148390016Y-122233333D02*
X148390016Y-121533333D01*
X148390016Y-121800000D02*
X148456683Y-121766666D01*
X148456683Y-121766666D02*
X148590016Y-121766666D01*
X148590016Y-121766666D02*
X148656683Y-121800000D01*
X148656683Y-121800000D02*
X148690016Y-121833333D01*
X148690016Y-121833333D02*
X148723350Y-121900000D01*
X148723350Y-121900000D02*
X148723350Y-122100000D01*
X148723350Y-122100000D02*
X148690016Y-122166666D01*
X148690016Y-122166666D02*
X148656683Y-122200000D01*
X148656683Y-122200000D02*
X148590016Y-122233333D01*
X148590016Y-122233333D02*
X148456683Y-122233333D01*
X148456683Y-122233333D02*
X148390016Y-122200000D01*
X148956683Y-121766666D02*
X149123349Y-122233333D01*
X149290016Y-121766666D02*
X149123349Y-122233333D01*
X149123349Y-122233333D02*
X149056683Y-122400000D01*
X149056683Y-122400000D02*
X149023349Y-122433333D01*
X149023349Y-122433333D02*
X148956683Y-122466666D01*
X150223349Y-121533333D02*
X150290015Y-121533333D01*
X150290015Y-121533333D02*
X150356682Y-121566666D01*
X150356682Y-121566666D02*
X150390015Y-121600000D01*
X150390015Y-121600000D02*
X150423349Y-121666666D01*
X150423349Y-121666666D02*
X150456682Y-121800000D01*
X150456682Y-121800000D02*
X150456682Y-121966666D01*
X150456682Y-121966666D02*
X150423349Y-122100000D01*
X150423349Y-122100000D02*
X150390015Y-122166666D01*
X150390015Y-122166666D02*
X150356682Y-122200000D01*
X150356682Y-122200000D02*
X150290015Y-122233333D01*
X150290015Y-122233333D02*
X150223349Y-122233333D01*
X150223349Y-122233333D02*
X150156682Y-122200000D01*
X150156682Y-122200000D02*
X150123349Y-122166666D01*
X150123349Y-122166666D02*
X150090015Y-122100000D01*
X150090015Y-122100000D02*
X150056682Y-121966666D01*
X150056682Y-121966666D02*
X150056682Y-121800000D01*
X150056682Y-121800000D02*
X150090015Y-121666666D01*
X150090015Y-121666666D02*
X150123349Y-121600000D01*
X150123349Y-121600000D02*
X150156682Y-121566666D01*
X150156682Y-121566666D02*
X150223349Y-121533333D01*
X151123349Y-122233333D02*
X150723349Y-122233333D01*
X150923349Y-122233333D02*
X150923349Y-121533333D01*
X150923349Y-121533333D02*
X150856682Y-121633333D01*
X150856682Y-121633333D02*
X150790016Y-121700000D01*
X150790016Y-121700000D02*
X150723349Y-121733333D01*
X151923349Y-121500000D02*
X151323349Y-122400000D01*
X152123349Y-121600000D02*
X152156682Y-121566666D01*
X152156682Y-121566666D02*
X152223349Y-121533333D01*
X152223349Y-121533333D02*
X152390016Y-121533333D01*
X152390016Y-121533333D02*
X152456682Y-121566666D01*
X152456682Y-121566666D02*
X152490016Y-121600000D01*
X152490016Y-121600000D02*
X152523349Y-121666666D01*
X152523349Y-121666666D02*
X152523349Y-121733333D01*
X152523349Y-121733333D02*
X152490016Y-121833333D01*
X152490016Y-121833333D02*
X152090016Y-122233333D01*
X152090016Y-122233333D02*
X152523349Y-122233333D01*
X152956683Y-121533333D02*
X153023349Y-121533333D01*
X153023349Y-121533333D02*
X153090016Y-121566666D01*
X153090016Y-121566666D02*
X153123349Y-121600000D01*
X153123349Y-121600000D02*
X153156683Y-121666666D01*
X153156683Y-121666666D02*
X153190016Y-121800000D01*
X153190016Y-121800000D02*
X153190016Y-121966666D01*
X153190016Y-121966666D02*
X153156683Y-122100000D01*
X153156683Y-122100000D02*
X153123349Y-122166666D01*
X153123349Y-122166666D02*
X153090016Y-122200000D01*
X153090016Y-122200000D02*
X153023349Y-122233333D01*
X153023349Y-122233333D02*
X152956683Y-122233333D01*
X152956683Y-122233333D02*
X152890016Y-122200000D01*
X152890016Y-122200000D02*
X152856683Y-122166666D01*
X152856683Y-122166666D02*
X152823349Y-122100000D01*
X152823349Y-122100000D02*
X152790016Y-121966666D01*
X152790016Y-121966666D02*
X152790016Y-121800000D01*
X152790016Y-121800000D02*
X152823349Y-121666666D01*
X152823349Y-121666666D02*
X152856683Y-121600000D01*
X152856683Y-121600000D02*
X152890016Y-121566666D01*
X152890016Y-121566666D02*
X152956683Y-121533333D01*
X153456683Y-121600000D02*
X153490016Y-121566666D01*
X153490016Y-121566666D02*
X153556683Y-121533333D01*
X153556683Y-121533333D02*
X153723350Y-121533333D01*
X153723350Y-121533333D02*
X153790016Y-121566666D01*
X153790016Y-121566666D02*
X153823350Y-121600000D01*
X153823350Y-121600000D02*
X153856683Y-121666666D01*
X153856683Y-121666666D02*
X153856683Y-121733333D01*
X153856683Y-121733333D02*
X153823350Y-121833333D01*
X153823350Y-121833333D02*
X153423350Y-122233333D01*
X153423350Y-122233333D02*
X153856683Y-122233333D01*
X154456683Y-121766666D02*
X154456683Y-122233333D01*
X154290017Y-121500000D02*
X154123350Y-122000000D01*
X154123350Y-122000000D02*
X154556683Y-122000000D01*
D11*
X146231797Y-102058566D02*
X146765131Y-102058566D01*
X147465131Y-102325233D02*
X147065131Y-102325233D01*
X147265131Y-102325233D02*
X147265131Y-101625233D01*
X147265131Y-101625233D02*
X147198464Y-101725233D01*
X147198464Y-101725233D02*
X147131798Y-101791900D01*
X147131798Y-101791900D02*
X147065131Y-101825233D01*
X148098465Y-101625233D02*
X147765131Y-101625233D01*
X147765131Y-101625233D02*
X147731798Y-101958566D01*
X147731798Y-101958566D02*
X147765131Y-101925233D01*
X147765131Y-101925233D02*
X147831798Y-101891900D01*
X147831798Y-101891900D02*
X147998465Y-101891900D01*
X147998465Y-101891900D02*
X148065131Y-101925233D01*
X148065131Y-101925233D02*
X148098465Y-101958566D01*
X148098465Y-101958566D02*
X148131798Y-102025233D01*
X148131798Y-102025233D02*
X148131798Y-102191900D01*
X148131798Y-102191900D02*
X148098465Y-102258566D01*
X148098465Y-102258566D02*
X148065131Y-102291900D01*
X148065131Y-102291900D02*
X147998465Y-102325233D01*
X147998465Y-102325233D02*
X147831798Y-102325233D01*
X147831798Y-102325233D02*
X147765131Y-102291900D01*
X147765131Y-102291900D02*
X147731798Y-102258566D01*
X148331798Y-101625233D02*
X148565132Y-102325233D01*
X148565132Y-102325233D02*
X148798465Y-101625233D01*
X151601797Y-102078566D02*
X152135131Y-102078566D01*
X151868464Y-102345233D02*
X151868464Y-101811900D01*
X152835131Y-102345233D02*
X152435131Y-102345233D01*
X152635131Y-102345233D02*
X152635131Y-101645233D01*
X152635131Y-101645233D02*
X152568464Y-101745233D01*
X152568464Y-101745233D02*
X152501798Y-101811900D01*
X152501798Y-101811900D02*
X152435131Y-101845233D01*
X153468465Y-101645233D02*
X153135131Y-101645233D01*
X153135131Y-101645233D02*
X153101798Y-101978566D01*
X153101798Y-101978566D02*
X153135131Y-101945233D01*
X153135131Y-101945233D02*
X153201798Y-101911900D01*
X153201798Y-101911900D02*
X153368465Y-101911900D01*
X153368465Y-101911900D02*
X153435131Y-101945233D01*
X153435131Y-101945233D02*
X153468465Y-101978566D01*
X153468465Y-101978566D02*
X153501798Y-102045233D01*
X153501798Y-102045233D02*
X153501798Y-102211900D01*
X153501798Y-102211900D02*
X153468465Y-102278566D01*
X153468465Y-102278566D02*
X153435131Y-102311900D01*
X153435131Y-102311900D02*
X153368465Y-102345233D01*
X153368465Y-102345233D02*
X153201798Y-102345233D01*
X153201798Y-102345233D02*
X153135131Y-102311900D01*
X153135131Y-102311900D02*
X153101798Y-102278566D01*
X153701798Y-101645233D02*
X153935132Y-102345233D01*
X153935132Y-102345233D02*
X154168465Y-101645233D01*
D10*
%TO.C,J2*%
X161399866Y-115686633D02*
X161399866Y-116186633D01*
X161399866Y-116186633D02*
X161366533Y-116286633D01*
X161366533Y-116286633D02*
X161299866Y-116353300D01*
X161299866Y-116353300D02*
X161199866Y-116386633D01*
X161199866Y-116386633D02*
X161133200Y-116386633D01*
X161699866Y-115753300D02*
X161733199Y-115719966D01*
X161733199Y-115719966D02*
X161799866Y-115686633D01*
X161799866Y-115686633D02*
X161966533Y-115686633D01*
X161966533Y-115686633D02*
X162033199Y-115719966D01*
X162033199Y-115719966D02*
X162066533Y-115753300D01*
X162066533Y-115753300D02*
X162099866Y-115819966D01*
X162099866Y-115819966D02*
X162099866Y-115886633D01*
X162099866Y-115886633D02*
X162066533Y-115986633D01*
X162066533Y-115986633D02*
X161666533Y-116386633D01*
X161666533Y-116386633D02*
X162099866Y-116386633D01*
%TO.C,J1*%
X138133466Y-103545433D02*
X138133466Y-104045433D01*
X138133466Y-104045433D02*
X138100133Y-104145433D01*
X138100133Y-104145433D02*
X138033466Y-104212100D01*
X138033466Y-104212100D02*
X137933466Y-104245433D01*
X137933466Y-104245433D02*
X137866800Y-104245433D01*
X138833466Y-104245433D02*
X138433466Y-104245433D01*
X138633466Y-104245433D02*
X138633466Y-103545433D01*
X138633466Y-103545433D02*
X138566799Y-103645433D01*
X138566799Y-103645433D02*
X138500133Y-103712100D01*
X138500133Y-103712100D02*
X138433466Y-103745433D01*
%TO.C,R2*%
X145008433Y-111763833D02*
X144775100Y-111430500D01*
X144608433Y-111763833D02*
X144608433Y-111063833D01*
X144608433Y-111063833D02*
X144875100Y-111063833D01*
X144875100Y-111063833D02*
X144941767Y-111097166D01*
X144941767Y-111097166D02*
X144975100Y-111130500D01*
X144975100Y-111130500D02*
X145008433Y-111197166D01*
X145008433Y-111197166D02*
X145008433Y-111297166D01*
X145008433Y-111297166D02*
X144975100Y-111363833D01*
X144975100Y-111363833D02*
X144941767Y-111397166D01*
X144941767Y-111397166D02*
X144875100Y-111430500D01*
X144875100Y-111430500D02*
X144608433Y-111430500D01*
X145275100Y-111130500D02*
X145308433Y-111097166D01*
X145308433Y-111097166D02*
X145375100Y-111063833D01*
X145375100Y-111063833D02*
X145541767Y-111063833D01*
X145541767Y-111063833D02*
X145608433Y-111097166D01*
X145608433Y-111097166D02*
X145641767Y-111130500D01*
X145641767Y-111130500D02*
X145675100Y-111197166D01*
X145675100Y-111197166D02*
X145675100Y-111263833D01*
X145675100Y-111263833D02*
X145641767Y-111363833D01*
X145641767Y-111363833D02*
X145241767Y-111763833D01*
X145241767Y-111763833D02*
X145675100Y-111763833D01*
%TO.C,C8*%
X148079933Y-117996366D02*
X148046600Y-118029700D01*
X148046600Y-118029700D02*
X147946600Y-118063033D01*
X147946600Y-118063033D02*
X147879933Y-118063033D01*
X147879933Y-118063033D02*
X147779933Y-118029700D01*
X147779933Y-118029700D02*
X147713267Y-117963033D01*
X147713267Y-117963033D02*
X147679933Y-117896366D01*
X147679933Y-117896366D02*
X147646600Y-117763033D01*
X147646600Y-117763033D02*
X147646600Y-117663033D01*
X147646600Y-117663033D02*
X147679933Y-117529700D01*
X147679933Y-117529700D02*
X147713267Y-117463033D01*
X147713267Y-117463033D02*
X147779933Y-117396366D01*
X147779933Y-117396366D02*
X147879933Y-117363033D01*
X147879933Y-117363033D02*
X147946600Y-117363033D01*
X147946600Y-117363033D02*
X148046600Y-117396366D01*
X148046600Y-117396366D02*
X148079933Y-117429700D01*
X148479933Y-117663033D02*
X148413267Y-117629700D01*
X148413267Y-117629700D02*
X148379933Y-117596366D01*
X148379933Y-117596366D02*
X148346600Y-117529700D01*
X148346600Y-117529700D02*
X148346600Y-117496366D01*
X148346600Y-117496366D02*
X148379933Y-117429700D01*
X148379933Y-117429700D02*
X148413267Y-117396366D01*
X148413267Y-117396366D02*
X148479933Y-117363033D01*
X148479933Y-117363033D02*
X148613267Y-117363033D01*
X148613267Y-117363033D02*
X148679933Y-117396366D01*
X148679933Y-117396366D02*
X148713267Y-117429700D01*
X148713267Y-117429700D02*
X148746600Y-117496366D01*
X148746600Y-117496366D02*
X148746600Y-117529700D01*
X148746600Y-117529700D02*
X148713267Y-117596366D01*
X148713267Y-117596366D02*
X148679933Y-117629700D01*
X148679933Y-117629700D02*
X148613267Y-117663033D01*
X148613267Y-117663033D02*
X148479933Y-117663033D01*
X148479933Y-117663033D02*
X148413267Y-117696366D01*
X148413267Y-117696366D02*
X148379933Y-117729700D01*
X148379933Y-117729700D02*
X148346600Y-117796366D01*
X148346600Y-117796366D02*
X148346600Y-117929700D01*
X148346600Y-117929700D02*
X148379933Y-117996366D01*
X148379933Y-117996366D02*
X148413267Y-118029700D01*
X148413267Y-118029700D02*
X148479933Y-118063033D01*
X148479933Y-118063033D02*
X148613267Y-118063033D01*
X148613267Y-118063033D02*
X148679933Y-118029700D01*
X148679933Y-118029700D02*
X148713267Y-117996366D01*
X148713267Y-117996366D02*
X148746600Y-117929700D01*
X148746600Y-117929700D02*
X148746600Y-117796366D01*
X148746600Y-117796366D02*
X148713267Y-117729700D01*
X148713267Y-117729700D02*
X148679933Y-117696366D01*
X148679933Y-117696366D02*
X148613267Y-117663033D01*
%TO.C,C2*%
X144269933Y-107099766D02*
X144236600Y-107133100D01*
X144236600Y-107133100D02*
X144136600Y-107166433D01*
X144136600Y-107166433D02*
X144069933Y-107166433D01*
X144069933Y-107166433D02*
X143969933Y-107133100D01*
X143969933Y-107133100D02*
X143903267Y-107066433D01*
X143903267Y-107066433D02*
X143869933Y-106999766D01*
X143869933Y-106999766D02*
X143836600Y-106866433D01*
X143836600Y-106866433D02*
X143836600Y-106766433D01*
X143836600Y-106766433D02*
X143869933Y-106633100D01*
X143869933Y-106633100D02*
X143903267Y-106566433D01*
X143903267Y-106566433D02*
X143969933Y-106499766D01*
X143969933Y-106499766D02*
X144069933Y-106466433D01*
X144069933Y-106466433D02*
X144136600Y-106466433D01*
X144136600Y-106466433D02*
X144236600Y-106499766D01*
X144236600Y-106499766D02*
X144269933Y-106533100D01*
X144536600Y-106533100D02*
X144569933Y-106499766D01*
X144569933Y-106499766D02*
X144636600Y-106466433D01*
X144636600Y-106466433D02*
X144803267Y-106466433D01*
X144803267Y-106466433D02*
X144869933Y-106499766D01*
X144869933Y-106499766D02*
X144903267Y-106533100D01*
X144903267Y-106533100D02*
X144936600Y-106599766D01*
X144936600Y-106599766D02*
X144936600Y-106666433D01*
X144936600Y-106666433D02*
X144903267Y-106766433D01*
X144903267Y-106766433D02*
X144503267Y-107166433D01*
X144503267Y-107166433D02*
X144936600Y-107166433D01*
%TO.C,C1*%
X147368733Y-113297366D02*
X147335400Y-113330700D01*
X147335400Y-113330700D02*
X147235400Y-113364033D01*
X147235400Y-113364033D02*
X147168733Y-113364033D01*
X147168733Y-113364033D02*
X147068733Y-113330700D01*
X147068733Y-113330700D02*
X147002067Y-113264033D01*
X147002067Y-113264033D02*
X146968733Y-113197366D01*
X146968733Y-113197366D02*
X146935400Y-113064033D01*
X146935400Y-113064033D02*
X146935400Y-112964033D01*
X146935400Y-112964033D02*
X146968733Y-112830700D01*
X146968733Y-112830700D02*
X147002067Y-112764033D01*
X147002067Y-112764033D02*
X147068733Y-112697366D01*
X147068733Y-112697366D02*
X147168733Y-112664033D01*
X147168733Y-112664033D02*
X147235400Y-112664033D01*
X147235400Y-112664033D02*
X147335400Y-112697366D01*
X147335400Y-112697366D02*
X147368733Y-112730700D01*
X148035400Y-113364033D02*
X147635400Y-113364033D01*
X147835400Y-113364033D02*
X147835400Y-112664033D01*
X147835400Y-112664033D02*
X147768733Y-112764033D01*
X147768733Y-112764033D02*
X147702067Y-112830700D01*
X147702067Y-112830700D02*
X147635400Y-112864033D01*
%TO.C,C7*%
X152814766Y-112936066D02*
X152848100Y-112969399D01*
X152848100Y-112969399D02*
X152881433Y-113069399D01*
X152881433Y-113069399D02*
X152881433Y-113136066D01*
X152881433Y-113136066D02*
X152848100Y-113236066D01*
X152848100Y-113236066D02*
X152781433Y-113302733D01*
X152781433Y-113302733D02*
X152714766Y-113336066D01*
X152714766Y-113336066D02*
X152581433Y-113369399D01*
X152581433Y-113369399D02*
X152481433Y-113369399D01*
X152481433Y-113369399D02*
X152348100Y-113336066D01*
X152348100Y-113336066D02*
X152281433Y-113302733D01*
X152281433Y-113302733D02*
X152214766Y-113236066D01*
X152214766Y-113236066D02*
X152181433Y-113136066D01*
X152181433Y-113136066D02*
X152181433Y-113069399D01*
X152181433Y-113069399D02*
X152214766Y-112969399D01*
X152214766Y-112969399D02*
X152248100Y-112936066D01*
X152181433Y-112702733D02*
X152181433Y-112236066D01*
X152181433Y-112236066D02*
X152881433Y-112536066D01*
%TO.C,FB1*%
X158128867Y-103878766D02*
X157895533Y-103878766D01*
X157895533Y-104245433D02*
X157895533Y-103545433D01*
X157895533Y-103545433D02*
X158228867Y-103545433D01*
X158728867Y-103878766D02*
X158828867Y-103912100D01*
X158828867Y-103912100D02*
X158862200Y-103945433D01*
X158862200Y-103945433D02*
X158895533Y-104012100D01*
X158895533Y-104012100D02*
X158895533Y-104112100D01*
X158895533Y-104112100D02*
X158862200Y-104178766D01*
X158862200Y-104178766D02*
X158828867Y-104212100D01*
X158828867Y-104212100D02*
X158762200Y-104245433D01*
X158762200Y-104245433D02*
X158495533Y-104245433D01*
X158495533Y-104245433D02*
X158495533Y-103545433D01*
X158495533Y-103545433D02*
X158728867Y-103545433D01*
X158728867Y-103545433D02*
X158795533Y-103578766D01*
X158795533Y-103578766D02*
X158828867Y-103612100D01*
X158828867Y-103612100D02*
X158862200Y-103678766D01*
X158862200Y-103678766D02*
X158862200Y-103745433D01*
X158862200Y-103745433D02*
X158828867Y-103812100D01*
X158828867Y-103812100D02*
X158795533Y-103845433D01*
X158795533Y-103845433D02*
X158728867Y-103878766D01*
X158728867Y-103878766D02*
X158495533Y-103878766D01*
X159562200Y-104245433D02*
X159162200Y-104245433D01*
X159362200Y-104245433D02*
X159362200Y-103545433D01*
X159362200Y-103545433D02*
X159295533Y-103645433D01*
X159295533Y-103645433D02*
X159228867Y-103712100D01*
X159228867Y-103712100D02*
X159162200Y-103745433D01*
%TO.C,R3*%
X156690533Y-114862633D02*
X156457200Y-114529300D01*
X156290533Y-114862633D02*
X156290533Y-114162633D01*
X156290533Y-114162633D02*
X156557200Y-114162633D01*
X156557200Y-114162633D02*
X156623867Y-114195966D01*
X156623867Y-114195966D02*
X156657200Y-114229300D01*
X156657200Y-114229300D02*
X156690533Y-114295966D01*
X156690533Y-114295966D02*
X156690533Y-114395966D01*
X156690533Y-114395966D02*
X156657200Y-114462633D01*
X156657200Y-114462633D02*
X156623867Y-114495966D01*
X156623867Y-114495966D02*
X156557200Y-114529300D01*
X156557200Y-114529300D02*
X156290533Y-114529300D01*
X156923867Y-114162633D02*
X157357200Y-114162633D01*
X157357200Y-114162633D02*
X157123867Y-114429300D01*
X157123867Y-114429300D02*
X157223867Y-114429300D01*
X157223867Y-114429300D02*
X157290533Y-114462633D01*
X157290533Y-114462633D02*
X157323867Y-114495966D01*
X157323867Y-114495966D02*
X157357200Y-114562633D01*
X157357200Y-114562633D02*
X157357200Y-114729300D01*
X157357200Y-114729300D02*
X157323867Y-114795966D01*
X157323867Y-114795966D02*
X157290533Y-114829300D01*
X157290533Y-114829300D02*
X157223867Y-114862633D01*
X157223867Y-114862633D02*
X157023867Y-114862633D01*
X157023867Y-114862633D02*
X156957200Y-114829300D01*
X156957200Y-114829300D02*
X156923867Y-114795966D01*
%TO.C,C6*%
X143039966Y-99511766D02*
X143073300Y-99545099D01*
X143073300Y-99545099D02*
X143106633Y-99645099D01*
X143106633Y-99645099D02*
X143106633Y-99711766D01*
X143106633Y-99711766D02*
X143073300Y-99811766D01*
X143073300Y-99811766D02*
X143006633Y-99878433D01*
X143006633Y-99878433D02*
X142939966Y-99911766D01*
X142939966Y-99911766D02*
X142806633Y-99945099D01*
X142806633Y-99945099D02*
X142706633Y-99945099D01*
X142706633Y-99945099D02*
X142573300Y-99911766D01*
X142573300Y-99911766D02*
X142506633Y-99878433D01*
X142506633Y-99878433D02*
X142439966Y-99811766D01*
X142439966Y-99811766D02*
X142406633Y-99711766D01*
X142406633Y-99711766D02*
X142406633Y-99645099D01*
X142406633Y-99645099D02*
X142439966Y-99545099D01*
X142439966Y-99545099D02*
X142473300Y-99511766D01*
X142406633Y-98911766D02*
X142406633Y-99045099D01*
X142406633Y-99045099D02*
X142439966Y-99111766D01*
X142439966Y-99111766D02*
X142473300Y-99145099D01*
X142473300Y-99145099D02*
X142573300Y-99211766D01*
X142573300Y-99211766D02*
X142706633Y-99245099D01*
X142706633Y-99245099D02*
X142973300Y-99245099D01*
X142973300Y-99245099D02*
X143039966Y-99211766D01*
X143039966Y-99211766D02*
X143073300Y-99178433D01*
X143073300Y-99178433D02*
X143106633Y-99111766D01*
X143106633Y-99111766D02*
X143106633Y-98978433D01*
X143106633Y-98978433D02*
X143073300Y-98911766D01*
X143073300Y-98911766D02*
X143039966Y-98878433D01*
X143039966Y-98878433D02*
X142973300Y-98845099D01*
X142973300Y-98845099D02*
X142806633Y-98845099D01*
X142806633Y-98845099D02*
X142739966Y-98878433D01*
X142739966Y-98878433D02*
X142706633Y-98911766D01*
X142706633Y-98911766D02*
X142673300Y-98978433D01*
X142673300Y-98978433D02*
X142673300Y-99111766D01*
X142673300Y-99111766D02*
X142706633Y-99178433D01*
X142706633Y-99178433D02*
X142739966Y-99211766D01*
X142739966Y-99211766D02*
X142806633Y-99245099D01*
%TO.C,C3*%
X157655733Y-106794966D02*
X157622400Y-106828300D01*
X157622400Y-106828300D02*
X157522400Y-106861633D01*
X157522400Y-106861633D02*
X157455733Y-106861633D01*
X157455733Y-106861633D02*
X157355733Y-106828300D01*
X157355733Y-106828300D02*
X157289067Y-106761633D01*
X157289067Y-106761633D02*
X157255733Y-106694966D01*
X157255733Y-106694966D02*
X157222400Y-106561633D01*
X157222400Y-106561633D02*
X157222400Y-106461633D01*
X157222400Y-106461633D02*
X157255733Y-106328300D01*
X157255733Y-106328300D02*
X157289067Y-106261633D01*
X157289067Y-106261633D02*
X157355733Y-106194966D01*
X157355733Y-106194966D02*
X157455733Y-106161633D01*
X157455733Y-106161633D02*
X157522400Y-106161633D01*
X157522400Y-106161633D02*
X157622400Y-106194966D01*
X157622400Y-106194966D02*
X157655733Y-106228300D01*
X157889067Y-106161633D02*
X158322400Y-106161633D01*
X158322400Y-106161633D02*
X158089067Y-106428300D01*
X158089067Y-106428300D02*
X158189067Y-106428300D01*
X158189067Y-106428300D02*
X158255733Y-106461633D01*
X158255733Y-106461633D02*
X158289067Y-106494966D01*
X158289067Y-106494966D02*
X158322400Y-106561633D01*
X158322400Y-106561633D02*
X158322400Y-106728300D01*
X158322400Y-106728300D02*
X158289067Y-106794966D01*
X158289067Y-106794966D02*
X158255733Y-106828300D01*
X158255733Y-106828300D02*
X158189067Y-106861633D01*
X158189067Y-106861633D02*
X157989067Y-106861633D01*
X157989067Y-106861633D02*
X157922400Y-106828300D01*
X157922400Y-106828300D02*
X157889067Y-106794966D01*
%TO.C,J3*%
X150096866Y-102077433D02*
X150096866Y-102577433D01*
X150096866Y-102577433D02*
X150063533Y-102677433D01*
X150063533Y-102677433D02*
X149996866Y-102744100D01*
X149996866Y-102744100D02*
X149896866Y-102777433D01*
X149896866Y-102777433D02*
X149830200Y-102777433D01*
X150363533Y-102077433D02*
X150796866Y-102077433D01*
X150796866Y-102077433D02*
X150563533Y-102344100D01*
X150563533Y-102344100D02*
X150663533Y-102344100D01*
X150663533Y-102344100D02*
X150730199Y-102377433D01*
X150730199Y-102377433D02*
X150763533Y-102410766D01*
X150763533Y-102410766D02*
X150796866Y-102477433D01*
X150796866Y-102477433D02*
X150796866Y-102644100D01*
X150796866Y-102644100D02*
X150763533Y-102710766D01*
X150763533Y-102710766D02*
X150730199Y-102744100D01*
X150730199Y-102744100D02*
X150663533Y-102777433D01*
X150663533Y-102777433D02*
X150463533Y-102777433D01*
X150463533Y-102777433D02*
X150396866Y-102744100D01*
X150396866Y-102744100D02*
X150363533Y-102710766D01*
%TO.C,C5*%
X157996366Y-99067666D02*
X158029700Y-99100999D01*
X158029700Y-99100999D02*
X158063033Y-99200999D01*
X158063033Y-99200999D02*
X158063033Y-99267666D01*
X158063033Y-99267666D02*
X158029700Y-99367666D01*
X158029700Y-99367666D02*
X157963033Y-99434333D01*
X157963033Y-99434333D02*
X157896366Y-99467666D01*
X157896366Y-99467666D02*
X157763033Y-99500999D01*
X157763033Y-99500999D02*
X157663033Y-99500999D01*
X157663033Y-99500999D02*
X157529700Y-99467666D01*
X157529700Y-99467666D02*
X157463033Y-99434333D01*
X157463033Y-99434333D02*
X157396366Y-99367666D01*
X157396366Y-99367666D02*
X157363033Y-99267666D01*
X157363033Y-99267666D02*
X157363033Y-99200999D01*
X157363033Y-99200999D02*
X157396366Y-99100999D01*
X157396366Y-99100999D02*
X157429700Y-99067666D01*
X157363033Y-98434333D02*
X157363033Y-98767666D01*
X157363033Y-98767666D02*
X157696366Y-98800999D01*
X157696366Y-98800999D02*
X157663033Y-98767666D01*
X157663033Y-98767666D02*
X157629700Y-98700999D01*
X157629700Y-98700999D02*
X157629700Y-98534333D01*
X157629700Y-98534333D02*
X157663033Y-98467666D01*
X157663033Y-98467666D02*
X157696366Y-98434333D01*
X157696366Y-98434333D02*
X157763033Y-98400999D01*
X157763033Y-98400999D02*
X157929700Y-98400999D01*
X157929700Y-98400999D02*
X157996366Y-98434333D01*
X157996366Y-98434333D02*
X158029700Y-98467666D01*
X158029700Y-98467666D02*
X158063033Y-98534333D01*
X158063033Y-98534333D02*
X158063033Y-98700999D01*
X158063033Y-98700999D02*
X158029700Y-98767666D01*
X158029700Y-98767666D02*
X157996366Y-98800999D01*
%TO.C,U1*%
X151422466Y-105581033D02*
X151422466Y-106147700D01*
X151422466Y-106147700D02*
X151455800Y-106214366D01*
X151455800Y-106214366D02*
X151489133Y-106247700D01*
X151489133Y-106247700D02*
X151555800Y-106281033D01*
X151555800Y-106281033D02*
X151689133Y-106281033D01*
X151689133Y-106281033D02*
X151755800Y-106247700D01*
X151755800Y-106247700D02*
X151789133Y-106214366D01*
X151789133Y-106214366D02*
X151822466Y-106147700D01*
X151822466Y-106147700D02*
X151822466Y-105581033D01*
X152522466Y-106281033D02*
X152122466Y-106281033D01*
X152322466Y-106281033D02*
X152322466Y-105581033D01*
X152322466Y-105581033D02*
X152255799Y-105681033D01*
X152255799Y-105681033D02*
X152189133Y-105747700D01*
X152189133Y-105747700D02*
X152122466Y-105781033D01*
%TO.C,C4*%
X157960533Y-103010366D02*
X157927200Y-103043700D01*
X157927200Y-103043700D02*
X157827200Y-103077033D01*
X157827200Y-103077033D02*
X157760533Y-103077033D01*
X157760533Y-103077033D02*
X157660533Y-103043700D01*
X157660533Y-103043700D02*
X157593867Y-102977033D01*
X157593867Y-102977033D02*
X157560533Y-102910366D01*
X157560533Y-102910366D02*
X157527200Y-102777033D01*
X157527200Y-102777033D02*
X157527200Y-102677033D01*
X157527200Y-102677033D02*
X157560533Y-102543700D01*
X157560533Y-102543700D02*
X157593867Y-102477033D01*
X157593867Y-102477033D02*
X157660533Y-102410366D01*
X157660533Y-102410366D02*
X157760533Y-102377033D01*
X157760533Y-102377033D02*
X157827200Y-102377033D01*
X157827200Y-102377033D02*
X157927200Y-102410366D01*
X157927200Y-102410366D02*
X157960533Y-102443700D01*
X158560533Y-102610366D02*
X158560533Y-103077033D01*
X158393867Y-102343700D02*
X158227200Y-102843700D01*
X158227200Y-102843700D02*
X158660533Y-102843700D01*
%TO.C,R1*%
X141704533Y-111763833D02*
X141471200Y-111430500D01*
X141304533Y-111763833D02*
X141304533Y-111063833D01*
X141304533Y-111063833D02*
X141571200Y-111063833D01*
X141571200Y-111063833D02*
X141637867Y-111097166D01*
X141637867Y-111097166D02*
X141671200Y-111130500D01*
X141671200Y-111130500D02*
X141704533Y-111197166D01*
X141704533Y-111197166D02*
X141704533Y-111297166D01*
X141704533Y-111297166D02*
X141671200Y-111363833D01*
X141671200Y-111363833D02*
X141637867Y-111397166D01*
X141637867Y-111397166D02*
X141571200Y-111430500D01*
X141571200Y-111430500D02*
X141304533Y-111430500D01*
X142371200Y-111763833D02*
X141971200Y-111763833D01*
X142171200Y-111763833D02*
X142171200Y-111063833D01*
X142171200Y-111063833D02*
X142104533Y-111163833D01*
X142104533Y-111163833D02*
X142037867Y-111230500D01*
X142037867Y-111230500D02*
X141971200Y-111263833D01*
%TO.C,FB2*%
X144971667Y-114445166D02*
X144738333Y-114445166D01*
X144738333Y-114811833D02*
X144738333Y-114111833D01*
X144738333Y-114111833D02*
X145071667Y-114111833D01*
X145571667Y-114445166D02*
X145671667Y-114478500D01*
X145671667Y-114478500D02*
X145705000Y-114511833D01*
X145705000Y-114511833D02*
X145738333Y-114578500D01*
X145738333Y-114578500D02*
X145738333Y-114678500D01*
X145738333Y-114678500D02*
X145705000Y-114745166D01*
X145705000Y-114745166D02*
X145671667Y-114778500D01*
X145671667Y-114778500D02*
X145605000Y-114811833D01*
X145605000Y-114811833D02*
X145338333Y-114811833D01*
X145338333Y-114811833D02*
X145338333Y-114111833D01*
X145338333Y-114111833D02*
X145571667Y-114111833D01*
X145571667Y-114111833D02*
X145638333Y-114145166D01*
X145638333Y-114145166D02*
X145671667Y-114178500D01*
X145671667Y-114178500D02*
X145705000Y-114245166D01*
X145705000Y-114245166D02*
X145705000Y-114311833D01*
X145705000Y-114311833D02*
X145671667Y-114378500D01*
X145671667Y-114378500D02*
X145638333Y-114411833D01*
X145638333Y-114411833D02*
X145571667Y-114445166D01*
X145571667Y-114445166D02*
X145338333Y-114445166D01*
X146005000Y-114178500D02*
X146038333Y-114145166D01*
X146038333Y-114145166D02*
X146105000Y-114111833D01*
X146105000Y-114111833D02*
X146271667Y-114111833D01*
X146271667Y-114111833D02*
X146338333Y-114145166D01*
X146338333Y-114145166D02*
X146371667Y-114178500D01*
X146371667Y-114178500D02*
X146405000Y-114245166D01*
X146405000Y-114245166D02*
X146405000Y-114311833D01*
X146405000Y-114311833D02*
X146371667Y-114411833D01*
X146371667Y-114411833D02*
X145971667Y-114811833D01*
X145971667Y-114811833D02*
X146405000Y-114811833D01*
D12*
%TO.C,R2*%
X144870376Y-109477500D02*
X145379824Y-109477500D01*
X144870376Y-110522500D02*
X145379824Y-110522500D01*
%TO.C,C8*%
X148050333Y-115713000D02*
X148342867Y-115713000D01*
X148050333Y-116733000D02*
X148342867Y-116733000D01*
%TO.C,C2*%
X144532867Y-108579600D02*
X144240333Y-108579600D01*
X144532867Y-107559600D02*
X144240333Y-107559600D01*
%TO.C,C1*%
X148020800Y-110717333D02*
X148020800Y-111009867D01*
X147000800Y-110717333D02*
X147000800Y-111009867D01*
%TO.C,C7*%
X150400267Y-113329400D02*
X150107733Y-113329400D01*
X150400267Y-112309400D02*
X150107733Y-112309400D01*
%TO.C,FB1*%
X155275948Y-103498800D02*
X155798452Y-103498800D01*
X155275948Y-104918800D02*
X155798452Y-104918800D01*
%TO.C,R3*%
X155897200Y-112277064D02*
X155897200Y-110822936D01*
X157717200Y-112277064D02*
X157717200Y-110822936D01*
%TO.C,C6*%
X143730600Y-100106352D02*
X143730600Y-98683848D01*
X145550600Y-100106352D02*
X145550600Y-98683848D01*
%TO.C,C3*%
X155238533Y-105400600D02*
X155531067Y-105400600D01*
X155238533Y-106420600D02*
X155531067Y-106420600D01*
%TO.C,J3*%
X154540200Y-100341400D02*
X154540200Y-96341400D01*
X154250200Y-101371400D02*
X154250200Y-95351400D01*
X154250200Y-95351400D02*
X146410200Y-95351400D01*
X153670200Y-101371400D02*
X153670200Y-100771400D01*
X153670200Y-100771400D02*
X152070200Y-100771400D01*
X152870200Y-96351400D02*
X152620200Y-96881400D01*
X152870200Y-96351400D02*
X147790200Y-96351400D01*
X152870200Y-95351400D02*
X152870200Y-96351400D01*
X152620200Y-96881400D02*
X148040200Y-96881400D01*
X152620200Y-95351400D02*
X152620200Y-96351400D01*
X152070200Y-100771400D02*
X152070200Y-101371400D01*
X151130200Y-101371400D02*
X151130200Y-100771400D01*
X151130200Y-100771400D02*
X149530200Y-100771400D01*
X149530200Y-100771400D02*
X149530200Y-101371400D01*
X148590200Y-101371400D02*
X148590200Y-100771400D01*
X148590200Y-100771400D02*
X146990200Y-100771400D01*
X148040200Y-96881400D02*
X147790200Y-96351400D01*
X148040200Y-95351400D02*
X148040200Y-96351400D01*
X147790200Y-96351400D02*
X147790200Y-95351400D01*
X146990200Y-100771400D02*
X146990200Y-101371400D01*
X146410200Y-101371400D02*
X154250200Y-101371400D01*
X146410200Y-95351400D02*
X146410200Y-101371400D01*
%TO.C,C5*%
X155313000Y-99687652D02*
X155313000Y-98265148D01*
X157133000Y-99687652D02*
X157133000Y-98265148D01*
%TO.C,U1*%
X151955800Y-106805000D02*
X148505800Y-106805000D01*
X151955800Y-106805000D02*
X153905800Y-106805000D01*
X151955800Y-111925000D02*
X150005800Y-111925000D01*
X151955800Y-111925000D02*
X153905800Y-111925000D01*
%TO.C,C4*%
X155543333Y-101997000D02*
X155835867Y-101997000D01*
X155543333Y-103017000D02*
X155835867Y-103017000D01*
%TO.C,R1*%
X141566476Y-109477500D02*
X142075924Y-109477500D01*
X141566476Y-110522500D02*
X142075924Y-110522500D01*
%TO.C,FB2*%
X148113148Y-113811200D02*
X148635652Y-113811200D01*
X148113148Y-115231200D02*
X148635652Y-115231200D01*
%TD*%
M02*
