M48
; DRILL file {KiCad 7.0.5-0} date 2024 February 16, Friday 15:48:27
; FORMAT={-:-/ absolute / inch / decimal}
; #@! TF.CreationDate,2024-02-16T15:48:27-04:00
; #@! TF.GenerationSoftware,Kicad,Pcbnew,7.0.5-0
; #@! TF.FileFunction,Plated,1,4,PTH
FMAT,2
INCH
; #@! TA.AperFunction,Plated,PTH,ViaDrill
T1C0.0118
; #@! TA.AperFunction,Plated,PTH,ViaDrill
T2C0.0157
; #@! TA.AperFunction,Plated,PTH,ComponentDrill
T3C0.0197
; #@! TA.AperFunction,Plated,PTH,ComponentDrill
T4C0.0469
; #@! TA.AperFunction,Plated,PTH,ComponentDrill
T5C0.1063
%
G90
G05
T1
X5.3346Y-4.2028
X5.3346Y-4.2323
X5.3346Y-4.2717
X5.3346Y-4.3898
X5.3346Y-4.4193
X5.3346Y-4.4488
X5.3445Y-3.8504
X5.3445Y-3.8911
X5.3445Y-3.9317
X5.3445Y-3.9724
X5.3445Y-4.0131
X5.3445Y-4.0538
X5.3445Y-4.627
X5.3445Y-4.6669
X5.3445Y-4.7067
X5.3445Y-4.7466
X5.3445Y-4.7865
X5.3642Y-4.2028
X5.3642Y-4.2717
X5.3642Y-4.3898
X5.3642Y-4.4488
X5.3839Y-3.8091
X5.3839Y-4.0129
X5.3839Y-4.0537
X5.3839Y-4.6344
X5.3839Y-4.678
X5.3839Y-4.8524
X5.3937Y-4.2028
X5.3937Y-4.2717
X5.3937Y-4.3898
X5.3937Y-4.4488
X5.4232Y-4.2028
X5.4232Y-4.2717
X5.4232Y-4.3898
X5.4232Y-4.4488
X5.435Y-3.7697
X5.447Y-4.8917
X5.4528Y-4.2028
X5.4528Y-4.2717
X5.4528Y-4.3898
X5.4528Y-4.4488
X5.4757Y-3.7697
X5.4823Y-4.2028
X5.4823Y-4.2717
X5.4823Y-4.3898
X5.4823Y-4.4488
X5.4869Y-4.8917
X5.5118Y-4.2028
X5.5118Y-4.2717
X5.5118Y-4.4488
X5.5268Y-4.8917
X5.5275Y-4.3897
X5.5294Y-3.7697
X5.5515Y-4.2717
X5.5517Y-3.8091
X5.5666Y-4.8917
X5.5696Y-3.7697
X5.5845Y-4.8524
X5.5915Y-4.2687
X5.5915Y-3.8091
X5.6065Y-4.8917
X5.6075Y-4.2137
X5.6097Y-3.7697
X5.6144Y-4.8014
X5.6225Y-4.3907
X5.6246Y-4.8524
X5.6299Y-3.8583
X5.6314Y-3.8091
X5.6464Y-4.8917
X5.6498Y-3.7697
X5.6595Y-4.1837
X5.6694Y-4.8524
X5.6713Y-3.8091
X5.6715Y-4.0477
X5.6715Y-4.1197
X5.6735Y-4.3907
X5.6765Y-4.5027
X5.6899Y-3.7697
X5.6914Y-4.8917
X5.7096Y-4.8524
X5.7112Y-3.8091
X5.724Y-3.8799
X5.7301Y-3.7697
X5.7313Y-4.8917
X5.7319Y-4.561
X5.7465Y-4.4647
X5.7485Y-4.0487
X5.7485Y-4.1187
X5.7485Y-4.1927
X5.7495Y-4.3847
X5.7528Y-4.8543
X5.7702Y-3.7697
X5.7748Y-4.8937
X5.7895Y-4.2817
X5.7929Y-4.8543
X5.7961Y-3.9575
X5.7975Y-4.6377
X5.8005Y-4.5757
X5.8103Y-3.7697
X5.8147Y-4.8937
X5.8305Y-4.1807
X5.8377Y-4.8543
X5.8504Y-3.7697
X5.8597Y-4.8937
X5.8765Y-4.6377
X5.8779Y-4.8543
X5.8906Y-3.7697
X5.8996Y-4.8937
X5.9209Y-4.8533
X5.9265Y-4.1797
X5.9307Y-3.7697
X5.9365Y-4.5757
X5.9425Y-4.4997
X5.9426Y-4.8927
X5.9508Y-4.4425
X5.9547Y-4.2307
X5.9591Y-4.3083
X5.9657Y-4.8533
X5.9708Y-3.7697
X5.9772Y-4.3815
X5.9877Y-4.8927
X6.0008Y-4.2709
X6.0058Y-4.8533
X6.011Y-3.7697
X6.0175Y-4.1687
X6.0205Y-4.3469
X6.0205Y-4.1037
X6.0235Y-4.0457
X6.0276Y-4.8927
X6.0405Y-3.9867
X6.0405Y-4.4437
X6.0491Y-4.8553
X6.0511Y-3.7697
X6.0711Y-4.8947
X6.0892Y-4.8553
X6.0912Y-3.7697
X6.0945Y-4.4437
X6.1109Y-4.8947
X6.1209Y-3.8665
X6.1313Y-3.7697
X6.134Y-4.8553
X6.1497Y-3.8091
X6.156Y-4.8947
X6.1605Y-4.2187
X6.1655Y-4.2697
X6.1715Y-3.7697
X6.1735Y-3.8877
X6.1735Y-4.3917
X6.1768Y-4.161
X6.1864Y-4.8563
X6.1896Y-3.8091
X6.1909Y-3.8484
X6.2045Y-4.8957
X6.2116Y-3.7697
X6.2165Y-3.9457
X6.2207Y-4.8014
X6.2265Y-4.8524
X6.2275Y-4.1057
X6.2295Y-3.8091
X6.2295Y-4.0247
X6.2444Y-4.8917
X6.25Y-4.2811
X6.2517Y-3.7697
X6.2543Y-4.378
X6.2555Y-4.4627
X6.2667Y-4.8524
X6.2843Y-4.8917
X6.2914Y-3.7697
X6.2992Y-4.2028
X6.2992Y-4.4488
X6.3189Y-4.2717
X6.3189Y-4.3898
X6.3241Y-4.8917
X6.3287Y-4.2028
X6.3287Y-4.4488
X6.3353Y-3.7697
X6.3484Y-4.2717
X6.3484Y-4.3898
X6.3583Y-4.2028
X6.3583Y-4.4488
X6.364Y-4.8917
X6.376Y-3.7697
X6.378Y-4.2717
X6.378Y-4.3898
X6.3878Y-4.2028
X6.3878Y-4.4488
X6.4075Y-4.2717
X6.4075Y-4.3898
X6.4173Y-4.2028
X6.4173Y-4.4488
X6.4272Y-3.8091
X6.4272Y-4.0129
X6.4272Y-4.0537
X6.4272Y-4.5908
X6.4272Y-4.6344
X6.4272Y-4.678
X6.4272Y-4.8524
X6.437Y-4.2717
X6.437Y-4.3898
X6.4469Y-4.2028
X6.4469Y-4.4488
X6.4665Y-3.8504
X6.4665Y-3.8911
X6.4665Y-3.9317
X6.4665Y-3.9724
X6.4665Y-4.0131
X6.4665Y-4.0538
X6.4665Y-4.2717
X6.4665Y-4.3898
X6.4665Y-4.5871
X6.4665Y-4.627
X6.4665Y-4.6669
X6.4665Y-4.7067
X6.4665Y-4.7466
X6.4665Y-4.7865
X6.4764Y-4.2028
X6.4764Y-4.2421
X6.4764Y-4.4193
X6.4764Y-4.4488
T2
X5.6945Y-3.9767
T3
X5.3927Y-3.8976
X5.3927Y-4.7638
X5.4161Y-3.8413
X5.4161Y-3.954
X5.4161Y-4.7074
X5.4161Y-4.8202
X5.4724Y-3.8179
X5.4724Y-3.9774
X5.4724Y-4.6841
X5.4724Y-4.8435
X5.5288Y-3.8413
X5.5288Y-3.954
X5.5288Y-4.7074
X5.5288Y-4.8202
X5.5522Y-3.8976
X5.5522Y-4.7638
X6.2589Y-3.8976
X6.2589Y-4.7638
X6.2822Y-3.8413
X6.2822Y-3.954
X6.2822Y-4.7074
X6.2822Y-4.8202
X6.3386Y-3.8179
X6.3386Y-3.9774
X6.3386Y-4.6841
X6.3386Y-4.8435
X6.395Y-3.8413
X6.395Y-3.954
X6.395Y-4.7074
X6.395Y-4.8202
X6.4183Y-3.8976
X6.4183Y-4.7638
T4
X5.8185Y-3.8717
X5.9185Y-3.8717
X6.0185Y-3.8717
T5
X5.4724Y-3.8976
X5.4724Y-4.7638
X6.3386Y-3.8976
X6.3386Y-4.7638
T0
M30
