M48
; DRILL file {KiCad 7.0.5-0} date 2023 July 19, Wednesday 11:22:36
; FORMAT={-:-/ absolute / inch / decimal}
; #@! TF.CreationDate,2023-07-19T11:22:36-03:00
; #@! TF.GenerationSoftware,Kicad,Pcbnew,7.0.5-0
; #@! TF.FileFunction,Plated,1,4,PTH
FMAT,2
INCH
; #@! TA.AperFunction,Plated,PTH,ComponentDrill
T1C0.0079
; #@! TA.AperFunction,Plated,PTH,ViaDrill
T2C0.0138
; #@! TA.AperFunction,Plated,PTH,ViaDrill
T3C0.0157
; #@! TA.AperFunction,Plated,PTH,ComponentDrill
T4C0.0181
; #@! TA.AperFunction,Plated,PTH,ViaDrill
T5C0.0236
; #@! TA.AperFunction,Plated,PTH,ViaDrill
T6C0.0276
; #@! TA.AperFunction,Plated,PTH,ComponentDrill
T7C0.0315
; #@! TA.AperFunction,Plated,PTH,ViaDrill
T8C0.0394
; #@! TA.AperFunction,Plated,PTH,ComponentDrill
T9C0.0394
; #@! TA.AperFunction,Plated,PTH,ComponentDrill
T10C0.0469
; #@! TA.AperFunction,Plated,PTH,ComponentDrill
T11C0.0630
; #@! TA.AperFunction,Plated,PTH,ViaDrill
T12C0.0787
%
G90
G05
T1
X2.4776Y-3.057
X2.4776Y-3.122
X2.4776Y-3.187
X2.5026Y-3.157
X2.5076Y-3.087
X2.5426Y-3.057
X2.5426Y-3.122
X2.5426Y-3.187
X2.5726Y-3.087
X2.5726Y-3.157
X2.6076Y-3.057
X2.6076Y-3.122
X2.6076Y-3.187
T2
X1.7202Y-2.3263
X1.7202Y-2.4129
X1.8324Y-3.407
X1.8737Y-3.3185
X1.9249Y-2.6137
X1.9761Y-3.5429
X1.98Y-2.5626
X2.0371Y-3.474
X2.043Y-2.7318
X2.0804Y-4.6275
X2.0942Y-2.6728
X2.1257Y-2.8185
X2.1414Y-4.4956
X2.1611Y-2.7279
X2.1729Y-3.2476
X2.1808Y-3.3303
X2.1867Y-3.5055
X2.208Y-3.1748
X2.2084Y-2.8342
X2.2281Y-2.7594
X2.2477Y-3.1059
X2.2851Y-2.8362
X2.2989Y-3.0468
X2.3304Y-2.7673
X2.3383Y-3.4799
X2.3462Y-2.9523
X2.3619Y-3.161
X2.3777Y-2.8381
X2.3777Y-3.2378
X2.3816Y-3.0822
X2.4249Y-3.6177
X2.4367Y-2.7791
X2.4584Y-3.7889
X2.4588Y-3.3893
X2.4593Y-2.9475
X2.48Y-3.537
X2.5155Y-2.8618
X2.5312Y-4.5232
X2.5384Y-2.9487
X2.543Y-3.7889
X2.543Y-3.8972
X2.5529Y-3.4996
X2.5548Y-2.7909
X2.5837Y-3.2933
X2.5981Y-2.8618
X2.6616Y-2.97
X2.669Y-2.9169
X2.7179Y-3.1503
X2.7202Y-2.8145
X2.7615Y-2.8618
X2.7733Y-5.1275
X2.8225Y-3.287
X2.8442Y-4.3342
X2.8442Y-4.4661
X2.8442Y-4.5921
X2.8462Y-4.2023
X2.858Y-3.7673
X2.8619Y-2.9799
X2.9466Y-2.8106
X2.9485Y-5.0685
X2.9623Y-4.2004
X2.9623Y-4.3342
X3.0155Y-4.7043
X3.0273Y-4.1944
X3.0371Y-5.0311
X3.043Y-3.0537
X3.047Y-3.3657
X3.0489Y-4.3342
X3.0513Y-4.837
X3.0568Y-2.7752
X3.0588Y-3.6216
X3.0666Y-2.8893
X3.1178Y-2.7948
X3.1395Y-4.7515
X3.1497Y-3.1019
X3.1552Y-3.5704
X3.1592Y-4.0606
X3.1651Y-4.596
X3.169Y-4.2043
X3.171Y-3.0704
X3.171Y-3.1374
X3.2123Y-3.6354
X3.2261Y-2.474
X3.232Y-2.5488
X3.2399Y-3.5291
X3.2714Y-4.3322
X3.2753Y-4.096
X3.2773Y-4.4681
X3.3363Y-2.7456
X3.3895Y-4.2004
X3.3934Y-4.096
X3.3973Y-4.4011
X3.5332Y-2.7456
X3.5371Y-4.0941
X3.5922Y-4.2043
X3.6257Y-4.0035
X3.6769Y-3.2535
X3.7103Y-2.7456
X3.7241Y-4.1925
X3.8363Y-3.2555
X3.9938Y-3.2496
X4.108Y-3.1787
X4.4072Y-5.4385
X4.5115Y-5.3106
X4.5607Y-5.4641
X4.6907Y-5.3263
X4.9584Y-4.4385
X4.9722Y-4.2574
X5.0529Y-4.5311
X5.0548Y-4.3519
X5.0588Y-4.2122
X5.1139Y-4.287
X5.1277Y-4.6059
X5.1277Y-4.7122
X5.1355Y-4.4346
X5.2418Y-4.7082
X5.2458Y-4.4366
X5.2458Y-4.535
X5.3107Y-4.6098
T3
X2.1702Y-4.4015
X2.1708Y-4.2006
X2.2115Y-2.5674
X2.3127Y-2.5672
X2.3203Y-4.4003
X2.4078Y-4.5261
X2.4119Y-2.5674
X2.5123Y-3.2838
X2.5127Y-2.5674
X2.6125Y-3.3779
X2.6127Y-2.5674
X2.669Y-4.5252
X2.7068Y-3.2161
X2.7088Y-2.5674
X2.7268Y-3.6213
X2.7375Y-2.9795
X2.8115Y-2.5678
X2.8354Y-3.4333
X2.9107Y-2.567
X2.963Y-3.1295
X3.0062Y-3.6984
X3.043Y-2.9838
X3.0491Y-2.4985
X3.0491Y-2.5654
X3.1533Y-2.9248
X3.1533Y-2.9996
X3.1928Y-5.0111
X3.2635Y-3.1206
X3.3088Y-4.4011
X3.3166Y-3.6511
X3.3375Y-4.9117
X3.3983Y-4.0017
X3.5728Y-4.8138
X3.5742Y-3.4998
X3.5755Y-3.3128
X3.5873Y-4.9674
X3.6739Y-3.8403
X3.7635Y-2.9956
X3.7723Y-4.0653
X3.7753Y-3.9326
X3.8392Y-3.6185
X3.8403Y-4.9152
X3.858Y-3.8441
X3.8708Y-3.5687
X3.9862Y-5.1563
X4.0105Y-4.9152
X4.1316Y-4.7417
X4.9099Y-3.3338
X5.1071Y-3.233
X5.1099Y-3.1374
T4
X1.6347Y-2.1972
X1.6347Y-2.5421
X1.6347Y-3.1815
X1.6347Y-3.5263
X1.6347Y-4.1657
X1.6347Y-4.5106
X1.6347Y-5.15
X1.6347Y-5.4948
T5
X3.7621Y-2.8704
X4.1834Y-2.9216
T6
X3.9682Y-2.8091
X4.1847Y-3.0468
X5.1867Y-4.2752
X6.1178Y-2.9996
X6.1178Y-4.6019
T7
X2.067Y-3.6788
X2.167Y-3.6788
X2.267Y-3.6788
X2.889Y-5.2144
X2.889Y-5.3144
X2.889Y-5.4144
X4.0621Y-3.8639
X4.1493Y-3.3066
X4.1493Y-3.4066
X4.1493Y-3.5066
X4.1621Y-3.8639
X4.2621Y-3.8639
T8
X1.4958Y-2.7318
X1.4997Y-3.0192
X1.4997Y-3.7161
X1.4997Y-3.9956
X1.4997Y-4.724
X1.4997Y-4.9484
X1.7556Y-2.7358
X1.7714Y-2.1255
X1.795Y-3.157
X1.8029Y-4.846
X1.8147Y-3.6334
X1.8186Y-5.1511
X1.8225Y-4.0429
X1.9249Y-2.9523
X2.0036Y-2.3224
X2.0194Y-5.7259
X2.0706Y-5.0507
X2.2005Y-4.8066
X2.6139Y-3.6374
X2.8166Y-4.7653
X2.8718Y-5.598
X2.9977Y-4.5232
X3.0056Y-4.0665
X3.2084Y-3.9385
X3.3225Y-3.3126
X3.4643Y-2.8716
X3.545Y-3.0803
X3.7162Y-5.7161
X3.7182Y-5.409
X3.917Y-3.407
X4.1611Y-5.1137
X4.3855Y-3.6885
X4.5568Y-4.3165
X4.6178Y-2.1531
X4.6218Y-2.6818
X4.6237Y-2.8972
X4.7044Y-5.533
X4.7458Y-3.7614
X4.8422Y-4.7614
X5.4482Y-3.9804
X5.4662Y-3.2811
X5.5413Y-4.1396
X5.5452Y-3.8286
X5.5452Y-3.9821
X5.5824Y-5.6925
X5.5903Y-1.9602
X5.5903Y-2.4889
X5.5903Y-4.6036
X5.5903Y-5.1323
X5.5962Y-2.8972
X5.6001Y-3.161
X5.608Y-3.4189
X5.6515Y-3.9821
X5.732Y-3.2948
X6.5115Y-2.2645
X6.5115Y-2.7932
X6.5115Y-3.3218
X6.5115Y-3.8505
X6.5115Y-4.3792
X6.5115Y-4.9079
X6.5155Y-5.5153
X7.4013Y-4.6925
X7.4052Y-1.9996
X7.4052Y-2.5282
X7.4052Y-3.1137
X7.4052Y-3.5856
X7.4052Y-4.1143
X7.4052Y-5.1717
X7.4092Y-5.7004
X8.3777Y-2.233
X8.3777Y-2.7617
X8.3777Y-3.2903
X8.3777Y-3.819
X8.3777Y-4.3477
X8.3777Y-4.8764
X8.3855Y-5.5153
X9.2359Y-1.9956
X9.2359Y-2.5243
X9.2359Y-3.1098
X9.2359Y-3.5817
X9.2359Y-4.1104
X9.2359Y-5.1677
X9.2399Y-5.6964
X9.2438Y-4.6925
T9
X2.2879Y-5.0271
X2.3879Y-5.0271
X2.4879Y-5.0271
X3.3311Y-2.1006
X3.3311Y-2.2006
X3.4311Y-2.1006
X3.4311Y-2.2006
X3.5311Y-2.1006
X3.5311Y-2.2006
X3.6311Y-2.1006
X3.6311Y-2.2006
X3.7311Y-2.1006
X3.7311Y-2.2006
X3.8311Y-2.1006
X3.8311Y-2.2006
X3.9311Y-2.1006
X3.9311Y-2.2006
X4.0311Y-2.1006
X4.0311Y-2.2006
T10
X2.6127Y-5.3143
X2.6127Y-5.4143
X2.6127Y-5.5143
X2.7564Y-3.9378
X2.7564Y-4.0378
X3.5598Y-4.367
X3.6598Y-4.367
X4.17Y-4.368
X4.27Y-4.368
X4.3533Y-5.1292
X4.3533Y-5.2292
X4.5418Y-4.7646
X4.5418Y-4.8646
T11
X9.6666Y-2.796
X9.6666Y-3.196
X9.6666Y-3.596
X9.6666Y-3.996
X9.6666Y-4.396
X9.6666Y-4.796
X9.6666Y-5.196
X9.8666Y-2.596
X9.8666Y-2.996
X9.8666Y-3.396
X9.8666Y-3.796
X9.8666Y-4.196
X9.8666Y-4.596
X9.8666Y-4.996
X9.8666Y-5.396
T12
X1.5155Y-1.9956
X1.5155Y-5.6964
X9.8225Y-1.9956
X9.8225Y-5.6964
T0
M30
