%TF.GenerationSoftware,KiCad,Pcbnew,7.0.5-0*%
%TF.CreationDate,2024-02-16T16:17:37-04:00*%
%TF.ProjectId,PID Tile,50494420-5469-46c6-952e-6b696361645f,rev?*%
%TF.SameCoordinates,Original*%
%TF.FileFunction,Copper,L1,Top*%
%TF.FilePolarity,Positive*%
%FSLAX46Y46*%
G04 Gerber Fmt 4.6, Leading zero omitted, Abs format (unit mm)*
G04 Created by KiCad (PCBNEW 7.0.5-0) date 2024-02-16 16:17:37*
%MOMM*%
%LPD*%
G01*
G04 APERTURE LIST*
G04 Aperture macros list*
%AMRoundRect*
0 Rectangle with rounded corners*
0 $1 Rounding radius*
0 $2 $3 $4 $5 $6 $7 $8 $9 X,Y pos of 4 corners*
0 Add a 4 corners polygon primitive as box body*
4,1,4,$2,$3,$4,$5,$6,$7,$8,$9,$2,$3,0*
0 Add four circle primitives for the rounded corners*
1,1,$1+$1,$2,$3*
1,1,$1+$1,$4,$5*
1,1,$1+$1,$6,$7*
1,1,$1+$1,$8,$9*
0 Add four rect primitives between the rounded corners*
20,1,$1+$1,$2,$3,$4,$5,0*
20,1,$1+$1,$4,$5,$6,$7,0*
20,1,$1+$1,$6,$7,$8,$9,0*
20,1,$1+$1,$8,$9,$2,$3,0*%
%AMFreePoly0*
4,1,93,0.006530,2.344911,0.071157,2.344911,0.077575,2.343026,0.084259,2.342849,0.145712,2.323019,0.207708,2.304816,0.213335,2.301199,0.219699,2.299146,0.273087,2.262799,0.327430,2.227875,0.331809,2.222820,0.337338,2.219057,0.378328,2.169135,0.420627,2.120320,0.423405,2.114236,0.427649,2.109068,0.452917,2.049612,0.479746,1.990866,0.480697,1.984248,0.483314,1.978092,
0.490807,1.913930,0.500000,1.850000,0.500000,-1.850000,0.494911,-1.885393,0.494911,-1.921157,0.484834,-1.955473,0.479746,-1.990866,0.464892,-2.023391,0.454816,-2.057708,0.435481,-2.087793,0.420627,-2.120320,0.397209,-2.147345,0.377875,-2.177430,0.350848,-2.200848,0.327430,-2.227875,0.297345,-2.247209,0.270320,-2.270627,0.237793,-2.285481,0.207708,-2.304816,0.173391,-2.314892,
0.140866,-2.329746,0.105473,-2.334834,0.071157,-2.344911,0.035394,-2.344911,0.000000,-2.350000,-2.000000,-2.350000,-2.035394,-2.344911,-2.071157,-2.344911,-2.105473,-2.334834,-2.140866,-2.329746,-2.173391,-2.314892,-2.207708,-2.304816,-2.237793,-2.285481,-2.270320,-2.270627,-2.297345,-2.247209,-2.327430,-2.227875,-2.350848,-2.200848,-2.377875,-2.177430,-2.397209,-2.147345,-2.420627,-2.120320,
-2.435481,-2.087793,-2.454816,-2.057708,-2.464892,-2.023391,-2.479746,-1.990866,-2.484834,-1.955473,-2.494911,-1.921157,-2.494911,-1.885393,-2.500000,-1.850000,-2.500000,1.000000,-2.499048,1.006620,-2.499824,1.013263,-2.488937,1.076938,-2.479746,1.140866,-2.476968,1.146948,-2.475841,1.153542,-2.447458,1.211566,-2.420627,1.270320,-2.416246,1.275375,-2.413308,1.281383,-2.369734,1.329053,
-2.327430,1.377875,-2.321801,1.381491,-2.317291,1.386427,-2.262067,1.419881,-2.207708,1.454816,-2.201287,1.456701,-2.195570,1.460165,-0.195571,2.310165,-0.133159,2.326705,-0.071157,2.344911,-0.064465,2.344911,-0.058005,2.346623,0.006530,2.344911,0.006530,2.344911,$1*%
%AMFreePoly1*
4,1,93,0.064465,2.344911,0.071157,2.344911,0.133164,2.326703,0.195570,2.310165,2.195570,1.460166,2.201290,1.456700,2.207708,1.454816,2.262054,1.419889,2.317291,1.386427,2.321801,1.381491,2.327430,1.377875,2.369734,1.329053,2.413308,1.281383,2.416246,1.275375,2.420627,1.270320,2.447458,1.211566,2.475841,1.153542,2.476968,1.146948,2.479746,1.140866,2.488937,1.076938,
2.499824,1.013263,2.499048,1.006620,2.500000,1.000000,2.500000,-1.850000,2.494911,-1.885393,2.494911,-1.921157,2.484834,-1.955473,2.479746,-1.990866,2.464892,-2.023391,2.454816,-2.057708,2.435481,-2.087793,2.420627,-2.120320,2.397209,-2.147345,2.377875,-2.177430,2.350848,-2.200848,2.327430,-2.227875,2.297345,-2.247209,2.270320,-2.270627,2.237793,-2.285481,2.207708,-2.304816,
2.173391,-2.314892,2.140866,-2.329746,2.105473,-2.334834,2.071157,-2.344911,2.035394,-2.344911,2.000000,-2.350000,0.000000,-2.350000,-0.035394,-2.344911,-0.071157,-2.344911,-0.105473,-2.334834,-0.140866,-2.329746,-0.173391,-2.314892,-0.207708,-2.304816,-0.237793,-2.285481,-0.270320,-2.270627,-0.297345,-2.247209,-0.327430,-2.227875,-0.350848,-2.200848,-0.377875,-2.177430,-0.397209,-2.147345,
-0.420627,-2.120320,-0.435481,-2.087793,-0.454816,-2.057708,-0.464892,-2.023391,-0.479746,-1.990866,-0.484834,-1.955473,-0.494911,-1.921157,-0.494911,-1.885393,-0.500000,-1.850000,-0.500000,1.850000,-0.490807,1.913930,-0.483314,1.978092,-0.480697,1.984248,-0.479746,1.990866,-0.452925,2.049595,-0.427650,2.109068,-0.423404,2.114239,-0.420627,2.120320,-0.378336,2.169125,-0.337338,2.219057,
-0.331809,2.222820,-0.327430,2.227875,-0.273087,2.262799,-0.219699,2.299146,-0.213335,2.301199,-0.207708,2.304816,-0.145719,2.323017,-0.084260,2.342849,-0.077575,2.343026,-0.071157,2.344911,-0.006531,2.344911,0.058005,2.346623,0.064465,2.344911,0.064465,2.344911,$1*%
G04 Aperture macros list end*
%TA.AperFunction,ComponentPad*%
%ADD10C,0.800000*%
%TD*%
%TA.AperFunction,ComponentPad*%
%ADD11C,5.400000*%
%TD*%
%TA.AperFunction,SMDPad,CuDef*%
%ADD12RoundRect,0.237500X0.300000X0.237500X-0.300000X0.237500X-0.300000X-0.237500X0.300000X-0.237500X0*%
%TD*%
%TA.AperFunction,SMDPad,CuDef*%
%ADD13RoundRect,0.250001X0.624999X-0.462499X0.624999X0.462499X-0.624999X0.462499X-0.624999X-0.462499X0*%
%TD*%
%TA.AperFunction,ComponentPad*%
%ADD14RoundRect,0.250000X0.620000X0.845000X-0.620000X0.845000X-0.620000X-0.845000X0.620000X-0.845000X0*%
%TD*%
%TA.AperFunction,ComponentPad*%
%ADD15O,1.740000X2.190000*%
%TD*%
%TA.AperFunction,SMDPad,CuDef*%
%ADD16RoundRect,0.237500X-0.250000X-0.237500X0.250000X-0.237500X0.250000X0.237500X-0.250000X0.237500X0*%
%TD*%
%TA.AperFunction,SMDPad,CuDef*%
%ADD17RoundRect,0.250001X-0.624999X0.462499X-0.624999X-0.462499X0.624999X-0.462499X0.624999X0.462499X0*%
%TD*%
%TA.AperFunction,SMDPad,CuDef*%
%ADD18RoundRect,0.250000X2.290000X-0.250000X2.290000X0.250000X-2.290000X0.250000X-2.290000X-0.250000X0*%
%TD*%
%TA.AperFunction,SMDPad,CuDef*%
%ADD19FreePoly0,90.000000*%
%TD*%
%TA.AperFunction,SMDPad,CuDef*%
%ADD20FreePoly1,90.000000*%
%TD*%
%TA.AperFunction,SMDPad,CuDef*%
%ADD21R,1.560000X0.400000*%
%TD*%
%TA.AperFunction,SMDPad,CuDef*%
%ADD22RoundRect,0.237500X0.250000X0.237500X-0.250000X0.237500X-0.250000X-0.237500X0.250000X-0.237500X0*%
%TD*%
%TA.AperFunction,SMDPad,CuDef*%
%ADD23RoundRect,0.250000X-0.412500X-0.650000X0.412500X-0.650000X0.412500X0.650000X-0.412500X0.650000X0*%
%TD*%
%TA.AperFunction,ComponentPad*%
%ADD24RoundRect,0.250000X-0.845000X0.620000X-0.845000X-0.620000X0.845000X-0.620000X0.845000X0.620000X0*%
%TD*%
%TA.AperFunction,ComponentPad*%
%ADD25O,2.190000X1.740000*%
%TD*%
%TA.AperFunction,SMDPad,CuDef*%
%ADD26RoundRect,0.237500X-0.237500X0.250000X-0.237500X-0.250000X0.237500X-0.250000X0.237500X0.250000X0*%
%TD*%
%TA.AperFunction,SMDPad,CuDef*%
%ADD27RoundRect,0.150000X-0.825000X-0.150000X0.825000X-0.150000X0.825000X0.150000X-0.825000X0.150000X0*%
%TD*%
%TA.AperFunction,SMDPad,CuDef*%
%ADD28RoundRect,0.250000X-0.625000X0.400000X-0.625000X-0.400000X0.625000X-0.400000X0.625000X0.400000X0*%
%TD*%
%TA.AperFunction,SMDPad,CuDef*%
%ADD29RoundRect,0.237500X0.237500X-0.250000X0.237500X0.250000X-0.237500X0.250000X-0.237500X-0.250000X0*%
%TD*%
%TA.AperFunction,ComponentPad*%
%ADD30RoundRect,0.250000X0.845000X-0.620000X0.845000X0.620000X-0.845000X0.620000X-0.845000X-0.620000X0*%
%TD*%
%TA.AperFunction,SMDPad,CuDef*%
%ADD31RoundRect,0.250000X-2.290000X0.250000X-2.290000X-0.250000X2.290000X-0.250000X2.290000X0.250000X0*%
%TD*%
%TA.AperFunction,SMDPad,CuDef*%
%ADD32FreePoly0,270.000000*%
%TD*%
%TA.AperFunction,SMDPad,CuDef*%
%ADD33FreePoly1,270.000000*%
%TD*%
%TA.AperFunction,ComponentPad*%
%ADD34R,1.350000X1.350000*%
%TD*%
%TA.AperFunction,ComponentPad*%
%ADD35O,1.350000X1.350000*%
%TD*%
%TA.AperFunction,ComponentPad*%
%ADD36C,1.440000*%
%TD*%
%TA.AperFunction,ViaPad*%
%ADD37C,0.600000*%
%TD*%
%TA.AperFunction,ViaPad*%
%ADD38C,1.000000*%
%TD*%
%TA.AperFunction,ViaPad*%
%ADD39C,0.800000*%
%TD*%
%TA.AperFunction,Conductor*%
%ADD40C,0.250000*%
%TD*%
%TA.AperFunction,Conductor*%
%ADD41C,0.600000*%
%TD*%
%TA.AperFunction,Conductor*%
%ADD42C,0.300000*%
%TD*%
G04 APERTURE END LIST*
D10*
%TO.P,MH1,1,1*%
%TO.N,GND*%
X62215000Y-56360000D03*
X62808109Y-54928109D03*
X62808109Y-57791891D03*
X64240000Y-54335000D03*
D11*
X64240000Y-56360000D03*
D10*
X64240000Y-58385000D03*
X65671891Y-54928109D03*
X65671891Y-57791891D03*
X66265000Y-56360000D03*
%TD*%
D12*
%TO.P,C4,1*%
%TO.N,Net-(J14-Pin_1)*%
X90862500Y-61590000D03*
%TO.P,C4,2*%
%TO.N,Net-(J14-Pin_2)*%
X89137500Y-61590000D03*
%TD*%
D13*
%TO.P,D1,1,K*%
%TO.N,GND*%
X113881200Y-70325200D03*
%TO.P,D1,2,A*%
%TO.N,Net-(D1-A)*%
X113881200Y-67350200D03*
%TD*%
D14*
%TO.P,J1,1,Pin_1*%
%TO.N,GND*%
X111389800Y-77633400D03*
D15*
%TO.P,J1,2,Pin_2*%
%TO.N,Net-(J1-Pin_2)*%
X108849800Y-77633400D03*
%TO.P,J1,3,Pin_3*%
%TO.N,Net-(J1-Pin_3)*%
X106309800Y-77633400D03*
%TD*%
D16*
%TO.P,R2,1*%
%TO.N,/Signal*%
X69727500Y-68360000D03*
%TO.P,R2,2*%
%TO.N,Net-(J12-Pin_1)*%
X71552500Y-68360000D03*
%TD*%
D10*
%TO.P,MH4,1,1*%
%TO.N,GND*%
X114215000Y-78360000D03*
X114808109Y-76928109D03*
X114808109Y-79791891D03*
X116240000Y-76335000D03*
D11*
X116240000Y-78360000D03*
D10*
X116240000Y-80385000D03*
X117671891Y-76928109D03*
X117671891Y-79791891D03*
X118265000Y-78360000D03*
%TD*%
%TO.P,MH3,1,1*%
%TO.N,GND*%
X62215000Y-78360000D03*
X62808109Y-76928109D03*
X62808109Y-79791891D03*
X64240000Y-76335000D03*
D11*
X64240000Y-78360000D03*
D10*
X64240000Y-80385000D03*
X65671891Y-76928109D03*
X65671891Y-79791891D03*
X66265000Y-78360000D03*
%TD*%
D17*
%TO.P,D2,1,K*%
%TO.N,Net-(D1-A)*%
X111636824Y-67347466D03*
%TO.P,D2,2,A*%
%TO.N,GND*%
X111636824Y-70322466D03*
%TD*%
D16*
%TO.P,R7,1*%
%TO.N,Net-(U1C-+)*%
X91027500Y-69635000D03*
%TO.P,R7,2*%
%TO.N,GND*%
X92852500Y-69635000D03*
%TD*%
D18*
%TO.P,J4,1,In*%
%TO.N,Net-(D1-A)*%
X117675000Y-67360000D03*
D19*
%TO.P,J4,2,Ext*%
%TO.N,GND*%
X117675000Y-63110000D03*
D20*
X117675000Y-71610000D03*
%TD*%
D21*
%TO.P,U2,1*%
%TO.N,Net-(U3--)*%
X104367007Y-67272716D03*
%TO.P,U2,2*%
%TO.N,Net-(R12-Pad1)*%
X104367007Y-67922716D03*
%TO.P,U2,3,GND*%
%TO.N,GND*%
X104367007Y-68582716D03*
%TO.P,U2,4,V+*%
%TO.N,Net-(U2B-V+)*%
X104367007Y-69232716D03*
%TO.P,U2,5,VL*%
%TO.N,unconnected-(U2B-VL-Pad5)*%
X107067007Y-69232716D03*
%TO.P,U2,6*%
%TO.N,Net-(J1-Pin_2)*%
X107067007Y-68582716D03*
%TO.P,U2,7,V-*%
%TO.N,Net-(U2B-V-)*%
X107067007Y-67922716D03*
%TO.P,U2,8*%
%TO.N,Net-(D1-A)*%
X107067007Y-67272716D03*
%TD*%
D22*
%TO.P,R11,1*%
%TO.N,Net-(J15-Pin_2)*%
X89102500Y-73685000D03*
%TO.P,R11,2*%
%TO.N,Net-(U3-+)*%
X87277500Y-73685000D03*
%TD*%
%TO.P,R10,1*%
%TO.N,Net-(J14-Pin_2)*%
X89132500Y-63050000D03*
%TO.P,R10,2*%
%TO.N,Net-(U3-+)*%
X87307500Y-63050000D03*
%TD*%
D23*
%TO.P,C2,1*%
%TO.N,Net-(C2-Pad1)*%
X74902500Y-78410000D03*
%TO.P,C2,2*%
%TO.N,Net-(J15-Pin_1)*%
X78027500Y-78410000D03*
%TD*%
D24*
%TO.P,J14,1,Pin_1*%
%TO.N,Net-(J14-Pin_1)*%
X87620000Y-56390000D03*
D25*
%TO.P,J14,2,Pin_2*%
%TO.N,Net-(J14-Pin_2)*%
X87620000Y-58930000D03*
%TD*%
D26*
%TO.P,R4,1*%
%TO.N,/Signal*%
X69740000Y-69847500D03*
%TO.P,R4,2*%
%TO.N,Net-(C2-Pad1)*%
X69740000Y-71672500D03*
%TD*%
D14*
%TO.P,J17,1,Pin_1*%
%TO.N,/+PWR*%
X103760000Y-55860000D03*
D15*
%TO.P,J17,2,Pin_2*%
%TO.N,GND*%
X101220000Y-55860000D03*
%TO.P,J17,3,Pin_3*%
%TO.N,/-PWR*%
X98680000Y-55860000D03*
%TD*%
D27*
%TO.P,U1,1*%
%TO.N,Net-(J11-Pin_2)*%
X84095000Y-64550000D03*
%TO.P,U1,2,-*%
%TO.N,Net-(J11-Pin_1)*%
X84095000Y-65820000D03*
%TO.P,U1,3,+*%
%TO.N,GND*%
X84095000Y-67090000D03*
%TO.P,U1,4,V+*%
%TO.N,Net-(U1E-V+)*%
X84095000Y-68360000D03*
%TO.P,U1,5,+*%
%TO.N,Net-(U1B-+)*%
X84095000Y-69630000D03*
%TO.P,U1,6,-*%
%TO.N,Net-(J12-Pin_1)*%
X84095000Y-70900000D03*
%TO.P,U1,7*%
%TO.N,Net-(J12-Pin_2)*%
X84095000Y-72170000D03*
%TO.P,U1,8*%
%TO.N,Net-(J15-Pin_2)*%
X89045000Y-72170000D03*
%TO.P,U1,9,-*%
%TO.N,Net-(J15-Pin_1)*%
X89045000Y-70900000D03*
%TO.P,U1,10,+*%
%TO.N,Net-(U1C-+)*%
X89045000Y-69630000D03*
%TO.P,U1,11,V-*%
%TO.N,Net-(U1E-V-)*%
X89045000Y-68360000D03*
%TO.P,U1,12,+*%
%TO.N,Net-(U1D-+)*%
X89045000Y-67090000D03*
%TO.P,U1,13,-*%
%TO.N,Net-(J14-Pin_1)*%
X89045000Y-65820000D03*
%TO.P,U1,14*%
%TO.N,Net-(J14-Pin_2)*%
X89045000Y-64550000D03*
%TD*%
D28*
%TO.P,R13,1*%
%TO.N,Net-(D1-A)*%
X109395010Y-67284966D03*
%TO.P,R13,2*%
%TO.N,GND*%
X109395010Y-70384966D03*
%TD*%
D16*
%TO.P,R9,1*%
%TO.N,Net-(J12-Pin_2)*%
X83967500Y-73670000D03*
%TO.P,R9,2*%
%TO.N,Net-(U3-+)*%
X85792500Y-73670000D03*
%TD*%
D29*
%TO.P,R3,1*%
%TO.N,/Signal*%
X69740000Y-64872500D03*
%TO.P,R3,2*%
%TO.N,Net-(C1-Pad1)*%
X69740000Y-63047500D03*
%TD*%
D24*
%TO.P,J12,1,Pin_1*%
%TO.N,Net-(J12-Pin_1)*%
X76370000Y-71200000D03*
D25*
%TO.P,J12,2,Pin_2*%
%TO.N,Net-(J12-Pin_2)*%
X76370000Y-73740000D03*
%TD*%
D10*
%TO.P,MH2,1,1*%
%TO.N,GND*%
X114215000Y-56360000D03*
X114808109Y-54928109D03*
X114808109Y-57791891D03*
X116240000Y-54335000D03*
D11*
X116240000Y-56360000D03*
D10*
X116240000Y-58385000D03*
X117671891Y-54928109D03*
X117671891Y-57791891D03*
X118265000Y-56360000D03*
%TD*%
D30*
%TO.P,J15,1,Pin_1*%
%TO.N,Net-(J15-Pin_1)*%
X83635000Y-79030000D03*
D25*
%TO.P,J15,2,Pin_2*%
%TO.N,Net-(J15-Pin_2)*%
X83635000Y-76490000D03*
%TD*%
D30*
%TO.P,J11,1,Pin_1*%
%TO.N,Net-(J11-Pin_1)*%
X79335000Y-64030000D03*
D25*
%TO.P,J11,2,Pin_2*%
%TO.N,Net-(J11-Pin_2)*%
X79335000Y-61490000D03*
%TD*%
D31*
%TO.P,J3,1,In*%
%TO.N,/Signal*%
X62805000Y-67360000D03*
D32*
%TO.P,J3,2,Ext*%
%TO.N,GND*%
X62805000Y-71610000D03*
D33*
X62805000Y-63110000D03*
%TD*%
D34*
%TO.P,J16,1,Pin_1*%
%TO.N,Net-(J15-Pin_1)*%
X91190000Y-76085000D03*
D35*
%TO.P,J16,2,Pin_2*%
%TO.N,Net-(J15-Pin_2)*%
X89190000Y-76085000D03*
%TD*%
D34*
%TO.P,J13,1,Pin_1*%
%TO.N,Net-(J12-Pin_1)*%
X81290000Y-71035000D03*
D35*
%TO.P,J13,2,Pin_2*%
%TO.N,Net-(J12-Pin_2)*%
X81290000Y-73035000D03*
%TD*%
D16*
%TO.P,R1,1*%
%TO.N,/Signal*%
X69727500Y-66360000D03*
%TO.P,R1,2*%
%TO.N,Net-(J11-Pin_1)*%
X71552500Y-66360000D03*
%TD*%
D26*
%TO.P,R12,1*%
%TO.N,Net-(R12-Pad1)*%
X102450000Y-68277500D03*
%TO.P,R12,2*%
%TO.N,GND*%
X102450000Y-70102500D03*
%TD*%
%TO.P,R14,1*%
%TO.N,GND*%
X93290000Y-64122500D03*
%TO.P,R14,2*%
%TO.N,Net-(U3--)*%
X93290000Y-65947500D03*
%TD*%
D27*
%TO.P,U3,1,NC*%
%TO.N,unconnected-(U3-NC-Pad1)*%
X95299800Y-64743400D03*
%TO.P,U3,2,-*%
%TO.N,Net-(U3--)*%
X95299800Y-66013400D03*
%TO.P,U3,3,+*%
%TO.N,Net-(U3-+)*%
X95299800Y-67283400D03*
%TO.P,U3,4,V-*%
%TO.N,Net-(U3-V-)*%
X95299800Y-68553400D03*
%TO.P,U3,5,NC*%
%TO.N,unconnected-(U3-NC-Pad5)*%
X100249800Y-68553400D03*
%TO.P,U3,6*%
%TO.N,Net-(U3--)*%
X100249800Y-67283400D03*
%TO.P,U3,7,V+*%
%TO.N,Net-(U3-V+)*%
X100249800Y-66013400D03*
%TO.P,U3,8,NC*%
%TO.N,unconnected-(U3-NC-Pad8)*%
X100249800Y-64743400D03*
%TD*%
D16*
%TO.P,R6,1*%
%TO.N,Net-(U1D-+)*%
X91027500Y-67435000D03*
%TO.P,R6,2*%
%TO.N,GND*%
X92852500Y-67435000D03*
%TD*%
D23*
%TO.P,C1,1*%
%TO.N,Net-(C1-Pad1)*%
X75127500Y-56785000D03*
%TO.P,C1,2*%
%TO.N,Net-(J14-Pin_1)*%
X78252500Y-56785000D03*
%TD*%
D16*
%TO.P,R8,1*%
%TO.N,Net-(J11-Pin_2)*%
X84002587Y-63049078D03*
%TO.P,R8,2*%
%TO.N,Net-(U3-+)*%
X85827587Y-63049078D03*
%TD*%
D36*
%TO.P,RV1,1,1*%
%TO.N,/+PWR*%
X101890000Y-74930000D03*
%TO.P,RV1,2,2*%
%TO.N,Net-(J1-Pin_3)*%
X101890000Y-77470000D03*
%TO.P,RV1,3,3*%
%TO.N,GND*%
X101890000Y-80010000D03*
%TD*%
D37*
%TO.N,GND*%
X119490000Y-74885368D03*
X91490000Y-63560000D03*
X78937425Y-53110000D03*
X111590000Y-65435000D03*
X65990000Y-68860000D03*
X72940000Y-77935000D03*
X72840000Y-60285000D03*
X68105384Y-80610000D03*
X117990000Y-65860000D03*
X69065000Y-62085000D03*
X108140000Y-75010000D03*
X65687425Y-53110000D03*
X82455635Y-54110000D03*
X71590000Y-59085000D03*
X62240000Y-65860000D03*
X97015000Y-68735000D03*
X66706655Y-53110000D03*
X60740000Y-64110000D03*
X118490000Y-60324285D03*
X119740000Y-70360000D03*
X109465000Y-74310000D03*
X98740000Y-71035000D03*
X81890000Y-68035000D03*
X98690000Y-64660000D03*
X64490000Y-65860000D03*
X98673385Y-67940939D03*
X83468319Y-54110000D03*
X87165000Y-64035000D03*
X119490000Y-73872684D03*
X72265000Y-75210000D03*
X68745117Y-53110000D03*
X60990000Y-77923421D03*
X73841271Y-53110000D03*
X60990000Y-55159225D03*
X108990000Y-71110000D03*
X60990000Y-59293075D03*
X118490000Y-80610000D03*
X63740000Y-65860000D03*
X119490000Y-75898053D03*
X87415000Y-68185000D03*
X68278053Y-54110000D03*
X75879732Y-53110000D03*
X118490000Y-73967142D03*
X91765000Y-62560000D03*
X64490000Y-68860000D03*
X76898963Y-53110000D03*
X63740000Y-68860000D03*
X60990000Y-56192687D03*
X80430266Y-54110000D03*
X118990000Y-70360000D03*
X96940000Y-63760000D03*
X84033578Y-53110000D03*
X108040000Y-63685000D03*
X81465000Y-65085000D03*
X66252684Y-54110000D03*
X61990000Y-60324285D03*
X100865000Y-59185000D03*
X62240000Y-68860000D03*
X62990000Y-64110000D03*
X119490000Y-60326537D03*
X85890000Y-72660000D03*
X79956655Y-53110000D03*
X68657551Y-81610000D03*
X70815000Y-65285000D03*
X118240000Y-64110000D03*
X60740000Y-64860000D03*
X79417581Y-54110000D03*
X119490000Y-57226150D03*
X62240000Y-70360000D03*
X98715000Y-60485000D03*
X60990000Y-58259612D03*
X67086153Y-80610000D03*
X119490000Y-78936106D03*
X72715000Y-68510000D03*
X91515000Y-65385000D03*
X81442950Y-54110000D03*
X72715000Y-70585000D03*
X92915000Y-64935000D03*
X90190000Y-58360000D03*
X74140000Y-71910000D03*
X93340000Y-67485000D03*
X61990000Y-75074285D03*
X118490000Y-76181428D03*
X75366844Y-54110000D03*
X60990000Y-75898053D03*
X71316106Y-54110000D03*
X118740000Y-68860000D03*
X106640000Y-71510000D03*
X119490000Y-59293075D03*
X90465000Y-73785000D03*
X85315000Y-78235000D03*
X118490000Y-54110000D03*
X116740000Y-70360000D03*
X119490000Y-58259612D03*
X74860502Y-53110000D03*
X67265369Y-54110000D03*
X62240000Y-64110000D03*
X60990000Y-57226150D03*
X80975886Y-53110000D03*
X60740000Y-65860000D03*
X86157312Y-53110000D03*
X61490000Y-64110000D03*
X96240000Y-71185000D03*
X74240000Y-64785000D03*
X101590000Y-72110000D03*
X103240000Y-66110000D03*
X81040000Y-79260000D03*
X82565000Y-60760000D03*
X118990000Y-64110000D03*
X60990000Y-74885368D03*
X83014348Y-53110000D03*
X81015000Y-56060000D03*
X97040000Y-62035000D03*
X64490000Y-64110000D03*
X62990000Y-70360000D03*
X87165000Y-72660000D03*
X119490000Y-55159225D03*
X104690000Y-60335000D03*
X85815000Y-69435000D03*
X62990000Y-65860000D03*
X85890000Y-64035000D03*
X60990000Y-78936106D03*
X61490000Y-68860000D03*
X119490000Y-68860000D03*
X72328791Y-54110000D03*
X117240000Y-68860000D03*
X80890000Y-74335000D03*
X91490000Y-57785000D03*
X118240000Y-70360000D03*
X87115000Y-77260000D03*
X77918194Y-53110000D03*
X64606814Y-81610000D03*
X67725886Y-53110000D03*
X61990000Y-76181428D03*
X109395010Y-68834966D03*
X61490000Y-70360000D03*
X103290000Y-73635000D03*
X73341475Y-54110000D03*
X89040000Y-60510000D03*
X67644867Y-81610000D03*
X117490000Y-70360000D03*
X66615000Y-68360000D03*
X70790000Y-69385000D03*
X71265000Y-76335000D03*
X64322687Y-53110000D03*
X73815000Y-76760000D03*
X117990000Y-68860000D03*
X65240000Y-65860000D03*
X80815000Y-66535000D03*
X82540000Y-71685000D03*
X67844999Y-79314999D03*
X79365000Y-77660000D03*
X76379528Y-54110000D03*
X102840000Y-58685000D03*
X97040000Y-65385000D03*
X97015000Y-70410000D03*
X91863204Y-77311012D03*
X92140000Y-73785000D03*
X82165000Y-62285000D03*
X78404897Y-54110000D03*
X74890000Y-58360000D03*
X116885870Y-81610000D03*
X116740000Y-64110000D03*
X96601574Y-66686753D03*
X69090000Y-73985000D03*
X97040000Y-60485000D03*
X61990000Y-54110000D03*
X90454380Y-77290088D03*
X65240000Y-70360000D03*
X119490000Y-77923421D03*
X118490000Y-59288571D03*
X119490000Y-76910737D03*
X62990000Y-68860000D03*
X109465000Y-63085000D03*
X60740000Y-70360000D03*
X119740000Y-69610000D03*
X60740000Y-68860000D03*
X68715000Y-66710000D03*
X74354160Y-54110000D03*
X81995117Y-53110000D03*
X101740000Y-57635000D03*
X71802809Y-53110000D03*
X93665000Y-68660000D03*
X65619498Y-81610000D03*
X69290738Y-54110000D03*
X118740000Y-65860000D03*
X65990000Y-65860000D03*
X61990000Y-80610000D03*
X92565000Y-66860000D03*
X98690000Y-69385000D03*
X119740000Y-64110000D03*
X116490000Y-65860000D03*
X105265000Y-71935000D03*
X98715000Y-66610000D03*
X119490000Y-56192687D03*
X117490000Y-64110000D03*
X116490000Y-68860000D03*
X96765000Y-72935000D03*
X106040000Y-64510000D03*
X98715000Y-62010000D03*
X117240000Y-65860000D03*
X87340000Y-65360000D03*
X84740000Y-60560000D03*
X80090000Y-72460000D03*
X65240000Y-64110000D03*
X118490000Y-75074285D03*
X113890000Y-71760000D03*
X97110000Y-58310000D03*
X111640000Y-71635000D03*
X63740000Y-70360000D03*
X64490000Y-70360000D03*
X101340000Y-69610000D03*
X73740000Y-56985000D03*
X66615000Y-66360000D03*
X61490000Y-65860000D03*
X90140999Y-62438010D03*
X63740000Y-64110000D03*
X65240000Y-68860000D03*
X91790000Y-60510000D03*
X89623887Y-78142225D03*
X70390000Y-73435000D03*
X70303422Y-54110000D03*
X87365000Y-70985000D03*
X60990000Y-76910737D03*
X73590000Y-63335000D03*
X68715000Y-68010000D03*
X101604397Y-66602232D03*
X119740000Y-65110000D03*
X72822040Y-53110000D03*
X85042575Y-53110000D03*
X63594129Y-81610000D03*
X85440000Y-61960000D03*
X61990000Y-59288571D03*
X85790000Y-66810000D03*
X63289225Y-53110000D03*
X70590000Y-62310000D03*
X88015000Y-62010000D03*
X74715000Y-70410000D03*
X76265000Y-63260000D03*
X90533899Y-71889481D03*
X90279765Y-79343695D03*
X66632182Y-81610000D03*
X119490000Y-65860000D03*
X60740000Y-69610000D03*
X82840000Y-57685000D03*
X70783578Y-53110000D03*
X117190774Y-53110000D03*
X69764348Y-53110000D03*
X77392213Y-54110000D03*
X60990000Y-60326537D03*
%TO.N,Net-(U2B-V+)*%
X104365000Y-69385000D03*
%TO.N,Net-(U2B-V-)*%
X108450000Y-68420000D03*
%TO.N,Net-(U1E-V+)*%
X84200000Y-68360000D03*
%TO.N,Net-(U1E-V-)*%
X89640000Y-68350000D03*
D38*
%TO.N,/-PWR*%
X98680000Y-58310000D03*
D39*
X108480000Y-64690000D03*
D37*
%TO.N,Net-(U3-V-)*%
X95169800Y-68630000D03*
%TO.N,Net-(U3-V+)*%
X100640000Y-66010000D03*
%TO.N,Net-(U1B-+)*%
X83680000Y-69635000D03*
%TO.N,Net-(U3-+)*%
X94290000Y-67260000D03*
X86530000Y-73670000D03*
X86530000Y-63070000D03*
%TD*%
D40*
%TO.N,/Signal*%
X62805000Y-67360000D02*
X69640000Y-67360000D01*
%TO.N,Net-(J12-Pin_1)*%
X83960000Y-71035000D02*
X84095000Y-70900000D01*
X81290000Y-71035000D02*
X83960000Y-71035000D01*
X76535000Y-71035000D02*
X81290000Y-71035000D01*
X76370000Y-71200000D02*
X76535000Y-71035000D01*
X71552500Y-68360000D02*
X74187475Y-70994975D01*
X74682449Y-71200000D02*
X76370000Y-71200000D01*
X74187450Y-70995000D02*
G75*
G03*
X74682449Y-71200000I494950J495000D01*
G01*
%TO.N,Net-(J12-Pin_2)*%
X80585000Y-73740000D02*
X81290000Y-73035000D01*
X76370000Y-73740000D02*
X80585000Y-73740000D01*
%TO.N,Net-(J14-Pin_1)*%
X89170000Y-56390000D02*
X90862500Y-58082500D01*
X87620000Y-56390000D02*
X89170000Y-56390000D01*
X90595026Y-65614974D02*
X90657475Y-65552525D01*
X87225000Y-56785000D02*
X87620000Y-56390000D01*
X78252500Y-56785000D02*
X87225000Y-56785000D01*
X90862500Y-58082500D02*
X90862500Y-61590000D01*
X89045000Y-65820000D02*
X90100051Y-65820000D01*
X90862500Y-65057551D02*
X90862500Y-61590000D01*
X90657450Y-65552500D02*
G75*
G03*
X90862500Y-65057551I-494950J495000D01*
G01*
X90100051Y-65820035D02*
G75*
G03*
X90595025Y-65614973I-51J700035D01*
G01*
%TO.N,Net-(J14-Pin_2)*%
X87620000Y-60072500D02*
X87620000Y-58930000D01*
X89137500Y-61590000D02*
X87620000Y-60072500D01*
%TO.N,Net-(J15-Pin_1)*%
X89850026Y-78824974D02*
X90984975Y-77690025D01*
X91190000Y-77195051D02*
X91190000Y-76085000D01*
X78027500Y-78410000D02*
X83015000Y-78410000D01*
X90984974Y-71404974D02*
X90685025Y-71105025D01*
X91190000Y-76085000D02*
X91190000Y-71899949D01*
X83635000Y-79030000D02*
X89355051Y-79030000D01*
X90190051Y-70900000D02*
X89045000Y-70900000D01*
X83015000Y-78410000D02*
X83635000Y-79030000D01*
X90685050Y-71105000D02*
G75*
G03*
X90190051Y-70900000I-494950J-495000D01*
G01*
X90985000Y-77690050D02*
G75*
G03*
X91190000Y-77195051I-495000J494950D01*
G01*
X91190035Y-71899949D02*
G75*
G03*
X90984973Y-71404975I-700035J-51D01*
G01*
X89355051Y-79029965D02*
G75*
G03*
X89850026Y-78824974I49J699965D01*
G01*
%TO.N,Net-(J15-Pin_2)*%
X89102500Y-72227500D02*
X89045000Y-72170000D01*
X89190000Y-73772500D02*
X89102500Y-73685000D01*
X83635000Y-76490000D02*
X88785000Y-76490000D01*
X89102500Y-73685000D02*
X89102500Y-72227500D01*
X88785000Y-76490000D02*
X89190000Y-76085000D01*
%TO.N,Net-(U2B-V-)*%
X108099163Y-68069163D02*
X108450000Y-68420000D01*
X107067007Y-67922716D02*
X107745609Y-67922716D01*
X108099155Y-68069171D02*
G75*
G03*
X107745609Y-67922716I-353555J-353529D01*
G01*
D41*
%TO.N,/-PWR*%
X98680000Y-58310000D02*
X101265000Y-58310000D01*
X107645000Y-64690000D02*
X108480000Y-64690000D01*
X101265000Y-58310000D02*
X107645000Y-64690000D01*
D40*
%TO.N,Net-(J1-Pin_2)*%
X106211271Y-68582716D02*
X107067007Y-68582716D01*
X105910000Y-71510051D02*
X105910000Y-68883987D01*
X105997868Y-68671855D02*
X105999139Y-68670584D01*
X108849800Y-77633400D02*
X108849800Y-75029749D01*
X108644774Y-74534774D02*
X106115025Y-72005025D01*
X106211271Y-68582691D02*
G75*
G03*
X105999139Y-68670584I29J-300009D01*
G01*
X105997874Y-68671861D02*
G75*
G03*
X105910000Y-68883987I212126J-212139D01*
G01*
X105910035Y-71510051D02*
G75*
G03*
X106115025Y-72005025I699965J-49D01*
G01*
X108849765Y-75029749D02*
G75*
G03*
X108644774Y-74534774I-699965J49D01*
G01*
%TO.N,Net-(J11-Pin_1)*%
X80919974Y-65614974D02*
X79335000Y-64030000D01*
X74172449Y-64030000D02*
X79335000Y-64030000D01*
X71552500Y-66360000D02*
X73677475Y-64235025D01*
X84095000Y-65820000D02*
X81414949Y-65820000D01*
X80919999Y-65614949D02*
G75*
G03*
X81414949Y-65820000I495001J494949D01*
G01*
X74172449Y-64029965D02*
G75*
G03*
X73677476Y-64235026I51J-700035D01*
G01*
%TO.N,Net-(J11-Pin_2)*%
X84002500Y-63035000D02*
X82662525Y-61695025D01*
X82167551Y-61490000D02*
X79335000Y-61490000D01*
X82662500Y-61695050D02*
G75*
G03*
X82167551Y-61490000I-495000J-494950D01*
G01*
%TO.N,Net-(U1D-+)*%
X90682500Y-67090000D02*
X91027500Y-67435000D01*
X89045000Y-67090000D02*
X90682500Y-67090000D01*
%TO.N,Net-(U3-+)*%
X86530000Y-63070000D02*
X86550000Y-63050000D01*
X85822500Y-63050000D02*
X86550000Y-63050000D01*
%TO.N,Net-(R12-Pad1)*%
X104367007Y-67922716D02*
X102697284Y-67922716D01*
D42*
%TO.N,Net-(U3--)*%
X95299800Y-66013400D02*
X96563451Y-66013400D01*
X97058426Y-66218426D02*
X97918375Y-67078375D01*
X98413349Y-67283400D02*
X100249800Y-67283400D01*
D40*
X100260484Y-67272716D02*
X104367007Y-67272716D01*
X100249800Y-67283400D02*
X100260484Y-67272716D01*
D42*
X97918400Y-67078350D02*
G75*
G03*
X98413349Y-67283400I495000J494950D01*
G01*
X97058451Y-66218401D02*
G75*
G03*
X96563451Y-66013400I-494951J-494999D01*
G01*
D40*
%TO.N,Net-(C1-Pad1)*%
X69945026Y-61967474D02*
X75127500Y-56785000D01*
X69740000Y-63047500D02*
X69740000Y-62462449D01*
X69945001Y-61967449D02*
G75*
G03*
X69740000Y-62462449I494999J-494951D01*
G01*
%TO.N,Net-(C2-Pad1)*%
X74704949Y-78410000D02*
X74902500Y-78410000D01*
X69945026Y-73940026D02*
X74209975Y-78204975D01*
X69740000Y-71672500D02*
X69740000Y-73445051D01*
X74209950Y-78205000D02*
G75*
G03*
X74704949Y-78410000I494950J495000D01*
G01*
X69740035Y-73445051D02*
G75*
G03*
X69945026Y-73940026I699965J-49D01*
G01*
%TD*%
%TA.AperFunction,Conductor*%
%TO.N,Net-(U3-+)*%
G36*
X87280332Y-73205054D02*
G01*
X87299589Y-73206758D01*
X87417896Y-73226612D01*
X87454456Y-73238822D01*
X87552243Y-73289530D01*
X87583281Y-73312370D01*
X87657424Y-73387273D01*
X87660775Y-73390658D01*
X87683304Y-73421935D01*
X87733011Y-73520233D01*
X87744847Y-73556916D01*
X87761957Y-73665663D01*
X87761937Y-73704334D01*
X87744824Y-73812383D01*
X87732836Y-73849280D01*
X87683198Y-73946700D01*
X87660394Y-73978086D01*
X87583086Y-74055394D01*
X87551700Y-74078198D01*
X87454280Y-74127836D01*
X87417383Y-74139824D01*
X87299641Y-74158473D01*
X87280243Y-74160000D01*
X85812257Y-74160000D01*
X85792859Y-74158473D01*
X85671253Y-74139212D01*
X85634356Y-74127224D01*
X85533452Y-74075811D01*
X85502066Y-74053007D01*
X85421992Y-73972933D01*
X85399188Y-73941547D01*
X85347775Y-73840643D01*
X85335787Y-73803746D01*
X85318082Y-73691958D01*
X85318102Y-73653043D01*
X85335811Y-73541968D01*
X85347950Y-73504863D01*
X85399292Y-73404856D01*
X85422368Y-73373367D01*
X85502264Y-73294282D01*
X85533982Y-73271532D01*
X85634512Y-73221211D01*
X85671735Y-73209452D01*
X85773164Y-73194340D01*
X85792755Y-73191422D01*
X85812289Y-73190074D01*
X87280332Y-73205054D01*
G37*
%TD.AperFunction*%
%TD*%
%TA.AperFunction,Conductor*%
%TO.N,GND*%
G36*
X116406245Y-52369362D02*
G01*
X116430110Y-52369658D01*
X116431210Y-52369685D01*
X116439097Y-52369976D01*
X116455112Y-52370568D01*
X116539835Y-52374729D01*
X116582414Y-52376821D01*
X116583609Y-52376895D01*
X116610816Y-52378901D01*
X116625815Y-52380008D01*
X116628994Y-52380346D01*
X116724229Y-52393631D01*
X116803334Y-52404666D01*
X116971208Y-52429568D01*
X116972267Y-52429738D01*
X116999381Y-52434442D01*
X117002180Y-52435013D01*
X117179338Y-52476680D01*
X117352964Y-52520171D01*
X117353987Y-52520440D01*
X117365341Y-52523583D01*
X117367808Y-52524336D01*
X117545138Y-52583771D01*
X117545994Y-52584069D01*
X117720772Y-52646605D01*
X117724052Y-52647914D01*
X117898914Y-52725123D01*
X117900004Y-52725622D01*
X118067351Y-52804771D01*
X118070246Y-52806260D01*
X118237484Y-52899411D01*
X118238832Y-52900191D01*
X118397283Y-52995164D01*
X118399809Y-52996784D01*
X118557832Y-53105032D01*
X118559344Y-53106111D01*
X118661383Y-53181786D01*
X118707653Y-53216102D01*
X118709767Y-53217763D01*
X118857197Y-53340188D01*
X118858816Y-53341593D01*
X118995521Y-53465495D01*
X118997281Y-53467170D01*
X119132828Y-53602717D01*
X119134503Y-53604477D01*
X119258405Y-53741182D01*
X119259810Y-53742801D01*
X119382235Y-53890231D01*
X119383913Y-53892367D01*
X119493887Y-54040654D01*
X119494966Y-54042166D01*
X119603214Y-54200189D01*
X119604834Y-54202715D01*
X119699807Y-54361166D01*
X119700594Y-54362527D01*
X119793735Y-54529746D01*
X119795239Y-54532670D01*
X119874355Y-54699949D01*
X119874890Y-54701118D01*
X119952077Y-54875930D01*
X119953402Y-54879250D01*
X120015924Y-55053989D01*
X120016252Y-55054934D01*
X120072701Y-55223355D01*
X120075649Y-55232149D01*
X120076422Y-55234678D01*
X120079537Y-55245933D01*
X120079837Y-55247073D01*
X120098695Y-55322355D01*
X120123318Y-55420658D01*
X120124374Y-55425145D01*
X120164976Y-55597779D01*
X120165562Y-55600648D01*
X120170239Y-55627600D01*
X120170432Y-55628801D01*
X120195344Y-55796747D01*
X120219649Y-55970984D01*
X120219989Y-55974182D01*
X120223103Y-56016396D01*
X120223178Y-56017609D01*
X120231529Y-56187596D01*
X120232133Y-56200672D01*
X120232887Y-56221012D01*
X120232917Y-56222208D01*
X120233220Y-56245762D01*
X120239500Y-63798220D01*
X120239500Y-66589240D01*
X120220593Y-66647431D01*
X120171093Y-66683395D01*
X120109907Y-66683395D01*
X120107803Y-66682685D01*
X120074542Y-66671047D01*
X120049699Y-66662354D01*
X120049697Y-66662353D01*
X120049694Y-66662353D01*
X120019274Y-66659500D01*
X120019266Y-66659500D01*
X116991244Y-66659500D01*
X116984976Y-66659102D01*
X116900866Y-66648376D01*
X116894118Y-66647741D01*
X116880950Y-66646936D01*
X116880957Y-66646936D01*
X116874194Y-66646744D01*
X115216745Y-66654112D01*
X115164039Y-66639192D01*
X115047424Y-66566701D01*
X115034781Y-66560012D01*
X115034757Y-66560001D01*
X114841037Y-66474158D01*
X114841009Y-66474147D01*
X114827601Y-66469288D01*
X114827595Y-66469286D01*
X114813729Y-66465327D01*
X114787462Y-66457827D01*
X114787460Y-66457826D01*
X114787458Y-66457826D01*
X114783320Y-66456950D01*
X114773475Y-66454867D01*
X114648425Y-66437367D01*
X114570499Y-66426462D01*
X114563455Y-66425725D01*
X114563431Y-66425723D01*
X114549428Y-66424748D01*
X114542294Y-66424500D01*
X114542286Y-66424500D01*
X108820835Y-66424500D01*
X108818546Y-66424555D01*
X108815863Y-66424620D01*
X108805996Y-66425099D01*
X108801091Y-66425459D01*
X108800934Y-66425473D01*
X108611979Y-66443943D01*
X108611921Y-66443950D01*
X108602044Y-66445403D01*
X108602023Y-66445407D01*
X108573344Y-66451066D01*
X108573325Y-66451070D01*
X108563603Y-66453485D01*
X108386219Y-66506864D01*
X108376784Y-66510212D01*
X108376777Y-66510215D01*
X108349714Y-66521332D01*
X108349703Y-66521337D01*
X108340674Y-66525570D01*
X108172760Y-66614523D01*
X108168396Y-66616973D01*
X108160022Y-66621943D01*
X108160005Y-66621954D01*
X108155755Y-66624620D01*
X107806455Y-66855775D01*
X107751820Y-66872216D01*
X106267259Y-66872216D01*
X106267258Y-66872216D01*
X106267248Y-66872217D01*
X106208779Y-66883848D01*
X106208773Y-66883850D01*
X106142458Y-66928161D01*
X106142452Y-66928167D01*
X106098141Y-66994482D01*
X106098139Y-66994488D01*
X106086508Y-67052957D01*
X106086507Y-67052969D01*
X106086507Y-67492462D01*
X106086508Y-67492474D01*
X106098139Y-67550946D01*
X106101820Y-67559832D01*
X106106619Y-67620829D01*
X106101820Y-67635598D01*
X106098140Y-67644481D01*
X106086507Y-67702965D01*
X106086507Y-68142472D01*
X106091766Y-68168904D01*
X106084576Y-68229666D01*
X106043044Y-68274596D01*
X106032564Y-68279680D01*
X105914960Y-68328407D01*
X105914956Y-68328409D01*
X105812508Y-68396878D01*
X105768966Y-68440428D01*
X105768967Y-68440429D01*
X105746378Y-68463018D01*
X105746319Y-68463081D01*
X105732507Y-68476898D01*
X105724154Y-68485252D01*
X105655704Y-68587686D01*
X105655700Y-68587693D01*
X105608543Y-68701526D01*
X105584502Y-68822364D01*
X105584501Y-68822372D01*
X105584500Y-68855508D01*
X105584500Y-68883971D01*
X105584498Y-68943492D01*
X105584500Y-68943517D01*
X105584500Y-71540311D01*
X105584531Y-71541055D01*
X105584529Y-71590735D01*
X105584529Y-71590736D01*
X105586709Y-71604508D01*
X105609768Y-71750158D01*
X105609769Y-71750162D01*
X105609770Y-71750166D01*
X105650087Y-71874274D01*
X105659641Y-71903685D01*
X105659646Y-71903696D01*
X105732905Y-72047497D01*
X105732912Y-72047510D01*
X105827782Y-72178102D01*
X105827786Y-72178107D01*
X105863157Y-72213482D01*
X105863177Y-72213503D01*
X105872466Y-72222793D01*
X105872469Y-72222795D01*
X105884849Y-72235176D01*
X105926932Y-72277261D01*
X105926952Y-72277278D01*
X108412309Y-74762637D01*
X108416585Y-74767513D01*
X108466172Y-74832144D01*
X108479093Y-74854526D01*
X108506524Y-74920760D01*
X108513212Y-74945727D01*
X108523876Y-75026774D01*
X108524299Y-75033240D01*
X108524297Y-75089237D01*
X108524300Y-75089274D01*
X108524300Y-76315045D01*
X108505393Y-76373236D01*
X108455893Y-76409200D01*
X108454042Y-76409781D01*
X108438160Y-76414599D01*
X108438146Y-76414605D01*
X108252186Y-76514002D01*
X108089184Y-76647774D01*
X108089174Y-76647784D01*
X107955402Y-76810786D01*
X107856003Y-76996749D01*
X107856001Y-76996754D01*
X107794788Y-77198544D01*
X107794787Y-77198550D01*
X107779300Y-77355808D01*
X107779300Y-77910991D01*
X107794787Y-78068249D01*
X107794788Y-78068255D01*
X107856001Y-78270045D01*
X107856003Y-78270050D01*
X107955402Y-78456013D01*
X108028394Y-78544954D01*
X108089179Y-78619021D01*
X108089184Y-78619025D01*
X108252186Y-78752797D01*
X108438149Y-78852196D01*
X108438155Y-78852199D01*
X108578732Y-78894842D01*
X108639944Y-78913411D01*
X108639949Y-78913412D01*
X108849797Y-78934080D01*
X108849800Y-78934080D01*
X108849803Y-78934080D01*
X109059650Y-78913412D01*
X109059655Y-78913411D01*
X109060070Y-78913285D01*
X109261445Y-78852199D01*
X109418579Y-78768209D01*
X109447413Y-78752797D01*
X109447414Y-78752795D01*
X109447416Y-78752795D01*
X109610421Y-78619021D01*
X109744195Y-78456016D01*
X109776120Y-78396290D01*
X109814064Y-78325301D01*
X109843599Y-78270045D01*
X109904811Y-78068255D01*
X109905074Y-78065593D01*
X109920300Y-77910991D01*
X109920300Y-77355808D01*
X109904812Y-77198550D01*
X109904811Y-77198544D01*
X109885922Y-77136277D01*
X109843599Y-76996755D01*
X109843596Y-76996749D01*
X109744197Y-76810786D01*
X109610425Y-76647784D01*
X109610421Y-76647779D01*
X109555175Y-76602440D01*
X109447413Y-76514002D01*
X109261453Y-76414605D01*
X109261450Y-76414603D01*
X109261445Y-76414601D01*
X109261440Y-76414599D01*
X109261439Y-76414599D01*
X109245558Y-76409781D01*
X109195363Y-76374794D01*
X109175319Y-76316985D01*
X109175300Y-76315045D01*
X109175300Y-74999499D01*
X109175267Y-74998747D01*
X109175271Y-74949064D01*
X109150030Y-74789633D01*
X109100159Y-74636114D01*
X109026886Y-74492287D01*
X108932015Y-74361694D01*
X108896357Y-74326033D01*
X108896341Y-74326015D01*
X108895073Y-74324747D01*
X108895072Y-74324745D01*
X108865256Y-74294929D01*
X108865255Y-74294927D01*
X108865252Y-74294925D01*
X108836023Y-74265693D01*
X108836000Y-74265673D01*
X106352417Y-71782091D01*
X106352412Y-71782086D01*
X106347493Y-71777166D01*
X106343234Y-71772311D01*
X106293626Y-71707654D01*
X106280706Y-71685273D01*
X106279330Y-71681950D01*
X106253273Y-71619035D01*
X106246588Y-71594077D01*
X106235922Y-71513019D01*
X106235500Y-71506559D01*
X106235500Y-71506267D01*
X106235503Y-71458520D01*
X106235501Y-71458515D01*
X106235502Y-71451319D01*
X106235500Y-71451277D01*
X106235500Y-69732216D01*
X106254407Y-69674025D01*
X106303907Y-69638061D01*
X106334500Y-69633216D01*
X107866754Y-69633216D01*
X107866755Y-69633216D01*
X107925238Y-69621583D01*
X107991559Y-69577268D01*
X108035874Y-69510947D01*
X108047507Y-69452464D01*
X108047507Y-69012968D01*
X108047506Y-69012966D01*
X108047506Y-69012960D01*
X108038065Y-68965500D01*
X108035874Y-68954485D01*
X108035873Y-68954483D01*
X108034440Y-68947280D01*
X108041630Y-68886519D01*
X108083162Y-68841588D01*
X108143171Y-68829650D01*
X108185060Y-68844680D01*
X108234323Y-68876339D01*
X108239947Y-68879953D01*
X108334500Y-68907716D01*
X108378035Y-68920499D01*
X108378036Y-68920499D01*
X108378039Y-68920500D01*
X108378041Y-68920500D01*
X108521959Y-68920500D01*
X108521961Y-68920500D01*
X108660053Y-68879953D01*
X108781128Y-68802143D01*
X108875377Y-68693373D01*
X108935165Y-68562457D01*
X108946265Y-68485252D01*
X108955647Y-68420002D01*
X108955647Y-68419997D01*
X108935165Y-68277543D01*
X108933654Y-68272396D01*
X108935398Y-68211236D01*
X108972758Y-68162781D01*
X109028642Y-68145500D01*
X110248667Y-68145500D01*
X110275059Y-68149083D01*
X110574469Y-68231899D01*
X110577815Y-68232764D01*
X110577842Y-68232770D01*
X110577844Y-68232771D01*
X110584434Y-68234355D01*
X110587796Y-68235104D01*
X110587841Y-68235113D01*
X110587849Y-68235115D01*
X110670248Y-68252022D01*
X110720034Y-68262238D01*
X110726857Y-68263400D01*
X110740343Y-68265233D01*
X110747251Y-68265934D01*
X110881955Y-68275036D01*
X110885406Y-68275211D01*
X110892208Y-68275441D01*
X110895684Y-68275500D01*
X110895688Y-68275500D01*
X114547373Y-68275500D01*
X114547390Y-68275500D01*
X114554016Y-68275286D01*
X114554023Y-68275285D01*
X114554039Y-68275285D01*
X114566997Y-68274448D01*
X114566999Y-68274447D01*
X114567011Y-68274447D01*
X114573613Y-68273806D01*
X114773240Y-68247898D01*
X114786260Y-68245345D01*
X114823723Y-68235454D01*
X114836300Y-68231249D01*
X115028731Y-68152785D01*
X115040666Y-68146995D01*
X115161523Y-68078400D01*
X115210390Y-68065500D01*
X116875132Y-68065500D01*
X116881822Y-68065281D01*
X116881835Y-68065280D01*
X116881839Y-68065280D01*
X116895018Y-68064416D01*
X116895022Y-68064415D01*
X116895031Y-68064415D01*
X116898064Y-68064116D01*
X116901710Y-68063757D01*
X116921214Y-68061189D01*
X116923230Y-68060924D01*
X116929698Y-68060500D01*
X120019273Y-68060500D01*
X120019273Y-68060499D01*
X120049699Y-68057646D01*
X120107801Y-68037315D01*
X120168972Y-68035942D01*
X120219267Y-68070785D01*
X120239475Y-68128537D01*
X120239500Y-68130759D01*
X120239500Y-78358864D01*
X120239447Y-78361142D01*
X120235061Y-78456013D01*
X120231520Y-78532606D01*
X120223179Y-78702390D01*
X120223104Y-78703603D01*
X120219990Y-78745813D01*
X120219650Y-78749011D01*
X120195327Y-78923370D01*
X120170440Y-79091150D01*
X120170247Y-79092351D01*
X120165562Y-79119351D01*
X120164976Y-79122221D01*
X120123323Y-79299321D01*
X120079842Y-79472908D01*
X120079532Y-79474084D01*
X120076425Y-79485313D01*
X120075652Y-79487841D01*
X120016252Y-79665064D01*
X120015924Y-79666009D01*
X119953402Y-79840748D01*
X119952077Y-79844068D01*
X119874890Y-80018880D01*
X119874355Y-80020049D01*
X119795239Y-80187328D01*
X119793735Y-80190252D01*
X119700594Y-80357471D01*
X119699807Y-80358832D01*
X119604834Y-80517283D01*
X119603214Y-80519809D01*
X119494966Y-80677832D01*
X119493887Y-80679344D01*
X119383913Y-80827631D01*
X119382235Y-80829767D01*
X119259810Y-80977197D01*
X119258405Y-80978816D01*
X119134503Y-81115521D01*
X119132828Y-81117281D01*
X118997281Y-81252828D01*
X118995521Y-81254503D01*
X118858816Y-81378405D01*
X118857197Y-81379810D01*
X118709767Y-81502235D01*
X118707631Y-81503913D01*
X118559344Y-81613887D01*
X118557832Y-81614966D01*
X118399809Y-81723214D01*
X118397283Y-81724834D01*
X118238832Y-81819807D01*
X118237471Y-81820594D01*
X118070252Y-81913735D01*
X118067328Y-81915239D01*
X117900049Y-81994355D01*
X117898880Y-81994890D01*
X117724068Y-82072077D01*
X117720748Y-82073402D01*
X117546009Y-82135924D01*
X117545064Y-82136252D01*
X117367841Y-82195652D01*
X117365323Y-82196421D01*
X117358944Y-82198187D01*
X117354084Y-82199532D01*
X117352908Y-82199842D01*
X117179321Y-82243323D01*
X117002221Y-82284976D01*
X116999351Y-82285562D01*
X116972351Y-82290247D01*
X116971150Y-82290440D01*
X116803370Y-82315327D01*
X116629011Y-82339650D01*
X116625813Y-82339990D01*
X116583603Y-82343104D01*
X116582390Y-82343179D01*
X116412601Y-82351520D01*
X116241141Y-82359447D01*
X116238865Y-82359500D01*
X64241135Y-82359500D01*
X64238858Y-82359447D01*
X64189720Y-82357175D01*
X64067535Y-82351526D01*
X64067389Y-82351471D01*
X64067250Y-82351513D01*
X63897609Y-82343179D01*
X63896396Y-82343104D01*
X63854185Y-82339990D01*
X63850987Y-82339650D01*
X63676628Y-82315327D01*
X63508841Y-82290439D01*
X63507640Y-82290246D01*
X63480648Y-82285562D01*
X63477779Y-82284976D01*
X63358860Y-82257007D01*
X63300658Y-82243318D01*
X63127073Y-82199837D01*
X63125933Y-82199537D01*
X63114678Y-82196422D01*
X63112149Y-82195649D01*
X62934934Y-82136252D01*
X62933989Y-82135924D01*
X62759250Y-82073402D01*
X62755930Y-82072077D01*
X62581118Y-81994890D01*
X62579949Y-81994355D01*
X62412670Y-81915239D01*
X62409746Y-81913735D01*
X62242527Y-81820594D01*
X62241166Y-81819807D01*
X62082715Y-81724834D01*
X62080189Y-81723214D01*
X61922166Y-81614966D01*
X61920654Y-81613887D01*
X61794621Y-81520417D01*
X61772356Y-81503904D01*
X61770231Y-81502235D01*
X61622801Y-81379810D01*
X61621182Y-81378405D01*
X61484477Y-81254503D01*
X61482717Y-81252828D01*
X61347170Y-81117281D01*
X61345495Y-81115521D01*
X61221593Y-80978816D01*
X61220188Y-80977197D01*
X61097763Y-80829767D01*
X61096102Y-80827653D01*
X61061786Y-80781383D01*
X60986111Y-80679344D01*
X60985032Y-80677832D01*
X60876784Y-80519809D01*
X60875164Y-80517283D01*
X60780191Y-80358832D01*
X60779404Y-80357471D01*
X60686263Y-80190252D01*
X60684771Y-80187351D01*
X60605622Y-80020004D01*
X60605123Y-80018914D01*
X60527914Y-79844052D01*
X60526605Y-79840772D01*
X60464069Y-79665994D01*
X60463771Y-79665138D01*
X60404336Y-79487808D01*
X60403583Y-79485341D01*
X60400440Y-79473987D01*
X60400171Y-79472964D01*
X60356677Y-79299321D01*
X60315018Y-79122199D01*
X60314439Y-79119362D01*
X60309749Y-79092333D01*
X60309559Y-79091150D01*
X60284660Y-78923295D01*
X60283281Y-78913412D01*
X60270023Y-78818363D01*
X60269851Y-78816991D01*
X60268037Y-78800665D01*
X60264831Y-78771819D01*
X60264564Y-78768209D01*
X60261925Y-78697768D01*
X60261891Y-78695956D01*
X60261889Y-78693412D01*
X60256304Y-71975266D01*
X69064500Y-71975266D01*
X69067274Y-72004844D01*
X69067276Y-72004852D01*
X69110884Y-72129476D01*
X69188894Y-72235176D01*
X69189289Y-72235711D01*
X69189292Y-72235713D01*
X69189293Y-72235714D01*
X69295521Y-72314114D01*
X69295523Y-72314114D01*
X69295525Y-72314116D01*
X69348198Y-72332547D01*
X69396878Y-72369612D01*
X69414500Y-72425991D01*
X69414500Y-73475311D01*
X69414531Y-73476055D01*
X69414529Y-73525736D01*
X69439768Y-73685158D01*
X69439769Y-73685161D01*
X69439770Y-73685167D01*
X69470144Y-73778668D01*
X69489641Y-73838686D01*
X69489643Y-73838691D01*
X69562914Y-73982513D01*
X69657782Y-74113103D01*
X69693779Y-74149104D01*
X69693806Y-74149132D01*
X69709806Y-74165133D01*
X69709807Y-74165133D01*
X69714852Y-74170178D01*
X69714851Y-74170178D01*
X69714856Y-74170182D01*
X69756925Y-74212256D01*
X69756958Y-74212284D01*
X73940963Y-78396290D01*
X73940983Y-78396313D01*
X73951218Y-78406547D01*
X73951269Y-78406648D01*
X73979799Y-78435174D01*
X73979799Y-78435175D01*
X74010499Y-78465872D01*
X74038280Y-78520386D01*
X74039500Y-78535879D01*
X74039500Y-79114274D01*
X74042353Y-79144694D01*
X74042355Y-79144703D01*
X74087207Y-79272883D01*
X74167845Y-79382144D01*
X74167847Y-79382146D01*
X74167850Y-79382150D01*
X74167853Y-79382152D01*
X74167855Y-79382154D01*
X74277116Y-79462792D01*
X74277117Y-79462792D01*
X74277118Y-79462793D01*
X74405301Y-79507646D01*
X74435725Y-79510499D01*
X74435727Y-79510500D01*
X74435734Y-79510500D01*
X75369273Y-79510500D01*
X75369273Y-79510499D01*
X75399699Y-79507646D01*
X75527882Y-79462793D01*
X75637150Y-79382150D01*
X75717793Y-79272882D01*
X75762646Y-79144699D01*
X75765499Y-79114274D01*
X77164500Y-79114274D01*
X77167353Y-79144694D01*
X77167355Y-79144703D01*
X77212207Y-79272883D01*
X77292845Y-79382144D01*
X77292847Y-79382146D01*
X77292850Y-79382150D01*
X77292853Y-79382152D01*
X77292855Y-79382154D01*
X77402116Y-79462792D01*
X77402117Y-79462792D01*
X77402118Y-79462793D01*
X77530301Y-79507646D01*
X77560725Y-79510499D01*
X77560727Y-79510500D01*
X77560734Y-79510500D01*
X78494273Y-79510500D01*
X78494273Y-79510499D01*
X78524699Y-79507646D01*
X78652882Y-79462793D01*
X78762150Y-79382150D01*
X78842793Y-79272882D01*
X78887646Y-79144699D01*
X78890499Y-79114273D01*
X78890500Y-79114273D01*
X78890500Y-78834500D01*
X78909407Y-78776309D01*
X78958907Y-78740345D01*
X78989500Y-78735500D01*
X82240500Y-78735500D01*
X82298691Y-78754407D01*
X82334655Y-78803907D01*
X82339500Y-78834500D01*
X82339500Y-79704274D01*
X82342353Y-79734694D01*
X82342355Y-79734703D01*
X82387207Y-79862883D01*
X82467845Y-79972144D01*
X82467847Y-79972146D01*
X82467850Y-79972150D01*
X82467853Y-79972152D01*
X82467855Y-79972154D01*
X82577116Y-80052792D01*
X82577117Y-80052792D01*
X82577118Y-80052793D01*
X82705301Y-80097646D01*
X82735725Y-80100499D01*
X82735727Y-80100500D01*
X82735734Y-80100500D01*
X84534273Y-80100500D01*
X84534273Y-80100499D01*
X84564699Y-80097646D01*
X84692882Y-80052793D01*
X84802150Y-79972150D01*
X84882793Y-79862882D01*
X84927646Y-79734699D01*
X84930499Y-79704273D01*
X84930500Y-79704273D01*
X84930500Y-79454500D01*
X84949407Y-79396309D01*
X84998907Y-79360345D01*
X85029500Y-79355500D01*
X89385313Y-79355500D01*
X89386051Y-79355467D01*
X89435736Y-79355471D01*
X89595167Y-79330230D01*
X89748686Y-79280359D01*
X89892513Y-79207086D01*
X90023106Y-79112215D01*
X90056603Y-79078719D01*
X90056615Y-79078710D01*
X90060050Y-79075274D01*
X90060054Y-79075272D01*
X90080335Y-79054990D01*
X90116634Y-79018696D01*
X90116634Y-79018694D01*
X90123056Y-79012274D01*
X90123079Y-79012245D01*
X91171583Y-77963742D01*
X91171599Y-77963730D01*
X91178697Y-77956632D01*
X91186546Y-77948782D01*
X91186648Y-77948730D01*
X91215174Y-77920200D01*
X91215175Y-77920201D01*
X91272243Y-77863127D01*
X91367116Y-77732530D01*
X91440392Y-77588698D01*
X91478951Y-77470000D01*
X100964430Y-77470000D01*
X100978356Y-77602501D01*
X100984657Y-77662442D01*
X101044448Y-77846458D01*
X101044454Y-77846472D01*
X101103524Y-77948783D01*
X101141198Y-78014036D01*
X101270673Y-78157833D01*
X101427215Y-78271567D01*
X101427219Y-78271569D01*
X101427221Y-78271570D01*
X101485722Y-78297616D01*
X101603983Y-78350269D01*
X101793252Y-78390500D01*
X101793254Y-78390500D01*
X101986746Y-78390500D01*
X101986748Y-78390500D01*
X102176017Y-78350269D01*
X102352785Y-78271567D01*
X102509327Y-78157833D01*
X102638802Y-78014036D01*
X102698295Y-77910991D01*
X105239300Y-77910991D01*
X105254787Y-78068249D01*
X105254788Y-78068255D01*
X105316001Y-78270045D01*
X105316003Y-78270050D01*
X105415402Y-78456013D01*
X105488394Y-78544954D01*
X105549179Y-78619021D01*
X105549184Y-78619025D01*
X105712186Y-78752797D01*
X105898149Y-78852196D01*
X105898155Y-78852199D01*
X106038731Y-78894842D01*
X106099944Y-78913411D01*
X106099949Y-78913412D01*
X106309797Y-78934080D01*
X106309800Y-78934080D01*
X106309803Y-78934080D01*
X106519650Y-78913412D01*
X106519655Y-78913411D01*
X106520070Y-78913285D01*
X106721445Y-78852199D01*
X106878579Y-78768209D01*
X106907413Y-78752797D01*
X106907414Y-78752795D01*
X106907416Y-78752795D01*
X107070421Y-78619021D01*
X107204195Y-78456016D01*
X107236120Y-78396290D01*
X107274064Y-78325301D01*
X107303599Y-78270045D01*
X107364811Y-78068255D01*
X107365074Y-78065593D01*
X107380300Y-77910991D01*
X107380300Y-77355808D01*
X107364812Y-77198550D01*
X107364811Y-77198544D01*
X107345922Y-77136277D01*
X107303599Y-76996755D01*
X107303596Y-76996749D01*
X107204197Y-76810786D01*
X107070425Y-76647784D01*
X107070421Y-76647779D01*
X107015175Y-76602440D01*
X106907413Y-76514002D01*
X106721450Y-76414603D01*
X106721445Y-76414601D01*
X106519655Y-76353388D01*
X106519650Y-76353387D01*
X106309803Y-76332720D01*
X106309797Y-76332720D01*
X106099949Y-76353387D01*
X106099944Y-76353388D01*
X105898154Y-76414601D01*
X105898149Y-76414603D01*
X105712186Y-76514002D01*
X105549184Y-76647774D01*
X105549174Y-76647784D01*
X105415402Y-76810786D01*
X105316003Y-76996749D01*
X105316001Y-76996754D01*
X105254788Y-77198544D01*
X105254787Y-77198550D01*
X105239300Y-77355808D01*
X105239300Y-77910991D01*
X102698295Y-77910991D01*
X102735550Y-77846463D01*
X102795344Y-77662437D01*
X102815570Y-77470000D01*
X102795344Y-77277563D01*
X102735550Y-77093537D01*
X102735547Y-77093532D01*
X102735545Y-77093527D01*
X102669657Y-76979407D01*
X102638802Y-76925964D01*
X102509327Y-76782167D01*
X102352785Y-76668433D01*
X102352781Y-76668431D01*
X102352778Y-76668429D01*
X102176019Y-76589732D01*
X102176017Y-76589731D01*
X102176014Y-76589730D01*
X102176013Y-76589730D01*
X102126707Y-76579249D01*
X101986748Y-76549500D01*
X101793252Y-76549500D01*
X101691072Y-76571219D01*
X101603986Y-76589730D01*
X101603980Y-76589732D01*
X101427221Y-76668429D01*
X101427218Y-76668431D01*
X101270671Y-76782168D01*
X101141196Y-76925966D01*
X101141196Y-76925967D01*
X101044454Y-77093527D01*
X101044448Y-77093541D01*
X100984657Y-77277557D01*
X100984656Y-77277561D01*
X100984656Y-77277563D01*
X100964430Y-77470000D01*
X91478951Y-77470000D01*
X91490264Y-77435174D01*
X91515505Y-77275739D01*
X91515500Y-77195028D01*
X91515500Y-77190829D01*
X91515500Y-77059500D01*
X91534407Y-77001309D01*
X91583907Y-76965345D01*
X91614500Y-76960500D01*
X91884747Y-76960500D01*
X91884748Y-76960500D01*
X91943231Y-76948867D01*
X92009552Y-76904552D01*
X92053867Y-76838231D01*
X92065500Y-76779748D01*
X92065500Y-75390252D01*
X92053867Y-75331769D01*
X92009552Y-75265448D01*
X92009548Y-75265445D01*
X91943233Y-75221134D01*
X91943231Y-75221133D01*
X91943228Y-75221132D01*
X91943227Y-75221132D01*
X91884758Y-75209501D01*
X91884748Y-75209500D01*
X91884747Y-75209500D01*
X91614500Y-75209500D01*
X91556309Y-75190593D01*
X91520345Y-75141093D01*
X91515500Y-75110500D01*
X91515500Y-74930000D01*
X100964430Y-74930000D01*
X100983401Y-75110500D01*
X100984657Y-75122442D01*
X101044448Y-75306458D01*
X101044454Y-75306472D01*
X101092819Y-75390241D01*
X101141198Y-75474036D01*
X101270673Y-75617833D01*
X101427215Y-75731567D01*
X101427219Y-75731569D01*
X101427221Y-75731570D01*
X101485722Y-75757616D01*
X101603983Y-75810269D01*
X101793252Y-75850500D01*
X101793254Y-75850500D01*
X101986746Y-75850500D01*
X101986748Y-75850500D01*
X102176017Y-75810269D01*
X102352785Y-75731567D01*
X102509327Y-75617833D01*
X102638802Y-75474036D01*
X102735550Y-75306463D01*
X102795344Y-75122437D01*
X102815570Y-74930000D01*
X102795344Y-74737563D01*
X102735550Y-74553537D01*
X102735547Y-74553532D01*
X102735545Y-74553527D01*
X102662029Y-74426195D01*
X102638802Y-74385964D01*
X102509327Y-74242167D01*
X102352785Y-74128433D01*
X102352781Y-74128431D01*
X102352778Y-74128429D01*
X102176019Y-74049732D01*
X102176017Y-74049731D01*
X102176014Y-74049730D01*
X102176013Y-74049730D01*
X102072540Y-74027736D01*
X101986748Y-74009500D01*
X101793252Y-74009500D01*
X101707460Y-74027736D01*
X101603986Y-74049730D01*
X101603980Y-74049732D01*
X101427221Y-74128429D01*
X101427218Y-74128431D01*
X101427215Y-74128432D01*
X101427215Y-74128433D01*
X101415166Y-74137187D01*
X101270671Y-74242168D01*
X101141196Y-74385966D01*
X101141196Y-74385967D01*
X101044454Y-74553527D01*
X101044448Y-74553541D01*
X100984657Y-74737557D01*
X100984656Y-74737561D01*
X100984656Y-74737563D01*
X100964430Y-74930000D01*
X91515500Y-74930000D01*
X91515500Y-73541996D01*
X91515500Y-72010000D01*
X92697008Y-72010000D01*
X92716854Y-72135303D01*
X92716855Y-72135307D01*
X92761432Y-72222793D01*
X92774450Y-72248342D01*
X92864158Y-72338050D01*
X92977196Y-72395646D01*
X93102500Y-72415492D01*
X93227804Y-72395646D01*
X93340842Y-72338050D01*
X93430550Y-72248342D01*
X93488146Y-72135304D01*
X93507992Y-72010000D01*
X93488146Y-71884696D01*
X93430550Y-71771658D01*
X93340842Y-71681950D01*
X93315899Y-71669241D01*
X93227807Y-71624355D01*
X93227804Y-71624354D01*
X93102500Y-71604508D01*
X92977196Y-71624354D01*
X92977192Y-71624355D01*
X92864159Y-71681949D01*
X92774449Y-71771659D01*
X92716855Y-71884692D01*
X92716854Y-71884696D01*
X92697008Y-72009999D01*
X92697008Y-72010000D01*
X91515500Y-72010000D01*
X91515500Y-71959460D01*
X91515502Y-71959436D01*
X91515502Y-71951482D01*
X91515503Y-71951479D01*
X91515502Y-71940965D01*
X91515537Y-71940856D01*
X91515534Y-71899925D01*
X91515535Y-71899925D01*
X91515529Y-71819216D01*
X91490267Y-71659787D01*
X91489541Y-71657554D01*
X91467591Y-71590012D01*
X91440376Y-71506272D01*
X91367085Y-71362451D01*
X91367082Y-71362447D01*
X91367079Y-71362442D01*
X91272204Y-71231874D01*
X91272197Y-71231865D01*
X91215128Y-71174802D01*
X91215125Y-71174798D01*
X91215125Y-71174799D01*
X90957278Y-70916952D01*
X90957261Y-70916932D01*
X90951632Y-70911303D01*
X90943780Y-70903451D01*
X90943728Y-70903349D01*
X90858129Y-70817759D01*
X90858124Y-70817755D01*
X90727530Y-70722884D01*
X90583703Y-70649610D01*
X90583695Y-70649607D01*
X90430168Y-70599734D01*
X90270739Y-70574495D01*
X90231190Y-70574497D01*
X90172998Y-70555592D01*
X90161181Y-70545501D01*
X90159198Y-70543518D01*
X90159198Y-70543517D01*
X90076483Y-70460802D01*
X90076481Y-70460801D01*
X89971395Y-70409427D01*
X89944139Y-70405456D01*
X89903260Y-70399500D01*
X88186740Y-70399500D01*
X88152673Y-70404463D01*
X88118604Y-70409427D01*
X88013518Y-70460801D01*
X87930801Y-70543518D01*
X87879427Y-70648604D01*
X87878644Y-70653980D01*
X87869500Y-70716740D01*
X87869500Y-71083260D01*
X87873293Y-71109293D01*
X87879427Y-71151395D01*
X87918771Y-71231874D01*
X87930802Y-71256483D01*
X88013517Y-71339198D01*
X88057091Y-71360500D01*
X88118604Y-71390572D01*
X88118605Y-71390572D01*
X88118607Y-71390573D01*
X88186740Y-71400500D01*
X88186743Y-71400500D01*
X89903257Y-71400500D01*
X89903260Y-71400500D01*
X89971393Y-71390573D01*
X90076483Y-71339198D01*
X90155651Y-71260029D01*
X90210166Y-71232254D01*
X90238566Y-71231881D01*
X90274087Y-71236555D01*
X90299044Y-71243241D01*
X90365292Y-71270676D01*
X90387672Y-71283596D01*
X90452104Y-71333031D01*
X90456979Y-71337306D01*
X90715752Y-71596079D01*
X90715771Y-71596101D01*
X90752519Y-71632845D01*
X90756791Y-71637715D01*
X90790737Y-71681949D01*
X90806410Y-71702372D01*
X90819332Y-71724749D01*
X90845632Y-71788231D01*
X90846779Y-71790998D01*
X90853469Y-71815961D01*
X90864076Y-71896492D01*
X90864500Y-71902954D01*
X90864500Y-75110500D01*
X90845593Y-75168691D01*
X90796093Y-75204655D01*
X90765500Y-75209500D01*
X90495252Y-75209500D01*
X90495251Y-75209500D01*
X90495241Y-75209501D01*
X90436772Y-75221132D01*
X90436766Y-75221134D01*
X90370451Y-75265445D01*
X90370445Y-75265451D01*
X90326134Y-75331766D01*
X90326132Y-75331772D01*
X90314501Y-75390241D01*
X90314500Y-75390253D01*
X90314500Y-76779746D01*
X90314501Y-76779758D01*
X90326132Y-76838227D01*
X90326134Y-76838233D01*
X90368509Y-76901650D01*
X90370448Y-76904552D01*
X90436769Y-76948867D01*
X90481231Y-76957711D01*
X90495241Y-76960498D01*
X90495246Y-76960498D01*
X90495252Y-76960500D01*
X90765500Y-76960500D01*
X90823691Y-76979407D01*
X90859655Y-77028907D01*
X90864500Y-77059500D01*
X90864500Y-77136277D01*
X90864497Y-77136319D01*
X90864499Y-77191825D01*
X90864076Y-77198292D01*
X90853445Y-77279083D01*
X90846758Y-77304044D01*
X90819323Y-77370291D01*
X90806403Y-77392671D01*
X90756967Y-77457103D01*
X90752692Y-77461978D01*
X89622166Y-78592506D01*
X89617290Y-78596782D01*
X89552655Y-78646372D01*
X89530273Y-78659293D01*
X89464039Y-78686724D01*
X89439072Y-78693412D01*
X89358025Y-78704076D01*
X89351559Y-78704499D01*
X89316166Y-78704497D01*
X89303520Y-78704497D01*
X89303519Y-78704497D01*
X89295562Y-78704497D01*
X89295526Y-78704500D01*
X85029500Y-78704500D01*
X84971309Y-78685593D01*
X84935345Y-78636093D01*
X84930500Y-78605500D01*
X84930500Y-78355726D01*
X84930499Y-78355725D01*
X84927646Y-78325305D01*
X84927646Y-78325301D01*
X84882793Y-78197118D01*
X84802150Y-78087850D01*
X84802146Y-78087847D01*
X84802144Y-78087845D01*
X84692883Y-78007207D01*
X84564703Y-77962355D01*
X84564694Y-77962353D01*
X84534274Y-77959500D01*
X84534266Y-77959500D01*
X82735734Y-77959500D01*
X82735725Y-77959500D01*
X82705305Y-77962353D01*
X82705296Y-77962355D01*
X82577116Y-78007207D01*
X82498600Y-78065155D01*
X82440552Y-78084497D01*
X82439812Y-78084500D01*
X78989500Y-78084500D01*
X78931309Y-78065593D01*
X78895345Y-78016093D01*
X78890500Y-77985500D01*
X78890500Y-77705726D01*
X78890499Y-77705725D01*
X78887646Y-77675305D01*
X78887646Y-77675301D01*
X78842793Y-77547118D01*
X78779957Y-77461978D01*
X78762154Y-77437855D01*
X78762152Y-77437853D01*
X78762150Y-77437850D01*
X78762146Y-77437847D01*
X78762144Y-77437845D01*
X78652883Y-77357207D01*
X78524703Y-77312355D01*
X78524694Y-77312353D01*
X78494274Y-77309500D01*
X78494266Y-77309500D01*
X77560734Y-77309500D01*
X77560725Y-77309500D01*
X77530305Y-77312353D01*
X77530296Y-77312355D01*
X77402116Y-77357207D01*
X77292855Y-77437845D01*
X77292845Y-77437855D01*
X77212207Y-77547116D01*
X77167355Y-77675296D01*
X77167353Y-77675305D01*
X77164500Y-77705725D01*
X77164500Y-79114274D01*
X75765499Y-79114274D01*
X75765499Y-79114273D01*
X75765500Y-79114273D01*
X75765500Y-77705726D01*
X75765499Y-77705725D01*
X75762646Y-77675305D01*
X75762646Y-77675301D01*
X75717793Y-77547118D01*
X75654957Y-77461978D01*
X75637154Y-77437855D01*
X75637152Y-77437853D01*
X75637150Y-77437850D01*
X75637146Y-77437847D01*
X75637144Y-77437845D01*
X75527883Y-77357207D01*
X75399703Y-77312355D01*
X75399694Y-77312353D01*
X75369274Y-77309500D01*
X75369266Y-77309500D01*
X74435734Y-77309500D01*
X74435725Y-77309500D01*
X74405305Y-77312353D01*
X74405296Y-77312355D01*
X74277116Y-77357207D01*
X74167855Y-77437845D01*
X74167844Y-77437856D01*
X74123771Y-77497572D01*
X74074003Y-77533164D01*
X74012819Y-77532706D01*
X73974113Y-77508787D01*
X72955329Y-76490003D01*
X82334320Y-76490003D01*
X82354987Y-76699850D01*
X82354988Y-76699855D01*
X82416201Y-76901645D01*
X82416203Y-76901650D01*
X82515602Y-77087613D01*
X82649374Y-77250615D01*
X82649379Y-77250621D01*
X82649384Y-77250625D01*
X82812386Y-77384397D01*
X82998349Y-77483796D01*
X82998355Y-77483799D01*
X83138932Y-77526442D01*
X83200144Y-77545011D01*
X83200150Y-77545012D01*
X83331850Y-77557982D01*
X83357407Y-77560500D01*
X83357408Y-77560500D01*
X83912592Y-77560500D01*
X83912593Y-77560500D01*
X83943108Y-77557494D01*
X84069849Y-77545012D01*
X84069855Y-77545011D01*
X84069854Y-77545011D01*
X84271645Y-77483799D01*
X84442133Y-77392671D01*
X84457613Y-77384397D01*
X84457614Y-77384395D01*
X84457616Y-77384395D01*
X84620621Y-77250621D01*
X84754395Y-77087616D01*
X84769424Y-77059500D01*
X84802962Y-76996754D01*
X84853799Y-76901645D01*
X84858617Y-76885761D01*
X84893601Y-76835566D01*
X84951410Y-76815519D01*
X84953354Y-76815500D01*
X88673791Y-76815500D01*
X88731981Y-76834406D01*
X88737245Y-76838231D01*
X88749839Y-76847381D01*
X88749841Y-76847382D01*
X88773639Y-76857977D01*
X88917966Y-76922236D01*
X89097981Y-76960500D01*
X89097983Y-76960500D01*
X89282017Y-76960500D01*
X89282019Y-76960500D01*
X89462034Y-76922236D01*
X89630161Y-76847381D01*
X89779050Y-76739207D01*
X89902195Y-76602440D01*
X89994214Y-76443059D01*
X90051085Y-76268029D01*
X90070322Y-76085000D01*
X90051085Y-75901971D01*
X89994214Y-75726941D01*
X89921963Y-75601801D01*
X89909253Y-75562742D01*
X89904329Y-75516285D01*
X89903209Y-75508539D01*
X89903207Y-75508525D01*
X89903204Y-75508509D01*
X89898383Y-75482284D01*
X89898380Y-75482269D01*
X89896671Y-75474625D01*
X89632519Y-74473625D01*
X89635953Y-74412538D01*
X89652095Y-74385100D01*
X89659433Y-74376270D01*
X89660567Y-74374617D01*
X89721175Y-74283912D01*
X89740166Y-74248382D01*
X89758681Y-74203682D01*
X89770374Y-74165133D01*
X89790152Y-74065703D01*
X89791633Y-74055725D01*
X89792224Y-74049731D01*
X89793226Y-74039554D01*
X89795005Y-74021493D01*
X89795500Y-74011414D01*
X89795500Y-73290276D01*
X89808368Y-73241469D01*
X89821650Y-73218031D01*
X90128456Y-72676605D01*
X90131531Y-72670748D01*
X90137903Y-72657595D01*
X90140599Y-72651540D01*
X90185244Y-72541891D01*
X90189440Y-72529324D01*
X90200943Y-72485691D01*
X90203488Y-72472691D01*
X90208731Y-72432233D01*
X90209521Y-72428609D01*
X90210572Y-72421394D01*
X90210573Y-72421393D01*
X90220500Y-72353260D01*
X90220500Y-71986740D01*
X90210573Y-71918607D01*
X90203771Y-71904694D01*
X90161984Y-71819216D01*
X90159198Y-71813517D01*
X90076483Y-71730802D01*
X90076481Y-71730801D01*
X89971395Y-71679427D01*
X89944139Y-71675456D01*
X89903260Y-71669500D01*
X89903257Y-71669500D01*
X89820404Y-71669500D01*
X89801091Y-71667598D01*
X89762117Y-71659846D01*
X89762113Y-71659845D01*
X89762111Y-71659845D01*
X89759992Y-71659530D01*
X89752125Y-71658363D01*
X89717917Y-71654995D01*
X89712309Y-71654720D01*
X89707832Y-71654500D01*
X88372168Y-71654500D01*
X88368019Y-71654703D01*
X88362084Y-71654995D01*
X88327871Y-71658363D01*
X88327870Y-71658363D01*
X88317882Y-71659845D01*
X88278908Y-71667598D01*
X88259595Y-71669500D01*
X88186740Y-71669500D01*
X88152673Y-71674463D01*
X88118604Y-71679427D01*
X88013518Y-71730801D01*
X87930801Y-71813518D01*
X87879427Y-71918604D01*
X87879427Y-71918607D01*
X87871173Y-71975261D01*
X87869500Y-71986743D01*
X87869500Y-72079733D01*
X87867598Y-72099045D01*
X87864846Y-72112876D01*
X87864846Y-72112878D01*
X87863363Y-72122873D01*
X87859995Y-72157081D01*
X87859500Y-72167174D01*
X87859500Y-72290538D01*
X87859820Y-72298664D01*
X87862012Y-72326315D01*
X87862012Y-72326318D01*
X87862974Y-72334381D01*
X87862974Y-72334382D01*
X87883762Y-72464703D01*
X87883765Y-72464721D01*
X87891396Y-72496274D01*
X87891401Y-72496294D01*
X87903545Y-72533388D01*
X87903545Y-72533389D01*
X87903551Y-72533403D01*
X87916060Y-72563370D01*
X87916063Y-72563375D01*
X87916069Y-72563390D01*
X87976373Y-72680773D01*
X87976384Y-72680795D01*
X87980361Y-72687835D01*
X87980373Y-72687856D01*
X87984846Y-72695092D01*
X87994950Y-72711437D01*
X87994956Y-72711447D01*
X87999479Y-72718155D01*
X87999490Y-72718172D01*
X88205876Y-72999606D01*
X88382549Y-73240523D01*
X88390334Y-73251138D01*
X88409499Y-73309244D01*
X88409500Y-73309683D01*
X88409500Y-73984270D01*
X88409816Y-73992298D01*
X88409819Y-73992353D01*
X88411972Y-74019731D01*
X88411973Y-74019748D01*
X88412918Y-74027736D01*
X88425282Y-74105849D01*
X88432797Y-74137166D01*
X88432800Y-74137176D01*
X88432803Y-74137187D01*
X88443517Y-74170178D01*
X88444782Y-74174074D01*
X88457104Y-74203838D01*
X88457108Y-74203847D01*
X88476621Y-74242167D01*
X88486667Y-74261894D01*
X88486674Y-74261907D01*
X88503496Y-74289377D01*
X88503497Y-74289379D01*
X88521456Y-74314115D01*
X88526282Y-74320762D01*
X88538997Y-74335660D01*
X88547213Y-74345287D01*
X88587859Y-74385964D01*
X88607133Y-74405253D01*
X88615655Y-74412538D01*
X88616515Y-74413273D01*
X88648461Y-74465456D01*
X88649105Y-74508715D01*
X88440328Y-75510845D01*
X88439047Y-75518378D01*
X88435661Y-75544008D01*
X88435656Y-75544054D01*
X88434941Y-75551607D01*
X88434939Y-75551638D01*
X88430535Y-75628301D01*
X88417435Y-75672122D01*
X88385785Y-75726941D01*
X88328916Y-75901965D01*
X88310640Y-76075849D01*
X88285753Y-76131744D01*
X88232765Y-76162337D01*
X88212182Y-76164500D01*
X84953354Y-76164500D01*
X84895163Y-76145593D01*
X84859199Y-76096093D01*
X84858617Y-76094238D01*
X84853799Y-76078355D01*
X84836992Y-76046912D01*
X84754397Y-75892386D01*
X84620625Y-75729384D01*
X84620621Y-75729379D01*
X84526050Y-75651767D01*
X84457613Y-75595602D01*
X84271650Y-75496203D01*
X84271645Y-75496201D01*
X84069855Y-75434988D01*
X84069849Y-75434987D01*
X83922866Y-75420511D01*
X83912593Y-75419500D01*
X83357407Y-75419500D01*
X83347763Y-75420449D01*
X83200150Y-75434987D01*
X83200144Y-75434988D01*
X82998354Y-75496201D01*
X82998349Y-75496203D01*
X82812386Y-75595602D01*
X82649384Y-75729374D01*
X82649374Y-75729384D01*
X82515602Y-75892386D01*
X82416203Y-76078349D01*
X82416201Y-76078354D01*
X82354988Y-76280144D01*
X82354987Y-76280149D01*
X82334320Y-76489996D01*
X82334320Y-76490003D01*
X72955329Y-76490003D01*
X70205330Y-73740003D01*
X75069320Y-73740003D01*
X75089987Y-73949850D01*
X75089988Y-73949855D01*
X75151201Y-74151645D01*
X75151203Y-74151650D01*
X75250602Y-74337613D01*
X75377542Y-74492290D01*
X75384379Y-74500621D01*
X75384384Y-74500625D01*
X75547386Y-74634397D01*
X75733349Y-74733796D01*
X75733355Y-74733799D01*
X75828422Y-74762637D01*
X75935144Y-74795011D01*
X75935150Y-74795012D01*
X76066850Y-74807982D01*
X76092407Y-74810500D01*
X76092408Y-74810500D01*
X76647592Y-74810500D01*
X76647593Y-74810500D01*
X76678108Y-74807494D01*
X76804849Y-74795012D01*
X76804855Y-74795011D01*
X77006645Y-74733799D01*
X77090765Y-74688835D01*
X77192613Y-74634397D01*
X77192614Y-74634395D01*
X77192616Y-74634395D01*
X77355621Y-74500621D01*
X77489395Y-74337616D01*
X77489561Y-74337307D01*
X77527839Y-74265693D01*
X77588799Y-74151645D01*
X77593617Y-74135761D01*
X77628601Y-74085566D01*
X77686410Y-74065519D01*
X77688354Y-74065500D01*
X80568626Y-74065500D01*
X80572926Y-74065687D01*
X80613807Y-74069264D01*
X80653452Y-74058640D01*
X80657650Y-74057710D01*
X80698045Y-74050588D01*
X80699345Y-74049838D01*
X80723236Y-74039942D01*
X80723464Y-74039880D01*
X80724684Y-74039554D01*
X80758303Y-74016012D01*
X80761911Y-74013714D01*
X80797455Y-73993194D01*
X80810860Y-73977217D01*
X80862744Y-73944794D01*
X80923781Y-73949059D01*
X80950639Y-73965270D01*
X80969353Y-73981102D01*
X80969361Y-73981107D01*
X80969366Y-73981112D01*
X80994578Y-73999354D01*
X80994591Y-73999362D01*
X80994598Y-73999367D01*
X81090979Y-74058535D01*
X81090994Y-74058543D01*
X81118635Y-74072751D01*
X81118646Y-74072756D01*
X81118656Y-74072761D01*
X81153155Y-74087306D01*
X81182661Y-74097189D01*
X81305349Y-74128180D01*
X81305355Y-74128181D01*
X81305354Y-74128181D01*
X81312952Y-74129797D01*
X81312956Y-74129797D01*
X81312967Y-74129800D01*
X81331250Y-74132969D01*
X81339093Y-74134329D01*
X81339100Y-74134330D01*
X81339129Y-74134335D01*
X81346847Y-74135374D01*
X81346868Y-74135376D01*
X81346874Y-74135377D01*
X83446875Y-74337300D01*
X83446884Y-74337300D01*
X83446949Y-74337307D01*
X83450879Y-74337638D01*
X83450923Y-74337641D01*
X83450933Y-74337642D01*
X83453948Y-74337859D01*
X83475026Y-74339377D01*
X83477484Y-74339524D01*
X83482904Y-74339784D01*
X83485362Y-74339872D01*
X83509517Y-74340452D01*
X83509996Y-74340457D01*
X83513410Y-74340500D01*
X83513446Y-74340500D01*
X83614280Y-74340500D01*
X83633174Y-74342540D01*
X83664733Y-74345499D01*
X83664738Y-74345500D01*
X83664744Y-74345500D01*
X84270262Y-74345500D01*
X84270265Y-74345499D01*
X84299849Y-74342725D01*
X84424475Y-74299116D01*
X84530711Y-74220711D01*
X84609116Y-74114475D01*
X84652725Y-73989849D01*
X84655499Y-73960266D01*
X85104500Y-73960266D01*
X85107274Y-73989844D01*
X85107276Y-73989852D01*
X85150884Y-74114476D01*
X85229285Y-74220706D01*
X85229289Y-74220711D01*
X85229292Y-74220713D01*
X85229293Y-74220714D01*
X85335523Y-74299115D01*
X85335524Y-74299115D01*
X85335525Y-74299116D01*
X85460151Y-74342725D01*
X85487419Y-74345282D01*
X85489733Y-74345499D01*
X85489738Y-74345500D01*
X85489744Y-74345500D01*
X85652263Y-74345500D01*
X85667749Y-74346718D01*
X85716440Y-74354430D01*
X85764689Y-74362073D01*
X85764691Y-74362073D01*
X85764696Y-74362074D01*
X85772710Y-74363023D01*
X85800154Y-74365183D01*
X85808207Y-74365499D01*
X85808212Y-74365500D01*
X85808221Y-74365500D01*
X87284288Y-74365500D01*
X87284291Y-74365499D01*
X87292346Y-74365183D01*
X87319790Y-74363023D01*
X87327804Y-74362074D01*
X87328592Y-74361949D01*
X87330046Y-74361719D01*
X87345533Y-74360500D01*
X87580262Y-74360500D01*
X87580265Y-74360499D01*
X87609849Y-74357725D01*
X87734475Y-74314116D01*
X87840711Y-74235711D01*
X87919116Y-74129475D01*
X87962725Y-74004849D01*
X87965500Y-73975256D01*
X87965500Y-73730897D01*
X87965652Y-73727040D01*
X87967437Y-73704440D01*
X87967457Y-73665769D01*
X87966383Y-73651989D01*
X87965650Y-73642570D01*
X87965500Y-73638724D01*
X87965500Y-73394738D01*
X87965499Y-73394733D01*
X87962725Y-73365155D01*
X87962725Y-73365151D01*
X87919116Y-73240525D01*
X87916120Y-73236466D01*
X87840714Y-73134293D01*
X87840713Y-73134292D01*
X87840711Y-73134289D01*
X87820387Y-73119289D01*
X87734476Y-73055884D01*
X87609852Y-73012276D01*
X87609851Y-73012275D01*
X87609849Y-73012275D01*
X87609847Y-73012274D01*
X87609844Y-73012274D01*
X87580266Y-73009500D01*
X87580256Y-73009500D01*
X87374073Y-73009500D01*
X87357690Y-73008135D01*
X87348436Y-73006582D01*
X87329649Y-73003429D01*
X87326344Y-73003006D01*
X87321695Y-73002411D01*
X87294450Y-73000000D01*
X87294442Y-72999999D01*
X87294424Y-72999998D01*
X87286480Y-72999607D01*
X87286440Y-72999606D01*
X87286439Y-72999606D01*
X87256615Y-72999301D01*
X85810321Y-72984542D01*
X85802219Y-72984781D01*
X85802203Y-72984781D01*
X85802196Y-72984782D01*
X85802186Y-72984782D01*
X85802160Y-72984784D01*
X85774576Y-72986687D01*
X85766478Y-72987568D01*
X85766463Y-72987570D01*
X85727208Y-72993419D01*
X85712620Y-72994500D01*
X85489733Y-72994500D01*
X85460155Y-72997274D01*
X85460147Y-72997276D01*
X85335523Y-73040884D01*
X85229293Y-73119285D01*
X85229285Y-73119293D01*
X85150884Y-73225523D01*
X85107276Y-73350147D01*
X85107274Y-73350155D01*
X85104500Y-73379733D01*
X85104500Y-73960266D01*
X84655499Y-73960266D01*
X84655500Y-73960256D01*
X84655500Y-73778667D01*
X84656719Y-73763180D01*
X84660391Y-73740000D01*
X84667074Y-73697804D01*
X84668023Y-73689790D01*
X84670183Y-73662346D01*
X84670500Y-73654279D01*
X84670500Y-73294657D01*
X84689407Y-73236466D01*
X84693231Y-73231538D01*
X84698208Y-73225525D01*
X85104493Y-72734597D01*
X85109853Y-72727519D01*
X85127076Y-72702608D01*
X85131807Y-72695091D01*
X85203185Y-72569993D01*
X85218040Y-72537780D01*
X85232491Y-72497653D01*
X85240914Y-72465891D01*
X85247659Y-72447808D01*
X85260573Y-72421393D01*
X85270500Y-72353260D01*
X85270500Y-71986740D01*
X85260573Y-71918607D01*
X85253771Y-71904694D01*
X85211984Y-71819216D01*
X85209198Y-71813517D01*
X85126483Y-71730802D01*
X85126481Y-71730801D01*
X85021395Y-71679427D01*
X84994139Y-71675456D01*
X84953260Y-71669500D01*
X84953257Y-71669500D01*
X84870404Y-71669500D01*
X84851091Y-71667598D01*
X84812117Y-71659846D01*
X84812113Y-71659845D01*
X84812111Y-71659845D01*
X84809992Y-71659530D01*
X84802125Y-71658363D01*
X84767917Y-71654995D01*
X84762309Y-71654720D01*
X84757832Y-71654500D01*
X83353281Y-71654500D01*
X83353266Y-71654500D01*
X83344326Y-71654890D01*
X83313877Y-71657553D01*
X83304977Y-71658724D01*
X83252371Y-71667997D01*
X83240301Y-71669052D01*
X83240315Y-71669241D01*
X83236745Y-71669499D01*
X83214573Y-71672729D01*
X83168607Y-71679427D01*
X83168605Y-71679427D01*
X83168604Y-71679428D01*
X83164930Y-71681224D01*
X83147084Y-71687904D01*
X83127219Y-71693226D01*
X83127216Y-71693227D01*
X83086788Y-71707935D01*
X83086761Y-71707946D01*
X83054328Y-71723063D01*
X83054313Y-71723071D01*
X82928398Y-71795740D01*
X82920855Y-71800543D01*
X82920847Y-71800549D01*
X82895806Y-71818074D01*
X82888683Y-71823538D01*
X82329451Y-72292572D01*
X82276019Y-72315194D01*
X81887198Y-72355416D01*
X81827370Y-72342596D01*
X81818821Y-72337034D01*
X81787274Y-72314114D01*
X81730161Y-72272619D01*
X81730157Y-72272617D01*
X81730154Y-72272615D01*
X81562036Y-72197765D01*
X81562034Y-72197764D01*
X81562031Y-72197763D01*
X81562030Y-72197763D01*
X81515135Y-72187795D01*
X81382019Y-72159500D01*
X81197981Y-72159500D01*
X81100797Y-72180157D01*
X81017969Y-72197763D01*
X81017963Y-72197765D01*
X80849845Y-72272615D01*
X80849842Y-72272617D01*
X80849839Y-72272618D01*
X80849839Y-72272619D01*
X80825176Y-72290538D01*
X80700948Y-72380794D01*
X80577803Y-72517562D01*
X80577803Y-72517563D01*
X80485790Y-72676931D01*
X80485784Y-72676945D01*
X80428916Y-72851965D01*
X80428915Y-72851969D01*
X80428915Y-72851971D01*
X80412066Y-73012276D01*
X80409678Y-73035000D01*
X80428915Y-73218031D01*
X80450645Y-73284908D01*
X80450644Y-73346093D01*
X80414680Y-73395593D01*
X80356490Y-73414500D01*
X77688354Y-73414500D01*
X77630163Y-73395593D01*
X77594199Y-73346093D01*
X77593617Y-73344238D01*
X77588799Y-73328355D01*
X77554496Y-73264178D01*
X77489397Y-73142386D01*
X77362343Y-72987570D01*
X77355621Y-72979379D01*
X77355615Y-72979374D01*
X77192613Y-72845602D01*
X77006650Y-72746203D01*
X77006645Y-72746201D01*
X76804855Y-72684988D01*
X76804849Y-72684987D01*
X76657866Y-72670511D01*
X76647593Y-72669500D01*
X76092407Y-72669500D01*
X76082763Y-72670449D01*
X75935150Y-72684987D01*
X75935144Y-72684988D01*
X75733354Y-72746201D01*
X75733349Y-72746203D01*
X75547386Y-72845602D01*
X75384384Y-72979374D01*
X75384374Y-72979384D01*
X75250602Y-73142386D01*
X75151203Y-73328349D01*
X75151201Y-73328354D01*
X75089988Y-73530144D01*
X75089987Y-73530149D01*
X75069320Y-73739996D01*
X75069320Y-73740003D01*
X70205330Y-73740003D01*
X70177493Y-73712166D01*
X70173217Y-73707290D01*
X70171030Y-73704440D01*
X70123626Y-73642654D01*
X70110706Y-73620273D01*
X70083273Y-73554035D01*
X70076588Y-73529077D01*
X70065922Y-73448019D01*
X70065500Y-73441559D01*
X70065503Y-73393520D01*
X70065501Y-73393515D01*
X70065502Y-73386319D01*
X70065500Y-73386277D01*
X70065500Y-72425991D01*
X70084407Y-72367800D01*
X70131801Y-72332547D01*
X70184475Y-72314116D01*
X70290711Y-72235711D01*
X70369116Y-72129475D01*
X70412725Y-72004849D01*
X70415500Y-71975256D01*
X70415500Y-71369744D01*
X70415500Y-71369738D01*
X70415499Y-71369733D01*
X70412725Y-71340155D01*
X70412725Y-71340151D01*
X70369116Y-71215525D01*
X70349316Y-71188697D01*
X70290714Y-71109293D01*
X70290713Y-71109292D01*
X70290711Y-71109289D01*
X70255443Y-71083260D01*
X70184476Y-71030884D01*
X70059852Y-70987276D01*
X70059851Y-70987275D01*
X70059849Y-70987275D01*
X70059847Y-70987274D01*
X70059844Y-70987274D01*
X70030266Y-70984500D01*
X70030256Y-70984500D01*
X69449744Y-70984500D01*
X69449733Y-70984500D01*
X69420155Y-70987274D01*
X69420147Y-70987276D01*
X69295523Y-71030884D01*
X69189293Y-71109285D01*
X69189285Y-71109293D01*
X69110884Y-71215523D01*
X69067276Y-71340147D01*
X69067274Y-71340155D01*
X69064500Y-71369733D01*
X69064500Y-71975266D01*
X60256304Y-71975266D01*
X60253112Y-68135248D01*
X60271970Y-68077048D01*
X60321440Y-68041043D01*
X60382625Y-68040992D01*
X60384809Y-68041728D01*
X60408754Y-68050106D01*
X60430301Y-68057646D01*
X60460725Y-68060499D01*
X60460727Y-68060500D01*
X60460734Y-68060500D01*
X64987983Y-68060500D01*
X65001453Y-68061493D01*
X65001459Y-68061446D01*
X65002422Y-68061564D01*
X65002500Y-68061570D01*
X65002666Y-68061595D01*
X65037288Y-68065005D01*
X65047365Y-68065500D01*
X65047381Y-68065500D01*
X65146865Y-68065500D01*
X65146868Y-68065500D01*
X65151761Y-68065383D01*
X65162622Y-68064866D01*
X65167490Y-68064518D01*
X65220479Y-68059462D01*
X65348891Y-68047210D01*
X65348908Y-68047208D01*
X65348940Y-68047205D01*
X65358615Y-68045815D01*
X65391718Y-68039440D01*
X65401220Y-68037137D01*
X65576126Y-67985822D01*
X65580781Y-67984335D01*
X65591065Y-67980779D01*
X65595646Y-67979072D01*
X66020113Y-67809285D01*
X66311873Y-67692581D01*
X66348641Y-67685500D01*
X68935500Y-67685500D01*
X68993691Y-67704407D01*
X69029655Y-67753907D01*
X69034500Y-67784500D01*
X69034500Y-67882538D01*
X69034509Y-67886032D01*
X69034533Y-67889197D01*
X69037185Y-68149083D01*
X69039500Y-68375998D01*
X69039500Y-68650254D01*
X69042447Y-68681688D01*
X69042661Y-68685806D01*
X69054606Y-69856437D01*
X69054607Y-69856480D01*
X69054998Y-69864424D01*
X69054999Y-69864442D01*
X69055000Y-69864450D01*
X69057411Y-69891695D01*
X69057412Y-69891700D01*
X69058429Y-69899649D01*
X69063135Y-69927689D01*
X69064500Y-69944073D01*
X69064500Y-70150266D01*
X69067274Y-70179844D01*
X69067276Y-70179852D01*
X69110884Y-70304476D01*
X69157116Y-70367118D01*
X69189289Y-70410711D01*
X69189292Y-70410713D01*
X69189293Y-70410714D01*
X69295523Y-70489115D01*
X69295524Y-70489115D01*
X69295525Y-70489116D01*
X69420151Y-70532725D01*
X69447441Y-70535284D01*
X69449733Y-70535499D01*
X69449738Y-70535500D01*
X69449744Y-70535500D01*
X69693724Y-70535500D01*
X69697570Y-70535650D01*
X69705415Y-70536260D01*
X69720769Y-70537457D01*
X69759440Y-70537437D01*
X69773317Y-70536341D01*
X69782028Y-70535654D01*
X69785925Y-70535500D01*
X70030262Y-70535500D01*
X70030265Y-70535499D01*
X70059849Y-70532725D01*
X70184475Y-70489116D01*
X70290711Y-70410711D01*
X70369116Y-70304475D01*
X70412725Y-70179849D01*
X70415500Y-70150256D01*
X70415500Y-69915533D01*
X70416720Y-69900041D01*
X70417072Y-69897818D01*
X70417074Y-69897804D01*
X70418023Y-69889790D01*
X70420183Y-69862346D01*
X70420500Y-69854279D01*
X70420500Y-68650266D01*
X70864500Y-68650266D01*
X70867274Y-68679844D01*
X70867276Y-68679852D01*
X70910884Y-68804476D01*
X70988676Y-68909881D01*
X70989289Y-68910711D01*
X70989292Y-68910713D01*
X70989293Y-68910714D01*
X71095523Y-68989115D01*
X71095524Y-68989115D01*
X71095525Y-68989116D01*
X71220151Y-69032725D01*
X71247441Y-69035284D01*
X71249733Y-69035499D01*
X71249738Y-69035500D01*
X71249744Y-69035500D01*
X71726666Y-69035500D01*
X71784857Y-69054407D01*
X71796670Y-69064496D01*
X73918510Y-71186338D01*
X73918517Y-71186346D01*
X73920867Y-71188696D01*
X73920868Y-71188697D01*
X73928718Y-71196547D01*
X73928770Y-71196649D01*
X73957298Y-71225175D01*
X73957299Y-71225175D01*
X74014373Y-71282243D01*
X74144970Y-71377116D01*
X74288802Y-71450392D01*
X74442326Y-71500264D01*
X74442329Y-71500264D01*
X74442331Y-71500265D01*
X74458539Y-71502830D01*
X74601761Y-71525505D01*
X74682467Y-71525500D01*
X74682475Y-71525500D01*
X74975500Y-71525500D01*
X75033691Y-71544407D01*
X75069655Y-71593907D01*
X75074500Y-71624500D01*
X75074500Y-71874274D01*
X75077353Y-71904694D01*
X75077355Y-71904703D01*
X75122207Y-72032883D01*
X75202845Y-72142144D01*
X75202847Y-72142146D01*
X75202850Y-72142150D01*
X75202853Y-72142152D01*
X75202855Y-72142154D01*
X75312116Y-72222792D01*
X75312117Y-72222792D01*
X75312118Y-72222793D01*
X75440301Y-72267646D01*
X75470725Y-72270499D01*
X75470727Y-72270500D01*
X75470734Y-72270500D01*
X77269273Y-72270500D01*
X77269273Y-72270499D01*
X77299699Y-72267646D01*
X77427882Y-72222793D01*
X77537150Y-72142150D01*
X77617793Y-72032882D01*
X77662646Y-71904699D01*
X77665499Y-71874273D01*
X77665500Y-71874273D01*
X77665500Y-71459500D01*
X77684407Y-71401309D01*
X77733907Y-71365345D01*
X77764500Y-71360500D01*
X80315500Y-71360500D01*
X80373691Y-71379407D01*
X80409655Y-71428907D01*
X80414500Y-71459500D01*
X80414500Y-71729746D01*
X80414501Y-71729758D01*
X80426132Y-71788227D01*
X80426134Y-71788233D01*
X80470445Y-71854548D01*
X80470448Y-71854552D01*
X80536769Y-71898867D01*
X80581231Y-71907711D01*
X80595241Y-71910498D01*
X80595246Y-71910498D01*
X80595252Y-71910500D01*
X80595253Y-71910500D01*
X81984747Y-71910500D01*
X81984748Y-71910500D01*
X82043231Y-71898867D01*
X82109552Y-71854552D01*
X82153867Y-71788231D01*
X82165500Y-71729748D01*
X82165500Y-71459499D01*
X82184407Y-71401309D01*
X82233907Y-71365345D01*
X82264500Y-71360500D01*
X83084187Y-71360500D01*
X83127666Y-71370558D01*
X83168607Y-71390573D01*
X83236740Y-71400500D01*
X83236743Y-71400500D01*
X84953257Y-71400500D01*
X84953260Y-71400500D01*
X85021393Y-71390573D01*
X85126483Y-71339198D01*
X85209198Y-71256483D01*
X85260573Y-71151393D01*
X85270500Y-71083260D01*
X85270500Y-70716740D01*
X85260573Y-70648607D01*
X85209198Y-70543517D01*
X85126483Y-70460802D01*
X85126481Y-70460801D01*
X85021395Y-70409427D01*
X84994139Y-70405456D01*
X84953260Y-70399500D01*
X83236740Y-70399500D01*
X83202673Y-70404463D01*
X83168604Y-70409427D01*
X83063518Y-70460801D01*
X82980801Y-70543518D01*
X82926800Y-70653980D01*
X82884256Y-70697954D01*
X82837859Y-70709500D01*
X82264500Y-70709500D01*
X82206309Y-70690593D01*
X82170345Y-70641093D01*
X82165500Y-70610500D01*
X82165500Y-70340253D01*
X82165498Y-70340241D01*
X82162711Y-70326231D01*
X82153867Y-70281769D01*
X82109552Y-70215448D01*
X82065053Y-70185714D01*
X82043233Y-70171134D01*
X82043231Y-70171133D01*
X82043228Y-70171132D01*
X82043227Y-70171132D01*
X81984758Y-70159501D01*
X81984748Y-70159500D01*
X80595252Y-70159500D01*
X80595251Y-70159500D01*
X80595241Y-70159501D01*
X80536772Y-70171132D01*
X80536766Y-70171134D01*
X80470451Y-70215445D01*
X80470445Y-70215451D01*
X80426134Y-70281766D01*
X80426132Y-70281772D01*
X80414501Y-70340241D01*
X80414500Y-70340253D01*
X80414500Y-70610500D01*
X80395593Y-70668691D01*
X80346093Y-70704655D01*
X80315500Y-70709500D01*
X77764500Y-70709500D01*
X77706309Y-70690593D01*
X77670345Y-70641093D01*
X77665500Y-70610500D01*
X77665500Y-70525727D01*
X77665499Y-70525725D01*
X77662646Y-70495305D01*
X77662646Y-70495301D01*
X77617793Y-70367118D01*
X77597965Y-70340252D01*
X77537154Y-70257855D01*
X77537152Y-70257853D01*
X77537150Y-70257850D01*
X77537146Y-70257847D01*
X77537144Y-70257845D01*
X77427883Y-70177207D01*
X77299703Y-70132355D01*
X77299694Y-70132353D01*
X77269274Y-70129500D01*
X77269266Y-70129500D01*
X75470734Y-70129500D01*
X75470725Y-70129500D01*
X75440305Y-70132353D01*
X75440296Y-70132355D01*
X75312116Y-70177207D01*
X75202855Y-70257845D01*
X75202845Y-70257855D01*
X75122207Y-70367116D01*
X75077355Y-70495296D01*
X75077353Y-70495305D01*
X75074500Y-70525725D01*
X75074500Y-70775500D01*
X75055593Y-70833691D01*
X75006093Y-70869655D01*
X74975500Y-70874500D01*
X74741974Y-70874500D01*
X74741937Y-70874497D01*
X74733980Y-70874497D01*
X74721488Y-70874497D01*
X74685674Y-70874499D01*
X74679207Y-70874076D01*
X74598416Y-70863445D01*
X74573451Y-70856757D01*
X74507210Y-70829324D01*
X74484830Y-70816405D01*
X74420398Y-70766970D01*
X74415523Y-70762695D01*
X73466088Y-69813260D01*
X82919500Y-69813260D01*
X82925478Y-69854287D01*
X82929427Y-69881395D01*
X82980801Y-69986481D01*
X82980802Y-69986483D01*
X83063517Y-70069198D01*
X83117285Y-70095483D01*
X83168604Y-70120572D01*
X83168605Y-70120572D01*
X83168607Y-70120573D01*
X83236740Y-70130500D01*
X83576776Y-70130500D01*
X83604667Y-70134510D01*
X83608039Y-70135500D01*
X83608041Y-70135500D01*
X83751959Y-70135500D01*
X83751961Y-70135500D01*
X83755332Y-70134510D01*
X83783224Y-70130500D01*
X84953257Y-70130500D01*
X84953260Y-70130500D01*
X85021393Y-70120573D01*
X85126483Y-70069198D01*
X85209198Y-69986483D01*
X85260573Y-69881393D01*
X85270500Y-69813260D01*
X85270500Y-69646692D01*
X87864311Y-69646692D01*
X87868258Y-69686773D01*
X87868429Y-69687922D01*
X87869500Y-69702443D01*
X87869500Y-69813260D01*
X87875478Y-69854287D01*
X87879427Y-69881395D01*
X87930801Y-69986481D01*
X87930802Y-69986483D01*
X88013517Y-70069198D01*
X88067285Y-70095483D01*
X88118604Y-70120572D01*
X88118605Y-70120572D01*
X88118607Y-70120573D01*
X88186740Y-70130500D01*
X88297236Y-70130500D01*
X88316547Y-70132402D01*
X88323967Y-70133877D01*
X88330374Y-70135152D01*
X88340354Y-70136633D01*
X88374586Y-70140005D01*
X88384665Y-70140500D01*
X89965584Y-70140500D01*
X89996890Y-70145580D01*
X90397634Y-70279160D01*
X90401575Y-70280386D01*
X90401590Y-70280390D01*
X90401605Y-70280395D01*
X90406355Y-70281769D01*
X90410326Y-70282918D01*
X90414323Y-70283987D01*
X90486245Y-70301688D01*
X90494343Y-70303339D01*
X90522171Y-70307855D01*
X90522196Y-70307858D01*
X90530362Y-70308848D01*
X90530364Y-70308848D01*
X90530379Y-70308850D01*
X90604193Y-70314800D01*
X90608308Y-70315049D01*
X90613829Y-70315271D01*
X90617387Y-70315416D01*
X90617413Y-70315416D01*
X90617421Y-70315417D01*
X90621562Y-70315500D01*
X90621568Y-70315500D01*
X91034288Y-70315500D01*
X91034291Y-70315499D01*
X91042346Y-70315183D01*
X91069790Y-70313023D01*
X91077804Y-70312074D01*
X91078592Y-70311949D01*
X91080046Y-70311719D01*
X91095533Y-70310500D01*
X91330262Y-70310500D01*
X91330265Y-70310499D01*
X91359849Y-70307725D01*
X91484475Y-70264116D01*
X91590711Y-70185711D01*
X91669116Y-70079475D01*
X91712725Y-69954849D01*
X91715500Y-69925256D01*
X91715500Y-69680829D01*
X91715653Y-69676945D01*
X91717427Y-69654393D01*
X91717427Y-69615610D01*
X91717427Y-69615609D01*
X91717427Y-69615602D01*
X91715651Y-69593038D01*
X91715500Y-69589194D01*
X91715500Y-69452462D01*
X103386507Y-69452462D01*
X103386508Y-69452474D01*
X103398139Y-69510943D01*
X103398140Y-69510947D01*
X103442455Y-69577268D01*
X103508776Y-69621583D01*
X103553238Y-69630427D01*
X103567248Y-69633214D01*
X103567253Y-69633214D01*
X103567259Y-69633216D01*
X103872612Y-69633216D01*
X103930803Y-69652123D01*
X103947431Y-69667385D01*
X104033870Y-69767141D01*
X104033872Y-69767143D01*
X104105631Y-69813260D01*
X104154947Y-69844953D01*
X104261403Y-69876211D01*
X104293035Y-69885499D01*
X104293036Y-69885499D01*
X104293039Y-69885500D01*
X104293041Y-69885500D01*
X104436959Y-69885500D01*
X104436961Y-69885500D01*
X104575053Y-69844953D01*
X104696128Y-69767143D01*
X104765766Y-69686776D01*
X104782569Y-69667385D01*
X104834965Y-69635789D01*
X104857388Y-69633216D01*
X105166754Y-69633216D01*
X105166755Y-69633216D01*
X105225238Y-69621583D01*
X105291559Y-69577268D01*
X105335874Y-69510947D01*
X105347507Y-69452464D01*
X105347507Y-69012968D01*
X105335874Y-68954485D01*
X105291559Y-68888164D01*
X105291555Y-68888161D01*
X105225240Y-68843850D01*
X105225238Y-68843849D01*
X105225235Y-68843848D01*
X105225234Y-68843848D01*
X105166765Y-68832217D01*
X105166755Y-68832216D01*
X103567259Y-68832216D01*
X103567258Y-68832216D01*
X103567248Y-68832217D01*
X103508779Y-68843848D01*
X103508773Y-68843850D01*
X103442458Y-68888161D01*
X103442452Y-68888167D01*
X103398141Y-68954482D01*
X103398139Y-68954488D01*
X103386508Y-69012957D01*
X103386507Y-69012969D01*
X103386507Y-69452462D01*
X91715500Y-69452462D01*
X91715500Y-69344744D01*
X91712725Y-69315151D01*
X91669116Y-69190525D01*
X91631404Y-69139427D01*
X91590714Y-69084293D01*
X91590713Y-69084292D01*
X91590711Y-69084289D01*
X91570830Y-69069616D01*
X91484476Y-69005884D01*
X91359852Y-68962276D01*
X91359851Y-68962275D01*
X91359849Y-68962275D01*
X91359847Y-68962274D01*
X91359844Y-68962274D01*
X91330266Y-68959500D01*
X91330256Y-68959500D01*
X91095532Y-68959500D01*
X91080045Y-68958281D01*
X91077815Y-68957927D01*
X91073538Y-68957421D01*
X91069789Y-68956977D01*
X91061796Y-68956347D01*
X91042367Y-68954818D01*
X91042308Y-68954815D01*
X91034296Y-68954500D01*
X91034280Y-68954500D01*
X90610400Y-68954500D01*
X90610399Y-68954500D01*
X90606812Y-68954562D01*
X90598975Y-68954834D01*
X90595324Y-68955025D01*
X90527181Y-68959774D01*
X90527095Y-68959781D01*
X90520090Y-68960514D01*
X90520041Y-68960520D01*
X90504408Y-68962709D01*
X90504383Y-68962713D01*
X90497357Y-68963947D01*
X90497356Y-68963948D01*
X90430454Y-68978118D01*
X90426931Y-68978928D01*
X90419324Y-68980818D01*
X90415891Y-68981735D01*
X89999550Y-69100691D01*
X89972352Y-69104500D01*
X88384668Y-69104500D01*
X88380519Y-69104703D01*
X88374584Y-69104995D01*
X88340367Y-69108364D01*
X88330373Y-69109846D01*
X88247770Y-69126278D01*
X88242004Y-69127426D01*
X88242002Y-69127426D01*
X88241145Y-69127597D01*
X88221829Y-69129500D01*
X88186740Y-69129500D01*
X88152673Y-69134463D01*
X88118604Y-69139427D01*
X88013518Y-69190801D01*
X87930801Y-69273518D01*
X87879427Y-69378604D01*
X87869500Y-69446743D01*
X87869500Y-69542558D01*
X87868429Y-69557081D01*
X87868259Y-69558226D01*
X87864311Y-69598313D01*
X87864311Y-69646692D01*
X85270500Y-69646692D01*
X85270500Y-69446740D01*
X85260573Y-69378607D01*
X85209198Y-69273517D01*
X85126483Y-69190802D01*
X85125912Y-69190523D01*
X85021395Y-69139427D01*
X84994139Y-69135456D01*
X84953260Y-69129500D01*
X83236740Y-69129500D01*
X83202673Y-69134463D01*
X83168604Y-69139427D01*
X83063518Y-69190801D01*
X82980801Y-69273518D01*
X82929427Y-69378604D01*
X82929427Y-69378607D01*
X82919500Y-69446740D01*
X82919500Y-69813260D01*
X73466088Y-69813260D01*
X72269496Y-68616669D01*
X72241719Y-68562152D01*
X72240500Y-68546665D01*
X72240500Y-68543260D01*
X82919500Y-68543260D01*
X82922253Y-68562152D01*
X82929427Y-68611395D01*
X82973490Y-68701526D01*
X82980802Y-68716483D01*
X83063517Y-68799198D01*
X83110904Y-68822364D01*
X83168604Y-68850572D01*
X83168605Y-68850572D01*
X83168607Y-68850573D01*
X83236740Y-68860500D01*
X83236743Y-68860500D01*
X84953257Y-68860500D01*
X84953260Y-68860500D01*
X85021393Y-68850573D01*
X85126483Y-68799198D01*
X85209198Y-68716483D01*
X85260573Y-68611393D01*
X85270500Y-68543260D01*
X87869500Y-68543260D01*
X87872253Y-68562152D01*
X87879427Y-68611395D01*
X87923490Y-68701526D01*
X87930802Y-68716483D01*
X88013517Y-68799198D01*
X88060904Y-68822364D01*
X88118604Y-68850572D01*
X88118605Y-68850572D01*
X88118607Y-68850573D01*
X88186740Y-68860500D01*
X88186743Y-68860500D01*
X89903257Y-68860500D01*
X89903260Y-68860500D01*
X89971393Y-68850573D01*
X90076483Y-68799198D01*
X90139021Y-68736660D01*
X94124300Y-68736660D01*
X94130918Y-68782082D01*
X94134227Y-68804795D01*
X94170970Y-68879953D01*
X94185602Y-68909883D01*
X94268317Y-68992598D01*
X94309985Y-69012968D01*
X94373404Y-69043972D01*
X94373405Y-69043972D01*
X94373407Y-69043973D01*
X94441540Y-69053900D01*
X94874579Y-69053900D01*
X94928100Y-69069615D01*
X94959747Y-69089953D01*
X95066203Y-69121211D01*
X95097835Y-69130499D01*
X95097836Y-69130499D01*
X95097839Y-69130500D01*
X95097841Y-69130500D01*
X95241759Y-69130500D01*
X95241761Y-69130500D01*
X95379853Y-69089953D01*
X95411499Y-69069615D01*
X95465021Y-69053900D01*
X96158057Y-69053900D01*
X96158060Y-69053900D01*
X96226193Y-69043973D01*
X96331283Y-68992598D01*
X96413998Y-68909883D01*
X96465373Y-68804793D01*
X96475300Y-68736660D01*
X99074300Y-68736660D01*
X99080918Y-68782082D01*
X99084227Y-68804795D01*
X99120970Y-68879953D01*
X99135602Y-68909883D01*
X99218317Y-68992598D01*
X99259985Y-69012968D01*
X99323404Y-69043972D01*
X99323405Y-69043972D01*
X99323407Y-69043973D01*
X99391540Y-69053900D01*
X99391543Y-69053900D01*
X101108057Y-69053900D01*
X101108060Y-69053900D01*
X101176193Y-69043973D01*
X101281283Y-68992598D01*
X101363998Y-68909883D01*
X101415373Y-68804793D01*
X101425300Y-68736660D01*
X101425300Y-68370140D01*
X101415373Y-68302007D01*
X101403413Y-68277543D01*
X101381522Y-68232764D01*
X101363998Y-68196917D01*
X101281283Y-68114202D01*
X101281281Y-68114201D01*
X101176195Y-68062827D01*
X101148939Y-68058856D01*
X101108060Y-68052900D01*
X99391540Y-68052900D01*
X99358980Y-68057644D01*
X99323404Y-68062827D01*
X99218318Y-68114201D01*
X99135601Y-68196918D01*
X99084227Y-68302004D01*
X99080380Y-68328409D01*
X99074300Y-68370140D01*
X99074300Y-68736660D01*
X96475300Y-68736660D01*
X96475300Y-68370140D01*
X96465373Y-68302007D01*
X96453413Y-68277543D01*
X96431522Y-68232764D01*
X96413998Y-68196917D01*
X96331283Y-68114202D01*
X96331281Y-68114201D01*
X96226195Y-68062827D01*
X96198939Y-68058856D01*
X96158060Y-68052900D01*
X94441540Y-68052900D01*
X94408980Y-68057644D01*
X94373404Y-68062827D01*
X94268318Y-68114201D01*
X94185601Y-68196918D01*
X94134227Y-68302004D01*
X94130380Y-68328409D01*
X94124300Y-68370140D01*
X94124300Y-68736660D01*
X90139021Y-68736660D01*
X90159198Y-68716483D01*
X90210573Y-68611393D01*
X90220500Y-68543260D01*
X90220500Y-68176740D01*
X90210573Y-68108607D01*
X90189257Y-68065005D01*
X90177105Y-68040147D01*
X90159198Y-68003517D01*
X90076483Y-67920802D01*
X90065685Y-67915523D01*
X89971395Y-67869427D01*
X89944139Y-67865456D01*
X89903260Y-67859500D01*
X89903257Y-67859500D01*
X89760253Y-67859500D01*
X89732361Y-67855490D01*
X89711962Y-67849500D01*
X89711961Y-67849500D01*
X89568039Y-67849500D01*
X89568037Y-67849500D01*
X89547639Y-67855490D01*
X89519747Y-67859500D01*
X88186740Y-67859500D01*
X88152673Y-67864463D01*
X88118604Y-67869427D01*
X88013518Y-67920801D01*
X87930801Y-68003518D01*
X87879427Y-68108604D01*
X87876523Y-68128537D01*
X87869500Y-68176740D01*
X87869500Y-68543260D01*
X85270500Y-68543260D01*
X85270500Y-68176740D01*
X85260573Y-68108607D01*
X85239257Y-68065005D01*
X85227105Y-68040147D01*
X85209198Y-68003517D01*
X85126483Y-67920802D01*
X85115685Y-67915523D01*
X85021395Y-67869427D01*
X84994139Y-67865456D01*
X84953260Y-67859500D01*
X83236740Y-67859500D01*
X83202673Y-67864463D01*
X83168604Y-67869427D01*
X83063518Y-67920801D01*
X82980801Y-68003518D01*
X82929427Y-68108604D01*
X82926523Y-68128537D01*
X82919500Y-68176740D01*
X82919500Y-68543260D01*
X72240500Y-68543260D01*
X72240500Y-68069738D01*
X72240499Y-68069733D01*
X72240056Y-68065005D01*
X72237725Y-68040151D01*
X72194116Y-67915525D01*
X72186773Y-67905576D01*
X72115714Y-67809293D01*
X72115713Y-67809292D01*
X72115711Y-67809289D01*
X72081310Y-67783900D01*
X72009476Y-67730884D01*
X71884852Y-67687276D01*
X71884851Y-67687275D01*
X71884849Y-67687275D01*
X71884847Y-67687274D01*
X71884844Y-67687274D01*
X71855266Y-67684500D01*
X71855256Y-67684500D01*
X71249744Y-67684500D01*
X71249733Y-67684500D01*
X71220155Y-67687274D01*
X71220147Y-67687276D01*
X71095523Y-67730884D01*
X70989293Y-67809285D01*
X70989285Y-67809293D01*
X70910884Y-67915523D01*
X70867276Y-68040147D01*
X70867274Y-68040155D01*
X70864500Y-68069733D01*
X70864500Y-68650266D01*
X70420500Y-68650266D01*
X70420500Y-67109192D01*
X87864311Y-67109192D01*
X87868258Y-67149272D01*
X87868429Y-67150421D01*
X87869500Y-67164943D01*
X87869500Y-67273260D01*
X87876117Y-67318681D01*
X87879427Y-67341395D01*
X87909279Y-67402457D01*
X87930802Y-67446483D01*
X88013517Y-67529198D01*
X88058004Y-67550946D01*
X88118604Y-67580572D01*
X88118605Y-67580572D01*
X88118607Y-67580573D01*
X88186740Y-67590500D01*
X88372165Y-67590500D01*
X89921277Y-67590500D01*
X89976945Y-67607634D01*
X90133792Y-67714289D01*
X90381163Y-67882501D01*
X90405147Y-67905576D01*
X90460649Y-67980779D01*
X90464289Y-67985711D01*
X90464292Y-67985713D01*
X90464293Y-67985714D01*
X90570523Y-68064115D01*
X90570524Y-68064115D01*
X90570525Y-68064116D01*
X90695151Y-68107725D01*
X90722441Y-68110284D01*
X90724733Y-68110499D01*
X90724738Y-68110500D01*
X90724744Y-68110500D01*
X91330262Y-68110500D01*
X91330265Y-68110499D01*
X91359849Y-68107725D01*
X91484475Y-68064116D01*
X91590711Y-67985711D01*
X91669116Y-67879475D01*
X91712725Y-67754849D01*
X91715500Y-67725256D01*
X91715500Y-67431873D01*
X91715664Y-67427844D01*
X91717540Y-67404863D01*
X91717757Y-67367490D01*
X91715621Y-67336951D01*
X91715500Y-67333496D01*
X91715500Y-67260002D01*
X93784353Y-67260002D01*
X93804834Y-67402456D01*
X93841087Y-67481838D01*
X93864623Y-67533373D01*
X93951733Y-67633904D01*
X93958873Y-67642144D01*
X94079942Y-67719950D01*
X94079947Y-67719953D01*
X94186403Y-67751211D01*
X94218035Y-67760499D01*
X94218036Y-67760499D01*
X94218039Y-67760500D01*
X94322943Y-67760500D01*
X94366424Y-67770560D01*
X94372993Y-67773770D01*
X94373407Y-67773973D01*
X94441540Y-67783900D01*
X94441543Y-67783900D01*
X96158057Y-67783900D01*
X96158060Y-67783900D01*
X96226193Y-67773973D01*
X96331283Y-67722598D01*
X96413998Y-67639883D01*
X96465373Y-67534793D01*
X96475300Y-67466660D01*
X96475300Y-67100140D01*
X96465373Y-67032007D01*
X96464223Y-67029655D01*
X96440283Y-66980685D01*
X96413998Y-66926917D01*
X96331283Y-66844202D01*
X96319832Y-66838604D01*
X96226195Y-66792827D01*
X96198019Y-66788722D01*
X96158060Y-66782900D01*
X96158057Y-66782900D01*
X94455889Y-66782900D01*
X94427998Y-66778890D01*
X94361964Y-66759500D01*
X94361961Y-66759500D01*
X94218039Y-66759500D01*
X94218035Y-66759500D01*
X94079949Y-66800046D01*
X94079942Y-66800049D01*
X93958873Y-66877855D01*
X93864622Y-66986628D01*
X93804834Y-67117543D01*
X93784353Y-67259997D01*
X93784353Y-67260002D01*
X91715500Y-67260002D01*
X91715500Y-67144738D01*
X91715499Y-67144733D01*
X91712725Y-67115155D01*
X91712725Y-67115151D01*
X91669116Y-66990525D01*
X91668076Y-66989116D01*
X91590714Y-66884293D01*
X91590713Y-66884292D01*
X91590711Y-66884289D01*
X91590706Y-66884285D01*
X91484476Y-66805884D01*
X91359852Y-66762276D01*
X91359851Y-66762275D01*
X91359849Y-66762275D01*
X91359847Y-66762274D01*
X91359844Y-66762274D01*
X91330266Y-66759500D01*
X91330256Y-66759500D01*
X91325300Y-66759500D01*
X91292235Y-66753299D01*
X91292084Y-66753735D01*
X91290393Y-66753147D01*
X91290385Y-66753144D01*
X91270450Y-66746219D01*
X91262172Y-66743343D01*
X91196630Y-66725795D01*
X91151131Y-66713613D01*
X91151111Y-66713608D01*
X91151070Y-66713598D01*
X91143856Y-66711945D01*
X91121544Y-66707679D01*
X91118810Y-66707157D01*
X91115123Y-66706590D01*
X91111417Y-66706021D01*
X90067050Y-66584176D01*
X90062314Y-66583695D01*
X90033133Y-66581147D01*
X90030137Y-66580930D01*
X90023647Y-66580551D01*
X90020578Y-66580418D01*
X89991336Y-66579570D01*
X89991303Y-66579569D01*
X89991285Y-66579569D01*
X89986505Y-66579500D01*
X88372168Y-66579500D01*
X88368019Y-66579703D01*
X88362084Y-66579995D01*
X88327871Y-66583363D01*
X88327870Y-66583363D01*
X88317886Y-66584845D01*
X88314669Y-66585485D01*
X88304045Y-66587598D01*
X88284733Y-66589500D01*
X88186740Y-66589500D01*
X88152673Y-66594463D01*
X88118604Y-66599427D01*
X88013518Y-66650801D01*
X87930801Y-66733518D01*
X87879427Y-66838604D01*
X87874530Y-66872216D01*
X87869914Y-66903904D01*
X87869500Y-66906743D01*
X87869500Y-67005057D01*
X87868429Y-67019579D01*
X87868258Y-67020727D01*
X87864311Y-67060806D01*
X87864311Y-67109192D01*
X70420500Y-67109192D01*
X70420500Y-66650266D01*
X70864500Y-66650266D01*
X70867274Y-66679844D01*
X70867276Y-66679852D01*
X70910884Y-66804476D01*
X70989285Y-66910706D01*
X70989289Y-66910711D01*
X70989292Y-66910713D01*
X70989293Y-66910714D01*
X71095523Y-66989115D01*
X71095524Y-66989115D01*
X71095525Y-66989116D01*
X71220151Y-67032725D01*
X71247441Y-67035284D01*
X71249733Y-67035499D01*
X71249738Y-67035500D01*
X71249744Y-67035500D01*
X71855262Y-67035500D01*
X71855265Y-67035499D01*
X71884849Y-67032725D01*
X72009475Y-66989116D01*
X72115711Y-66910711D01*
X72194116Y-66804475D01*
X72237725Y-66679849D01*
X72240500Y-66650256D01*
X72240500Y-66173333D01*
X72259407Y-66115143D01*
X72269496Y-66103330D01*
X73053326Y-65319500D01*
X73864084Y-64508742D01*
X73864099Y-64508730D01*
X73871195Y-64501632D01*
X73871197Y-64501632D01*
X73905369Y-64467457D01*
X73910207Y-64463214D01*
X73974885Y-64413580D01*
X73997244Y-64400669D01*
X74063507Y-64373218D01*
X74088457Y-64366531D01*
X74168991Y-64355923D01*
X74175456Y-64355500D01*
X77940500Y-64355500D01*
X77998691Y-64374407D01*
X78034655Y-64423907D01*
X78039500Y-64454500D01*
X78039500Y-64704274D01*
X78042353Y-64734694D01*
X78042355Y-64734703D01*
X78087207Y-64862883D01*
X78167845Y-64972144D01*
X78167847Y-64972146D01*
X78167850Y-64972150D01*
X78167853Y-64972152D01*
X78167855Y-64972154D01*
X78277116Y-65052792D01*
X78277117Y-65052792D01*
X78277118Y-65052793D01*
X78405301Y-65097646D01*
X78435725Y-65100499D01*
X78435727Y-65100500D01*
X78435734Y-65100500D01*
X79904166Y-65100500D01*
X79962357Y-65119407D01*
X79974170Y-65129496D01*
X80709946Y-65865272D01*
X80709949Y-65865274D01*
X80711207Y-65866532D01*
X80711759Y-65867037D01*
X80746889Y-65902171D01*
X80877469Y-65997055D01*
X81021285Y-66070343D01*
X81105019Y-66097556D01*
X81174785Y-66120230D01*
X81174788Y-66120230D01*
X81174795Y-66120233D01*
X81334219Y-66145494D01*
X81334225Y-66145494D01*
X81384235Y-66145496D01*
X81384281Y-66145500D01*
X81386474Y-66145500D01*
X81414921Y-66145500D01*
X81414930Y-66145500D01*
X81466479Y-66145503D01*
X81466482Y-66145501D01*
X81474436Y-66145502D01*
X81474473Y-66145500D01*
X82908812Y-66145500D01*
X82967003Y-66164407D01*
X82978816Y-66174496D01*
X82980801Y-66176481D01*
X82980802Y-66176483D01*
X83063517Y-66259198D01*
X83105760Y-66279849D01*
X83168604Y-66310572D01*
X83168605Y-66310572D01*
X83168607Y-66310573D01*
X83236740Y-66320500D01*
X83236743Y-66320500D01*
X84953257Y-66320500D01*
X84953260Y-66320500D01*
X85021393Y-66310573D01*
X85126483Y-66259198D01*
X85209198Y-66176483D01*
X85260573Y-66071393D01*
X85270500Y-66003260D01*
X85270500Y-65636740D01*
X85260573Y-65568607D01*
X85253759Y-65554669D01*
X85232021Y-65510202D01*
X85209198Y-65463517D01*
X85126483Y-65380802D01*
X85126481Y-65380801D01*
X85021395Y-65329427D01*
X84994139Y-65325456D01*
X84953260Y-65319500D01*
X83236740Y-65319500D01*
X83202673Y-65324463D01*
X83168604Y-65329427D01*
X83063518Y-65380801D01*
X83063517Y-65380801D01*
X83063517Y-65380802D01*
X82980802Y-65463517D01*
X82980801Y-65463518D01*
X82978816Y-65465504D01*
X82924299Y-65493281D01*
X82908812Y-65494500D01*
X81418221Y-65494500D01*
X81411759Y-65494076D01*
X81372226Y-65488869D01*
X81330967Y-65483434D01*
X81306005Y-65476743D01*
X81239772Y-65449303D01*
X81217392Y-65436381D01*
X81152530Y-65386605D01*
X81147658Y-65382331D01*
X81111102Y-65345772D01*
X81111079Y-65345752D01*
X80638550Y-64873224D01*
X80610773Y-64818707D01*
X80615110Y-64770522D01*
X80627646Y-64734699D01*
X80630499Y-64704273D01*
X80630500Y-64704273D01*
X80630500Y-63355726D01*
X80630499Y-63355725D01*
X80627646Y-63325305D01*
X80627646Y-63325301D01*
X80582793Y-63197118D01*
X80502150Y-63087850D01*
X80502146Y-63087847D01*
X80502144Y-63087845D01*
X80392883Y-63007207D01*
X80264703Y-62962355D01*
X80264694Y-62962353D01*
X80234274Y-62959500D01*
X80234266Y-62959500D01*
X78435734Y-62959500D01*
X78435725Y-62959500D01*
X78405305Y-62962353D01*
X78405296Y-62962355D01*
X78277116Y-63007207D01*
X78167855Y-63087845D01*
X78167845Y-63087855D01*
X78087207Y-63197116D01*
X78042355Y-63325296D01*
X78042353Y-63325305D01*
X78039500Y-63355725D01*
X78039500Y-63605500D01*
X78020593Y-63663691D01*
X77971093Y-63699655D01*
X77940500Y-63704500D01*
X74231973Y-63704500D01*
X74231937Y-63704497D01*
X74213462Y-63704497D01*
X74213354Y-63704462D01*
X74091716Y-63704470D01*
X73932281Y-63729734D01*
X73932277Y-63729735D01*
X73778777Y-63779622D01*
X73778768Y-63779626D01*
X73634954Y-63852913D01*
X73634943Y-63852920D01*
X73504371Y-63947797D01*
X73479190Y-63972981D01*
X73467445Y-63984727D01*
X71796670Y-65655504D01*
X71742153Y-65683281D01*
X71726666Y-65684500D01*
X71249733Y-65684500D01*
X71220155Y-65687274D01*
X71220147Y-65687276D01*
X71095523Y-65730884D01*
X70989293Y-65809285D01*
X70989285Y-65809293D01*
X70910884Y-65915523D01*
X70867276Y-66040147D01*
X70867274Y-66040155D01*
X70864500Y-66069733D01*
X70864500Y-66650266D01*
X70420500Y-66650266D01*
X70420500Y-64865720D01*
X70420183Y-64857653D01*
X70418023Y-64830209D01*
X70417074Y-64822195D01*
X70416719Y-64819953D01*
X70415500Y-64804466D01*
X70415500Y-64569738D01*
X70415499Y-64569733D01*
X70414599Y-64560140D01*
X70412725Y-64540151D01*
X70369116Y-64415525D01*
X70367686Y-64413588D01*
X70290714Y-64309293D01*
X70290713Y-64309292D01*
X70290711Y-64309289D01*
X70290706Y-64309285D01*
X70184476Y-64230884D01*
X70059852Y-64187276D01*
X70059851Y-64187275D01*
X70059849Y-64187275D01*
X70059847Y-64187274D01*
X70059844Y-64187274D01*
X70030266Y-64184500D01*
X70030256Y-64184500D01*
X69786007Y-64184500D01*
X69782102Y-64184346D01*
X69774195Y-64183720D01*
X69759464Y-64182555D01*
X69759136Y-64182554D01*
X69720874Y-64182522D01*
X69700646Y-64184089D01*
X69697260Y-64184352D01*
X69693440Y-64184500D01*
X69449733Y-64184500D01*
X69420155Y-64187274D01*
X69420147Y-64187276D01*
X69295523Y-64230884D01*
X69189293Y-64309285D01*
X69189285Y-64309293D01*
X69110884Y-64415523D01*
X69067276Y-64540147D01*
X69067274Y-64540155D01*
X69064500Y-64569733D01*
X69064500Y-64759351D01*
X69063038Y-64776303D01*
X69055586Y-64819177D01*
X69054528Y-64827079D01*
X69054525Y-64827103D01*
X69051963Y-64854164D01*
X69051959Y-64854226D01*
X69051518Y-64862152D01*
X69051518Y-64862164D01*
X69034589Y-65877849D01*
X69034521Y-65883290D01*
X69034500Y-65888693D01*
X69034500Y-66935500D01*
X69015593Y-66993691D01*
X68966093Y-67029655D01*
X68935500Y-67034500D01*
X66338648Y-67034500D01*
X66304816Y-67028540D01*
X65476270Y-66727251D01*
X65476231Y-66727238D01*
X65472038Y-66725816D01*
X65471975Y-66725795D01*
X65462508Y-66722815D01*
X65462426Y-66722790D01*
X65458258Y-66721577D01*
X65458245Y-66721574D01*
X65458224Y-66721568D01*
X65458209Y-66721564D01*
X65404391Y-66707156D01*
X65296777Y-66678345D01*
X65288013Y-66676404D01*
X65283241Y-66675563D01*
X65257597Y-66671047D01*
X65257582Y-66671045D01*
X65257580Y-66671044D01*
X65248728Y-66669880D01*
X65248697Y-66669877D01*
X65194244Y-66665116D01*
X65187990Y-66664164D01*
X65179700Y-66662353D01*
X65149274Y-66659500D01*
X65149266Y-66659500D01*
X65132152Y-66659500D01*
X65127839Y-66659312D01*
X65082231Y-66655325D01*
X65082228Y-66655324D01*
X65082208Y-66655323D01*
X65082203Y-66655322D01*
X65082171Y-66655320D01*
X65077686Y-66655027D01*
X65067824Y-66654598D01*
X65067794Y-66654597D01*
X65065546Y-66654548D01*
X65063313Y-66654500D01*
X64997365Y-66654500D01*
X64993585Y-66654685D01*
X64987282Y-66654995D01*
X64952668Y-66658404D01*
X64952505Y-66658429D01*
X64952417Y-66658435D01*
X64951447Y-66658555D01*
X64951441Y-66658507D01*
X64937981Y-66659500D01*
X60460725Y-66659500D01*
X60430305Y-66662353D01*
X60430301Y-66662354D01*
X60383520Y-66678723D01*
X60322350Y-66680095D01*
X60272056Y-66645250D01*
X60251848Y-66587498D01*
X60251824Y-66585485D01*
X60249135Y-63350266D01*
X69064500Y-63350266D01*
X69067274Y-63379844D01*
X69067276Y-63379852D01*
X69110884Y-63504476D01*
X69181911Y-63600714D01*
X69189289Y-63610711D01*
X69189292Y-63610713D01*
X69189293Y-63610714D01*
X69295523Y-63689115D01*
X69295524Y-63689115D01*
X69295525Y-63689116D01*
X69420151Y-63732725D01*
X69447441Y-63735284D01*
X69449733Y-63735499D01*
X69449738Y-63735500D01*
X69449744Y-63735500D01*
X70030262Y-63735500D01*
X70030265Y-63735499D01*
X70059849Y-63732725D01*
X70184475Y-63689116D01*
X70290711Y-63610711D01*
X70369116Y-63504475D01*
X70412725Y-63379849D01*
X70415500Y-63350256D01*
X70415500Y-62744744D01*
X70415500Y-62744738D01*
X70415499Y-62744733D01*
X70414132Y-62730155D01*
X70412725Y-62715151D01*
X70369116Y-62590525D01*
X70335525Y-62545011D01*
X70290714Y-62484293D01*
X70290713Y-62484292D01*
X70290711Y-62484289D01*
X70290043Y-62483796D01*
X70184478Y-62405885D01*
X70184473Y-62405883D01*
X70180275Y-62404414D01*
X70131595Y-62367347D01*
X70113999Y-62308747D01*
X70134206Y-62250998D01*
X70173046Y-62200374D01*
X70177307Y-62195518D01*
X70882822Y-61490003D01*
X78034320Y-61490003D01*
X78054987Y-61699850D01*
X78054988Y-61699855D01*
X78116201Y-61901645D01*
X78116203Y-61901650D01*
X78215602Y-62087613D01*
X78326155Y-62222322D01*
X78349379Y-62250621D01*
X78349384Y-62250625D01*
X78512386Y-62384397D01*
X78698349Y-62483796D01*
X78698355Y-62483799D01*
X78838932Y-62526442D01*
X78900144Y-62545011D01*
X78900150Y-62545012D01*
X79031850Y-62557982D01*
X79057407Y-62560500D01*
X79057408Y-62560500D01*
X79612592Y-62560500D01*
X79612593Y-62560500D01*
X79643108Y-62557494D01*
X79769849Y-62545012D01*
X79769855Y-62545011D01*
X79971645Y-62483799D01*
X80091075Y-62419962D01*
X80157613Y-62384397D01*
X80157614Y-62384395D01*
X80157616Y-62384395D01*
X80320621Y-62250621D01*
X80454395Y-62087616D01*
X80465397Y-62067034D01*
X80518726Y-61967261D01*
X80553799Y-61901645D01*
X80558617Y-61885761D01*
X80593601Y-61835566D01*
X80651410Y-61815519D01*
X80653354Y-61815500D01*
X82164278Y-61815500D01*
X82170742Y-61815923D01*
X82251531Y-61826565D01*
X82276486Y-61833253D01*
X82342729Y-61860696D01*
X82365105Y-61873616D01*
X82420604Y-61916207D01*
X82429963Y-61923389D01*
X82434835Y-61927662D01*
X82474432Y-61967261D01*
X82474452Y-61967278D01*
X82891571Y-62384397D01*
X83285591Y-62778416D01*
X83313368Y-62832933D01*
X83314587Y-62848420D01*
X83314587Y-62978919D01*
X83313369Y-62994398D01*
X83312926Y-62997198D01*
X83312922Y-62997225D01*
X83311979Y-63005188D01*
X83309818Y-63032631D01*
X83309815Y-63032690D01*
X83309500Y-63040702D01*
X83309500Y-63431571D01*
X83297182Y-63479396D01*
X82997605Y-64022378D01*
X82994660Y-64028137D01*
X82994655Y-64028147D01*
X82988564Y-64041043D01*
X82988561Y-64041049D01*
X82985986Y-64046982D01*
X82985982Y-64046991D01*
X82943223Y-64154632D01*
X82943218Y-64154646D01*
X82939210Y-64166943D01*
X82928205Y-64209678D01*
X82928203Y-64209684D01*
X82925772Y-64222394D01*
X82911213Y-64337288D01*
X82910600Y-64343755D01*
X82909701Y-64358016D01*
X82909500Y-64364441D01*
X82909500Y-64540324D01*
X82909994Y-64550397D01*
X82909995Y-64550402D01*
X82913364Y-64584630D01*
X82914844Y-64594609D01*
X82917598Y-64608451D01*
X82919500Y-64627765D01*
X82919500Y-64733260D01*
X82924546Y-64767891D01*
X82929427Y-64801395D01*
X82980801Y-64906481D01*
X82980802Y-64906483D01*
X83063517Y-64989198D01*
X83115908Y-65014810D01*
X83168604Y-65040572D01*
X83168605Y-65040572D01*
X83168607Y-65040573D01*
X83236740Y-65050500D01*
X83322100Y-65050500D01*
X83341414Y-65052402D01*
X83380374Y-65060152D01*
X83390354Y-65061633D01*
X83424586Y-65065005D01*
X83434665Y-65065500D01*
X83434682Y-65065500D01*
X84745318Y-65065500D01*
X84745335Y-65065500D01*
X84755414Y-65065005D01*
X84781293Y-65062455D01*
X84789627Y-65061635D01*
X84789637Y-65061633D01*
X84789645Y-65061633D01*
X84799623Y-65060152D01*
X84838584Y-65052402D01*
X84857898Y-65050500D01*
X84953257Y-65050500D01*
X84953260Y-65050500D01*
X85021393Y-65040573D01*
X85126483Y-64989198D01*
X85209198Y-64906483D01*
X85260573Y-64801393D01*
X85270500Y-64733260D01*
X85270500Y-64366740D01*
X85260573Y-64298607D01*
X85257883Y-64293104D01*
X85249210Y-64266143D01*
X85243281Y-64231098D01*
X85234720Y-64197771D01*
X85234719Y-64197766D01*
X85234718Y-64197764D01*
X85221109Y-64158705D01*
X85207111Y-64127283D01*
X85207106Y-64127271D01*
X85152582Y-64028147D01*
X85139753Y-64004823D01*
X85135284Y-63997449D01*
X85119018Y-63972981D01*
X85113974Y-63966044D01*
X85113961Y-63966026D01*
X85110280Y-63961385D01*
X84716934Y-63465425D01*
X84695588Y-63408084D01*
X84695500Y-63403907D01*
X84695500Y-63056500D01*
X85137687Y-63056500D01*
X85139435Y-63078790D01*
X85139587Y-63082662D01*
X85139587Y-63339344D01*
X85142361Y-63368922D01*
X85142363Y-63368930D01*
X85185971Y-63493554D01*
X85194032Y-63504476D01*
X85264376Y-63599789D01*
X85264379Y-63599791D01*
X85264380Y-63599792D01*
X85370610Y-63678193D01*
X85370611Y-63678193D01*
X85370612Y-63678194D01*
X85495238Y-63721803D01*
X85522528Y-63724362D01*
X85524820Y-63724577D01*
X85524825Y-63724578D01*
X85524831Y-63724578D01*
X85768473Y-63724578D01*
X85783960Y-63725796D01*
X85789801Y-63726722D01*
X85797815Y-63727671D01*
X85825259Y-63729831D01*
X85833312Y-63730147D01*
X85833317Y-63730148D01*
X85833326Y-63730148D01*
X87309393Y-63730148D01*
X87309396Y-63730147D01*
X87317451Y-63729831D01*
X87344895Y-63727671D01*
X87352909Y-63726722D01*
X87352927Y-63726719D01*
X87352936Y-63726718D01*
X87352946Y-63726717D01*
X87353873Y-63726589D01*
X87353880Y-63726643D01*
X87368417Y-63725500D01*
X87610262Y-63725500D01*
X87610265Y-63725499D01*
X87639849Y-63722725D01*
X87764475Y-63679116D01*
X87870711Y-63600711D01*
X87949116Y-63494475D01*
X87992725Y-63369849D01*
X87995500Y-63340256D01*
X87995500Y-62759744D01*
X87995500Y-62759738D01*
X87995499Y-62759733D01*
X87992725Y-62730155D01*
X87992725Y-62730151D01*
X87949116Y-62605525D01*
X87948434Y-62604601D01*
X87870714Y-62499293D01*
X87870713Y-62499292D01*
X87870711Y-62499289D01*
X87870706Y-62499285D01*
X87764476Y-62420884D01*
X87639852Y-62377276D01*
X87639851Y-62377275D01*
X87639849Y-62377275D01*
X87639847Y-62377274D01*
X87639844Y-62377274D01*
X87610266Y-62374500D01*
X87610256Y-62374500D01*
X87401276Y-62374500D01*
X87384893Y-62373135D01*
X87354758Y-62368078D01*
X87354757Y-62368077D01*
X87354752Y-62368077D01*
X87346800Y-62367059D01*
X87319555Y-62364648D01*
X87319547Y-62364647D01*
X87319529Y-62364646D01*
X87311585Y-62364255D01*
X87311545Y-62364254D01*
X87311544Y-62364254D01*
X87281720Y-62363949D01*
X85835426Y-62349190D01*
X85827324Y-62349429D01*
X85827308Y-62349429D01*
X85827301Y-62349430D01*
X85827291Y-62349430D01*
X85827265Y-62349432D01*
X85799681Y-62351335D01*
X85791583Y-62352216D01*
X85791568Y-62352218D01*
X85666556Y-62370842D01*
X85666554Y-62370843D01*
X85665702Y-62371040D01*
X85665237Y-62371092D01*
X85664636Y-62371207D01*
X85664627Y-62371162D01*
X85643431Y-62373578D01*
X85524820Y-62373578D01*
X85495242Y-62376352D01*
X85495234Y-62376354D01*
X85370610Y-62419962D01*
X85264380Y-62498363D01*
X85264372Y-62498371D01*
X85185971Y-62604601D01*
X85142363Y-62729225D01*
X85142361Y-62729233D01*
X85139587Y-62758811D01*
X85139586Y-62758816D01*
X85139586Y-62991962D01*
X85139431Y-62995881D01*
X85137707Y-63017574D01*
X85137706Y-63017594D01*
X85137687Y-63056491D01*
X85137687Y-63056500D01*
X84695500Y-63056500D01*
X84695500Y-63040709D01*
X84695499Y-63040701D01*
X84695183Y-63032651D01*
X84693023Y-63005208D01*
X84692074Y-62997195D01*
X84691806Y-62995501D01*
X84690587Y-62980015D01*
X84690587Y-62758816D01*
X84690586Y-62758811D01*
X84689266Y-62744733D01*
X84687812Y-62729229D01*
X84644203Y-62604603D01*
X84638674Y-62597112D01*
X84565801Y-62498371D01*
X84565800Y-62498370D01*
X84565798Y-62498367D01*
X84565793Y-62498363D01*
X84459563Y-62419962D01*
X84334939Y-62376354D01*
X84334938Y-62376353D01*
X84334936Y-62376353D01*
X84334934Y-62376352D01*
X84334931Y-62376352D01*
X84305353Y-62373578D01*
X84305343Y-62373578D01*
X84159418Y-62373578D01*
X84143931Y-62372359D01*
X84052812Y-62357927D01*
X84050563Y-62357660D01*
X84044789Y-62356977D01*
X84036796Y-62356347D01*
X84017367Y-62354818D01*
X84017308Y-62354815D01*
X84009296Y-62354500D01*
X84009280Y-62354500D01*
X83995720Y-62354500D01*
X83995703Y-62354500D01*
X83987691Y-62354815D01*
X83987632Y-62354818D01*
X83968182Y-62356349D01*
X83960211Y-62356977D01*
X83960204Y-62356977D01*
X83960189Y-62356979D01*
X83952210Y-62357923D01*
X83861067Y-62372359D01*
X83845581Y-62373578D01*
X83842412Y-62373578D01*
X83784221Y-62354671D01*
X83772408Y-62344582D01*
X82899990Y-61472164D01*
X82899990Y-61472163D01*
X82899983Y-61472157D01*
X82878788Y-61450958D01*
X82878776Y-61450950D01*
X82872553Y-61444727D01*
X82872549Y-61444724D01*
X82871300Y-61443475D01*
X82870743Y-61442964D01*
X82835610Y-61407828D01*
X82705029Y-61312945D01*
X82621062Y-61270155D01*
X82561217Y-61239657D01*
X82561214Y-61239656D01*
X82407705Y-61189767D01*
X82370723Y-61183907D01*
X82248278Y-61164505D01*
X82248282Y-61164505D01*
X82198307Y-61164502D01*
X82198253Y-61164500D01*
X82196026Y-61164500D01*
X82167579Y-61164500D01*
X82167549Y-61164499D01*
X82116021Y-61164497D01*
X82116019Y-61164497D01*
X82108063Y-61164497D01*
X82108027Y-61164500D01*
X80653354Y-61164500D01*
X80595163Y-61145593D01*
X80559199Y-61096093D01*
X80558617Y-61094238D01*
X80553799Y-61078355D01*
X80532916Y-61039285D01*
X80454397Y-60892386D01*
X80320625Y-60729384D01*
X80320621Y-60729379D01*
X80320615Y-60729374D01*
X80157613Y-60595602D01*
X79971650Y-60496203D01*
X79971645Y-60496201D01*
X79769855Y-60434988D01*
X79769849Y-60434987D01*
X79622866Y-60420511D01*
X79612593Y-60419500D01*
X79057407Y-60419500D01*
X79047763Y-60420449D01*
X78900150Y-60434987D01*
X78900144Y-60434988D01*
X78698354Y-60496201D01*
X78698349Y-60496203D01*
X78512386Y-60595602D01*
X78349384Y-60729374D01*
X78349374Y-60729384D01*
X78215602Y-60892386D01*
X78116203Y-61078349D01*
X78116201Y-61078354D01*
X78054988Y-61280144D01*
X78054987Y-61280149D01*
X78034320Y-61489996D01*
X78034320Y-61490003D01*
X70882822Y-61490003D01*
X72314539Y-60058286D01*
X73442821Y-58930003D01*
X86319320Y-58930003D01*
X86339987Y-59139850D01*
X86339988Y-59139855D01*
X86401201Y-59341645D01*
X86401203Y-59341650D01*
X86500602Y-59527613D01*
X86634374Y-59690615D01*
X86634379Y-59690621D01*
X86634384Y-59690625D01*
X86797386Y-59824397D01*
X86983349Y-59923796D01*
X86983355Y-59923799D01*
X87185145Y-59985011D01*
X87202466Y-59986716D01*
X87258522Y-60011235D01*
X87289462Y-60064021D01*
X87291387Y-60093864D01*
X87290736Y-60101306D01*
X87301354Y-60140936D01*
X87302289Y-60145152D01*
X87309411Y-60185545D01*
X87310164Y-60186848D01*
X87320054Y-60210724D01*
X87320443Y-60212179D01*
X87320446Y-60212184D01*
X87343971Y-60245781D01*
X87346292Y-60249424D01*
X87366806Y-60284955D01*
X87398224Y-60311318D01*
X87401410Y-60314237D01*
X88370504Y-61283330D01*
X88398281Y-61337847D01*
X88399500Y-61353334D01*
X88399500Y-61466328D01*
X88398281Y-61481814D01*
X88387923Y-61547209D01*
X88386979Y-61555188D01*
X88384818Y-61582631D01*
X88384815Y-61582690D01*
X88384500Y-61590702D01*
X88384500Y-62036653D01*
X88384543Y-62040545D01*
X88385114Y-62064603D01*
X88385202Y-62067065D01*
X88385459Y-62072458D01*
X88385602Y-62074861D01*
X88387303Y-62098715D01*
X88387629Y-62102628D01*
X88413392Y-62373135D01*
X88434096Y-62590523D01*
X88434277Y-62592417D01*
X88434500Y-62597112D01*
X88434500Y-63425971D01*
X88415593Y-63484162D01*
X88412000Y-63488810D01*
X88023841Y-63961350D01*
X88023811Y-63961387D01*
X88018501Y-63968449D01*
X88001456Y-63993273D01*
X88001447Y-63993289D01*
X87996793Y-64000732D01*
X87996789Y-64000738D01*
X87926111Y-64125402D01*
X87911406Y-64157486D01*
X87911400Y-64157500D01*
X87897112Y-64197408D01*
X87897110Y-64197412D01*
X87897110Y-64197415D01*
X87897016Y-64197771D01*
X87888111Y-64231534D01*
X87888110Y-64231538D01*
X87863600Y-64372705D01*
X87862469Y-64381424D01*
X87862463Y-64381479D01*
X87859881Y-64411451D01*
X87859880Y-64411452D01*
X87859705Y-64415525D01*
X87859500Y-64420297D01*
X87859500Y-64420310D01*
X87859500Y-64540324D01*
X87859994Y-64550397D01*
X87859995Y-64550402D01*
X87863364Y-64584630D01*
X87864844Y-64594609D01*
X87867598Y-64608451D01*
X87869500Y-64627765D01*
X87869500Y-64733260D01*
X87874546Y-64767891D01*
X87879427Y-64801395D01*
X87930801Y-64906481D01*
X87930802Y-64906483D01*
X88013517Y-64989198D01*
X88065908Y-65014810D01*
X88118604Y-65040572D01*
X88118605Y-65040572D01*
X88118607Y-65040573D01*
X88186740Y-65050500D01*
X88272100Y-65050500D01*
X88291414Y-65052402D01*
X88330374Y-65060152D01*
X88340354Y-65061633D01*
X88374586Y-65065005D01*
X88384665Y-65065500D01*
X88384682Y-65065500D01*
X89695318Y-65065500D01*
X89695335Y-65065500D01*
X89705414Y-65065005D01*
X89731293Y-65062455D01*
X89739627Y-65061635D01*
X89739637Y-65061633D01*
X89739645Y-65061633D01*
X89749623Y-65060152D01*
X89788584Y-65052402D01*
X89807898Y-65050500D01*
X89903257Y-65050500D01*
X89903260Y-65050500D01*
X89971393Y-65040573D01*
X90076483Y-64989198D01*
X90159198Y-64906483D01*
X90210573Y-64801393D01*
X90220500Y-64733260D01*
X90220500Y-64366740D01*
X90220499Y-64366735D01*
X90220470Y-64366335D01*
X90220366Y-64364375D01*
X90220284Y-64361814D01*
X90219329Y-64347127D01*
X90218681Y-64340489D01*
X90208399Y-64261718D01*
X90203256Y-64222312D01*
X90203254Y-64222300D01*
X90203252Y-64222285D01*
X90200672Y-64209197D01*
X90200670Y-64209190D01*
X90200669Y-64209183D01*
X90189016Y-64165305D01*
X90189003Y-64165261D01*
X90184761Y-64152650D01*
X90184760Y-64152647D01*
X90173581Y-64125402D01*
X90139504Y-64042349D01*
X90136774Y-64036265D01*
X90136763Y-64036243D01*
X90136757Y-64036229D01*
X90136751Y-64036217D01*
X90130336Y-64023079D01*
X90130296Y-64023002D01*
X90127211Y-64017171D01*
X90127210Y-64017170D01*
X90127205Y-64017162D01*
X90127197Y-64017146D01*
X89833544Y-63503253D01*
X89820500Y-63454135D01*
X89820500Y-62597111D01*
X89820723Y-62592415D01*
X89823763Y-62560500D01*
X89867365Y-62102666D01*
X89867684Y-62098856D01*
X89869398Y-62074846D01*
X89869542Y-62072416D01*
X89869798Y-62067034D01*
X89869885Y-62064587D01*
X89870454Y-62040600D01*
X89870500Y-62036741D01*
X89870500Y-61930720D01*
X89872532Y-61911899D01*
X89872723Y-61909852D01*
X89872725Y-61909849D01*
X89875500Y-61880256D01*
X89875500Y-61299744D01*
X89875499Y-61299743D01*
X89875500Y-61299738D01*
X89875499Y-61299733D01*
X89873961Y-61283330D01*
X89872725Y-61270151D01*
X89829116Y-61145525D01*
X89779546Y-61078360D01*
X89750714Y-61039293D01*
X89750713Y-61039292D01*
X89750711Y-61039289D01*
X89750706Y-61039285D01*
X89644476Y-60960884D01*
X89519852Y-60917276D01*
X89519851Y-60917275D01*
X89519849Y-60917275D01*
X89519847Y-60917274D01*
X89519844Y-60917274D01*
X89490266Y-60914500D01*
X89490256Y-60914500D01*
X89277100Y-60914500D01*
X89261613Y-60913281D01*
X89227812Y-60907927D01*
X89225563Y-60907660D01*
X89219789Y-60906977D01*
X89211796Y-60906347D01*
X89192367Y-60904818D01*
X89192308Y-60904815D01*
X89184296Y-60904500D01*
X89184280Y-60904500D01*
X89070720Y-60904500D01*
X89070703Y-60904500D01*
X89062691Y-60904815D01*
X89062632Y-60904818D01*
X89043182Y-60906349D01*
X89035211Y-60906977D01*
X89035204Y-60906977D01*
X89035189Y-60906979D01*
X89027210Y-60907923D01*
X88993387Y-60913281D01*
X88977900Y-60914500D01*
X88963334Y-60914500D01*
X88905143Y-60895593D01*
X88893330Y-60885504D01*
X88124065Y-60116239D01*
X88096288Y-60061722D01*
X88105859Y-60001290D01*
X88149124Y-59958025D01*
X88165324Y-59951500D01*
X88256645Y-59923799D01*
X88340765Y-59878835D01*
X88442613Y-59824397D01*
X88442614Y-59824395D01*
X88442616Y-59824395D01*
X88605621Y-59690621D01*
X88739395Y-59527616D01*
X88838799Y-59341645D01*
X88900011Y-59139855D01*
X88900012Y-59139850D01*
X88920680Y-58930003D01*
X88920680Y-58929996D01*
X88900012Y-58720149D01*
X88900011Y-58720144D01*
X88875071Y-58637929D01*
X88838799Y-58518355D01*
X88817694Y-58478870D01*
X88739397Y-58332386D01*
X88605625Y-58169384D01*
X88605621Y-58169379D01*
X88519694Y-58098861D01*
X88442613Y-58035602D01*
X88256650Y-57936203D01*
X88256645Y-57936201D01*
X88054855Y-57874988D01*
X88054849Y-57874987D01*
X87907866Y-57860511D01*
X87897593Y-57859500D01*
X87342407Y-57859500D01*
X87332763Y-57860449D01*
X87185150Y-57874987D01*
X87185144Y-57874988D01*
X86983354Y-57936201D01*
X86983349Y-57936203D01*
X86797386Y-58035602D01*
X86634384Y-58169374D01*
X86634374Y-58169384D01*
X86500602Y-58332386D01*
X86401203Y-58518349D01*
X86401201Y-58518354D01*
X86339988Y-58720144D01*
X86339987Y-58720149D01*
X86319320Y-58929996D01*
X86319320Y-58930003D01*
X73442821Y-58930003D01*
X74482516Y-57890308D01*
X74537031Y-57862533D01*
X74585216Y-57866870D01*
X74594284Y-57870043D01*
X74630301Y-57882646D01*
X74660725Y-57885499D01*
X74660727Y-57885500D01*
X74660734Y-57885500D01*
X75594273Y-57885500D01*
X75594273Y-57885499D01*
X75624699Y-57882646D01*
X75752882Y-57837793D01*
X75862150Y-57757150D01*
X75942793Y-57647882D01*
X75987646Y-57519699D01*
X75990499Y-57489274D01*
X77389500Y-57489274D01*
X77392353Y-57519694D01*
X77392355Y-57519703D01*
X77437207Y-57647883D01*
X77517845Y-57757144D01*
X77517847Y-57757146D01*
X77517850Y-57757150D01*
X77517853Y-57757152D01*
X77517855Y-57757154D01*
X77627116Y-57837792D01*
X77627117Y-57837792D01*
X77627118Y-57837793D01*
X77755301Y-57882646D01*
X77785725Y-57885499D01*
X77785727Y-57885500D01*
X77785734Y-57885500D01*
X78719273Y-57885500D01*
X78719273Y-57885499D01*
X78749699Y-57882646D01*
X78877882Y-57837793D01*
X78987150Y-57757150D01*
X79067793Y-57647882D01*
X79112646Y-57519699D01*
X79115499Y-57489273D01*
X79115500Y-57489273D01*
X79115500Y-57209500D01*
X79134407Y-57151309D01*
X79183907Y-57115345D01*
X79214500Y-57110500D01*
X86262639Y-57110500D01*
X86320830Y-57129407D01*
X86356082Y-57176801D01*
X86370033Y-57216669D01*
X86372208Y-57222885D01*
X86452845Y-57332144D01*
X86452847Y-57332146D01*
X86452850Y-57332150D01*
X86452853Y-57332152D01*
X86452855Y-57332154D01*
X86562116Y-57412792D01*
X86562117Y-57412792D01*
X86562118Y-57412793D01*
X86690301Y-57457646D01*
X86720725Y-57460499D01*
X86720727Y-57460500D01*
X86720734Y-57460500D01*
X88519273Y-57460500D01*
X88519273Y-57460499D01*
X88549699Y-57457646D01*
X88677882Y-57412793D01*
X88787150Y-57332150D01*
X88867793Y-57222882D01*
X88912646Y-57094699D01*
X88915499Y-57064273D01*
X88915500Y-57064272D01*
X88915500Y-56834834D01*
X88934407Y-56776643D01*
X88983907Y-56740679D01*
X89045093Y-56740679D01*
X89084504Y-56764829D01*
X90508005Y-58188331D01*
X90535781Y-58242846D01*
X90537000Y-58258333D01*
X90537000Y-60827138D01*
X90518093Y-60885329D01*
X90470698Y-60920582D01*
X90355523Y-60960884D01*
X90249293Y-61039285D01*
X90249285Y-61039293D01*
X90170884Y-61145523D01*
X90127276Y-61270147D01*
X90127274Y-61270155D01*
X90124500Y-61299733D01*
X90124500Y-61880266D01*
X90127274Y-61909844D01*
X90127276Y-61909852D01*
X90170884Y-62034476D01*
X90249285Y-62140706D01*
X90249289Y-62140711D01*
X90249292Y-62140713D01*
X90249293Y-62140714D01*
X90355523Y-62219115D01*
X90355524Y-62219115D01*
X90355525Y-62219116D01*
X90470698Y-62259417D01*
X90519378Y-62296482D01*
X90537000Y-62352861D01*
X90537000Y-65054278D01*
X90536576Y-65060742D01*
X90531421Y-65099881D01*
X90525935Y-65141528D01*
X90519245Y-65166490D01*
X90491803Y-65232729D01*
X90478879Y-65255110D01*
X90429110Y-65319962D01*
X90424838Y-65324833D01*
X90404761Y-65344909D01*
X90404761Y-65344910D01*
X90401306Y-65348365D01*
X90401303Y-65348367D01*
X90387159Y-65362513D01*
X90367153Y-65382520D01*
X90362281Y-65386793D01*
X90297627Y-65436410D01*
X90275247Y-65449334D01*
X90244281Y-65462163D01*
X90183284Y-65466967D01*
X90136387Y-65440706D01*
X90076483Y-65380802D01*
X90076481Y-65380801D01*
X89971395Y-65329427D01*
X89944139Y-65325456D01*
X89903260Y-65319500D01*
X88186740Y-65319500D01*
X88152673Y-65324463D01*
X88118604Y-65329427D01*
X88013518Y-65380801D01*
X87930801Y-65463518D01*
X87879427Y-65568604D01*
X87875578Y-65595026D01*
X87869500Y-65636740D01*
X87869500Y-66003260D01*
X87874875Y-66040151D01*
X87879427Y-66071395D01*
X87924898Y-66164407D01*
X87930802Y-66176483D01*
X88013517Y-66259198D01*
X88055760Y-66279849D01*
X88118604Y-66310572D01*
X88118605Y-66310572D01*
X88118607Y-66310573D01*
X88186740Y-66320500D01*
X88186743Y-66320500D01*
X89903257Y-66320500D01*
X89903260Y-66320500D01*
X89971393Y-66310573D01*
X90076483Y-66259198D01*
X90159198Y-66176483D01*
X90159199Y-66176480D01*
X90164998Y-66170682D01*
X90166606Y-66172290D01*
X90206447Y-66142830D01*
X90222327Y-66138946D01*
X90340213Y-66120267D01*
X90493728Y-66070376D01*
X90637549Y-65997085D01*
X90693732Y-65956261D01*
X92609500Y-65956261D01*
X92609815Y-65964282D01*
X92609818Y-65964325D01*
X92611671Y-65987863D01*
X92612618Y-65995859D01*
X92613281Y-66000042D01*
X92614500Y-66015531D01*
X92614500Y-66250266D01*
X92617274Y-66279844D01*
X92617276Y-66279852D01*
X92660884Y-66404476D01*
X92738922Y-66510214D01*
X92739289Y-66510711D01*
X92739292Y-66510713D01*
X92739293Y-66510714D01*
X92845523Y-66589115D01*
X92845524Y-66589115D01*
X92845525Y-66589116D01*
X92970151Y-66632725D01*
X92997441Y-66635284D01*
X92999733Y-66635499D01*
X92999738Y-66635500D01*
X92999744Y-66635500D01*
X93234468Y-66635500D01*
X93249952Y-66636718D01*
X93254141Y-66637382D01*
X93262155Y-66638331D01*
X93285688Y-66640183D01*
X93293740Y-66640499D01*
X93293745Y-66640500D01*
X93293754Y-66640500D01*
X93652868Y-66640500D01*
X93654860Y-66640471D01*
X93655695Y-66640460D01*
X93661329Y-66640303D01*
X93664205Y-66640183D01*
X93664229Y-66640181D01*
X93664269Y-66640180D01*
X93775805Y-66633941D01*
X93775808Y-66633940D01*
X93775876Y-66633937D01*
X93781599Y-66633456D01*
X93792802Y-66632199D01*
X93797160Y-66631586D01*
X93798458Y-66631404D01*
X93798465Y-66631402D01*
X93798485Y-66631400D01*
X93908756Y-66612743D01*
X93911579Y-66612224D01*
X93917101Y-66611131D01*
X93917119Y-66611127D01*
X93917135Y-66611124D01*
X93918447Y-66610844D01*
X93919908Y-66610534D01*
X94327227Y-66517961D01*
X94349166Y-66515500D01*
X96136147Y-66515500D01*
X96136149Y-66515500D01*
X96144406Y-66515168D01*
X96168504Y-66513226D01*
X96176712Y-66512231D01*
X96275647Y-66496175D01*
X96307720Y-66488281D01*
X96337807Y-66478251D01*
X96368189Y-66465327D01*
X96442929Y-66426167D01*
X96476608Y-66404063D01*
X96498560Y-66386347D01*
X96555717Y-66364519D01*
X96573643Y-66365237D01*
X96641019Y-66374103D01*
X96665975Y-66380789D01*
X96726192Y-66405727D01*
X96748571Y-66418646D01*
X96799639Y-66457827D01*
X96807824Y-66464107D01*
X96812699Y-66468382D01*
X97692188Y-67347870D01*
X97692793Y-67348427D01*
X97729003Y-67384640D01*
X97862767Y-67481836D01*
X98010088Y-67556911D01*
X98095864Y-67584787D01*
X98167330Y-67608014D01*
X98167333Y-67608014D01*
X98167340Y-67608017D01*
X98330650Y-67633894D01*
X98345725Y-67633894D01*
X98345778Y-67633900D01*
X98354861Y-67633900D01*
X98413320Y-67633900D01*
X98413343Y-67633900D01*
X98468837Y-67633904D01*
X98468838Y-67633903D01*
X98476780Y-67633904D01*
X98476843Y-67633900D01*
X99088612Y-67633900D01*
X99146803Y-67652807D01*
X99158609Y-67662890D01*
X99218317Y-67722598D01*
X99272085Y-67748883D01*
X99323404Y-67773972D01*
X99323405Y-67773972D01*
X99323407Y-67773973D01*
X99391540Y-67783900D01*
X99391543Y-67783900D01*
X101108057Y-67783900D01*
X101108060Y-67783900D01*
X101176193Y-67773973D01*
X101281283Y-67722598D01*
X101363998Y-67639883D01*
X101363999Y-67639879D01*
X101364002Y-67639877D01*
X101364142Y-67639682D01*
X101364356Y-67639523D01*
X101369798Y-67634082D01*
X101370614Y-67634898D01*
X101413346Y-67603315D01*
X101444708Y-67598216D01*
X101788847Y-67598216D01*
X101847038Y-67617123D01*
X101883002Y-67666623D01*
X101883002Y-67727809D01*
X101868502Y-67756004D01*
X101820884Y-67820523D01*
X101777276Y-67945147D01*
X101777274Y-67945155D01*
X101774500Y-67974733D01*
X101774500Y-68580266D01*
X101777274Y-68609844D01*
X101777276Y-68609852D01*
X101820884Y-68734476D01*
X101893019Y-68832216D01*
X101899289Y-68840711D01*
X101899292Y-68840713D01*
X101899293Y-68840714D01*
X102005523Y-68919115D01*
X102005524Y-68919115D01*
X102005525Y-68919116D01*
X102130151Y-68962725D01*
X102157441Y-68965284D01*
X102159733Y-68965499D01*
X102159738Y-68965500D01*
X102159744Y-68965500D01*
X102740262Y-68965500D01*
X102740265Y-68965499D01*
X102769849Y-68962725D01*
X102894475Y-68919116D01*
X103000711Y-68840711D01*
X103079116Y-68734475D01*
X103122725Y-68609849D01*
X103125500Y-68580256D01*
X103125500Y-68347216D01*
X103144407Y-68289025D01*
X103193907Y-68253061D01*
X103224500Y-68248216D01*
X103383911Y-68248216D01*
X103438913Y-68264901D01*
X103442454Y-68267267D01*
X103442455Y-68267268D01*
X103508776Y-68311583D01*
X103553238Y-68320427D01*
X103567248Y-68323214D01*
X103567253Y-68323214D01*
X103567259Y-68323216D01*
X103567260Y-68323216D01*
X105166754Y-68323216D01*
X105166755Y-68323216D01*
X105225238Y-68311583D01*
X105291559Y-68267268D01*
X105335874Y-68200947D01*
X105347507Y-68142464D01*
X105347507Y-67702968D01*
X105335874Y-67644485D01*
X105335872Y-67644482D01*
X105335872Y-67644480D01*
X105332194Y-67635600D01*
X105327393Y-67574603D01*
X105332195Y-67559826D01*
X105335870Y-67550952D01*
X105335874Y-67550947D01*
X105347507Y-67492464D01*
X105347507Y-67052968D01*
X105335874Y-66994485D01*
X105291559Y-66928164D01*
X105291555Y-66928161D01*
X105225240Y-66883850D01*
X105225238Y-66883849D01*
X105225235Y-66883848D01*
X105225234Y-66883848D01*
X105166765Y-66872217D01*
X105166755Y-66872216D01*
X103567259Y-66872216D01*
X103567258Y-66872216D01*
X103567248Y-66872217D01*
X103508779Y-66883848D01*
X103508773Y-66883850D01*
X103468570Y-66910714D01*
X103442460Y-66928161D01*
X103438913Y-66930531D01*
X103383911Y-66947216D01*
X101425304Y-66947216D01*
X101367113Y-66928309D01*
X101355306Y-66918225D01*
X101281283Y-66844202D01*
X101269832Y-66838604D01*
X101176195Y-66792827D01*
X101148019Y-66788722D01*
X101108060Y-66782900D01*
X99391540Y-66782900D01*
X99357566Y-66787850D01*
X99323404Y-66792827D01*
X99218318Y-66844201D01*
X99218317Y-66844201D01*
X99218317Y-66844202D01*
X99158613Y-66903905D01*
X99104099Y-66931681D01*
X99088612Y-66932900D01*
X98416623Y-66932900D01*
X98410160Y-66932476D01*
X98351213Y-66924711D01*
X98335843Y-66922687D01*
X98310881Y-66915997D01*
X98250671Y-66891053D01*
X98228290Y-66878129D01*
X98176790Y-66838607D01*
X98168612Y-66832331D01*
X98163745Y-66828062D01*
X98154933Y-66819250D01*
X98124434Y-66788748D01*
X98124405Y-66788722D01*
X97532342Y-66196660D01*
X99074300Y-66196660D01*
X99080918Y-66242081D01*
X99084227Y-66264795D01*
X99106607Y-66310573D01*
X99135602Y-66369883D01*
X99218317Y-66452598D01*
X99262397Y-66474147D01*
X99323404Y-66503972D01*
X99323405Y-66503972D01*
X99323407Y-66503973D01*
X99391540Y-66513900D01*
X99391543Y-66513900D01*
X101108057Y-66513900D01*
X101108060Y-66513900D01*
X101176193Y-66503973D01*
X101281283Y-66452598D01*
X101363998Y-66369883D01*
X101415373Y-66264793D01*
X101425300Y-66196660D01*
X101425300Y-65830140D01*
X101415373Y-65762007D01*
X101415023Y-65761292D01*
X101379560Y-65688750D01*
X101363998Y-65656917D01*
X101281283Y-65574202D01*
X101269832Y-65568604D01*
X101176195Y-65522827D01*
X101148939Y-65518856D01*
X101108060Y-65512900D01*
X101108057Y-65512900D01*
X100737776Y-65512900D01*
X100719015Y-65510202D01*
X100718972Y-65510508D01*
X100711961Y-65509500D01*
X100568039Y-65509500D01*
X100568038Y-65509500D01*
X100561028Y-65510508D01*
X100560984Y-65510202D01*
X100542224Y-65512900D01*
X99391540Y-65512900D01*
X99357473Y-65517863D01*
X99323404Y-65522827D01*
X99218318Y-65574201D01*
X99135601Y-65656918D01*
X99084227Y-65762004D01*
X99084227Y-65762007D01*
X99074300Y-65830140D01*
X99074300Y-66196660D01*
X97532342Y-66196660D01*
X97351158Y-66015476D01*
X97351137Y-66015451D01*
X97335278Y-65999593D01*
X97335225Y-65999489D01*
X97247817Y-65912091D01*
X97247811Y-65912087D01*
X97241027Y-65907159D01*
X97114032Y-65814902D01*
X97103014Y-65809289D01*
X96966699Y-65739842D01*
X96966691Y-65739839D01*
X96922889Y-65725610D01*
X96809427Y-65688752D01*
X96809425Y-65688751D01*
X96809420Y-65688750D01*
X96646105Y-65662895D01*
X96569774Y-65662899D01*
X96511582Y-65643995D01*
X96507598Y-65640943D01*
X96476618Y-65615943D01*
X96476617Y-65615942D01*
X96476613Y-65615939D01*
X96476604Y-65615933D01*
X96442944Y-65593840D01*
X96442930Y-65593832D01*
X96368176Y-65554665D01*
X96337805Y-65541747D01*
X96337801Y-65541745D01*
X96337795Y-65541743D01*
X96307717Y-65531717D01*
X96307716Y-65531716D01*
X96307714Y-65531716D01*
X96275643Y-65523822D01*
X96176687Y-65507765D01*
X96168502Y-65506773D01*
X96144406Y-65504831D01*
X96136153Y-65504500D01*
X96136149Y-65504500D01*
X94380957Y-65504500D01*
X94339990Y-65495626D01*
X94328763Y-65490523D01*
X94238080Y-65449303D01*
X94047152Y-65362517D01*
X94042141Y-65360399D01*
X94042108Y-65360385D01*
X94042084Y-65360375D01*
X94042068Y-65360369D01*
X94032183Y-65356494D01*
X94032063Y-65356449D01*
X94026929Y-65354594D01*
X93829601Y-65289208D01*
X93818996Y-65286312D01*
X93787692Y-65279531D01*
X93787683Y-65279529D01*
X93776898Y-65277790D01*
X93776848Y-65277783D01*
X93570160Y-65255655D01*
X93570124Y-65255652D01*
X93564689Y-65255217D01*
X93564674Y-65255216D01*
X93553974Y-65254647D01*
X93553967Y-65254646D01*
X93553952Y-65254646D01*
X93548485Y-65254500D01*
X93293754Y-65254500D01*
X93293737Y-65254500D01*
X93285716Y-65254815D01*
X93285673Y-65254818D01*
X93278585Y-65255375D01*
X93262156Y-65256669D01*
X93254143Y-65257618D01*
X93249954Y-65258281D01*
X93234470Y-65259500D01*
X92999733Y-65259500D01*
X92970155Y-65262274D01*
X92970147Y-65262276D01*
X92845523Y-65305884D01*
X92739293Y-65384285D01*
X92739285Y-65384293D01*
X92660884Y-65490523D01*
X92617276Y-65615147D01*
X92617274Y-65615155D01*
X92614500Y-65644733D01*
X92614500Y-65879470D01*
X92613281Y-65894956D01*
X92612619Y-65899129D01*
X92612259Y-65902171D01*
X92611669Y-65907156D01*
X92611010Y-65915525D01*
X92609818Y-65930673D01*
X92609815Y-65930716D01*
X92609500Y-65938737D01*
X92609500Y-65956261D01*
X90693732Y-65956261D01*
X90768134Y-65902198D01*
X90825201Y-65845125D01*
X90825226Y-65845100D01*
X90907773Y-65762554D01*
X90907773Y-65762553D01*
X90909035Y-65761292D01*
X90909575Y-65760702D01*
X90944669Y-65725613D01*
X90944669Y-65725612D01*
X90944672Y-65725610D01*
X91039555Y-65595029D01*
X91112844Y-65451214D01*
X91162733Y-65297705D01*
X91187994Y-65138281D01*
X91187996Y-65092110D01*
X91188000Y-65092066D01*
X91188000Y-65050504D01*
X91188000Y-65050494D01*
X91188003Y-65006021D01*
X91188001Y-65006016D01*
X91188002Y-64998821D01*
X91188000Y-64998779D01*
X91188000Y-64926660D01*
X94124300Y-64926660D01*
X94130918Y-64972082D01*
X94134227Y-64994795D01*
X94181806Y-65092119D01*
X94185602Y-65099883D01*
X94268317Y-65182598D01*
X94292373Y-65194358D01*
X94373404Y-65233972D01*
X94373405Y-65233972D01*
X94373407Y-65233973D01*
X94441540Y-65243900D01*
X94441543Y-65243900D01*
X96158057Y-65243900D01*
X96158060Y-65243900D01*
X96226193Y-65233973D01*
X96331283Y-65182598D01*
X96413998Y-65099883D01*
X96465373Y-64994793D01*
X96475300Y-64926660D01*
X99074300Y-64926660D01*
X99080918Y-64972082D01*
X99084227Y-64994795D01*
X99131806Y-65092119D01*
X99135602Y-65099883D01*
X99218317Y-65182598D01*
X99242373Y-65194358D01*
X99323404Y-65233972D01*
X99323405Y-65233972D01*
X99323407Y-65233973D01*
X99391540Y-65243900D01*
X99391543Y-65243900D01*
X101108057Y-65243900D01*
X101108060Y-65243900D01*
X101176193Y-65233973D01*
X101281283Y-65182598D01*
X101363998Y-65099883D01*
X101415373Y-64994793D01*
X101425300Y-64926660D01*
X101425300Y-64560140D01*
X101415373Y-64492007D01*
X101363998Y-64386917D01*
X101281283Y-64304202D01*
X101258582Y-64293104D01*
X101176195Y-64252827D01*
X101148939Y-64248856D01*
X101108060Y-64242900D01*
X99391540Y-64242900D01*
X99357473Y-64247863D01*
X99323404Y-64252827D01*
X99218318Y-64304201D01*
X99135601Y-64386918D01*
X99084227Y-64492004D01*
X99082824Y-64501634D01*
X99074300Y-64560140D01*
X99074300Y-64926660D01*
X96475300Y-64926660D01*
X96475300Y-64560140D01*
X96465373Y-64492007D01*
X96413998Y-64386917D01*
X96331283Y-64304202D01*
X96308582Y-64293104D01*
X96226195Y-64252827D01*
X96198939Y-64248856D01*
X96158060Y-64242900D01*
X94441540Y-64242900D01*
X94407473Y-64247863D01*
X94373404Y-64252827D01*
X94268318Y-64304201D01*
X94185601Y-64386918D01*
X94134227Y-64492004D01*
X94132824Y-64501634D01*
X94124300Y-64560140D01*
X94124300Y-64926660D01*
X91188000Y-64926660D01*
X91188000Y-62352861D01*
X91206907Y-62294670D01*
X91254301Y-62259417D01*
X91369475Y-62219116D01*
X91475711Y-62140711D01*
X91554116Y-62034475D01*
X91597725Y-61909849D01*
X91600500Y-61880256D01*
X91600500Y-61299744D01*
X91600500Y-61299738D01*
X91600499Y-61299733D01*
X91598961Y-61283330D01*
X91597725Y-61270151D01*
X91554116Y-61145525D01*
X91504546Y-61078360D01*
X91475714Y-61039293D01*
X91475713Y-61039292D01*
X91475711Y-61039289D01*
X91475706Y-61039285D01*
X91369476Y-60960884D01*
X91254302Y-60920582D01*
X91205621Y-60883516D01*
X91188000Y-60827138D01*
X91188000Y-59527613D01*
X91188000Y-58310000D01*
X97974355Y-58310000D01*
X97994860Y-58478872D01*
X98055182Y-58637930D01*
X98151817Y-58777929D01*
X98279148Y-58890734D01*
X98429775Y-58969790D01*
X98594944Y-59010500D01*
X98594947Y-59010500D01*
X98765053Y-59010500D01*
X98765056Y-59010500D01*
X98930225Y-58969790D01*
X99080852Y-58890734D01*
X99143314Y-58835397D01*
X99199409Y-58810962D01*
X99208964Y-58810500D01*
X101016678Y-58810500D01*
X101074869Y-58829407D01*
X101086682Y-58839496D01*
X107245518Y-64998332D01*
X107258796Y-65014810D01*
X107262856Y-65021127D01*
X107262857Y-65021129D01*
X107302394Y-65055387D01*
X107304982Y-65057796D01*
X107316407Y-65069221D01*
X107329345Y-65078906D01*
X107332097Y-65081124D01*
X107371624Y-65115375D01*
X107371625Y-65115375D01*
X107371627Y-65115377D01*
X107378454Y-65118495D01*
X107396651Y-65129291D01*
X107402669Y-65133796D01*
X107451697Y-65152081D01*
X107454941Y-65153425D01*
X107502543Y-65175165D01*
X107509978Y-65176233D01*
X107530484Y-65181468D01*
X107533514Y-65182598D01*
X107537517Y-65184091D01*
X107589729Y-65187825D01*
X107593196Y-65188198D01*
X107609201Y-65190500D01*
X107625348Y-65190500D01*
X107628881Y-65190626D01*
X107633871Y-65190982D01*
X107681073Y-65194359D01*
X107687470Y-65192967D01*
X107688410Y-65192763D01*
X107709456Y-65190500D01*
X108112228Y-65190500D01*
X108170419Y-65209407D01*
X108172494Y-65210957D01*
X108177157Y-65214535D01*
X108177161Y-65214537D01*
X108292411Y-65262275D01*
X108323238Y-65275044D01*
X108430787Y-65289203D01*
X108479999Y-65295682D01*
X108480000Y-65295682D01*
X108480001Y-65295682D01*
X108529213Y-65289203D01*
X108636762Y-65275044D01*
X108782841Y-65214536D01*
X108908282Y-65118282D01*
X109004536Y-64992841D01*
X109065044Y-64846762D01*
X109085682Y-64690000D01*
X109065044Y-64533238D01*
X109054899Y-64508746D01*
X109004537Y-64387161D01*
X109004537Y-64387160D01*
X108908286Y-64261723D01*
X108908285Y-64261722D01*
X108908282Y-64261718D01*
X108908277Y-64261714D01*
X108908276Y-64261713D01*
X108824480Y-64197415D01*
X108782841Y-64165464D01*
X108782840Y-64165463D01*
X108782838Y-64165462D01*
X108636766Y-64104957D01*
X108636758Y-64104955D01*
X108480001Y-64084318D01*
X108479999Y-64084318D01*
X108323241Y-64104955D01*
X108323233Y-64104957D01*
X108177161Y-64165462D01*
X108177157Y-64165464D01*
X108172494Y-64169043D01*
X108114818Y-64189466D01*
X108112228Y-64189500D01*
X107893322Y-64189500D01*
X107835131Y-64170593D01*
X107823318Y-64160504D01*
X101664480Y-58001666D01*
X101651199Y-57985183D01*
X101647144Y-57978873D01*
X101621738Y-57956859D01*
X101607603Y-57944610D01*
X101605026Y-57942211D01*
X101593595Y-57930781D01*
X101593593Y-57930779D01*
X101580636Y-57921080D01*
X101577917Y-57918888D01*
X101538373Y-57884623D01*
X101531538Y-57881501D01*
X101513348Y-57870708D01*
X101512293Y-57869918D01*
X101507331Y-57866204D01*
X101507328Y-57866203D01*
X101507327Y-57866202D01*
X101458314Y-57847921D01*
X101455049Y-57846569D01*
X101407458Y-57824835D01*
X101407454Y-57824834D01*
X101400014Y-57823764D01*
X101379520Y-57818533D01*
X101372482Y-57815908D01*
X101372483Y-57815908D01*
X101320301Y-57812176D01*
X101316788Y-57811798D01*
X101300800Y-57809500D01*
X101300799Y-57809500D01*
X101284652Y-57809500D01*
X101281119Y-57809374D01*
X101251240Y-57807237D01*
X101228927Y-57805641D01*
X101228926Y-57805641D01*
X101228925Y-57805641D01*
X101221590Y-57807237D01*
X101200544Y-57809500D01*
X99208964Y-57809500D01*
X99150773Y-57790593D01*
X99143315Y-57784603D01*
X99080853Y-57729267D01*
X99080852Y-57729266D01*
X98930225Y-57650210D01*
X98930224Y-57650209D01*
X98930223Y-57650209D01*
X98765058Y-57609500D01*
X98765056Y-57609500D01*
X98594944Y-57609500D01*
X98594941Y-57609500D01*
X98429776Y-57650209D01*
X98279146Y-57729267D01*
X98151818Y-57842069D01*
X98151816Y-57842072D01*
X98081277Y-57944265D01*
X98055182Y-57982070D01*
X98011709Y-58096702D01*
X97994860Y-58141129D01*
X97980629Y-58258333D01*
X97974355Y-58310000D01*
X91188000Y-58310000D01*
X91188000Y-58098838D01*
X91188187Y-58094562D01*
X91191763Y-58053693D01*
X91181142Y-58014059D01*
X91180212Y-58009860D01*
X91173088Y-57969455D01*
X91172334Y-57968149D01*
X91162441Y-57944265D01*
X91162053Y-57942816D01*
X91161629Y-57942211D01*
X91138527Y-57909217D01*
X91136211Y-57905583D01*
X91115694Y-57870045D01*
X91084271Y-57843678D01*
X91081094Y-57840766D01*
X89411741Y-56171414D01*
X89408822Y-56168229D01*
X89383115Y-56137591D01*
X97609500Y-56137591D01*
X97624987Y-56294849D01*
X97624988Y-56294855D01*
X97686201Y-56496645D01*
X97686203Y-56496650D01*
X97785602Y-56682613D01*
X97910526Y-56834834D01*
X97919379Y-56845621D01*
X97919384Y-56845625D01*
X98082386Y-56979397D01*
X98268349Y-57078796D01*
X98268355Y-57078799D01*
X98372860Y-57110500D01*
X98470144Y-57140011D01*
X98470149Y-57140012D01*
X98679997Y-57160680D01*
X98680000Y-57160680D01*
X98680003Y-57160680D01*
X98889850Y-57140012D01*
X98889855Y-57140011D01*
X99091645Y-57078799D01*
X99188284Y-57027144D01*
X99277613Y-56979397D01*
X99277614Y-56979395D01*
X99277616Y-56979395D01*
X99440621Y-56845621D01*
X99511484Y-56759274D01*
X102689500Y-56759274D01*
X102692353Y-56789694D01*
X102692355Y-56789703D01*
X102737207Y-56917883D01*
X102817845Y-57027144D01*
X102817847Y-57027146D01*
X102817850Y-57027150D01*
X102817853Y-57027152D01*
X102817855Y-57027154D01*
X102927116Y-57107792D01*
X102927117Y-57107792D01*
X102927118Y-57107793D01*
X103055301Y-57152646D01*
X103085725Y-57155499D01*
X103085727Y-57155500D01*
X103085734Y-57155500D01*
X104434273Y-57155500D01*
X104434273Y-57155499D01*
X104464699Y-57152646D01*
X104592882Y-57107793D01*
X104702150Y-57027150D01*
X104782793Y-56917882D01*
X104827646Y-56789699D01*
X104830499Y-56759273D01*
X104830500Y-56759273D01*
X104830500Y-54960726D01*
X104830499Y-54960725D01*
X104827646Y-54930305D01*
X104827646Y-54930301D01*
X104782793Y-54802118D01*
X104737392Y-54740602D01*
X104702154Y-54692855D01*
X104702152Y-54692853D01*
X104702150Y-54692850D01*
X104702146Y-54692847D01*
X104702144Y-54692845D01*
X104592883Y-54612207D01*
X104464703Y-54567355D01*
X104464694Y-54567353D01*
X104434274Y-54564500D01*
X104434266Y-54564500D01*
X103085734Y-54564500D01*
X103085725Y-54564500D01*
X103055305Y-54567353D01*
X103055296Y-54567355D01*
X102927116Y-54612207D01*
X102817855Y-54692845D01*
X102817845Y-54692855D01*
X102737207Y-54802116D01*
X102692355Y-54930296D01*
X102692353Y-54930305D01*
X102689500Y-54960725D01*
X102689500Y-56759274D01*
X99511484Y-56759274D01*
X99574395Y-56682616D01*
X99673799Y-56496645D01*
X99735011Y-56294855D01*
X99735084Y-56294120D01*
X99750500Y-56137591D01*
X99750500Y-55582408D01*
X99735012Y-55425150D01*
X99735011Y-55425144D01*
X99703830Y-55322354D01*
X99673799Y-55223355D01*
X99673796Y-55223349D01*
X99574397Y-55037386D01*
X99470554Y-54910853D01*
X99440621Y-54874379D01*
X99440615Y-54874374D01*
X99277613Y-54740602D01*
X99091650Y-54641203D01*
X99091645Y-54641201D01*
X98889855Y-54579988D01*
X98889850Y-54579987D01*
X98680003Y-54559320D01*
X98679997Y-54559320D01*
X98470149Y-54579987D01*
X98470144Y-54579988D01*
X98268354Y-54641201D01*
X98268349Y-54641203D01*
X98082386Y-54740602D01*
X97919384Y-54874374D01*
X97919374Y-54874384D01*
X97785602Y-55037386D01*
X97686203Y-55223349D01*
X97686201Y-55223354D01*
X97624988Y-55425144D01*
X97624987Y-55425150D01*
X97609500Y-55582408D01*
X97609500Y-56137591D01*
X89383115Y-56137591D01*
X89382456Y-56136806D01*
X89359818Y-56123736D01*
X89346918Y-56116288D01*
X89343288Y-56113975D01*
X89309684Y-56090446D01*
X89309679Y-56090443D01*
X89308224Y-56090054D01*
X89284348Y-56080164D01*
X89283045Y-56079411D01*
X89242652Y-56072289D01*
X89238436Y-56071354D01*
X89212153Y-56064312D01*
X89198807Y-56060736D01*
X89198806Y-56060736D01*
X89194381Y-56061123D01*
X89157926Y-56064312D01*
X89153626Y-56064500D01*
X89014500Y-56064500D01*
X88956309Y-56045593D01*
X88920345Y-55996093D01*
X88915500Y-55965500D01*
X88915500Y-55715726D01*
X88915499Y-55715725D01*
X88912646Y-55685301D01*
X88867793Y-55557118D01*
X88787150Y-55447850D01*
X88787146Y-55447847D01*
X88787144Y-55447845D01*
X88677883Y-55367207D01*
X88549703Y-55322355D01*
X88549694Y-55322353D01*
X88519274Y-55319500D01*
X88519266Y-55319500D01*
X86720734Y-55319500D01*
X86720725Y-55319500D01*
X86690305Y-55322353D01*
X86690296Y-55322355D01*
X86562116Y-55367207D01*
X86452855Y-55447845D01*
X86452845Y-55447855D01*
X86372207Y-55557116D01*
X86327355Y-55685296D01*
X86327353Y-55685305D01*
X86324500Y-55715725D01*
X86324500Y-56360500D01*
X86305593Y-56418691D01*
X86256093Y-56454655D01*
X86225500Y-56459500D01*
X79214500Y-56459500D01*
X79156309Y-56440593D01*
X79120345Y-56391093D01*
X79115500Y-56360500D01*
X79115500Y-56080726D01*
X79115499Y-56080725D01*
X79112646Y-56050301D01*
X79067793Y-55922118D01*
X78987150Y-55812850D01*
X78987146Y-55812847D01*
X78987144Y-55812845D01*
X78877883Y-55732207D01*
X78749703Y-55687355D01*
X78749694Y-55687353D01*
X78719274Y-55684500D01*
X78719266Y-55684500D01*
X77785734Y-55684500D01*
X77785725Y-55684500D01*
X77755305Y-55687353D01*
X77755296Y-55687355D01*
X77627116Y-55732207D01*
X77517855Y-55812845D01*
X77517845Y-55812855D01*
X77437207Y-55922116D01*
X77392355Y-56050296D01*
X77392353Y-56050305D01*
X77389500Y-56080725D01*
X77389500Y-57489274D01*
X75990499Y-57489274D01*
X75990499Y-57489273D01*
X75990500Y-57489273D01*
X75990500Y-56080726D01*
X75990499Y-56080725D01*
X75987646Y-56050301D01*
X75942793Y-55922118D01*
X75862150Y-55812850D01*
X75862146Y-55812847D01*
X75862144Y-55812845D01*
X75752883Y-55732207D01*
X75624703Y-55687355D01*
X75624694Y-55687353D01*
X75594274Y-55684500D01*
X75594266Y-55684500D01*
X74660734Y-55684500D01*
X74660725Y-55684500D01*
X74630305Y-55687353D01*
X74630296Y-55687355D01*
X74502116Y-55732207D01*
X74392855Y-55812845D01*
X74392845Y-55812855D01*
X74312207Y-55922116D01*
X74267355Y-56050296D01*
X74267353Y-56050305D01*
X74264500Y-56080725D01*
X74264500Y-57146665D01*
X74245593Y-57204856D01*
X74235504Y-57216669D01*
X69755275Y-61696896D01*
X69751306Y-61700864D01*
X69751304Y-61700866D01*
X69743870Y-61708301D01*
X69743768Y-61708352D01*
X69657763Y-61794366D01*
X69657755Y-61794375D01*
X69562885Y-61924966D01*
X69489606Y-62068805D01*
X69489605Y-62068809D01*
X69439736Y-62222322D01*
X69439735Y-62222326D01*
X69426678Y-62304801D01*
X69398904Y-62359319D01*
X69361595Y-62382764D01*
X69295525Y-62405883D01*
X69295521Y-62405885D01*
X69189293Y-62484285D01*
X69189285Y-62484293D01*
X69110884Y-62590523D01*
X69067276Y-62715147D01*
X69067274Y-62715155D01*
X69064500Y-62744733D01*
X69064500Y-63350266D01*
X60249135Y-63350266D01*
X60243290Y-56318372D01*
X60243572Y-56294120D01*
X60243616Y-56292572D01*
X60248487Y-56187218D01*
X60256822Y-56017566D01*
X60256895Y-56016388D01*
X60260008Y-55974186D01*
X60260009Y-55974182D01*
X60260008Y-55974177D01*
X60260345Y-55971012D01*
X60284666Y-55796659D01*
X60309573Y-55628759D01*
X60309742Y-55627704D01*
X60314442Y-55600618D01*
X60315013Y-55597819D01*
X60356688Y-55420630D01*
X60400159Y-55247084D01*
X60400458Y-55245951D01*
X60400463Y-55245933D01*
X60403594Y-55234616D01*
X60404328Y-55232215D01*
X60463796Y-55054789D01*
X60464045Y-55054070D01*
X60526612Y-54879207D01*
X60527906Y-54875966D01*
X60605149Y-54701026D01*
X60605594Y-54700055D01*
X60684782Y-54532623D01*
X60686246Y-54529777D01*
X60779442Y-54362459D01*
X60780154Y-54361229D01*
X60875175Y-54202696D01*
X60876772Y-54200206D01*
X60985048Y-54042142D01*
X60986111Y-54040654D01*
X61010704Y-54007493D01*
X61096129Y-53892310D01*
X61097732Y-53890269D01*
X61220210Y-53742775D01*
X61221563Y-53741215D01*
X61345529Y-53604440D01*
X61347149Y-53602738D01*
X61482738Y-53467149D01*
X61484440Y-53465529D01*
X61621215Y-53341563D01*
X61622775Y-53340210D01*
X61770269Y-53217732D01*
X61772310Y-53216129D01*
X61887493Y-53130704D01*
X61920654Y-53106111D01*
X61922142Y-53105048D01*
X62080206Y-52996772D01*
X62082696Y-52995175D01*
X62241229Y-52900154D01*
X62242459Y-52899442D01*
X62409777Y-52806246D01*
X62412623Y-52804782D01*
X62580055Y-52725594D01*
X62581026Y-52725149D01*
X62755966Y-52647906D01*
X62759207Y-52646612D01*
X62934070Y-52584045D01*
X62934789Y-52583796D01*
X63112215Y-52524328D01*
X63114616Y-52523594D01*
X63125957Y-52520456D01*
X63127084Y-52520159D01*
X63300630Y-52476688D01*
X63477819Y-52435013D01*
X63480618Y-52434442D01*
X63507704Y-52429742D01*
X63508759Y-52429573D01*
X63676659Y-52404666D01*
X63851012Y-52380345D01*
X63854180Y-52380008D01*
X63896388Y-52376895D01*
X63897572Y-52376821D01*
X64067097Y-52368493D01*
X64067132Y-52368492D01*
X64067134Y-52368552D01*
X64067410Y-52368479D01*
X64230347Y-52360946D01*
X64231858Y-52360901D01*
X64243949Y-52360754D01*
X64251126Y-52360668D01*
X116406245Y-52369362D01*
G37*
%TD.AperFunction*%
%TD*%
%TA.AperFunction,Conductor*%
%TO.N,Net-(J15-Pin_2)*%
G36*
X89726971Y-71862381D02*
G01*
X89805618Y-71878024D01*
X89850308Y-71896535D01*
X89906626Y-71934166D01*
X89940833Y-71968373D01*
X89978462Y-72024688D01*
X89996976Y-72069387D01*
X90012617Y-72148019D01*
X90015000Y-72172210D01*
X90015000Y-72324170D01*
X90014485Y-72332147D01*
X90000544Y-72439709D01*
X89992418Y-72470532D01*
X89951521Y-72570976D01*
X89948036Y-72578169D01*
X89664801Y-73077998D01*
X89590000Y-73210000D01*
X89590000Y-73341819D01*
X89590000Y-73341820D01*
X89590000Y-73341824D01*
X89590000Y-74006368D01*
X89587617Y-74030559D01*
X89568823Y-74125042D01*
X89550308Y-74169742D01*
X89490394Y-74259409D01*
X89489966Y-74260033D01*
X89390000Y-74360000D01*
X89426083Y-74496739D01*
X89426084Y-74496740D01*
X89696974Y-75523272D01*
X89700387Y-75541840D01*
X89713384Y-75664448D01*
X89711623Y-75702056D01*
X89689120Y-75813527D01*
X89676154Y-75848873D01*
X89621236Y-75948453D01*
X89598260Y-75978279D01*
X89515985Y-76056791D01*
X89485118Y-76078346D01*
X89383082Y-76128545D01*
X89347168Y-76139844D01*
X89225295Y-76158563D01*
X89206470Y-76160000D01*
X89139095Y-76160000D01*
X89120808Y-76158644D01*
X89100046Y-76155548D01*
X89002325Y-76140977D01*
X88967343Y-76130308D01*
X88956842Y-76125312D01*
X88867558Y-76082836D01*
X88837213Y-76062428D01*
X88831040Y-76056791D01*
X88755614Y-75987909D01*
X88732546Y-75959539D01*
X88676234Y-75864454D01*
X88662446Y-75830587D01*
X88636324Y-75723221D01*
X88633014Y-75686799D01*
X88634298Y-75664448D01*
X88639885Y-75567194D01*
X88642284Y-75549034D01*
X88855324Y-74526445D01*
X88855324Y-74526444D01*
X88890000Y-74360000D01*
X88752500Y-74260000D01*
X88692576Y-74200029D01*
X88669795Y-74168651D01*
X88640232Y-74110596D01*
X88628255Y-74073715D01*
X88616525Y-73999613D01*
X88615000Y-73980226D01*
X88615000Y-73373687D01*
X88615000Y-73373684D01*
X88615000Y-73210000D01*
X88167607Y-72599919D01*
X88157310Y-72583261D01*
X88098851Y-72469466D01*
X88086699Y-72432347D01*
X88066548Y-72306019D01*
X88065000Y-72286486D01*
X88065000Y-72172210D01*
X88067381Y-72148029D01*
X88083025Y-72069379D01*
X88101534Y-72024693D01*
X88139168Y-71968370D01*
X88173370Y-71934168D01*
X88229693Y-71896534D01*
X88274379Y-71878025D01*
X88353028Y-71862381D01*
X88377211Y-71860000D01*
X89702789Y-71860000D01*
X89726971Y-71862381D01*
G37*
%TD.AperFunction*%
%TD*%
%TA.AperFunction,Conductor*%
%TO.N,Net-(D1-A)*%
G36*
X114545584Y-66630478D02*
G01*
X114638801Y-66643522D01*
X114737915Y-66657393D01*
X114764298Y-66664926D01*
X114944999Y-66745000D01*
X115130000Y-66860000D01*
X115347827Y-66859031D01*
X115347828Y-66859032D01*
X115695478Y-66857486D01*
X116871753Y-66852258D01*
X116878227Y-66852654D01*
X116992602Y-66867239D01*
X117017652Y-66873852D01*
X117097415Y-66906579D01*
X117115238Y-66913893D01*
X117137717Y-66926782D01*
X117221569Y-66990779D01*
X117239927Y-67009056D01*
X117279994Y-67061073D01*
X117304294Y-67092620D01*
X117317285Y-67115045D01*
X117357756Y-67212446D01*
X117364482Y-67237474D01*
X117378291Y-67342059D01*
X117378296Y-67367940D01*
X117364494Y-67472781D01*
X117357805Y-67497745D01*
X117317330Y-67595459D01*
X117304408Y-67617840D01*
X117240023Y-67701748D01*
X117221748Y-67720023D01*
X117137840Y-67784408D01*
X117115459Y-67797330D01*
X117017745Y-67837805D01*
X116992781Y-67844494D01*
X116878221Y-67859576D01*
X116871753Y-67860000D01*
X115130000Y-67860000D01*
X114944999Y-67965000D01*
X114764850Y-68038456D01*
X114740213Y-68044961D01*
X114550454Y-68069588D01*
X114544076Y-68070000D01*
X110897423Y-68070000D01*
X110894085Y-68069887D01*
X110764568Y-68061136D01*
X110757951Y-68060237D01*
X110630789Y-68034144D01*
X110627569Y-68033370D01*
X110420837Y-67976189D01*
X110290000Y-67940000D01*
X110154251Y-67940000D01*
X110154243Y-67940000D01*
X108837784Y-67940000D01*
X108832602Y-67939728D01*
X108637470Y-67919203D01*
X108617211Y-67914893D01*
X108438060Y-67856636D01*
X108419141Y-67848206D01*
X108308741Y-67784408D01*
X108249256Y-67750032D01*
X108244919Y-67747214D01*
X108112988Y-67651264D01*
X107850000Y-67460000D01*
X107524816Y-67460000D01*
X107524812Y-67460000D01*
X107262879Y-67460000D01*
X107237676Y-67456738D01*
X107219091Y-67451845D01*
X107179187Y-67441340D01*
X107135316Y-67416521D01*
X107101483Y-67383567D01*
X107075517Y-67340362D01*
X107062425Y-67295465D01*
X107061302Y-67244233D01*
X107071727Y-67201607D01*
X107096971Y-67156056D01*
X107127265Y-67124955D01*
X107172135Y-67098521D01*
X107227284Y-67083485D01*
X107253319Y-67080000D01*
X107539083Y-67080000D01*
X107840000Y-67080000D01*
X108187556Y-66850000D01*
X108267059Y-66797386D01*
X108271169Y-66794946D01*
X108432434Y-66709515D01*
X108450230Y-66702205D01*
X108618026Y-66651712D01*
X108636910Y-66647986D01*
X108818518Y-66630234D01*
X108823331Y-66630000D01*
X114538716Y-66630000D01*
X114545584Y-66630478D01*
G37*
%TD.AperFunction*%
%TD*%
%TA.AperFunction,Conductor*%
%TO.N,Net-(U3--)*%
G36*
X93551007Y-65460280D02*
G01*
X93749552Y-65481536D01*
X93770148Y-65485997D01*
X93959698Y-65548806D01*
X93964593Y-65550724D01*
X94315000Y-65710000D01*
X96132017Y-65710000D01*
X96147874Y-65711278D01*
X96168881Y-65714686D01*
X96242732Y-65726671D01*
X96272810Y-65736697D01*
X96347559Y-65775862D01*
X96377617Y-65800118D01*
X96423631Y-65855252D01*
X96443975Y-65895939D01*
X96459098Y-65960000D01*
X96462352Y-65973781D01*
X96465000Y-65996527D01*
X96465000Y-66023472D01*
X96462352Y-66046218D01*
X96443976Y-66124059D01*
X96423631Y-66164747D01*
X96377617Y-66219881D01*
X96347556Y-66244139D01*
X96272816Y-66283299D01*
X96242729Y-66293329D01*
X96147875Y-66308722D01*
X96132017Y-66310000D01*
X94315000Y-66310000D01*
X94205585Y-66334866D01*
X94205572Y-66334869D01*
X94205570Y-66334869D01*
X93913530Y-66401243D01*
X93875764Y-66409826D01*
X93873058Y-66410362D01*
X93767032Y-66428301D01*
X93761534Y-66428918D01*
X93654167Y-66434923D01*
X93651403Y-66435000D01*
X93297790Y-66435000D01*
X93282303Y-66433781D01*
X93251599Y-66428918D01*
X93158705Y-66414205D01*
X93129247Y-66404634D01*
X93024774Y-66351402D01*
X92999715Y-66333196D01*
X92916803Y-66250284D01*
X92898597Y-66225225D01*
X92858639Y-66146803D01*
X92845363Y-66120748D01*
X92835795Y-66091296D01*
X92816219Y-65967695D01*
X92815000Y-65952209D01*
X92815000Y-65942790D01*
X92816219Y-65927304D01*
X92821186Y-65895940D01*
X92835795Y-65803701D01*
X92845363Y-65774252D01*
X92898599Y-65669769D01*
X92916800Y-65644718D01*
X92999718Y-65561800D01*
X93024769Y-65543599D01*
X93129252Y-65490363D01*
X93158701Y-65480795D01*
X93270938Y-65463018D01*
X93282304Y-65461219D01*
X93297790Y-65460000D01*
X93545751Y-65460000D01*
X93551007Y-65460280D01*
G37*
%TD.AperFunction*%
%TD*%
%TA.AperFunction,Conductor*%
%TO.N,Net-(J12-Pin_2)*%
G36*
X84776971Y-71862381D02*
G01*
X84855618Y-71878024D01*
X84900308Y-71896535D01*
X84956626Y-71934166D01*
X84990833Y-71968373D01*
X84996533Y-71976903D01*
X85028462Y-72024688D01*
X85046976Y-72069387D01*
X85062617Y-72148019D01*
X85065000Y-72172210D01*
X85065000Y-72269191D01*
X85063153Y-72290516D01*
X85039147Y-72428024D01*
X85024696Y-72468151D01*
X84955519Y-72589391D01*
X84943346Y-72606997D01*
X84579802Y-73046280D01*
X84579800Y-73046282D01*
X84465000Y-73185000D01*
X84465000Y-73365062D01*
X84465000Y-73365063D01*
X84465000Y-73650243D01*
X84463473Y-73669641D01*
X84444824Y-73787383D01*
X84432836Y-73824280D01*
X84383198Y-73921700D01*
X84360394Y-73953086D01*
X84283086Y-74030394D01*
X84251700Y-74053198D01*
X84154280Y-74102836D01*
X84117383Y-74114824D01*
X83999641Y-74133473D01*
X83980243Y-74135000D01*
X83514708Y-74135000D01*
X83513242Y-74134982D01*
X83491519Y-74134461D01*
X83488558Y-74134319D01*
X83466867Y-74132757D01*
X83465392Y-74132633D01*
X81370392Y-73931190D01*
X81351903Y-73927985D01*
X81232990Y-73897947D01*
X81198491Y-73883402D01*
X81102091Y-73824222D01*
X81073505Y-73800039D01*
X80999163Y-73714775D01*
X80979106Y-73683171D01*
X80933606Y-73579598D01*
X80923897Y-73543440D01*
X80910337Y-73421540D01*
X80909681Y-73402800D01*
X80921989Y-73101261D01*
X80923965Y-73083715D01*
X80945046Y-72970115D01*
X80956346Y-72936710D01*
X81004508Y-72841629D01*
X81024754Y-72812758D01*
X81097739Y-72735079D01*
X81125297Y-72713075D01*
X81217188Y-72659091D01*
X81249826Y-72645733D01*
X81361889Y-72617622D01*
X81379297Y-72614555D01*
X82390000Y-72510000D01*
X83017312Y-71983866D01*
X83035004Y-71971484D01*
X83157037Y-71901056D01*
X83197486Y-71886340D01*
X83336237Y-71861882D01*
X83357762Y-71860000D01*
X84752789Y-71860000D01*
X84776971Y-71862381D01*
G37*
%TD.AperFunction*%
%TD*%
%TA.AperFunction,Conductor*%
%TO.N,/Signal*%
G36*
X69759294Y-64388055D02*
G01*
X69867385Y-64405175D01*
X69904278Y-64417162D01*
X70001701Y-64466802D01*
X70033086Y-64489605D01*
X70110394Y-64566913D01*
X70133198Y-64598299D01*
X70182836Y-64695719D01*
X70194824Y-64732616D01*
X70213473Y-64850358D01*
X70215000Y-64869756D01*
X70215000Y-69850243D01*
X70213473Y-69869641D01*
X70194824Y-69987383D01*
X70182836Y-70024280D01*
X70133198Y-70121700D01*
X70110394Y-70153086D01*
X70033086Y-70230394D01*
X70001700Y-70253198D01*
X69904280Y-70302836D01*
X69867383Y-70314824D01*
X69759334Y-70331937D01*
X69720663Y-70331957D01*
X69611916Y-70314847D01*
X69575233Y-70303011D01*
X69476935Y-70253304D01*
X69445658Y-70230775D01*
X69445273Y-70230394D01*
X69367370Y-70153281D01*
X69344530Y-70122243D01*
X69293822Y-70024456D01*
X69281612Y-69987896D01*
X69261758Y-69869589D01*
X69260054Y-69850332D01*
X69240025Y-67887372D01*
X69240007Y-67884991D01*
X69240000Y-67882273D01*
X69240000Y-65889174D01*
X69240017Y-65885000D01*
X69240069Y-65880834D01*
X69256923Y-64869587D01*
X69258737Y-64850422D01*
X69279360Y-64731762D01*
X69291706Y-64695419D01*
X69343097Y-64597402D01*
X69365965Y-64566580D01*
X69444872Y-64488977D01*
X69476075Y-64466625D01*
X69574360Y-64417163D01*
X69574927Y-64416877D01*
X69611469Y-64405137D01*
X69720705Y-64388023D01*
X69759294Y-64388055D01*
G37*
%TD.AperFunction*%
%TD*%
%TA.AperFunction,Conductor*%
%TO.N,Net-(J11-Pin_2)*%
G36*
X84024640Y-62561527D02*
G01*
X84080610Y-62570391D01*
X84142383Y-62580175D01*
X84179278Y-62592162D01*
X84276701Y-62641802D01*
X84308086Y-62664605D01*
X84385394Y-62741913D01*
X84408198Y-62773299D01*
X84457836Y-62870719D01*
X84469824Y-62907616D01*
X84488473Y-63025358D01*
X84490000Y-63044755D01*
X84490000Y-63510000D01*
X84598249Y-63646489D01*
X84598250Y-63646490D01*
X84950276Y-64090348D01*
X84961770Y-64107638D01*
X85027048Y-64226313D01*
X85040662Y-64265386D01*
X85063262Y-64398935D01*
X85065000Y-64419625D01*
X85065000Y-64535289D01*
X85062617Y-64559481D01*
X85046024Y-64642897D01*
X85027509Y-64687597D01*
X84987173Y-64747963D01*
X84952963Y-64782173D01*
X84892597Y-64822509D01*
X84847897Y-64841024D01*
X84812798Y-64848005D01*
X84764479Y-64857617D01*
X84740289Y-64860000D01*
X83439711Y-64860000D01*
X83415520Y-64857617D01*
X83332101Y-64841023D01*
X83287404Y-64822510D01*
X83227036Y-64782173D01*
X83192826Y-64747963D01*
X83152488Y-64687593D01*
X83133977Y-64642903D01*
X83117381Y-64559470D01*
X83115000Y-64535289D01*
X83115000Y-64367694D01*
X83115491Y-64359903D01*
X83128828Y-64254654D01*
X83136600Y-64224474D01*
X83175768Y-64125873D01*
X83179101Y-64118816D01*
X83190305Y-64098509D01*
X83452789Y-63622758D01*
X83452789Y-63622755D01*
X83515000Y-63510000D01*
X83515000Y-63044756D01*
X83516527Y-63025359D01*
X83535175Y-62907617D01*
X83535176Y-62907616D01*
X83535175Y-62907614D01*
X83547161Y-62870722D01*
X83596803Y-62773295D01*
X83619602Y-62741916D01*
X83696916Y-62664602D01*
X83728295Y-62641803D01*
X83825722Y-62592161D01*
X83862614Y-62580175D01*
X83940678Y-62567811D01*
X83980360Y-62561527D01*
X83999757Y-62560000D01*
X84005243Y-62560000D01*
X84024640Y-62561527D01*
G37*
%TD.AperFunction*%
%TD*%
%TA.AperFunction,Conductor*%
%TO.N,Net-(U1D-+)*%
G36*
X89986819Y-66785026D02*
G01*
X89992769Y-66785198D01*
X90013181Y-66785791D01*
X90016719Y-66785997D01*
X90042988Y-66788290D01*
X90044738Y-66788468D01*
X90169481Y-66803022D01*
X90900151Y-66888267D01*
X91083894Y-66909704D01*
X91101590Y-66913087D01*
X91209024Y-66941852D01*
X91242036Y-66956085D01*
X91328934Y-67009667D01*
X91356474Y-67032770D01*
X91424350Y-67109024D01*
X91444107Y-67139058D01*
X91487258Y-67231581D01*
X91497569Y-67266018D01*
X91512260Y-67366297D01*
X91512043Y-67403670D01*
X91497271Y-67496933D01*
X91485283Y-67533829D01*
X91442747Y-67617311D01*
X91419943Y-67648697D01*
X91353697Y-67714943D01*
X91322311Y-67737747D01*
X91238829Y-67780283D01*
X91201933Y-67792271D01*
X91122579Y-67804839D01*
X91099640Y-67808473D01*
X91080243Y-67810000D01*
X90803171Y-67810000D01*
X90784728Y-67808621D01*
X90761551Y-67805135D01*
X90665249Y-67790649D01*
X90629995Y-67779797D01*
X90521100Y-67727479D01*
X90505073Y-67718249D01*
X90142267Y-67471541D01*
X90142263Y-67471539D01*
X90142260Y-67471537D01*
X90142261Y-67471537D01*
X90015000Y-67385000D01*
X89861105Y-67385000D01*
X89861100Y-67385000D01*
X88377211Y-67385000D01*
X88353020Y-67382617D01*
X88274387Y-67366976D01*
X88229689Y-67348462D01*
X88173373Y-67310833D01*
X88139166Y-67276626D01*
X88101535Y-67220308D01*
X88083024Y-67175615D01*
X88069811Y-67109186D01*
X88069811Y-67060813D01*
X88083024Y-66994382D01*
X88101534Y-66949693D01*
X88139168Y-66893370D01*
X88173370Y-66859168D01*
X88229693Y-66821534D01*
X88274379Y-66803025D01*
X88353028Y-66787381D01*
X88377211Y-66785000D01*
X89985020Y-66785000D01*
X89986819Y-66785026D01*
G37*
%TD.AperFunction*%
%TD*%
%TA.AperFunction,Conductor*%
%TO.N,Net-(U3-+)*%
G36*
X87305437Y-62569702D02*
G01*
X87324694Y-62571406D01*
X87443001Y-62591260D01*
X87479561Y-62603470D01*
X87577348Y-62654178D01*
X87608386Y-62677018D01*
X87682529Y-62751921D01*
X87685880Y-62755306D01*
X87708409Y-62786583D01*
X87758116Y-62884881D01*
X87769952Y-62921564D01*
X87787062Y-63030311D01*
X87787042Y-63068982D01*
X87769929Y-63177031D01*
X87757941Y-63213928D01*
X87708303Y-63311348D01*
X87685499Y-63342734D01*
X87608191Y-63420042D01*
X87576805Y-63442846D01*
X87479385Y-63492484D01*
X87442488Y-63504472D01*
X87324746Y-63523121D01*
X87305348Y-63524648D01*
X85837362Y-63524648D01*
X85817964Y-63523121D01*
X85696358Y-63503860D01*
X85659461Y-63491872D01*
X85558557Y-63440459D01*
X85527171Y-63417655D01*
X85447097Y-63337581D01*
X85424293Y-63306195D01*
X85372880Y-63205291D01*
X85360892Y-63168394D01*
X85343187Y-63056606D01*
X85343207Y-63017691D01*
X85360916Y-62906616D01*
X85373055Y-62869511D01*
X85424397Y-62769504D01*
X85447473Y-62738015D01*
X85527369Y-62658930D01*
X85559087Y-62636180D01*
X85659617Y-62585859D01*
X85696840Y-62574100D01*
X85798269Y-62558988D01*
X85817860Y-62556070D01*
X85837394Y-62554722D01*
X87305437Y-62569702D01*
G37*
%TD.AperFunction*%
%TD*%
%TA.AperFunction,Conductor*%
%TO.N,/Signal*%
G36*
X65066550Y-66860238D02*
G01*
X65226359Y-66874208D01*
X65247955Y-66878012D01*
X65343304Y-66903538D01*
X65402910Y-66919496D01*
X65408151Y-66921146D01*
X66246021Y-67225826D01*
X66246022Y-67225826D01*
X66315862Y-67251222D01*
X66356872Y-67276206D01*
X66387909Y-67340059D01*
X66379498Y-67410556D01*
X66338049Y-67460780D01*
X66247154Y-67497137D01*
X66247156Y-67497137D01*
X66247148Y-67497140D01*
X65521594Y-67787362D01*
X65515929Y-67789321D01*
X65400318Y-67823240D01*
X65348058Y-67838572D01*
X65324555Y-67843098D01*
X65150400Y-67859715D01*
X65144421Y-67860000D01*
X65052410Y-67860000D01*
X65027829Y-67857579D01*
X64997954Y-67851636D01*
X64949775Y-67842053D01*
X64904356Y-67823240D01*
X64848704Y-67786054D01*
X64813945Y-67751295D01*
X64776758Y-67695640D01*
X64757946Y-67650223D01*
X64742421Y-67572171D01*
X64740000Y-67547590D01*
X64740000Y-67122409D01*
X64742421Y-67097829D01*
X64754140Y-67038911D01*
X64772953Y-66993491D01*
X64799300Y-66954059D01*
X64834059Y-66919300D01*
X64873492Y-66892952D01*
X64918909Y-66874140D01*
X64953926Y-66867175D01*
X64977830Y-66862421D01*
X65002410Y-66860000D01*
X65061079Y-66860000D01*
X65066550Y-66860238D01*
G37*
%TD.AperFunction*%
%TD*%
%TA.AperFunction,Conductor*%
%TO.N,Net-(J14-Pin_2)*%
G36*
X89199640Y-61111527D02*
G01*
X89255610Y-61120391D01*
X89317383Y-61130175D01*
X89354278Y-61142162D01*
X89451701Y-61191802D01*
X89483086Y-61214605D01*
X89560394Y-61291913D01*
X89583198Y-61323299D01*
X89632836Y-61420719D01*
X89644824Y-61457616D01*
X89663473Y-61575358D01*
X89665000Y-61594756D01*
X89665000Y-62035514D01*
X89664983Y-62036938D01*
X89664573Y-62054209D01*
X89664472Y-62058492D01*
X89664332Y-62061435D01*
X89662797Y-62082948D01*
X89662681Y-62084330D01*
X89639510Y-62327632D01*
X89617255Y-62561312D01*
X89617252Y-62561352D01*
X89615000Y-62585000D01*
X89615000Y-63535000D01*
X89680877Y-63650284D01*
X89680877Y-63650285D01*
X89680884Y-63650298D01*
X89947119Y-64116208D01*
X89950651Y-64123441D01*
X89992106Y-64224475D01*
X90000344Y-64255496D01*
X90014478Y-64363780D01*
X90015000Y-64371813D01*
X90015000Y-64535289D01*
X90012617Y-64559481D01*
X89996024Y-64642897D01*
X89977509Y-64687597D01*
X89937173Y-64747963D01*
X89902963Y-64782173D01*
X89842597Y-64822509D01*
X89797897Y-64841024D01*
X89762798Y-64848005D01*
X89714479Y-64857617D01*
X89690289Y-64860000D01*
X88389711Y-64860000D01*
X88365520Y-64857617D01*
X88282101Y-64841023D01*
X88237404Y-64822510D01*
X88177036Y-64782173D01*
X88142826Y-64747963D01*
X88102488Y-64687593D01*
X88083977Y-64642903D01*
X88067381Y-64559470D01*
X88065000Y-64535289D01*
X88065000Y-64424714D01*
X88066828Y-64403502D01*
X88073725Y-64363780D01*
X88090583Y-64266686D01*
X88104880Y-64226755D01*
X88173372Y-64105945D01*
X88185412Y-64088410D01*
X88526363Y-63673341D01*
X88526363Y-63673340D01*
X88640000Y-63535000D01*
X88640000Y-62585000D01*
X88592317Y-62084330D01*
X88592202Y-62082948D01*
X88590667Y-62061433D01*
X88590528Y-62058518D01*
X88590016Y-62036941D01*
X88590000Y-62035512D01*
X88590000Y-61594756D01*
X88591527Y-61575359D01*
X88610175Y-61457617D01*
X88610176Y-61457616D01*
X88610175Y-61457614D01*
X88622161Y-61420722D01*
X88671803Y-61323295D01*
X88694602Y-61291916D01*
X88771916Y-61214602D01*
X88803295Y-61191803D01*
X88900722Y-61142161D01*
X88937614Y-61130175D01*
X89015678Y-61117811D01*
X89055360Y-61111527D01*
X89074757Y-61110000D01*
X89180243Y-61110000D01*
X89199640Y-61111527D01*
G37*
%TD.AperFunction*%
%TD*%
%TA.AperFunction,Conductor*%
%TO.N,Net-(U1C-+)*%
G36*
X91049640Y-69161527D02*
G01*
X91105610Y-69170391D01*
X91167383Y-69180175D01*
X91204278Y-69192162D01*
X91301701Y-69241802D01*
X91333086Y-69264605D01*
X91410394Y-69341913D01*
X91433198Y-69373299D01*
X91482836Y-69470719D01*
X91494824Y-69507616D01*
X91511927Y-69615602D01*
X91511927Y-69654398D01*
X91494824Y-69762383D01*
X91482836Y-69799280D01*
X91433198Y-69896700D01*
X91410394Y-69928086D01*
X91333086Y-70005394D01*
X91301700Y-70028198D01*
X91204280Y-70077836D01*
X91167383Y-70089824D01*
X91049641Y-70108473D01*
X91030243Y-70110000D01*
X90623633Y-70110000D01*
X90618649Y-70109799D01*
X90551011Y-70104347D01*
X90531343Y-70101155D01*
X90465442Y-70084936D01*
X90460661Y-70083553D01*
X90226182Y-70005394D01*
X90091975Y-69960658D01*
X90091971Y-69960657D01*
X90015000Y-69935000D01*
X89933861Y-69935000D01*
X89933856Y-69935000D01*
X88389711Y-69935000D01*
X88365520Y-69932617D01*
X88282101Y-69916023D01*
X88237404Y-69897510D01*
X88177036Y-69857173D01*
X88142826Y-69822963D01*
X88102488Y-69762593D01*
X88083976Y-69717900D01*
X88069811Y-69646686D01*
X88069811Y-69598313D01*
X88083977Y-69527097D01*
X88102487Y-69482408D01*
X88142828Y-69422033D01*
X88177033Y-69387828D01*
X88237408Y-69347487D01*
X88282096Y-69328977D01*
X88365528Y-69312381D01*
X88389711Y-69310000D01*
X89944973Y-69310000D01*
X90015000Y-69310000D01*
X90222491Y-69250717D01*
X90470621Y-69179822D01*
X90474754Y-69178795D01*
X90536448Y-69165728D01*
X90544989Y-69164532D01*
X90607874Y-69160150D01*
X90612186Y-69160000D01*
X91030243Y-69160000D01*
X91049640Y-69161527D01*
G37*
%TD.AperFunction*%
%TD*%
M02*
