%TF.GenerationSoftware,KiCad,Pcbnew,7.0.5-0*%
%TF.CreationDate,2024-02-16T16:17:37-04:00*%
%TF.ProjectId,PID Tile,50494420-5469-46c6-952e-6b696361645f,rev?*%
%TF.SameCoordinates,Original*%
%TF.FileFunction,Legend,Bot*%
%TF.FilePolarity,Positive*%
%FSLAX46Y46*%
G04 Gerber Fmt 4.6, Leading zero omitted, Abs format (unit mm)*
G04 Created by KiCad (PCBNEW 7.0.5-0) date 2024-02-16 16:17:37*
%MOMM*%
%LPD*%
G01*
G04 APERTURE LIST*
%ADD10C,0.150000*%
%ADD11C,0.120000*%
G04 APERTURE END LIST*
D10*
%TO.C,C14*%
X94425065Y-67464812D02*
X94458398Y-67498146D01*
X94458398Y-67498146D02*
X94558398Y-67531479D01*
X94558398Y-67531479D02*
X94625065Y-67531479D01*
X94625065Y-67531479D02*
X94725065Y-67498146D01*
X94725065Y-67498146D02*
X94791732Y-67431479D01*
X94791732Y-67431479D02*
X94825065Y-67364812D01*
X94825065Y-67364812D02*
X94858398Y-67231479D01*
X94858398Y-67231479D02*
X94858398Y-67131479D01*
X94858398Y-67131479D02*
X94825065Y-66998146D01*
X94825065Y-66998146D02*
X94791732Y-66931479D01*
X94791732Y-66931479D02*
X94725065Y-66864812D01*
X94725065Y-66864812D02*
X94625065Y-66831479D01*
X94625065Y-66831479D02*
X94558398Y-66831479D01*
X94558398Y-66831479D02*
X94458398Y-66864812D01*
X94458398Y-66864812D02*
X94425065Y-66898146D01*
X93758398Y-67531479D02*
X94158398Y-67531479D01*
X93958398Y-67531479D02*
X93958398Y-66831479D01*
X93958398Y-66831479D02*
X94025065Y-66931479D01*
X94025065Y-66931479D02*
X94091732Y-66998146D01*
X94091732Y-66998146D02*
X94158398Y-67031479D01*
X93158398Y-67064812D02*
X93158398Y-67531479D01*
X93325065Y-66798146D02*
X93491731Y-67298146D01*
X93491731Y-67298146D02*
X93058398Y-67298146D01*
%TO.C,C6*%
X106539366Y-68968333D02*
X106572700Y-68935000D01*
X106572700Y-68935000D02*
X106606033Y-68835000D01*
X106606033Y-68835000D02*
X106606033Y-68768333D01*
X106606033Y-68768333D02*
X106572700Y-68668333D01*
X106572700Y-68668333D02*
X106506033Y-68601667D01*
X106506033Y-68601667D02*
X106439366Y-68568333D01*
X106439366Y-68568333D02*
X106306033Y-68535000D01*
X106306033Y-68535000D02*
X106206033Y-68535000D01*
X106206033Y-68535000D02*
X106072700Y-68568333D01*
X106072700Y-68568333D02*
X106006033Y-68601667D01*
X106006033Y-68601667D02*
X105939366Y-68668333D01*
X105939366Y-68668333D02*
X105906033Y-68768333D01*
X105906033Y-68768333D02*
X105906033Y-68835000D01*
X105906033Y-68835000D02*
X105939366Y-68935000D01*
X105939366Y-68935000D02*
X105972700Y-68968333D01*
X105906033Y-69568333D02*
X105906033Y-69435000D01*
X105906033Y-69435000D02*
X105939366Y-69368333D01*
X105939366Y-69368333D02*
X105972700Y-69335000D01*
X105972700Y-69335000D02*
X106072700Y-69268333D01*
X106072700Y-69268333D02*
X106206033Y-69235000D01*
X106206033Y-69235000D02*
X106472700Y-69235000D01*
X106472700Y-69235000D02*
X106539366Y-69268333D01*
X106539366Y-69268333D02*
X106572700Y-69301667D01*
X106572700Y-69301667D02*
X106606033Y-69368333D01*
X106606033Y-69368333D02*
X106606033Y-69501667D01*
X106606033Y-69501667D02*
X106572700Y-69568333D01*
X106572700Y-69568333D02*
X106539366Y-69601667D01*
X106539366Y-69601667D02*
X106472700Y-69635000D01*
X106472700Y-69635000D02*
X106306033Y-69635000D01*
X106306033Y-69635000D02*
X106239366Y-69601667D01*
X106239366Y-69601667D02*
X106206033Y-69568333D01*
X106206033Y-69568333D02*
X106172700Y-69501667D01*
X106172700Y-69501667D02*
X106172700Y-69368333D01*
X106172700Y-69368333D02*
X106206033Y-69301667D01*
X106206033Y-69301667D02*
X106239366Y-69268333D01*
X106239366Y-69268333D02*
X106306033Y-69235000D01*
%TO.C,C15*%
X94415000Y-73689366D02*
X94448333Y-73722700D01*
X94448333Y-73722700D02*
X94548333Y-73756033D01*
X94548333Y-73756033D02*
X94615000Y-73756033D01*
X94615000Y-73756033D02*
X94715000Y-73722700D01*
X94715000Y-73722700D02*
X94781667Y-73656033D01*
X94781667Y-73656033D02*
X94815000Y-73589366D01*
X94815000Y-73589366D02*
X94848333Y-73456033D01*
X94848333Y-73456033D02*
X94848333Y-73356033D01*
X94848333Y-73356033D02*
X94815000Y-73222700D01*
X94815000Y-73222700D02*
X94781667Y-73156033D01*
X94781667Y-73156033D02*
X94715000Y-73089366D01*
X94715000Y-73089366D02*
X94615000Y-73056033D01*
X94615000Y-73056033D02*
X94548333Y-73056033D01*
X94548333Y-73056033D02*
X94448333Y-73089366D01*
X94448333Y-73089366D02*
X94415000Y-73122700D01*
X93748333Y-73756033D02*
X94148333Y-73756033D01*
X93948333Y-73756033D02*
X93948333Y-73056033D01*
X93948333Y-73056033D02*
X94015000Y-73156033D01*
X94015000Y-73156033D02*
X94081667Y-73222700D01*
X94081667Y-73222700D02*
X94148333Y-73256033D01*
X93115000Y-73056033D02*
X93448333Y-73056033D01*
X93448333Y-73056033D02*
X93481666Y-73389366D01*
X93481666Y-73389366D02*
X93448333Y-73356033D01*
X93448333Y-73356033D02*
X93381666Y-73322700D01*
X93381666Y-73322700D02*
X93215000Y-73322700D01*
X93215000Y-73322700D02*
X93148333Y-73356033D01*
X93148333Y-73356033D02*
X93115000Y-73389366D01*
X93115000Y-73389366D02*
X93081666Y-73456033D01*
X93081666Y-73456033D02*
X93081666Y-73622700D01*
X93081666Y-73622700D02*
X93115000Y-73689366D01*
X93115000Y-73689366D02*
X93148333Y-73722700D01*
X93148333Y-73722700D02*
X93215000Y-73756033D01*
X93215000Y-73756033D02*
X93381666Y-73756033D01*
X93381666Y-73756033D02*
X93448333Y-73722700D01*
X93448333Y-73722700D02*
X93481666Y-73689366D01*
%TO.C,C13*%
X96240000Y-56784366D02*
X96273333Y-56817700D01*
X96273333Y-56817700D02*
X96373333Y-56851033D01*
X96373333Y-56851033D02*
X96440000Y-56851033D01*
X96440000Y-56851033D02*
X96540000Y-56817700D01*
X96540000Y-56817700D02*
X96606667Y-56751033D01*
X96606667Y-56751033D02*
X96640000Y-56684366D01*
X96640000Y-56684366D02*
X96673333Y-56551033D01*
X96673333Y-56551033D02*
X96673333Y-56451033D01*
X96673333Y-56451033D02*
X96640000Y-56317700D01*
X96640000Y-56317700D02*
X96606667Y-56251033D01*
X96606667Y-56251033D02*
X96540000Y-56184366D01*
X96540000Y-56184366D02*
X96440000Y-56151033D01*
X96440000Y-56151033D02*
X96373333Y-56151033D01*
X96373333Y-56151033D02*
X96273333Y-56184366D01*
X96273333Y-56184366D02*
X96240000Y-56217700D01*
X95573333Y-56851033D02*
X95973333Y-56851033D01*
X95773333Y-56851033D02*
X95773333Y-56151033D01*
X95773333Y-56151033D02*
X95840000Y-56251033D01*
X95840000Y-56251033D02*
X95906667Y-56317700D01*
X95906667Y-56317700D02*
X95973333Y-56351033D01*
X95340000Y-56151033D02*
X94906666Y-56151033D01*
X94906666Y-56151033D02*
X95140000Y-56417700D01*
X95140000Y-56417700D02*
X95040000Y-56417700D01*
X95040000Y-56417700D02*
X94973333Y-56451033D01*
X94973333Y-56451033D02*
X94940000Y-56484366D01*
X94940000Y-56484366D02*
X94906666Y-56551033D01*
X94906666Y-56551033D02*
X94906666Y-56717700D01*
X94906666Y-56717700D02*
X94940000Y-56784366D01*
X94940000Y-56784366D02*
X94973333Y-56817700D01*
X94973333Y-56817700D02*
X95040000Y-56851033D01*
X95040000Y-56851033D02*
X95240000Y-56851033D01*
X95240000Y-56851033D02*
X95306666Y-56817700D01*
X95306666Y-56817700D02*
X95340000Y-56784366D01*
%TO.C,FB5*%
X97748333Y-70209366D02*
X97981666Y-70209366D01*
X97981666Y-70576033D02*
X97981666Y-69876033D01*
X97981666Y-69876033D02*
X97648333Y-69876033D01*
X97148333Y-70209366D02*
X97048333Y-70242700D01*
X97048333Y-70242700D02*
X97014999Y-70276033D01*
X97014999Y-70276033D02*
X96981666Y-70342700D01*
X96981666Y-70342700D02*
X96981666Y-70442700D01*
X96981666Y-70442700D02*
X97014999Y-70509366D01*
X97014999Y-70509366D02*
X97048333Y-70542700D01*
X97048333Y-70542700D02*
X97114999Y-70576033D01*
X97114999Y-70576033D02*
X97381666Y-70576033D01*
X97381666Y-70576033D02*
X97381666Y-69876033D01*
X97381666Y-69876033D02*
X97148333Y-69876033D01*
X97148333Y-69876033D02*
X97081666Y-69909366D01*
X97081666Y-69909366D02*
X97048333Y-69942700D01*
X97048333Y-69942700D02*
X97014999Y-70009366D01*
X97014999Y-70009366D02*
X97014999Y-70076033D01*
X97014999Y-70076033D02*
X97048333Y-70142700D01*
X97048333Y-70142700D02*
X97081666Y-70176033D01*
X97081666Y-70176033D02*
X97148333Y-70209366D01*
X97148333Y-70209366D02*
X97381666Y-70209366D01*
X96348333Y-69876033D02*
X96681666Y-69876033D01*
X96681666Y-69876033D02*
X96714999Y-70209366D01*
X96714999Y-70209366D02*
X96681666Y-70176033D01*
X96681666Y-70176033D02*
X96614999Y-70142700D01*
X96614999Y-70142700D02*
X96448333Y-70142700D01*
X96448333Y-70142700D02*
X96381666Y-70176033D01*
X96381666Y-70176033D02*
X96348333Y-70209366D01*
X96348333Y-70209366D02*
X96314999Y-70276033D01*
X96314999Y-70276033D02*
X96314999Y-70442700D01*
X96314999Y-70442700D02*
X96348333Y-70509366D01*
X96348333Y-70509366D02*
X96381666Y-70542700D01*
X96381666Y-70542700D02*
X96448333Y-70576033D01*
X96448333Y-70576033D02*
X96614999Y-70576033D01*
X96614999Y-70576033D02*
X96681666Y-70542700D01*
X96681666Y-70542700D02*
X96714999Y-70509366D01*
%TO.C,C18*%
X82514366Y-61284999D02*
X82547700Y-61251666D01*
X82547700Y-61251666D02*
X82581033Y-61151666D01*
X82581033Y-61151666D02*
X82581033Y-61084999D01*
X82581033Y-61084999D02*
X82547700Y-60984999D01*
X82547700Y-60984999D02*
X82481033Y-60918333D01*
X82481033Y-60918333D02*
X82414366Y-60884999D01*
X82414366Y-60884999D02*
X82281033Y-60851666D01*
X82281033Y-60851666D02*
X82181033Y-60851666D01*
X82181033Y-60851666D02*
X82047700Y-60884999D01*
X82047700Y-60884999D02*
X81981033Y-60918333D01*
X81981033Y-60918333D02*
X81914366Y-60984999D01*
X81914366Y-60984999D02*
X81881033Y-61084999D01*
X81881033Y-61084999D02*
X81881033Y-61151666D01*
X81881033Y-61151666D02*
X81914366Y-61251666D01*
X81914366Y-61251666D02*
X81947700Y-61284999D01*
X82581033Y-61951666D02*
X82581033Y-61551666D01*
X82581033Y-61751666D02*
X81881033Y-61751666D01*
X81881033Y-61751666D02*
X81981033Y-61684999D01*
X81981033Y-61684999D02*
X82047700Y-61618333D01*
X82047700Y-61618333D02*
X82081033Y-61551666D01*
X82181033Y-62351666D02*
X82147700Y-62285000D01*
X82147700Y-62285000D02*
X82114366Y-62251666D01*
X82114366Y-62251666D02*
X82047700Y-62218333D01*
X82047700Y-62218333D02*
X82014366Y-62218333D01*
X82014366Y-62218333D02*
X81947700Y-62251666D01*
X81947700Y-62251666D02*
X81914366Y-62285000D01*
X81914366Y-62285000D02*
X81881033Y-62351666D01*
X81881033Y-62351666D02*
X81881033Y-62485000D01*
X81881033Y-62485000D02*
X81914366Y-62551666D01*
X81914366Y-62551666D02*
X81947700Y-62585000D01*
X81947700Y-62585000D02*
X82014366Y-62618333D01*
X82014366Y-62618333D02*
X82047700Y-62618333D01*
X82047700Y-62618333D02*
X82114366Y-62585000D01*
X82114366Y-62585000D02*
X82147700Y-62551666D01*
X82147700Y-62551666D02*
X82181033Y-62485000D01*
X82181033Y-62485000D02*
X82181033Y-62351666D01*
X82181033Y-62351666D02*
X82214366Y-62285000D01*
X82214366Y-62285000D02*
X82247700Y-62251666D01*
X82247700Y-62251666D02*
X82314366Y-62218333D01*
X82314366Y-62218333D02*
X82447700Y-62218333D01*
X82447700Y-62218333D02*
X82514366Y-62251666D01*
X82514366Y-62251666D02*
X82547700Y-62285000D01*
X82547700Y-62285000D02*
X82581033Y-62351666D01*
X82581033Y-62351666D02*
X82581033Y-62485000D01*
X82581033Y-62485000D02*
X82547700Y-62551666D01*
X82547700Y-62551666D02*
X82514366Y-62585000D01*
X82514366Y-62585000D02*
X82447700Y-62618333D01*
X82447700Y-62618333D02*
X82314366Y-62618333D01*
X82314366Y-62618333D02*
X82247700Y-62585000D01*
X82247700Y-62585000D02*
X82214366Y-62551666D01*
X82214366Y-62551666D02*
X82181033Y-62485000D01*
%TO.C,C17*%
X99434366Y-66809999D02*
X99467700Y-66776666D01*
X99467700Y-66776666D02*
X99501033Y-66676666D01*
X99501033Y-66676666D02*
X99501033Y-66609999D01*
X99501033Y-66609999D02*
X99467700Y-66509999D01*
X99467700Y-66509999D02*
X99401033Y-66443333D01*
X99401033Y-66443333D02*
X99334366Y-66409999D01*
X99334366Y-66409999D02*
X99201033Y-66376666D01*
X99201033Y-66376666D02*
X99101033Y-66376666D01*
X99101033Y-66376666D02*
X98967700Y-66409999D01*
X98967700Y-66409999D02*
X98901033Y-66443333D01*
X98901033Y-66443333D02*
X98834366Y-66509999D01*
X98834366Y-66509999D02*
X98801033Y-66609999D01*
X98801033Y-66609999D02*
X98801033Y-66676666D01*
X98801033Y-66676666D02*
X98834366Y-66776666D01*
X98834366Y-66776666D02*
X98867700Y-66809999D01*
X99501033Y-67476666D02*
X99501033Y-67076666D01*
X99501033Y-67276666D02*
X98801033Y-67276666D01*
X98801033Y-67276666D02*
X98901033Y-67209999D01*
X98901033Y-67209999D02*
X98967700Y-67143333D01*
X98967700Y-67143333D02*
X99001033Y-67076666D01*
X98801033Y-67710000D02*
X98801033Y-68176666D01*
X98801033Y-68176666D02*
X99501033Y-67876666D01*
%TO.C,C3*%
X79364366Y-75668333D02*
X79397700Y-75635000D01*
X79397700Y-75635000D02*
X79431033Y-75535000D01*
X79431033Y-75535000D02*
X79431033Y-75468333D01*
X79431033Y-75468333D02*
X79397700Y-75368333D01*
X79397700Y-75368333D02*
X79331033Y-75301667D01*
X79331033Y-75301667D02*
X79264366Y-75268333D01*
X79264366Y-75268333D02*
X79131033Y-75235000D01*
X79131033Y-75235000D02*
X79031033Y-75235000D01*
X79031033Y-75235000D02*
X78897700Y-75268333D01*
X78897700Y-75268333D02*
X78831033Y-75301667D01*
X78831033Y-75301667D02*
X78764366Y-75368333D01*
X78764366Y-75368333D02*
X78731033Y-75468333D01*
X78731033Y-75468333D02*
X78731033Y-75535000D01*
X78731033Y-75535000D02*
X78764366Y-75635000D01*
X78764366Y-75635000D02*
X78797700Y-75668333D01*
X78731033Y-75901667D02*
X78731033Y-76335000D01*
X78731033Y-76335000D02*
X78997700Y-76101667D01*
X78997700Y-76101667D02*
X78997700Y-76201667D01*
X78997700Y-76201667D02*
X79031033Y-76268333D01*
X79031033Y-76268333D02*
X79064366Y-76301667D01*
X79064366Y-76301667D02*
X79131033Y-76335000D01*
X79131033Y-76335000D02*
X79297700Y-76335000D01*
X79297700Y-76335000D02*
X79364366Y-76301667D01*
X79364366Y-76301667D02*
X79397700Y-76268333D01*
X79397700Y-76268333D02*
X79431033Y-76201667D01*
X79431033Y-76201667D02*
X79431033Y-76001667D01*
X79431033Y-76001667D02*
X79397700Y-75935000D01*
X79397700Y-75935000D02*
X79364366Y-75901667D01*
%TO.C,C12*%
X104740000Y-63184366D02*
X104773333Y-63217700D01*
X104773333Y-63217700D02*
X104873333Y-63251033D01*
X104873333Y-63251033D02*
X104940000Y-63251033D01*
X104940000Y-63251033D02*
X105040000Y-63217700D01*
X105040000Y-63217700D02*
X105106667Y-63151033D01*
X105106667Y-63151033D02*
X105140000Y-63084366D01*
X105140000Y-63084366D02*
X105173333Y-62951033D01*
X105173333Y-62951033D02*
X105173333Y-62851033D01*
X105173333Y-62851033D02*
X105140000Y-62717700D01*
X105140000Y-62717700D02*
X105106667Y-62651033D01*
X105106667Y-62651033D02*
X105040000Y-62584366D01*
X105040000Y-62584366D02*
X104940000Y-62551033D01*
X104940000Y-62551033D02*
X104873333Y-62551033D01*
X104873333Y-62551033D02*
X104773333Y-62584366D01*
X104773333Y-62584366D02*
X104740000Y-62617700D01*
X104073333Y-63251033D02*
X104473333Y-63251033D01*
X104273333Y-63251033D02*
X104273333Y-62551033D01*
X104273333Y-62551033D02*
X104340000Y-62651033D01*
X104340000Y-62651033D02*
X104406667Y-62717700D01*
X104406667Y-62717700D02*
X104473333Y-62751033D01*
X103806666Y-62617700D02*
X103773333Y-62584366D01*
X103773333Y-62584366D02*
X103706666Y-62551033D01*
X103706666Y-62551033D02*
X103540000Y-62551033D01*
X103540000Y-62551033D02*
X103473333Y-62584366D01*
X103473333Y-62584366D02*
X103440000Y-62617700D01*
X103440000Y-62617700D02*
X103406666Y-62684366D01*
X103406666Y-62684366D02*
X103406666Y-62751033D01*
X103406666Y-62751033D02*
X103440000Y-62851033D01*
X103440000Y-62851033D02*
X103840000Y-63251033D01*
X103840000Y-63251033D02*
X103406666Y-63251033D01*
%TO.C,FB6*%
X99314366Y-63926667D02*
X99314366Y-63693333D01*
X99681033Y-63693333D02*
X98981033Y-63693333D01*
X98981033Y-63693333D02*
X98981033Y-64026667D01*
X99314366Y-64526667D02*
X99347700Y-64626667D01*
X99347700Y-64626667D02*
X99381033Y-64660000D01*
X99381033Y-64660000D02*
X99447700Y-64693333D01*
X99447700Y-64693333D02*
X99547700Y-64693333D01*
X99547700Y-64693333D02*
X99614366Y-64660000D01*
X99614366Y-64660000D02*
X99647700Y-64626667D01*
X99647700Y-64626667D02*
X99681033Y-64560000D01*
X99681033Y-64560000D02*
X99681033Y-64293333D01*
X99681033Y-64293333D02*
X98981033Y-64293333D01*
X98981033Y-64293333D02*
X98981033Y-64526667D01*
X98981033Y-64526667D02*
X99014366Y-64593333D01*
X99014366Y-64593333D02*
X99047700Y-64626667D01*
X99047700Y-64626667D02*
X99114366Y-64660000D01*
X99114366Y-64660000D02*
X99181033Y-64660000D01*
X99181033Y-64660000D02*
X99247700Y-64626667D01*
X99247700Y-64626667D02*
X99281033Y-64593333D01*
X99281033Y-64593333D02*
X99314366Y-64526667D01*
X99314366Y-64526667D02*
X99314366Y-64293333D01*
X98981033Y-65293333D02*
X98981033Y-65160000D01*
X98981033Y-65160000D02*
X99014366Y-65093333D01*
X99014366Y-65093333D02*
X99047700Y-65060000D01*
X99047700Y-65060000D02*
X99147700Y-64993333D01*
X99147700Y-64993333D02*
X99281033Y-64960000D01*
X99281033Y-64960000D02*
X99547700Y-64960000D01*
X99547700Y-64960000D02*
X99614366Y-64993333D01*
X99614366Y-64993333D02*
X99647700Y-65026667D01*
X99647700Y-65026667D02*
X99681033Y-65093333D01*
X99681033Y-65093333D02*
X99681033Y-65226667D01*
X99681033Y-65226667D02*
X99647700Y-65293333D01*
X99647700Y-65293333D02*
X99614366Y-65326667D01*
X99614366Y-65326667D02*
X99547700Y-65360000D01*
X99547700Y-65360000D02*
X99381033Y-65360000D01*
X99381033Y-65360000D02*
X99314366Y-65326667D01*
X99314366Y-65326667D02*
X99281033Y-65293333D01*
X99281033Y-65293333D02*
X99247700Y-65226667D01*
X99247700Y-65226667D02*
X99247700Y-65093333D01*
X99247700Y-65093333D02*
X99281033Y-65026667D01*
X99281033Y-65026667D02*
X99314366Y-64993333D01*
X99314366Y-64993333D02*
X99381033Y-64960000D01*
%TO.C,FB3*%
X89764366Y-69626667D02*
X89764366Y-69393333D01*
X90131033Y-69393333D02*
X89431033Y-69393333D01*
X89431033Y-69393333D02*
X89431033Y-69726667D01*
X89764366Y-70226667D02*
X89797700Y-70326667D01*
X89797700Y-70326667D02*
X89831033Y-70360000D01*
X89831033Y-70360000D02*
X89897700Y-70393333D01*
X89897700Y-70393333D02*
X89997700Y-70393333D01*
X89997700Y-70393333D02*
X90064366Y-70360000D01*
X90064366Y-70360000D02*
X90097700Y-70326667D01*
X90097700Y-70326667D02*
X90131033Y-70260000D01*
X90131033Y-70260000D02*
X90131033Y-69993333D01*
X90131033Y-69993333D02*
X89431033Y-69993333D01*
X89431033Y-69993333D02*
X89431033Y-70226667D01*
X89431033Y-70226667D02*
X89464366Y-70293333D01*
X89464366Y-70293333D02*
X89497700Y-70326667D01*
X89497700Y-70326667D02*
X89564366Y-70360000D01*
X89564366Y-70360000D02*
X89631033Y-70360000D01*
X89631033Y-70360000D02*
X89697700Y-70326667D01*
X89697700Y-70326667D02*
X89731033Y-70293333D01*
X89731033Y-70293333D02*
X89764366Y-70226667D01*
X89764366Y-70226667D02*
X89764366Y-69993333D01*
X89431033Y-70626667D02*
X89431033Y-71060000D01*
X89431033Y-71060000D02*
X89697700Y-70826667D01*
X89697700Y-70826667D02*
X89697700Y-70926667D01*
X89697700Y-70926667D02*
X89731033Y-70993333D01*
X89731033Y-70993333D02*
X89764366Y-71026667D01*
X89764366Y-71026667D02*
X89831033Y-71060000D01*
X89831033Y-71060000D02*
X89997700Y-71060000D01*
X89997700Y-71060000D02*
X90064366Y-71026667D01*
X90064366Y-71026667D02*
X90097700Y-70993333D01*
X90097700Y-70993333D02*
X90131033Y-70926667D01*
X90131033Y-70926667D02*
X90131033Y-70726667D01*
X90131033Y-70726667D02*
X90097700Y-70660000D01*
X90097700Y-70660000D02*
X90064366Y-70626667D01*
%TO.C,C19*%
X80814366Y-67559999D02*
X80847700Y-67526666D01*
X80847700Y-67526666D02*
X80881033Y-67426666D01*
X80881033Y-67426666D02*
X80881033Y-67359999D01*
X80881033Y-67359999D02*
X80847700Y-67259999D01*
X80847700Y-67259999D02*
X80781033Y-67193333D01*
X80781033Y-67193333D02*
X80714366Y-67159999D01*
X80714366Y-67159999D02*
X80581033Y-67126666D01*
X80581033Y-67126666D02*
X80481033Y-67126666D01*
X80481033Y-67126666D02*
X80347700Y-67159999D01*
X80347700Y-67159999D02*
X80281033Y-67193333D01*
X80281033Y-67193333D02*
X80214366Y-67259999D01*
X80214366Y-67259999D02*
X80181033Y-67359999D01*
X80181033Y-67359999D02*
X80181033Y-67426666D01*
X80181033Y-67426666D02*
X80214366Y-67526666D01*
X80214366Y-67526666D02*
X80247700Y-67559999D01*
X80881033Y-68226666D02*
X80881033Y-67826666D01*
X80881033Y-68026666D02*
X80181033Y-68026666D01*
X80181033Y-68026666D02*
X80281033Y-67959999D01*
X80281033Y-67959999D02*
X80347700Y-67893333D01*
X80347700Y-67893333D02*
X80381033Y-67826666D01*
X80881033Y-68560000D02*
X80881033Y-68693333D01*
X80881033Y-68693333D02*
X80847700Y-68760000D01*
X80847700Y-68760000D02*
X80814366Y-68793333D01*
X80814366Y-68793333D02*
X80714366Y-68860000D01*
X80714366Y-68860000D02*
X80581033Y-68893333D01*
X80581033Y-68893333D02*
X80314366Y-68893333D01*
X80314366Y-68893333D02*
X80247700Y-68860000D01*
X80247700Y-68860000D02*
X80214366Y-68826666D01*
X80214366Y-68826666D02*
X80181033Y-68760000D01*
X80181033Y-68760000D02*
X80181033Y-68626666D01*
X80181033Y-68626666D02*
X80214366Y-68560000D01*
X80214366Y-68560000D02*
X80247700Y-68526666D01*
X80247700Y-68526666D02*
X80314366Y-68493333D01*
X80314366Y-68493333D02*
X80481033Y-68493333D01*
X80481033Y-68493333D02*
X80547700Y-68526666D01*
X80547700Y-68526666D02*
X80581033Y-68560000D01*
X80581033Y-68560000D02*
X80614366Y-68626666D01*
X80614366Y-68626666D02*
X80614366Y-68760000D01*
X80614366Y-68760000D02*
X80581033Y-68826666D01*
X80581033Y-68826666D02*
X80547700Y-68860000D01*
X80547700Y-68860000D02*
X80481033Y-68893333D01*
%TO.C,C7*%
X112214366Y-67093333D02*
X112247700Y-67060000D01*
X112247700Y-67060000D02*
X112281033Y-66960000D01*
X112281033Y-66960000D02*
X112281033Y-66893333D01*
X112281033Y-66893333D02*
X112247700Y-66793333D01*
X112247700Y-66793333D02*
X112181033Y-66726667D01*
X112181033Y-66726667D02*
X112114366Y-66693333D01*
X112114366Y-66693333D02*
X111981033Y-66660000D01*
X111981033Y-66660000D02*
X111881033Y-66660000D01*
X111881033Y-66660000D02*
X111747700Y-66693333D01*
X111747700Y-66693333D02*
X111681033Y-66726667D01*
X111681033Y-66726667D02*
X111614366Y-66793333D01*
X111614366Y-66793333D02*
X111581033Y-66893333D01*
X111581033Y-66893333D02*
X111581033Y-66960000D01*
X111581033Y-66960000D02*
X111614366Y-67060000D01*
X111614366Y-67060000D02*
X111647700Y-67093333D01*
X111581033Y-67326667D02*
X111581033Y-67793333D01*
X111581033Y-67793333D02*
X112281033Y-67493333D01*
%TO.C,C5*%
X93506666Y-79059366D02*
X93539999Y-79092700D01*
X93539999Y-79092700D02*
X93639999Y-79126033D01*
X93639999Y-79126033D02*
X93706666Y-79126033D01*
X93706666Y-79126033D02*
X93806666Y-79092700D01*
X93806666Y-79092700D02*
X93873333Y-79026033D01*
X93873333Y-79026033D02*
X93906666Y-78959366D01*
X93906666Y-78959366D02*
X93939999Y-78826033D01*
X93939999Y-78826033D02*
X93939999Y-78726033D01*
X93939999Y-78726033D02*
X93906666Y-78592700D01*
X93906666Y-78592700D02*
X93873333Y-78526033D01*
X93873333Y-78526033D02*
X93806666Y-78459366D01*
X93806666Y-78459366D02*
X93706666Y-78426033D01*
X93706666Y-78426033D02*
X93639999Y-78426033D01*
X93639999Y-78426033D02*
X93539999Y-78459366D01*
X93539999Y-78459366D02*
X93506666Y-78492700D01*
X92873333Y-78426033D02*
X93206666Y-78426033D01*
X93206666Y-78426033D02*
X93239999Y-78759366D01*
X93239999Y-78759366D02*
X93206666Y-78726033D01*
X93206666Y-78726033D02*
X93139999Y-78692700D01*
X93139999Y-78692700D02*
X92973333Y-78692700D01*
X92973333Y-78692700D02*
X92906666Y-78726033D01*
X92906666Y-78726033D02*
X92873333Y-78759366D01*
X92873333Y-78759366D02*
X92839999Y-78826033D01*
X92839999Y-78826033D02*
X92839999Y-78992700D01*
X92839999Y-78992700D02*
X92873333Y-79059366D01*
X92873333Y-79059366D02*
X92906666Y-79092700D01*
X92906666Y-79092700D02*
X92973333Y-79126033D01*
X92973333Y-79126033D02*
X93139999Y-79126033D01*
X93139999Y-79126033D02*
X93206666Y-79092700D01*
X93206666Y-79092700D02*
X93239999Y-79059366D01*
%TO.C,FB1*%
X108173333Y-64884366D02*
X108406666Y-64884366D01*
X108406666Y-65251033D02*
X108406666Y-64551033D01*
X108406666Y-64551033D02*
X108073333Y-64551033D01*
X107573333Y-64884366D02*
X107473333Y-64917700D01*
X107473333Y-64917700D02*
X107439999Y-64951033D01*
X107439999Y-64951033D02*
X107406666Y-65017700D01*
X107406666Y-65017700D02*
X107406666Y-65117700D01*
X107406666Y-65117700D02*
X107439999Y-65184366D01*
X107439999Y-65184366D02*
X107473333Y-65217700D01*
X107473333Y-65217700D02*
X107539999Y-65251033D01*
X107539999Y-65251033D02*
X107806666Y-65251033D01*
X107806666Y-65251033D02*
X107806666Y-64551033D01*
X107806666Y-64551033D02*
X107573333Y-64551033D01*
X107573333Y-64551033D02*
X107506666Y-64584366D01*
X107506666Y-64584366D02*
X107473333Y-64617700D01*
X107473333Y-64617700D02*
X107439999Y-64684366D01*
X107439999Y-64684366D02*
X107439999Y-64751033D01*
X107439999Y-64751033D02*
X107473333Y-64817700D01*
X107473333Y-64817700D02*
X107506666Y-64851033D01*
X107506666Y-64851033D02*
X107573333Y-64884366D01*
X107573333Y-64884366D02*
X107806666Y-64884366D01*
X106739999Y-65251033D02*
X107139999Y-65251033D01*
X106939999Y-65251033D02*
X106939999Y-64551033D01*
X106939999Y-64551033D02*
X107006666Y-64651033D01*
X107006666Y-64651033D02*
X107073333Y-64717700D01*
X107073333Y-64717700D02*
X107139999Y-64751033D01*
%TO.C,FB2*%
X102769366Y-66421667D02*
X102769366Y-66188333D01*
X103136033Y-66188333D02*
X102436033Y-66188333D01*
X102436033Y-66188333D02*
X102436033Y-66521667D01*
X102769366Y-67021667D02*
X102802700Y-67121667D01*
X102802700Y-67121667D02*
X102836033Y-67155000D01*
X102836033Y-67155000D02*
X102902700Y-67188333D01*
X102902700Y-67188333D02*
X103002700Y-67188333D01*
X103002700Y-67188333D02*
X103069366Y-67155000D01*
X103069366Y-67155000D02*
X103102700Y-67121667D01*
X103102700Y-67121667D02*
X103136033Y-67055000D01*
X103136033Y-67055000D02*
X103136033Y-66788333D01*
X103136033Y-66788333D02*
X102436033Y-66788333D01*
X102436033Y-66788333D02*
X102436033Y-67021667D01*
X102436033Y-67021667D02*
X102469366Y-67088333D01*
X102469366Y-67088333D02*
X102502700Y-67121667D01*
X102502700Y-67121667D02*
X102569366Y-67155000D01*
X102569366Y-67155000D02*
X102636033Y-67155000D01*
X102636033Y-67155000D02*
X102702700Y-67121667D01*
X102702700Y-67121667D02*
X102736033Y-67088333D01*
X102736033Y-67088333D02*
X102769366Y-67021667D01*
X102769366Y-67021667D02*
X102769366Y-66788333D01*
X102502700Y-67455000D02*
X102469366Y-67488333D01*
X102469366Y-67488333D02*
X102436033Y-67555000D01*
X102436033Y-67555000D02*
X102436033Y-67721667D01*
X102436033Y-67721667D02*
X102469366Y-67788333D01*
X102469366Y-67788333D02*
X102502700Y-67821667D01*
X102502700Y-67821667D02*
X102569366Y-67855000D01*
X102569366Y-67855000D02*
X102636033Y-67855000D01*
X102636033Y-67855000D02*
X102736033Y-67821667D01*
X102736033Y-67821667D02*
X103136033Y-67421667D01*
X103136033Y-67421667D02*
X103136033Y-67855000D01*
%TO.C,C10*%
X107065000Y-63434366D02*
X107098333Y-63467700D01*
X107098333Y-63467700D02*
X107198333Y-63501033D01*
X107198333Y-63501033D02*
X107265000Y-63501033D01*
X107265000Y-63501033D02*
X107365000Y-63467700D01*
X107365000Y-63467700D02*
X107431667Y-63401033D01*
X107431667Y-63401033D02*
X107465000Y-63334366D01*
X107465000Y-63334366D02*
X107498333Y-63201033D01*
X107498333Y-63201033D02*
X107498333Y-63101033D01*
X107498333Y-63101033D02*
X107465000Y-62967700D01*
X107465000Y-62967700D02*
X107431667Y-62901033D01*
X107431667Y-62901033D02*
X107365000Y-62834366D01*
X107365000Y-62834366D02*
X107265000Y-62801033D01*
X107265000Y-62801033D02*
X107198333Y-62801033D01*
X107198333Y-62801033D02*
X107098333Y-62834366D01*
X107098333Y-62834366D02*
X107065000Y-62867700D01*
X106398333Y-63501033D02*
X106798333Y-63501033D01*
X106598333Y-63501033D02*
X106598333Y-62801033D01*
X106598333Y-62801033D02*
X106665000Y-62901033D01*
X106665000Y-62901033D02*
X106731667Y-62967700D01*
X106731667Y-62967700D02*
X106798333Y-63001033D01*
X105965000Y-62801033D02*
X105898333Y-62801033D01*
X105898333Y-62801033D02*
X105831666Y-62834366D01*
X105831666Y-62834366D02*
X105798333Y-62867700D01*
X105798333Y-62867700D02*
X105765000Y-62934366D01*
X105765000Y-62934366D02*
X105731666Y-63067700D01*
X105731666Y-63067700D02*
X105731666Y-63234366D01*
X105731666Y-63234366D02*
X105765000Y-63367700D01*
X105765000Y-63367700D02*
X105798333Y-63434366D01*
X105798333Y-63434366D02*
X105831666Y-63467700D01*
X105831666Y-63467700D02*
X105898333Y-63501033D01*
X105898333Y-63501033D02*
X105965000Y-63501033D01*
X105965000Y-63501033D02*
X106031666Y-63467700D01*
X106031666Y-63467700D02*
X106065000Y-63434366D01*
X106065000Y-63434366D02*
X106098333Y-63367700D01*
X106098333Y-63367700D02*
X106131666Y-63234366D01*
X106131666Y-63234366D02*
X106131666Y-63067700D01*
X106131666Y-63067700D02*
X106098333Y-62934366D01*
X106098333Y-62934366D02*
X106065000Y-62867700D01*
X106065000Y-62867700D02*
X106031666Y-62834366D01*
X106031666Y-62834366D02*
X105965000Y-62801033D01*
%TO.C,C11*%
X103259366Y-70059999D02*
X103292700Y-70026666D01*
X103292700Y-70026666D02*
X103326033Y-69926666D01*
X103326033Y-69926666D02*
X103326033Y-69859999D01*
X103326033Y-69859999D02*
X103292700Y-69759999D01*
X103292700Y-69759999D02*
X103226033Y-69693333D01*
X103226033Y-69693333D02*
X103159366Y-69659999D01*
X103159366Y-69659999D02*
X103026033Y-69626666D01*
X103026033Y-69626666D02*
X102926033Y-69626666D01*
X102926033Y-69626666D02*
X102792700Y-69659999D01*
X102792700Y-69659999D02*
X102726033Y-69693333D01*
X102726033Y-69693333D02*
X102659366Y-69759999D01*
X102659366Y-69759999D02*
X102626033Y-69859999D01*
X102626033Y-69859999D02*
X102626033Y-69926666D01*
X102626033Y-69926666D02*
X102659366Y-70026666D01*
X102659366Y-70026666D02*
X102692700Y-70059999D01*
X103326033Y-70726666D02*
X103326033Y-70326666D01*
X103326033Y-70526666D02*
X102626033Y-70526666D01*
X102626033Y-70526666D02*
X102726033Y-70459999D01*
X102726033Y-70459999D02*
X102792700Y-70393333D01*
X102792700Y-70393333D02*
X102826033Y-70326666D01*
X103326033Y-71393333D02*
X103326033Y-70993333D01*
X103326033Y-71193333D02*
X102626033Y-71193333D01*
X102626033Y-71193333D02*
X102726033Y-71126666D01*
X102726033Y-71126666D02*
X102792700Y-71060000D01*
X102792700Y-71060000D02*
X102826033Y-70993333D01*
%TO.C,C9*%
X88876666Y-67179366D02*
X88909999Y-67212700D01*
X88909999Y-67212700D02*
X89009999Y-67246033D01*
X89009999Y-67246033D02*
X89076666Y-67246033D01*
X89076666Y-67246033D02*
X89176666Y-67212700D01*
X89176666Y-67212700D02*
X89243333Y-67146033D01*
X89243333Y-67146033D02*
X89276666Y-67079366D01*
X89276666Y-67079366D02*
X89309999Y-66946033D01*
X89309999Y-66946033D02*
X89309999Y-66846033D01*
X89309999Y-66846033D02*
X89276666Y-66712700D01*
X89276666Y-66712700D02*
X89243333Y-66646033D01*
X89243333Y-66646033D02*
X89176666Y-66579366D01*
X89176666Y-66579366D02*
X89076666Y-66546033D01*
X89076666Y-66546033D02*
X89009999Y-66546033D01*
X89009999Y-66546033D02*
X88909999Y-66579366D01*
X88909999Y-66579366D02*
X88876666Y-66612700D01*
X88543333Y-67246033D02*
X88409999Y-67246033D01*
X88409999Y-67246033D02*
X88343333Y-67212700D01*
X88343333Y-67212700D02*
X88309999Y-67179366D01*
X88309999Y-67179366D02*
X88243333Y-67079366D01*
X88243333Y-67079366D02*
X88209999Y-66946033D01*
X88209999Y-66946033D02*
X88209999Y-66679366D01*
X88209999Y-66679366D02*
X88243333Y-66612700D01*
X88243333Y-66612700D02*
X88276666Y-66579366D01*
X88276666Y-66579366D02*
X88343333Y-66546033D01*
X88343333Y-66546033D02*
X88476666Y-66546033D01*
X88476666Y-66546033D02*
X88543333Y-66579366D01*
X88543333Y-66579366D02*
X88576666Y-66612700D01*
X88576666Y-66612700D02*
X88609999Y-66679366D01*
X88609999Y-66679366D02*
X88609999Y-66846033D01*
X88609999Y-66846033D02*
X88576666Y-66912700D01*
X88576666Y-66912700D02*
X88543333Y-66946033D01*
X88543333Y-66946033D02*
X88476666Y-66979366D01*
X88476666Y-66979366D02*
X88343333Y-66979366D01*
X88343333Y-66979366D02*
X88276666Y-66946033D01*
X88276666Y-66946033D02*
X88243333Y-66912700D01*
X88243333Y-66912700D02*
X88209999Y-66846033D01*
%TO.C,C8*%
X90389366Y-72803333D02*
X90422700Y-72770000D01*
X90422700Y-72770000D02*
X90456033Y-72670000D01*
X90456033Y-72670000D02*
X90456033Y-72603333D01*
X90456033Y-72603333D02*
X90422700Y-72503333D01*
X90422700Y-72503333D02*
X90356033Y-72436667D01*
X90356033Y-72436667D02*
X90289366Y-72403333D01*
X90289366Y-72403333D02*
X90156033Y-72370000D01*
X90156033Y-72370000D02*
X90056033Y-72370000D01*
X90056033Y-72370000D02*
X89922700Y-72403333D01*
X89922700Y-72403333D02*
X89856033Y-72436667D01*
X89856033Y-72436667D02*
X89789366Y-72503333D01*
X89789366Y-72503333D02*
X89756033Y-72603333D01*
X89756033Y-72603333D02*
X89756033Y-72670000D01*
X89756033Y-72670000D02*
X89789366Y-72770000D01*
X89789366Y-72770000D02*
X89822700Y-72803333D01*
X90056033Y-73203333D02*
X90022700Y-73136667D01*
X90022700Y-73136667D02*
X89989366Y-73103333D01*
X89989366Y-73103333D02*
X89922700Y-73070000D01*
X89922700Y-73070000D02*
X89889366Y-73070000D01*
X89889366Y-73070000D02*
X89822700Y-73103333D01*
X89822700Y-73103333D02*
X89789366Y-73136667D01*
X89789366Y-73136667D02*
X89756033Y-73203333D01*
X89756033Y-73203333D02*
X89756033Y-73336667D01*
X89756033Y-73336667D02*
X89789366Y-73403333D01*
X89789366Y-73403333D02*
X89822700Y-73436667D01*
X89822700Y-73436667D02*
X89889366Y-73470000D01*
X89889366Y-73470000D02*
X89922700Y-73470000D01*
X89922700Y-73470000D02*
X89989366Y-73436667D01*
X89989366Y-73436667D02*
X90022700Y-73403333D01*
X90022700Y-73403333D02*
X90056033Y-73336667D01*
X90056033Y-73336667D02*
X90056033Y-73203333D01*
X90056033Y-73203333D02*
X90089366Y-73136667D01*
X90089366Y-73136667D02*
X90122700Y-73103333D01*
X90122700Y-73103333D02*
X90189366Y-73070000D01*
X90189366Y-73070000D02*
X90322700Y-73070000D01*
X90322700Y-73070000D02*
X90389366Y-73103333D01*
X90389366Y-73103333D02*
X90422700Y-73136667D01*
X90422700Y-73136667D02*
X90456033Y-73203333D01*
X90456033Y-73203333D02*
X90456033Y-73336667D01*
X90456033Y-73336667D02*
X90422700Y-73403333D01*
X90422700Y-73403333D02*
X90389366Y-73436667D01*
X90389366Y-73436667D02*
X90322700Y-73470000D01*
X90322700Y-73470000D02*
X90189366Y-73470000D01*
X90189366Y-73470000D02*
X90122700Y-73436667D01*
X90122700Y-73436667D02*
X90089366Y-73403333D01*
X90089366Y-73403333D02*
X90056033Y-73336667D01*
%TO.C,R5*%
X85306033Y-70743333D02*
X84972700Y-70510000D01*
X85306033Y-70343333D02*
X84606033Y-70343333D01*
X84606033Y-70343333D02*
X84606033Y-70610000D01*
X84606033Y-70610000D02*
X84639366Y-70676667D01*
X84639366Y-70676667D02*
X84672700Y-70710000D01*
X84672700Y-70710000D02*
X84739366Y-70743333D01*
X84739366Y-70743333D02*
X84839366Y-70743333D01*
X84839366Y-70743333D02*
X84906033Y-70710000D01*
X84906033Y-70710000D02*
X84939366Y-70676667D01*
X84939366Y-70676667D02*
X84972700Y-70610000D01*
X84972700Y-70610000D02*
X84972700Y-70343333D01*
X84606033Y-71376667D02*
X84606033Y-71043333D01*
X84606033Y-71043333D02*
X84939366Y-71010000D01*
X84939366Y-71010000D02*
X84906033Y-71043333D01*
X84906033Y-71043333D02*
X84872700Y-71110000D01*
X84872700Y-71110000D02*
X84872700Y-71276667D01*
X84872700Y-71276667D02*
X84906033Y-71343333D01*
X84906033Y-71343333D02*
X84939366Y-71376667D01*
X84939366Y-71376667D02*
X85006033Y-71410000D01*
X85006033Y-71410000D02*
X85172700Y-71410000D01*
X85172700Y-71410000D02*
X85239366Y-71376667D01*
X85239366Y-71376667D02*
X85272700Y-71343333D01*
X85272700Y-71343333D02*
X85306033Y-71276667D01*
X85306033Y-71276667D02*
X85306033Y-71110000D01*
X85306033Y-71110000D02*
X85272700Y-71043333D01*
X85272700Y-71043333D02*
X85239366Y-71010000D01*
%TO.C,FB4*%
X81919366Y-64776667D02*
X81919366Y-64543333D01*
X82286033Y-64543333D02*
X81586033Y-64543333D01*
X81586033Y-64543333D02*
X81586033Y-64876667D01*
X81919366Y-65376667D02*
X81952700Y-65476667D01*
X81952700Y-65476667D02*
X81986033Y-65510000D01*
X81986033Y-65510000D02*
X82052700Y-65543333D01*
X82052700Y-65543333D02*
X82152700Y-65543333D01*
X82152700Y-65543333D02*
X82219366Y-65510000D01*
X82219366Y-65510000D02*
X82252700Y-65476667D01*
X82252700Y-65476667D02*
X82286033Y-65410000D01*
X82286033Y-65410000D02*
X82286033Y-65143333D01*
X82286033Y-65143333D02*
X81586033Y-65143333D01*
X81586033Y-65143333D02*
X81586033Y-65376667D01*
X81586033Y-65376667D02*
X81619366Y-65443333D01*
X81619366Y-65443333D02*
X81652700Y-65476667D01*
X81652700Y-65476667D02*
X81719366Y-65510000D01*
X81719366Y-65510000D02*
X81786033Y-65510000D01*
X81786033Y-65510000D02*
X81852700Y-65476667D01*
X81852700Y-65476667D02*
X81886033Y-65443333D01*
X81886033Y-65443333D02*
X81919366Y-65376667D01*
X81919366Y-65376667D02*
X81919366Y-65143333D01*
X81819366Y-66143333D02*
X82286033Y-66143333D01*
X81552700Y-65976667D02*
X82052700Y-65810000D01*
X82052700Y-65810000D02*
X82052700Y-66243333D01*
%TO.C,C16*%
X101140000Y-61984366D02*
X101173333Y-62017700D01*
X101173333Y-62017700D02*
X101273333Y-62051033D01*
X101273333Y-62051033D02*
X101340000Y-62051033D01*
X101340000Y-62051033D02*
X101440000Y-62017700D01*
X101440000Y-62017700D02*
X101506667Y-61951033D01*
X101506667Y-61951033D02*
X101540000Y-61884366D01*
X101540000Y-61884366D02*
X101573333Y-61751033D01*
X101573333Y-61751033D02*
X101573333Y-61651033D01*
X101573333Y-61651033D02*
X101540000Y-61517700D01*
X101540000Y-61517700D02*
X101506667Y-61451033D01*
X101506667Y-61451033D02*
X101440000Y-61384366D01*
X101440000Y-61384366D02*
X101340000Y-61351033D01*
X101340000Y-61351033D02*
X101273333Y-61351033D01*
X101273333Y-61351033D02*
X101173333Y-61384366D01*
X101173333Y-61384366D02*
X101140000Y-61417700D01*
X100473333Y-62051033D02*
X100873333Y-62051033D01*
X100673333Y-62051033D02*
X100673333Y-61351033D01*
X100673333Y-61351033D02*
X100740000Y-61451033D01*
X100740000Y-61451033D02*
X100806667Y-61517700D01*
X100806667Y-61517700D02*
X100873333Y-61551033D01*
X99873333Y-61351033D02*
X100006666Y-61351033D01*
X100006666Y-61351033D02*
X100073333Y-61384366D01*
X100073333Y-61384366D02*
X100106666Y-61417700D01*
X100106666Y-61417700D02*
X100173333Y-61517700D01*
X100173333Y-61517700D02*
X100206666Y-61651033D01*
X100206666Y-61651033D02*
X100206666Y-61917700D01*
X100206666Y-61917700D02*
X100173333Y-61984366D01*
X100173333Y-61984366D02*
X100140000Y-62017700D01*
X100140000Y-62017700D02*
X100073333Y-62051033D01*
X100073333Y-62051033D02*
X99940000Y-62051033D01*
X99940000Y-62051033D02*
X99873333Y-62017700D01*
X99873333Y-62017700D02*
X99840000Y-61984366D01*
X99840000Y-61984366D02*
X99806666Y-61917700D01*
X99806666Y-61917700D02*
X99806666Y-61751033D01*
X99806666Y-61751033D02*
X99840000Y-61684366D01*
X99840000Y-61684366D02*
X99873333Y-61651033D01*
X99873333Y-61651033D02*
X99940000Y-61617700D01*
X99940000Y-61617700D02*
X100073333Y-61617700D01*
X100073333Y-61617700D02*
X100140000Y-61651033D01*
X100140000Y-61651033D02*
X100173333Y-61684366D01*
X100173333Y-61684366D02*
X100206666Y-61751033D01*
D11*
%TO.C,C14*%
X94121332Y-69155446D02*
X93828798Y-69155446D01*
X94121332Y-68135446D02*
X93828798Y-68135446D01*
%TO.C,C6*%
X107950000Y-68923733D02*
X107950000Y-69216267D01*
X106930000Y-68923733D02*
X106930000Y-69216267D01*
%TO.C,C15*%
X93818733Y-71500000D02*
X94111267Y-71500000D01*
X93818733Y-72520000D02*
X94111267Y-72520000D01*
%TO.C,C13*%
X97801252Y-59300000D02*
X96378748Y-59300000D01*
X97801252Y-57480000D02*
X96378748Y-57480000D01*
%TO.C,FB5*%
X93908821Y-69617029D02*
X94431325Y-69617029D01*
X93908821Y-71037029D02*
X94431325Y-71037029D01*
%TO.C,C18*%
X83130000Y-62006267D02*
X83130000Y-61713733D01*
X84150000Y-62006267D02*
X84150000Y-61713733D01*
%TO.C,C17*%
X101125000Y-67113733D02*
X101125000Y-67406267D01*
X100105000Y-67113733D02*
X100105000Y-67406267D01*
%TO.C,C3*%
X80080000Y-71758748D02*
X80080000Y-73181252D01*
X78260000Y-71758748D02*
X78260000Y-73181252D01*
%TO.C,C12*%
X103578748Y-60175000D02*
X105001252Y-60175000D01*
X103578748Y-61995000D02*
X105001252Y-61995000D01*
%TO.C,FB6*%
X101931252Y-65355000D02*
X101408748Y-65355000D01*
X101931252Y-63935000D02*
X101408748Y-63935000D01*
%TO.C,FB3*%
X90655000Y-69671252D02*
X90655000Y-69148748D01*
X92075000Y-69671252D02*
X92075000Y-69148748D01*
%TO.C,C19*%
X82906267Y-68470000D02*
X82613733Y-68470000D01*
X82906267Y-67450000D02*
X82613733Y-67450000D01*
%TO.C,C7*%
X111025000Y-67063733D02*
X111025000Y-67356267D01*
X110005000Y-67063733D02*
X110005000Y-67356267D01*
%TO.C,C5*%
X90726252Y-79670000D02*
X89303748Y-79670000D01*
X90726252Y-77850000D02*
X89303748Y-77850000D01*
%TO.C,FB1*%
X108176252Y-67170000D02*
X107653748Y-67170000D01*
X108176252Y-65750000D02*
X107653748Y-65750000D01*
%TO.C,FB2*%
X105180000Y-66743748D02*
X105180000Y-67266252D01*
X103760000Y-66743748D02*
X103760000Y-67266252D01*
%TO.C,C10*%
X105023733Y-63915000D02*
X105316267Y-63915000D01*
X105023733Y-64935000D02*
X105316267Y-64935000D01*
%TO.C,C11*%
X104950000Y-70363733D02*
X104950000Y-70656267D01*
X103930000Y-70363733D02*
X103930000Y-70656267D01*
%TO.C,C9*%
X88906267Y-68870000D02*
X88613733Y-68870000D01*
X88906267Y-67850000D02*
X88613733Y-67850000D01*
%TO.C,C8*%
X92080000Y-72773733D02*
X92080000Y-73066267D01*
X91060000Y-72773733D02*
X91060000Y-73066267D01*
%TO.C,R5*%
X84182500Y-70655276D02*
X84182500Y-71164724D01*
X83137500Y-70655276D02*
X83137500Y-71164724D01*
%TO.C,FB4*%
X84330000Y-65098748D02*
X84330000Y-65621252D01*
X82910000Y-65098748D02*
X82910000Y-65621252D01*
%TO.C,C16*%
X101986267Y-63475000D02*
X101693733Y-63475000D01*
X101986267Y-62455000D02*
X101693733Y-62455000D01*
%TD*%
M02*
