%TF.GenerationSoftware,KiCad,Pcbnew,7.0.5-0*%
%TF.CreationDate,2024-02-16T16:17:37-04:00*%
%TF.ProjectId,PID Tile,50494420-5469-46c6-952e-6b696361645f,rev?*%
%TF.SameCoordinates,Original*%
%TF.FileFunction,Copper,L4,Bot*%
%TF.FilePolarity,Positive*%
%FSLAX46Y46*%
G04 Gerber Fmt 4.6, Leading zero omitted, Abs format (unit mm)*
G04 Created by KiCad (PCBNEW 7.0.5-0) date 2024-02-16 16:17:37*
%MOMM*%
%LPD*%
G01*
G04 APERTURE LIST*
G04 Aperture macros list*
%AMRoundRect*
0 Rectangle with rounded corners*
0 $1 Rounding radius*
0 $2 $3 $4 $5 $6 $7 $8 $9 X,Y pos of 4 corners*
0 Add a 4 corners polygon primitive as box body*
4,1,4,$2,$3,$4,$5,$6,$7,$8,$9,$2,$3,0*
0 Add four circle primitives for the rounded corners*
1,1,$1+$1,$2,$3*
1,1,$1+$1,$4,$5*
1,1,$1+$1,$6,$7*
1,1,$1+$1,$8,$9*
0 Add four rect primitives between the rounded corners*
20,1,$1+$1,$2,$3,$4,$5,0*
20,1,$1+$1,$4,$5,$6,$7,0*
20,1,$1+$1,$6,$7,$8,$9,0*
20,1,$1+$1,$8,$9,$2,$3,0*%
G04 Aperture macros list end*
%TA.AperFunction,ComponentPad*%
%ADD10C,0.800000*%
%TD*%
%TA.AperFunction,ComponentPad*%
%ADD11C,5.400000*%
%TD*%
%TA.AperFunction,ComponentPad*%
%ADD12RoundRect,0.250000X0.620000X0.845000X-0.620000X0.845000X-0.620000X-0.845000X0.620000X-0.845000X0*%
%TD*%
%TA.AperFunction,ComponentPad*%
%ADD13O,1.740000X2.190000*%
%TD*%
%TA.AperFunction,ComponentPad*%
%ADD14RoundRect,0.250000X-0.845000X0.620000X-0.845000X-0.620000X0.845000X-0.620000X0.845000X0.620000X0*%
%TD*%
%TA.AperFunction,ComponentPad*%
%ADD15O,2.190000X1.740000*%
%TD*%
%TA.AperFunction,ComponentPad*%
%ADD16RoundRect,0.250000X0.845000X-0.620000X0.845000X0.620000X-0.845000X0.620000X-0.845000X-0.620000X0*%
%TD*%
%TA.AperFunction,ComponentPad*%
%ADD17R,1.350000X1.350000*%
%TD*%
%TA.AperFunction,ComponentPad*%
%ADD18O,1.350000X1.350000*%
%TD*%
%TA.AperFunction,ComponentPad*%
%ADD19C,1.440000*%
%TD*%
%TA.AperFunction,SMDPad,CuDef*%
%ADD20RoundRect,0.237500X0.300000X0.237500X-0.300000X0.237500X-0.300000X-0.237500X0.300000X-0.237500X0*%
%TD*%
%TA.AperFunction,SMDPad,CuDef*%
%ADD21RoundRect,0.237500X-0.237500X0.300000X-0.237500X-0.300000X0.237500X-0.300000X0.237500X0.300000X0*%
%TD*%
%TA.AperFunction,SMDPad,CuDef*%
%ADD22RoundRect,0.237500X-0.300000X-0.237500X0.300000X-0.237500X0.300000X0.237500X-0.300000X0.237500X0*%
%TD*%
%TA.AperFunction,SMDPad,CuDef*%
%ADD23RoundRect,0.250000X0.412500X0.650000X-0.412500X0.650000X-0.412500X-0.650000X0.412500X-0.650000X0*%
%TD*%
%TA.AperFunction,SMDPad,CuDef*%
%ADD24RoundRect,0.250000X-0.325000X-0.450000X0.325000X-0.450000X0.325000X0.450000X-0.325000X0.450000X0*%
%TD*%
%TA.AperFunction,SMDPad,CuDef*%
%ADD25RoundRect,0.237500X0.237500X-0.300000X0.237500X0.300000X-0.237500X0.300000X-0.237500X-0.300000X0*%
%TD*%
%TA.AperFunction,SMDPad,CuDef*%
%ADD26RoundRect,0.250000X-0.650000X0.412500X-0.650000X-0.412500X0.650000X-0.412500X0.650000X0.412500X0*%
%TD*%
%TA.AperFunction,SMDPad,CuDef*%
%ADD27RoundRect,0.250000X-0.412500X-0.650000X0.412500X-0.650000X0.412500X0.650000X-0.412500X0.650000X0*%
%TD*%
%TA.AperFunction,SMDPad,CuDef*%
%ADD28RoundRect,0.250000X0.325000X0.450000X-0.325000X0.450000X-0.325000X-0.450000X0.325000X-0.450000X0*%
%TD*%
%TA.AperFunction,SMDPad,CuDef*%
%ADD29RoundRect,0.250000X0.450000X-0.325000X0.450000X0.325000X-0.450000X0.325000X-0.450000X-0.325000X0*%
%TD*%
%TA.AperFunction,SMDPad,CuDef*%
%ADD30RoundRect,0.250000X-0.450000X0.325000X-0.450000X-0.325000X0.450000X-0.325000X0.450000X0.325000X0*%
%TD*%
%TA.AperFunction,SMDPad,CuDef*%
%ADD31RoundRect,0.237500X-0.237500X0.250000X-0.237500X-0.250000X0.237500X-0.250000X0.237500X0.250000X0*%
%TD*%
%TA.AperFunction,ViaPad*%
%ADD32C,0.600000*%
%TD*%
%TA.AperFunction,ViaPad*%
%ADD33C,0.800000*%
%TD*%
%TA.AperFunction,ViaPad*%
%ADD34C,1.000000*%
%TD*%
%TA.AperFunction,Conductor*%
%ADD35C,0.250000*%
%TD*%
%TA.AperFunction,Conductor*%
%ADD36C,0.400000*%
%TD*%
%TA.AperFunction,Conductor*%
%ADD37C,0.800000*%
%TD*%
%TA.AperFunction,Conductor*%
%ADD38C,0.600000*%
%TD*%
G04 APERTURE END LIST*
D10*
%TO.P,MH1,1,1*%
%TO.N,GND*%
X62215000Y-56360000D03*
X62808109Y-54928109D03*
X62808109Y-57791891D03*
X64240000Y-54335000D03*
D11*
X64240000Y-56360000D03*
D10*
X64240000Y-58385000D03*
X65671891Y-54928109D03*
X65671891Y-57791891D03*
X66265000Y-56360000D03*
%TD*%
D12*
%TO.P,J1,1,Pin_1*%
%TO.N,GND*%
X111389800Y-77633400D03*
D13*
%TO.P,J1,2,Pin_2*%
%TO.N,Net-(J1-Pin_2)*%
X108849800Y-77633400D03*
%TO.P,J1,3,Pin_3*%
%TO.N,Net-(J1-Pin_3)*%
X106309800Y-77633400D03*
%TD*%
D10*
%TO.P,MH4,1,1*%
%TO.N,GND*%
X114215000Y-78360000D03*
X114808109Y-76928109D03*
X114808109Y-79791891D03*
X116240000Y-76335000D03*
D11*
X116240000Y-78360000D03*
D10*
X116240000Y-80385000D03*
X117671891Y-76928109D03*
X117671891Y-79791891D03*
X118265000Y-78360000D03*
%TD*%
%TO.P,MH3,1,1*%
%TO.N,GND*%
X62215000Y-78360000D03*
X62808109Y-76928109D03*
X62808109Y-79791891D03*
X64240000Y-76335000D03*
D11*
X64240000Y-78360000D03*
D10*
X64240000Y-80385000D03*
X65671891Y-76928109D03*
X65671891Y-79791891D03*
X66265000Y-78360000D03*
%TD*%
D14*
%TO.P,J14,1,Pin_1*%
%TO.N,Net-(J14-Pin_1)*%
X87620000Y-56390000D03*
D15*
%TO.P,J14,2,Pin_2*%
%TO.N,Net-(J14-Pin_2)*%
X87620000Y-58930000D03*
%TD*%
D12*
%TO.P,J17,1,Pin_1*%
%TO.N,/+PWR*%
X103760000Y-55860000D03*
D13*
%TO.P,J17,2,Pin_2*%
%TO.N,GND*%
X101220000Y-55860000D03*
%TO.P,J17,3,Pin_3*%
%TO.N,/-PWR*%
X98680000Y-55860000D03*
%TD*%
D14*
%TO.P,J12,1,Pin_1*%
%TO.N,Net-(J12-Pin_1)*%
X76370000Y-71200000D03*
D15*
%TO.P,J12,2,Pin_2*%
%TO.N,Net-(J12-Pin_2)*%
X76370000Y-73740000D03*
%TD*%
D10*
%TO.P,MH2,1,1*%
%TO.N,GND*%
X114215000Y-56360000D03*
X114808109Y-54928109D03*
X114808109Y-57791891D03*
X116240000Y-54335000D03*
D11*
X116240000Y-56360000D03*
D10*
X116240000Y-58385000D03*
X117671891Y-54928109D03*
X117671891Y-57791891D03*
X118265000Y-56360000D03*
%TD*%
D16*
%TO.P,J15,1,Pin_1*%
%TO.N,Net-(J15-Pin_1)*%
X83635000Y-79030000D03*
D15*
%TO.P,J15,2,Pin_2*%
%TO.N,Net-(J15-Pin_2)*%
X83635000Y-76490000D03*
%TD*%
D16*
%TO.P,J11,1,Pin_1*%
%TO.N,Net-(J11-Pin_1)*%
X79335000Y-64030000D03*
D15*
%TO.P,J11,2,Pin_2*%
%TO.N,Net-(J11-Pin_2)*%
X79335000Y-61490000D03*
%TD*%
D17*
%TO.P,J16,1,Pin_1*%
%TO.N,Net-(J15-Pin_1)*%
X91190000Y-76085000D03*
D18*
%TO.P,J16,2,Pin_2*%
%TO.N,Net-(J15-Pin_2)*%
X89190000Y-76085000D03*
%TD*%
D17*
%TO.P,J13,1,Pin_1*%
%TO.N,Net-(J12-Pin_1)*%
X81290000Y-71035000D03*
D18*
%TO.P,J13,2,Pin_2*%
%TO.N,Net-(J12-Pin_2)*%
X81290000Y-73035000D03*
%TD*%
D19*
%TO.P,RV1,1,1*%
%TO.N,/+PWR*%
X101890000Y-74930000D03*
%TO.P,RV1,2,2*%
%TO.N,Net-(J1-Pin_3)*%
X101890000Y-77470000D03*
%TO.P,RV1,3,3*%
%TO.N,GND*%
X101890000Y-80010000D03*
%TD*%
D20*
%TO.P,C14,1*%
%TO.N,Net-(U3-V-)*%
X94837565Y-68645446D03*
%TO.P,C14,2*%
%TO.N,GND*%
X93112565Y-68645446D03*
%TD*%
D21*
%TO.P,C6,1*%
%TO.N,Net-(U2B-V-)*%
X107440000Y-68207500D03*
%TO.P,C6,2*%
%TO.N,GND*%
X107440000Y-69932500D03*
%TD*%
D22*
%TO.P,C15,1*%
%TO.N,/-PWR*%
X93102500Y-72010000D03*
%TO.P,C15,2*%
%TO.N,GND*%
X94827500Y-72010000D03*
%TD*%
D23*
%TO.P,C13,1*%
%TO.N,/-PWR*%
X98652500Y-58390000D03*
%TO.P,C13,2*%
%TO.N,GND*%
X95527500Y-58390000D03*
%TD*%
D24*
%TO.P,FB5,1*%
%TO.N,/-PWR*%
X93145073Y-70327029D03*
%TO.P,FB5,2*%
%TO.N,Net-(U3-V-)*%
X95195073Y-70327029D03*
%TD*%
D25*
%TO.P,C18,1*%
%TO.N,/+PWR*%
X83640000Y-62722500D03*
%TO.P,C18,2*%
%TO.N,GND*%
X83640000Y-60997500D03*
%TD*%
D21*
%TO.P,C17,1*%
%TO.N,Net-(U3-V+)*%
X100615000Y-66397500D03*
%TO.P,C17,2*%
%TO.N,GND*%
X100615000Y-68122500D03*
%TD*%
D26*
%TO.P,C3,1*%
%TO.N,Net-(J12-Pin_1)*%
X79170000Y-70907500D03*
%TO.P,C3,2*%
%TO.N,Net-(J12-Pin_2)*%
X79170000Y-74032500D03*
%TD*%
D27*
%TO.P,C12,1*%
%TO.N,/+PWR*%
X102727500Y-61085000D03*
%TO.P,C12,2*%
%TO.N,GND*%
X105852500Y-61085000D03*
%TD*%
D28*
%TO.P,FB6,1*%
%TO.N,/+PWR*%
X102695000Y-64645000D03*
%TO.P,FB6,2*%
%TO.N,Net-(U3-V+)*%
X100645000Y-64645000D03*
%TD*%
D29*
%TO.P,FB3,1*%
%TO.N,/-PWR*%
X91365000Y-70435000D03*
%TO.P,FB3,2*%
%TO.N,Net-(U1E-V-)*%
X91365000Y-68385000D03*
%TD*%
D20*
%TO.P,C19,1*%
%TO.N,Net-(U1E-V+)*%
X83622500Y-67960000D03*
%TO.P,C19,2*%
%TO.N,GND*%
X81897500Y-67960000D03*
%TD*%
D21*
%TO.P,C7,1*%
%TO.N,/-PWR*%
X110515000Y-66347500D03*
%TO.P,C7,2*%
%TO.N,GND*%
X110515000Y-68072500D03*
%TD*%
D23*
%TO.P,C5,1*%
%TO.N,Net-(J15-Pin_1)*%
X91577500Y-78760000D03*
%TO.P,C5,2*%
%TO.N,Net-(J15-Pin_2)*%
X88452500Y-78760000D03*
%TD*%
D28*
%TO.P,FB1,1*%
%TO.N,/-PWR*%
X108940000Y-66460000D03*
%TO.P,FB1,2*%
%TO.N,Net-(U2B-V-)*%
X106890000Y-66460000D03*
%TD*%
D30*
%TO.P,FB2,1*%
%TO.N,/+PWR*%
X104470000Y-65980000D03*
%TO.P,FB2,2*%
%TO.N,Net-(U2B-V+)*%
X104470000Y-68030000D03*
%TD*%
D22*
%TO.P,C10,1*%
%TO.N,/+PWR*%
X104307500Y-64425000D03*
%TO.P,C10,2*%
%TO.N,GND*%
X106032500Y-64425000D03*
%TD*%
D21*
%TO.P,C11,1*%
%TO.N,Net-(U2B-V+)*%
X104440000Y-69647500D03*
%TO.P,C11,2*%
%TO.N,GND*%
X104440000Y-71372500D03*
%TD*%
D20*
%TO.P,C9,1*%
%TO.N,Net-(U1E-V-)*%
X89622500Y-68360000D03*
%TO.P,C9,2*%
%TO.N,GND*%
X87897500Y-68360000D03*
%TD*%
D21*
%TO.P,C8,1*%
%TO.N,/-PWR*%
X91570000Y-72057500D03*
%TO.P,C8,2*%
%TO.N,GND*%
X91570000Y-73782500D03*
%TD*%
D31*
%TO.P,R5,1*%
%TO.N,Net-(U1B-+)*%
X83660000Y-69997500D03*
%TO.P,R5,2*%
%TO.N,GND*%
X83660000Y-71822500D03*
%TD*%
D30*
%TO.P,FB4,1*%
%TO.N,/+PWR*%
X83620000Y-64335000D03*
%TO.P,FB4,2*%
%TO.N,Net-(U1E-V+)*%
X83620000Y-66385000D03*
%TD*%
D20*
%TO.P,C16,1*%
%TO.N,/+PWR*%
X102702500Y-62965000D03*
%TO.P,C16,2*%
%TO.N,GND*%
X100977500Y-62965000D03*
%TD*%
D32*
%TO.N,GND*%
X119490000Y-74885368D03*
X91490000Y-63560000D03*
X78937425Y-53110000D03*
X111590000Y-65435000D03*
X65990000Y-68860000D03*
X72940000Y-77935000D03*
X72840000Y-60285000D03*
X68105384Y-80610000D03*
X117990000Y-65860000D03*
X69065000Y-62085000D03*
X108140000Y-75010000D03*
X65687425Y-53110000D03*
X82455635Y-54110000D03*
X71590000Y-59085000D03*
X62240000Y-65860000D03*
X97015000Y-68735000D03*
X66706655Y-53110000D03*
X60740000Y-64110000D03*
X118490000Y-60324285D03*
X119740000Y-70360000D03*
X109465000Y-74310000D03*
X98740000Y-71035000D03*
X81890000Y-68035000D03*
X98690000Y-64660000D03*
X64490000Y-65860000D03*
X98673385Y-67940939D03*
X83468319Y-54110000D03*
X87165000Y-64035000D03*
X119490000Y-73872684D03*
X72265000Y-75210000D03*
X68745117Y-53110000D03*
X60990000Y-77923421D03*
X73841271Y-53110000D03*
X60990000Y-55159225D03*
X108990000Y-71110000D03*
X60990000Y-59293075D03*
X118490000Y-80610000D03*
X63740000Y-65860000D03*
X119490000Y-75898053D03*
X87415000Y-68185000D03*
X68278053Y-54110000D03*
X75879732Y-53110000D03*
X118490000Y-73967142D03*
X91765000Y-62560000D03*
X64490000Y-68860000D03*
X76898963Y-53110000D03*
X63740000Y-68860000D03*
X60990000Y-56192687D03*
X80430266Y-54110000D03*
X118990000Y-70360000D03*
X96940000Y-63760000D03*
X84033578Y-53110000D03*
X108040000Y-63685000D03*
X81465000Y-65085000D03*
X66252684Y-54110000D03*
X61990000Y-60324285D03*
X100865000Y-59185000D03*
X62240000Y-68860000D03*
X62990000Y-64110000D03*
X119490000Y-60326537D03*
X85890000Y-72660000D03*
X79956655Y-53110000D03*
X68657551Y-81610000D03*
X70815000Y-65285000D03*
X118240000Y-64110000D03*
X60740000Y-64860000D03*
X79417581Y-54110000D03*
X119490000Y-57226150D03*
X62240000Y-70360000D03*
X98715000Y-60485000D03*
X60990000Y-58259612D03*
X67086153Y-80610000D03*
X119490000Y-78936106D03*
X72715000Y-68510000D03*
X91515000Y-65385000D03*
X81442950Y-54110000D03*
X72715000Y-70585000D03*
X92915000Y-64935000D03*
X90190000Y-58360000D03*
X74140000Y-71910000D03*
X93340000Y-67485000D03*
X61990000Y-75074285D03*
X118490000Y-76181428D03*
X75366844Y-54110000D03*
X60990000Y-75898053D03*
X71316106Y-54110000D03*
X118740000Y-68860000D03*
X106640000Y-71510000D03*
X119490000Y-59293075D03*
X90465000Y-73785000D03*
X85315000Y-78235000D03*
X118490000Y-54110000D03*
X116740000Y-70360000D03*
X119490000Y-58259612D03*
X74860502Y-53110000D03*
X67265369Y-54110000D03*
X62240000Y-64110000D03*
X60990000Y-57226150D03*
X80975886Y-53110000D03*
X60740000Y-65860000D03*
X86157312Y-53110000D03*
X61490000Y-64110000D03*
X96240000Y-71185000D03*
X74240000Y-64785000D03*
X101590000Y-72110000D03*
X103240000Y-66110000D03*
X81040000Y-79260000D03*
X82565000Y-60760000D03*
X118990000Y-64110000D03*
X60990000Y-74885368D03*
X83014348Y-53110000D03*
X81015000Y-56060000D03*
X97040000Y-62035000D03*
X64490000Y-64110000D03*
X62990000Y-70360000D03*
X87165000Y-72660000D03*
X119490000Y-55159225D03*
X104690000Y-60335000D03*
X85815000Y-69435000D03*
X62990000Y-65860000D03*
X85890000Y-64035000D03*
X60990000Y-78936106D03*
X61490000Y-68860000D03*
X119490000Y-68860000D03*
X72328791Y-54110000D03*
X117240000Y-68860000D03*
X80890000Y-74335000D03*
X91490000Y-57785000D03*
X118240000Y-70360000D03*
X87115000Y-77260000D03*
X77918194Y-53110000D03*
X64606814Y-81610000D03*
X67725886Y-53110000D03*
X61990000Y-76181428D03*
X109395010Y-68834966D03*
X61490000Y-70360000D03*
X103290000Y-73635000D03*
X73341475Y-54110000D03*
X89040000Y-60510000D03*
X67644867Y-81610000D03*
X117490000Y-70360000D03*
X66615000Y-68360000D03*
X70790000Y-69385000D03*
X71265000Y-76335000D03*
X64322687Y-53110000D03*
X73815000Y-76760000D03*
X117990000Y-68860000D03*
X65240000Y-65860000D03*
X80815000Y-66535000D03*
X82540000Y-71685000D03*
X67844999Y-79314999D03*
X79365000Y-77660000D03*
X76379528Y-54110000D03*
X102840000Y-58685000D03*
X97040000Y-65385000D03*
X97015000Y-70410000D03*
X91863204Y-77311012D03*
X92140000Y-73785000D03*
X82165000Y-62285000D03*
X78404897Y-54110000D03*
X74890000Y-58360000D03*
X116885870Y-81610000D03*
X116740000Y-64110000D03*
X96601574Y-66686753D03*
X69090000Y-73985000D03*
X97040000Y-60485000D03*
X61990000Y-54110000D03*
X90454380Y-77290088D03*
X65240000Y-70360000D03*
X119490000Y-77923421D03*
X118490000Y-59288571D03*
X119490000Y-76910737D03*
X62990000Y-68860000D03*
X109465000Y-63085000D03*
X60740000Y-70360000D03*
X119740000Y-69610000D03*
X60740000Y-68860000D03*
X68715000Y-66710000D03*
X74354160Y-54110000D03*
X81995117Y-53110000D03*
X101740000Y-57635000D03*
X71802809Y-53110000D03*
X93665000Y-68660000D03*
X65619498Y-81610000D03*
X69290738Y-54110000D03*
X118740000Y-65860000D03*
X65990000Y-65860000D03*
X61990000Y-80610000D03*
X92565000Y-66860000D03*
X98690000Y-69385000D03*
X119740000Y-64110000D03*
X116490000Y-65860000D03*
X105265000Y-71935000D03*
X98715000Y-66610000D03*
X119490000Y-56192687D03*
X117490000Y-64110000D03*
X116490000Y-68860000D03*
X96765000Y-72935000D03*
X106040000Y-64510000D03*
X98715000Y-62010000D03*
X117240000Y-65860000D03*
X87340000Y-65360000D03*
X84740000Y-60560000D03*
X80090000Y-72460000D03*
X65240000Y-64110000D03*
X118490000Y-75074285D03*
X113890000Y-71760000D03*
X97110000Y-58310000D03*
X111640000Y-71635000D03*
X63740000Y-70360000D03*
X64490000Y-70360000D03*
X101340000Y-69610000D03*
X73740000Y-56985000D03*
X66615000Y-66360000D03*
X61490000Y-65860000D03*
X90140999Y-62438010D03*
X63740000Y-64110000D03*
X65240000Y-68860000D03*
X91790000Y-60510000D03*
X89623887Y-78142225D03*
X70390000Y-73435000D03*
X70303422Y-54110000D03*
X87365000Y-70985000D03*
X60990000Y-76910737D03*
X73590000Y-63335000D03*
X68715000Y-68010000D03*
X101604397Y-66602232D03*
X119740000Y-65110000D03*
X72822040Y-53110000D03*
X85042575Y-53110000D03*
X63594129Y-81610000D03*
X85440000Y-61960000D03*
X61990000Y-59288571D03*
X85790000Y-66810000D03*
X63289225Y-53110000D03*
X70590000Y-62310000D03*
X88015000Y-62010000D03*
X74715000Y-70410000D03*
X76265000Y-63260000D03*
X90533899Y-71889481D03*
X90279765Y-79343695D03*
X66632182Y-81610000D03*
X119490000Y-65860000D03*
X60740000Y-69610000D03*
X82840000Y-57685000D03*
X70783578Y-53110000D03*
X117190774Y-53110000D03*
X69764348Y-53110000D03*
X77392213Y-54110000D03*
X60990000Y-60326537D03*
%TO.N,Net-(U2B-V+)*%
X104365000Y-69385000D03*
%TO.N,Net-(U2B-V-)*%
X108450000Y-68420000D03*
%TO.N,Net-(U1E-V+)*%
X84200000Y-68360000D03*
%TO.N,Net-(U1E-V-)*%
X89640000Y-68350000D03*
D33*
%TO.N,/-PWR*%
X93102500Y-72010000D03*
D34*
X98680000Y-58310000D03*
D33*
X108480000Y-64690000D03*
D32*
%TO.N,Net-(U3-V-)*%
X95169800Y-68630000D03*
%TO.N,Net-(U3-V+)*%
X100640000Y-66010000D03*
%TO.N,Net-(U1B-+)*%
X83680000Y-69635000D03*
%TO.N,Net-(U3-+)*%
X94290000Y-67260000D03*
X86530000Y-73670000D03*
X86530000Y-63070000D03*
%TD*%
D35*
%TO.N,Net-(J12-Pin_1)*%
X81290000Y-71035000D02*
X79297500Y-71035000D01*
X79297500Y-71035000D02*
X79170000Y-70907500D01*
%TO.N,Net-(J12-Pin_2)*%
X80292500Y-74032500D02*
X81290000Y-73035000D01*
X79170000Y-74032500D02*
X80292500Y-74032500D01*
%TO.N,Net-(J15-Pin_1)*%
X91190000Y-78372500D02*
X91577500Y-78760000D01*
X91190000Y-76085000D02*
X91190000Y-78372500D01*
%TO.N,Net-(J15-Pin_2)*%
X88452500Y-77897500D02*
X89190000Y-77160000D01*
X88452500Y-78760000D02*
X88452500Y-77897500D01*
X89190000Y-77160000D02*
X89190000Y-76085000D01*
D36*
%TO.N,/+PWR*%
X83640000Y-62722500D02*
X85127500Y-61235000D01*
D37*
X102727500Y-61085000D02*
X103749800Y-60062700D01*
D36*
X83640000Y-64315000D02*
X83620000Y-64335000D01*
X85127500Y-61235000D02*
X102577500Y-61235000D01*
D38*
X102700000Y-62962500D02*
X102702500Y-62965000D01*
D36*
X83640000Y-62722500D02*
X83640000Y-64315000D01*
D38*
X102415000Y-64925000D02*
X102415000Y-74405000D01*
X102415000Y-74405000D02*
X101890000Y-74930000D01*
D37*
X103749800Y-60062700D02*
X103749800Y-55860000D01*
D36*
X102577500Y-61235000D02*
X102727500Y-61085000D01*
D38*
X102695000Y-64645000D02*
X102415000Y-64925000D01*
%TO.N,/-PWR*%
X108480000Y-64690000D02*
X108710000Y-64920000D01*
D37*
X98669800Y-58307300D02*
X98672500Y-58310000D01*
X98669800Y-55860000D02*
X98669800Y-58307300D01*
D38*
X108710000Y-66230000D02*
X108940000Y-66460000D01*
X108710000Y-64920000D02*
X108710000Y-66230000D01*
D35*
%TO.N,Net-(U3-+)*%
X86530000Y-73670000D02*
X86530000Y-63070000D01*
X90100000Y-63070000D02*
X94290000Y-67260000D01*
X86530000Y-63070000D02*
X90100000Y-63070000D01*
%TD*%
%TA.AperFunction,Conductor*%
%TO.N,GND*%
G36*
X116406245Y-52369362D02*
G01*
X116430072Y-52369657D01*
X116431262Y-52369687D01*
X116455101Y-52370567D01*
X116582334Y-52376817D01*
X116583674Y-52376899D01*
X116625640Y-52379995D01*
X116629197Y-52380374D01*
X116803411Y-52404676D01*
X116971166Y-52429562D01*
X116972347Y-52429751D01*
X116999219Y-52434414D01*
X117002369Y-52435058D01*
X117179357Y-52476685D01*
X117352886Y-52520152D01*
X117354105Y-52520474D01*
X117359069Y-52521847D01*
X117365179Y-52523538D01*
X117367999Y-52524400D01*
X117545109Y-52583762D01*
X117545986Y-52584065D01*
X117720583Y-52646538D01*
X117724231Y-52647993D01*
X117898819Y-52725082D01*
X117900058Y-52725648D01*
X118067169Y-52804685D01*
X118070416Y-52806354D01*
X118237371Y-52899349D01*
X118238883Y-52900223D01*
X118397129Y-52995072D01*
X118399975Y-52996897D01*
X118557742Y-53104970D01*
X118559446Y-53106185D01*
X118601370Y-53137277D01*
X118707525Y-53216008D01*
X118709867Y-53217846D01*
X118853470Y-53337092D01*
X118857081Y-53340091D01*
X118858904Y-53341673D01*
X118995432Y-53465414D01*
X118997393Y-53467281D01*
X119132716Y-53602604D01*
X119134584Y-53604566D01*
X119258325Y-53741094D01*
X119259907Y-53742917D01*
X119382146Y-53890123D01*
X119383999Y-53892483D01*
X119433458Y-53959172D01*
X119493813Y-54040552D01*
X119495028Y-54042256D01*
X119603101Y-54200023D01*
X119604926Y-54202869D01*
X119699775Y-54361115D01*
X119700661Y-54362647D01*
X119793628Y-54529552D01*
X119795322Y-54532846D01*
X119874340Y-54699918D01*
X119874942Y-54701235D01*
X119951993Y-54875740D01*
X119953476Y-54879455D01*
X120015895Y-55053905D01*
X120016264Y-55054970D01*
X120072701Y-55223355D01*
X120075599Y-55231999D01*
X120076470Y-55234850D01*
X120079510Y-55245836D01*
X120079858Y-55247156D01*
X120123330Y-55420709D01*
X120164934Y-55597599D01*
X120165594Y-55600833D01*
X120170231Y-55627557D01*
X120170449Y-55628908D01*
X120195337Y-55796688D01*
X120219622Y-55970785D01*
X120220006Y-55974386D01*
X120223098Y-56016312D01*
X120223182Y-56017678D01*
X120228796Y-56131971D01*
X120229673Y-56155734D01*
X120229706Y-56157104D01*
X120230000Y-56181021D01*
X120230000Y-78538977D01*
X120229706Y-78562894D01*
X120229673Y-78564264D01*
X120228796Y-78588026D01*
X120223183Y-78702318D01*
X120223099Y-78703685D01*
X120220006Y-78745614D01*
X120219622Y-78749215D01*
X120195337Y-78923310D01*
X120170450Y-79091085D01*
X120170232Y-79092437D01*
X120165593Y-79119169D01*
X120164933Y-79122401D01*
X120123330Y-79299289D01*
X120079863Y-79472822D01*
X120079514Y-79474147D01*
X120076465Y-79485163D01*
X120075595Y-79488010D01*
X120016264Y-79665028D01*
X120015895Y-79666093D01*
X119953476Y-79840543D01*
X119951984Y-79844282D01*
X119874942Y-80018763D01*
X119874340Y-80020080D01*
X119795322Y-80187152D01*
X119793628Y-80190446D01*
X119700661Y-80357351D01*
X119699775Y-80358883D01*
X119604926Y-80517129D01*
X119603101Y-80519975D01*
X119495028Y-80677742D01*
X119493813Y-80679446D01*
X119384015Y-80827494D01*
X119382126Y-80829900D01*
X119259907Y-80977081D01*
X119258325Y-80978904D01*
X119134584Y-81115432D01*
X119132697Y-81117414D01*
X118997414Y-81252697D01*
X118995432Y-81254584D01*
X118858904Y-81378325D01*
X118857081Y-81379907D01*
X118709900Y-81502126D01*
X118707494Y-81504015D01*
X118559446Y-81613813D01*
X118557742Y-81615028D01*
X118399975Y-81723101D01*
X118397129Y-81724926D01*
X118238883Y-81819775D01*
X118237351Y-81820661D01*
X118070446Y-81913628D01*
X118067152Y-81915322D01*
X117900080Y-81994340D01*
X117898763Y-81994942D01*
X117724282Y-82071984D01*
X117720543Y-82073476D01*
X117546093Y-82135895D01*
X117545028Y-82136264D01*
X117368010Y-82195595D01*
X117365163Y-82196465D01*
X117354147Y-82199514D01*
X117352822Y-82199863D01*
X117179289Y-82243330D01*
X117002401Y-82284933D01*
X116999169Y-82285593D01*
X116972437Y-82290232D01*
X116971085Y-82290450D01*
X116803310Y-82315337D01*
X116629215Y-82339622D01*
X116625614Y-82340006D01*
X116583685Y-82343099D01*
X116582318Y-82343183D01*
X116412658Y-82351517D01*
X116241287Y-82359440D01*
X116238712Y-82359500D01*
X64241288Y-82359500D01*
X64238713Y-82359440D01*
X64067340Y-82351517D01*
X63897678Y-82343182D01*
X63896312Y-82343098D01*
X63854386Y-82340006D01*
X63850785Y-82339622D01*
X63676688Y-82315337D01*
X63508908Y-82290449D01*
X63507557Y-82290231D01*
X63480833Y-82285594D01*
X63477599Y-82284934D01*
X63300709Y-82243330D01*
X63127156Y-82199858D01*
X63125836Y-82199510D01*
X63122302Y-82198532D01*
X63114843Y-82196467D01*
X63112011Y-82195602D01*
X62997338Y-82157168D01*
X62934970Y-82136264D01*
X62933905Y-82135895D01*
X62905747Y-82125820D01*
X62759445Y-82073472D01*
X62755740Y-82071993D01*
X62612717Y-82008843D01*
X62581235Y-81994942D01*
X62579918Y-81994340D01*
X62412846Y-81915322D01*
X62409561Y-81913632D01*
X62310865Y-81858659D01*
X62242647Y-81820661D01*
X62241115Y-81819775D01*
X62082869Y-81724926D01*
X62080023Y-81723101D01*
X61922256Y-81615028D01*
X61920552Y-81613813D01*
X61839172Y-81553458D01*
X61772483Y-81503999D01*
X61770123Y-81502146D01*
X61622917Y-81379907D01*
X61621094Y-81378325D01*
X61484566Y-81254584D01*
X61482604Y-81252716D01*
X61347281Y-81117393D01*
X61345414Y-81115432D01*
X61221673Y-80978904D01*
X61220091Y-80977081D01*
X61217092Y-80973470D01*
X61097846Y-80829867D01*
X61096008Y-80827525D01*
X61017277Y-80721370D01*
X60986185Y-80679446D01*
X60984970Y-80677742D01*
X60876897Y-80519975D01*
X60875072Y-80517129D01*
X60780223Y-80358883D01*
X60779337Y-80357351D01*
X60686354Y-80190416D01*
X60684685Y-80187169D01*
X60605648Y-80020058D01*
X60605082Y-80018819D01*
X60527993Y-79844231D01*
X60526538Y-79840583D01*
X60477761Y-79704263D01*
X82339500Y-79704263D01*
X82342354Y-79734701D01*
X82387207Y-79862883D01*
X82427528Y-79917515D01*
X82467850Y-79972150D01*
X82532793Y-80020080D01*
X82577116Y-80052792D01*
X82577117Y-80052792D01*
X82577118Y-80052793D01*
X82705301Y-80097646D01*
X82735734Y-80100500D01*
X82735741Y-80100500D01*
X84534259Y-80100500D01*
X84534266Y-80100500D01*
X84564699Y-80097646D01*
X84692882Y-80052793D01*
X84802150Y-79972150D01*
X84882793Y-79862882D01*
X84927646Y-79734699D01*
X84930500Y-79704266D01*
X84930500Y-79464266D01*
X87589500Y-79464266D01*
X87590423Y-79474105D01*
X87592354Y-79494701D01*
X87637207Y-79622883D01*
X87668312Y-79665028D01*
X87717850Y-79732150D01*
X87791875Y-79786783D01*
X87827116Y-79812792D01*
X87827117Y-79812792D01*
X87827118Y-79812793D01*
X87955301Y-79857646D01*
X87985734Y-79860500D01*
X87985741Y-79860500D01*
X88919259Y-79860500D01*
X88919266Y-79860500D01*
X88949699Y-79857646D01*
X89077882Y-79812793D01*
X89187150Y-79732150D01*
X89267793Y-79622882D01*
X89312646Y-79494699D01*
X89315500Y-79464266D01*
X89315500Y-78055734D01*
X89312646Y-78025301D01*
X89267793Y-77897118D01*
X89187150Y-77787850D01*
X89187149Y-77787849D01*
X89187147Y-77787846D01*
X89183650Y-77784349D01*
X89152369Y-77722948D01*
X89163152Y-77654886D01*
X89183652Y-77626672D01*
X89408410Y-77401914D01*
X89411962Y-77398660D01*
X89443194Y-77372455D01*
X89463578Y-77337147D01*
X89466180Y-77333064D01*
X89489554Y-77299684D01*
X89489554Y-77299681D01*
X89489740Y-77299283D01*
X89500430Y-77273477D01*
X89500587Y-77273047D01*
X89500587Y-77273046D01*
X89500588Y-77273045D01*
X89507666Y-77232896D01*
X89508709Y-77228193D01*
X89519264Y-77188806D01*
X89515712Y-77148203D01*
X89515500Y-77143343D01*
X89515500Y-76970840D01*
X89536795Y-76905302D01*
X89581649Y-76868979D01*
X89630161Y-76847381D01*
X89723250Y-76779748D01*
X90314500Y-76779748D01*
X90326133Y-76838231D01*
X90370448Y-76904552D01*
X90436769Y-76948867D01*
X90495252Y-76960500D01*
X90753000Y-76960500D01*
X90818538Y-76981795D01*
X90859043Y-77037545D01*
X90864500Y-77072000D01*
X90864500Y-77721825D01*
X90843205Y-77787363D01*
X90842713Y-77788036D01*
X90762207Y-77897116D01*
X90717354Y-78025298D01*
X90717354Y-78025301D01*
X90714500Y-78055734D01*
X90714500Y-79464266D01*
X90715423Y-79474105D01*
X90717354Y-79494701D01*
X90762207Y-79622883D01*
X90793312Y-79665028D01*
X90842850Y-79732150D01*
X90916875Y-79786782D01*
X90952116Y-79812792D01*
X90952117Y-79812792D01*
X90952118Y-79812793D01*
X91080301Y-79857646D01*
X91110734Y-79860500D01*
X91110741Y-79860500D01*
X92044259Y-79860500D01*
X92044266Y-79860500D01*
X92074699Y-79857646D01*
X92202882Y-79812793D01*
X92312150Y-79732150D01*
X92392793Y-79622882D01*
X92437646Y-79494699D01*
X92440500Y-79464266D01*
X92440500Y-78055734D01*
X92437646Y-78025301D01*
X92392793Y-77897118D01*
X92312150Y-77787850D01*
X92257516Y-77747528D01*
X92202883Y-77707207D01*
X92074701Y-77662354D01*
X92062525Y-77661212D01*
X92044266Y-77659500D01*
X92044263Y-77659500D01*
X91627000Y-77659500D01*
X91561462Y-77638205D01*
X91520957Y-77582455D01*
X91515500Y-77548000D01*
X91515500Y-77470000D01*
X100964430Y-77470000D01*
X100984656Y-77662437D01*
X101044450Y-77846463D01*
X101141198Y-78014036D01*
X101270673Y-78157833D01*
X101427215Y-78271567D01*
X101427217Y-78271568D01*
X101427220Y-78271570D01*
X101547897Y-78325298D01*
X101603983Y-78350269D01*
X101793252Y-78390500D01*
X101793254Y-78390500D01*
X101986746Y-78390500D01*
X101986748Y-78390500D01*
X102176017Y-78350269D01*
X102352778Y-78271570D01*
X102352779Y-78271570D01*
X102352780Y-78271569D01*
X102352785Y-78271567D01*
X102509327Y-78157833D01*
X102638802Y-78014036D01*
X102698294Y-77910993D01*
X105239300Y-77910993D01*
X105254789Y-78068255D01*
X105316001Y-78270045D01*
X105415405Y-78456016D01*
X105549179Y-78619021D01*
X105712184Y-78752795D01*
X105898155Y-78852199D01*
X106099945Y-78913411D01*
X106290983Y-78932226D01*
X106309799Y-78934080D01*
X106309800Y-78934080D01*
X106309801Y-78934080D01*
X106327068Y-78932379D01*
X106519655Y-78913411D01*
X106721445Y-78852199D01*
X106907416Y-78752795D01*
X107070421Y-78619021D01*
X107204195Y-78456016D01*
X107303599Y-78270045D01*
X107364811Y-78068255D01*
X107380300Y-77910993D01*
X107779300Y-77910993D01*
X107794789Y-78068255D01*
X107856001Y-78270045D01*
X107955405Y-78456016D01*
X108089179Y-78619021D01*
X108252184Y-78752795D01*
X108438155Y-78852199D01*
X108639945Y-78913411D01*
X108830983Y-78932226D01*
X108849799Y-78934080D01*
X108849800Y-78934080D01*
X108849801Y-78934080D01*
X108867068Y-78932379D01*
X109059655Y-78913411D01*
X109261445Y-78852199D01*
X109447416Y-78752795D01*
X109610421Y-78619021D01*
X109744195Y-78456016D01*
X109843599Y-78270045D01*
X109904811Y-78068255D01*
X109920300Y-77910993D01*
X109920300Y-77355807D01*
X109904811Y-77198545D01*
X109843599Y-76996755D01*
X109744195Y-76810784D01*
X109610421Y-76647779D01*
X109447416Y-76514005D01*
X109447413Y-76514003D01*
X109447411Y-76514002D01*
X109376766Y-76476241D01*
X109261445Y-76414601D01*
X109059655Y-76353389D01*
X108954727Y-76343054D01*
X108849801Y-76332720D01*
X108849799Y-76332720D01*
X108639945Y-76353389D01*
X108438155Y-76414601D01*
X108252188Y-76514002D01*
X108252185Y-76514004D01*
X108089179Y-76647779D01*
X107955404Y-76810785D01*
X107955402Y-76810788D01*
X107881598Y-76948866D01*
X107856001Y-76996755D01*
X107794789Y-77198545D01*
X107779300Y-77355807D01*
X107779300Y-77910993D01*
X107380300Y-77910993D01*
X107380300Y-77355807D01*
X107364811Y-77198545D01*
X107303599Y-76996755D01*
X107204195Y-76810784D01*
X107070421Y-76647779D01*
X106907416Y-76514005D01*
X106907413Y-76514003D01*
X106907411Y-76514002D01*
X106836766Y-76476241D01*
X106721445Y-76414601D01*
X106519655Y-76353389D01*
X106414727Y-76343054D01*
X106309801Y-76332720D01*
X106309799Y-76332720D01*
X106099945Y-76353389D01*
X105898155Y-76414601D01*
X105712188Y-76514002D01*
X105712185Y-76514004D01*
X105549179Y-76647779D01*
X105415404Y-76810785D01*
X105415402Y-76810788D01*
X105341598Y-76948866D01*
X105316001Y-76996755D01*
X105254789Y-77198545D01*
X105239300Y-77355807D01*
X105239300Y-77910993D01*
X102698294Y-77910993D01*
X102735550Y-77846463D01*
X102795344Y-77662437D01*
X102815570Y-77470000D01*
X102795344Y-77277563D01*
X102735550Y-77093537D01*
X102638802Y-76925964D01*
X102559807Y-76838231D01*
X102509329Y-76782169D01*
X102509328Y-76782168D01*
X102509327Y-76782167D01*
X102352785Y-76668433D01*
X102352783Y-76668432D01*
X102352779Y-76668429D01*
X102176020Y-76589732D01*
X102176018Y-76589731D01*
X101986750Y-76549500D01*
X101986748Y-76549500D01*
X101793252Y-76549500D01*
X101793249Y-76549500D01*
X101603981Y-76589731D01*
X101603979Y-76589732D01*
X101427221Y-76668429D01*
X101427220Y-76668429D01*
X101270670Y-76782169D01*
X101141198Y-76925963D01*
X101044450Y-77093536D01*
X101044450Y-77093537D01*
X100986124Y-77273047D01*
X100984656Y-77277564D01*
X100971930Y-77398647D01*
X100964430Y-77470000D01*
X91515500Y-77470000D01*
X91515500Y-77072000D01*
X91536795Y-77006462D01*
X91592545Y-76965957D01*
X91627000Y-76960500D01*
X91884745Y-76960500D01*
X91884748Y-76960500D01*
X91943231Y-76948867D01*
X92009552Y-76904552D01*
X92053867Y-76838231D01*
X92065500Y-76779748D01*
X92065500Y-75390252D01*
X92053867Y-75331769D01*
X92009552Y-75265448D01*
X91943231Y-75221133D01*
X91884748Y-75209500D01*
X90495252Y-75209500D01*
X90451389Y-75218224D01*
X90436768Y-75221133D01*
X90370448Y-75265448D01*
X90326133Y-75331768D01*
X90326132Y-75331769D01*
X90326133Y-75331769D01*
X90314500Y-75390252D01*
X90314500Y-76779748D01*
X89723250Y-76779748D01*
X89779050Y-76739207D01*
X89902195Y-76602440D01*
X89994214Y-76443059D01*
X90051085Y-76268029D01*
X90070322Y-76085000D01*
X90051085Y-75901971D01*
X89994214Y-75726941D01*
X89902195Y-75567560D01*
X89779050Y-75430793D01*
X89779049Y-75430792D01*
X89779048Y-75430791D01*
X89642755Y-75331769D01*
X89630161Y-75322619D01*
X89630160Y-75322618D01*
X89630158Y-75322617D01*
X89630156Y-75322616D01*
X89462037Y-75247765D01*
X89462035Y-75247764D01*
X89282021Y-75209500D01*
X89282019Y-75209500D01*
X89097981Y-75209500D01*
X89097978Y-75209500D01*
X88917964Y-75247764D01*
X88917962Y-75247765D01*
X88749843Y-75322616D01*
X88749841Y-75322617D01*
X88600951Y-75430791D01*
X88477804Y-75567561D01*
X88385786Y-75726940D01*
X88328915Y-75901969D01*
X88309678Y-76084998D01*
X88309678Y-76085001D01*
X88328915Y-76268030D01*
X88349934Y-76332720D01*
X88385786Y-76443059D01*
X88477805Y-76602440D01*
X88600950Y-76739207D01*
X88749839Y-76847381D01*
X88798350Y-76868979D01*
X88849561Y-76915089D01*
X88864500Y-76970840D01*
X88864500Y-76978989D01*
X88843205Y-77044527D01*
X88831842Y-77057831D01*
X88262831Y-77626842D01*
X88201431Y-77658127D01*
X88183989Y-77659500D01*
X87985734Y-77659500D01*
X87973560Y-77660641D01*
X87955298Y-77662354D01*
X87827116Y-77707207D01*
X87717850Y-77787850D01*
X87637207Y-77897116D01*
X87592354Y-78025298D01*
X87592354Y-78025301D01*
X87589500Y-78055734D01*
X87589500Y-79464266D01*
X84930500Y-79464266D01*
X84930500Y-78355734D01*
X84927646Y-78325301D01*
X84882793Y-78197118D01*
X84802150Y-78087850D01*
X84717395Y-78025298D01*
X84692883Y-78007207D01*
X84564701Y-77962354D01*
X84552525Y-77961212D01*
X84534266Y-77959500D01*
X82735734Y-77959500D01*
X82723560Y-77960641D01*
X82705298Y-77962354D01*
X82577116Y-78007207D01*
X82467850Y-78087850D01*
X82387207Y-78197116D01*
X82342354Y-78325298D01*
X82339500Y-78355736D01*
X82339500Y-79704263D01*
X60477761Y-79704263D01*
X60464065Y-79665986D01*
X60463762Y-79665109D01*
X60404400Y-79487999D01*
X60403538Y-79485179D01*
X60401847Y-79479069D01*
X60400474Y-79474105D01*
X60400152Y-79472886D01*
X60356685Y-79299357D01*
X60315058Y-79122369D01*
X60314414Y-79119219D01*
X60309751Y-79092347D01*
X60309562Y-79091167D01*
X60284658Y-78923283D01*
X60260373Y-78749190D01*
X60259995Y-78745647D01*
X60256900Y-78703684D01*
X60256817Y-78702329D01*
X60256675Y-78699442D01*
X60248497Y-78532985D01*
X60240556Y-78361221D01*
X60240499Y-78358756D01*
X60240499Y-76490000D01*
X82334320Y-76490000D01*
X82354989Y-76699855D01*
X82416201Y-76901645D01*
X82459042Y-76981795D01*
X82499684Y-77057831D01*
X82515605Y-77087616D01*
X82649379Y-77250621D01*
X82812384Y-77384395D01*
X82998355Y-77483799D01*
X83200145Y-77545011D01*
X83357407Y-77560500D01*
X83357410Y-77560500D01*
X83912590Y-77560500D01*
X83912593Y-77560500D01*
X84069855Y-77545011D01*
X84271645Y-77483799D01*
X84457616Y-77384395D01*
X84620621Y-77250621D01*
X84754395Y-77087616D01*
X84853799Y-76901645D01*
X84915011Y-76699855D01*
X84935680Y-76490000D01*
X84915011Y-76280145D01*
X84853799Y-76078355D01*
X84754395Y-75892384D01*
X84620621Y-75729379D01*
X84457616Y-75595605D01*
X84457613Y-75595603D01*
X84457611Y-75595602D01*
X84386966Y-75557841D01*
X84271645Y-75496201D01*
X84069855Y-75434989D01*
X83912593Y-75419500D01*
X83357407Y-75419500D01*
X83242748Y-75430793D01*
X83200145Y-75434989D01*
X82998355Y-75496201D01*
X82812388Y-75595602D01*
X82812385Y-75595604D01*
X82649379Y-75729379D01*
X82515604Y-75892385D01*
X82515602Y-75892388D01*
X82416200Y-76078354D01*
X82416201Y-76078355D01*
X82354989Y-76280145D01*
X82334320Y-76490000D01*
X60240499Y-76490000D01*
X60240499Y-73740000D01*
X75069320Y-73740000D01*
X75089989Y-73949855D01*
X75151201Y-74151645D01*
X75205168Y-74252610D01*
X75247734Y-74332246D01*
X75250605Y-74337616D01*
X75384379Y-74500621D01*
X75547384Y-74634395D01*
X75733355Y-74733799D01*
X75935145Y-74795011D01*
X76092407Y-74810500D01*
X76092410Y-74810500D01*
X76647590Y-74810500D01*
X76647593Y-74810500D01*
X76804855Y-74795011D01*
X77006645Y-74733799D01*
X77192616Y-74634395D01*
X77355621Y-74500621D01*
X77356733Y-74499266D01*
X78069500Y-74499266D01*
X78071212Y-74517525D01*
X78072354Y-74529701D01*
X78117207Y-74657883D01*
X78144277Y-74694561D01*
X78197850Y-74767150D01*
X78271875Y-74821782D01*
X78307116Y-74847792D01*
X78307117Y-74847792D01*
X78307118Y-74847793D01*
X78435301Y-74892646D01*
X78465734Y-74895500D01*
X78465741Y-74895500D01*
X79874259Y-74895500D01*
X79874266Y-74895500D01*
X79904699Y-74892646D01*
X80032882Y-74847793D01*
X80142150Y-74767150D01*
X80222793Y-74657882D01*
X80267646Y-74529699D01*
X80270500Y-74499266D01*
X80270500Y-74460933D01*
X80291795Y-74395395D01*
X80347545Y-74354890D01*
X80353085Y-74353248D01*
X80360704Y-74351206D01*
X80365401Y-74350165D01*
X80405545Y-74343088D01*
X80405547Y-74343086D01*
X80405980Y-74342929D01*
X80431771Y-74332246D01*
X80432181Y-74332054D01*
X80432184Y-74332054D01*
X80465571Y-74308675D01*
X80469647Y-74306078D01*
X80504955Y-74285694D01*
X80531156Y-74254466D01*
X80534421Y-74250903D01*
X80891213Y-73894111D01*
X80952611Y-73862828D01*
X81012318Y-73870690D01*
X81012404Y-73870429D01*
X81013816Y-73870887D01*
X81015409Y-73871097D01*
X81017966Y-73872236D01*
X81197981Y-73910500D01*
X81197983Y-73910500D01*
X81382017Y-73910500D01*
X81382019Y-73910500D01*
X81562034Y-73872236D01*
X81730161Y-73797381D01*
X81879050Y-73689207D01*
X81896343Y-73670001D01*
X86024353Y-73670001D01*
X86044835Y-73812457D01*
X86104622Y-73943372D01*
X86196782Y-74049732D01*
X86198872Y-74052143D01*
X86319947Y-74129953D01*
X86458039Y-74170500D01*
X86458041Y-74170500D01*
X86601959Y-74170500D01*
X86601961Y-74170500D01*
X86740053Y-74129953D01*
X86861128Y-74052143D01*
X86955377Y-73943373D01*
X87015165Y-73812457D01*
X87035647Y-73670000D01*
X87015165Y-73527543D01*
X86955377Y-73396627D01*
X86882733Y-73312791D01*
X86855909Y-73249316D01*
X86855500Y-73239775D01*
X86855500Y-70672374D01*
X90459500Y-70672374D01*
X90459663Y-70678161D01*
X90459663Y-70678162D01*
X90460311Y-70689594D01*
X90460314Y-70689634D01*
X90460808Y-70695436D01*
X90464141Y-70724686D01*
X90464500Y-70731003D01*
X90464500Y-70814263D01*
X90467354Y-70844701D01*
X90478733Y-70877219D01*
X90484273Y-70901424D01*
X90484638Y-70904631D01*
X90484642Y-70904657D01*
X90486612Y-70916130D01*
X90486619Y-70916164D01*
X90494274Y-70949333D01*
X90497538Y-70960533D01*
X90565960Y-71153795D01*
X90565971Y-71153826D01*
X90570469Y-71164556D01*
X90585400Y-71195178D01*
X90591095Y-71205350D01*
X90707289Y-71387793D01*
X90707288Y-71387793D01*
X90707299Y-71387808D01*
X90714109Y-71397270D01*
X90859663Y-71577072D01*
X90884348Y-71641409D01*
X90884500Y-71647227D01*
X90884500Y-72121245D01*
X90884817Y-72129313D01*
X90886666Y-72152810D01*
X90886671Y-72152862D01*
X90887615Y-72160837D01*
X90887621Y-72160879D01*
X90893127Y-72195640D01*
X90894500Y-72213082D01*
X90894500Y-72410260D01*
X90897274Y-72439846D01*
X90897274Y-72439848D01*
X90897275Y-72439849D01*
X90940884Y-72564475D01*
X91019289Y-72670711D01*
X91125525Y-72749116D01*
X91250151Y-72792725D01*
X91279744Y-72795500D01*
X91476916Y-72795500D01*
X91494357Y-72796872D01*
X91529141Y-72802382D01*
X91537155Y-72803331D01*
X91560688Y-72805183D01*
X91568754Y-72805500D01*
X91568778Y-72805500D01*
X92011904Y-72805500D01*
X92011921Y-72805500D01*
X92043783Y-72805027D01*
X92048278Y-72804895D01*
X92061720Y-72804297D01*
X92080141Y-72803480D01*
X92719438Y-72765598D01*
X92722736Y-72765500D01*
X93173722Y-72765500D01*
X93173746Y-72765500D01*
X93181812Y-72765183D01*
X93205345Y-72763331D01*
X93213359Y-72762382D01*
X93337072Y-72742788D01*
X93337073Y-72742788D01*
X93337075Y-72742787D01*
X93337078Y-72742787D01*
X93350164Y-72739644D01*
X93368434Y-72735259D01*
X93368435Y-72735258D01*
X93368437Y-72735258D01*
X93397895Y-72725686D01*
X93427685Y-72713346D01*
X93490857Y-72681157D01*
X93497758Y-72678207D01*
X93609475Y-72639116D01*
X93715711Y-72560711D01*
X93794116Y-72454475D01*
X93837725Y-72329849D01*
X93840500Y-72300256D01*
X93840500Y-72154014D01*
X93841873Y-72136570D01*
X93842382Y-72133358D01*
X93843331Y-72125344D01*
X93845183Y-72101811D01*
X93845500Y-72093745D01*
X93845500Y-71557525D01*
X93846621Y-71541758D01*
X93891511Y-71227528D01*
X93908512Y-71108516D01*
X93909182Y-71103156D01*
X93916827Y-71031587D01*
X93917150Y-71027958D01*
X93917657Y-71020821D01*
X93917851Y-71017181D01*
X93920405Y-70945260D01*
X93920500Y-70939857D01*
X93920500Y-70834158D01*
X93920561Y-70831550D01*
X93920573Y-70831293D01*
X93920573Y-69822770D01*
X93920573Y-69822763D01*
X93917719Y-69792330D01*
X93872866Y-69664147D01*
X93869436Y-69659500D01*
X93834421Y-69612056D01*
X93792223Y-69554879D01*
X93737589Y-69514557D01*
X93682956Y-69474236D01*
X93554774Y-69429383D01*
X93542598Y-69428241D01*
X93524339Y-69426529D01*
X93524336Y-69426529D01*
X93327633Y-69426529D01*
X93311217Y-69425184D01*
X93311207Y-69425266D01*
X93309540Y-69425046D01*
X93309484Y-69425042D01*
X93309399Y-69425027D01*
X93166707Y-69406242D01*
X93160032Y-69405585D01*
X93159967Y-69405579D01*
X93146909Y-69404724D01*
X93146865Y-69404721D01*
X93146838Y-69404720D01*
X93146814Y-69404719D01*
X93146810Y-69404719D01*
X93140126Y-69404500D01*
X93140115Y-69404500D01*
X92800979Y-69404500D01*
X92800962Y-69404500D01*
X92800920Y-69404501D01*
X92795064Y-69404670D01*
X92795042Y-69404671D01*
X92784142Y-69405301D01*
X92783377Y-69405346D01*
X92783375Y-69405346D01*
X92783343Y-69405348D01*
X92777411Y-69405864D01*
X92553080Y-69431984D01*
X92541331Y-69434048D01*
X92507452Y-69442048D01*
X92496049Y-69445449D01*
X92283761Y-69522395D01*
X92283750Y-69522399D01*
X92278199Y-69524595D01*
X92278153Y-69524614D01*
X92267458Y-69529207D01*
X92262045Y-69531721D01*
X92040029Y-69642729D01*
X91990165Y-69654500D01*
X91239873Y-69654500D01*
X91233189Y-69654719D01*
X91233182Y-69654719D01*
X91233162Y-69654720D01*
X91233137Y-69654721D01*
X91233090Y-69654724D01*
X91220032Y-69655579D01*
X91219967Y-69655585D01*
X91213297Y-69656242D01*
X91208698Y-69656847D01*
X91192168Y-69659023D01*
X91184895Y-69659500D01*
X90860734Y-69659500D01*
X90848560Y-69660641D01*
X90830298Y-69662354D01*
X90702116Y-69707207D01*
X90592850Y-69787850D01*
X90512207Y-69897116D01*
X90467354Y-70025298D01*
X90464500Y-70055736D01*
X90464500Y-70379893D01*
X90464023Y-70387177D01*
X90461242Y-70408292D01*
X90460585Y-70414966D01*
X90460579Y-70415031D01*
X90459724Y-70428089D01*
X90459719Y-70428188D01*
X90459500Y-70434872D01*
X90459500Y-70672374D01*
X86855500Y-70672374D01*
X86855500Y-68650260D01*
X88884500Y-68650260D01*
X88887274Y-68679846D01*
X88887274Y-68679848D01*
X88887275Y-68679849D01*
X88930884Y-68804475D01*
X89009289Y-68910711D01*
X89115525Y-68989116D01*
X89240151Y-69032725D01*
X89269744Y-69035500D01*
X89330729Y-69035500D01*
X89381349Y-69047653D01*
X89410951Y-69062736D01*
X89433996Y-69072281D01*
X89440749Y-69075078D01*
X89440752Y-69075079D01*
X89460753Y-69081577D01*
X89470205Y-69084648D01*
X89489204Y-69089209D01*
X89501560Y-69092176D01*
X89600366Y-69107824D01*
X89629141Y-69112382D01*
X89637155Y-69113331D01*
X89660688Y-69115183D01*
X89668754Y-69115500D01*
X90127587Y-69115500D01*
X90132875Y-69115750D01*
X90598891Y-69160133D01*
X90602491Y-69160431D01*
X90650486Y-69163856D01*
X90652942Y-69164001D01*
X90657724Y-69164227D01*
X90660139Y-69164313D01*
X90708254Y-69165457D01*
X90711787Y-69165499D01*
X90711865Y-69165500D01*
X90711866Y-69165500D01*
X91490104Y-69165500D01*
X91490115Y-69165500D01*
X91496838Y-69165280D01*
X91502765Y-69164891D01*
X91509994Y-69164418D01*
X91510005Y-69164416D01*
X91510018Y-69164416D01*
X91516710Y-69163757D01*
X91537830Y-69160976D01*
X91545106Y-69160500D01*
X91869259Y-69160500D01*
X91869266Y-69160500D01*
X91899699Y-69157646D01*
X92027882Y-69112793D01*
X92137150Y-69032150D01*
X92217793Y-68922882D01*
X92262646Y-68794699D01*
X92262723Y-68793873D01*
X94084500Y-68793873D01*
X94084615Y-68798760D01*
X94085064Y-68808256D01*
X94085067Y-68808306D01*
X94085404Y-68813052D01*
X94085406Y-68813075D01*
X94102776Y-68996449D01*
X94104148Y-69006068D01*
X94104152Y-69006088D01*
X94109472Y-69033921D01*
X94111752Y-69043399D01*
X94161956Y-69215794D01*
X94161971Y-69215843D01*
X94165103Y-69224970D01*
X94175583Y-69251374D01*
X94179581Y-69260207D01*
X94263366Y-69424223D01*
X94263378Y-69424246D01*
X94265685Y-69428510D01*
X94265723Y-69428577D01*
X94270398Y-69436751D01*
X94270458Y-69436852D01*
X94272919Y-69440929D01*
X94272926Y-69440939D01*
X94273632Y-69442048D01*
X94417068Y-69667449D01*
X94434500Y-69727308D01*
X94434500Y-69738882D01*
X94428243Y-69775708D01*
X94422427Y-69792327D01*
X94422427Y-69792330D01*
X94419573Y-69822763D01*
X94419573Y-70831295D01*
X94420830Y-70844699D01*
X94422427Y-70861730D01*
X94467280Y-70989912D01*
X94495360Y-71027958D01*
X94547923Y-71099179D01*
X94621925Y-71153795D01*
X94657189Y-71179821D01*
X94657190Y-71179821D01*
X94657191Y-71179822D01*
X94785374Y-71224675D01*
X94815807Y-71227529D01*
X95099353Y-71227529D01*
X95106627Y-71228005D01*
X95181924Y-71237918D01*
X95192447Y-71238607D01*
X95195332Y-71238797D01*
X95195342Y-71238797D01*
X95195350Y-71238798D01*
X95195353Y-71238798D01*
X95234645Y-71238798D01*
X95234648Y-71238798D01*
X95234657Y-71238797D01*
X95234665Y-71238797D01*
X95236497Y-71238676D01*
X95248074Y-71237918D01*
X95323369Y-71228005D01*
X95330644Y-71227529D01*
X95574332Y-71227529D01*
X95574339Y-71227529D01*
X95604772Y-71224675D01*
X95732955Y-71179822D01*
X95842223Y-71099179D01*
X95922866Y-70989911D01*
X95967719Y-70861728D01*
X95970573Y-70831295D01*
X95970573Y-70662487D01*
X95972716Y-70640734D01*
X95974972Y-70629391D01*
X95988618Y-70525740D01*
X95993757Y-70486710D01*
X95994416Y-70480018D01*
X95995280Y-70466838D01*
X95995500Y-70460115D01*
X95995500Y-69855727D01*
X95995500Y-69855726D01*
X95995500Y-69855706D01*
X95995350Y-69850168D01*
X95995349Y-69850164D01*
X95995349Y-69850150D01*
X95994754Y-69839202D01*
X95994299Y-69833633D01*
X95971329Y-69623095D01*
X95969517Y-69612077D01*
X95969516Y-69612072D01*
X95969513Y-69612056D01*
X95962486Y-69580234D01*
X95962479Y-69580202D01*
X95959482Y-69569441D01*
X95891653Y-69368806D01*
X95891646Y-69368785D01*
X95889737Y-69363605D01*
X95889730Y-69363588D01*
X95886253Y-69354889D01*
X95885656Y-69353395D01*
X95883440Y-69348262D01*
X95842557Y-69260207D01*
X95680869Y-68911955D01*
X95670500Y-68865001D01*
X95670500Y-68672381D01*
X95671635Y-68656512D01*
X95671649Y-68656414D01*
X95675447Y-68630000D01*
X95674168Y-68621107D01*
X95671635Y-68603486D01*
X95670500Y-68587618D01*
X95670500Y-68435658D01*
X95670499Y-68435629D01*
X95670283Y-68428986D01*
X95669434Y-68415920D01*
X95668786Y-68409287D01*
X95656867Y-68317978D01*
X95654287Y-68304891D01*
X95647636Y-68279846D01*
X95644288Y-68267237D01*
X95640040Y-68254606D01*
X95640037Y-68254598D01*
X95640033Y-68254586D01*
X95618034Y-68200971D01*
X95612599Y-68187724D01*
X95612591Y-68187706D01*
X95607781Y-68178635D01*
X95593724Y-68152124D01*
X95572372Y-68119935D01*
X95546919Y-68088707D01*
X95515958Y-68057538D01*
X95515951Y-68057532D01*
X95473309Y-68024624D01*
X95473305Y-68024621D01*
X95473302Y-68024619D01*
X95461208Y-68017601D01*
X95428808Y-67998799D01*
X95428790Y-67998790D01*
X95379064Y-67978096D01*
X95379062Y-67978095D01*
X95323763Y-67963212D01*
X95323751Y-67963209D01*
X95310492Y-67960560D01*
X95271361Y-67955386D01*
X95271364Y-67955386D01*
X95257888Y-67954500D01*
X94756254Y-67954500D01*
X94748185Y-67954817D01*
X94724668Y-67956668D01*
X94724666Y-67956668D01*
X94724656Y-67956669D01*
X94721498Y-67957043D01*
X94716646Y-67957617D01*
X94716624Y-67957620D01*
X94647472Y-67968573D01*
X94630030Y-67969946D01*
X94484804Y-67969946D01*
X94455218Y-67972720D01*
X94439858Y-67978095D01*
X94330590Y-68016330D01*
X94330589Y-68016330D01*
X94330588Y-68016331D01*
X94224354Y-68094735D01*
X94155726Y-68187724D01*
X94145949Y-68200971D01*
X94140150Y-68217543D01*
X94102339Y-68325599D01*
X94099565Y-68355185D01*
X94099565Y-68502428D01*
X94098192Y-68519871D01*
X94087614Y-68586650D01*
X94086666Y-68594669D01*
X94086664Y-68594682D01*
X94084817Y-68618166D01*
X94084815Y-68618195D01*
X94084500Y-68626244D01*
X94084500Y-68793873D01*
X92262723Y-68793873D01*
X92265500Y-68764266D01*
X92265500Y-68440098D01*
X92265976Y-68432823D01*
X92267918Y-68418075D01*
X92268798Y-68404649D01*
X92268798Y-68365351D01*
X92267918Y-68351925D01*
X92265976Y-68337176D01*
X92265500Y-68329901D01*
X92265500Y-68005741D01*
X92265500Y-68005734D01*
X92262646Y-67975301D01*
X92258414Y-67963208D01*
X92243109Y-67919468D01*
X92217793Y-67847118D01*
X92202962Y-67827023D01*
X92169580Y-67781792D01*
X92137150Y-67737850D01*
X92064863Y-67684500D01*
X92027883Y-67657207D01*
X91899701Y-67612354D01*
X91887525Y-67611212D01*
X91869266Y-67609500D01*
X91869263Y-67609500D01*
X91545105Y-67609500D01*
X91537831Y-67609023D01*
X91518690Y-67606503D01*
X91516702Y-67606242D01*
X91510032Y-67605585D01*
X91509967Y-67605579D01*
X91496909Y-67604724D01*
X91496865Y-67604721D01*
X91496838Y-67604720D01*
X91496814Y-67604719D01*
X91496810Y-67604719D01*
X91490126Y-67604500D01*
X91490115Y-67604500D01*
X90687581Y-67604500D01*
X90687570Y-67604500D01*
X90661873Y-67604805D01*
X90658427Y-67604886D01*
X90632667Y-67605807D01*
X90136438Y-67629437D01*
X90133786Y-67629500D01*
X89668754Y-67629500D01*
X89660685Y-67629817D01*
X89637168Y-67631668D01*
X89637166Y-67631668D01*
X89637156Y-67631669D01*
X89633998Y-67632043D01*
X89629146Y-67632617D01*
X89629116Y-67632621D01*
X89501561Y-67652823D01*
X89501553Y-67652825D01*
X89470204Y-67660351D01*
X89470200Y-67660352D01*
X89440747Y-67669921D01*
X89426045Y-67676012D01*
X89383374Y-67684500D01*
X89269739Y-67684500D01*
X89240153Y-67687274D01*
X89177838Y-67709079D01*
X89115525Y-67730884D01*
X89115524Y-67730884D01*
X89115523Y-67730885D01*
X89009289Y-67809289D01*
X88981372Y-67847116D01*
X88930884Y-67915525D01*
X88911841Y-67969946D01*
X88887274Y-68040153D01*
X88884500Y-68069739D01*
X88884500Y-68650260D01*
X86855500Y-68650260D01*
X86855500Y-63507000D01*
X86876795Y-63441462D01*
X86932545Y-63400957D01*
X86967000Y-63395500D01*
X89918990Y-63395500D01*
X89984528Y-63416795D01*
X89997832Y-63428158D01*
X93751695Y-67182021D01*
X93782980Y-67243421D01*
X93784202Y-67258956D01*
X93804835Y-67402457D01*
X93864622Y-67533372D01*
X93950618Y-67632618D01*
X93958872Y-67642143D01*
X94079947Y-67719953D01*
X94218039Y-67760500D01*
X94218041Y-67760500D01*
X94361959Y-67760500D01*
X94361961Y-67760500D01*
X94500053Y-67719953D01*
X94621128Y-67642143D01*
X94715377Y-67533373D01*
X94775165Y-67402457D01*
X94795647Y-67260000D01*
X94793669Y-67246245D01*
X94789950Y-67220376D01*
X94775165Y-67117543D01*
X94715377Y-66986627D01*
X94707711Y-66977780D01*
X94621130Y-66877859D01*
X94621129Y-66877858D01*
X94621128Y-66877857D01*
X94500053Y-66800047D01*
X94500052Y-66800046D01*
X94500051Y-66800046D01*
X94431254Y-66779846D01*
X94361961Y-66759500D01*
X94361959Y-66759500D01*
X94296010Y-66759500D01*
X94230472Y-66738205D01*
X94217168Y-66726842D01*
X92755185Y-65264859D01*
X99859500Y-65264859D01*
X99859524Y-65266197D01*
X99859595Y-65270265D01*
X99862148Y-65342190D01*
X99862341Y-65345813D01*
X99862849Y-65352961D01*
X99863172Y-65356593D01*
X99870820Y-65428189D01*
X99871485Y-65433502D01*
X99918321Y-65761359D01*
X99924535Y-65804854D01*
X99933379Y-65866758D01*
X99934500Y-65882525D01*
X99934500Y-66456245D01*
X99934817Y-66464312D01*
X99936669Y-66487843D01*
X99936672Y-66487868D01*
X99937614Y-66495831D01*
X99937618Y-66495858D01*
X99938127Y-66499069D01*
X99939500Y-66516513D01*
X99939500Y-66750260D01*
X99942274Y-66779846D01*
X99942274Y-66779848D01*
X99942275Y-66779849D01*
X99985884Y-66904475D01*
X100064289Y-67010711D01*
X100170525Y-67089116D01*
X100295151Y-67132725D01*
X100324744Y-67135500D01*
X100564963Y-67135500D01*
X100569329Y-67135671D01*
X100599512Y-67138047D01*
X100599514Y-67138047D01*
X100630484Y-67138047D01*
X100630486Y-67138047D01*
X100660668Y-67135671D01*
X100665035Y-67135500D01*
X100905249Y-67135500D01*
X100905256Y-67135500D01*
X100934849Y-67132725D01*
X101059475Y-67089116D01*
X101165711Y-67010711D01*
X101244116Y-66904475D01*
X101287725Y-66779849D01*
X101290500Y-66750256D01*
X101290500Y-66516513D01*
X101291873Y-66499070D01*
X101291873Y-66499069D01*
X101292382Y-66495858D01*
X101293331Y-66487844D01*
X101295183Y-66464311D01*
X101295500Y-66456245D01*
X101295500Y-65897217D01*
X101298532Y-65871393D01*
X101304312Y-65847116D01*
X101387730Y-65496757D01*
X101388386Y-65493812D01*
X101389582Y-65488041D01*
X101390146Y-65485107D01*
X101410546Y-65369936D01*
X101411419Y-65364000D01*
X101412795Y-65352290D01*
X101413321Y-65346304D01*
X101420151Y-65229549D01*
X101420282Y-65226568D01*
X101420456Y-65220676D01*
X101420500Y-65217656D01*
X101420500Y-64509884D01*
X101420500Y-64509883D01*
X101420500Y-64140734D01*
X101417646Y-64110301D01*
X101372793Y-63982118D01*
X101371617Y-63980525D01*
X101346783Y-63946875D01*
X101292150Y-63872850D01*
X101237516Y-63832528D01*
X101182883Y-63792207D01*
X101054701Y-63747354D01*
X101042525Y-63746212D01*
X101024266Y-63744500D01*
X101024263Y-63744500D01*
X100771063Y-63744500D01*
X100763788Y-63744023D01*
X100673073Y-63732081D01*
X100673070Y-63732080D01*
X100673062Y-63732080D01*
X100659664Y-63731201D01*
X100659647Y-63731201D01*
X100620353Y-63731201D01*
X100620335Y-63731201D01*
X100606937Y-63732080D01*
X100606927Y-63732081D01*
X100516210Y-63744023D01*
X100508936Y-63744500D01*
X100265734Y-63744500D01*
X100253560Y-63745641D01*
X100235298Y-63747354D01*
X100107116Y-63792207D01*
X99997850Y-63872850D01*
X99917207Y-63982116D01*
X99872354Y-64110298D01*
X99869500Y-64140736D01*
X99869500Y-64416913D01*
X99869023Y-64424197D01*
X99861242Y-64483292D01*
X99860585Y-64489966D01*
X99860579Y-64490031D01*
X99859724Y-64503089D01*
X99859721Y-64503136D01*
X99859720Y-64503161D01*
X99859500Y-64509884D01*
X99859500Y-65264859D01*
X92755185Y-65264859D01*
X92282136Y-64791810D01*
X90341924Y-62851598D01*
X90338659Y-62848036D01*
X90312455Y-62816806D01*
X90312454Y-62816805D01*
X90312453Y-62816804D01*
X90277164Y-62796430D01*
X90273062Y-62793816D01*
X90239686Y-62770447D01*
X90239318Y-62770275D01*
X90213424Y-62759549D01*
X90213046Y-62759411D01*
X90172922Y-62752336D01*
X90168173Y-62751283D01*
X90128808Y-62740736D01*
X90128807Y-62740736D01*
X90109235Y-62742448D01*
X90088208Y-62744288D01*
X90083347Y-62744500D01*
X86961130Y-62744500D01*
X86895592Y-62723205D01*
X86876864Y-62706017D01*
X86861130Y-62687859D01*
X86861129Y-62687858D01*
X86861128Y-62687857D01*
X86740053Y-62610047D01*
X86740052Y-62610046D01*
X86740051Y-62610046D01*
X86683053Y-62593310D01*
X86601961Y-62569500D01*
X86458039Y-62569500D01*
X86419776Y-62580735D01*
X86319948Y-62610046D01*
X86198869Y-62687859D01*
X86104622Y-62796627D01*
X86044835Y-62927542D01*
X86024353Y-63069998D01*
X86024353Y-63070001D01*
X86044835Y-63212457D01*
X86104622Y-63343372D01*
X86177266Y-63427208D01*
X86204091Y-63490684D01*
X86204500Y-63500225D01*
X86204500Y-73239775D01*
X86183205Y-73305313D01*
X86177266Y-73312792D01*
X86104622Y-73396627D01*
X86044835Y-73527542D01*
X86024353Y-73669998D01*
X86024353Y-73670001D01*
X81896343Y-73670001D01*
X82002195Y-73552440D01*
X82094214Y-73393059D01*
X82151085Y-73218029D01*
X82170322Y-73035000D01*
X82151085Y-72851971D01*
X82094214Y-72676941D01*
X82002195Y-72517560D01*
X81879050Y-72380793D01*
X81879049Y-72380792D01*
X81879048Y-72380791D01*
X81730158Y-72272617D01*
X81730156Y-72272616D01*
X81562037Y-72197765D01*
X81562035Y-72197764D01*
X81382021Y-72159500D01*
X81382019Y-72159500D01*
X81197981Y-72159500D01*
X81197978Y-72159500D01*
X81017964Y-72197764D01*
X81017962Y-72197765D01*
X80849843Y-72272616D01*
X80849841Y-72272617D01*
X80700951Y-72380791D01*
X80577804Y-72517561D01*
X80485786Y-72676940D01*
X80428915Y-72851969D01*
X80409678Y-73034998D01*
X80409678Y-73035001D01*
X80428915Y-73218032D01*
X80461195Y-73317380D01*
X80461195Y-73386291D01*
X80433994Y-73430677D01*
X80409122Y-73455549D01*
X80347722Y-73486834D01*
X80279660Y-73476054D01*
X80230933Y-73427327D01*
X80225039Y-73413538D01*
X80222793Y-73407118D01*
X80142150Y-73297850D01*
X80087515Y-73257528D01*
X80032883Y-73217207D01*
X79904701Y-73172354D01*
X79892525Y-73171212D01*
X79874266Y-73169500D01*
X78465734Y-73169500D01*
X78453560Y-73170641D01*
X78435298Y-73172354D01*
X78307116Y-73217207D01*
X78197850Y-73297850D01*
X78117207Y-73407116D01*
X78072354Y-73535298D01*
X78072354Y-73535301D01*
X78069500Y-73565734D01*
X78069500Y-74499266D01*
X77356733Y-74499266D01*
X77489395Y-74337616D01*
X77588799Y-74151645D01*
X77650011Y-73949855D01*
X77670680Y-73740000D01*
X77650011Y-73530145D01*
X77588799Y-73328355D01*
X77489395Y-73142384D01*
X77355621Y-72979379D01*
X77192616Y-72845605D01*
X77192613Y-72845603D01*
X77192611Y-72845602D01*
X77116453Y-72804895D01*
X77006645Y-72746201D01*
X76804855Y-72684989D01*
X76647593Y-72669500D01*
X76092407Y-72669500D01*
X75935144Y-72684989D01*
X75935145Y-72684989D01*
X75733355Y-72746201D01*
X75547388Y-72845602D01*
X75547385Y-72845604D01*
X75384379Y-72979379D01*
X75250604Y-73142385D01*
X75250602Y-73142388D01*
X75151201Y-73328355D01*
X75089989Y-73530145D01*
X75074323Y-73689208D01*
X75069320Y-73740000D01*
X60240499Y-73740000D01*
X60240499Y-71874263D01*
X75074500Y-71874263D01*
X75077354Y-71904701D01*
X75122207Y-72032883D01*
X75162528Y-72087515D01*
X75202850Y-72142150D01*
X75275327Y-72195640D01*
X75312116Y-72222792D01*
X75312117Y-72222792D01*
X75312118Y-72222793D01*
X75440301Y-72267646D01*
X75470734Y-72270500D01*
X75470741Y-72270500D01*
X77269259Y-72270500D01*
X77269266Y-72270500D01*
X77299699Y-72267646D01*
X77427882Y-72222793D01*
X77537150Y-72142150D01*
X77617793Y-72032882D01*
X77662646Y-71904699D01*
X77665500Y-71874266D01*
X77665500Y-71374263D01*
X78069500Y-71374263D01*
X78072354Y-71404701D01*
X78117207Y-71532883D01*
X78135395Y-71557526D01*
X78197850Y-71642150D01*
X78271875Y-71696783D01*
X78307116Y-71722792D01*
X78307117Y-71722792D01*
X78307118Y-71722793D01*
X78435301Y-71767646D01*
X78465734Y-71770500D01*
X78465741Y-71770500D01*
X79874259Y-71770500D01*
X79874266Y-71770500D01*
X79904699Y-71767646D01*
X80032882Y-71722793D01*
X80142150Y-71642150D01*
X80213287Y-71545761D01*
X80269339Y-71505676D01*
X80338247Y-71506191D01*
X80393693Y-71547111D01*
X80414500Y-71611973D01*
X80414500Y-71729748D01*
X80426133Y-71788231D01*
X80470448Y-71854552D01*
X80536769Y-71898867D01*
X80595252Y-71910500D01*
X80595255Y-71910500D01*
X81984745Y-71910500D01*
X81984748Y-71910500D01*
X82043231Y-71898867D01*
X82109552Y-71854552D01*
X82153867Y-71788231D01*
X82165500Y-71729748D01*
X82165500Y-70340252D01*
X82157545Y-70300260D01*
X82984500Y-70300260D01*
X82987274Y-70329846D01*
X82987274Y-70329848D01*
X82987275Y-70329849D01*
X83030884Y-70454475D01*
X83109289Y-70560711D01*
X83215525Y-70639116D01*
X83340151Y-70682725D01*
X83369744Y-70685500D01*
X83369751Y-70685500D01*
X83950249Y-70685500D01*
X83950256Y-70685500D01*
X83979849Y-70682725D01*
X84104475Y-70639116D01*
X84210711Y-70560711D01*
X84289116Y-70454475D01*
X84332725Y-70329849D01*
X84335500Y-70300256D01*
X84335500Y-69694744D01*
X84332725Y-69665151D01*
X84289116Y-69540525D01*
X84210711Y-69434289D01*
X84210709Y-69434288D01*
X84210709Y-69434287D01*
X84103127Y-69354889D01*
X84085073Y-69338194D01*
X84011128Y-69252857D01*
X83890053Y-69175047D01*
X83890052Y-69175046D01*
X83890051Y-69175046D01*
X83830790Y-69157646D01*
X83751961Y-69134500D01*
X83608039Y-69134500D01*
X83558571Y-69149025D01*
X83469948Y-69175046D01*
X83348870Y-69252858D01*
X83298207Y-69311326D01*
X83250770Y-69343550D01*
X83215528Y-69355882D01*
X83215524Y-69355884D01*
X83109290Y-69434287D01*
X83030885Y-69540523D01*
X82987274Y-69665153D01*
X82984500Y-69694739D01*
X82984500Y-70300260D01*
X82157545Y-70300260D01*
X82153867Y-70281769D01*
X82109552Y-70215448D01*
X82043231Y-70171133D01*
X81984748Y-70159500D01*
X80595252Y-70159500D01*
X80551389Y-70168224D01*
X80536768Y-70171133D01*
X80470448Y-70215448D01*
X80420031Y-70290901D01*
X80418044Y-70289573D01*
X80382705Y-70330940D01*
X80315695Y-70347017D01*
X80252034Y-70320637D01*
X80225877Y-70287955D01*
X80222791Y-70282115D01*
X80206993Y-70260710D01*
X80142150Y-70172850D01*
X80083413Y-70129500D01*
X80032883Y-70092207D01*
X79904701Y-70047354D01*
X79892525Y-70046212D01*
X79874266Y-70044500D01*
X78465734Y-70044500D01*
X78453560Y-70045641D01*
X78435298Y-70047354D01*
X78307116Y-70092207D01*
X78197850Y-70172850D01*
X78117207Y-70282116D01*
X78072354Y-70410298D01*
X78069500Y-70440736D01*
X78069500Y-71374263D01*
X77665500Y-71374263D01*
X77665500Y-70525734D01*
X77662646Y-70495301D01*
X77617793Y-70367118D01*
X77537150Y-70257850D01*
X77479697Y-70215448D01*
X77427883Y-70177207D01*
X77299701Y-70132354D01*
X77287525Y-70131212D01*
X77269266Y-70129500D01*
X75470734Y-70129500D01*
X75458560Y-70130641D01*
X75440298Y-70132354D01*
X75312116Y-70177207D01*
X75202850Y-70257850D01*
X75122207Y-70367116D01*
X75077354Y-70495298D01*
X75074500Y-70525736D01*
X75074500Y-71874263D01*
X60240499Y-71874263D01*
X60240499Y-66797610D01*
X82709500Y-66797610D01*
X82709582Y-66801634D01*
X82709927Y-66810255D01*
X82710178Y-66814407D01*
X82710178Y-66814409D01*
X82722685Y-66969558D01*
X82722688Y-66969589D01*
X82723681Y-66977780D01*
X82727873Y-67003622D01*
X82729523Y-67011717D01*
X82766717Y-67162843D01*
X82767798Y-67166885D01*
X82770176Y-67175112D01*
X82771413Y-67179089D01*
X82878778Y-67501181D01*
X82884500Y-67536440D01*
X82884500Y-68250260D01*
X82887274Y-68279846D01*
X82887274Y-68279848D01*
X82887275Y-68279849D01*
X82930884Y-68404475D01*
X83009289Y-68510711D01*
X83115525Y-68589116D01*
X83145241Y-68599514D01*
X83178803Y-68618284D01*
X83196451Y-68632651D01*
X83223241Y-68654459D01*
X83225939Y-68656384D01*
X83233846Y-68662027D01*
X83268855Y-68683803D01*
X83268868Y-68683810D01*
X83268867Y-68683810D01*
X83280326Y-68689968D01*
X83280332Y-68689971D01*
X83404128Y-68746698D01*
X83410132Y-68749222D01*
X83422818Y-68754089D01*
X83422840Y-68754096D01*
X83422854Y-68754102D01*
X83428985Y-68756233D01*
X83479613Y-68772054D01*
X83682882Y-68835575D01*
X83682921Y-68835586D01*
X83682923Y-68835587D01*
X83686604Y-68836662D01*
X83690416Y-68837696D01*
X83694446Y-68838790D01*
X83695633Y-68839088D01*
X83698186Y-68839730D01*
X83698212Y-68839736D01*
X83698220Y-68839738D01*
X83841020Y-68872746D01*
X83841033Y-68872748D01*
X83841057Y-68872754D01*
X83848002Y-68874083D01*
X83848661Y-68874210D01*
X83873027Y-68877929D01*
X83880760Y-68878811D01*
X83894222Y-68879832D01*
X84026854Y-68889896D01*
X84027633Y-68889940D01*
X84030766Y-68890118D01*
X84038864Y-68890426D01*
X84042490Y-68890494D01*
X84042764Y-68890500D01*
X84042766Y-68890500D01*
X84184047Y-68890500D01*
X84184063Y-68890500D01*
X84194142Y-68890005D01*
X84225937Y-68886873D01*
X84235917Y-68885392D01*
X84323147Y-68868040D01*
X84361698Y-68856345D01*
X84401891Y-68839696D01*
X84437418Y-68820706D01*
X84497862Y-68780318D01*
X84529001Y-68754762D01*
X84559762Y-68724001D01*
X84585318Y-68692862D01*
X84622095Y-68637820D01*
X84624775Y-68634308D01*
X84625371Y-68633379D01*
X84625377Y-68633373D01*
X84625711Y-68632640D01*
X84627262Y-68629505D01*
X84629005Y-68626244D01*
X84644697Y-68596889D01*
X84661346Y-68556695D01*
X84662139Y-68554078D01*
X84664770Y-68547113D01*
X84685165Y-68502457D01*
X84705647Y-68360000D01*
X84704955Y-68355190D01*
X84685165Y-68217544D01*
X84682918Y-68209892D01*
X84683960Y-68209585D01*
X84678708Y-68191077D01*
X84664205Y-68074805D01*
X84661845Y-68062271D01*
X84651930Y-68023148D01*
X84648035Y-68010999D01*
X84560813Y-67787657D01*
X84558310Y-67781792D01*
X84558304Y-67781779D01*
X84558298Y-67781765D01*
X84552730Y-67769764D01*
X84552719Y-67769743D01*
X84552713Y-67769729D01*
X84549852Y-67764031D01*
X84547939Y-67760500D01*
X84498779Y-67669743D01*
X84407288Y-67500837D01*
X84394798Y-67433070D01*
X84398116Y-67417115D01*
X84474080Y-67151245D01*
X84475002Y-67147793D01*
X84476790Y-67140597D01*
X84477591Y-67137113D01*
X84506309Y-67001534D01*
X84507547Y-66994487D01*
X84509614Y-66979722D01*
X84510358Y-66972616D01*
X84519992Y-66834389D01*
X84520178Y-66830821D01*
X84520438Y-66823371D01*
X84520500Y-66819795D01*
X84520500Y-66385293D01*
X84520500Y-66005734D01*
X84517646Y-65975301D01*
X84472793Y-65847118D01*
X84467927Y-65840525D01*
X84441601Y-65804854D01*
X84392150Y-65737850D01*
X84309701Y-65677000D01*
X84282883Y-65657207D01*
X84154701Y-65612354D01*
X84142525Y-65611212D01*
X84124266Y-65609500D01*
X84124263Y-65609500D01*
X83795111Y-65609500D01*
X83787834Y-65609023D01*
X83767103Y-65606294D01*
X83767100Y-65606293D01*
X83767072Y-65606290D01*
X83760438Y-65605637D01*
X83760356Y-65605630D01*
X83746440Y-65604720D01*
X83746411Y-65604719D01*
X83743889Y-65604636D01*
X83739698Y-65604500D01*
X83490303Y-65604500D01*
X83486530Y-65604623D01*
X83483589Y-65604719D01*
X83483560Y-65604720D01*
X83469610Y-65605633D01*
X83469601Y-65605633D01*
X83462908Y-65606292D01*
X83462905Y-65606292D01*
X83442174Y-65609022D01*
X83434888Y-65609500D01*
X83115734Y-65609500D01*
X83103560Y-65610641D01*
X83085298Y-65612354D01*
X82957116Y-65657207D01*
X82847850Y-65737850D01*
X82767207Y-65847116D01*
X82722354Y-65975298D01*
X82722354Y-65975301D01*
X82720113Y-65999203D01*
X82719500Y-66005736D01*
X82719500Y-66291909D01*
X82719023Y-66299187D01*
X82711294Y-66357897D01*
X82711291Y-66357928D01*
X82710631Y-66364633D01*
X82710631Y-66364637D01*
X82709719Y-66378568D01*
X82709559Y-66383471D01*
X82709501Y-66385293D01*
X82709500Y-66385310D01*
X82709500Y-66797610D01*
X60240499Y-66797610D01*
X60240499Y-64704263D01*
X78039500Y-64704263D01*
X78042354Y-64734701D01*
X78087207Y-64862883D01*
X78106631Y-64889201D01*
X78167850Y-64972150D01*
X78241875Y-65026783D01*
X78277116Y-65052792D01*
X78277117Y-65052792D01*
X78277118Y-65052793D01*
X78405301Y-65097646D01*
X78435734Y-65100500D01*
X78435741Y-65100500D01*
X80234259Y-65100500D01*
X80234266Y-65100500D01*
X80264699Y-65097646D01*
X80392882Y-65052793D01*
X80502150Y-64972150D01*
X80582793Y-64862882D01*
X80627646Y-64734699D01*
X80629562Y-64714263D01*
X82719500Y-64714263D01*
X82722354Y-64744701D01*
X82767207Y-64872883D01*
X82793940Y-64909104D01*
X82847850Y-64982150D01*
X82921875Y-65036783D01*
X82957116Y-65062792D01*
X82957117Y-65062792D01*
X82957118Y-65062793D01*
X83085301Y-65107646D01*
X83115734Y-65110500D01*
X83115741Y-65110500D01*
X84124259Y-65110500D01*
X84124266Y-65110500D01*
X84154699Y-65107646D01*
X84282882Y-65062793D01*
X84392150Y-64982150D01*
X84472793Y-64872882D01*
X84517646Y-64744699D01*
X84520500Y-64714266D01*
X84520500Y-63955734D01*
X84517646Y-63925301D01*
X84472793Y-63797118D01*
X84471882Y-63795884D01*
X84446783Y-63761875D01*
X84392150Y-63687850D01*
X84282882Y-63607207D01*
X84204492Y-63579777D01*
X84169935Y-63567685D01*
X84115108Y-63525939D01*
X84095290Y-63459940D01*
X84118050Y-63394896D01*
X84140549Y-63372731D01*
X84190711Y-63335711D01*
X84269116Y-63229475D01*
X84312725Y-63104849D01*
X84315500Y-63075256D01*
X84315500Y-62659577D01*
X84336795Y-62594039D01*
X84348158Y-62580735D01*
X85260735Y-61668158D01*
X85322135Y-61636873D01*
X85339577Y-61635500D01*
X101748000Y-61635500D01*
X101813538Y-61656795D01*
X101854043Y-61712545D01*
X101859500Y-61747000D01*
X101859500Y-61886053D01*
X101859530Y-61888473D01*
X101859652Y-61893490D01*
X101859747Y-61896069D01*
X101864619Y-61994722D01*
X101864996Y-61999815D01*
X101865967Y-62009634D01*
X101865969Y-62009645D01*
X101866593Y-62014687D01*
X101866606Y-62014783D01*
X101881159Y-62112373D01*
X101881578Y-62114964D01*
X101882424Y-62119816D01*
X101882887Y-62122287D01*
X101882893Y-62122318D01*
X101893200Y-62173851D01*
X101957335Y-62494522D01*
X101959500Y-62516389D01*
X101959500Y-63421964D01*
X101959223Y-63427515D01*
X101915411Y-63865627D01*
X101915097Y-63869217D01*
X101915091Y-63869291D01*
X101914717Y-63874289D01*
X101911305Y-63919843D01*
X101911149Y-63922348D01*
X101910905Y-63927217D01*
X101910805Y-63929873D01*
X101909543Y-63980519D01*
X101909500Y-63984229D01*
X101909500Y-64785126D01*
X101909719Y-64791810D01*
X101909724Y-64791909D01*
X101910579Y-64804967D01*
X101910585Y-64805032D01*
X101911240Y-64811685D01*
X101911242Y-64811704D01*
X101911243Y-64811709D01*
X101912700Y-64822779D01*
X101916121Y-64848764D01*
X101915941Y-64879170D01*
X101914500Y-64889199D01*
X101914500Y-64905126D01*
X101914358Y-64909104D01*
X101910641Y-64961071D01*
X101911952Y-64967098D01*
X101914500Y-64990800D01*
X101914500Y-73898000D01*
X101893205Y-73963538D01*
X101837455Y-74004043D01*
X101803000Y-74009500D01*
X101793249Y-74009500D01*
X101603981Y-74049731D01*
X101603979Y-74049732D01*
X101427221Y-74128429D01*
X101427220Y-74128429D01*
X101270670Y-74242169D01*
X101141198Y-74385963D01*
X101044450Y-74553536D01*
X101030441Y-74596653D01*
X100984656Y-74737563D01*
X100964430Y-74930000D01*
X100984656Y-75122437D01*
X101044450Y-75306463D01*
X101141198Y-75474036D01*
X101270673Y-75617833D01*
X101427215Y-75731567D01*
X101427217Y-75731568D01*
X101427220Y-75731570D01*
X101564978Y-75792902D01*
X101603983Y-75810269D01*
X101793252Y-75850500D01*
X101793254Y-75850500D01*
X101986746Y-75850500D01*
X101986748Y-75850500D01*
X102176017Y-75810269D01*
X102352778Y-75731570D01*
X102352779Y-75731570D01*
X102352780Y-75731569D01*
X102352785Y-75731567D01*
X102509327Y-75617833D01*
X102638802Y-75474036D01*
X102735550Y-75306463D01*
X102795344Y-75122437D01*
X102815570Y-74930000D01*
X102799723Y-74779235D01*
X102814051Y-74711830D01*
X102826345Y-74694565D01*
X102840377Y-74678373D01*
X102842935Y-74672770D01*
X102855098Y-74652269D01*
X102858796Y-74647331D01*
X102877006Y-74598507D01*
X102878530Y-74594828D01*
X102900165Y-74547457D01*
X102901042Y-74541355D01*
X102906939Y-74518251D01*
X102909091Y-74512483D01*
X102912808Y-74460509D01*
X102913230Y-74456582D01*
X102915500Y-74440799D01*
X102915500Y-74424872D01*
X102915642Y-74420894D01*
X102915719Y-74419808D01*
X102919359Y-74368927D01*
X102918048Y-74362901D01*
X102915500Y-74339209D01*
X102915500Y-68483902D01*
X103560040Y-68483902D01*
X103560077Y-68487137D01*
X103560245Y-68493353D01*
X103560382Y-68496581D01*
X103567610Y-68621061D01*
X103567617Y-68621145D01*
X103568182Y-68627460D01*
X103568187Y-68627512D01*
X103569691Y-68639943D01*
X103570657Y-68646269D01*
X103593313Y-68768923D01*
X103593941Y-68772045D01*
X103595271Y-68778181D01*
X103595275Y-68778197D01*
X103596007Y-68781329D01*
X103625453Y-68899114D01*
X103681171Y-69121982D01*
X103684500Y-69149024D01*
X103684500Y-69672616D01*
X103684611Y-69676015D01*
X103684719Y-69679323D01*
X103684720Y-69679345D01*
X103685187Y-69686469D01*
X103685584Y-69692518D01*
X103685584Y-69692526D01*
X103685585Y-69692529D01*
X103686238Y-69699171D01*
X103686245Y-69699227D01*
X103703748Y-69832186D01*
X103706374Y-69845384D01*
X103706375Y-69845387D01*
X103706376Y-69845390D01*
X103716545Y-69883340D01*
X103720869Y-69896078D01*
X103739499Y-69941057D01*
X103758209Y-69986228D01*
X103766209Y-70018481D01*
X103767275Y-70029851D01*
X103776333Y-70055736D01*
X103810884Y-70154475D01*
X103889289Y-70260711D01*
X103995525Y-70339116D01*
X104120151Y-70382725D01*
X104149744Y-70385500D01*
X104209615Y-70385500D01*
X104238478Y-70389301D01*
X104254599Y-70393621D01*
X104254607Y-70393622D01*
X104254616Y-70393625D01*
X104267813Y-70396250D01*
X104394425Y-70412918D01*
X104404948Y-70413607D01*
X104407833Y-70413797D01*
X104407843Y-70413797D01*
X104407851Y-70413798D01*
X104407854Y-70413798D01*
X104447146Y-70413798D01*
X104447149Y-70413798D01*
X104447158Y-70413797D01*
X104447166Y-70413797D01*
X104448998Y-70413676D01*
X104460575Y-70412918D01*
X104587186Y-70396250D01*
X104600383Y-70393625D01*
X104600394Y-70393621D01*
X104600399Y-70393621D01*
X104616521Y-70389301D01*
X104645384Y-70385500D01*
X104730249Y-70385500D01*
X104730256Y-70385500D01*
X104759849Y-70382725D01*
X104884475Y-70339116D01*
X104990711Y-70260711D01*
X105069116Y-70154475D01*
X105112725Y-70029849D01*
X105115500Y-70000256D01*
X105115500Y-69963234D01*
X105123987Y-69920567D01*
X105134129Y-69896082D01*
X105138453Y-69883342D01*
X105148625Y-69845383D01*
X105151250Y-69832187D01*
X105168757Y-69699210D01*
X105169416Y-69692518D01*
X105170280Y-69679338D01*
X105170500Y-69672615D01*
X105170500Y-69166764D01*
X105177428Y-69128073D01*
X105182080Y-69115500D01*
X105280615Y-68849188D01*
X105282093Y-68844905D01*
X105284822Y-68836395D01*
X105286121Y-68832011D01*
X105286128Y-68831982D01*
X105286136Y-68831958D01*
X105319880Y-68707999D01*
X105331513Y-68665267D01*
X105331515Y-68665253D01*
X105331520Y-68665239D01*
X105333506Y-68656414D01*
X105333513Y-68656384D01*
X105338206Y-68630177D01*
X105339412Y-68621153D01*
X105350178Y-68499940D01*
X105355997Y-68472986D01*
X105367646Y-68439699D01*
X105370500Y-68409266D01*
X105370500Y-67650734D01*
X105367646Y-67620301D01*
X105322793Y-67492118D01*
X105320811Y-67489433D01*
X105279214Y-67433070D01*
X105242150Y-67382850D01*
X105175299Y-67333512D01*
X105132883Y-67302207D01*
X105004701Y-67257354D01*
X104992525Y-67256212D01*
X104974266Y-67254500D01*
X104974263Y-67254500D01*
X104663092Y-67254500D01*
X104655814Y-67254023D01*
X104596703Y-67246241D01*
X104594653Y-67246039D01*
X104590010Y-67245582D01*
X104589958Y-67245577D01*
X104576852Y-67244720D01*
X104576823Y-67244719D01*
X104574301Y-67244636D01*
X104570109Y-67244500D01*
X104349889Y-67244500D01*
X104347754Y-67244569D01*
X104343164Y-67244719D01*
X104330059Y-67245577D01*
X104329988Y-67245583D01*
X104323399Y-67246230D01*
X104323327Y-67246238D01*
X104270904Y-67253121D01*
X104264019Y-67254025D01*
X104256758Y-67254500D01*
X103965734Y-67254500D01*
X103953560Y-67255641D01*
X103935298Y-67257354D01*
X103807116Y-67302207D01*
X103697850Y-67382850D01*
X103617207Y-67492116D01*
X103572354Y-67620298D01*
X103569500Y-67650736D01*
X103569500Y-67957068D01*
X103568993Y-67964571D01*
X103563848Y-68002496D01*
X103563162Y-68009185D01*
X103563160Y-68009209D01*
X103562247Y-68022324D01*
X103562002Y-68028971D01*
X103562002Y-68028994D01*
X103560040Y-68483902D01*
X102915500Y-68483902D01*
X102915500Y-66964997D01*
X106109500Y-66964997D01*
X106109620Y-66969937D01*
X106109621Y-66969984D01*
X106110084Y-66979580D01*
X106110088Y-66979638D01*
X106110445Y-66984570D01*
X106110446Y-66984588D01*
X106128514Y-67171560D01*
X106128515Y-67171566D01*
X106129944Y-67181382D01*
X106135485Y-67209772D01*
X106135488Y-67209788D01*
X106137850Y-67219399D01*
X106191401Y-67399486D01*
X106192923Y-67404188D01*
X106196126Y-67413323D01*
X106197876Y-67417952D01*
X106197888Y-67417984D01*
X106592917Y-68391777D01*
X106592935Y-68391819D01*
X106595403Y-68397416D01*
X106600598Y-68408304D01*
X106603403Y-68413757D01*
X106603414Y-68413778D01*
X106680324Y-68552911D01*
X106680335Y-68552929D01*
X106680336Y-68552930D01*
X106686913Y-68563310D01*
X106707909Y-68592440D01*
X106707913Y-68592445D01*
X106707922Y-68592458D01*
X106715674Y-68601957D01*
X106715675Y-68601958D01*
X106715682Y-68601966D01*
X106715684Y-68601968D01*
X106730626Y-68618195D01*
X106790128Y-68682816D01*
X106805249Y-68707999D01*
X106806978Y-68707086D01*
X106810882Y-68714472D01*
X106810883Y-68714474D01*
X106810884Y-68714475D01*
X106817920Y-68724008D01*
X106889287Y-68820709D01*
X106889288Y-68820709D01*
X106889289Y-68820711D01*
X106995525Y-68899116D01*
X107120151Y-68942725D01*
X107149744Y-68945500D01*
X107370054Y-68945500D01*
X107376120Y-68945831D01*
X107384490Y-68946746D01*
X107407761Y-68949292D01*
X107413888Y-68949778D01*
X107425941Y-68950371D01*
X107432084Y-68950489D01*
X107891129Y-68945605D01*
X107895821Y-68945753D01*
X108370692Y-68980928D01*
X108381355Y-68981164D01*
X108381360Y-68981163D01*
X108381368Y-68981164D01*
X108392607Y-68980827D01*
X108412517Y-68980233D01*
X108423146Y-68979363D01*
X108517054Y-68966740D01*
X108558434Y-68956729D01*
X108596881Y-68943079D01*
X108635307Y-68924757D01*
X108702612Y-68883614D01*
X108736444Y-68857763D01*
X108736447Y-68857759D01*
X108736451Y-68857757D01*
X108766116Y-68829773D01*
X108766118Y-68829770D01*
X108766124Y-68829765D01*
X108793901Y-68797500D01*
X108827535Y-68749066D01*
X108831166Y-68744394D01*
X108875377Y-68693373D01*
X108935165Y-68562457D01*
X108955647Y-68420000D01*
X108955370Y-68418075D01*
X108947787Y-68365333D01*
X108935165Y-68277543D01*
X108875377Y-68146627D01*
X108830413Y-68094735D01*
X108781130Y-68037859D01*
X108781129Y-68037858D01*
X108781128Y-68037857D01*
X108766729Y-68028603D01*
X108737479Y-68001258D01*
X108710563Y-67964992D01*
X108702309Y-67955207D01*
X108696926Y-67949577D01*
X108676478Y-67928193D01*
X108676454Y-67928170D01*
X108667048Y-67919487D01*
X108667026Y-67919468D01*
X108558235Y-67830922D01*
X108558233Y-67830921D01*
X108558224Y-67830914D01*
X108553127Y-67827023D01*
X108542920Y-67819724D01*
X108542916Y-67819721D01*
X108542912Y-67819718D01*
X108537628Y-67816183D01*
X108537619Y-67816177D01*
X108537611Y-67816172D01*
X108049015Y-67510798D01*
X108023997Y-67489438D01*
X107697878Y-67114588D01*
X107670928Y-67051168D01*
X107670500Y-67041405D01*
X107670500Y-66334895D01*
X107670500Y-66334882D01*
X107670280Y-66328158D01*
X107669416Y-66314980D01*
X107668757Y-66308288D01*
X107665976Y-66287169D01*
X107665500Y-66279891D01*
X107665500Y-65955741D01*
X107665500Y-65955734D01*
X107662646Y-65925301D01*
X107617793Y-65797118D01*
X107609520Y-65785909D01*
X107571423Y-65734289D01*
X107537150Y-65687850D01*
X107436603Y-65613643D01*
X107427883Y-65607207D01*
X107299701Y-65562354D01*
X107287525Y-65561212D01*
X107269266Y-65559500D01*
X107269263Y-65559500D01*
X106945104Y-65559500D01*
X106937829Y-65559023D01*
X106925682Y-65557424D01*
X106923074Y-65557081D01*
X106923062Y-65557080D01*
X106909664Y-65556201D01*
X106909647Y-65556201D01*
X106870353Y-65556201D01*
X106870335Y-65556201D01*
X106856937Y-65557080D01*
X106856925Y-65557081D01*
X106852492Y-65557664D01*
X106842170Y-65559023D01*
X106834896Y-65559500D01*
X106510734Y-65559500D01*
X106498560Y-65560641D01*
X106480298Y-65562354D01*
X106352116Y-65607207D01*
X106242850Y-65687850D01*
X106162207Y-65797116D01*
X106117354Y-65925298D01*
X106114500Y-65955736D01*
X106114500Y-66279893D01*
X106114023Y-66287177D01*
X106111242Y-66308292D01*
X106110585Y-66314966D01*
X106110579Y-66315031D01*
X106109724Y-66328089D01*
X106109721Y-66328136D01*
X106109721Y-66328158D01*
X106109719Y-66328188D01*
X106109500Y-66334872D01*
X106109500Y-66964997D01*
X102915500Y-66964997D01*
X102915500Y-65676999D01*
X102936795Y-65611462D01*
X102992545Y-65570957D01*
X103027000Y-65565500D01*
X103251967Y-65565500D01*
X103257517Y-65565777D01*
X103344849Y-65574509D01*
X103459095Y-65585933D01*
X103522188Y-65613643D01*
X103556945Y-65673147D01*
X103559500Y-65696880D01*
X103559500Y-65972626D01*
X103559719Y-65979310D01*
X103559723Y-65979404D01*
X103560580Y-65992469D01*
X103560586Y-65992543D01*
X103561241Y-65999198D01*
X103561242Y-65999203D01*
X103561243Y-65999210D01*
X103569023Y-66058308D01*
X103569500Y-66065583D01*
X103569500Y-66359266D01*
X103570004Y-66364637D01*
X103572354Y-66389701D01*
X103617207Y-66517883D01*
X103657528Y-66572515D01*
X103697850Y-66627150D01*
X103771875Y-66681783D01*
X103807116Y-66707792D01*
X103807117Y-66707792D01*
X103807118Y-66707793D01*
X103935301Y-66752646D01*
X103965734Y-66755500D01*
X103965741Y-66755500D01*
X104974259Y-66755500D01*
X104974266Y-66755500D01*
X105004699Y-66752646D01*
X105132882Y-66707793D01*
X105242150Y-66627150D01*
X105322793Y-66517882D01*
X105367646Y-66389699D01*
X105370500Y-66359266D01*
X105370499Y-66174257D01*
X105372643Y-66152503D01*
X105375399Y-66138649D01*
X105385018Y-66065584D01*
X105393757Y-65999210D01*
X105394416Y-65992518D01*
X105394420Y-65992469D01*
X105395275Y-65979409D01*
X105395280Y-65979338D01*
X105395500Y-65972615D01*
X105395500Y-65712684D01*
X105395376Y-65707643D01*
X105394891Y-65697768D01*
X105394522Y-65692754D01*
X105375826Y-65502593D01*
X105374351Y-65492629D01*
X105368616Y-65463749D01*
X105366173Y-65453978D01*
X105312189Y-65275681D01*
X105308802Y-65266197D01*
X105297553Y-65238987D01*
X105293254Y-65229879D01*
X105203327Y-65061281D01*
X105200848Y-65056897D01*
X105195773Y-65048411D01*
X105195765Y-65048398D01*
X105195749Y-65048372D01*
X105193103Y-65044184D01*
X105193088Y-65044162D01*
X105193084Y-65044155D01*
X105064226Y-64850868D01*
X105045500Y-64789019D01*
X105045500Y-64690000D01*
X107874318Y-64690000D01*
X107894955Y-64846757D01*
X107894956Y-64846762D01*
X107955464Y-64992841D01*
X108051717Y-65118281D01*
X108165876Y-65205878D01*
X108204907Y-65262669D01*
X108209499Y-65294337D01*
X108209499Y-65785909D01*
X108203242Y-65822734D01*
X108167354Y-65925296D01*
X108164500Y-65955736D01*
X108164500Y-66279893D01*
X108164023Y-66287177D01*
X108161242Y-66308292D01*
X108160585Y-66314966D01*
X108160579Y-66315031D01*
X108159724Y-66328089D01*
X108159721Y-66328136D01*
X108159721Y-66328158D01*
X108159719Y-66328188D01*
X108159500Y-66334872D01*
X108159500Y-66585126D01*
X108159719Y-66591810D01*
X108159724Y-66591909D01*
X108160579Y-66604967D01*
X108160586Y-66605044D01*
X108161241Y-66611693D01*
X108161243Y-66611709D01*
X108164023Y-66632829D01*
X108164500Y-66640104D01*
X108164500Y-66964266D01*
X108165952Y-66979749D01*
X108167354Y-66994701D01*
X108212207Y-67122883D01*
X108248133Y-67171560D01*
X108292850Y-67232150D01*
X108366875Y-67286782D01*
X108402116Y-67312792D01*
X108402117Y-67312792D01*
X108402118Y-67312793D01*
X108530301Y-67357646D01*
X108560734Y-67360500D01*
X108884894Y-67360500D01*
X108892169Y-67360976D01*
X108913290Y-67363757D01*
X108919982Y-67364416D01*
X108919992Y-67364416D01*
X108920005Y-67364418D01*
X108928344Y-67364964D01*
X108933162Y-67365280D01*
X108939885Y-67365500D01*
X108939896Y-67365500D01*
X109269048Y-67365500D01*
X109269055Y-67365500D01*
X109269078Y-67365499D01*
X109269091Y-67365499D01*
X109269862Y-67365475D01*
X109275249Y-67365313D01*
X109287398Y-67364580D01*
X109293571Y-67364020D01*
X109333402Y-67359190D01*
X109334697Y-67359052D01*
X109349699Y-67357646D01*
X109349704Y-67357643D01*
X109351538Y-67357244D01*
X109356744Y-67356361D01*
X109395416Y-67351673D01*
X109526848Y-67335741D01*
X109539046Y-67333510D01*
X109574220Y-67324854D01*
X109586055Y-67321173D01*
X109805816Y-67237982D01*
X109811554Y-67235610D01*
X109811583Y-67235596D01*
X109811595Y-67235592D01*
X109816764Y-67233268D01*
X109822656Y-67230621D01*
X109828220Y-67227917D01*
X110066260Y-67103229D01*
X110117997Y-67090500D01*
X110511222Y-67090500D01*
X110511246Y-67090500D01*
X110519312Y-67090183D01*
X110542845Y-67088331D01*
X110550859Y-67087382D01*
X110554083Y-67086871D01*
X110571515Y-67085500D01*
X110805249Y-67085500D01*
X110805256Y-67085500D01*
X110834849Y-67082725D01*
X110959475Y-67039116D01*
X111065711Y-66960711D01*
X111144116Y-66854475D01*
X111187725Y-66729849D01*
X111190500Y-66700256D01*
X111190500Y-66466513D01*
X111191873Y-66449070D01*
X111192382Y-66445858D01*
X111193331Y-66437844D01*
X111195183Y-66414311D01*
X111195500Y-66406245D01*
X111195500Y-66263754D01*
X111195183Y-66255688D01*
X111193331Y-66232155D01*
X111192382Y-66224141D01*
X111191871Y-66220916D01*
X111190500Y-66203485D01*
X111190500Y-65994751D01*
X111190500Y-65994744D01*
X111187725Y-65965151D01*
X111144116Y-65840525D01*
X111065711Y-65734289D01*
X110959475Y-65655884D01*
X110834849Y-65612275D01*
X110834848Y-65612274D01*
X110834846Y-65612274D01*
X110805260Y-65609500D01*
X110805256Y-65609500D01*
X110719446Y-65609500D01*
X110693420Y-65606420D01*
X110678440Y-65602824D01*
X110550881Y-65582621D01*
X110550838Y-65582615D01*
X110542863Y-65581671D01*
X110542851Y-65581669D01*
X110542844Y-65581669D01*
X110542834Y-65581668D01*
X110542811Y-65581666D01*
X110519314Y-65579817D01*
X110511246Y-65579500D01*
X110046214Y-65579500D01*
X110043561Y-65579437D01*
X109847475Y-65570099D01*
X109547323Y-65555806D01*
X109547311Y-65555805D01*
X109547299Y-65555805D01*
X109521660Y-65554890D01*
X109518215Y-65554805D01*
X109497850Y-65554564D01*
X109494477Y-65554524D01*
X109494463Y-65554523D01*
X109492429Y-65554500D01*
X109492404Y-65554500D01*
X109322000Y-65554500D01*
X109256462Y-65533205D01*
X109215957Y-65477455D01*
X109210500Y-65443000D01*
X109210500Y-64985800D01*
X109213048Y-64962098D01*
X109213271Y-64961073D01*
X109214359Y-64956073D01*
X109210642Y-64904104D01*
X109210500Y-64900126D01*
X109210500Y-64884199D01*
X109208872Y-64872882D01*
X109208229Y-64868414D01*
X109207808Y-64864489D01*
X109204091Y-64812517D01*
X109201936Y-64806741D01*
X109196041Y-64783637D01*
X109195165Y-64777541D01*
X109175598Y-64734699D01*
X109173514Y-64730135D01*
X109172006Y-64726495D01*
X109153796Y-64677669D01*
X109150098Y-64672729D01*
X109137936Y-64652230D01*
X109135377Y-64646628D01*
X109135377Y-64646627D01*
X109113929Y-64621875D01*
X109101265Y-64607259D01*
X109098766Y-64604158D01*
X109086833Y-64588216D01*
X109088421Y-64587027D01*
X109067371Y-64540187D01*
X109066938Y-64540304D01*
X109066220Y-64537628D01*
X109065374Y-64535744D01*
X109065293Y-64535132D01*
X109065044Y-64533238D01*
X109004536Y-64387159D01*
X108908282Y-64261718D01*
X108782841Y-64165464D01*
X108636762Y-64104956D01*
X108636757Y-64104955D01*
X108480000Y-64084318D01*
X108323242Y-64104955D01*
X108323237Y-64104956D01*
X108177158Y-64165464D01*
X108051718Y-64261718D01*
X107955464Y-64387158D01*
X107894956Y-64533237D01*
X107894955Y-64533242D01*
X107874318Y-64689999D01*
X107874318Y-64690000D01*
X105045500Y-64690000D01*
X105045500Y-64134750D01*
X105045500Y-64134744D01*
X105042725Y-64105151D01*
X104999116Y-63980525D01*
X104920711Y-63874289D01*
X104814475Y-63795884D01*
X104689849Y-63752275D01*
X104689848Y-63752274D01*
X104689846Y-63752274D01*
X104660260Y-63749500D01*
X104660256Y-63749500D01*
X104516222Y-63749500D01*
X104498780Y-63748127D01*
X104400881Y-63732621D01*
X104400838Y-63732615D01*
X104392863Y-63731671D01*
X104392851Y-63731669D01*
X104392844Y-63731669D01*
X104392834Y-63731668D01*
X104392811Y-63731666D01*
X104369314Y-63729817D01*
X104361246Y-63729500D01*
X103987364Y-63729500D01*
X103921826Y-63708205D01*
X103882524Y-63655959D01*
X103850563Y-63567685D01*
X103468917Y-62513619D01*
X103466629Y-62444748D01*
X103466906Y-62443805D01*
X103544678Y-62184563D01*
X103545687Y-62180962D01*
X103547541Y-62173851D01*
X103548420Y-62170208D01*
X103579255Y-62031407D01*
X103579352Y-62030884D01*
X103580608Y-62024058D01*
X103580611Y-62024042D01*
X103583792Y-62002372D01*
X103584608Y-61994930D01*
X103594960Y-61853114D01*
X103595164Y-61849384D01*
X103595432Y-61842057D01*
X103595500Y-61838306D01*
X103595500Y-61112418D01*
X103616795Y-61046880D01*
X103628152Y-61033582D01*
X104144009Y-60517724D01*
X104149474Y-60512932D01*
X104178082Y-60490982D01*
X104274336Y-60365541D01*
X104334844Y-60219462D01*
X104334845Y-60219456D01*
X104335804Y-60212172D01*
X104335804Y-60212168D01*
X104355483Y-60062700D01*
X104350776Y-60026951D01*
X104350300Y-60019674D01*
X104350300Y-57264906D01*
X104371595Y-57199368D01*
X104427345Y-57158863D01*
X104451385Y-57153894D01*
X104464699Y-57152646D01*
X104592882Y-57107793D01*
X104702150Y-57027150D01*
X104782793Y-56917882D01*
X104827646Y-56789699D01*
X104830500Y-56759266D01*
X104830500Y-54960734D01*
X104827646Y-54930301D01*
X104782793Y-54802118D01*
X104702150Y-54692850D01*
X104632168Y-54641201D01*
X104592883Y-54612207D01*
X104464701Y-54567354D01*
X104452525Y-54566212D01*
X104434266Y-54564500D01*
X103085734Y-54564500D01*
X103073560Y-54565641D01*
X103055298Y-54567354D01*
X102927116Y-54612207D01*
X102817850Y-54692850D01*
X102737207Y-54802116D01*
X102692354Y-54930298D01*
X102689500Y-54960736D01*
X102689500Y-56759263D01*
X102692354Y-56789701D01*
X102737207Y-56917883D01*
X102762345Y-56951943D01*
X102817850Y-57027150D01*
X102868137Y-57064263D01*
X102927116Y-57107792D01*
X102927117Y-57107792D01*
X102927118Y-57107793D01*
X103055301Y-57152646D01*
X103055306Y-57152646D01*
X103061583Y-57154017D01*
X103121071Y-57188801D01*
X103148752Y-57251908D01*
X103149300Y-57262951D01*
X103149300Y-59767781D01*
X103128005Y-59833319D01*
X103116642Y-59846623D01*
X103011423Y-59951842D01*
X102950023Y-59983127D01*
X102932581Y-59984500D01*
X102782604Y-59984500D01*
X102775327Y-59984023D01*
X102766507Y-59982862D01*
X102760568Y-59982080D01*
X102747164Y-59981201D01*
X102747147Y-59981201D01*
X102707853Y-59981201D01*
X102707836Y-59981201D01*
X102694438Y-59982080D01*
X102694426Y-59982081D01*
X102689993Y-59982664D01*
X102679671Y-59984023D01*
X102672397Y-59984500D01*
X102260734Y-59984500D01*
X102248560Y-59985641D01*
X102230298Y-59987354D01*
X102102116Y-60032207D01*
X101992850Y-60112850D01*
X101912207Y-60222116D01*
X101867354Y-60350298D01*
X101864500Y-60380736D01*
X101864500Y-60723000D01*
X101843205Y-60788538D01*
X101787455Y-60829043D01*
X101753000Y-60834500D01*
X85190933Y-60834500D01*
X85064067Y-60834500D01*
X85064065Y-60834500D01*
X85064062Y-60834501D01*
X85042063Y-60841649D01*
X85025055Y-60845733D01*
X85002193Y-60849354D01*
X85002191Y-60849355D01*
X84981575Y-60859859D01*
X84965423Y-60866550D01*
X84943413Y-60873703D01*
X84943407Y-60873706D01*
X84924688Y-60887305D01*
X84909782Y-60896440D01*
X84889158Y-60906950D01*
X84889155Y-60906952D01*
X83844265Y-61951842D01*
X83782865Y-61983127D01*
X83765423Y-61984500D01*
X83349739Y-61984500D01*
X83320153Y-61987274D01*
X83276975Y-62002383D01*
X83195525Y-62030884D01*
X83195524Y-62030884D01*
X83195523Y-62030885D01*
X83089289Y-62109289D01*
X83010885Y-62215523D01*
X82967274Y-62340153D01*
X82964500Y-62369739D01*
X82964500Y-63075260D01*
X82967274Y-63104846D01*
X82967274Y-63104848D01*
X82967275Y-63104849D01*
X83010884Y-63229475D01*
X83089289Y-63335711D01*
X83116428Y-63355740D01*
X83127338Y-63363792D01*
X83167424Y-63419843D01*
X83166909Y-63488752D01*
X83125989Y-63544198D01*
X83091496Y-63559517D01*
X83091705Y-63560113D01*
X82957116Y-63607207D01*
X82847850Y-63687850D01*
X82767207Y-63797116D01*
X82722354Y-63925298D01*
X82719500Y-63955736D01*
X82719500Y-64714263D01*
X80629562Y-64714263D01*
X80630500Y-64704266D01*
X80630500Y-63355734D01*
X80627646Y-63325301D01*
X80582793Y-63197118D01*
X80502150Y-63087850D01*
X80447516Y-63047528D01*
X80392883Y-63007207D01*
X80264701Y-62962354D01*
X80252525Y-62961212D01*
X80234266Y-62959500D01*
X78435734Y-62959500D01*
X78423560Y-62960641D01*
X78405298Y-62962354D01*
X78277116Y-63007207D01*
X78167850Y-63087850D01*
X78087207Y-63197116D01*
X78042354Y-63325298D01*
X78039500Y-63355736D01*
X78039500Y-64704263D01*
X60240499Y-64704263D01*
X60240499Y-61490000D01*
X78034320Y-61490000D01*
X78054989Y-61699855D01*
X78116201Y-61901645D01*
X78168674Y-61999815D01*
X78185560Y-62031407D01*
X78215605Y-62087616D01*
X78349379Y-62250621D01*
X78512384Y-62384395D01*
X78698355Y-62483799D01*
X78900145Y-62545011D01*
X79057407Y-62560500D01*
X79057410Y-62560500D01*
X79612590Y-62560500D01*
X79612593Y-62560500D01*
X79769855Y-62545011D01*
X79971645Y-62483799D01*
X80157616Y-62384395D01*
X80320621Y-62250621D01*
X80454395Y-62087616D01*
X80553799Y-61901645D01*
X80615011Y-61699855D01*
X80635680Y-61490000D01*
X80615011Y-61280145D01*
X80553799Y-61078355D01*
X80454395Y-60892384D01*
X80320621Y-60729379D01*
X80157616Y-60595605D01*
X80157613Y-60595603D01*
X80157611Y-60595602D01*
X80086966Y-60557841D01*
X79971645Y-60496201D01*
X79769855Y-60434989D01*
X79612593Y-60419500D01*
X79057407Y-60419500D01*
X78900144Y-60434988D01*
X78900145Y-60434989D01*
X78698355Y-60496201D01*
X78512388Y-60595602D01*
X78512385Y-60595604D01*
X78349379Y-60729379D01*
X78215604Y-60892385D01*
X78215602Y-60892388D01*
X78195757Y-60929516D01*
X78116201Y-61078355D01*
X78054989Y-61280145D01*
X78034320Y-61490000D01*
X60240499Y-61490000D01*
X60240499Y-58930000D01*
X86319320Y-58930000D01*
X86339989Y-59139855D01*
X86401201Y-59341645D01*
X86500605Y-59527616D01*
X86634379Y-59690621D01*
X86797384Y-59824395D01*
X86983355Y-59923799D01*
X87185145Y-59985011D01*
X87342407Y-60000500D01*
X87342410Y-60000500D01*
X87897590Y-60000500D01*
X87897593Y-60000500D01*
X88054855Y-59985011D01*
X88256645Y-59923799D01*
X88442616Y-59824395D01*
X88605621Y-59690621D01*
X88739395Y-59527616D01*
X88838799Y-59341645D01*
X88900011Y-59139855D01*
X88920680Y-58930000D01*
X88900011Y-58720145D01*
X88838799Y-58518355D01*
X88739395Y-58332384D01*
X88605621Y-58169379D01*
X88442616Y-58035605D01*
X88442613Y-58035603D01*
X88442611Y-58035602D01*
X88371966Y-57997841D01*
X88256645Y-57936201D01*
X88054855Y-57874989D01*
X87897593Y-57859500D01*
X87342407Y-57859500D01*
X87185145Y-57874989D01*
X86983355Y-57936201D01*
X86797388Y-58035602D01*
X86797385Y-58035604D01*
X86634379Y-58169379D01*
X86500604Y-58332385D01*
X86500602Y-58332388D01*
X86401200Y-58518354D01*
X86401201Y-58518355D01*
X86339989Y-58720145D01*
X86319320Y-58930000D01*
X60240499Y-58930000D01*
X60240499Y-57064263D01*
X86324500Y-57064263D01*
X86327354Y-57094701D01*
X86372207Y-57222883D01*
X86393629Y-57251908D01*
X86452850Y-57332150D01*
X86526875Y-57386782D01*
X86562116Y-57412792D01*
X86562117Y-57412792D01*
X86562118Y-57412793D01*
X86690301Y-57457646D01*
X86720734Y-57460500D01*
X86720741Y-57460500D01*
X88519259Y-57460500D01*
X88519266Y-57460500D01*
X88549699Y-57457646D01*
X88677882Y-57412793D01*
X88787150Y-57332150D01*
X88867793Y-57222882D01*
X88912646Y-57094699D01*
X88915500Y-57064266D01*
X88915500Y-56137593D01*
X97609500Y-56137593D01*
X97624989Y-56294855D01*
X97686201Y-56496645D01*
X97785605Y-56682616D01*
X97919379Y-56845621D01*
X98028535Y-56935202D01*
X98065687Y-56993240D01*
X98069300Y-57021393D01*
X98069300Y-57249787D01*
X98048005Y-57315325D01*
X98024011Y-57339500D01*
X97917850Y-57417850D01*
X97837207Y-57527116D01*
X97792354Y-57655298D01*
X97789500Y-57685736D01*
X97789500Y-59094263D01*
X97792354Y-59124701D01*
X97837207Y-59252883D01*
X97877528Y-59307516D01*
X97917850Y-59362150D01*
X97991875Y-59416783D01*
X98027116Y-59442792D01*
X98027117Y-59442792D01*
X98027118Y-59442793D01*
X98155301Y-59487646D01*
X98185734Y-59490500D01*
X98185741Y-59490500D01*
X99119259Y-59490500D01*
X99119266Y-59490500D01*
X99149699Y-59487646D01*
X99277882Y-59442793D01*
X99387150Y-59362150D01*
X99467793Y-59252882D01*
X99512646Y-59124699D01*
X99515500Y-59094266D01*
X99515500Y-57685734D01*
X99512646Y-57655301D01*
X99467793Y-57527118D01*
X99387150Y-57417850D01*
X99315588Y-57365035D01*
X99275503Y-57308984D01*
X99270300Y-57275323D01*
X99270300Y-57038134D01*
X99291595Y-56972596D01*
X99311064Y-56951944D01*
X99440621Y-56845621D01*
X99574395Y-56682616D01*
X99673799Y-56496645D01*
X99735011Y-56294855D01*
X99750500Y-56137593D01*
X99750500Y-55582407D01*
X99735011Y-55425145D01*
X99673799Y-55223355D01*
X99574395Y-55037384D01*
X99440621Y-54874379D01*
X99277616Y-54740605D01*
X99277613Y-54740603D01*
X99277611Y-54740602D01*
X99188273Y-54692850D01*
X99091645Y-54641201D01*
X98889855Y-54579989D01*
X98761570Y-54567354D01*
X98680001Y-54559320D01*
X98679999Y-54559320D01*
X98470145Y-54579989D01*
X98268355Y-54641201D01*
X98082388Y-54740602D01*
X98082385Y-54740604D01*
X97919379Y-54874379D01*
X97785604Y-55037385D01*
X97785602Y-55037388D01*
X97686200Y-55223354D01*
X97686201Y-55223355D01*
X97624989Y-55425145D01*
X97609500Y-55582407D01*
X97609500Y-56137593D01*
X88915500Y-56137593D01*
X88915500Y-55715734D01*
X88912646Y-55685301D01*
X88867793Y-55557118D01*
X88787150Y-55447850D01*
X88732516Y-55407528D01*
X88677883Y-55367207D01*
X88549701Y-55322354D01*
X88537525Y-55321212D01*
X88519266Y-55319500D01*
X86720734Y-55319500D01*
X86708560Y-55320641D01*
X86690298Y-55322354D01*
X86562116Y-55367207D01*
X86452850Y-55447850D01*
X86372207Y-55557116D01*
X86327354Y-55685298D01*
X86324500Y-55715736D01*
X86324500Y-57064263D01*
X60240499Y-57064263D01*
X60240499Y-56361286D01*
X60240557Y-56358733D01*
X60248480Y-56187362D01*
X60248793Y-56181021D01*
X60256817Y-56017661D01*
X60256901Y-56016304D01*
X60259996Y-55974346D01*
X60260372Y-55970815D01*
X60284667Y-55796654D01*
X60309563Y-55628820D01*
X60309751Y-55627653D01*
X60314415Y-55600774D01*
X60315055Y-55597644D01*
X60356696Y-55420595D01*
X60400147Y-55247130D01*
X60400467Y-55245915D01*
X60403549Y-55234780D01*
X60404390Y-55232030D01*
X60463782Y-55054830D01*
X60464044Y-55054074D01*
X60526545Y-54879397D01*
X60527985Y-54875787D01*
X60605110Y-54701115D01*
X60605620Y-54699999D01*
X60684696Y-54532805D01*
X60686340Y-54529608D01*
X60779379Y-54362573D01*
X60780223Y-54361115D01*
X60875072Y-54202869D01*
X60876875Y-54200056D01*
X60984996Y-54042218D01*
X60986161Y-54040584D01*
X61096034Y-53892437D01*
X61097816Y-53890168D01*
X61220128Y-53742873D01*
X61221649Y-53741121D01*
X61345455Y-53604522D01*
X61347240Y-53602647D01*
X61482647Y-53467240D01*
X61484522Y-53465455D01*
X61621121Y-53341649D01*
X61622873Y-53340128D01*
X61770168Y-53217816D01*
X61772437Y-53216034D01*
X61920584Y-53106161D01*
X61922218Y-53104996D01*
X62080056Y-52996875D01*
X62082858Y-52995079D01*
X62241115Y-52900223D01*
X62242573Y-52899379D01*
X62409608Y-52806340D01*
X62412805Y-52804696D01*
X62579999Y-52725620D01*
X62581115Y-52725110D01*
X62755787Y-52647985D01*
X62759397Y-52646545D01*
X62934074Y-52584044D01*
X62934830Y-52583782D01*
X63112030Y-52524390D01*
X63114780Y-52523549D01*
X63125915Y-52520467D01*
X63127130Y-52520147D01*
X63300595Y-52476696D01*
X63477644Y-52435055D01*
X63480774Y-52434415D01*
X63507653Y-52429751D01*
X63508821Y-52429563D01*
X63676677Y-52404664D01*
X63850809Y-52380373D01*
X63854352Y-52379995D01*
X63896330Y-52376899D01*
X63897662Y-52376817D01*
X64066778Y-52368508D01*
X64230212Y-52360952D01*
X64232055Y-52360899D01*
X64234087Y-52360874D01*
X64251118Y-52360668D01*
X116406245Y-52369362D01*
G37*
%TD.AperFunction*%
%TD*%
%TA.AperFunction,Conductor*%
%TO.N,Net-(U1E-V-)*%
G36*
X91493220Y-67810424D02*
G01*
X91498598Y-67811132D01*
X91625904Y-67827892D01*
X91650856Y-67834578D01*
X91765457Y-67882046D01*
X91787837Y-67894968D01*
X91886245Y-67970479D01*
X91904520Y-67988754D01*
X91980031Y-68087162D01*
X91992953Y-68109543D01*
X92040419Y-68224136D01*
X92047108Y-68249100D01*
X92063298Y-68372078D01*
X92063298Y-68397922D01*
X92047108Y-68520899D01*
X92040419Y-68545863D01*
X91992953Y-68660456D01*
X91980031Y-68682837D01*
X91904520Y-68781245D01*
X91886245Y-68799520D01*
X91787837Y-68875031D01*
X91765456Y-68887953D01*
X91650863Y-68935419D01*
X91625899Y-68942108D01*
X91493220Y-68959576D01*
X91486752Y-68960000D01*
X90713095Y-68960000D01*
X90711925Y-68959986D01*
X90708109Y-68959895D01*
X90666229Y-68958900D01*
X90663883Y-68958789D01*
X90618286Y-68955536D01*
X90617115Y-68955439D01*
X90590595Y-68952913D01*
X90402499Y-68934999D01*
X90140000Y-68910000D01*
X90092494Y-68910000D01*
X89672790Y-68910000D01*
X89657303Y-68908781D01*
X89533705Y-68889205D01*
X89504247Y-68879634D01*
X89399774Y-68826402D01*
X89374715Y-68808196D01*
X89291803Y-68725284D01*
X89273597Y-68700225D01*
X89220363Y-68595748D01*
X89210795Y-68566296D01*
X89191219Y-68442695D01*
X89190000Y-68427209D01*
X89190000Y-68317790D01*
X89191219Y-68302304D01*
X89193018Y-68290938D01*
X89210795Y-68178701D01*
X89220363Y-68149252D01*
X89273599Y-68044769D01*
X89291800Y-68019718D01*
X89374718Y-67936800D01*
X89399769Y-67918599D01*
X89504252Y-67865363D01*
X89533701Y-67855795D01*
X89645938Y-67838018D01*
X89657304Y-67836219D01*
X89672790Y-67835000D01*
X90116203Y-67835000D01*
X90116204Y-67835000D01*
X90140000Y-67835000D01*
X90402499Y-67822500D01*
X90641231Y-67811132D01*
X90664503Y-67810300D01*
X90665519Y-67810276D01*
X90687955Y-67810010D01*
X90688799Y-67810000D01*
X91486752Y-67810000D01*
X91493220Y-67810424D01*
G37*
%TD.AperFunction*%
%TD*%
%TA.AperFunction,Conductor*%
%TO.N,Net-(U3-V-)*%
G36*
X95276861Y-68163402D02*
G01*
X95291576Y-68167362D01*
X95325656Y-68176535D01*
X95370162Y-68202361D01*
X95401123Y-68233530D01*
X95422475Y-68265719D01*
X95447382Y-68326422D01*
X95453959Y-68351189D01*
X95464583Y-68432581D01*
X95465000Y-68438993D01*
X95465000Y-68935000D01*
X95557991Y-69135288D01*
X95557993Y-69135293D01*
X95695873Y-69432265D01*
X95697870Y-69437261D01*
X95763017Y-69629964D01*
X95767647Y-69650933D01*
X95789708Y-69853143D01*
X95790000Y-69858516D01*
X95790000Y-70456752D01*
X95789576Y-70463220D01*
X95772108Y-70595899D01*
X95765419Y-70620863D01*
X95717953Y-70735456D01*
X95705031Y-70757837D01*
X95629520Y-70856245D01*
X95611245Y-70874520D01*
X95512837Y-70950031D01*
X95490456Y-70962953D01*
X95375863Y-71010419D01*
X95350899Y-71017108D01*
X95227921Y-71033298D01*
X95202077Y-71033298D01*
X95079100Y-71017108D01*
X95054138Y-71010419D01*
X94996839Y-70986686D01*
X94939543Y-70962953D01*
X94917162Y-70950031D01*
X94818754Y-70874520D01*
X94800479Y-70856245D01*
X94724968Y-70757837D01*
X94712046Y-70735456D01*
X94664578Y-70620856D01*
X94657892Y-70595904D01*
X94640424Y-70463220D01*
X94640000Y-70456752D01*
X94640000Y-69926206D01*
X94640000Y-69926201D01*
X94640000Y-69926200D01*
X94640000Y-69635000D01*
X94464364Y-69359001D01*
X94447594Y-69332646D01*
X94445272Y-69328587D01*
X94364796Y-69171048D01*
X94357907Y-69153691D01*
X94310410Y-68990587D01*
X94306905Y-68972250D01*
X94303376Y-68935000D01*
X94299291Y-68891874D01*
X94290221Y-68796126D01*
X94290000Y-68791456D01*
X94290000Y-68714178D01*
X94290000Y-68630278D01*
X94291216Y-68614816D01*
X94310183Y-68495062D01*
X94319754Y-68465610D01*
X94371211Y-68364621D01*
X94389413Y-68339565D01*
X94469565Y-68259413D01*
X94494621Y-68241211D01*
X94595610Y-68189754D01*
X94625064Y-68180183D01*
X94732946Y-68163096D01*
X94744804Y-68161219D01*
X94760290Y-68160000D01*
X95251132Y-68160000D01*
X95276861Y-68163402D01*
G37*
%TD.AperFunction*%
%TD*%
%TA.AperFunction,Conductor*%
%TO.N,/-PWR*%
G36*
X93143220Y-69610424D02*
G01*
X93154679Y-69611932D01*
X93275904Y-69627892D01*
X93300856Y-69634578D01*
X93415457Y-69682046D01*
X93437837Y-69694968D01*
X93536245Y-69770479D01*
X93554520Y-69788754D01*
X93630031Y-69887162D01*
X93642953Y-69909543D01*
X93690419Y-70024136D01*
X93697108Y-70049100D01*
X93714576Y-70181779D01*
X93715000Y-70188247D01*
X93715000Y-70938044D01*
X93714969Y-70939801D01*
X93712545Y-71008068D01*
X93712296Y-71011571D01*
X93705042Y-71079482D01*
X93704824Y-71081224D01*
X93677500Y-71272499D01*
X93677500Y-71272500D01*
X93640000Y-71535000D01*
X93640000Y-71606058D01*
X93640000Y-72089709D01*
X93638781Y-72105196D01*
X93619817Y-72224931D01*
X93610245Y-72254389D01*
X93558788Y-72355378D01*
X93540583Y-72380437D01*
X93460437Y-72460583D01*
X93435378Y-72478788D01*
X93334389Y-72530245D01*
X93304931Y-72539817D01*
X93185197Y-72558781D01*
X93169710Y-72560000D01*
X92715000Y-72560000D01*
X92685467Y-72561749D01*
X92685439Y-72561751D01*
X92174323Y-72592039D01*
X92069537Y-72598248D01*
X92040696Y-72599529D01*
X92039235Y-72599572D01*
X92014320Y-72599941D01*
X92010396Y-72600000D01*
X91572790Y-72600000D01*
X91557303Y-72598781D01*
X91553944Y-72598249D01*
X91433705Y-72579205D01*
X91404247Y-72569634D01*
X91299774Y-72516402D01*
X91274715Y-72498196D01*
X91191803Y-72415284D01*
X91173597Y-72390225D01*
X91168610Y-72380437D01*
X91120363Y-72285748D01*
X91110795Y-72256296D01*
X91091219Y-72132695D01*
X91090000Y-72117209D01*
X91090000Y-71872729D01*
X91090000Y-71535000D01*
X90877502Y-71272503D01*
X90877500Y-71272499D01*
X90877500Y-71272500D01*
X90767560Y-71099878D01*
X90757739Y-71079736D01*
X90732366Y-71008068D01*
X90693200Y-70897440D01*
X90688163Y-70875615D01*
X90665317Y-70675060D01*
X90665000Y-70669455D01*
X90665000Y-70438247D01*
X90665424Y-70431779D01*
X90682892Y-70299093D01*
X90689577Y-70274144D01*
X90737048Y-70159538D01*
X90749968Y-70137162D01*
X90770530Y-70110364D01*
X90825482Y-70038750D01*
X90843750Y-70020482D01*
X90942160Y-69944968D01*
X90964538Y-69932048D01*
X91079144Y-69884577D01*
X91104093Y-69877892D01*
X91226892Y-69861725D01*
X91236780Y-69860424D01*
X91243248Y-69860000D01*
X91828932Y-69860000D01*
X92065000Y-69860000D01*
X92302737Y-69741130D01*
X92351277Y-69716861D01*
X92356550Y-69714596D01*
X92560478Y-69640679D01*
X92582758Y-69635418D01*
X92798217Y-69610331D01*
X92803945Y-69610000D01*
X93136752Y-69610000D01*
X93143220Y-69610424D01*
G37*
%TD.AperFunction*%
%TD*%
%TA.AperFunction,Conductor*%
%TO.N,/-PWR*%
G36*
X109492055Y-65760010D02*
G01*
X109514478Y-65760276D01*
X109515498Y-65760301D01*
X109538769Y-65761132D01*
X109777500Y-65772500D01*
X110040000Y-65785000D01*
X110507210Y-65785000D01*
X110522696Y-65786219D01*
X110536557Y-65788414D01*
X110646296Y-65805795D01*
X110675748Y-65815363D01*
X110780226Y-65868598D01*
X110805284Y-65886803D01*
X110888196Y-65969715D01*
X110906402Y-65994774D01*
X110959634Y-66099247D01*
X110969205Y-66128705D01*
X110988781Y-66252303D01*
X110990000Y-66267790D01*
X110990000Y-66402209D01*
X110988781Y-66417696D01*
X110969205Y-66541294D01*
X110959634Y-66570752D01*
X110906402Y-66675225D01*
X110888196Y-66700284D01*
X110805284Y-66783196D01*
X110780225Y-66801402D01*
X110675752Y-66854634D01*
X110646294Y-66864205D01*
X110522697Y-66883781D01*
X110507210Y-66885000D01*
X110040000Y-66885000D01*
X109822050Y-66999163D01*
X109822043Y-66999166D01*
X109735607Y-67044443D01*
X109730159Y-67046891D01*
X109519098Y-67126788D01*
X109495963Y-67132481D01*
X109271918Y-67159640D01*
X109265956Y-67160000D01*
X108943248Y-67160000D01*
X108936780Y-67159576D01*
X108804100Y-67142108D01*
X108779138Y-67135419D01*
X108721839Y-67111685D01*
X108664543Y-67087953D01*
X108642162Y-67075031D01*
X108543754Y-66999520D01*
X108525479Y-66981245D01*
X108449968Y-66882837D01*
X108437046Y-66860456D01*
X108389578Y-66745856D01*
X108382892Y-66720904D01*
X108365424Y-66588220D01*
X108365000Y-66581752D01*
X108365000Y-66338247D01*
X108365424Y-66331779D01*
X108382892Y-66199093D01*
X108389577Y-66174144D01*
X108437048Y-66059538D01*
X108449968Y-66037162D01*
X108470530Y-66010364D01*
X108525482Y-65938750D01*
X108543750Y-65920482D01*
X108642160Y-65844968D01*
X108664538Y-65832048D01*
X108779144Y-65784577D01*
X108804093Y-65777892D01*
X108931402Y-65761132D01*
X108936780Y-65760424D01*
X108943248Y-65760000D01*
X109491201Y-65760000D01*
X109492055Y-65760010D01*
G37*
%TD.AperFunction*%
%TD*%
%TA.AperFunction,Conductor*%
%TO.N,Net-(U2B-V+)*%
G36*
X104573220Y-67450423D02*
G01*
X104707196Y-67468062D01*
X104732152Y-67474749D01*
X104847961Y-67522718D01*
X104870340Y-67535639D01*
X104969781Y-67611943D01*
X104988056Y-67630218D01*
X105064360Y-67729659D01*
X105077282Y-67752040D01*
X105125249Y-67867843D01*
X105131938Y-67892807D01*
X105149576Y-68026779D01*
X105150000Y-68033247D01*
X105150000Y-68428734D01*
X105149806Y-68433116D01*
X105135121Y-68598436D01*
X105132033Y-68615681D01*
X105088437Y-68775827D01*
X105087098Y-68780003D01*
X104965000Y-69110000D01*
X104965000Y-69289067D01*
X104965000Y-69289069D01*
X104965000Y-69669252D01*
X104964576Y-69675720D01*
X104948386Y-69798693D01*
X104941697Y-69823656D01*
X104897977Y-69929207D01*
X104885055Y-69951590D01*
X104815504Y-70042230D01*
X104797230Y-70060504D01*
X104706590Y-70130055D01*
X104684207Y-70142977D01*
X104578656Y-70186697D01*
X104553693Y-70193386D01*
X104440422Y-70208298D01*
X104414578Y-70208298D01*
X104301306Y-70193386D01*
X104276343Y-70186697D01*
X104170792Y-70142977D01*
X104148413Y-70130057D01*
X104057766Y-70060501D01*
X104039498Y-70042233D01*
X103969940Y-69951583D01*
X103957024Y-69929211D01*
X103913301Y-69823652D01*
X103906614Y-69798698D01*
X103890424Y-69675719D01*
X103890000Y-69669252D01*
X103890000Y-69233102D01*
X103890000Y-69233101D01*
X103890000Y-69110000D01*
X103860144Y-68990577D01*
X103860143Y-68990570D01*
X103795761Y-68733048D01*
X103795107Y-68730034D01*
X103773319Y-68612080D01*
X103772583Y-68605995D01*
X103765628Y-68486227D01*
X103765546Y-68483189D01*
X103767486Y-68033236D01*
X103767934Y-68026798D01*
X103786141Y-67892602D01*
X103792898Y-67867738D01*
X103841365Y-67751791D01*
X103854307Y-67729523D01*
X103931063Y-67630012D01*
X103949318Y-67611836D01*
X104049152Y-67535515D01*
X104071483Y-67522665D01*
X104187634Y-67474699D01*
X104212529Y-67468048D01*
X104248902Y-67463273D01*
X104346796Y-67450422D01*
X104353246Y-67450000D01*
X104566753Y-67450000D01*
X104573220Y-67450423D01*
G37*
%TD.AperFunction*%
%TD*%
%TA.AperFunction,Conductor*%
%TO.N,Net-(U2B-V-)*%
G36*
X107025904Y-65777892D02*
G01*
X107050856Y-65784578D01*
X107165457Y-65832046D01*
X107187837Y-65844968D01*
X107286245Y-65920479D01*
X107304520Y-65938754D01*
X107380031Y-66037162D01*
X107392953Y-66059543D01*
X107440419Y-66174136D01*
X107447108Y-66199100D01*
X107464576Y-66331779D01*
X107465000Y-66338246D01*
X107465000Y-67160000D01*
X107682499Y-67409999D01*
X107682500Y-67410000D01*
X107802073Y-67547441D01*
X107802077Y-67547445D01*
X107900000Y-67660000D01*
X108026518Y-67739073D01*
X108026517Y-67739073D01*
X108425988Y-67988743D01*
X108430989Y-67992319D01*
X108532360Y-68074826D01*
X108549362Y-68092606D01*
X108621702Y-68190073D01*
X108633796Y-68211497D01*
X108679868Y-68323792D01*
X108686306Y-68347536D01*
X108702681Y-68463572D01*
X108701834Y-68496290D01*
X108685976Y-68577900D01*
X108670109Y-68615486D01*
X108625111Y-68680281D01*
X108595431Y-68708279D01*
X108528126Y-68749422D01*
X108489679Y-68763072D01*
X108401055Y-68774984D01*
X108380554Y-68775596D01*
X107942189Y-68743125D01*
X107942183Y-68743124D01*
X107900000Y-68740000D01*
X107857694Y-68740450D01*
X107857689Y-68740450D01*
X107857667Y-68740450D01*
X107857645Y-68740450D01*
X107432970Y-68744968D01*
X107427055Y-68744677D01*
X107278151Y-68728387D01*
X107255140Y-68723034D01*
X107122738Y-68674976D01*
X107101654Y-68664325D01*
X106984402Y-68586261D01*
X106966444Y-68570920D01*
X106871022Y-68467291D01*
X106857214Y-68448134D01*
X106784747Y-68317041D01*
X106782197Y-68311696D01*
X106651188Y-67988743D01*
X106389231Y-67342988D01*
X106387669Y-67338533D01*
X106336232Y-67165553D01*
X106332587Y-67146876D01*
X106315230Y-66967266D01*
X106315000Y-66962502D01*
X106315000Y-66338247D01*
X106315424Y-66331779D01*
X106332892Y-66199093D01*
X106339577Y-66174144D01*
X106387048Y-66059538D01*
X106399968Y-66037162D01*
X106420530Y-66010364D01*
X106475482Y-65938750D01*
X106493750Y-65920482D01*
X106592160Y-65844968D01*
X106614538Y-65832048D01*
X106729144Y-65784577D01*
X106754093Y-65777892D01*
X106877080Y-65761701D01*
X106902920Y-65761701D01*
X107025904Y-65777892D01*
G37*
%TD.AperFunction*%
%TD*%
%TA.AperFunction,Conductor*%
%TO.N,Net-(U3-V+)*%
G36*
X100775904Y-63952892D02*
G01*
X100800856Y-63959578D01*
X100915457Y-64007046D01*
X100937837Y-64019968D01*
X101036245Y-64095479D01*
X101054520Y-64113754D01*
X101130031Y-64212162D01*
X101142953Y-64234543D01*
X101190419Y-64349136D01*
X101197108Y-64374100D01*
X101214576Y-64506779D01*
X101215000Y-64513247D01*
X101215000Y-65216146D01*
X101214915Y-65219037D01*
X101208347Y-65331302D01*
X101207672Y-65337049D01*
X101188056Y-65447795D01*
X101187469Y-65450627D01*
X101117198Y-65745766D01*
X101117195Y-65745780D01*
X101090000Y-65860000D01*
X101090000Y-65977406D01*
X101090000Y-65977407D01*
X101090000Y-65977415D01*
X101090000Y-66452209D01*
X101088781Y-66467696D01*
X101069205Y-66591294D01*
X101059634Y-66620752D01*
X101006402Y-66725225D01*
X100988196Y-66750284D01*
X100905284Y-66833196D01*
X100880225Y-66851402D01*
X100775752Y-66904634D01*
X100746294Y-66914205D01*
X100630486Y-66932547D01*
X100599512Y-66932547D01*
X100483705Y-66914205D01*
X100454247Y-66904634D01*
X100349774Y-66851402D01*
X100324715Y-66833196D01*
X100241803Y-66750284D01*
X100223597Y-66725225D01*
X100170363Y-66620748D01*
X100160795Y-66591296D01*
X100141219Y-66467695D01*
X100140000Y-66452209D01*
X100140000Y-65931087D01*
X100140000Y-65931068D01*
X100140000Y-65931067D01*
X100140000Y-65860000D01*
X100102500Y-65597500D01*
X100075172Y-65406207D01*
X100074962Y-65404528D01*
X100067703Y-65336571D01*
X100067454Y-65333067D01*
X100065031Y-65264799D01*
X100065000Y-65263044D01*
X100065000Y-64513247D01*
X100065424Y-64506779D01*
X100082892Y-64374093D01*
X100089577Y-64349144D01*
X100137048Y-64234538D01*
X100149968Y-64212162D01*
X100170530Y-64185364D01*
X100225482Y-64113750D01*
X100243750Y-64095482D01*
X100342160Y-64019968D01*
X100364538Y-64007048D01*
X100479144Y-63959577D01*
X100504093Y-63952892D01*
X100627080Y-63936701D01*
X100652920Y-63936701D01*
X100775904Y-63952892D01*
G37*
%TD.AperFunction*%
%TD*%
%TA.AperFunction,Conductor*%
%TO.N,/+PWR*%
G36*
X102886049Y-60205873D02*
G01*
X102911005Y-60212559D01*
X103046710Y-60268771D01*
X103069088Y-60281691D01*
X103185617Y-60371107D01*
X103203892Y-60389382D01*
X103293308Y-60505911D01*
X103306230Y-60528292D01*
X103362438Y-60663990D01*
X103369127Y-60688954D01*
X103389576Y-60844279D01*
X103390000Y-60850747D01*
X103390000Y-61836430D01*
X103389869Y-61840016D01*
X103386515Y-61885980D01*
X103379926Y-61976236D01*
X103377833Y-61990497D01*
X103348217Y-62123814D01*
X103347307Y-62127304D01*
X103315000Y-62234997D01*
X103314998Y-62235003D01*
X103240000Y-62485000D01*
X103328858Y-62730416D01*
X103328862Y-62730429D01*
X103582014Y-63429612D01*
X103582016Y-63429616D01*
X103765000Y-63935000D01*
X104357210Y-63935000D01*
X104372696Y-63936219D01*
X104373170Y-63936294D01*
X104496296Y-63955795D01*
X104525748Y-63965363D01*
X104630226Y-64018598D01*
X104655284Y-64036803D01*
X104738196Y-64119715D01*
X104756402Y-64144774D01*
X104809634Y-64249247D01*
X104819205Y-64278705D01*
X104838781Y-64402303D01*
X104840000Y-64417789D01*
X104840000Y-64885000D01*
X105007946Y-65136919D01*
X105007951Y-65136927D01*
X105020701Y-65156051D01*
X105023192Y-65160216D01*
X105109565Y-65322149D01*
X105116966Y-65340052D01*
X105168032Y-65508710D01*
X105171805Y-65527712D01*
X105189762Y-65710359D01*
X105190000Y-65715205D01*
X105190000Y-65969252D01*
X105189576Y-65975720D01*
X105172534Y-66105163D01*
X105165845Y-66130127D01*
X105119626Y-66241710D01*
X105106704Y-66264091D01*
X105033182Y-66359907D01*
X105014907Y-66378182D01*
X104919091Y-66451704D01*
X104896710Y-66464626D01*
X104785127Y-66510845D01*
X104760164Y-66517534D01*
X104630721Y-66534576D01*
X104624253Y-66535000D01*
X104330747Y-66535000D01*
X104324279Y-66534576D01*
X104194836Y-66517534D01*
X104169872Y-66510845D01*
X104159219Y-66506432D01*
X104058287Y-66464625D01*
X104035911Y-66451705D01*
X103940092Y-66378182D01*
X103921817Y-66359907D01*
X103848292Y-66264086D01*
X103835376Y-66241715D01*
X103789152Y-66130123D01*
X103782466Y-66105167D01*
X103765424Y-65975720D01*
X103765000Y-65969252D01*
X103765000Y-65661246D01*
X103765000Y-65410000D01*
X103515001Y-65385000D01*
X103486374Y-65382137D01*
X103265000Y-65360000D01*
X103215187Y-65360000D01*
X102693248Y-65360000D01*
X102686780Y-65359576D01*
X102554100Y-65342108D01*
X102529138Y-65335419D01*
X102471839Y-65311685D01*
X102414543Y-65287953D01*
X102392162Y-65275031D01*
X102293754Y-65199520D01*
X102275479Y-65181245D01*
X102199968Y-65082837D01*
X102187046Y-65060456D01*
X102139578Y-64945856D01*
X102132892Y-64920904D01*
X102115424Y-64788220D01*
X102115000Y-64781752D01*
X102115000Y-63985481D01*
X102115014Y-63984297D01*
X102116211Y-63936241D01*
X102116329Y-63933885D01*
X102119918Y-63885960D01*
X102120021Y-63884788D01*
X102160037Y-63484628D01*
X102165000Y-63435000D01*
X102165000Y-62485000D01*
X102145583Y-62387920D01*
X102145581Y-62387901D01*
X102092762Y-62123814D01*
X102084652Y-62083266D01*
X102084238Y-62080891D01*
X102070223Y-61986908D01*
X102069747Y-61982093D01*
X102065059Y-61887181D01*
X102065000Y-61884766D01*
X102065000Y-60850747D01*
X102065424Y-60844280D01*
X102067334Y-60829766D01*
X102085873Y-60688948D01*
X102092559Y-60663996D01*
X102148772Y-60528285D01*
X102161691Y-60505911D01*
X102251110Y-60389378D01*
X102269378Y-60371110D01*
X102385913Y-60281689D01*
X102408285Y-60268772D01*
X102543996Y-60212559D01*
X102568948Y-60205873D01*
X102714580Y-60186701D01*
X102740420Y-60186701D01*
X102886049Y-60205873D01*
G37*
%TD.AperFunction*%
%TD*%
%TA.AperFunction,Conductor*%
%TO.N,Net-(U1E-V+)*%
G36*
X83743620Y-65810476D02*
G01*
X83874269Y-65827677D01*
X83902376Y-65835207D01*
X84013941Y-65881418D01*
X84039143Y-65895969D01*
X84134942Y-65969479D01*
X84155522Y-65990059D01*
X84229028Y-66085853D01*
X84243582Y-66111061D01*
X84289790Y-66222618D01*
X84297323Y-66250733D01*
X84314523Y-66381381D01*
X84315000Y-66388657D01*
X84315000Y-66818007D01*
X84314865Y-66821884D01*
X84305604Y-66954765D01*
X84304528Y-66962450D01*
X84295745Y-67003915D01*
X84276922Y-67092781D01*
X84275996Y-67096508D01*
X84165000Y-67485000D01*
X84295026Y-67725049D01*
X84295027Y-67725051D01*
X84295031Y-67725058D01*
X84367639Y-67859104D01*
X84370552Y-67865383D01*
X84454294Y-68079813D01*
X84461075Y-68106571D01*
X84489571Y-68335005D01*
X84490000Y-68341901D01*
X84490000Y-68374016D01*
X84487857Y-68395769D01*
X84471489Y-68478053D01*
X84454840Y-68518247D01*
X84414452Y-68578691D01*
X84383691Y-68609452D01*
X84323247Y-68649840D01*
X84283054Y-68666489D01*
X84200771Y-68682857D01*
X84179017Y-68685000D01*
X84044717Y-68685000D01*
X84040506Y-68684840D01*
X83964435Y-68679068D01*
X83900186Y-68674194D01*
X83883511Y-68671649D01*
X83746396Y-68639955D01*
X83742321Y-68638849D01*
X83493378Y-68561055D01*
X83486775Y-68558522D01*
X83371863Y-68505865D01*
X83347920Y-68490972D01*
X83258166Y-68417907D01*
X83238723Y-68397481D01*
X83195315Y-68338438D01*
X83170169Y-68304235D01*
X83156475Y-68279588D01*
X83113505Y-68172121D01*
X83106431Y-68144824D01*
X83090448Y-68019438D01*
X83090000Y-68012381D01*
X83090000Y-67647269D01*
X83090000Y-67485000D01*
X82967021Y-67116063D01*
X82965780Y-67111770D01*
X82961103Y-67092766D01*
X82930058Y-66966624D01*
X82927191Y-66948951D01*
X82915179Y-66799944D01*
X82915000Y-66795483D01*
X82915000Y-66388657D01*
X82915476Y-66381380D01*
X82932677Y-66250728D01*
X82940207Y-66222625D01*
X82986420Y-66111055D01*
X83000967Y-66085859D01*
X83074482Y-65990053D01*
X83095053Y-65969482D01*
X83190859Y-65895967D01*
X83216055Y-65881420D01*
X83327625Y-65835207D01*
X83355728Y-65827677D01*
X83486379Y-65810476D01*
X83493658Y-65810000D01*
X83736342Y-65810000D01*
X83743620Y-65810476D01*
G37*
%TD.AperFunction*%
%TD*%
M02*
