%TF.GenerationSoftware,KiCad,Pcbnew,7.0.5-0*%
%TF.CreationDate,2024-02-16T16:17:37-04:00*%
%TF.ProjectId,PID Tile,50494420-5469-46c6-952e-6b696361645f,rev?*%
%TF.SameCoordinates,Original*%
%TF.FileFunction,Copper,L2,Inr*%
%TF.FilePolarity,Positive*%
%FSLAX46Y46*%
G04 Gerber Fmt 4.6, Leading zero omitted, Abs format (unit mm)*
G04 Created by KiCad (PCBNEW 7.0.5-0) date 2024-02-16 16:17:37*
%MOMM*%
%LPD*%
G01*
G04 APERTURE LIST*
G04 Aperture macros list*
%AMRoundRect*
0 Rectangle with rounded corners*
0 $1 Rounding radius*
0 $2 $3 $4 $5 $6 $7 $8 $9 X,Y pos of 4 corners*
0 Add a 4 corners polygon primitive as box body*
4,1,4,$2,$3,$4,$5,$6,$7,$8,$9,$2,$3,0*
0 Add four circle primitives for the rounded corners*
1,1,$1+$1,$2,$3*
1,1,$1+$1,$4,$5*
1,1,$1+$1,$6,$7*
1,1,$1+$1,$8,$9*
0 Add four rect primitives between the rounded corners*
20,1,$1+$1,$2,$3,$4,$5,0*
20,1,$1+$1,$4,$5,$6,$7,0*
20,1,$1+$1,$6,$7,$8,$9,0*
20,1,$1+$1,$8,$9,$2,$3,0*%
G04 Aperture macros list end*
%TA.AperFunction,ComponentPad*%
%ADD10C,0.800000*%
%TD*%
%TA.AperFunction,ComponentPad*%
%ADD11C,5.400000*%
%TD*%
%TA.AperFunction,ComponentPad*%
%ADD12RoundRect,0.250000X0.620000X0.845000X-0.620000X0.845000X-0.620000X-0.845000X0.620000X-0.845000X0*%
%TD*%
%TA.AperFunction,ComponentPad*%
%ADD13O,1.740000X2.190000*%
%TD*%
%TA.AperFunction,ComponentPad*%
%ADD14RoundRect,0.250000X-0.845000X0.620000X-0.845000X-0.620000X0.845000X-0.620000X0.845000X0.620000X0*%
%TD*%
%TA.AperFunction,ComponentPad*%
%ADD15O,2.190000X1.740000*%
%TD*%
%TA.AperFunction,ComponentPad*%
%ADD16RoundRect,0.250000X0.845000X-0.620000X0.845000X0.620000X-0.845000X0.620000X-0.845000X-0.620000X0*%
%TD*%
%TA.AperFunction,ComponentPad*%
%ADD17R,1.350000X1.350000*%
%TD*%
%TA.AperFunction,ComponentPad*%
%ADD18O,1.350000X1.350000*%
%TD*%
%TA.AperFunction,ComponentPad*%
%ADD19C,1.440000*%
%TD*%
%TA.AperFunction,ViaPad*%
%ADD20C,0.600000*%
%TD*%
G04 APERTURE END LIST*
D10*
%TO.N,GND*%
%TO.C,MH1*%
X62215000Y-56360000D03*
X62808109Y-54928109D03*
X62808109Y-57791891D03*
X64240000Y-54335000D03*
D11*
X64240000Y-56360000D03*
D10*
X64240000Y-58385000D03*
X65671891Y-54928109D03*
X65671891Y-57791891D03*
X66265000Y-56360000D03*
%TD*%
D12*
%TO.N,GND*%
%TO.C,J1*%
X111389800Y-77633400D03*
D13*
%TO.N,Net-(J1-Pin_2)*%
X108849800Y-77633400D03*
%TO.N,Net-(J1-Pin_3)*%
X106309800Y-77633400D03*
%TD*%
D10*
%TO.N,GND*%
%TO.C,MH4*%
X114215000Y-78360000D03*
X114808109Y-76928109D03*
X114808109Y-79791891D03*
X116240000Y-76335000D03*
D11*
X116240000Y-78360000D03*
D10*
X116240000Y-80385000D03*
X117671891Y-76928109D03*
X117671891Y-79791891D03*
X118265000Y-78360000D03*
%TD*%
%TO.N,GND*%
%TO.C,MH3*%
X62215000Y-78360000D03*
X62808109Y-76928109D03*
X62808109Y-79791891D03*
X64240000Y-76335000D03*
D11*
X64240000Y-78360000D03*
D10*
X64240000Y-80385000D03*
X65671891Y-76928109D03*
X65671891Y-79791891D03*
X66265000Y-78360000D03*
%TD*%
D14*
%TO.N,Net-(J14-Pin_1)*%
%TO.C,J14*%
X87620000Y-56390000D03*
D15*
%TO.N,Net-(J14-Pin_2)*%
X87620000Y-58930000D03*
%TD*%
D12*
%TO.N,/+PWR*%
%TO.C,J17*%
X103760000Y-55860000D03*
D13*
%TO.N,GND*%
X101220000Y-55860000D03*
%TO.N,/-PWR*%
X98680000Y-55860000D03*
%TD*%
D14*
%TO.N,Net-(J12-Pin_1)*%
%TO.C,J12*%
X76370000Y-71200000D03*
D15*
%TO.N,Net-(J12-Pin_2)*%
X76370000Y-73740000D03*
%TD*%
D10*
%TO.N,GND*%
%TO.C,MH2*%
X114215000Y-56360000D03*
X114808109Y-54928109D03*
X114808109Y-57791891D03*
X116240000Y-54335000D03*
D11*
X116240000Y-56360000D03*
D10*
X116240000Y-58385000D03*
X117671891Y-54928109D03*
X117671891Y-57791891D03*
X118265000Y-56360000D03*
%TD*%
D16*
%TO.N,Net-(J15-Pin_1)*%
%TO.C,J15*%
X83635000Y-79030000D03*
D15*
%TO.N,Net-(J15-Pin_2)*%
X83635000Y-76490000D03*
%TD*%
D16*
%TO.N,Net-(J11-Pin_1)*%
%TO.C,J11*%
X79335000Y-64030000D03*
D15*
%TO.N,Net-(J11-Pin_2)*%
X79335000Y-61490000D03*
%TD*%
D17*
%TO.N,Net-(J15-Pin_1)*%
%TO.C,J16*%
X91190000Y-76085000D03*
D18*
%TO.N,Net-(J15-Pin_2)*%
X89190000Y-76085000D03*
%TD*%
D17*
%TO.N,Net-(J12-Pin_1)*%
%TO.C,J13*%
X81290000Y-71035000D03*
D18*
%TO.N,Net-(J12-Pin_2)*%
X81290000Y-73035000D03*
%TD*%
D19*
%TO.N,/+PWR*%
%TO.C,RV1*%
X101890000Y-74930000D03*
%TO.N,Net-(J1-Pin_3)*%
X101890000Y-77470000D03*
%TO.N,GND*%
X101890000Y-80010000D03*
%TD*%
D20*
%TO.N,GND*%
X119490000Y-74885368D03*
X91490000Y-63560000D03*
X78937425Y-53110000D03*
X111590000Y-65435000D03*
X65990000Y-68860000D03*
X72940000Y-77935000D03*
X72840000Y-60285000D03*
X68105384Y-80610000D03*
X117990000Y-65860000D03*
X69065000Y-62085000D03*
X108140000Y-75010000D03*
X65687425Y-53110000D03*
X82455635Y-54110000D03*
X71590000Y-59085000D03*
X62240000Y-65860000D03*
X97015000Y-68735000D03*
X66706655Y-53110000D03*
X60740000Y-64110000D03*
X118490000Y-60324285D03*
X119740000Y-70360000D03*
X109465000Y-74310000D03*
X98740000Y-71035000D03*
X81890000Y-68035000D03*
X98690000Y-64660000D03*
X64490000Y-65860000D03*
X98673385Y-67940939D03*
X83468319Y-54110000D03*
X87165000Y-64035000D03*
X119490000Y-73872684D03*
X72265000Y-75210000D03*
X68745117Y-53110000D03*
X60990000Y-77923421D03*
X73841271Y-53110000D03*
X60990000Y-55159225D03*
X108990000Y-71110000D03*
X60990000Y-59293075D03*
X118490000Y-80610000D03*
X63740000Y-65860000D03*
X119490000Y-75898053D03*
X87415000Y-68185000D03*
X68278053Y-54110000D03*
X75879732Y-53110000D03*
X118490000Y-73967142D03*
X91765000Y-62560000D03*
X64490000Y-68860000D03*
X76898963Y-53110000D03*
X63740000Y-68860000D03*
X60990000Y-56192687D03*
X80430266Y-54110000D03*
X118990000Y-70360000D03*
X96940000Y-63760000D03*
X84033578Y-53110000D03*
X108040000Y-63685000D03*
X81465000Y-65085000D03*
X66252684Y-54110000D03*
X61990000Y-60324285D03*
X100865000Y-59185000D03*
X62240000Y-68860000D03*
X62990000Y-64110000D03*
X119490000Y-60326537D03*
X85890000Y-72660000D03*
X79956655Y-53110000D03*
X68657551Y-81610000D03*
X70815000Y-65285000D03*
X118240000Y-64110000D03*
X60740000Y-64860000D03*
X79417581Y-54110000D03*
X119490000Y-57226150D03*
X62240000Y-70360000D03*
X98715000Y-60485000D03*
X60990000Y-58259612D03*
X67086153Y-80610000D03*
X119490000Y-78936106D03*
X72715000Y-68510000D03*
X91515000Y-65385000D03*
X81442950Y-54110000D03*
X72715000Y-70585000D03*
X92915000Y-64935000D03*
X90190000Y-58360000D03*
X74140000Y-71910000D03*
X93340000Y-67485000D03*
X61990000Y-75074285D03*
X118490000Y-76181428D03*
X75366844Y-54110000D03*
X60990000Y-75898053D03*
X71316106Y-54110000D03*
X118740000Y-68860000D03*
X106640000Y-71510000D03*
X119490000Y-59293075D03*
X90465000Y-73785000D03*
X85315000Y-78235000D03*
X118490000Y-54110000D03*
X116740000Y-70360000D03*
X119490000Y-58259612D03*
X74860502Y-53110000D03*
X67265369Y-54110000D03*
X62240000Y-64110000D03*
X60990000Y-57226150D03*
X80975886Y-53110000D03*
X60740000Y-65860000D03*
X86157312Y-53110000D03*
X61490000Y-64110000D03*
X96240000Y-71185000D03*
X74240000Y-64785000D03*
X101590000Y-72110000D03*
X103240000Y-66110000D03*
X81040000Y-79260000D03*
X82565000Y-60760000D03*
X118990000Y-64110000D03*
X60990000Y-74885368D03*
X83014348Y-53110000D03*
X81015000Y-56060000D03*
X97040000Y-62035000D03*
X64490000Y-64110000D03*
X62990000Y-70360000D03*
X87165000Y-72660000D03*
X119490000Y-55159225D03*
X104690000Y-60335000D03*
X85815000Y-69435000D03*
X62990000Y-65860000D03*
X85890000Y-64035000D03*
X60990000Y-78936106D03*
X61490000Y-68860000D03*
X119490000Y-68860000D03*
X72328791Y-54110000D03*
X117240000Y-68860000D03*
X80890000Y-74335000D03*
X91490000Y-57785000D03*
X118240000Y-70360000D03*
X87115000Y-77260000D03*
X77918194Y-53110000D03*
X64606814Y-81610000D03*
X67725886Y-53110000D03*
X61990000Y-76181428D03*
X109395010Y-68834966D03*
X61490000Y-70360000D03*
X103290000Y-73635000D03*
X73341475Y-54110000D03*
X89040000Y-60510000D03*
X67644867Y-81610000D03*
X117490000Y-70360000D03*
X66615000Y-68360000D03*
X70790000Y-69385000D03*
X71265000Y-76335000D03*
X64322687Y-53110000D03*
X73815000Y-76760000D03*
X117990000Y-68860000D03*
X65240000Y-65860000D03*
X80815000Y-66535000D03*
X82540000Y-71685000D03*
X67844999Y-79314999D03*
X79365000Y-77660000D03*
X76379528Y-54110000D03*
X102840000Y-58685000D03*
X97040000Y-65385000D03*
X97015000Y-70410000D03*
X91863204Y-77311012D03*
X92140000Y-73785000D03*
X82165000Y-62285000D03*
X78404897Y-54110000D03*
X74890000Y-58360000D03*
X116885870Y-81610000D03*
X116740000Y-64110000D03*
X96601574Y-66686753D03*
X69090000Y-73985000D03*
X97040000Y-60485000D03*
X61990000Y-54110000D03*
X90454380Y-77290088D03*
X65240000Y-70360000D03*
X119490000Y-77923421D03*
X118490000Y-59288571D03*
X119490000Y-76910737D03*
X62990000Y-68860000D03*
X109465000Y-63085000D03*
X60740000Y-70360000D03*
X119740000Y-69610000D03*
X60740000Y-68860000D03*
X68715000Y-66710000D03*
X74354160Y-54110000D03*
X81995117Y-53110000D03*
X101740000Y-57635000D03*
X71802809Y-53110000D03*
X93665000Y-68660000D03*
X65619498Y-81610000D03*
X69290738Y-54110000D03*
X118740000Y-65860000D03*
X65990000Y-65860000D03*
X61990000Y-80610000D03*
X92565000Y-66860000D03*
X98690000Y-69385000D03*
X119740000Y-64110000D03*
X116490000Y-65860000D03*
X105265000Y-71935000D03*
X98715000Y-66610000D03*
X119490000Y-56192687D03*
X117490000Y-64110000D03*
X116490000Y-68860000D03*
X96765000Y-72935000D03*
X106040000Y-64510000D03*
X98715000Y-62010000D03*
X117240000Y-65860000D03*
X87340000Y-65360000D03*
X84740000Y-60560000D03*
X80090000Y-72460000D03*
X65240000Y-64110000D03*
X118490000Y-75074285D03*
X113890000Y-71760000D03*
X97110000Y-58310000D03*
X111640000Y-71635000D03*
X63740000Y-70360000D03*
X64490000Y-70360000D03*
X101340000Y-69610000D03*
X73740000Y-56985000D03*
X66615000Y-66360000D03*
X61490000Y-65860000D03*
X90140999Y-62438010D03*
X63740000Y-64110000D03*
X65240000Y-68860000D03*
X91790000Y-60510000D03*
X89623887Y-78142225D03*
X70390000Y-73435000D03*
X70303422Y-54110000D03*
X87365000Y-70985000D03*
X60990000Y-76910737D03*
X73590000Y-63335000D03*
X68715000Y-68010000D03*
X101604397Y-66602232D03*
X119740000Y-65110000D03*
X72822040Y-53110000D03*
X85042575Y-53110000D03*
X63594129Y-81610000D03*
X85440000Y-61960000D03*
X61990000Y-59288571D03*
X85790000Y-66810000D03*
X63289225Y-53110000D03*
X70590000Y-62310000D03*
X88015000Y-62010000D03*
X74715000Y-70410000D03*
X76265000Y-63260000D03*
X90533899Y-71889481D03*
X90279765Y-79343695D03*
X66632182Y-81610000D03*
X119490000Y-65860000D03*
X60740000Y-69610000D03*
X82840000Y-57685000D03*
X70783578Y-53110000D03*
X117190774Y-53110000D03*
X69764348Y-53110000D03*
X77392213Y-54110000D03*
X60990000Y-60326537D03*
%TD*%
%TA.AperFunction,Conductor*%
%TO.N,GND*%
G36*
X116406245Y-52369362D02*
G01*
X116430072Y-52369657D01*
X116431262Y-52369687D01*
X116455101Y-52370567D01*
X116582334Y-52376817D01*
X116583674Y-52376899D01*
X116625640Y-52379995D01*
X116629197Y-52380374D01*
X116803411Y-52404676D01*
X116971166Y-52429562D01*
X116972347Y-52429751D01*
X116999219Y-52434414D01*
X117002369Y-52435058D01*
X117179357Y-52476685D01*
X117352886Y-52520152D01*
X117354105Y-52520474D01*
X117359069Y-52521847D01*
X117365179Y-52523538D01*
X117367999Y-52524400D01*
X117545109Y-52583762D01*
X117545986Y-52584065D01*
X117720583Y-52646538D01*
X117724231Y-52647993D01*
X117898819Y-52725082D01*
X117900058Y-52725648D01*
X118067169Y-52804685D01*
X118070416Y-52806354D01*
X118237371Y-52899349D01*
X118238883Y-52900223D01*
X118397129Y-52995072D01*
X118399975Y-52996897D01*
X118557742Y-53104970D01*
X118559446Y-53106185D01*
X118601370Y-53137277D01*
X118707525Y-53216008D01*
X118709867Y-53217846D01*
X118853470Y-53337092D01*
X118857081Y-53340091D01*
X118858904Y-53341673D01*
X118995432Y-53465414D01*
X118997393Y-53467281D01*
X119132716Y-53602604D01*
X119134584Y-53604566D01*
X119258325Y-53741094D01*
X119259907Y-53742917D01*
X119382146Y-53890123D01*
X119383999Y-53892483D01*
X119433458Y-53959172D01*
X119493813Y-54040552D01*
X119495028Y-54042256D01*
X119603101Y-54200023D01*
X119604926Y-54202869D01*
X119699775Y-54361115D01*
X119700661Y-54362647D01*
X119793628Y-54529552D01*
X119795322Y-54532846D01*
X119874340Y-54699918D01*
X119874942Y-54701235D01*
X119951993Y-54875740D01*
X119953476Y-54879455D01*
X120015895Y-55053905D01*
X120016264Y-55054970D01*
X120072701Y-55223355D01*
X120075599Y-55231999D01*
X120076470Y-55234850D01*
X120079510Y-55245836D01*
X120079858Y-55247156D01*
X120123330Y-55420709D01*
X120164934Y-55597599D01*
X120165594Y-55600833D01*
X120170231Y-55627557D01*
X120170449Y-55628908D01*
X120195337Y-55796688D01*
X120219622Y-55970785D01*
X120220006Y-55974386D01*
X120223098Y-56016312D01*
X120223182Y-56017678D01*
X120228796Y-56131971D01*
X120229673Y-56155734D01*
X120229706Y-56157104D01*
X120230000Y-56181021D01*
X120230000Y-78538977D01*
X120229706Y-78562894D01*
X120229673Y-78564264D01*
X120228796Y-78588026D01*
X120223183Y-78702318D01*
X120223099Y-78703685D01*
X120220006Y-78745614D01*
X120219622Y-78749215D01*
X120195337Y-78923310D01*
X120170450Y-79091085D01*
X120170232Y-79092437D01*
X120165593Y-79119169D01*
X120164933Y-79122401D01*
X120123330Y-79299289D01*
X120079863Y-79472822D01*
X120079514Y-79474147D01*
X120076465Y-79485163D01*
X120075595Y-79488010D01*
X120016264Y-79665028D01*
X120015895Y-79666093D01*
X119953476Y-79840543D01*
X119951984Y-79844282D01*
X119874942Y-80018763D01*
X119874340Y-80020080D01*
X119795322Y-80187152D01*
X119793628Y-80190446D01*
X119700661Y-80357351D01*
X119699775Y-80358883D01*
X119604926Y-80517129D01*
X119603101Y-80519975D01*
X119495028Y-80677742D01*
X119493813Y-80679446D01*
X119384015Y-80827494D01*
X119382126Y-80829900D01*
X119259907Y-80977081D01*
X119258325Y-80978904D01*
X119134584Y-81115432D01*
X119132697Y-81117414D01*
X118997414Y-81252697D01*
X118995432Y-81254584D01*
X118858904Y-81378325D01*
X118857081Y-81379907D01*
X118709900Y-81502126D01*
X118707494Y-81504015D01*
X118559446Y-81613813D01*
X118557742Y-81615028D01*
X118399975Y-81723101D01*
X118397129Y-81724926D01*
X118238883Y-81819775D01*
X118237351Y-81820661D01*
X118070446Y-81913628D01*
X118067152Y-81915322D01*
X117900080Y-81994340D01*
X117898763Y-81994942D01*
X117724282Y-82071984D01*
X117720543Y-82073476D01*
X117546093Y-82135895D01*
X117545028Y-82136264D01*
X117368010Y-82195595D01*
X117365163Y-82196465D01*
X117354147Y-82199514D01*
X117352822Y-82199863D01*
X117179289Y-82243330D01*
X117002401Y-82284933D01*
X116999169Y-82285593D01*
X116972437Y-82290232D01*
X116971085Y-82290450D01*
X116803310Y-82315337D01*
X116629215Y-82339622D01*
X116625614Y-82340006D01*
X116583685Y-82343099D01*
X116582318Y-82343183D01*
X116412658Y-82351517D01*
X116241287Y-82359440D01*
X116238712Y-82359500D01*
X64241288Y-82359500D01*
X64238713Y-82359440D01*
X64067340Y-82351517D01*
X63897678Y-82343182D01*
X63896312Y-82343098D01*
X63854386Y-82340006D01*
X63850785Y-82339622D01*
X63676688Y-82315337D01*
X63508908Y-82290449D01*
X63507557Y-82290231D01*
X63480833Y-82285594D01*
X63477599Y-82284934D01*
X63300709Y-82243330D01*
X63127156Y-82199858D01*
X63125836Y-82199510D01*
X63122302Y-82198532D01*
X63114843Y-82196467D01*
X63112011Y-82195602D01*
X62997338Y-82157168D01*
X62934970Y-82136264D01*
X62933905Y-82135895D01*
X62905747Y-82125820D01*
X62759445Y-82073472D01*
X62755740Y-82071993D01*
X62612717Y-82008843D01*
X62581235Y-81994942D01*
X62579918Y-81994340D01*
X62412846Y-81915322D01*
X62409561Y-81913632D01*
X62310865Y-81858659D01*
X62242647Y-81820661D01*
X62241115Y-81819775D01*
X62082869Y-81724926D01*
X62080023Y-81723101D01*
X61922256Y-81615028D01*
X61920552Y-81613813D01*
X61839172Y-81553458D01*
X61772483Y-81503999D01*
X61770123Y-81502146D01*
X61622917Y-81379907D01*
X61621094Y-81378325D01*
X61484566Y-81254584D01*
X61482604Y-81252716D01*
X61347281Y-81117393D01*
X61345414Y-81115432D01*
X61221673Y-80978904D01*
X61220091Y-80977081D01*
X61217092Y-80973470D01*
X61097846Y-80829867D01*
X61096008Y-80827525D01*
X61017277Y-80721370D01*
X60986185Y-80679446D01*
X60984970Y-80677742D01*
X60876897Y-80519975D01*
X60875072Y-80517129D01*
X60780223Y-80358883D01*
X60779337Y-80357351D01*
X60686354Y-80190416D01*
X60684685Y-80187169D01*
X60605648Y-80020058D01*
X60605082Y-80018819D01*
X60527993Y-79844231D01*
X60526538Y-79840583D01*
X60477761Y-79704263D01*
X82339500Y-79704263D01*
X82342354Y-79734701D01*
X82387207Y-79862883D01*
X82427528Y-79917515D01*
X82467850Y-79972150D01*
X82532793Y-80020080D01*
X82577116Y-80052792D01*
X82577117Y-80052792D01*
X82577118Y-80052793D01*
X82705301Y-80097646D01*
X82735734Y-80100500D01*
X82735741Y-80100500D01*
X84534259Y-80100500D01*
X84534266Y-80100500D01*
X84564699Y-80097646D01*
X84692882Y-80052793D01*
X84802150Y-79972150D01*
X84882793Y-79862882D01*
X84927646Y-79734699D01*
X84930500Y-79704266D01*
X84930500Y-78355734D01*
X84927646Y-78325301D01*
X84882793Y-78197118D01*
X84802150Y-78087850D01*
X84747515Y-78047528D01*
X84692883Y-78007207D01*
X84564701Y-77962354D01*
X84552525Y-77961212D01*
X84534266Y-77959500D01*
X82735734Y-77959500D01*
X82723560Y-77960641D01*
X82705298Y-77962354D01*
X82577116Y-78007207D01*
X82467850Y-78087850D01*
X82387207Y-78197116D01*
X82342354Y-78325298D01*
X82339500Y-78355736D01*
X82339500Y-79704263D01*
X60477761Y-79704263D01*
X60464065Y-79665986D01*
X60463762Y-79665109D01*
X60404400Y-79487999D01*
X60403538Y-79485179D01*
X60401847Y-79479069D01*
X60400474Y-79474105D01*
X60400152Y-79472886D01*
X60356685Y-79299357D01*
X60315058Y-79122369D01*
X60314414Y-79119219D01*
X60309751Y-79092347D01*
X60309562Y-79091167D01*
X60284658Y-78923283D01*
X60260373Y-78749190D01*
X60259995Y-78745647D01*
X60256900Y-78703684D01*
X60256817Y-78702329D01*
X60256675Y-78699442D01*
X60248497Y-78532985D01*
X60240556Y-78361221D01*
X60240499Y-78358756D01*
X60240499Y-76490000D01*
X82334320Y-76490000D01*
X82354989Y-76699855D01*
X82416201Y-76901645D01*
X82515605Y-77087616D01*
X82649379Y-77250621D01*
X82812384Y-77384395D01*
X82998355Y-77483799D01*
X83200145Y-77545011D01*
X83357407Y-77560500D01*
X83357410Y-77560500D01*
X83912590Y-77560500D01*
X83912593Y-77560500D01*
X84069855Y-77545011D01*
X84271645Y-77483799D01*
X84297461Y-77470000D01*
X100964430Y-77470000D01*
X100984656Y-77662437D01*
X101044450Y-77846463D01*
X101141198Y-78014036D01*
X101270673Y-78157833D01*
X101427215Y-78271567D01*
X101427217Y-78271568D01*
X101427220Y-78271570D01*
X101547897Y-78325298D01*
X101603983Y-78350269D01*
X101793252Y-78390500D01*
X101793254Y-78390500D01*
X101986746Y-78390500D01*
X101986748Y-78390500D01*
X102176017Y-78350269D01*
X102352778Y-78271570D01*
X102352779Y-78271570D01*
X102352780Y-78271569D01*
X102352785Y-78271567D01*
X102509327Y-78157833D01*
X102638802Y-78014036D01*
X102698294Y-77910993D01*
X105239300Y-77910993D01*
X105254789Y-78068255D01*
X105316001Y-78270045D01*
X105415405Y-78456016D01*
X105549179Y-78619021D01*
X105712184Y-78752795D01*
X105898155Y-78852199D01*
X106099945Y-78913411D01*
X106290983Y-78932226D01*
X106309799Y-78934080D01*
X106309800Y-78934080D01*
X106309801Y-78934080D01*
X106327068Y-78932379D01*
X106519655Y-78913411D01*
X106721445Y-78852199D01*
X106907416Y-78752795D01*
X107070421Y-78619021D01*
X107204195Y-78456016D01*
X107303599Y-78270045D01*
X107364811Y-78068255D01*
X107380300Y-77910993D01*
X107779300Y-77910993D01*
X107794789Y-78068255D01*
X107856001Y-78270045D01*
X107955405Y-78456016D01*
X108089179Y-78619021D01*
X108252184Y-78752795D01*
X108438155Y-78852199D01*
X108639945Y-78913411D01*
X108830983Y-78932226D01*
X108849799Y-78934080D01*
X108849800Y-78934080D01*
X108849801Y-78934080D01*
X108867068Y-78932379D01*
X109059655Y-78913411D01*
X109261445Y-78852199D01*
X109447416Y-78752795D01*
X109610421Y-78619021D01*
X109744195Y-78456016D01*
X109843599Y-78270045D01*
X109904811Y-78068255D01*
X109920300Y-77910993D01*
X109920300Y-77355807D01*
X109904811Y-77198545D01*
X109843599Y-76996755D01*
X109744195Y-76810784D01*
X109610421Y-76647779D01*
X109447416Y-76514005D01*
X109447413Y-76514003D01*
X109447411Y-76514002D01*
X109376766Y-76476241D01*
X109261445Y-76414601D01*
X109059655Y-76353389D01*
X108954727Y-76343054D01*
X108849801Y-76332720D01*
X108849799Y-76332720D01*
X108639945Y-76353389D01*
X108438155Y-76414601D01*
X108252188Y-76514002D01*
X108252185Y-76514004D01*
X108089179Y-76647779D01*
X107955404Y-76810785D01*
X107955402Y-76810788D01*
X107881598Y-76948866D01*
X107856001Y-76996755D01*
X107794789Y-77198545D01*
X107779300Y-77355807D01*
X107779300Y-77910993D01*
X107380300Y-77910993D01*
X107380300Y-77355807D01*
X107364811Y-77198545D01*
X107303599Y-76996755D01*
X107204195Y-76810784D01*
X107070421Y-76647779D01*
X106907416Y-76514005D01*
X106907413Y-76514003D01*
X106907411Y-76514002D01*
X106836766Y-76476241D01*
X106721445Y-76414601D01*
X106519655Y-76353389D01*
X106414727Y-76343054D01*
X106309801Y-76332720D01*
X106309799Y-76332720D01*
X106099945Y-76353389D01*
X105898155Y-76414601D01*
X105712188Y-76514002D01*
X105712185Y-76514004D01*
X105549179Y-76647779D01*
X105415404Y-76810785D01*
X105415402Y-76810788D01*
X105341598Y-76948866D01*
X105316001Y-76996755D01*
X105254789Y-77198545D01*
X105239300Y-77355807D01*
X105239300Y-77910993D01*
X102698294Y-77910993D01*
X102735550Y-77846463D01*
X102795344Y-77662437D01*
X102815570Y-77470000D01*
X102795344Y-77277563D01*
X102735550Y-77093537D01*
X102638802Y-76925964D01*
X102559807Y-76838231D01*
X102509329Y-76782169D01*
X102509328Y-76782168D01*
X102509327Y-76782167D01*
X102352785Y-76668433D01*
X102352783Y-76668432D01*
X102352779Y-76668429D01*
X102176020Y-76589732D01*
X102176018Y-76589731D01*
X101986750Y-76549500D01*
X101986748Y-76549500D01*
X101793252Y-76549500D01*
X101793249Y-76549500D01*
X101603981Y-76589731D01*
X101603979Y-76589732D01*
X101427221Y-76668429D01*
X101427220Y-76668429D01*
X101270670Y-76782169D01*
X101141198Y-76925963D01*
X101044450Y-77093536D01*
X101044450Y-77093537D01*
X100984656Y-77277563D01*
X100964430Y-77470000D01*
X84297461Y-77470000D01*
X84457616Y-77384395D01*
X84620621Y-77250621D01*
X84754395Y-77087616D01*
X84853799Y-76901645D01*
X84915011Y-76699855D01*
X84935680Y-76490000D01*
X84915011Y-76280145D01*
X84855815Y-76085001D01*
X88309678Y-76085001D01*
X88328915Y-76268030D01*
X88349934Y-76332720D01*
X88385786Y-76443059D01*
X88477805Y-76602440D01*
X88600950Y-76739207D01*
X88749839Y-76847381D01*
X88917966Y-76922236D01*
X89097981Y-76960500D01*
X89097983Y-76960500D01*
X89282017Y-76960500D01*
X89282019Y-76960500D01*
X89462034Y-76922236D01*
X89630161Y-76847381D01*
X89723250Y-76779748D01*
X90314500Y-76779748D01*
X90326133Y-76838231D01*
X90370448Y-76904552D01*
X90436769Y-76948867D01*
X90495252Y-76960500D01*
X90495255Y-76960500D01*
X91884745Y-76960500D01*
X91884748Y-76960500D01*
X91943231Y-76948867D01*
X92009552Y-76904552D01*
X92053867Y-76838231D01*
X92065500Y-76779748D01*
X92065500Y-75390252D01*
X92053867Y-75331769D01*
X92009552Y-75265448D01*
X91943231Y-75221133D01*
X91884748Y-75209500D01*
X90495252Y-75209500D01*
X90451389Y-75218224D01*
X90436768Y-75221133D01*
X90370448Y-75265448D01*
X90326133Y-75331768D01*
X90326132Y-75331769D01*
X90326133Y-75331769D01*
X90314500Y-75390252D01*
X90314500Y-76779748D01*
X89723250Y-76779748D01*
X89779050Y-76739207D01*
X89902195Y-76602440D01*
X89994214Y-76443059D01*
X90051085Y-76268029D01*
X90070322Y-76085000D01*
X90051085Y-75901971D01*
X89994214Y-75726941D01*
X89902195Y-75567560D01*
X89779050Y-75430793D01*
X89779049Y-75430792D01*
X89779048Y-75430791D01*
X89642755Y-75331769D01*
X89630161Y-75322619D01*
X89630160Y-75322618D01*
X89630158Y-75322617D01*
X89630156Y-75322616D01*
X89462037Y-75247765D01*
X89462035Y-75247764D01*
X89282021Y-75209500D01*
X89282019Y-75209500D01*
X89097981Y-75209500D01*
X89097978Y-75209500D01*
X88917964Y-75247764D01*
X88917962Y-75247765D01*
X88749843Y-75322616D01*
X88749841Y-75322617D01*
X88600951Y-75430791D01*
X88477804Y-75567561D01*
X88385786Y-75726940D01*
X88328915Y-75901969D01*
X88309678Y-76084998D01*
X88309678Y-76085001D01*
X84855815Y-76085001D01*
X84853799Y-76078355D01*
X84754395Y-75892384D01*
X84620621Y-75729379D01*
X84457616Y-75595605D01*
X84457613Y-75595603D01*
X84457611Y-75595602D01*
X84386966Y-75557841D01*
X84271645Y-75496201D01*
X84069855Y-75434989D01*
X83912593Y-75419500D01*
X83357407Y-75419500D01*
X83242748Y-75430793D01*
X83200145Y-75434989D01*
X82998355Y-75496201D01*
X82812388Y-75595602D01*
X82812385Y-75595604D01*
X82649379Y-75729379D01*
X82515604Y-75892385D01*
X82515602Y-75892388D01*
X82416200Y-76078354D01*
X82416201Y-76078355D01*
X82354989Y-76280145D01*
X82334320Y-76490000D01*
X60240499Y-76490000D01*
X60240499Y-74930000D01*
X100964430Y-74930000D01*
X100984656Y-75122437D01*
X101044450Y-75306463D01*
X101141198Y-75474036D01*
X101270673Y-75617833D01*
X101427215Y-75731567D01*
X101427217Y-75731568D01*
X101427220Y-75731570D01*
X101564978Y-75792902D01*
X101603983Y-75810269D01*
X101793252Y-75850500D01*
X101793254Y-75850500D01*
X101986746Y-75850500D01*
X101986748Y-75850500D01*
X102176017Y-75810269D01*
X102352778Y-75731570D01*
X102352779Y-75731570D01*
X102352780Y-75731569D01*
X102352785Y-75731567D01*
X102509327Y-75617833D01*
X102638802Y-75474036D01*
X102735550Y-75306463D01*
X102795344Y-75122437D01*
X102815570Y-74930000D01*
X102795344Y-74737563D01*
X102735550Y-74553537D01*
X102638802Y-74385964D01*
X102509327Y-74242167D01*
X102352785Y-74128433D01*
X102352783Y-74128432D01*
X102352779Y-74128429D01*
X102176020Y-74049732D01*
X102176018Y-74049731D01*
X101986750Y-74009500D01*
X101986748Y-74009500D01*
X101793252Y-74009500D01*
X101793249Y-74009500D01*
X101603981Y-74049731D01*
X101603979Y-74049732D01*
X101427221Y-74128429D01*
X101427220Y-74128429D01*
X101270670Y-74242169D01*
X101141198Y-74385963D01*
X101044450Y-74553536D01*
X101044450Y-74553537D01*
X100984656Y-74737563D01*
X100964430Y-74930000D01*
X60240499Y-74930000D01*
X60240499Y-73740000D01*
X75069320Y-73740000D01*
X75089989Y-73949855D01*
X75151201Y-74151645D01*
X75250605Y-74337616D01*
X75384379Y-74500621D01*
X75547384Y-74634395D01*
X75733355Y-74733799D01*
X75935145Y-74795011D01*
X76092407Y-74810500D01*
X76092410Y-74810500D01*
X76647590Y-74810500D01*
X76647593Y-74810500D01*
X76804855Y-74795011D01*
X77006645Y-74733799D01*
X77192616Y-74634395D01*
X77355621Y-74500621D01*
X77489395Y-74337616D01*
X77588799Y-74151645D01*
X77650011Y-73949855D01*
X77670680Y-73740000D01*
X77650011Y-73530145D01*
X77588799Y-73328355D01*
X77489395Y-73142384D01*
X77401269Y-73035001D01*
X80409678Y-73035001D01*
X80428915Y-73218030D01*
X80469180Y-73341951D01*
X80485786Y-73393059D01*
X80577805Y-73552440D01*
X80700950Y-73689207D01*
X80849839Y-73797381D01*
X81017966Y-73872236D01*
X81197981Y-73910500D01*
X81197983Y-73910500D01*
X81382017Y-73910500D01*
X81382019Y-73910500D01*
X81562034Y-73872236D01*
X81730161Y-73797381D01*
X81879050Y-73689207D01*
X81896342Y-73670002D01*
X86124508Y-73670002D01*
X86144352Y-73795301D01*
X86183552Y-73872234D01*
X86201950Y-73908342D01*
X86291658Y-73998050D01*
X86291660Y-73998051D01*
X86404698Y-74055647D01*
X86404697Y-74055647D01*
X86529998Y-74075492D01*
X86530000Y-74075492D01*
X86530002Y-74075492D01*
X86655301Y-74055647D01*
X86655302Y-74055646D01*
X86655304Y-74055646D01*
X86768342Y-73998050D01*
X86858050Y-73908342D01*
X86915646Y-73795304D01*
X86915646Y-73795302D01*
X86915647Y-73795301D01*
X86935492Y-73670002D01*
X86935492Y-73669997D01*
X86915647Y-73544698D01*
X86858051Y-73431660D01*
X86858050Y-73431658D01*
X86768342Y-73341950D01*
X86768340Y-73341949D01*
X86768339Y-73341948D01*
X86655301Y-73284352D01*
X86655302Y-73284352D01*
X86530002Y-73264508D01*
X86529998Y-73264508D01*
X86404698Y-73284352D01*
X86291660Y-73341948D01*
X86291656Y-73341951D01*
X86201951Y-73431656D01*
X86201948Y-73431660D01*
X86144352Y-73544698D01*
X86124508Y-73669997D01*
X86124508Y-73670002D01*
X81896342Y-73670002D01*
X82002195Y-73552440D01*
X82094214Y-73393059D01*
X82151085Y-73218029D01*
X82170322Y-73035000D01*
X82151085Y-72851971D01*
X82094214Y-72676941D01*
X82002195Y-72517560D01*
X81879050Y-72380793D01*
X81879049Y-72380792D01*
X81879048Y-72380791D01*
X81730158Y-72272617D01*
X81730156Y-72272616D01*
X81562037Y-72197765D01*
X81562035Y-72197764D01*
X81382021Y-72159500D01*
X81382019Y-72159500D01*
X81197981Y-72159500D01*
X81197978Y-72159500D01*
X81017964Y-72197764D01*
X81017962Y-72197765D01*
X80849843Y-72272616D01*
X80849841Y-72272617D01*
X80700951Y-72380791D01*
X80577804Y-72517561D01*
X80485786Y-72676940D01*
X80428915Y-72851969D01*
X80409678Y-73034998D01*
X80409678Y-73035001D01*
X77401269Y-73035001D01*
X77355621Y-72979379D01*
X77192616Y-72845605D01*
X77192613Y-72845603D01*
X77192611Y-72845602D01*
X77121966Y-72807841D01*
X77006645Y-72746201D01*
X76804855Y-72684989D01*
X76647593Y-72669500D01*
X76092407Y-72669500D01*
X75935144Y-72684989D01*
X75935145Y-72684989D01*
X75733355Y-72746201D01*
X75547388Y-72845602D01*
X75547385Y-72845604D01*
X75384379Y-72979379D01*
X75250604Y-73142385D01*
X75250602Y-73142388D01*
X75151201Y-73328355D01*
X75089989Y-73530145D01*
X75074323Y-73689208D01*
X75069320Y-73740000D01*
X60240499Y-73740000D01*
X60240499Y-71874263D01*
X75074500Y-71874263D01*
X75077354Y-71904701D01*
X75122207Y-72032883D01*
X75162528Y-72087515D01*
X75202850Y-72142150D01*
X75226359Y-72159500D01*
X75312116Y-72222792D01*
X75312117Y-72222792D01*
X75312118Y-72222793D01*
X75440301Y-72267646D01*
X75470734Y-72270500D01*
X75470741Y-72270500D01*
X77269259Y-72270500D01*
X77269266Y-72270500D01*
X77299699Y-72267646D01*
X77427882Y-72222793D01*
X77537150Y-72142150D01*
X77617793Y-72032882D01*
X77625799Y-72010002D01*
X92697008Y-72010002D01*
X92716852Y-72135301D01*
X92761432Y-72222792D01*
X92774450Y-72248342D01*
X92864158Y-72338050D01*
X92948046Y-72380793D01*
X92977198Y-72395647D01*
X92977197Y-72395647D01*
X93102498Y-72415492D01*
X93102500Y-72415492D01*
X93102502Y-72415492D01*
X93227801Y-72395647D01*
X93227802Y-72395646D01*
X93227804Y-72395646D01*
X93340842Y-72338050D01*
X93430550Y-72248342D01*
X93488146Y-72135304D01*
X93488146Y-72135302D01*
X93488147Y-72135301D01*
X93507992Y-72010002D01*
X93507992Y-72009997D01*
X93488147Y-71884698D01*
X93430551Y-71771660D01*
X93430550Y-71771658D01*
X93340842Y-71681950D01*
X93340840Y-71681949D01*
X93340839Y-71681948D01*
X93227801Y-71624352D01*
X93227802Y-71624352D01*
X93102502Y-71604508D01*
X93102498Y-71604508D01*
X92977198Y-71624352D01*
X92864160Y-71681948D01*
X92864156Y-71681951D01*
X92774451Y-71771656D01*
X92774448Y-71771660D01*
X92716852Y-71884698D01*
X92697008Y-72009997D01*
X92697008Y-72010002D01*
X77625799Y-72010002D01*
X77662646Y-71904699D01*
X77665500Y-71874266D01*
X77665500Y-71729748D01*
X80414500Y-71729748D01*
X80426133Y-71788231D01*
X80470448Y-71854552D01*
X80536769Y-71898867D01*
X80595252Y-71910500D01*
X80595255Y-71910500D01*
X81984745Y-71910500D01*
X81984748Y-71910500D01*
X82043231Y-71898867D01*
X82109552Y-71854552D01*
X82153867Y-71788231D01*
X82165500Y-71729748D01*
X82165500Y-70340252D01*
X82153867Y-70281769D01*
X82109552Y-70215448D01*
X82043231Y-70171133D01*
X81984748Y-70159500D01*
X80595252Y-70159500D01*
X80551389Y-70168224D01*
X80536768Y-70171133D01*
X80470448Y-70215448D01*
X80426133Y-70281768D01*
X80426132Y-70281769D01*
X80426133Y-70281769D01*
X80414500Y-70340252D01*
X80414500Y-71729748D01*
X77665500Y-71729748D01*
X77665500Y-70525734D01*
X77662646Y-70495301D01*
X77617793Y-70367118D01*
X77537150Y-70257850D01*
X77479697Y-70215448D01*
X77427883Y-70177207D01*
X77299701Y-70132354D01*
X77287525Y-70131212D01*
X77269266Y-70129500D01*
X75470734Y-70129500D01*
X75458560Y-70130641D01*
X75440298Y-70132354D01*
X75312116Y-70177207D01*
X75202850Y-70257850D01*
X75122207Y-70367116D01*
X75077354Y-70495298D01*
X75074500Y-70525736D01*
X75074500Y-71874263D01*
X60240499Y-71874263D01*
X60240499Y-69635002D01*
X83274508Y-69635002D01*
X83294352Y-69760301D01*
X83309736Y-69790492D01*
X83351950Y-69873342D01*
X83441658Y-69963050D01*
X83441660Y-69963051D01*
X83554698Y-70020647D01*
X83554697Y-70020647D01*
X83679998Y-70040492D01*
X83680000Y-70040492D01*
X83680002Y-70040492D01*
X83805301Y-70020647D01*
X83805302Y-70020646D01*
X83805304Y-70020646D01*
X83918342Y-69963050D01*
X84008050Y-69873342D01*
X84065646Y-69760304D01*
X84065646Y-69760302D01*
X84065647Y-69760301D01*
X84085492Y-69635002D01*
X84085492Y-69634997D01*
X84065647Y-69509698D01*
X84008051Y-69396660D01*
X84008050Y-69396658D01*
X83996394Y-69385002D01*
X103959508Y-69385002D01*
X103979352Y-69510301D01*
X103979354Y-69510304D01*
X104036950Y-69623342D01*
X104126658Y-69713050D01*
X104126660Y-69713051D01*
X104239698Y-69770647D01*
X104239697Y-69770647D01*
X104364998Y-69790492D01*
X104365000Y-69790492D01*
X104365002Y-69790492D01*
X104490301Y-69770647D01*
X104490302Y-69770646D01*
X104490304Y-69770646D01*
X104603342Y-69713050D01*
X104693050Y-69623342D01*
X104750646Y-69510304D01*
X104750646Y-69510302D01*
X104750647Y-69510301D01*
X104770492Y-69385002D01*
X104770492Y-69384997D01*
X104750647Y-69259698D01*
X104693051Y-69146660D01*
X104693050Y-69146658D01*
X104603342Y-69056950D01*
X104603340Y-69056949D01*
X104603339Y-69056948D01*
X104490301Y-68999352D01*
X104490302Y-68999352D01*
X104365002Y-68979508D01*
X104364998Y-68979508D01*
X104239698Y-68999352D01*
X104126660Y-69056948D01*
X104126656Y-69056951D01*
X104036951Y-69146656D01*
X104036948Y-69146660D01*
X103979352Y-69259698D01*
X103959508Y-69384997D01*
X103959508Y-69385002D01*
X83996394Y-69385002D01*
X83918342Y-69306950D01*
X83918340Y-69306949D01*
X83918339Y-69306948D01*
X83805301Y-69249352D01*
X83805302Y-69249352D01*
X83680002Y-69229508D01*
X83679998Y-69229508D01*
X83554698Y-69249352D01*
X83441660Y-69306948D01*
X83441656Y-69306951D01*
X83351951Y-69396656D01*
X83351948Y-69396660D01*
X83294352Y-69509698D01*
X83274508Y-69634997D01*
X83274508Y-69635002D01*
X60240499Y-69635002D01*
X60240499Y-68360002D01*
X83794508Y-68360002D01*
X83814352Y-68485301D01*
X83866855Y-68588342D01*
X83871950Y-68598342D01*
X83961658Y-68688050D01*
X83961660Y-68688051D01*
X84074698Y-68745647D01*
X84074697Y-68745647D01*
X84199998Y-68765492D01*
X84200000Y-68765492D01*
X84200002Y-68765492D01*
X84325301Y-68745647D01*
X84325302Y-68745646D01*
X84325304Y-68745646D01*
X84438342Y-68688050D01*
X84528050Y-68598342D01*
X84585646Y-68485304D01*
X84585646Y-68485302D01*
X84585647Y-68485301D01*
X84605492Y-68360002D01*
X84605492Y-68359997D01*
X84603909Y-68350002D01*
X89234508Y-68350002D01*
X89254352Y-68475301D01*
X89290021Y-68545304D01*
X89311950Y-68588342D01*
X89401658Y-68678050D01*
X89401660Y-68678051D01*
X89514698Y-68735647D01*
X89514697Y-68735647D01*
X89639998Y-68755492D01*
X89640000Y-68755492D01*
X89640002Y-68755492D01*
X89765301Y-68735647D01*
X89765302Y-68735646D01*
X89765304Y-68735646D01*
X89878342Y-68678050D01*
X89926390Y-68630002D01*
X94764308Y-68630002D01*
X94784152Y-68755301D01*
X94819917Y-68825492D01*
X94841750Y-68868342D01*
X94931458Y-68958050D01*
X94931460Y-68958051D01*
X95044498Y-69015647D01*
X95044497Y-69015647D01*
X95169798Y-69035492D01*
X95169800Y-69035492D01*
X95169802Y-69035492D01*
X95295101Y-69015647D01*
X95295102Y-69015646D01*
X95295104Y-69015646D01*
X95408142Y-68958050D01*
X95497850Y-68868342D01*
X95555446Y-68755304D01*
X95555446Y-68755302D01*
X95555447Y-68755301D01*
X95575292Y-68630002D01*
X95575292Y-68629997D01*
X95555447Y-68504698D01*
X95512293Y-68420002D01*
X108044508Y-68420002D01*
X108064352Y-68545301D01*
X108107509Y-68630000D01*
X108121950Y-68658342D01*
X108211658Y-68748050D01*
X108211660Y-68748051D01*
X108324698Y-68805647D01*
X108324697Y-68805647D01*
X108449998Y-68825492D01*
X108450000Y-68825492D01*
X108450002Y-68825492D01*
X108575301Y-68805647D01*
X108575302Y-68805646D01*
X108575304Y-68805646D01*
X108688342Y-68748050D01*
X108778050Y-68658342D01*
X108835646Y-68545304D01*
X108835646Y-68545302D01*
X108835647Y-68545301D01*
X108855492Y-68420002D01*
X108855492Y-68419997D01*
X108835647Y-68294698D01*
X108778051Y-68181660D01*
X108778050Y-68181658D01*
X108688342Y-68091950D01*
X108688340Y-68091949D01*
X108688339Y-68091948D01*
X108575301Y-68034352D01*
X108575302Y-68034352D01*
X108450002Y-68014508D01*
X108449998Y-68014508D01*
X108324698Y-68034352D01*
X108211660Y-68091948D01*
X108211656Y-68091951D01*
X108121951Y-68181656D01*
X108121948Y-68181660D01*
X108064352Y-68294698D01*
X108044508Y-68419997D01*
X108044508Y-68420002D01*
X95512293Y-68420002D01*
X95512290Y-68419997D01*
X95497850Y-68391658D01*
X95408142Y-68301950D01*
X95408140Y-68301949D01*
X95408139Y-68301948D01*
X95295101Y-68244352D01*
X95295102Y-68244352D01*
X95169802Y-68224508D01*
X95169798Y-68224508D01*
X95044498Y-68244352D01*
X94931460Y-68301948D01*
X94931456Y-68301951D01*
X94841751Y-68391656D01*
X94841748Y-68391660D01*
X94784152Y-68504698D01*
X94764308Y-68629997D01*
X94764308Y-68630002D01*
X89926390Y-68630002D01*
X89968050Y-68588342D01*
X90025646Y-68475304D01*
X90025646Y-68475302D01*
X90025647Y-68475301D01*
X90045492Y-68350002D01*
X90045492Y-68349997D01*
X90025647Y-68224698D01*
X89968051Y-68111660D01*
X89968050Y-68111658D01*
X89878342Y-68021950D01*
X89878340Y-68021949D01*
X89878339Y-68021948D01*
X89765301Y-67964352D01*
X89765302Y-67964352D01*
X89640002Y-67944508D01*
X89639998Y-67944508D01*
X89514698Y-67964352D01*
X89401660Y-68021948D01*
X89401656Y-68021951D01*
X89311951Y-68111656D01*
X89311948Y-68111660D01*
X89254352Y-68224698D01*
X89234508Y-68349997D01*
X89234508Y-68350002D01*
X84603909Y-68350002D01*
X84585647Y-68234698D01*
X84528051Y-68121660D01*
X84528050Y-68121658D01*
X84438342Y-68031950D01*
X84438340Y-68031949D01*
X84438339Y-68031948D01*
X84325301Y-67974352D01*
X84325302Y-67974352D01*
X84200002Y-67954508D01*
X84199998Y-67954508D01*
X84074698Y-67974352D01*
X83961660Y-68031948D01*
X83961656Y-68031951D01*
X83871951Y-68121656D01*
X83871948Y-68121660D01*
X83814352Y-68234698D01*
X83794508Y-68359997D01*
X83794508Y-68360002D01*
X60240499Y-68360002D01*
X60240499Y-67260002D01*
X93884508Y-67260002D01*
X93904352Y-67385301D01*
X93904354Y-67385304D01*
X93961950Y-67498342D01*
X94051658Y-67588050D01*
X94051660Y-67588051D01*
X94164698Y-67645647D01*
X94164697Y-67645647D01*
X94289998Y-67665492D01*
X94290000Y-67665492D01*
X94290002Y-67665492D01*
X94415301Y-67645647D01*
X94415302Y-67645646D01*
X94415304Y-67645646D01*
X94528342Y-67588050D01*
X94618050Y-67498342D01*
X94675646Y-67385304D01*
X94675646Y-67385302D01*
X94675647Y-67385301D01*
X94695492Y-67260002D01*
X94695492Y-67259997D01*
X94675647Y-67134698D01*
X94618051Y-67021660D01*
X94618050Y-67021658D01*
X94528342Y-66931950D01*
X94528340Y-66931949D01*
X94528339Y-66931948D01*
X94415301Y-66874352D01*
X94415302Y-66874352D01*
X94290002Y-66854508D01*
X94289998Y-66854508D01*
X94164698Y-66874352D01*
X94051660Y-66931948D01*
X94051656Y-66931951D01*
X93961951Y-67021656D01*
X93961948Y-67021660D01*
X93904352Y-67134698D01*
X93884508Y-67259997D01*
X93884508Y-67260002D01*
X60240499Y-67260002D01*
X60240499Y-66010002D01*
X100234508Y-66010002D01*
X100254352Y-66135301D01*
X100254354Y-66135304D01*
X100311950Y-66248342D01*
X100401658Y-66338050D01*
X100401660Y-66338051D01*
X100514698Y-66395647D01*
X100514697Y-66395647D01*
X100639998Y-66415492D01*
X100640000Y-66415492D01*
X100640002Y-66415492D01*
X100765301Y-66395647D01*
X100765302Y-66395646D01*
X100765304Y-66395646D01*
X100878342Y-66338050D01*
X100968050Y-66248342D01*
X101025646Y-66135304D01*
X101025646Y-66135302D01*
X101025647Y-66135301D01*
X101045492Y-66010002D01*
X101045492Y-66009997D01*
X101025647Y-65884698D01*
X100968051Y-65771660D01*
X100968050Y-65771658D01*
X100878342Y-65681950D01*
X100878340Y-65681949D01*
X100878339Y-65681948D01*
X100765301Y-65624352D01*
X100765302Y-65624352D01*
X100640002Y-65604508D01*
X100639998Y-65604508D01*
X100514698Y-65624352D01*
X100401660Y-65681948D01*
X100401656Y-65681951D01*
X100311951Y-65771656D01*
X100311948Y-65771660D01*
X100254352Y-65884698D01*
X100234508Y-66009997D01*
X100234508Y-66010002D01*
X60240499Y-66010002D01*
X60240499Y-64704263D01*
X78039500Y-64704263D01*
X78042354Y-64734701D01*
X78087207Y-64862883D01*
X78127528Y-64917515D01*
X78167850Y-64972150D01*
X78230040Y-65018048D01*
X78277116Y-65052792D01*
X78277117Y-65052792D01*
X78277118Y-65052793D01*
X78405301Y-65097646D01*
X78435734Y-65100500D01*
X78435741Y-65100500D01*
X80234259Y-65100500D01*
X80234266Y-65100500D01*
X80264699Y-65097646D01*
X80392882Y-65052793D01*
X80502150Y-64972150D01*
X80582793Y-64862882D01*
X80627646Y-64734699D01*
X80630500Y-64704266D01*
X80630500Y-64690002D01*
X108074508Y-64690002D01*
X108094352Y-64815301D01*
X108118597Y-64862883D01*
X108151950Y-64928342D01*
X108241658Y-65018050D01*
X108241660Y-65018051D01*
X108354698Y-65075647D01*
X108354697Y-65075647D01*
X108479998Y-65095492D01*
X108480000Y-65095492D01*
X108480002Y-65095492D01*
X108605301Y-65075647D01*
X108605302Y-65075646D01*
X108605304Y-65075646D01*
X108718342Y-65018050D01*
X108808050Y-64928342D01*
X108865646Y-64815304D01*
X108865646Y-64815302D01*
X108865647Y-64815301D01*
X108885492Y-64690002D01*
X108885492Y-64689997D01*
X108865647Y-64564698D01*
X108808051Y-64451660D01*
X108808050Y-64451658D01*
X108718342Y-64361950D01*
X108718340Y-64361949D01*
X108718339Y-64361948D01*
X108605301Y-64304352D01*
X108605302Y-64304352D01*
X108480002Y-64284508D01*
X108479998Y-64284508D01*
X108354698Y-64304352D01*
X108241660Y-64361948D01*
X108241656Y-64361951D01*
X108151951Y-64451656D01*
X108151948Y-64451660D01*
X108094352Y-64564698D01*
X108074508Y-64689997D01*
X108074508Y-64690002D01*
X80630500Y-64690002D01*
X80630500Y-63355734D01*
X80627646Y-63325301D01*
X80582793Y-63197118D01*
X80581454Y-63195304D01*
X80556783Y-63161875D01*
X80502150Y-63087850D01*
X80477967Y-63070002D01*
X86124508Y-63070002D01*
X86144352Y-63195301D01*
X86144354Y-63195304D01*
X86201950Y-63308342D01*
X86291658Y-63398050D01*
X86291660Y-63398051D01*
X86404698Y-63455647D01*
X86404697Y-63455647D01*
X86529998Y-63475492D01*
X86530000Y-63475492D01*
X86530002Y-63475492D01*
X86655301Y-63455647D01*
X86655302Y-63455646D01*
X86655304Y-63455646D01*
X86768342Y-63398050D01*
X86858050Y-63308342D01*
X86915646Y-63195304D01*
X86915646Y-63195302D01*
X86915647Y-63195301D01*
X86935492Y-63070002D01*
X86935492Y-63069997D01*
X86915647Y-62944698D01*
X86858051Y-62831660D01*
X86858050Y-62831658D01*
X86768342Y-62741950D01*
X86768340Y-62741949D01*
X86768339Y-62741948D01*
X86655301Y-62684352D01*
X86655302Y-62684352D01*
X86530002Y-62664508D01*
X86529998Y-62664508D01*
X86404698Y-62684352D01*
X86291660Y-62741948D01*
X86291656Y-62741951D01*
X86201951Y-62831656D01*
X86201948Y-62831660D01*
X86144352Y-62944698D01*
X86124508Y-63069997D01*
X86124508Y-63070002D01*
X80477967Y-63070002D01*
X80447516Y-63047528D01*
X80392883Y-63007207D01*
X80264701Y-62962354D01*
X80252525Y-62961212D01*
X80234266Y-62959500D01*
X78435734Y-62959500D01*
X78423560Y-62960641D01*
X78405298Y-62962354D01*
X78277116Y-63007207D01*
X78167850Y-63087850D01*
X78087207Y-63197116D01*
X78042354Y-63325298D01*
X78039500Y-63355736D01*
X78039500Y-64704263D01*
X60240499Y-64704263D01*
X60240499Y-61490000D01*
X78034320Y-61490000D01*
X78054989Y-61699855D01*
X78116201Y-61901645D01*
X78215605Y-62087616D01*
X78349379Y-62250621D01*
X78512384Y-62384395D01*
X78698355Y-62483799D01*
X78900145Y-62545011D01*
X79057407Y-62560500D01*
X79057410Y-62560500D01*
X79612590Y-62560500D01*
X79612593Y-62560500D01*
X79769855Y-62545011D01*
X79971645Y-62483799D01*
X80157616Y-62384395D01*
X80320621Y-62250621D01*
X80454395Y-62087616D01*
X80553799Y-61901645D01*
X80615011Y-61699855D01*
X80635680Y-61490000D01*
X80615011Y-61280145D01*
X80553799Y-61078355D01*
X80454395Y-60892384D01*
X80320621Y-60729379D01*
X80157616Y-60595605D01*
X80157613Y-60595603D01*
X80157611Y-60595602D01*
X80086966Y-60557841D01*
X79971645Y-60496201D01*
X79769855Y-60434989D01*
X79612593Y-60419500D01*
X79057407Y-60419500D01*
X78900144Y-60434988D01*
X78900145Y-60434989D01*
X78698355Y-60496201D01*
X78512388Y-60595602D01*
X78512385Y-60595604D01*
X78349379Y-60729379D01*
X78215604Y-60892385D01*
X78215602Y-60892388D01*
X78116201Y-61078354D01*
X78116201Y-61078355D01*
X78054989Y-61280145D01*
X78034320Y-61490000D01*
X60240499Y-61490000D01*
X60240499Y-58930000D01*
X86319320Y-58930000D01*
X86339989Y-59139855D01*
X86401201Y-59341645D01*
X86500605Y-59527616D01*
X86634379Y-59690621D01*
X86797384Y-59824395D01*
X86983355Y-59923799D01*
X87185145Y-59985011D01*
X87342407Y-60000500D01*
X87342410Y-60000500D01*
X87897590Y-60000500D01*
X87897593Y-60000500D01*
X88054855Y-59985011D01*
X88256645Y-59923799D01*
X88442616Y-59824395D01*
X88605621Y-59690621D01*
X88739395Y-59527616D01*
X88838799Y-59341645D01*
X88900011Y-59139855D01*
X88920680Y-58930000D01*
X88900011Y-58720145D01*
X88838799Y-58518355D01*
X88739395Y-58332384D01*
X88721027Y-58310002D01*
X98274508Y-58310002D01*
X98294352Y-58435301D01*
X98336671Y-58518355D01*
X98351950Y-58548342D01*
X98441658Y-58638050D01*
X98441660Y-58638051D01*
X98554698Y-58695647D01*
X98554697Y-58695647D01*
X98679998Y-58715492D01*
X98680000Y-58715492D01*
X98680002Y-58715492D01*
X98805301Y-58695647D01*
X98805302Y-58695646D01*
X98805304Y-58695646D01*
X98918342Y-58638050D01*
X99008050Y-58548342D01*
X99065646Y-58435304D01*
X99065646Y-58435302D01*
X99065647Y-58435301D01*
X99085492Y-58310002D01*
X99085492Y-58309997D01*
X99065647Y-58184698D01*
X99008051Y-58071660D01*
X99008050Y-58071658D01*
X98918342Y-57981950D01*
X98918340Y-57981949D01*
X98918339Y-57981948D01*
X98805301Y-57924352D01*
X98805302Y-57924352D01*
X98680002Y-57904508D01*
X98679998Y-57904508D01*
X98554698Y-57924352D01*
X98441660Y-57981948D01*
X98441656Y-57981951D01*
X98351951Y-58071656D01*
X98351948Y-58071660D01*
X98294352Y-58184698D01*
X98274508Y-58309997D01*
X98274508Y-58310002D01*
X88721027Y-58310002D01*
X88605621Y-58169379D01*
X88442616Y-58035605D01*
X88442613Y-58035603D01*
X88442611Y-58035602D01*
X88342231Y-57981948D01*
X88256645Y-57936201D01*
X88054855Y-57874989D01*
X87897593Y-57859500D01*
X87342407Y-57859500D01*
X87185145Y-57874989D01*
X86983355Y-57936201D01*
X86797388Y-58035602D01*
X86797385Y-58035604D01*
X86634379Y-58169379D01*
X86500604Y-58332385D01*
X86500602Y-58332388D01*
X86401200Y-58518354D01*
X86401201Y-58518355D01*
X86339989Y-58720145D01*
X86319320Y-58930000D01*
X60240499Y-58930000D01*
X60240499Y-57064263D01*
X86324500Y-57064263D01*
X86327354Y-57094701D01*
X86372207Y-57222883D01*
X86412528Y-57277515D01*
X86452850Y-57332150D01*
X86526875Y-57386782D01*
X86562116Y-57412792D01*
X86562117Y-57412792D01*
X86562118Y-57412793D01*
X86690301Y-57457646D01*
X86720734Y-57460500D01*
X86720741Y-57460500D01*
X88519259Y-57460500D01*
X88519266Y-57460500D01*
X88549699Y-57457646D01*
X88677882Y-57412793D01*
X88787150Y-57332150D01*
X88867793Y-57222882D01*
X88912646Y-57094699D01*
X88915500Y-57064266D01*
X88915500Y-56137593D01*
X97609500Y-56137593D01*
X97624989Y-56294855D01*
X97686201Y-56496645D01*
X97785605Y-56682616D01*
X97919379Y-56845621D01*
X98082384Y-56979395D01*
X98268355Y-57078799D01*
X98470145Y-57140011D01*
X98661183Y-57158826D01*
X98679999Y-57160680D01*
X98680000Y-57160680D01*
X98680001Y-57160680D01*
X98697268Y-57158979D01*
X98889855Y-57140011D01*
X99091645Y-57078799D01*
X99277616Y-56979395D01*
X99440621Y-56845621D01*
X99511493Y-56759263D01*
X102689500Y-56759263D01*
X102692354Y-56789701D01*
X102737207Y-56917883D01*
X102777528Y-56972515D01*
X102817850Y-57027150D01*
X102868137Y-57064263D01*
X102927116Y-57107792D01*
X102927117Y-57107792D01*
X102927118Y-57107793D01*
X103055301Y-57152646D01*
X103085734Y-57155500D01*
X103085741Y-57155500D01*
X104434259Y-57155500D01*
X104434266Y-57155500D01*
X104464699Y-57152646D01*
X104592882Y-57107793D01*
X104702150Y-57027150D01*
X104782793Y-56917882D01*
X104827646Y-56789699D01*
X104830500Y-56759266D01*
X104830500Y-54960734D01*
X104827646Y-54930301D01*
X104782793Y-54802118D01*
X104702150Y-54692850D01*
X104632168Y-54641201D01*
X104592883Y-54612207D01*
X104464701Y-54567354D01*
X104452525Y-54566212D01*
X104434266Y-54564500D01*
X103085734Y-54564500D01*
X103073560Y-54565641D01*
X103055298Y-54567354D01*
X102927116Y-54612207D01*
X102817850Y-54692850D01*
X102737207Y-54802116D01*
X102692354Y-54930298D01*
X102689500Y-54960736D01*
X102689500Y-56759263D01*
X99511493Y-56759263D01*
X99574395Y-56682616D01*
X99673799Y-56496645D01*
X99735011Y-56294855D01*
X99750500Y-56137593D01*
X99750500Y-55582407D01*
X99735011Y-55425145D01*
X99673799Y-55223355D01*
X99574395Y-55037384D01*
X99440621Y-54874379D01*
X99277616Y-54740605D01*
X99277613Y-54740603D01*
X99277611Y-54740602D01*
X99188273Y-54692850D01*
X99091645Y-54641201D01*
X98889855Y-54579989D01*
X98761570Y-54567354D01*
X98680001Y-54559320D01*
X98679999Y-54559320D01*
X98470145Y-54579989D01*
X98268355Y-54641201D01*
X98082388Y-54740602D01*
X98082385Y-54740604D01*
X97919379Y-54874379D01*
X97785604Y-55037385D01*
X97785602Y-55037388D01*
X97686200Y-55223354D01*
X97686201Y-55223355D01*
X97624989Y-55425145D01*
X97609500Y-55582407D01*
X97609500Y-56137593D01*
X88915500Y-56137593D01*
X88915500Y-55715734D01*
X88912646Y-55685301D01*
X88867793Y-55557118D01*
X88787150Y-55447850D01*
X88732516Y-55407528D01*
X88677883Y-55367207D01*
X88549701Y-55322354D01*
X88537525Y-55321212D01*
X88519266Y-55319500D01*
X86720734Y-55319500D01*
X86708560Y-55320641D01*
X86690298Y-55322354D01*
X86562116Y-55367207D01*
X86452850Y-55447850D01*
X86372207Y-55557116D01*
X86327354Y-55685298D01*
X86324500Y-55715736D01*
X86324500Y-57064263D01*
X60240499Y-57064263D01*
X60240499Y-56361286D01*
X60240557Y-56358733D01*
X60248480Y-56187362D01*
X60248793Y-56181021D01*
X60256817Y-56017661D01*
X60256901Y-56016304D01*
X60259996Y-55974346D01*
X60260372Y-55970815D01*
X60284667Y-55796654D01*
X60309563Y-55628820D01*
X60309751Y-55627653D01*
X60314415Y-55600774D01*
X60315055Y-55597644D01*
X60356696Y-55420595D01*
X60400147Y-55247130D01*
X60400467Y-55245915D01*
X60403549Y-55234780D01*
X60404390Y-55232030D01*
X60463782Y-55054830D01*
X60464044Y-55054074D01*
X60526545Y-54879397D01*
X60527985Y-54875787D01*
X60605110Y-54701115D01*
X60605620Y-54699999D01*
X60684696Y-54532805D01*
X60686340Y-54529608D01*
X60779379Y-54362573D01*
X60780223Y-54361115D01*
X60875072Y-54202869D01*
X60876875Y-54200056D01*
X60984996Y-54042218D01*
X60986161Y-54040584D01*
X61096034Y-53892437D01*
X61097816Y-53890168D01*
X61220128Y-53742873D01*
X61221649Y-53741121D01*
X61345455Y-53604522D01*
X61347240Y-53602647D01*
X61482647Y-53467240D01*
X61484522Y-53465455D01*
X61621121Y-53341649D01*
X61622873Y-53340128D01*
X61770168Y-53217816D01*
X61772437Y-53216034D01*
X61920584Y-53106161D01*
X61922218Y-53104996D01*
X62080056Y-52996875D01*
X62082858Y-52995079D01*
X62241115Y-52900223D01*
X62242573Y-52899379D01*
X62409608Y-52806340D01*
X62412805Y-52804696D01*
X62579999Y-52725620D01*
X62581115Y-52725110D01*
X62755787Y-52647985D01*
X62759397Y-52646545D01*
X62934074Y-52584044D01*
X62934830Y-52583782D01*
X63112030Y-52524390D01*
X63114780Y-52523549D01*
X63125915Y-52520467D01*
X63127130Y-52520147D01*
X63300595Y-52476696D01*
X63477644Y-52435055D01*
X63480774Y-52434415D01*
X63507653Y-52429751D01*
X63508821Y-52429563D01*
X63676677Y-52404664D01*
X63850809Y-52380373D01*
X63854352Y-52379995D01*
X63896330Y-52376899D01*
X63897662Y-52376817D01*
X64066778Y-52368508D01*
X64230212Y-52360952D01*
X64232055Y-52360899D01*
X64234087Y-52360874D01*
X64251118Y-52360668D01*
X116406245Y-52369362D01*
G37*
%TD.AperFunction*%
%TD*%
M02*
