M48
; DRILL file {KiCad 7.0.5-0} date 2024 February 16, Friday 16:17:40
; FORMAT={-:-/ absolute / inch / decimal}
; #@! TF.CreationDate,2024-02-16T16:17:40-04:00
; #@! TF.GenerationSoftware,Kicad,Pcbnew,7.0.5-0
; #@! TF.FileFunction,Plated,1,4,PTH
FMAT,2
INCH
; #@! TA.AperFunction,Plated,PTH,ViaDrill
T1C0.0118
; #@! TA.AperFunction,Plated,PTH,ComponentDrill
T2C0.0197
; #@! TA.AperFunction,Plated,PTH,ComponentDrill
T3C0.0315
; #@! TA.AperFunction,Plated,PTH,ComponentDrill
T4C0.0469
; #@! TA.AperFunction,Plated,PTH,ComponentDrill
T5C0.1063
%
G90
G05
T1
X2.3913Y-2.524
X2.3913Y-2.5535
X2.3913Y-2.5929
X2.3913Y-2.711
X2.3913Y-2.7406
X2.3913Y-2.7701
X2.4012Y-2.1716
X2.4012Y-2.2123
X2.4012Y-2.253
X2.4012Y-2.2937
X2.4012Y-2.3344
X2.4012Y-2.3751
X2.4012Y-2.9482
X2.4012Y-2.9881
X2.4012Y-3.028
X2.4012Y-3.0679
X2.4012Y-3.1077
X2.4209Y-2.524
X2.4209Y-2.5929
X2.4209Y-2.711
X2.4209Y-2.7701
X2.4406Y-2.1303
X2.4406Y-2.3342
X2.4406Y-2.375
X2.4406Y-2.9557
X2.4406Y-2.9993
X2.4406Y-3.1736
X2.4504Y-2.524
X2.4504Y-2.5929
X2.4504Y-2.711
X2.4504Y-2.7701
X2.4799Y-2.524
X2.4799Y-2.5929
X2.4799Y-2.711
X2.4799Y-2.7701
X2.4917Y-2.0909
X2.5037Y-3.213
X2.5094Y-2.524
X2.5094Y-2.5929
X2.5094Y-2.711
X2.5094Y-2.7701
X2.5324Y-2.0909
X2.539Y-2.524
X2.539Y-2.5929
X2.539Y-2.711
X2.539Y-2.7701
X2.5436Y-3.213
X2.5685Y-2.524
X2.5685Y-2.5929
X2.5685Y-2.711
X2.5685Y-2.7701
X2.5834Y-3.213
X2.5861Y-2.0909
X2.598Y-2.5929
X2.598Y-2.711
X2.6084Y-2.1303
X2.6226Y-2.6126
X2.6226Y-2.6913
X2.6233Y-3.213
X2.6262Y-2.0909
X2.6412Y-3.1736
X2.6482Y-2.1303
X2.6632Y-3.213
X2.6664Y-2.0909
X2.6711Y-3.1226
X2.6813Y-3.1736
X2.6881Y-2.1303
X2.7031Y-3.213
X2.7053Y-2.6264
X2.7053Y-2.6776
X2.7065Y-2.0909
X2.7191Y-2.4443
X2.7201Y-2.9128
X2.728Y-2.1303
X2.7466Y-2.0909
X2.7679Y-2.1303
X2.7713Y-2.8911
X2.7791Y-2.4531
X2.7868Y-2.0909
X2.787Y-2.7317
X2.788Y-2.5703
X2.8057Y-3.0053
X2.8077Y-2.1303
X2.8185Y-2.3262
X2.8269Y-2.0909
X2.8451Y-2.961
X2.8476Y-2.1303
X2.8628Y-2.6972
X2.8628Y-2.7789
X2.867Y-2.0909
X2.8677Y-2.3734
X2.8717Y-3.0683
X2.8875Y-2.1303
X2.8972Y-2.4935
X2.9031Y-2.2435
X2.9061Y-3.022
X2.9071Y-2.0909
X2.9189Y-2.8311
X2.9228Y-2.5506
X2.9273Y-2.1303
X2.9415Y-2.772
X2.9473Y-2.0909
X2.9484Y-2.2976
X2.9672Y-2.1303
X2.9874Y-2.0909
X3.0026Y-2.4906
X3.0071Y-2.1303
X3.0275Y-2.0909
X3.0469Y-2.1303
X3.0676Y-2.0909
X3.0868Y-2.1303
X3.1078Y-2.0909
X3.1246Y-3.0575
X3.1267Y-2.1303
X3.1479Y-2.0909
X3.1531Y-2.8528
X3.1665Y-2.1303
X3.1817Y-2.6195
X3.1846Y-2.9266
X3.188Y-2.0909
X3.1896Y-2.2071
X3.1906Y-3.1205
X3.2064Y-2.1303
X3.2073Y-2.5624
X3.224Y-2.6785
X3.2282Y-2.0909
X3.2348Y-2.4522
X3.2463Y-2.1303
X3.2496Y-2.8222
X3.2506Y-2.3921
X3.2614Y-2.2711
X3.2683Y-2.0909
X3.2862Y-2.1303
X3.2945Y-2.7415
X3.3084Y-2.0909
X3.315Y-2.6913
X3.3362Y-2.3843
X3.3481Y-2.0909
X3.3589Y-3.0801
X3.3638Y-2.4394
X3.3776Y-2.6303
X3.3785Y-2.7337
X3.3815Y-2.5211
X3.3815Y-2.8606
X3.392Y-2.0909
X3.4067Y-2.4831
X3.4067Y-2.9004
X3.4297Y-3.0417
X3.4317Y-2.5211
X3.4317Y-2.8606
X3.4386Y-2.5732
X3.4396Y-2.7947
X3.4415Y-2.6844
X3.4652Y-2.4413
X3.5055Y-2.3823
X3.5285Y-3.0765
X3.5291Y-2.6909
X3.5489Y-2.4582
X3.5508Y-2.2976
X3.5543Y-3.1238
X3.5612Y-3.0429
X3.5616Y-2.9049
X3.5643Y-2.8303
X3.602Y-2.275
X3.602Y-2.5024
X3.603Y-2.5742
X3.6128Y-2.463
X3.6138Y-2.3823
X3.6167Y-3.0437
X3.6276Y-2.9049
X3.6443Y-2.6323
X3.6581Y-2.5565
X3.6655Y-2.835
X3.6748Y-2.6569
X3.6876Y-2.7031
X3.7122Y-2.648
X3.7468Y-2.702
X3.789Y-2.8026
X3.8032Y-2.6255
X3.8096Y-2.8715
X3.8165Y-2.5102
X3.8195Y-2.7061
X3.8195Y-2.772
X3.8205Y-2.3813
X3.8205Y-2.4423
X3.8205Y-2.5742
X3.8232Y-2.2957
X3.8848Y-2.6748
X3.885Y-2.2957
X3.8854Y-2.5457
X3.8854Y-2.7317
X3.8864Y-2.3813
X3.8864Y-2.4413
X3.8864Y-2.6224
X3.8874Y-2.7967
X3.9622Y-2.5988
X3.9711Y-2.3301
X3.9898Y-2.7406
X3.9996Y-2.839
X4.0002Y-2.6221
X4.0055Y-2.2691
X4.0488Y-2.3104
X4.0646Y-2.6028
X4.0665Y-2.899
X4.1089Y-2.7317
X4.1217Y-2.3754
X4.1443Y-2.8321
X4.1748Y-2.5398
X4.1984Y-2.8154
X4.2535Y-2.5073
X4.2575Y-2.9531
X4.2697Y-2.6937
X4.2709Y-2.5469
X4.2909Y-2.7996
X4.3069Y-2.71
X4.3096Y-2.4837
X4.3096Y-2.9256
X4.3933Y-2.5762
X4.3953Y-2.8203
X4.4839Y-2.8252
X4.5862Y-2.5929
X4.5862Y-2.711
X4.5961Y-2.524
X4.5961Y-2.7701
X4.6018Y-3.213
X4.6138Y-2.0909
X4.6157Y-2.5929
X4.6157Y-2.711
X4.6256Y-2.524
X4.6256Y-2.7701
X4.6453Y-2.5929
X4.6453Y-2.711
X4.6551Y-2.524
X4.6551Y-2.7701
X4.665Y-2.1303
X4.665Y-2.3342
X4.665Y-2.375
X4.665Y-2.9121
X4.665Y-2.9557
X4.665Y-2.9993
X4.665Y-3.1736
X4.6748Y-2.5929
X4.6748Y-2.711
X4.6846Y-2.524
X4.6846Y-2.7701
X4.7043Y-2.1716
X4.7043Y-2.2123
X4.7043Y-2.253
X4.7043Y-2.2937
X4.7043Y-2.3344
X4.7043Y-2.3751
X4.7043Y-2.5929
X4.7043Y-2.711
X4.7043Y-2.9084
X4.7043Y-2.9482
X4.7043Y-2.9881
X4.7043Y-3.028
X4.7043Y-3.0679
X4.7043Y-3.1077
X4.7142Y-2.524
X4.7142Y-2.5634
X4.7142Y-2.7406
X4.7142Y-2.7701
T2
X2.4494Y-2.2189
X2.4494Y-3.085
X2.4728Y-2.1625
X2.4728Y-2.2753
X2.4728Y-3.0287
X2.4728Y-3.1414
X2.5291Y-2.1392
X2.5291Y-2.2986
X2.5291Y-3.0053
X2.5291Y-3.1648
X2.5855Y-2.1625
X2.5855Y-2.2753
X2.5855Y-3.0287
X2.5855Y-3.1414
X2.6089Y-2.2189
X2.6089Y-3.085
X4.4967Y-2.2189
X4.4967Y-3.085
X4.52Y-2.1625
X4.52Y-2.2753
X4.52Y-3.0287
X4.52Y-3.1414
X4.5764Y-2.1392
X4.5764Y-2.2986
X4.5764Y-3.0053
X4.5764Y-3.1648
X4.6328Y-2.1625
X4.6328Y-2.2753
X4.6328Y-3.0287
X4.6328Y-3.1414
X4.6561Y-2.2189
X4.6561Y-3.085
T3
X3.2004Y-2.7967
X3.2004Y-2.8754
X3.5114Y-2.9955
X3.5902Y-2.9955
X4.0114Y-2.95
X4.0114Y-3.05
X4.0114Y-3.15
T4
X3.0067Y-2.8031
X3.0067Y-2.9031
X3.1234Y-2.4209
X3.1234Y-2.5209
X3.2927Y-3.0114
X3.2927Y-3.1114
X3.4496Y-2.2201
X3.4496Y-2.3201
X3.885Y-2.1992
X3.985Y-2.1992
X4.085Y-2.1992
X4.1854Y-3.0564
X4.2854Y-3.0564
X4.3854Y-3.0564
T5
X2.5291Y-2.2189
X2.5291Y-3.085
X4.5764Y-2.2189
X4.5764Y-3.085
T0
M30
