%TF.GenerationSoftware,KiCad,Pcbnew,7.0.5-0*%
%TF.CreationDate,2024-02-16T16:17:37-04:00*%
%TF.ProjectId,PID Tile,50494420-5469-46c6-952e-6b696361645f,rev?*%
%TF.SameCoordinates,Original*%
%TF.FileFunction,Soldermask,Bot*%
%TF.FilePolarity,Negative*%
%FSLAX46Y46*%
G04 Gerber Fmt 4.6, Leading zero omitted, Abs format (unit mm)*
G04 Created by KiCad (PCBNEW 7.0.5-0) date 2024-02-16 16:17:37*
%MOMM*%
%LPD*%
G01*
G04 APERTURE LIST*
G04 Aperture macros list*
%AMRoundRect*
0 Rectangle with rounded corners*
0 $1 Rounding radius*
0 $2 $3 $4 $5 $6 $7 $8 $9 X,Y pos of 4 corners*
0 Add a 4 corners polygon primitive as box body*
4,1,4,$2,$3,$4,$5,$6,$7,$8,$9,$2,$3,0*
0 Add four circle primitives for the rounded corners*
1,1,$1+$1,$2,$3*
1,1,$1+$1,$4,$5*
1,1,$1+$1,$6,$7*
1,1,$1+$1,$8,$9*
0 Add four rect primitives between the rounded corners*
20,1,$1+$1,$2,$3,$4,$5,0*
20,1,$1+$1,$4,$5,$6,$7,0*
20,1,$1+$1,$6,$7,$8,$9,0*
20,1,$1+$1,$8,$9,$2,$3,0*%
G04 Aperture macros list end*
%ADD10C,0.200000*%
%ADD11C,4.100000*%
%ADD12C,0.800000*%
%ADD13C,5.400000*%
%ADD14RoundRect,0.250000X0.620000X0.845000X-0.620000X0.845000X-0.620000X-0.845000X0.620000X-0.845000X0*%
%ADD15O,1.740000X2.190000*%
%ADD16RoundRect,0.250000X-0.845000X0.620000X-0.845000X-0.620000X0.845000X-0.620000X0.845000X0.620000X0*%
%ADD17O,2.190000X1.740000*%
%ADD18RoundRect,0.250000X0.845000X-0.620000X0.845000X0.620000X-0.845000X0.620000X-0.845000X-0.620000X0*%
%ADD19R,1.350000X1.350000*%
%ADD20O,1.350000X1.350000*%
%ADD21C,1.440000*%
%ADD22RoundRect,0.237500X0.300000X0.237500X-0.300000X0.237500X-0.300000X-0.237500X0.300000X-0.237500X0*%
%ADD23RoundRect,0.237500X-0.237500X0.300000X-0.237500X-0.300000X0.237500X-0.300000X0.237500X0.300000X0*%
%ADD24RoundRect,0.237500X-0.300000X-0.237500X0.300000X-0.237500X0.300000X0.237500X-0.300000X0.237500X0*%
%ADD25RoundRect,0.250000X0.412500X0.650000X-0.412500X0.650000X-0.412500X-0.650000X0.412500X-0.650000X0*%
%ADD26RoundRect,0.250000X-0.325000X-0.450000X0.325000X-0.450000X0.325000X0.450000X-0.325000X0.450000X0*%
%ADD27RoundRect,0.237500X0.237500X-0.300000X0.237500X0.300000X-0.237500X0.300000X-0.237500X-0.300000X0*%
%ADD28RoundRect,0.250000X-0.650000X0.412500X-0.650000X-0.412500X0.650000X-0.412500X0.650000X0.412500X0*%
%ADD29RoundRect,0.250000X-0.412500X-0.650000X0.412500X-0.650000X0.412500X0.650000X-0.412500X0.650000X0*%
%ADD30RoundRect,0.250000X0.325000X0.450000X-0.325000X0.450000X-0.325000X-0.450000X0.325000X-0.450000X0*%
%ADD31RoundRect,0.250000X0.450000X-0.325000X0.450000X0.325000X-0.450000X0.325000X-0.450000X-0.325000X0*%
%ADD32RoundRect,0.250000X-0.450000X0.325000X-0.450000X-0.325000X0.450000X-0.325000X0.450000X0.325000X0*%
%ADD33RoundRect,0.237500X-0.237500X0.250000X-0.237500X-0.250000X0.237500X-0.250000X0.237500X0.250000X0*%
G04 APERTURE END LIST*
D10*
X118740000Y-56359600D02*
X120240000Y-56359600D01*
X120240000Y-78360000D01*
X118740000Y-78360000D01*
X118740000Y-56359600D01*
G36*
X118740000Y-56359600D02*
G01*
X120240000Y-56359600D01*
X120240000Y-78360000D01*
X118740000Y-78360000D01*
X118740000Y-56359600D01*
G37*
D11*
X66290000Y-78360000D02*
G75*
G03*
X66290000Y-78360000I-2050000J0D01*
G01*
X118290000Y-56360000D02*
G75*
G03*
X118290000Y-56360000I-2050000J0D01*
G01*
D10*
X60265000Y-55660000D02*
X61765000Y-55660000D01*
X61765000Y-77660400D01*
X60265000Y-77660400D01*
X60265000Y-55660000D01*
G36*
X60265000Y-55660000D02*
G01*
X61765000Y-55660000D01*
X61765000Y-77660400D01*
X60265000Y-77660400D01*
X60265000Y-55660000D01*
G37*
X64240000Y-52360000D02*
X116265000Y-52360000D01*
X116265000Y-53860000D01*
X64240000Y-53860000D01*
X64240000Y-52360000D01*
G36*
X64240000Y-52360000D02*
G01*
X116265000Y-52360000D01*
X116265000Y-53860000D01*
X64240000Y-53860000D01*
X64240000Y-52360000D01*
G37*
X64240000Y-80860000D02*
X117490000Y-80860000D01*
X117490000Y-82360000D01*
X64240000Y-82360000D01*
X64240000Y-80860000D01*
G36*
X64240000Y-80860000D02*
G01*
X117490000Y-80860000D01*
X117490000Y-82360000D01*
X64240000Y-82360000D01*
X64240000Y-80860000D01*
G37*
D11*
X66290000Y-56360000D02*
G75*
G03*
X66290000Y-56360000I-2050000J0D01*
G01*
X118290000Y-78360000D02*
G75*
G03*
X118290000Y-78360000I-2050000J0D01*
G01*
D12*
%TO.C,MH1*%
X62215000Y-56360000D03*
X62808109Y-54928109D03*
X62808109Y-57791891D03*
X64240000Y-54335000D03*
D13*
X64240000Y-56360000D03*
D12*
X64240000Y-58385000D03*
X65671891Y-54928109D03*
X65671891Y-57791891D03*
X66265000Y-56360000D03*
%TD*%
D14*
%TO.C,J1*%
X111389800Y-77633400D03*
D15*
X108849800Y-77633400D03*
X106309800Y-77633400D03*
%TD*%
D12*
%TO.C,MH4*%
X114215000Y-78360000D03*
X114808109Y-76928109D03*
X114808109Y-79791891D03*
X116240000Y-76335000D03*
D13*
X116240000Y-78360000D03*
D12*
X116240000Y-80385000D03*
X117671891Y-76928109D03*
X117671891Y-79791891D03*
X118265000Y-78360000D03*
%TD*%
%TO.C,MH3*%
X62215000Y-78360000D03*
X62808109Y-76928109D03*
X62808109Y-79791891D03*
X64240000Y-76335000D03*
D13*
X64240000Y-78360000D03*
D12*
X64240000Y-80385000D03*
X65671891Y-76928109D03*
X65671891Y-79791891D03*
X66265000Y-78360000D03*
%TD*%
D16*
%TO.C,J14*%
X87620000Y-56390000D03*
D17*
X87620000Y-58930000D03*
%TD*%
D14*
%TO.C,J17*%
X103760000Y-55860000D03*
D15*
X101220000Y-55860000D03*
X98680000Y-55860000D03*
%TD*%
D16*
%TO.C,J12*%
X76370000Y-71200000D03*
D17*
X76370000Y-73740000D03*
%TD*%
D12*
%TO.C,MH2*%
X114215000Y-56360000D03*
X114808109Y-54928109D03*
X114808109Y-57791891D03*
X116240000Y-54335000D03*
D13*
X116240000Y-56360000D03*
D12*
X116240000Y-58385000D03*
X117671891Y-54928109D03*
X117671891Y-57791891D03*
X118265000Y-56360000D03*
%TD*%
D18*
%TO.C,J15*%
X83635000Y-79030000D03*
D17*
X83635000Y-76490000D03*
%TD*%
D18*
%TO.C,J11*%
X79335000Y-64030000D03*
D17*
X79335000Y-61490000D03*
%TD*%
D19*
%TO.C,J16*%
X91190000Y-76085000D03*
D20*
X89190000Y-76085000D03*
%TD*%
D19*
%TO.C,J13*%
X81290000Y-71035000D03*
D20*
X81290000Y-73035000D03*
%TD*%
D21*
%TO.C,RV1*%
X101890000Y-74930000D03*
X101890000Y-77470000D03*
X101890000Y-80010000D03*
%TD*%
D22*
%TO.C,C14*%
X94837565Y-68645446D03*
X93112565Y-68645446D03*
%TD*%
D23*
%TO.C,C6*%
X107440000Y-68207500D03*
X107440000Y-69932500D03*
%TD*%
D24*
%TO.C,C15*%
X93102500Y-72010000D03*
X94827500Y-72010000D03*
%TD*%
D25*
%TO.C,C13*%
X98652500Y-58390000D03*
X95527500Y-58390000D03*
%TD*%
D26*
%TO.C,FB5*%
X93145073Y-70327029D03*
X95195073Y-70327029D03*
%TD*%
D27*
%TO.C,C18*%
X83640000Y-62722500D03*
X83640000Y-60997500D03*
%TD*%
D23*
%TO.C,C17*%
X100615000Y-66397500D03*
X100615000Y-68122500D03*
%TD*%
D28*
%TO.C,C3*%
X79170000Y-70907500D03*
X79170000Y-74032500D03*
%TD*%
D29*
%TO.C,C12*%
X102727500Y-61085000D03*
X105852500Y-61085000D03*
%TD*%
D30*
%TO.C,FB6*%
X102695000Y-64645000D03*
X100645000Y-64645000D03*
%TD*%
D31*
%TO.C,FB3*%
X91365000Y-70435000D03*
X91365000Y-68385000D03*
%TD*%
D22*
%TO.C,C19*%
X83622500Y-67960000D03*
X81897500Y-67960000D03*
%TD*%
D23*
%TO.C,C7*%
X110515000Y-66347500D03*
X110515000Y-68072500D03*
%TD*%
D25*
%TO.C,C5*%
X91577500Y-78760000D03*
X88452500Y-78760000D03*
%TD*%
D30*
%TO.C,FB1*%
X108940000Y-66460000D03*
X106890000Y-66460000D03*
%TD*%
D32*
%TO.C,FB2*%
X104470000Y-65980000D03*
X104470000Y-68030000D03*
%TD*%
D24*
%TO.C,C10*%
X104307500Y-64425000D03*
X106032500Y-64425000D03*
%TD*%
D23*
%TO.C,C11*%
X104440000Y-69647500D03*
X104440000Y-71372500D03*
%TD*%
D22*
%TO.C,C9*%
X89622500Y-68360000D03*
X87897500Y-68360000D03*
%TD*%
D23*
%TO.C,C8*%
X91570000Y-72057500D03*
X91570000Y-73782500D03*
%TD*%
D33*
%TO.C,R5*%
X83660000Y-69997500D03*
X83660000Y-71822500D03*
%TD*%
D32*
%TO.C,FB4*%
X83620000Y-64335000D03*
X83620000Y-66385000D03*
%TD*%
D22*
%TO.C,C16*%
X102702500Y-62965000D03*
X100977500Y-62965000D03*
%TD*%
M02*
