%TF.GenerationSoftware,KiCad,Pcbnew,7.0.5-0*%
%TF.CreationDate,2024-02-16T16:17:37-04:00*%
%TF.ProjectId,PID Tile,50494420-5469-46c6-952e-6b696361645f,rev?*%
%TF.SameCoordinates,Original*%
%TF.FileFunction,Paste,Bot*%
%TF.FilePolarity,Positive*%
%FSLAX46Y46*%
G04 Gerber Fmt 4.6, Leading zero omitted, Abs format (unit mm)*
G04 Created by KiCad (PCBNEW 7.0.5-0) date 2024-02-16 16:17:37*
%MOMM*%
%LPD*%
G01*
G04 APERTURE LIST*
G04 Aperture macros list*
%AMRoundRect*
0 Rectangle with rounded corners*
0 $1 Rounding radius*
0 $2 $3 $4 $5 $6 $7 $8 $9 X,Y pos of 4 corners*
0 Add a 4 corners polygon primitive as box body*
4,1,4,$2,$3,$4,$5,$6,$7,$8,$9,$2,$3,0*
0 Add four circle primitives for the rounded corners*
1,1,$1+$1,$2,$3*
1,1,$1+$1,$4,$5*
1,1,$1+$1,$6,$7*
1,1,$1+$1,$8,$9*
0 Add four rect primitives between the rounded corners*
20,1,$1+$1,$2,$3,$4,$5,0*
20,1,$1+$1,$4,$5,$6,$7,0*
20,1,$1+$1,$6,$7,$8,$9,0*
20,1,$1+$1,$8,$9,$2,$3,0*%
G04 Aperture macros list end*
%ADD10RoundRect,0.237500X0.300000X0.237500X-0.300000X0.237500X-0.300000X-0.237500X0.300000X-0.237500X0*%
%ADD11RoundRect,0.237500X-0.237500X0.300000X-0.237500X-0.300000X0.237500X-0.300000X0.237500X0.300000X0*%
%ADD12RoundRect,0.237500X-0.300000X-0.237500X0.300000X-0.237500X0.300000X0.237500X-0.300000X0.237500X0*%
%ADD13RoundRect,0.250000X0.412500X0.650000X-0.412500X0.650000X-0.412500X-0.650000X0.412500X-0.650000X0*%
%ADD14RoundRect,0.250000X-0.325000X-0.450000X0.325000X-0.450000X0.325000X0.450000X-0.325000X0.450000X0*%
%ADD15RoundRect,0.237500X0.237500X-0.300000X0.237500X0.300000X-0.237500X0.300000X-0.237500X-0.300000X0*%
%ADD16RoundRect,0.250000X-0.650000X0.412500X-0.650000X-0.412500X0.650000X-0.412500X0.650000X0.412500X0*%
%ADD17RoundRect,0.250000X-0.412500X-0.650000X0.412500X-0.650000X0.412500X0.650000X-0.412500X0.650000X0*%
%ADD18RoundRect,0.250000X0.325000X0.450000X-0.325000X0.450000X-0.325000X-0.450000X0.325000X-0.450000X0*%
%ADD19RoundRect,0.250000X0.450000X-0.325000X0.450000X0.325000X-0.450000X0.325000X-0.450000X-0.325000X0*%
%ADD20RoundRect,0.250000X-0.450000X0.325000X-0.450000X-0.325000X0.450000X-0.325000X0.450000X0.325000X0*%
%ADD21RoundRect,0.237500X-0.237500X0.250000X-0.237500X-0.250000X0.237500X-0.250000X0.237500X0.250000X0*%
G04 APERTURE END LIST*
D10*
%TO.C,C14*%
X94837565Y-68645446D03*
X93112565Y-68645446D03*
%TD*%
D11*
%TO.C,C6*%
X107440000Y-68207500D03*
X107440000Y-69932500D03*
%TD*%
D12*
%TO.C,C15*%
X93102500Y-72010000D03*
X94827500Y-72010000D03*
%TD*%
D13*
%TO.C,C13*%
X98652500Y-58390000D03*
X95527500Y-58390000D03*
%TD*%
D14*
%TO.C,FB5*%
X93145073Y-70327029D03*
X95195073Y-70327029D03*
%TD*%
D15*
%TO.C,C18*%
X83640000Y-62722500D03*
X83640000Y-60997500D03*
%TD*%
D11*
%TO.C,C17*%
X100615000Y-66397500D03*
X100615000Y-68122500D03*
%TD*%
D16*
%TO.C,C3*%
X79170000Y-70907500D03*
X79170000Y-74032500D03*
%TD*%
D17*
%TO.C,C12*%
X102727500Y-61085000D03*
X105852500Y-61085000D03*
%TD*%
D18*
%TO.C,FB6*%
X102695000Y-64645000D03*
X100645000Y-64645000D03*
%TD*%
D19*
%TO.C,FB3*%
X91365000Y-70435000D03*
X91365000Y-68385000D03*
%TD*%
D10*
%TO.C,C19*%
X83622500Y-67960000D03*
X81897500Y-67960000D03*
%TD*%
D11*
%TO.C,C7*%
X110515000Y-66347500D03*
X110515000Y-68072500D03*
%TD*%
D13*
%TO.C,C5*%
X91577500Y-78760000D03*
X88452500Y-78760000D03*
%TD*%
D18*
%TO.C,FB1*%
X108940000Y-66460000D03*
X106890000Y-66460000D03*
%TD*%
D20*
%TO.C,FB2*%
X104470000Y-65980000D03*
X104470000Y-68030000D03*
%TD*%
D12*
%TO.C,C10*%
X104307500Y-64425000D03*
X106032500Y-64425000D03*
%TD*%
D11*
%TO.C,C11*%
X104440000Y-69647500D03*
X104440000Y-71372500D03*
%TD*%
D10*
%TO.C,C9*%
X89622500Y-68360000D03*
X87897500Y-68360000D03*
%TD*%
D11*
%TO.C,C8*%
X91570000Y-72057500D03*
X91570000Y-73782500D03*
%TD*%
D21*
%TO.C,R5*%
X83660000Y-69997500D03*
X83660000Y-71822500D03*
%TD*%
D20*
%TO.C,FB4*%
X83620000Y-64335000D03*
X83620000Y-66385000D03*
%TD*%
D10*
%TO.C,C16*%
X102702500Y-62965000D03*
X100977500Y-62965000D03*
%TD*%
M02*
