%TF.GenerationSoftware,KiCad,Pcbnew,7.0.5-0*%
%TF.CreationDate,2024-05-16T10:38:20-03:00*%
%TF.ProjectId,Error Signal,4572726f-7220-4536-9967-6e616c2e6b69,rev?*%
%TF.SameCoordinates,Original*%
%TF.FileFunction,Soldermask,Top*%
%TF.FilePolarity,Negative*%
%FSLAX46Y46*%
G04 Gerber Fmt 4.6, Leading zero omitted, Abs format (unit mm)*
G04 Created by KiCad (PCBNEW 7.0.5-0) date 2024-05-16 10:38:20*
%MOMM*%
%LPD*%
G01*
G04 APERTURE LIST*
G04 Aperture macros list*
%AMRoundRect*
0 Rectangle with rounded corners*
0 $1 Rounding radius*
0 $2 $3 $4 $5 $6 $7 $8 $9 X,Y pos of 4 corners*
0 Add a 4 corners polygon primitive as box body*
4,1,4,$2,$3,$4,$5,$6,$7,$8,$9,$2,$3,0*
0 Add four circle primitives for the rounded corners*
1,1,$1+$1,$2,$3*
1,1,$1+$1,$4,$5*
1,1,$1+$1,$6,$7*
1,1,$1+$1,$8,$9*
0 Add four rect primitives between the rounded corners*
20,1,$1+$1,$2,$3,$4,$5,0*
20,1,$1+$1,$4,$5,$6,$7,0*
20,1,$1+$1,$6,$7,$8,$9,0*
20,1,$1+$1,$8,$9,$2,$3,0*%
%AMFreePoly0*
4,1,93,0.006530,2.344911,0.071157,2.344911,0.077575,2.343026,0.084259,2.342849,0.145712,2.323019,0.207708,2.304816,0.213335,2.301199,0.219699,2.299146,0.273087,2.262799,0.327430,2.227875,0.331809,2.222820,0.337338,2.219057,0.378328,2.169135,0.420627,2.120320,0.423405,2.114236,0.427649,2.109068,0.452917,2.049612,0.479746,1.990866,0.480697,1.984248,0.483314,1.978092,
0.490807,1.913930,0.500000,1.850000,0.500000,-1.850000,0.494911,-1.885393,0.494911,-1.921157,0.484834,-1.955473,0.479746,-1.990866,0.464892,-2.023391,0.454816,-2.057708,0.435481,-2.087793,0.420627,-2.120320,0.397209,-2.147345,0.377875,-2.177430,0.350848,-2.200848,0.327430,-2.227875,0.297345,-2.247209,0.270320,-2.270627,0.237793,-2.285481,0.207708,-2.304816,0.173391,-2.314892,
0.140866,-2.329746,0.105473,-2.334834,0.071157,-2.344911,0.035394,-2.344911,0.000000,-2.350000,-2.000000,-2.350000,-2.035394,-2.344911,-2.071157,-2.344911,-2.105473,-2.334834,-2.140866,-2.329746,-2.173391,-2.314892,-2.207708,-2.304816,-2.237793,-2.285481,-2.270320,-2.270627,-2.297345,-2.247209,-2.327430,-2.227875,-2.350848,-2.200848,-2.377875,-2.177430,-2.397209,-2.147345,-2.420627,-2.120320,
-2.435481,-2.087793,-2.454816,-2.057708,-2.464892,-2.023391,-2.479746,-1.990866,-2.484834,-1.955473,-2.494911,-1.921157,-2.494911,-1.885393,-2.500000,-1.850000,-2.500000,1.000000,-2.499048,1.006620,-2.499824,1.013263,-2.488937,1.076938,-2.479746,1.140866,-2.476968,1.146948,-2.475841,1.153542,-2.447458,1.211566,-2.420627,1.270320,-2.416246,1.275375,-2.413308,1.281383,-2.369734,1.329053,
-2.327430,1.377875,-2.321801,1.381491,-2.317291,1.386427,-2.262067,1.419881,-2.207708,1.454816,-2.201287,1.456701,-2.195570,1.460165,-0.195571,2.310165,-0.133159,2.326705,-0.071157,2.344911,-0.064465,2.344911,-0.058005,2.346623,0.006530,2.344911,0.006530,2.344911,$1*%
%AMFreePoly1*
4,1,93,0.064465,2.344911,0.071157,2.344911,0.133164,2.326703,0.195570,2.310165,2.195570,1.460166,2.201290,1.456700,2.207708,1.454816,2.262054,1.419889,2.317291,1.386427,2.321801,1.381491,2.327430,1.377875,2.369734,1.329053,2.413308,1.281383,2.416246,1.275375,2.420627,1.270320,2.447458,1.211566,2.475841,1.153542,2.476968,1.146948,2.479746,1.140866,2.488937,1.076938,
2.499824,1.013263,2.499048,1.006620,2.500000,1.000000,2.500000,-1.850000,2.494911,-1.885393,2.494911,-1.921157,2.484834,-1.955473,2.479746,-1.990866,2.464892,-2.023391,2.454816,-2.057708,2.435481,-2.087793,2.420627,-2.120320,2.397209,-2.147345,2.377875,-2.177430,2.350848,-2.200848,2.327430,-2.227875,2.297345,-2.247209,2.270320,-2.270627,2.237793,-2.285481,2.207708,-2.304816,
2.173391,-2.314892,2.140866,-2.329746,2.105473,-2.334834,2.071157,-2.344911,2.035394,-2.344911,2.000000,-2.350000,0.000000,-2.350000,-0.035394,-2.344911,-0.071157,-2.344911,-0.105473,-2.334834,-0.140866,-2.329746,-0.173391,-2.314892,-0.207708,-2.304816,-0.237793,-2.285481,-0.270320,-2.270627,-0.297345,-2.247209,-0.327430,-2.227875,-0.350848,-2.200848,-0.377875,-2.177430,-0.397209,-2.147345,
-0.420627,-2.120320,-0.435481,-2.087793,-0.454816,-2.057708,-0.464892,-2.023391,-0.479746,-1.990866,-0.484834,-1.955473,-0.494911,-1.921157,-0.494911,-1.885393,-0.500000,-1.850000,-0.500000,1.850000,-0.490807,1.913930,-0.483314,1.978092,-0.480697,1.984248,-0.479746,1.990866,-0.452925,2.049595,-0.427650,2.109068,-0.423404,2.114239,-0.420627,2.120320,-0.378336,2.169125,-0.337338,2.219057,
-0.331809,2.222820,-0.327430,2.227875,-0.273087,2.262799,-0.219699,2.299146,-0.213335,2.301199,-0.207708,2.304816,-0.145719,2.323017,-0.084260,2.342849,-0.077575,2.343026,-0.071157,2.344911,-0.006531,2.344911,0.058005,2.346623,0.064465,2.344911,0.064465,2.344911,$1*%
G04 Aperture macros list end*
%ADD10C,2.100000*%
%ADD11C,0.100000*%
%ADD12C,0.800000*%
%ADD13C,5.400000*%
%ADD14RoundRect,0.250000X0.650000X-0.412500X0.650000X0.412500X-0.650000X0.412500X-0.650000X-0.412500X0*%
%ADD15RoundRect,0.237500X0.250000X0.237500X-0.250000X0.237500X-0.250000X-0.237500X0.250000X-0.237500X0*%
%ADD16RoundRect,0.237500X-0.250000X-0.237500X0.250000X-0.237500X0.250000X0.237500X-0.250000X0.237500X0*%
%ADD17RoundRect,0.237500X0.237500X-0.250000X0.237500X0.250000X-0.237500X0.250000X-0.237500X-0.250000X0*%
%ADD18RoundRect,0.250000X2.290000X-0.250000X2.290000X0.250000X-2.290000X0.250000X-2.290000X-0.250000X0*%
%ADD19FreePoly0,90.000000*%
%ADD20FreePoly1,90.000000*%
%ADD21RoundRect,0.250000X0.620000X0.845000X-0.620000X0.845000X-0.620000X-0.845000X0.620000X-0.845000X0*%
%ADD22O,1.740000X2.190000*%
%ADD23RoundRect,0.250000X-0.250000X-2.290000X0.250000X-2.290000X0.250000X2.290000X-0.250000X2.290000X0*%
%ADD24FreePoly0,0.000000*%
%ADD25FreePoly1,0.000000*%
%ADD26RoundRect,0.250000X-2.290000X0.250000X-2.290000X-0.250000X2.290000X-0.250000X2.290000X0.250000X0*%
%ADD27FreePoly0,270.000000*%
%ADD28FreePoly1,270.000000*%
%ADD29RoundRect,0.237500X-0.237500X0.250000X-0.237500X-0.250000X0.237500X-0.250000X0.237500X0.250000X0*%
%ADD30RoundRect,0.150000X-0.150000X0.825000X-0.150000X-0.825000X0.150000X-0.825000X0.150000X0.825000X0*%
G04 APERTURE END LIST*
D10*
X136000000Y-121000000D02*
G75*
G03*
X139000000Y-124000000I3000000J0D01*
G01*
D11*
X154750000Y-97000000D02*
X139000000Y-97000000D01*
X139000000Y-95000000D01*
X154750000Y-95000000D01*
X154750000Y-97000000D01*
G36*
X154750000Y-97000000D02*
G01*
X139000000Y-97000000D01*
X139000000Y-95000000D01*
X154750000Y-95000000D01*
X154750000Y-97000000D01*
G37*
X161000000Y-123000000D02*
X161000000Y-125000000D01*
X149236200Y-124974600D01*
X149236200Y-122974600D01*
X161000000Y-123000000D01*
G36*
X161000000Y-123000000D02*
G01*
X161000000Y-125000000D01*
X149236200Y-124974600D01*
X149236200Y-122974600D01*
X161000000Y-123000000D01*
G37*
D10*
X139000000Y-96000000D02*
G75*
G03*
X136000000Y-99000000I0J-3000000D01*
G01*
D11*
X161000000Y-97000000D02*
X154750000Y-97000000D01*
X154750000Y-95000000D01*
X161000000Y-95000000D01*
X161000000Y-97000000D01*
G36*
X161000000Y-97000000D02*
G01*
X154750000Y-97000000D01*
X154750000Y-95000000D01*
X161000000Y-95000000D01*
X161000000Y-97000000D01*
G37*
X165000000Y-121000000D02*
X163000000Y-121000000D01*
X163000000Y-114750000D01*
X165000000Y-114750000D01*
X165000000Y-121000000D01*
G36*
X165000000Y-121000000D02*
G01*
X163000000Y-121000000D01*
X163000000Y-114750000D01*
X165000000Y-114750000D01*
X165000000Y-121000000D01*
G37*
D10*
X164000000Y-99000000D02*
G75*
G03*
X161000000Y-96000000I-3000000J0D01*
G01*
X161000000Y-124000000D02*
G75*
G03*
X164000000Y-121000000I0J3000000D01*
G01*
D11*
X137000000Y-105250000D02*
X135000000Y-105250000D01*
X135000000Y-99000000D01*
X137000000Y-99000000D01*
X137000000Y-105250000D01*
G36*
X137000000Y-105250000D02*
G01*
X135000000Y-105250000D01*
X135000000Y-99000000D01*
X137000000Y-99000000D01*
X137000000Y-105250000D01*
G37*
X165000000Y-105250000D02*
X163000000Y-105250000D01*
X163000000Y-99000000D01*
X165000000Y-99000000D01*
X165000000Y-105250000D01*
G36*
X165000000Y-105250000D02*
G01*
X163000000Y-105250000D01*
X163000000Y-99000000D01*
X165000000Y-99000000D01*
X165000000Y-105250000D01*
G37*
X137000000Y-121000000D02*
X135000000Y-121000000D01*
X135000000Y-114750000D01*
X137000000Y-114750000D01*
X137000000Y-121000000D01*
G36*
X137000000Y-121000000D02*
G01*
X135000000Y-121000000D01*
X135000000Y-114750000D01*
X137000000Y-114750000D01*
X137000000Y-121000000D01*
G37*
D12*
%TO.C,MH1*%
X136975000Y-99000000D03*
X137568109Y-97568109D03*
X137568109Y-100431891D03*
X139000000Y-96975000D03*
D13*
X139000000Y-99000000D03*
D12*
X139000000Y-101025000D03*
X140431891Y-97568109D03*
X140431891Y-100431891D03*
X141025000Y-99000000D03*
%TD*%
D14*
%TO.C,C6*%
X144335800Y-100437300D03*
X144335800Y-97312300D03*
%TD*%
D15*
%TO.C,R9*%
X158162500Y-109850000D03*
X156337500Y-109850000D03*
%TD*%
D12*
%TO.C,MH4*%
X158975000Y-121000000D03*
X159568109Y-119568109D03*
X159568109Y-122431891D03*
X161000000Y-118975000D03*
D13*
X161000000Y-121000000D03*
D12*
X161000000Y-123025000D03*
X162431891Y-119568109D03*
X162431891Y-122431891D03*
X163025000Y-121000000D03*
%TD*%
%TO.C,MH3*%
X136975000Y-121000000D03*
X137568109Y-119568109D03*
X137568109Y-122431891D03*
X139000000Y-118975000D03*
D13*
X139000000Y-121000000D03*
D12*
X139000000Y-123025000D03*
X140431891Y-119568109D03*
X140431891Y-122431891D03*
X141025000Y-121000000D03*
%TD*%
D16*
%TO.C,R6*%
X154737500Y-118750000D03*
X156562500Y-118750000D03*
%TD*%
D17*
%TO.C,R3*%
X144511299Y-112192165D03*
X144511299Y-110367165D03*
%TD*%
D18*
%TO.C,J4*%
X162435000Y-110000000D03*
D19*
X162435000Y-105750000D03*
D20*
X162435000Y-114250000D03*
%TD*%
D21*
%TO.C,J1*%
X152463800Y-100429600D03*
D22*
X149923800Y-100429600D03*
X147383800Y-100429600D03*
%TD*%
D17*
%TO.C,R1*%
X151948507Y-112191678D03*
X151948507Y-110366678D03*
%TD*%
D23*
%TO.C,J7*%
X144500000Y-122435000D03*
D24*
X148750000Y-122435000D03*
D25*
X140250000Y-122435000D03*
%TD*%
D14*
%TO.C,C5*%
X155486400Y-100462700D03*
X155486400Y-97337700D03*
%TD*%
D12*
%TO.C,MH2*%
X158975000Y-99000000D03*
X159568109Y-97568109D03*
X159568109Y-100431891D03*
X161000000Y-96975000D03*
D13*
X161000000Y-99000000D03*
D12*
X161000000Y-101025000D03*
X162431891Y-97568109D03*
X162431891Y-100431891D03*
X163025000Y-99000000D03*
%TD*%
D16*
%TO.C,R2*%
X140905971Y-109999999D03*
X142730971Y-109999999D03*
%TD*%
D26*
%TO.C,J3*%
X137565000Y-110000000D03*
D27*
X137565000Y-114250000D03*
D28*
X137565000Y-105750000D03*
%TD*%
D16*
%TO.C,R4*%
X152912500Y-120225000D03*
X154737500Y-120225000D03*
%TD*%
D29*
%TO.C,R5*%
X156336188Y-106537038D03*
X156336188Y-108362038D03*
%TD*%
D30*
%TO.C,U1*%
X157605000Y-111825000D03*
X156335000Y-111825000D03*
X155065000Y-111825000D03*
X153795000Y-111825000D03*
X153795000Y-116775000D03*
X155065000Y-116775000D03*
X156335000Y-116775000D03*
X157605000Y-116775000D03*
%TD*%
M02*
