%TF.GenerationSoftware,KiCad,Pcbnew,7.0.5-0*%
%TF.CreationDate,2024-05-16T10:38:19-03:00*%
%TF.ProjectId,Error Signal,4572726f-7220-4536-9967-6e616c2e6b69,rev?*%
%TF.SameCoordinates,Original*%
%TF.FileFunction,Copper,L3,Inr*%
%TF.FilePolarity,Positive*%
%FSLAX46Y46*%
G04 Gerber Fmt 4.6, Leading zero omitted, Abs format (unit mm)*
G04 Created by KiCad (PCBNEW 7.0.5-0) date 2024-05-16 10:38:19*
%MOMM*%
%LPD*%
G01*
G04 APERTURE LIST*
G04 Aperture macros list*
%AMRoundRect*
0 Rectangle with rounded corners*
0 $1 Rounding radius*
0 $2 $3 $4 $5 $6 $7 $8 $9 X,Y pos of 4 corners*
0 Add a 4 corners polygon primitive as box body*
4,1,4,$2,$3,$4,$5,$6,$7,$8,$9,$2,$3,0*
0 Add four circle primitives for the rounded corners*
1,1,$1+$1,$2,$3*
1,1,$1+$1,$4,$5*
1,1,$1+$1,$6,$7*
1,1,$1+$1,$8,$9*
0 Add four rect primitives between the rounded corners*
20,1,$1+$1,$2,$3,$4,$5,0*
20,1,$1+$1,$4,$5,$6,$7,0*
20,1,$1+$1,$6,$7,$8,$9,0*
20,1,$1+$1,$8,$9,$2,$3,0*%
G04 Aperture macros list end*
%TA.AperFunction,ComponentPad*%
%ADD10C,0.800000*%
%TD*%
%TA.AperFunction,ComponentPad*%
%ADD11C,5.400000*%
%TD*%
%TA.AperFunction,ComponentPad*%
%ADD12RoundRect,0.250000X0.620000X0.845000X-0.620000X0.845000X-0.620000X-0.845000X0.620000X-0.845000X0*%
%TD*%
%TA.AperFunction,ComponentPad*%
%ADD13O,1.740000X2.190000*%
%TD*%
%TA.AperFunction,ViaPad*%
%ADD14C,0.600000*%
%TD*%
G04 APERTURE END LIST*
D10*
%TO.N,GND*%
%TO.C,MH1*%
X136975000Y-99000000D03*
X137568109Y-97568109D03*
X137568109Y-100431891D03*
X139000000Y-96975000D03*
D11*
X139000000Y-99000000D03*
D10*
X139000000Y-101025000D03*
X140431891Y-97568109D03*
X140431891Y-100431891D03*
X141025000Y-99000000D03*
%TD*%
%TO.N,GND*%
%TO.C,MH4*%
X158975000Y-121000000D03*
X159568109Y-119568109D03*
X159568109Y-122431891D03*
X161000000Y-118975000D03*
D11*
X161000000Y-121000000D03*
D10*
X161000000Y-123025000D03*
X162431891Y-119568109D03*
X162431891Y-122431891D03*
X163025000Y-121000000D03*
%TD*%
%TO.N,GND*%
%TO.C,MH3*%
X136975000Y-121000000D03*
X137568109Y-119568109D03*
X137568109Y-122431891D03*
X139000000Y-118975000D03*
D11*
X139000000Y-121000000D03*
D10*
X139000000Y-123025000D03*
X140431891Y-119568109D03*
X140431891Y-122431891D03*
X141025000Y-121000000D03*
%TD*%
D12*
%TO.N,/+12V*%
%TO.C,J1*%
X152463800Y-100429600D03*
D13*
%TO.N,GND*%
X149923800Y-100429600D03*
%TO.N,/-12V*%
X147383800Y-100429600D03*
%TD*%
D10*
%TO.N,GND*%
%TO.C,MH2*%
X158975000Y-99000000D03*
X159568109Y-97568109D03*
X159568109Y-100431891D03*
X161000000Y-96975000D03*
D11*
X161000000Y-99000000D03*
D10*
X161000000Y-101025000D03*
X162431891Y-97568109D03*
X162431891Y-100431891D03*
X163025000Y-99000000D03*
%TD*%
D14*
%TO.N,GND*%
X164250000Y-117525368D03*
X148050000Y-109275000D03*
X160750000Y-106750000D03*
X158153846Y-123250000D03*
X144335800Y-98874800D03*
X142865384Y-123250000D03*
X162750000Y-108500000D03*
X145550000Y-109275000D03*
X155825000Y-119675000D03*
X160750000Y-113000000D03*
X140447425Y-95750000D03*
X159620501Y-124250000D03*
X155254835Y-113314982D03*
X157215635Y-96750000D03*
X137000000Y-108500000D03*
X141466655Y-95750000D03*
X135500000Y-106750000D03*
X145225000Y-117375000D03*
X163250000Y-102964285D03*
X147450000Y-105550000D03*
X164500000Y-113000000D03*
X139250000Y-108500000D03*
X158228319Y-96750000D03*
X164250000Y-116512684D03*
X143775000Y-117375000D03*
X143505117Y-95750000D03*
X135750000Y-120563421D03*
X135750000Y-97799225D03*
X135750000Y-101933075D03*
X152650000Y-102100000D03*
X163250000Y-123250000D03*
X138500000Y-108500000D03*
X164250000Y-118538053D03*
X143038053Y-96750000D03*
X163250000Y-116607142D03*
X139250000Y-111500000D03*
X138500000Y-111500000D03*
X135750000Y-98832687D03*
X155190266Y-96750000D03*
X163750000Y-113000000D03*
X155175000Y-104875000D03*
X158793578Y-95750000D03*
X153975000Y-103675000D03*
X150725000Y-117450000D03*
X149075000Y-107175000D03*
X158650000Y-108725000D03*
X141012684Y-96750000D03*
X136750000Y-102964285D03*
X156429075Y-114207473D03*
X137000000Y-111500000D03*
X137750000Y-106750000D03*
X164250000Y-102966537D03*
X154716655Y-95750000D03*
X143417551Y-124250000D03*
X163000000Y-106750000D03*
X135500000Y-107500000D03*
X155150000Y-101675000D03*
X156700000Y-103075000D03*
X164250000Y-99866150D03*
X137000000Y-113000000D03*
X143775000Y-113100000D03*
X157213600Y-100525800D03*
X157250000Y-97750000D03*
X135750000Y-100899612D03*
X157595132Y-124250000D03*
X141846153Y-123250000D03*
X164250000Y-121576106D03*
X156202950Y-96750000D03*
X151400000Y-120600000D03*
X152525000Y-121450000D03*
X136750000Y-117714285D03*
X163250000Y-118821428D03*
X149625000Y-116350000D03*
X135750000Y-118538053D03*
X163500000Y-111500000D03*
X164250000Y-101933075D03*
X152050000Y-115000000D03*
X163250000Y-96750000D03*
X161500000Y-113000000D03*
X160633185Y-124250000D03*
X164250000Y-100899612D03*
X142025369Y-96750000D03*
X137000000Y-106750000D03*
X159525000Y-108800000D03*
X135750000Y-99866150D03*
X155735886Y-95750000D03*
X135500000Y-108500000D03*
X160917312Y-95750000D03*
X146425000Y-112425000D03*
X136250000Y-106750000D03*
X148050000Y-110725000D03*
X152250000Y-106975000D03*
X159173076Y-123250000D03*
X150425000Y-110750000D03*
X150200000Y-118575000D03*
X157134615Y-123250000D03*
X163750000Y-106750000D03*
X135750000Y-117525368D03*
X157774348Y-95750000D03*
X150700000Y-112325000D03*
X158575000Y-105150000D03*
X139250000Y-106750000D03*
X137750000Y-113000000D03*
X164250000Y-97799225D03*
X137750000Y-108500000D03*
X135750000Y-121576106D03*
X146723400Y-97909600D03*
X136250000Y-111500000D03*
X164250000Y-111500000D03*
X160500000Y-108500000D03*
X146375000Y-104150000D03*
X162000000Y-111500000D03*
X143475000Y-110800000D03*
X163000000Y-113000000D03*
X158750000Y-107225000D03*
X143775000Y-119500000D03*
X139366814Y-124250000D03*
X142485886Y-95750000D03*
X136750000Y-118821428D03*
X158607817Y-124250000D03*
X143775000Y-115125000D03*
X136250000Y-113000000D03*
X142404867Y-124250000D03*
X162250000Y-113000000D03*
X139082687Y-95750000D03*
X162750000Y-111500000D03*
X145225000Y-115125000D03*
X140000000Y-108500000D03*
X145225000Y-119500000D03*
X142604999Y-121954999D03*
X154900000Y-121450000D03*
X150975000Y-105600000D03*
X151275000Y-114125000D03*
X158725000Y-111150000D03*
X152032000Y-97909600D03*
X154725000Y-108450000D03*
X160000000Y-106750000D03*
X161645870Y-124250000D03*
X161500000Y-106750000D03*
X150250000Y-114975000D03*
X136750000Y-96750000D03*
X140000000Y-113000000D03*
X164250000Y-120563421D03*
X163250000Y-101928571D03*
X164250000Y-119550737D03*
X137750000Y-111500000D03*
X135500000Y-113000000D03*
X164500000Y-112250000D03*
X150550000Y-108375000D03*
X135500000Y-111500000D03*
X158700000Y-115925000D03*
X149675000Y-104325000D03*
X156755117Y-95750000D03*
X155125000Y-109500000D03*
X140379498Y-124250000D03*
X144050738Y-96750000D03*
X163500000Y-108500000D03*
X156575000Y-106000000D03*
X158004999Y-121954999D03*
X136750000Y-123250000D03*
X164500000Y-106750000D03*
X161250000Y-108500000D03*
X145550000Y-110725000D03*
X164250000Y-98832687D03*
X162250000Y-106750000D03*
X161250000Y-111500000D03*
X162000000Y-108500000D03*
X150425000Y-109275000D03*
X160500000Y-111500000D03*
X145225000Y-113100000D03*
X140000000Y-106750000D03*
X163250000Y-117714285D03*
X138500000Y-113000000D03*
X139250000Y-113000000D03*
X155486400Y-98900200D03*
X136250000Y-108500000D03*
X138500000Y-106750000D03*
X140000000Y-111500000D03*
X148450000Y-103250000D03*
X149339600Y-97960400D03*
X160000000Y-113000000D03*
X135750000Y-119550737D03*
X164500000Y-107750000D03*
X159802575Y-95750000D03*
X138354129Y-124250000D03*
X136750000Y-101928571D03*
X138049225Y-95750000D03*
X143000000Y-98000000D03*
X141392182Y-124250000D03*
X164250000Y-108500000D03*
X135500000Y-112250000D03*
X161950774Y-95750000D03*
X144524348Y-95750000D03*
X153300000Y-107975000D03*
X152100000Y-116775000D03*
X135750000Y-102966537D03*
%TD*%
%TA.AperFunction,Conductor*%
%TO.N,GND*%
G36*
X161001265Y-95000558D02*
G01*
X161172881Y-95008492D01*
X161366858Y-95018022D01*
X161368158Y-95018101D01*
X161376434Y-95018712D01*
X161380010Y-95019093D01*
X161550277Y-95042844D01*
X161563343Y-95044667D01*
X161750114Y-95072372D01*
X161754601Y-95073231D01*
X161939373Y-95116689D01*
X162078863Y-95151630D01*
X162120424Y-95162041D01*
X162124595Y-95163260D01*
X162151848Y-95172394D01*
X162305112Y-95223763D01*
X162305940Y-95224049D01*
X162480559Y-95286529D01*
X162484254Y-95288004D01*
X162658798Y-95365072D01*
X162660088Y-95365662D01*
X162827161Y-95444681D01*
X162830429Y-95446362D01*
X162921429Y-95497049D01*
X162997371Y-95539349D01*
X162998904Y-95540235D01*
X163157134Y-95635074D01*
X163159945Y-95636876D01*
X163317776Y-95744993D01*
X163319426Y-95746169D01*
X163467508Y-95855994D01*
X163469869Y-95857848D01*
X163514395Y-95894822D01*
X163617100Y-95980108D01*
X163618924Y-95981690D01*
X163755427Y-96105409D01*
X163757388Y-96107276D01*
X163892721Y-96242609D01*
X163894589Y-96244571D01*
X164018308Y-96381074D01*
X164019890Y-96382898D01*
X164142140Y-96530116D01*
X164144012Y-96532501D01*
X164234355Y-96654314D01*
X164253820Y-96680560D01*
X164255021Y-96682244D01*
X164363112Y-96840038D01*
X164364924Y-96842864D01*
X164459763Y-97001094D01*
X164460649Y-97002627D01*
X164553630Y-97169557D01*
X164555323Y-97172850D01*
X164634336Y-97339910D01*
X164634938Y-97341227D01*
X164711983Y-97515716D01*
X164713475Y-97519455D01*
X164775904Y-97693930D01*
X164776273Y-97694996D01*
X164836738Y-97875403D01*
X164837957Y-97879574D01*
X164883316Y-98060651D01*
X164903720Y-98147405D01*
X164926759Y-98245361D01*
X164927635Y-98249933D01*
X164955325Y-98436613D01*
X164980904Y-98619978D01*
X164981288Y-98623581D01*
X164981892Y-98631777D01*
X164981976Y-98633143D01*
X164991520Y-98827395D01*
X164999440Y-98998713D01*
X164999500Y-99001288D01*
X164999500Y-120998711D01*
X164999440Y-121001286D01*
X164991520Y-121172603D01*
X164981977Y-121366857D01*
X164981893Y-121368230D01*
X164981287Y-121376429D01*
X164980903Y-121380024D01*
X164955325Y-121563385D01*
X164927635Y-121750065D01*
X164926757Y-121754652D01*
X164883316Y-121939347D01*
X164837957Y-122120424D01*
X164836738Y-122124595D01*
X164776273Y-122305002D01*
X164775904Y-122306068D01*
X164713475Y-122480543D01*
X164711983Y-122484282D01*
X164634938Y-122658771D01*
X164634336Y-122660088D01*
X164555323Y-122827148D01*
X164553630Y-122830441D01*
X164460649Y-122997371D01*
X164459763Y-122998904D01*
X164364924Y-123157134D01*
X164363099Y-123159980D01*
X164255035Y-123317734D01*
X164253820Y-123319438D01*
X164144029Y-123467476D01*
X164142140Y-123469882D01*
X164019890Y-123617100D01*
X164018308Y-123618924D01*
X163894589Y-123755427D01*
X163892702Y-123757409D01*
X163757409Y-123892702D01*
X163755427Y-123894589D01*
X163618924Y-124018308D01*
X163617100Y-124019890D01*
X163469882Y-124142140D01*
X163467476Y-124144029D01*
X163319438Y-124253820D01*
X163317734Y-124255035D01*
X163159980Y-124363099D01*
X163157134Y-124364924D01*
X162998904Y-124459763D01*
X162997371Y-124460649D01*
X162830441Y-124553630D01*
X162827148Y-124555323D01*
X162660088Y-124634336D01*
X162658771Y-124634938D01*
X162484282Y-124711983D01*
X162480543Y-124713475D01*
X162306068Y-124775904D01*
X162305002Y-124776273D01*
X162124595Y-124836738D01*
X162120424Y-124837957D01*
X161939347Y-124883316D01*
X161784102Y-124919830D01*
X161754647Y-124926757D01*
X161750067Y-124927634D01*
X161737294Y-124929529D01*
X161563385Y-124955325D01*
X161380024Y-124980903D01*
X161376429Y-124981287D01*
X161369799Y-124981777D01*
X161368209Y-124981894D01*
X161366857Y-124981977D01*
X161172657Y-124991517D01*
X161001287Y-124999440D01*
X160998712Y-124999500D01*
X139001288Y-124999500D01*
X138998713Y-124999440D01*
X138827340Y-124991517D01*
X138633143Y-124981976D01*
X138631778Y-124981892D01*
X138623581Y-124981288D01*
X138619978Y-124980904D01*
X138436613Y-124955325D01*
X138294308Y-124934217D01*
X138249923Y-124927633D01*
X138245361Y-124926759D01*
X138147405Y-124903720D01*
X138060651Y-124883316D01*
X137879574Y-124837957D01*
X137875403Y-124836738D01*
X137694996Y-124776273D01*
X137693947Y-124775910D01*
X137648869Y-124759780D01*
X137519455Y-124713475D01*
X137515716Y-124711983D01*
X137341227Y-124634938D01*
X137339910Y-124634336D01*
X137172850Y-124555323D01*
X137169557Y-124553630D01*
X137002627Y-124460649D01*
X137001094Y-124459763D01*
X136842864Y-124364924D01*
X136840038Y-124363112D01*
X136682244Y-124255021D01*
X136680560Y-124253820D01*
X136654314Y-124234355D01*
X136532501Y-124144012D01*
X136530116Y-124142140D01*
X136382898Y-124019890D01*
X136381074Y-124018308D01*
X136244571Y-123894589D01*
X136242609Y-123892721D01*
X136107276Y-123757388D01*
X136105409Y-123755427D01*
X135981690Y-123618924D01*
X135980108Y-123617100D01*
X135894822Y-123514395D01*
X135857848Y-123469869D01*
X135855994Y-123467508D01*
X135746169Y-123319426D01*
X135744993Y-123317776D01*
X135636876Y-123159945D01*
X135635074Y-123157134D01*
X135540235Y-122998904D01*
X135539349Y-122997371D01*
X135446368Y-122830441D01*
X135444681Y-122827161D01*
X135365662Y-122660088D01*
X135365060Y-122658771D01*
X135288004Y-122484254D01*
X135286529Y-122480559D01*
X135224049Y-122305940D01*
X135223763Y-122305112D01*
X135163260Y-122124595D01*
X135162041Y-122120424D01*
X135151630Y-122078863D01*
X135116683Y-121939347D01*
X135073231Y-121754601D01*
X135072372Y-121750114D01*
X135044667Y-121563343D01*
X135042844Y-121550277D01*
X135019093Y-121380010D01*
X135018711Y-121376422D01*
X135018107Y-121368230D01*
X135018101Y-121368158D01*
X135018022Y-121366846D01*
X135008493Y-121172896D01*
X135000558Y-121001264D01*
X135000500Y-120998713D01*
X135000500Y-120225002D01*
X152507008Y-120225002D01*
X152526852Y-120350301D01*
X152526854Y-120350304D01*
X152584450Y-120463342D01*
X152674158Y-120553050D01*
X152674160Y-120553051D01*
X152787198Y-120610647D01*
X152787197Y-120610647D01*
X152912498Y-120630492D01*
X152912500Y-120630492D01*
X152912502Y-120630492D01*
X153037801Y-120610647D01*
X153037802Y-120610646D01*
X153037804Y-120610646D01*
X153150842Y-120553050D01*
X153240550Y-120463342D01*
X153298146Y-120350304D01*
X153298146Y-120350302D01*
X153298147Y-120350301D01*
X153317992Y-120225002D01*
X153317992Y-120224997D01*
X153298147Y-120099698D01*
X153240551Y-119986660D01*
X153240550Y-119986658D01*
X153150842Y-119896950D01*
X153150840Y-119896949D01*
X153150839Y-119896948D01*
X153037801Y-119839352D01*
X153037802Y-119839352D01*
X152912502Y-119819508D01*
X152912498Y-119819508D01*
X152787198Y-119839352D01*
X152674160Y-119896948D01*
X152674156Y-119896951D01*
X152584451Y-119986656D01*
X152584448Y-119986660D01*
X152526852Y-120099698D01*
X152507008Y-120224997D01*
X152507008Y-120225002D01*
X135000500Y-120225002D01*
X135000500Y-116425002D01*
X157219508Y-116425002D01*
X157239352Y-116550301D01*
X157239354Y-116550304D01*
X157296950Y-116663342D01*
X157386658Y-116753050D01*
X157386660Y-116753051D01*
X157499698Y-116810647D01*
X157499697Y-116810647D01*
X157624998Y-116830492D01*
X157625000Y-116830492D01*
X157625002Y-116830492D01*
X157750301Y-116810647D01*
X157750302Y-116810646D01*
X157750304Y-116810646D01*
X157863342Y-116753050D01*
X157953050Y-116663342D01*
X158010646Y-116550304D01*
X158010646Y-116550302D01*
X158010647Y-116550301D01*
X158030492Y-116425002D01*
X158030492Y-116424997D01*
X158010647Y-116299698D01*
X157953051Y-116186660D01*
X157953050Y-116186658D01*
X157863342Y-116096950D01*
X157863340Y-116096949D01*
X157863339Y-116096948D01*
X157750301Y-116039352D01*
X157750302Y-116039352D01*
X157625002Y-116019508D01*
X157624998Y-116019508D01*
X157499698Y-116039352D01*
X157386660Y-116096948D01*
X157386656Y-116096951D01*
X157296951Y-116186656D01*
X157296948Y-116186660D01*
X157239352Y-116299698D01*
X157219508Y-116424997D01*
X157219508Y-116425002D01*
X135000500Y-116425002D01*
X135000500Y-111425002D01*
X153394508Y-111425002D01*
X153414352Y-111550301D01*
X153414354Y-111550304D01*
X153471950Y-111663342D01*
X153561658Y-111753050D01*
X153561660Y-111753051D01*
X153674698Y-111810647D01*
X153674697Y-111810647D01*
X153799998Y-111830492D01*
X153800000Y-111830492D01*
X153800002Y-111830492D01*
X153925301Y-111810647D01*
X153925302Y-111810646D01*
X153925304Y-111810646D01*
X154038342Y-111753050D01*
X154128050Y-111663342D01*
X154185646Y-111550304D01*
X154185646Y-111550302D01*
X154185647Y-111550301D01*
X154205492Y-111425002D01*
X154205492Y-111424997D01*
X154185647Y-111299698D01*
X154128051Y-111186660D01*
X154128050Y-111186658D01*
X154038342Y-111096950D01*
X154038340Y-111096949D01*
X154038339Y-111096948D01*
X153925301Y-111039352D01*
X153925302Y-111039352D01*
X153800002Y-111019508D01*
X153799998Y-111019508D01*
X153674698Y-111039352D01*
X153561660Y-111096948D01*
X153561656Y-111096951D01*
X153471951Y-111186656D01*
X153471948Y-111186660D01*
X153414352Y-111299698D01*
X153394508Y-111424997D01*
X153394508Y-111425002D01*
X135000500Y-111425002D01*
X135000500Y-100707193D01*
X146313300Y-100707193D01*
X146328789Y-100864455D01*
X146390001Y-101066245D01*
X146489405Y-101252216D01*
X146623179Y-101415221D01*
X146786184Y-101548995D01*
X146972155Y-101648399D01*
X147173945Y-101709611D01*
X147364983Y-101728426D01*
X147383799Y-101730280D01*
X147383800Y-101730280D01*
X147383801Y-101730280D01*
X147401068Y-101728579D01*
X147593655Y-101709611D01*
X147795445Y-101648399D01*
X147981416Y-101548995D01*
X148144421Y-101415221D01*
X148215293Y-101328863D01*
X151393300Y-101328863D01*
X151396154Y-101359301D01*
X151441007Y-101487483D01*
X151481328Y-101542116D01*
X151521650Y-101596750D01*
X151591631Y-101648398D01*
X151630916Y-101677392D01*
X151630917Y-101677392D01*
X151630918Y-101677393D01*
X151759101Y-101722246D01*
X151789534Y-101725100D01*
X151789541Y-101725100D01*
X153138059Y-101725100D01*
X153138066Y-101725100D01*
X153168499Y-101722246D01*
X153296682Y-101677393D01*
X153405950Y-101596750D01*
X153486593Y-101487482D01*
X153531446Y-101359299D01*
X153534300Y-101328866D01*
X153534300Y-99530334D01*
X153531446Y-99499901D01*
X153486593Y-99371718D01*
X153405950Y-99262450D01*
X153335968Y-99210801D01*
X153296683Y-99181807D01*
X153168501Y-99136954D01*
X153156325Y-99135812D01*
X153138066Y-99134100D01*
X151789534Y-99134100D01*
X151777360Y-99135241D01*
X151759098Y-99136954D01*
X151630916Y-99181807D01*
X151521650Y-99262450D01*
X151441007Y-99371716D01*
X151396154Y-99499898D01*
X151393300Y-99530336D01*
X151393300Y-101328863D01*
X148215293Y-101328863D01*
X148278195Y-101252216D01*
X148377599Y-101066245D01*
X148438811Y-100864455D01*
X148454300Y-100707193D01*
X148454300Y-100152007D01*
X148438811Y-99994745D01*
X148377599Y-99792955D01*
X148278195Y-99606984D01*
X148144421Y-99443979D01*
X147981416Y-99310205D01*
X147981413Y-99310203D01*
X147981411Y-99310202D01*
X147892073Y-99262450D01*
X147795445Y-99210801D01*
X147593655Y-99149589D01*
X147465370Y-99136954D01*
X147383801Y-99128920D01*
X147383799Y-99128920D01*
X147173945Y-99149589D01*
X146972155Y-99210801D01*
X146786188Y-99310202D01*
X146786185Y-99310204D01*
X146623179Y-99443979D01*
X146489404Y-99606985D01*
X146489402Y-99606988D01*
X146390001Y-99792955D01*
X146328789Y-99994745D01*
X146313300Y-100152007D01*
X146313300Y-100707193D01*
X135000500Y-100707193D01*
X135000500Y-99001285D01*
X135000559Y-98998713D01*
X135008491Y-98827145D01*
X135018024Y-98633107D01*
X135018106Y-98631782D01*
X135018713Y-98623542D01*
X135019091Y-98620002D01*
X135044673Y-98436613D01*
X135072373Y-98249876D01*
X135073229Y-98245407D01*
X135116696Y-98060594D01*
X135162042Y-97879568D01*
X135163260Y-97875403D01*
X135223785Y-97694821D01*
X135224028Y-97694119D01*
X135286536Y-97519420D01*
X135287995Y-97515764D01*
X135365099Y-97341140D01*
X135365639Y-97339959D01*
X135444693Y-97172813D01*
X135446348Y-97169594D01*
X135539368Y-97002593D01*
X135540218Y-97001123D01*
X135635092Y-96842835D01*
X135636856Y-96840084D01*
X135745029Y-96682170D01*
X135746132Y-96680623D01*
X135856021Y-96532455D01*
X135857819Y-96530165D01*
X135980117Y-96382887D01*
X135981652Y-96381117D01*
X136105449Y-96244528D01*
X136107235Y-96242652D01*
X136242652Y-96107235D01*
X136244528Y-96105449D01*
X136381117Y-95981652D01*
X136382898Y-95980108D01*
X136530165Y-95857819D01*
X136532455Y-95856021D01*
X136680623Y-95746132D01*
X136682170Y-95745029D01*
X136840084Y-95636856D01*
X136842835Y-95635092D01*
X137001123Y-95540218D01*
X137002593Y-95539368D01*
X137169594Y-95446348D01*
X137172813Y-95444693D01*
X137339959Y-95365639D01*
X137341140Y-95365099D01*
X137515764Y-95287995D01*
X137519420Y-95286536D01*
X137694119Y-95224028D01*
X137694821Y-95223785D01*
X137875413Y-95163256D01*
X137879568Y-95162042D01*
X138060594Y-95116696D01*
X138245407Y-95073229D01*
X138249876Y-95072373D01*
X138436616Y-95044672D01*
X138619999Y-95019091D01*
X138623546Y-95018713D01*
X138631802Y-95018104D01*
X138633112Y-95018024D01*
X138826955Y-95008500D01*
X138998734Y-95000558D01*
X139001287Y-95000500D01*
X160998713Y-95000500D01*
X161001265Y-95000558D01*
G37*
%TD.AperFunction*%
%TD*%
M02*
