%TF.GenerationSoftware,KiCad,Pcbnew,7.0.5-0*%
%TF.CreationDate,2024-05-16T10:38:19-03:00*%
%TF.ProjectId,Error Signal,4572726f-7220-4536-9967-6e616c2e6b69,rev?*%
%TF.SameCoordinates,Original*%
%TF.FileFunction,Copper,L4,Bot*%
%TF.FilePolarity,Positive*%
%FSLAX46Y46*%
G04 Gerber Fmt 4.6, Leading zero omitted, Abs format (unit mm)*
G04 Created by KiCad (PCBNEW 7.0.5-0) date 2024-05-16 10:38:19*
%MOMM*%
%LPD*%
G01*
G04 APERTURE LIST*
G04 Aperture macros list*
%AMRoundRect*
0 Rectangle with rounded corners*
0 $1 Rounding radius*
0 $2 $3 $4 $5 $6 $7 $8 $9 X,Y pos of 4 corners*
0 Add a 4 corners polygon primitive as box body*
4,1,4,$2,$3,$4,$5,$6,$7,$8,$9,$2,$3,0*
0 Add four circle primitives for the rounded corners*
1,1,$1+$1,$2,$3*
1,1,$1+$1,$4,$5*
1,1,$1+$1,$6,$7*
1,1,$1+$1,$8,$9*
0 Add four rect primitives between the rounded corners*
20,1,$1+$1,$2,$3,$4,$5,0*
20,1,$1+$1,$4,$5,$6,$7,0*
20,1,$1+$1,$6,$7,$8,$9,0*
20,1,$1+$1,$8,$9,$2,$3,0*%
G04 Aperture macros list end*
%TA.AperFunction,ComponentPad*%
%ADD10C,0.800000*%
%TD*%
%TA.AperFunction,ComponentPad*%
%ADD11C,5.400000*%
%TD*%
%TA.AperFunction,ComponentPad*%
%ADD12RoundRect,0.250000X0.620000X0.845000X-0.620000X0.845000X-0.620000X-0.845000X0.620000X-0.845000X0*%
%TD*%
%TA.AperFunction,ComponentPad*%
%ADD13O,1.740000X2.190000*%
%TD*%
%TA.AperFunction,SMDPad,CuDef*%
%ADD14RoundRect,0.237500X0.237500X-0.250000X0.237500X0.250000X-0.237500X0.250000X-0.237500X-0.250000X0*%
%TD*%
%TA.AperFunction,SMDPad,CuDef*%
%ADD15RoundRect,0.237500X-0.300000X-0.237500X0.300000X-0.237500X0.300000X0.237500X-0.300000X0.237500X0*%
%TD*%
%TA.AperFunction,SMDPad,CuDef*%
%ADD16RoundRect,0.250000X-0.325000X-0.450000X0.325000X-0.450000X0.325000X0.450000X-0.325000X0.450000X0*%
%TD*%
%TA.AperFunction,SMDPad,CuDef*%
%ADD17RoundRect,0.237500X0.300000X0.237500X-0.300000X0.237500X-0.300000X-0.237500X0.300000X-0.237500X0*%
%TD*%
%TA.AperFunction,SMDPad,CuDef*%
%ADD18RoundRect,0.250000X-0.450000X0.325000X-0.450000X-0.325000X0.450000X-0.325000X0.450000X0.325000X0*%
%TD*%
%TA.AperFunction,SMDPad,CuDef*%
%ADD19RoundRect,0.237500X-0.237500X0.300000X-0.237500X-0.300000X0.237500X-0.300000X0.237500X0.300000X0*%
%TD*%
%TA.AperFunction,SMDPad,CuDef*%
%ADD20RoundRect,0.150000X0.725000X0.150000X-0.725000X0.150000X-0.725000X-0.150000X0.725000X-0.150000X0*%
%TD*%
%TA.AperFunction,SMDPad,CuDef*%
%ADD21RoundRect,0.237500X-0.250000X-0.237500X0.250000X-0.237500X0.250000X0.237500X-0.250000X0.237500X0*%
%TD*%
%TA.AperFunction,ViaPad*%
%ADD22C,0.600000*%
%TD*%
%TA.AperFunction,Conductor*%
%ADD23C,1.000000*%
%TD*%
%TA.AperFunction,Conductor*%
%ADD24C,0.400000*%
%TD*%
%TA.AperFunction,Conductor*%
%ADD25C,0.250000*%
%TD*%
G04 APERTURE END LIST*
D10*
%TO.P,MH1,1,1*%
%TO.N,GND*%
X136975000Y-99000000D03*
X137568109Y-97568109D03*
X137568109Y-100431891D03*
X139000000Y-96975000D03*
D11*
X139000000Y-99000000D03*
D10*
X139000000Y-101025000D03*
X140431891Y-97568109D03*
X140431891Y-100431891D03*
X141025000Y-99000000D03*
%TD*%
%TO.P,MH4,1,1*%
%TO.N,GND*%
X158975000Y-121000000D03*
X159568109Y-119568109D03*
X159568109Y-122431891D03*
X161000000Y-118975000D03*
D11*
X161000000Y-121000000D03*
D10*
X161000000Y-123025000D03*
X162431891Y-119568109D03*
X162431891Y-122431891D03*
X163025000Y-121000000D03*
%TD*%
%TO.P,MH3,1,1*%
%TO.N,GND*%
X136975000Y-121000000D03*
X137568109Y-119568109D03*
X137568109Y-122431891D03*
X139000000Y-118975000D03*
D11*
X139000000Y-121000000D03*
D10*
X139000000Y-123025000D03*
X140431891Y-119568109D03*
X140431891Y-122431891D03*
X141025000Y-121000000D03*
%TD*%
D12*
%TO.P,J1,1,Pin_1*%
%TO.N,/+12V*%
X152463800Y-100429600D03*
D13*
%TO.P,J1,2,Pin_2*%
%TO.N,GND*%
X149923800Y-100429600D03*
%TO.P,J1,3,Pin_3*%
%TO.N,/-12V*%
X147383800Y-100429600D03*
%TD*%
D10*
%TO.P,MH2,1,1*%
%TO.N,GND*%
X158975000Y-99000000D03*
X159568109Y-97568109D03*
X159568109Y-100431891D03*
X161000000Y-96975000D03*
D11*
X161000000Y-99000000D03*
D10*
X161000000Y-101025000D03*
X162431891Y-97568109D03*
X162431891Y-100431891D03*
X163025000Y-99000000D03*
%TD*%
D14*
%TO.P,R7,1*%
%TO.N,Net-(IC1-TRM)*%
X146275000Y-116947500D03*
%TO.P,R7,2*%
%TO.N,/5V Ref*%
X146275000Y-115122500D03*
%TD*%
D15*
%TO.P,C3,1*%
%TO.N,Net-(U1C-V+)*%
X157612500Y-116300000D03*
%TO.P,C3,2*%
%TO.N,GND*%
X159337500Y-116300000D03*
%TD*%
D16*
%TO.P,FB1,1*%
%TO.N,/-12V*%
X151624000Y-109641000D03*
%TO.P,FB1,2*%
%TO.N,Net-(U1C-V-)*%
X153674000Y-109641000D03*
%TD*%
D17*
%TO.P,C1,1*%
%TO.N,Net-(U1C-V-)*%
X153766600Y-111342800D03*
%TO.P,C1,2*%
%TO.N,GND*%
X152041600Y-111342800D03*
%TD*%
D15*
%TO.P,C2,1*%
%TO.N,/-12V*%
X151634100Y-107939200D03*
%TO.P,C2,2*%
%TO.N,GND*%
X153359100Y-107939200D03*
%TD*%
D18*
%TO.P,FB2,1*%
%TO.N,/+12V*%
X157610531Y-112681593D03*
%TO.P,FB2,2*%
%TO.N,Net-(U1C-V+)*%
X157610531Y-114731593D03*
%TD*%
D19*
%TO.P,C7,1*%
%TO.N,/+12V*%
X155225000Y-114412500D03*
%TO.P,C7,2*%
%TO.N,GND*%
X155225000Y-116137500D03*
%TD*%
D20*
%TO.P,IC1,1*%
%TO.N,unconnected-(IC1-Pad1)*%
X153350000Y-113095000D03*
%TO.P,IC1,2,V+*%
%TO.N,/+12V*%
X153350000Y-114365000D03*
%TO.P,IC1,3,OPT*%
%TO.N,unconnected-(IC1-OPT-Pad3)*%
X153350000Y-115635000D03*
%TO.P,IC1,4,GND*%
%TO.N,GND*%
X153350000Y-116905000D03*
%TO.P,IC1,5,TRM*%
%TO.N,Net-(IC1-TRM)*%
X148200000Y-116905000D03*
%TO.P,IC1,6,VO*%
%TO.N,/5V Ref*%
X148200000Y-115635000D03*
%TO.P,IC1,7*%
%TO.N,unconnected-(IC1-Pad7)*%
X148200000Y-114365000D03*
%TO.P,IC1,8*%
%TO.N,unconnected-(IC1-Pad8)*%
X148200000Y-113095000D03*
%TD*%
D21*
%TO.P,R8,1*%
%TO.N,GND*%
X146387500Y-118435000D03*
%TO.P,R8,2*%
%TO.N,Net-(IC1-TRM)*%
X148212500Y-118435000D03*
%TD*%
D15*
%TO.P,C8,1*%
%TO.N,/5V Ref*%
X151462500Y-118435000D03*
%TO.P,C8,2*%
%TO.N,GND*%
X153187500Y-118435000D03*
%TD*%
D17*
%TO.P,C4,1*%
%TO.N,/+12V*%
X157615053Y-111121295D03*
%TO.P,C4,2*%
%TO.N,GND*%
X155890053Y-111121295D03*
%TD*%
D22*
%TO.N,GND*%
X164250000Y-117525368D03*
X148050000Y-109275000D03*
X160750000Y-106750000D03*
X158153846Y-123250000D03*
X144335800Y-98874800D03*
X142865384Y-123250000D03*
X162750000Y-108500000D03*
X145550000Y-109275000D03*
X155825000Y-119675000D03*
X160750000Y-113000000D03*
X140447425Y-95750000D03*
X159620501Y-124250000D03*
X155254835Y-113314982D03*
X157215635Y-96750000D03*
X137000000Y-108500000D03*
X141466655Y-95750000D03*
X135500000Y-106750000D03*
X145225000Y-117375000D03*
X163250000Y-102964285D03*
X147450000Y-105550000D03*
X164500000Y-113000000D03*
X139250000Y-108500000D03*
X158228319Y-96750000D03*
X164250000Y-116512684D03*
X143775000Y-117375000D03*
X143505117Y-95750000D03*
X135750000Y-120563421D03*
X135750000Y-97799225D03*
X135750000Y-101933075D03*
X152650000Y-102100000D03*
X163250000Y-123250000D03*
X138500000Y-108500000D03*
X164250000Y-118538053D03*
X143038053Y-96750000D03*
X163250000Y-116607142D03*
X139250000Y-111500000D03*
X138500000Y-111500000D03*
X135750000Y-98832687D03*
X155190266Y-96750000D03*
X163750000Y-113000000D03*
X155175000Y-104875000D03*
X158793578Y-95750000D03*
X153975000Y-103675000D03*
X150725000Y-117450000D03*
X149075000Y-107175000D03*
X158650000Y-108725000D03*
X141012684Y-96750000D03*
X136750000Y-102964285D03*
X156429075Y-114207473D03*
X137000000Y-111500000D03*
X137750000Y-106750000D03*
X164250000Y-102966537D03*
X154716655Y-95750000D03*
X143417551Y-124250000D03*
X163000000Y-106750000D03*
X135500000Y-107500000D03*
X155150000Y-101675000D03*
X156700000Y-103075000D03*
X164250000Y-99866150D03*
X137000000Y-113000000D03*
X143775000Y-113100000D03*
X157213600Y-100525800D03*
X157250000Y-97750000D03*
X135750000Y-100899612D03*
X157595132Y-124250000D03*
X141846153Y-123250000D03*
X164250000Y-121576106D03*
X156202950Y-96750000D03*
X151400000Y-120600000D03*
X152525000Y-121450000D03*
X136750000Y-117714285D03*
X163250000Y-118821428D03*
X149625000Y-116350000D03*
X135750000Y-118538053D03*
X163500000Y-111500000D03*
X164250000Y-101933075D03*
X152050000Y-115000000D03*
X163250000Y-96750000D03*
X161500000Y-113000000D03*
X160633185Y-124250000D03*
X164250000Y-100899612D03*
X142025369Y-96750000D03*
X137000000Y-106750000D03*
X159525000Y-108800000D03*
X135750000Y-99866150D03*
X155735886Y-95750000D03*
X135500000Y-108500000D03*
X160917312Y-95750000D03*
X146425000Y-112425000D03*
X136250000Y-106750000D03*
X148050000Y-110725000D03*
X152250000Y-106975000D03*
X159173076Y-123250000D03*
X150425000Y-110750000D03*
X150200000Y-118575000D03*
X157134615Y-123250000D03*
X163750000Y-106750000D03*
X135750000Y-117525368D03*
X157774348Y-95750000D03*
X150700000Y-112325000D03*
X158575000Y-105150000D03*
X139250000Y-106750000D03*
X137750000Y-113000000D03*
X164250000Y-97799225D03*
X137750000Y-108500000D03*
X135750000Y-121576106D03*
X146723400Y-97909600D03*
X136250000Y-111500000D03*
X164250000Y-111500000D03*
X160500000Y-108500000D03*
X146375000Y-104150000D03*
X162000000Y-111500000D03*
X143475000Y-110800000D03*
X163000000Y-113000000D03*
X158750000Y-107225000D03*
X143775000Y-119500000D03*
X139366814Y-124250000D03*
X142485886Y-95750000D03*
X136750000Y-118821428D03*
X158607817Y-124250000D03*
X143775000Y-115125000D03*
X136250000Y-113000000D03*
X142404867Y-124250000D03*
X162250000Y-113000000D03*
X139082687Y-95750000D03*
X162750000Y-111500000D03*
X145225000Y-115125000D03*
X140000000Y-108500000D03*
X145225000Y-119500000D03*
X142604999Y-121954999D03*
X154900000Y-121450000D03*
X150975000Y-105600000D03*
X151275000Y-114125000D03*
X158725000Y-111150000D03*
X152032000Y-97909600D03*
X154725000Y-108450000D03*
X160000000Y-106750000D03*
X161645870Y-124250000D03*
X161500000Y-106750000D03*
X150250000Y-114975000D03*
X136750000Y-96750000D03*
X140000000Y-113000000D03*
X164250000Y-120563421D03*
X163250000Y-101928571D03*
X164250000Y-119550737D03*
X137750000Y-111500000D03*
X135500000Y-113000000D03*
X164500000Y-112250000D03*
X150550000Y-108375000D03*
X135500000Y-111500000D03*
X158700000Y-115925000D03*
X149675000Y-104325000D03*
X156755117Y-95750000D03*
X155125000Y-109500000D03*
X140379498Y-124250000D03*
X144050738Y-96750000D03*
X163500000Y-108500000D03*
X156575000Y-106000000D03*
X158004999Y-121954999D03*
X136750000Y-123250000D03*
X164500000Y-106750000D03*
X161250000Y-108500000D03*
X145550000Y-110725000D03*
X164250000Y-98832687D03*
X162250000Y-106750000D03*
X161250000Y-111500000D03*
X162000000Y-108500000D03*
X150425000Y-109275000D03*
X160500000Y-111500000D03*
X145225000Y-113100000D03*
X140000000Y-106750000D03*
X163250000Y-117714285D03*
X138500000Y-113000000D03*
X139250000Y-113000000D03*
X155486400Y-98900200D03*
X136250000Y-108500000D03*
X138500000Y-106750000D03*
X140000000Y-111500000D03*
X148450000Y-103250000D03*
X149339600Y-97960400D03*
X160000000Y-113000000D03*
X135750000Y-119550737D03*
X164500000Y-107750000D03*
X159802575Y-95750000D03*
X138354129Y-124250000D03*
X136750000Y-101928571D03*
X138049225Y-95750000D03*
X143000000Y-98000000D03*
X141392182Y-124250000D03*
X164250000Y-108500000D03*
X135500000Y-112250000D03*
X161950774Y-95750000D03*
X144524348Y-95750000D03*
X153300000Y-107975000D03*
X152100000Y-116775000D03*
X135750000Y-102966537D03*
%TO.N,/5V Ref*%
X152912500Y-120225000D03*
%TO.N,Net-(U1C-V-)*%
X153800000Y-111425000D03*
%TO.N,Net-(U1C-V+)*%
X157625000Y-116425000D03*
%TD*%
D23*
%TO.N,/-12V*%
X147383800Y-103688900D02*
X151634100Y-107939200D01*
X151634100Y-109630900D02*
X151624000Y-109641000D01*
X151634100Y-107939200D02*
X151634100Y-109630900D01*
X147383800Y-100429600D02*
X147383800Y-103688900D01*
D24*
%TO.N,/+12V*%
X157610531Y-112681593D02*
X156955907Y-112681593D01*
D23*
X152463800Y-100429600D02*
X157610531Y-105576331D01*
X157610531Y-105576331D02*
X157610531Y-112681593D01*
D24*
X155177500Y-114365000D02*
X155225000Y-114412500D01*
X156955907Y-112681593D02*
X155225000Y-114412500D01*
%TO.N,/5V Ref*%
X149935000Y-115635000D02*
X151462500Y-117162500D01*
X148200000Y-115635000D02*
X146837500Y-115635000D01*
X146837500Y-115635000D02*
X146325000Y-115122500D01*
X151462500Y-117162500D02*
X151462500Y-118435000D01*
X148200000Y-115635000D02*
X149935000Y-115635000D01*
D25*
%TO.N,Net-(IC1-TRM)*%
X148200000Y-116905000D02*
X146367500Y-116905000D01*
X146367500Y-116905000D02*
X146325000Y-116947500D01*
X148200000Y-118422500D02*
X148212500Y-118435000D01*
X148200000Y-116905000D02*
X148200000Y-118422500D01*
%TD*%
%TA.AperFunction,Conductor*%
%TO.N,GND*%
G36*
X161001265Y-95000558D02*
G01*
X161172881Y-95008492D01*
X161366858Y-95018022D01*
X161368158Y-95018101D01*
X161376434Y-95018712D01*
X161380010Y-95019093D01*
X161550277Y-95042844D01*
X161563343Y-95044667D01*
X161750114Y-95072372D01*
X161754601Y-95073231D01*
X161939373Y-95116689D01*
X162078863Y-95151630D01*
X162120424Y-95162041D01*
X162124595Y-95163260D01*
X162151848Y-95172394D01*
X162305112Y-95223763D01*
X162305940Y-95224049D01*
X162480559Y-95286529D01*
X162484254Y-95288004D01*
X162658798Y-95365072D01*
X162660088Y-95365662D01*
X162827161Y-95444681D01*
X162830429Y-95446362D01*
X162921429Y-95497049D01*
X162997371Y-95539349D01*
X162998904Y-95540235D01*
X163157134Y-95635074D01*
X163159945Y-95636876D01*
X163317776Y-95744993D01*
X163319426Y-95746169D01*
X163467508Y-95855994D01*
X163469869Y-95857848D01*
X163514395Y-95894822D01*
X163617100Y-95980108D01*
X163618924Y-95981690D01*
X163755427Y-96105409D01*
X163757388Y-96107276D01*
X163892721Y-96242609D01*
X163894589Y-96244571D01*
X164018308Y-96381074D01*
X164019890Y-96382898D01*
X164142140Y-96530116D01*
X164144012Y-96532501D01*
X164234355Y-96654314D01*
X164253820Y-96680560D01*
X164255021Y-96682244D01*
X164363112Y-96840038D01*
X164364924Y-96842864D01*
X164459763Y-97001094D01*
X164460649Y-97002627D01*
X164553630Y-97169557D01*
X164555323Y-97172850D01*
X164634336Y-97339910D01*
X164634938Y-97341227D01*
X164711983Y-97515716D01*
X164713475Y-97519455D01*
X164775904Y-97693930D01*
X164776273Y-97694996D01*
X164836738Y-97875403D01*
X164837957Y-97879574D01*
X164883316Y-98060651D01*
X164903720Y-98147405D01*
X164926759Y-98245361D01*
X164927635Y-98249933D01*
X164955325Y-98436613D01*
X164980904Y-98619978D01*
X164981288Y-98623581D01*
X164981892Y-98631777D01*
X164981976Y-98633143D01*
X164991520Y-98827395D01*
X164999440Y-98998713D01*
X164999500Y-99001288D01*
X164999500Y-120998711D01*
X164999440Y-121001286D01*
X164991520Y-121172603D01*
X164981977Y-121366857D01*
X164981893Y-121368230D01*
X164981287Y-121376429D01*
X164980903Y-121380024D01*
X164955325Y-121563385D01*
X164927635Y-121750065D01*
X164926757Y-121754652D01*
X164883316Y-121939347D01*
X164837957Y-122120424D01*
X164836738Y-122124595D01*
X164776273Y-122305002D01*
X164775904Y-122306068D01*
X164713475Y-122480543D01*
X164711983Y-122484282D01*
X164634938Y-122658771D01*
X164634336Y-122660088D01*
X164555323Y-122827148D01*
X164553630Y-122830441D01*
X164460649Y-122997371D01*
X164459763Y-122998904D01*
X164364924Y-123157134D01*
X164363099Y-123159980D01*
X164255035Y-123317734D01*
X164253820Y-123319438D01*
X164144029Y-123467476D01*
X164142140Y-123469882D01*
X164019890Y-123617100D01*
X164018308Y-123618924D01*
X163894589Y-123755427D01*
X163892702Y-123757409D01*
X163757409Y-123892702D01*
X163755427Y-123894589D01*
X163618924Y-124018308D01*
X163617100Y-124019890D01*
X163469882Y-124142140D01*
X163467476Y-124144029D01*
X163319438Y-124253820D01*
X163317734Y-124255035D01*
X163159980Y-124363099D01*
X163157134Y-124364924D01*
X162998904Y-124459763D01*
X162997371Y-124460649D01*
X162830441Y-124553630D01*
X162827148Y-124555323D01*
X162660088Y-124634336D01*
X162658771Y-124634938D01*
X162484282Y-124711983D01*
X162480543Y-124713475D01*
X162306068Y-124775904D01*
X162305002Y-124776273D01*
X162124595Y-124836738D01*
X162120424Y-124837957D01*
X161939347Y-124883316D01*
X161784102Y-124919830D01*
X161754647Y-124926757D01*
X161750067Y-124927634D01*
X161737294Y-124929529D01*
X161563385Y-124955325D01*
X161380024Y-124980903D01*
X161376429Y-124981287D01*
X161369799Y-124981777D01*
X161368209Y-124981894D01*
X161366857Y-124981977D01*
X161172657Y-124991517D01*
X161001287Y-124999440D01*
X160998712Y-124999500D01*
X139001288Y-124999500D01*
X138998713Y-124999440D01*
X138827340Y-124991517D01*
X138633143Y-124981976D01*
X138631778Y-124981892D01*
X138623581Y-124981288D01*
X138619978Y-124980904D01*
X138436613Y-124955325D01*
X138294308Y-124934217D01*
X138249923Y-124927633D01*
X138245361Y-124926759D01*
X138147405Y-124903720D01*
X138060651Y-124883316D01*
X137879574Y-124837957D01*
X137875403Y-124836738D01*
X137694996Y-124776273D01*
X137693947Y-124775910D01*
X137648869Y-124759780D01*
X137519455Y-124713475D01*
X137515716Y-124711983D01*
X137341227Y-124634938D01*
X137339910Y-124634336D01*
X137172850Y-124555323D01*
X137169557Y-124553630D01*
X137002627Y-124460649D01*
X137001094Y-124459763D01*
X136842864Y-124364924D01*
X136840038Y-124363112D01*
X136682244Y-124255021D01*
X136680560Y-124253820D01*
X136654314Y-124234355D01*
X136532501Y-124144012D01*
X136530116Y-124142140D01*
X136382898Y-124019890D01*
X136381074Y-124018308D01*
X136244571Y-123894589D01*
X136242609Y-123892721D01*
X136107276Y-123757388D01*
X136105409Y-123755427D01*
X135981690Y-123618924D01*
X135980108Y-123617100D01*
X135894822Y-123514395D01*
X135857848Y-123469869D01*
X135855994Y-123467508D01*
X135746169Y-123319426D01*
X135744993Y-123317776D01*
X135636876Y-123159945D01*
X135635074Y-123157134D01*
X135540235Y-122998904D01*
X135539349Y-122997371D01*
X135446368Y-122830441D01*
X135444681Y-122827161D01*
X135365662Y-122660088D01*
X135365060Y-122658771D01*
X135288004Y-122484254D01*
X135286529Y-122480559D01*
X135224049Y-122305940D01*
X135223763Y-122305112D01*
X135163260Y-122124595D01*
X135162041Y-122120424D01*
X135151630Y-122078863D01*
X135116683Y-121939347D01*
X135073231Y-121754601D01*
X135072372Y-121750114D01*
X135044667Y-121563343D01*
X135042844Y-121550277D01*
X135019093Y-121380010D01*
X135018711Y-121376422D01*
X135018107Y-121368230D01*
X135018101Y-121368158D01*
X135018022Y-121366846D01*
X135008493Y-121172896D01*
X135000558Y-121001264D01*
X135000500Y-120998713D01*
X135000500Y-117311002D01*
X145594500Y-117311002D01*
X145599195Y-117354676D01*
X145610402Y-117406192D01*
X145612890Y-117416374D01*
X145634394Y-117456729D01*
X145655900Y-117497085D01*
X145701655Y-117549889D01*
X145701668Y-117549902D01*
X145701676Y-117549911D01*
X145719247Y-117567844D01*
X145799055Y-117612486D01*
X145799059Y-117612487D01*
X145799063Y-117612490D01*
X145866102Y-117632175D01*
X145924000Y-117640500D01*
X146670078Y-117640500D01*
X146722940Y-117653827D01*
X146825186Y-117708882D01*
X147460863Y-118051168D01*
X147508471Y-118100988D01*
X147519500Y-118149340D01*
X147519500Y-118811002D01*
X147524195Y-118854676D01*
X147535402Y-118906192D01*
X147537890Y-118916374D01*
X147547043Y-118933550D01*
X147580900Y-118997085D01*
X147626655Y-119049889D01*
X147626668Y-119049902D01*
X147626676Y-119049911D01*
X147644247Y-119067844D01*
X147724055Y-119112486D01*
X147724059Y-119112487D01*
X147724063Y-119112490D01*
X147791102Y-119132175D01*
X147849000Y-119140500D01*
X148575995Y-119140500D01*
X148576000Y-119140500D01*
X148613072Y-119136513D01*
X148619676Y-119135804D01*
X148619677Y-119135803D01*
X148619684Y-119135803D01*
X148671195Y-119124597D01*
X148681373Y-119122110D01*
X148762085Y-119079100D01*
X148814889Y-119033345D01*
X148832843Y-119015754D01*
X148877490Y-118935937D01*
X148897175Y-118868898D01*
X148905500Y-118811000D01*
X148905500Y-118034832D01*
X148917271Y-117984969D01*
X148920443Y-117978625D01*
X149245714Y-117328083D01*
X149261912Y-117283396D01*
X149275003Y-117227942D01*
X149280500Y-117180727D01*
X149280500Y-116734000D01*
X149275803Y-116690316D01*
X149264597Y-116638805D01*
X149262110Y-116628627D01*
X149219100Y-116547915D01*
X149173345Y-116495111D01*
X149173330Y-116495095D01*
X149173323Y-116495088D01*
X149155752Y-116477155D01*
X149075944Y-116432513D01*
X149075935Y-116432509D01*
X149053570Y-116425942D01*
X149036015Y-116419130D01*
X149026395Y-116414427D01*
X149026390Y-116414425D01*
X148958269Y-116404500D01*
X148958260Y-116404500D01*
X147441740Y-116404500D01*
X147365665Y-116404500D01*
X147337520Y-116400889D01*
X146810936Y-116263518D01*
X146810930Y-116263516D01*
X146810916Y-116263513D01*
X146810893Y-116263508D01*
X146810886Y-116263507D01*
X146798039Y-116261018D01*
X146798034Y-116261017D01*
X146771331Y-116257593D01*
X146759242Y-116251877D01*
X146742425Y-116254272D01*
X146742425Y-116254500D01*
X146740826Y-116254500D01*
X146740798Y-116254504D01*
X146740670Y-116254500D01*
X146740646Y-116254500D01*
X145924000Y-116254500D01*
X145923997Y-116254500D01*
X145880323Y-116259195D01*
X145828807Y-116270402D01*
X145818625Y-116272890D01*
X145737915Y-116315900D01*
X145685122Y-116361645D01*
X145685088Y-116361676D01*
X145667155Y-116379247D01*
X145622513Y-116459055D01*
X145622509Y-116459064D01*
X145602825Y-116526099D01*
X145594500Y-116583999D01*
X145594500Y-117311002D01*
X135000500Y-117311002D01*
X135000500Y-115425260D01*
X145599500Y-115425260D01*
X145602274Y-115454846D01*
X145602274Y-115454848D01*
X145602275Y-115454849D01*
X145645884Y-115579475D01*
X145724289Y-115685711D01*
X145830525Y-115764116D01*
X145955151Y-115807725D01*
X145984744Y-115810500D01*
X146400424Y-115810500D01*
X146465962Y-115831795D01*
X146479266Y-115843158D01*
X146509450Y-115873342D01*
X146599158Y-115963050D01*
X146619767Y-115973550D01*
X146634686Y-115982693D01*
X146653406Y-115996294D01*
X146653408Y-115996294D01*
X146653410Y-115996296D01*
X146675421Y-116003447D01*
X146691574Y-116010138D01*
X146712196Y-116020646D01*
X146735056Y-116024266D01*
X146752057Y-116028347D01*
X146774067Y-116035499D01*
X146774071Y-116035499D01*
X146778737Y-116037015D01*
X146778957Y-116037175D01*
X146785513Y-116035499D01*
X146803681Y-116035499D01*
X146803705Y-116035500D01*
X146805981Y-116035500D01*
X147183634Y-116035500D01*
X147249172Y-116056795D01*
X147262476Y-116068158D01*
X147268515Y-116074197D01*
X147373607Y-116125573D01*
X147373609Y-116125574D01*
X147441730Y-116135499D01*
X147441736Y-116135499D01*
X147441740Y-116135500D01*
X147441744Y-116135500D01*
X148958256Y-116135500D01*
X148958260Y-116135500D01*
X148958264Y-116135499D01*
X148958269Y-116135499D01*
X149026390Y-116125574D01*
X149026391Y-116125573D01*
X149026393Y-116125573D01*
X149131483Y-116074198D01*
X149131484Y-116074196D01*
X149137524Y-116068158D01*
X149198924Y-116036873D01*
X149216366Y-116035500D01*
X149722923Y-116035500D01*
X149788461Y-116056795D01*
X149801765Y-116068158D01*
X151029342Y-117295734D01*
X151060627Y-117357134D01*
X151062000Y-117374576D01*
X151062000Y-117657014D01*
X151040705Y-117722552D01*
X150984955Y-117763057D01*
X150974207Y-117765964D01*
X150964422Y-117768093D01*
X150953799Y-117770404D01*
X150943625Y-117772890D01*
X150862915Y-117815900D01*
X150810122Y-117861645D01*
X150810088Y-117861676D01*
X150792155Y-117879247D01*
X150747513Y-117959055D01*
X150747509Y-117959064D01*
X150727825Y-118026099D01*
X150719500Y-118083999D01*
X150719500Y-118888641D01*
X150720148Y-118900167D01*
X150723915Y-118933550D01*
X150748806Y-119010890D01*
X150782933Y-119071850D01*
X150782935Y-119071853D01*
X150818481Y-119118306D01*
X152412128Y-120678653D01*
X152440103Y-120701588D01*
X152476030Y-120726092D01*
X152478259Y-120727591D01*
X152563817Y-120759904D01*
X152633035Y-120769426D01*
X152691525Y-120769069D01*
X152973760Y-120726733D01*
X152978165Y-120726405D01*
X152984453Y-120725500D01*
X152984461Y-120725500D01*
X152984468Y-120725497D01*
X152985495Y-120725350D01*
X152990807Y-120724176D01*
X153131982Y-120703001D01*
X153146006Y-120699883D01*
X153186009Y-120688004D01*
X153262085Y-120646312D01*
X153314889Y-120600557D01*
X153332843Y-120582966D01*
X153377490Y-120503149D01*
X153397175Y-120436110D01*
X153405500Y-120378212D01*
X153405500Y-120320935D01*
X153406635Y-120305067D01*
X153418147Y-120225000D01*
X153418147Y-120224998D01*
X153406635Y-120144931D01*
X153405500Y-120129063D01*
X153405500Y-119944023D01*
X153405499Y-119943998D01*
X153402921Y-119911569D01*
X153402920Y-119911556D01*
X153396731Y-119872870D01*
X153363082Y-119788810D01*
X153323465Y-119731259D01*
X153316060Y-119723242D01*
X153283782Y-119688291D01*
X153283780Y-119688289D01*
X152246689Y-118845654D01*
X152209252Y-118787799D01*
X152205500Y-118759117D01*
X152205500Y-118084004D01*
X152205500Y-118084000D01*
X152200803Y-118040316D01*
X152189597Y-117988805D01*
X152187110Y-117978627D01*
X152144100Y-117897915D01*
X152098345Y-117845111D01*
X152098330Y-117845095D01*
X152098323Y-117845088D01*
X152080752Y-117827155D01*
X152000944Y-117782513D01*
X152000937Y-117782510D01*
X151943085Y-117765522D01*
X151886202Y-117726625D01*
X151863045Y-117661721D01*
X151863000Y-117658539D01*
X151863000Y-117128894D01*
X151862999Y-117128865D01*
X151862999Y-117099068D01*
X151862999Y-117099067D01*
X151855849Y-117077064D01*
X151851765Y-117060052D01*
X151848146Y-117037196D01*
X151837638Y-117016574D01*
X151830947Y-117000421D01*
X151823796Y-116978410D01*
X151823794Y-116978407D01*
X151823794Y-116978406D01*
X151810193Y-116959686D01*
X151801050Y-116944767D01*
X151790550Y-116924158D01*
X151700842Y-116834450D01*
X150684662Y-115818269D01*
X152274500Y-115818269D01*
X152284425Y-115886390D01*
X152284426Y-115886392D01*
X152335802Y-115991484D01*
X152418515Y-116074197D01*
X152523607Y-116125573D01*
X152523609Y-116125574D01*
X152591730Y-116135499D01*
X152591736Y-116135499D01*
X152591740Y-116135500D01*
X152591744Y-116135500D01*
X154108256Y-116135500D01*
X154108260Y-116135500D01*
X154108264Y-116135499D01*
X154108269Y-116135499D01*
X154176390Y-116125574D01*
X154176391Y-116125573D01*
X154176393Y-116125573D01*
X154281483Y-116074198D01*
X154364198Y-115991483D01*
X154415573Y-115886393D01*
X154415573Y-115886391D01*
X154415574Y-115886390D01*
X154425499Y-115818269D01*
X154425500Y-115818256D01*
X154425500Y-115451743D01*
X154425499Y-115451730D01*
X154415574Y-115383609D01*
X154415573Y-115383607D01*
X154364197Y-115278515D01*
X154296487Y-115210805D01*
X154265202Y-115149405D01*
X154270031Y-115118912D01*
X154213105Y-115145687D01*
X154183076Y-115145399D01*
X154108271Y-115134501D01*
X154108263Y-115134500D01*
X154108260Y-115134500D01*
X152591740Y-115134500D01*
X152591730Y-115134500D01*
X152523609Y-115144425D01*
X152523607Y-115144426D01*
X152418515Y-115195802D01*
X152335802Y-115278515D01*
X152284426Y-115383607D01*
X152284425Y-115383609D01*
X152274500Y-115451730D01*
X152274500Y-115818269D01*
X150684662Y-115818269D01*
X150195909Y-115329516D01*
X150195908Y-115329515D01*
X150194643Y-115328250D01*
X150194629Y-115328237D01*
X150173342Y-115306950D01*
X150173341Y-115306949D01*
X150173340Y-115306948D01*
X150152725Y-115296444D01*
X150137810Y-115287304D01*
X150119090Y-115273704D01*
X150119090Y-115273703D01*
X150097080Y-115266552D01*
X150080915Y-115259856D01*
X150060306Y-115249355D01*
X150060303Y-115249353D01*
X150037445Y-115245733D01*
X150020441Y-115241650D01*
X150006340Y-115237069D01*
X149998434Y-115234500D01*
X149998433Y-115234500D01*
X149966519Y-115234500D01*
X149216366Y-115234500D01*
X149150828Y-115213205D01*
X149137524Y-115201842D01*
X149131484Y-115195802D01*
X149026392Y-115144426D01*
X149026390Y-115144425D01*
X148958269Y-115134500D01*
X148958260Y-115134500D01*
X147441740Y-115134500D01*
X147441730Y-115134500D01*
X147373609Y-115144425D01*
X147373607Y-115144426D01*
X147268515Y-115195802D01*
X147262476Y-115201842D01*
X147201076Y-115233127D01*
X147183634Y-115234500D01*
X147062000Y-115234500D01*
X146996462Y-115213205D01*
X146955957Y-115157455D01*
X146950500Y-115123000D01*
X146950500Y-114819751D01*
X146950500Y-114819744D01*
X146947725Y-114790151D01*
X146904116Y-114665525D01*
X146825711Y-114559289D01*
X146810779Y-114548269D01*
X147124500Y-114548269D01*
X147134425Y-114616390D01*
X147134426Y-114616392D01*
X147185802Y-114721484D01*
X147268515Y-114804197D01*
X147373607Y-114855573D01*
X147373609Y-114855574D01*
X147441730Y-114865499D01*
X147441736Y-114865499D01*
X147441740Y-114865500D01*
X147441744Y-114865500D01*
X148958256Y-114865500D01*
X148958260Y-114865500D01*
X148958264Y-114865499D01*
X148958269Y-114865499D01*
X149026390Y-114855574D01*
X149026391Y-114855573D01*
X149026393Y-114855573D01*
X149131483Y-114804198D01*
X149214198Y-114721483D01*
X149265573Y-114616393D01*
X149265573Y-114616391D01*
X149265574Y-114616390D01*
X149275499Y-114548269D01*
X149275500Y-114548256D01*
X149275500Y-114181743D01*
X149275499Y-114181730D01*
X149265574Y-114113609D01*
X149265573Y-114113607D01*
X149214197Y-114008515D01*
X149131484Y-113925802D01*
X149026392Y-113874426D01*
X149026390Y-113874425D01*
X148958269Y-113864500D01*
X148958260Y-113864500D01*
X147441740Y-113864500D01*
X147441730Y-113864500D01*
X147373609Y-113874425D01*
X147373607Y-113874426D01*
X147268515Y-113925802D01*
X147185802Y-114008515D01*
X147134426Y-114113607D01*
X147134425Y-114113609D01*
X147124500Y-114181730D01*
X147124500Y-114548269D01*
X146810779Y-114548269D01*
X146719475Y-114480884D01*
X146594849Y-114437275D01*
X146594848Y-114437274D01*
X146594846Y-114437274D01*
X146565260Y-114434500D01*
X146565256Y-114434500D01*
X145984744Y-114434500D01*
X145984739Y-114434500D01*
X145955153Y-114437274D01*
X145892837Y-114459079D01*
X145830525Y-114480884D01*
X145830524Y-114480884D01*
X145830523Y-114480885D01*
X145724289Y-114559289D01*
X145645885Y-114665523D01*
X145602274Y-114790153D01*
X145599500Y-114819739D01*
X145599500Y-115425260D01*
X135000500Y-115425260D01*
X135000500Y-113278269D01*
X147124500Y-113278269D01*
X147134425Y-113346390D01*
X147134426Y-113346392D01*
X147185802Y-113451484D01*
X147268515Y-113534197D01*
X147373607Y-113585573D01*
X147373609Y-113585574D01*
X147441730Y-113595499D01*
X147441736Y-113595499D01*
X147441740Y-113595500D01*
X147441744Y-113595500D01*
X148958256Y-113595500D01*
X148958260Y-113595500D01*
X148958264Y-113595499D01*
X148958269Y-113595499D01*
X149026390Y-113585574D01*
X149026391Y-113585573D01*
X149026393Y-113585573D01*
X149131483Y-113534198D01*
X149214198Y-113451483D01*
X149265573Y-113346393D01*
X149265573Y-113346391D01*
X149265574Y-113346390D01*
X149275499Y-113278269D01*
X152274500Y-113278269D01*
X152284425Y-113346390D01*
X152284426Y-113346392D01*
X152335802Y-113451484D01*
X152418515Y-113534197D01*
X152523607Y-113585573D01*
X152523609Y-113585574D01*
X152591730Y-113595499D01*
X152591736Y-113595499D01*
X152591740Y-113595500D01*
X152591744Y-113595500D01*
X154108256Y-113595500D01*
X154108260Y-113595500D01*
X154108264Y-113595499D01*
X154108269Y-113595499D01*
X154176390Y-113585574D01*
X154176391Y-113585573D01*
X154176393Y-113585573D01*
X154281483Y-113534198D01*
X154364198Y-113451483D01*
X154415573Y-113346393D01*
X154415573Y-113346391D01*
X154415574Y-113346390D01*
X154425499Y-113278269D01*
X154425500Y-113278256D01*
X154425500Y-112911743D01*
X154425499Y-112911730D01*
X154415574Y-112843609D01*
X154415573Y-112843607D01*
X154364197Y-112738515D01*
X154281484Y-112655802D01*
X154176392Y-112604426D01*
X154176390Y-112604425D01*
X154108269Y-112594500D01*
X154108260Y-112594500D01*
X152591740Y-112594500D01*
X152591730Y-112594500D01*
X152523609Y-112604425D01*
X152523607Y-112604426D01*
X152418515Y-112655802D01*
X152335802Y-112738515D01*
X152284426Y-112843607D01*
X152284425Y-112843609D01*
X152274500Y-112911730D01*
X152274500Y-113278269D01*
X149275499Y-113278269D01*
X149275500Y-113278256D01*
X149275500Y-112911743D01*
X149275499Y-112911730D01*
X149265574Y-112843609D01*
X149265573Y-112843607D01*
X149214197Y-112738515D01*
X149131484Y-112655802D01*
X149026392Y-112604426D01*
X149026390Y-112604425D01*
X148958269Y-112594500D01*
X148958260Y-112594500D01*
X147441740Y-112594500D01*
X147441730Y-112594500D01*
X147373609Y-112604425D01*
X147373607Y-112604426D01*
X147268515Y-112655802D01*
X147185802Y-112738515D01*
X147134426Y-112843607D01*
X147134425Y-112843609D01*
X147124500Y-112911730D01*
X147124500Y-113278269D01*
X135000500Y-113278269D01*
X135000500Y-100707193D01*
X146313300Y-100707193D01*
X146328789Y-100864455D01*
X146390001Y-101066245D01*
X146489405Y-101252216D01*
X146577287Y-101359301D01*
X146623180Y-101415222D01*
X146642533Y-101431104D01*
X146679687Y-101489141D01*
X146683300Y-101517296D01*
X146683300Y-103666037D01*
X146683198Y-103669404D01*
X146679442Y-103731505D01*
X146690656Y-103792706D01*
X146691162Y-103796033D01*
X146698660Y-103857770D01*
X146698662Y-103857778D01*
X146702654Y-103868306D01*
X146708071Y-103887738D01*
X146710103Y-103898826D01*
X146710105Y-103898832D01*
X146735639Y-103955567D01*
X146736921Y-103958662D01*
X146758982Y-104016830D01*
X146758983Y-104016831D01*
X146765382Y-104026102D01*
X146775296Y-104043680D01*
X146779919Y-104053952D01*
X146779924Y-104053961D01*
X146818284Y-104102923D01*
X146820280Y-104105636D01*
X146855616Y-104156828D01*
X146855618Y-104156830D01*
X146902179Y-104198079D01*
X146904631Y-104200388D01*
X150863790Y-108159547D01*
X150895075Y-108220947D01*
X150895961Y-108227979D01*
X150898874Y-108259046D01*
X150927343Y-108340404D01*
X150933600Y-108377231D01*
X150933600Y-108890761D01*
X150912305Y-108956299D01*
X150911814Y-108956970D01*
X150896209Y-108978114D01*
X150896206Y-108978119D01*
X150851354Y-109106298D01*
X150848500Y-109136736D01*
X150848500Y-110145263D01*
X150851354Y-110175701D01*
X150896207Y-110303883D01*
X150936528Y-110358515D01*
X150976850Y-110413150D01*
X151050875Y-110467783D01*
X151086116Y-110493792D01*
X151086117Y-110493792D01*
X151086118Y-110493793D01*
X151214301Y-110538646D01*
X151244734Y-110541500D01*
X151244741Y-110541500D01*
X152003259Y-110541500D01*
X152003266Y-110541500D01*
X152033699Y-110538646D01*
X152161882Y-110493793D01*
X152271150Y-110413150D01*
X152351793Y-110303882D01*
X152396646Y-110175699D01*
X152399499Y-110145277D01*
X152898500Y-110145277D01*
X152900455Y-110166123D01*
X152900699Y-110171330D01*
X152900699Y-110229135D01*
X152900748Y-110232284D01*
X152900934Y-110238450D01*
X152901079Y-110241594D01*
X152908582Y-110363950D01*
X152908584Y-110363968D01*
X152909159Y-110370212D01*
X152909165Y-110370262D01*
X152910664Y-110382440D01*
X152910676Y-110382525D01*
X152911626Y-110388688D01*
X152911641Y-110388777D01*
X152934017Y-110509187D01*
X152934025Y-110509230D01*
X152934027Y-110509237D01*
X152934649Y-110512319D01*
X152935956Y-110518325D01*
X152936673Y-110521392D01*
X153006687Y-110801446D01*
X153024371Y-110872181D01*
X153027700Y-110899224D01*
X153027700Y-111326369D01*
X153028016Y-111334408D01*
X153028428Y-111339628D01*
X153028600Y-111344006D01*
X153028600Y-111633060D01*
X153031374Y-111662646D01*
X153031374Y-111662648D01*
X153031375Y-111662649D01*
X153074984Y-111787275D01*
X153153389Y-111893511D01*
X153259625Y-111971916D01*
X153384251Y-112015525D01*
X153413844Y-112018300D01*
X153413851Y-112018300D01*
X154119349Y-112018300D01*
X154119356Y-112018300D01*
X154148949Y-112015525D01*
X154273575Y-111971916D01*
X154379811Y-111893511D01*
X154458216Y-111787275D01*
X154501825Y-111662649D01*
X154504600Y-111633056D01*
X154504600Y-111356705D01*
X154504772Y-111352328D01*
X154505183Y-111347108D01*
X154505499Y-111339069D01*
X154505500Y-111339045D01*
X154505500Y-110930349D01*
X154505460Y-110926897D01*
X154504418Y-110880926D01*
X154504338Y-110878585D01*
X154504130Y-110874017D01*
X154503999Y-110871706D01*
X154500875Y-110825839D01*
X154500601Y-110822399D01*
X154500600Y-110822396D01*
X154500597Y-110822349D01*
X154454929Y-110319999D01*
X154454700Y-110314950D01*
X154454700Y-109526595D01*
X154454700Y-109526584D01*
X154454480Y-109519861D01*
X154454250Y-109516366D01*
X154453620Y-109506731D01*
X154453617Y-109506701D01*
X154453616Y-109506682D01*
X154452957Y-109499990D01*
X154449976Y-109477350D01*
X154449500Y-109470074D01*
X154449500Y-109136740D01*
X154449500Y-109136734D01*
X154446646Y-109106301D01*
X154401793Y-108978118D01*
X154401790Y-108978114D01*
X154364399Y-108927451D01*
X154321150Y-108868850D01*
X154266516Y-108828528D01*
X154211883Y-108788207D01*
X154083701Y-108743354D01*
X154071525Y-108742212D01*
X154053266Y-108740500D01*
X153294734Y-108740500D01*
X153282560Y-108741641D01*
X153264298Y-108743354D01*
X153136116Y-108788207D01*
X153026850Y-108868850D01*
X152946207Y-108978116D01*
X152901354Y-109106298D01*
X152898500Y-109136736D01*
X152898500Y-110145277D01*
X152399499Y-110145277D01*
X152399500Y-110145266D01*
X152399500Y-109136734D01*
X152396646Y-109106301D01*
X152351793Y-108978118D01*
X152351790Y-108978114D01*
X152347888Y-108970730D01*
X152351251Y-108968952D01*
X152334603Y-108918926D01*
X152334600Y-108918132D01*
X152334600Y-108377231D01*
X152340857Y-108340404D01*
X152369325Y-108259049D01*
X152372100Y-108229456D01*
X152372100Y-107648944D01*
X152369325Y-107619351D01*
X152325716Y-107494725D01*
X152247311Y-107388489D01*
X152141075Y-107310084D01*
X152016449Y-107266475D01*
X152016448Y-107266474D01*
X152016446Y-107266474D01*
X151985379Y-107263561D01*
X151922115Y-107236240D01*
X151916947Y-107231390D01*
X148116958Y-103431400D01*
X148085673Y-103370000D01*
X148084300Y-103352558D01*
X148084300Y-101517296D01*
X148105595Y-101451758D01*
X148125067Y-101431104D01*
X148144421Y-101415221D01*
X148215293Y-101328863D01*
X151393300Y-101328863D01*
X151396154Y-101359301D01*
X151441007Y-101487483D01*
X151481328Y-101542116D01*
X151521650Y-101596750D01*
X151595675Y-101651382D01*
X151630916Y-101677392D01*
X151630917Y-101677392D01*
X151630918Y-101677393D01*
X151759101Y-101722246D01*
X151789534Y-101725100D01*
X152722459Y-101725100D01*
X152787997Y-101746395D01*
X152801301Y-101757758D01*
X156877374Y-105833831D01*
X156908658Y-105895229D01*
X156910031Y-105912671D01*
X156910031Y-110696186D01*
X156903774Y-110733012D01*
X156879827Y-110801447D01*
X156877053Y-110831034D01*
X156877053Y-111411555D01*
X156879827Y-111441141D01*
X156903774Y-111509576D01*
X156910031Y-111546403D01*
X156910031Y-111925274D01*
X156888736Y-111990812D01*
X156864744Y-112014985D01*
X156838382Y-112034441D01*
X156757738Y-112143709D01*
X156712885Y-112271891D01*
X156710031Y-112302329D01*
X156710031Y-112314892D01*
X156688736Y-112380430D01*
X156677373Y-112393734D01*
X155429265Y-113641842D01*
X155367865Y-113673127D01*
X155350423Y-113674500D01*
X155347943Y-113674500D01*
X155330500Y-113673127D01*
X155324485Y-113672174D01*
X155250452Y-113660447D01*
X155242448Y-113659501D01*
X155242438Y-113659500D01*
X155242429Y-113659499D01*
X155235079Y-113658920D01*
X155214702Y-113657318D01*
X155214685Y-113657317D01*
X155214673Y-113657316D01*
X155214662Y-113657315D01*
X155214653Y-113657315D01*
X155206615Y-113657000D01*
X155206614Y-113657000D01*
X154821850Y-113657000D01*
X154816976Y-113657116D01*
X154806113Y-113657631D01*
X154801226Y-113657980D01*
X154801199Y-113657982D01*
X154801193Y-113657983D01*
X154714310Y-113666273D01*
X154704651Y-113667661D01*
X154671544Y-113674035D01*
X154662040Y-113676340D01*
X154578244Y-113700926D01*
X154573632Y-113702399D01*
X154567785Y-113704420D01*
X154563360Y-113705951D01*
X154563346Y-113705955D01*
X154563335Y-113705960D01*
X154558777Y-113707657D01*
X154558771Y-113707659D01*
X154205361Y-113849025D01*
X154163951Y-113857000D01*
X152794850Y-113857000D01*
X152784796Y-113857494D01*
X152750181Y-113860903D01*
X152750163Y-113860905D01*
X152740176Y-113862386D01*
X152738844Y-113862618D01*
X152738838Y-113862585D01*
X152738833Y-113862586D01*
X152738821Y-113862506D01*
X152718574Y-113864500D01*
X152591730Y-113864500D01*
X152523609Y-113874425D01*
X152523607Y-113874426D01*
X152418515Y-113925802D01*
X152335802Y-114008515D01*
X152284426Y-114113607D01*
X152284425Y-114113609D01*
X152274500Y-114181730D01*
X152274500Y-114346797D01*
X152274433Y-114349536D01*
X152274389Y-114350427D01*
X152274389Y-114399569D01*
X152274433Y-114400460D01*
X152274500Y-114403201D01*
X152274500Y-114548269D01*
X152284425Y-114616390D01*
X152284426Y-114616392D01*
X152335802Y-114721484D01*
X152418515Y-114804197D01*
X152523607Y-114855573D01*
X152523609Y-114855574D01*
X152591730Y-114865499D01*
X152591736Y-114865499D01*
X152591740Y-114865500D01*
X152620524Y-114865500D01*
X152649658Y-114869820D01*
X152649742Y-114869486D01*
X152652384Y-114870147D01*
X152652399Y-114870152D01*
X152740185Y-114887614D01*
X152740217Y-114887618D01*
X152740224Y-114887620D01*
X152750139Y-114889091D01*
X152750166Y-114889095D01*
X152750198Y-114889098D01*
X152750205Y-114889099D01*
X152765020Y-114890557D01*
X152784790Y-114892505D01*
X152784798Y-114892505D01*
X152784805Y-114892506D01*
X152790344Y-114892777D01*
X152794866Y-114893000D01*
X154143578Y-114893000D01*
X154197308Y-114906800D01*
X154252885Y-114937367D01*
X154300047Y-114987608D01*
X154307850Y-115049474D01*
X154324709Y-115032616D01*
X154392771Y-115021836D01*
X154429061Y-115034264D01*
X154512784Y-115080312D01*
X154518530Y-115083242D01*
X154531533Y-115089364D01*
X154537469Y-115091935D01*
X154644560Y-115134352D01*
X154656846Y-115138346D01*
X154699963Y-115149422D01*
X154699972Y-115149423D01*
X154699977Y-115149425D01*
X154699975Y-115149425D01*
X154712629Y-115151839D01*
X154712644Y-115151841D01*
X154712658Y-115151844D01*
X154712672Y-115151845D01*
X154712680Y-115151847D01*
X154826920Y-115166284D01*
X154826925Y-115166284D01*
X154826930Y-115166285D01*
X154833355Y-115166893D01*
X154847708Y-115167797D01*
X154854168Y-115168000D01*
X154854199Y-115168000D01*
X155206593Y-115168000D01*
X155206617Y-115168000D01*
X155214681Y-115167683D01*
X155242437Y-115165499D01*
X155250453Y-115164550D01*
X155309867Y-115155139D01*
X156694500Y-115155139D01*
X156694589Y-115159362D01*
X156694592Y-115159466D01*
X156694944Y-115167853D01*
X156694949Y-115167966D01*
X156695215Y-115172179D01*
X156695227Y-115172332D01*
X156709021Y-115335836D01*
X156709023Y-115335854D01*
X156710111Y-115344434D01*
X156714349Y-115369378D01*
X156716149Y-115377809D01*
X156757171Y-115536797D01*
X156757184Y-115536843D01*
X156758364Y-115541050D01*
X156760790Y-115549042D01*
X156760832Y-115549172D01*
X156762140Y-115553180D01*
X156762164Y-115553250D01*
X156863240Y-115842038D01*
X156869500Y-115878871D01*
X156869500Y-116294851D01*
X156869554Y-116296238D01*
X156869817Y-116302923D01*
X156871658Y-116326359D01*
X156871660Y-116326382D01*
X156871662Y-116326398D01*
X156872608Y-116334400D01*
X156872855Y-116335965D01*
X156873132Y-116337712D01*
X156874500Y-116355126D01*
X156874500Y-116590260D01*
X156877274Y-116619846D01*
X156877274Y-116619848D01*
X156877275Y-116619849D01*
X156920884Y-116744475D01*
X156999289Y-116850711D01*
X157105525Y-116929116D01*
X157230151Y-116972725D01*
X157259744Y-116975500D01*
X157506994Y-116975500D01*
X157513688Y-116975903D01*
X157515515Y-116976123D01*
X157520261Y-116976697D01*
X157543739Y-116978605D01*
X157551796Y-116978942D01*
X157670711Y-116979251D01*
X157678788Y-116978954D01*
X157702361Y-116977158D01*
X157710393Y-116976227D01*
X157710408Y-116976224D01*
X157713459Y-116975871D01*
X157719885Y-116975500D01*
X157965249Y-116975500D01*
X157965256Y-116975500D01*
X157994849Y-116972725D01*
X158119475Y-116929116D01*
X158225711Y-116850711D01*
X158304116Y-116744475D01*
X158347725Y-116619849D01*
X158350500Y-116590256D01*
X158350500Y-116356504D01*
X158351879Y-116339026D01*
X158352087Y-116337712D01*
X158352372Y-116335918D01*
X158353324Y-116327890D01*
X158355182Y-116304317D01*
X158355500Y-116296238D01*
X158355500Y-115878871D01*
X158361760Y-115842037D01*
X158389033Y-115764114D01*
X158462842Y-115553230D01*
X158464183Y-115549126D01*
X158466648Y-115541001D01*
X158467818Y-115536832D01*
X158508842Y-115377839D01*
X158510649Y-115369379D01*
X158514887Y-115344441D01*
X158515976Y-115335860D01*
X158529780Y-115172243D01*
X158529843Y-115171240D01*
X158530050Y-115167977D01*
X158530051Y-115167958D01*
X158530053Y-115167919D01*
X158530409Y-115159435D01*
X158530500Y-115155120D01*
X158530500Y-114737384D01*
X158530280Y-114730661D01*
X158529964Y-114725843D01*
X158529418Y-114717504D01*
X158529415Y-114717475D01*
X158529414Y-114717466D01*
X158528757Y-114710789D01*
X158511507Y-114579768D01*
X158511031Y-114572491D01*
X158511031Y-114352333D01*
X158511031Y-114352327D01*
X158508177Y-114321894D01*
X158463324Y-114193711D01*
X158454491Y-114181743D01*
X158404206Y-114113609D01*
X158382681Y-114084443D01*
X158328046Y-114044121D01*
X158273414Y-114003800D01*
X158145232Y-113958947D01*
X158133056Y-113957805D01*
X158114797Y-113956093D01*
X158114794Y-113956093D01*
X157842685Y-113956093D01*
X157835409Y-113955616D01*
X157804183Y-113951505D01*
X157764201Y-113946241D01*
X157757543Y-113945586D01*
X157757469Y-113945580D01*
X157744404Y-113944723D01*
X157744346Y-113944720D01*
X157744338Y-113944720D01*
X157744318Y-113944719D01*
X157744310Y-113944719D01*
X157737626Y-113944500D01*
X157737615Y-113944500D01*
X157487385Y-113944500D01*
X157487373Y-113944500D01*
X157480689Y-113944719D01*
X157480682Y-113944719D01*
X157480662Y-113944720D01*
X157480637Y-113944721D01*
X157480590Y-113944724D01*
X157467532Y-113945579D01*
X157467467Y-113945585D01*
X157460793Y-113946242D01*
X157425639Y-113950870D01*
X157389588Y-113955616D01*
X157382315Y-113956093D01*
X157106265Y-113956093D01*
X157094091Y-113957234D01*
X157075829Y-113958947D01*
X156947647Y-114003800D01*
X156838381Y-114084443D01*
X156757738Y-114193709D01*
X156712885Y-114321891D01*
X156712885Y-114321894D01*
X156710316Y-114349294D01*
X156710031Y-114352329D01*
X156710031Y-114602400D01*
X156709554Y-114609676D01*
X156704745Y-114646209D01*
X156696242Y-114710791D01*
X156695585Y-114717466D01*
X156695579Y-114717531D01*
X156694724Y-114730589D01*
X156694719Y-114730688D01*
X156694500Y-114737372D01*
X156694500Y-115155139D01*
X155309867Y-115155139D01*
X155321982Y-115153220D01*
X155330492Y-115151873D01*
X155347934Y-115150500D01*
X155515249Y-115150500D01*
X155515256Y-115150500D01*
X155544849Y-115147725D01*
X155669475Y-115104116D01*
X155775711Y-115025711D01*
X155854116Y-114919475D01*
X155897725Y-114794849D01*
X155900500Y-114765256D01*
X155900500Y-114531514D01*
X155901873Y-114514070D01*
X155902050Y-114512955D01*
X155902999Y-114504937D01*
X155905183Y-114477178D01*
X155905500Y-114469116D01*
X155905500Y-114355883D01*
X155905241Y-114349302D01*
X155923943Y-114282978D01*
X155937808Y-114266083D01*
X156791688Y-113412203D01*
X156853086Y-113380920D01*
X156921148Y-113391700D01*
X156936740Y-113401335D01*
X156947647Y-113409385D01*
X156947648Y-113409385D01*
X156947649Y-113409386D01*
X157075832Y-113454239D01*
X157106265Y-113457093D01*
X157106272Y-113457093D01*
X158114790Y-113457093D01*
X158114797Y-113457093D01*
X158145230Y-113454239D01*
X158273413Y-113409386D01*
X158382681Y-113328743D01*
X158463324Y-113219475D01*
X158508177Y-113091292D01*
X158511031Y-113060859D01*
X158511031Y-112302327D01*
X158508177Y-112271894D01*
X158463324Y-112143711D01*
X158382681Y-112034443D01*
X158382679Y-112034442D01*
X158382679Y-112034441D01*
X158356318Y-112014985D01*
X158316233Y-111958933D01*
X158311031Y-111925274D01*
X158311031Y-111572249D01*
X158317288Y-111535422D01*
X158326332Y-111509576D01*
X158350278Y-111441144D01*
X158353053Y-111411551D01*
X158353053Y-110831039D01*
X158350278Y-110801446D01*
X158317288Y-110707166D01*
X158311031Y-110670340D01*
X158311031Y-105599192D01*
X158311133Y-105595825D01*
X158312838Y-105567618D01*
X158314889Y-105533725D01*
X158303671Y-105472516D01*
X158303168Y-105469207D01*
X158295671Y-105407459D01*
X158291676Y-105396926D01*
X158286257Y-105377484D01*
X158284226Y-105366401D01*
X158284224Y-105366396D01*
X158258694Y-105309672D01*
X158257405Y-105306559D01*
X158256322Y-105303704D01*
X158235349Y-105248401D01*
X158228945Y-105239123D01*
X158219031Y-105221545D01*
X158214409Y-105211276D01*
X158214408Y-105211274D01*
X158176046Y-105162307D01*
X158174058Y-105159606D01*
X158138714Y-105108402D01*
X158092149Y-105067149D01*
X158089698Y-105064841D01*
X153566958Y-100542100D01*
X153535673Y-100480700D01*
X153534300Y-100463258D01*
X153534300Y-99530341D01*
X153534300Y-99530334D01*
X153531446Y-99499901D01*
X153486593Y-99371718D01*
X153405950Y-99262450D01*
X153335968Y-99210801D01*
X153296683Y-99181807D01*
X153168501Y-99136954D01*
X153156325Y-99135812D01*
X153138066Y-99134100D01*
X151789534Y-99134100D01*
X151777360Y-99135241D01*
X151759098Y-99136954D01*
X151630916Y-99181807D01*
X151521650Y-99262450D01*
X151441007Y-99371716D01*
X151396154Y-99499898D01*
X151393300Y-99530336D01*
X151393300Y-101328863D01*
X148215293Y-101328863D01*
X148278195Y-101252216D01*
X148377599Y-101066245D01*
X148438811Y-100864455D01*
X148454300Y-100707193D01*
X148454300Y-100152007D01*
X148438811Y-99994745D01*
X148377599Y-99792955D01*
X148278195Y-99606984D01*
X148144421Y-99443979D01*
X147981416Y-99310205D01*
X147981413Y-99310203D01*
X147981411Y-99310202D01*
X147892073Y-99262450D01*
X147795445Y-99210801D01*
X147593655Y-99149589D01*
X147465370Y-99136954D01*
X147383801Y-99128920D01*
X147383799Y-99128920D01*
X147173945Y-99149589D01*
X146972155Y-99210801D01*
X146786188Y-99310202D01*
X146786185Y-99310204D01*
X146623179Y-99443979D01*
X146489404Y-99606985D01*
X146489402Y-99606988D01*
X146390001Y-99792955D01*
X146328789Y-99994745D01*
X146313300Y-100152007D01*
X146313300Y-100707193D01*
X135000500Y-100707193D01*
X135000500Y-99001285D01*
X135000559Y-98998713D01*
X135008491Y-98827145D01*
X135018024Y-98633107D01*
X135018106Y-98631782D01*
X135018713Y-98623542D01*
X135019091Y-98620002D01*
X135044673Y-98436613D01*
X135072373Y-98249876D01*
X135073229Y-98245407D01*
X135116696Y-98060594D01*
X135162042Y-97879568D01*
X135163260Y-97875403D01*
X135223785Y-97694821D01*
X135224028Y-97694119D01*
X135286536Y-97519420D01*
X135287995Y-97515764D01*
X135365099Y-97341140D01*
X135365639Y-97339959D01*
X135444693Y-97172813D01*
X135446348Y-97169594D01*
X135539368Y-97002593D01*
X135540218Y-97001123D01*
X135635092Y-96842835D01*
X135636856Y-96840084D01*
X135745029Y-96682170D01*
X135746132Y-96680623D01*
X135856021Y-96532455D01*
X135857819Y-96530165D01*
X135980117Y-96382887D01*
X135981652Y-96381117D01*
X136105449Y-96244528D01*
X136107235Y-96242652D01*
X136242652Y-96107235D01*
X136244528Y-96105449D01*
X136381117Y-95981652D01*
X136382898Y-95980108D01*
X136530165Y-95857819D01*
X136532455Y-95856021D01*
X136680623Y-95746132D01*
X136682170Y-95745029D01*
X136840084Y-95636856D01*
X136842835Y-95635092D01*
X137001123Y-95540218D01*
X137002593Y-95539368D01*
X137169594Y-95446348D01*
X137172813Y-95444693D01*
X137339959Y-95365639D01*
X137341140Y-95365099D01*
X137515764Y-95287995D01*
X137519420Y-95286536D01*
X137694119Y-95224028D01*
X137694821Y-95223785D01*
X137875413Y-95163256D01*
X137879568Y-95162042D01*
X138060594Y-95116696D01*
X138245407Y-95073229D01*
X138249876Y-95072373D01*
X138436616Y-95044672D01*
X138619999Y-95019091D01*
X138623546Y-95018713D01*
X138631802Y-95018104D01*
X138633112Y-95018024D01*
X138826955Y-95008500D01*
X138998734Y-95000558D01*
X139001287Y-95000500D01*
X160998713Y-95000500D01*
X161001265Y-95000558D01*
G37*
%TD.AperFunction*%
%TD*%
%TA.AperFunction,Conductor*%
%TO.N,/+12V*%
G36*
X155222292Y-113864050D02*
G01*
X155343435Y-113883238D01*
X155380927Y-113895420D01*
X155481266Y-113946545D01*
X155513158Y-113969717D01*
X155592782Y-114049341D01*
X155615954Y-114081233D01*
X155667079Y-114181572D01*
X155679261Y-114219063D01*
X155698449Y-114340206D01*
X155700000Y-114359918D01*
X155700000Y-114465081D01*
X155698449Y-114484793D01*
X155679261Y-114605936D01*
X155667079Y-114643427D01*
X155615954Y-114743766D01*
X155592782Y-114775658D01*
X155513158Y-114855282D01*
X155481266Y-114878454D01*
X155380927Y-114929579D01*
X155343436Y-114941761D01*
X155249341Y-114956664D01*
X155222291Y-114960949D01*
X155202582Y-114962500D01*
X154857400Y-114962500D01*
X154849493Y-114962002D01*
X154744833Y-114948776D01*
X154714231Y-114940915D01*
X154685611Y-114929579D01*
X154616152Y-114902067D01*
X154608993Y-114898696D01*
X154337531Y-114749392D01*
X154337530Y-114749391D01*
X154225000Y-114687500D01*
X154096572Y-114687500D01*
X154096566Y-114687500D01*
X152799911Y-114687500D01*
X152775329Y-114685079D01*
X152692491Y-114668601D01*
X152647072Y-114649788D01*
X152637552Y-114643427D01*
X152587365Y-114609893D01*
X152552606Y-114575134D01*
X152512710Y-114515425D01*
X152493898Y-114470008D01*
X152492918Y-114465081D01*
X152479889Y-114399578D01*
X152479889Y-114350421D01*
X152493899Y-114279987D01*
X152512709Y-114234576D01*
X152552608Y-114174862D01*
X152587362Y-114140108D01*
X152647076Y-114100209D01*
X152692489Y-114081398D01*
X152750185Y-114069922D01*
X152775330Y-114064921D01*
X152799911Y-114062500D01*
X154128699Y-114062500D01*
X154128709Y-114062500D01*
X154225000Y-114062500D01*
X154492240Y-113955604D01*
X154632824Y-113899370D01*
X154638461Y-113897421D01*
X154715214Y-113874902D01*
X154738700Y-113870380D01*
X154818307Y-113862784D01*
X154824288Y-113862500D01*
X155202582Y-113862500D01*
X155222292Y-113864050D01*
G37*
%TD.AperFunction*%
%TD*%
%TA.AperFunction,Conductor*%
%TO.N,/5V Ref*%
G36*
X151943039Y-117979685D02*
G01*
X151988794Y-118032489D01*
X152000000Y-118084000D01*
X152000000Y-118910000D01*
X153154194Y-119847782D01*
X153193811Y-119905333D01*
X153200000Y-119944019D01*
X153200000Y-120378212D01*
X153180315Y-120445251D01*
X153127511Y-120491006D01*
X153094394Y-120500840D01*
X152661041Y-120565843D01*
X152591823Y-120556321D01*
X152555896Y-120531817D01*
X150962249Y-118971470D01*
X150928119Y-118910504D01*
X150925000Y-118882868D01*
X150925000Y-118084000D01*
X150944685Y-118016961D01*
X150997489Y-117971206D01*
X151049000Y-117960000D01*
X151876000Y-117960000D01*
X151943039Y-117979685D01*
G37*
%TD.AperFunction*%
%TD*%
%TA.AperFunction,Conductor*%
%TO.N,Net-(U1C-V-)*%
G36*
X153706444Y-108958984D02*
G01*
X153812695Y-108972972D01*
X153837652Y-108979659D01*
X153951411Y-109026779D01*
X153973790Y-109039700D01*
X154071471Y-109114653D01*
X154089746Y-109132928D01*
X154164699Y-109230609D01*
X154177621Y-109252990D01*
X154224739Y-109366743D01*
X154231428Y-109391707D01*
X154248776Y-109523479D01*
X154249200Y-109529947D01*
X154249200Y-110326800D01*
X154253303Y-110371931D01*
X154253311Y-110372025D01*
X154295841Y-110839856D01*
X154295930Y-110840974D01*
X154298895Y-110884513D01*
X154298997Y-110886755D01*
X154299987Y-110930417D01*
X154300000Y-110931539D01*
X154300000Y-111335009D01*
X154298781Y-111350496D01*
X154280076Y-111468594D01*
X154270505Y-111498052D01*
X154219802Y-111597562D01*
X154201596Y-111622621D01*
X154122621Y-111701596D01*
X154097562Y-111719802D01*
X153998052Y-111770505D01*
X153968594Y-111780076D01*
X153850496Y-111798781D01*
X153835009Y-111800000D01*
X153710891Y-111800000D01*
X153695404Y-111798781D01*
X153573381Y-111779454D01*
X153543923Y-111769883D01*
X153440872Y-111717376D01*
X153415813Y-111699170D01*
X153334029Y-111617386D01*
X153315823Y-111592327D01*
X153267788Y-111498052D01*
X153263315Y-111489273D01*
X153253746Y-111459822D01*
X153234419Y-111337796D01*
X153233200Y-111322309D01*
X153233200Y-110983302D01*
X153233200Y-110860200D01*
X153203344Y-110740777D01*
X153203343Y-110740770D01*
X153169700Y-110606200D01*
X153136419Y-110473078D01*
X153135781Y-110470147D01*
X153114246Y-110354257D01*
X153113506Y-110348247D01*
X153106292Y-110230607D01*
X153106200Y-110227584D01*
X153106200Y-109529947D01*
X153106624Y-109523480D01*
X153108575Y-109508653D01*
X153123972Y-109391702D01*
X153130658Y-109366749D01*
X153177781Y-109252984D01*
X153190697Y-109230613D01*
X153265656Y-109132924D01*
X153283924Y-109114656D01*
X153381613Y-109039697D01*
X153403984Y-109026781D01*
X153517749Y-108979658D01*
X153542702Y-108972972D01*
X153664779Y-108956901D01*
X153690620Y-108956901D01*
X153706444Y-108958984D01*
G37*
%TD.AperFunction*%
%TD*%
%TA.AperFunction,Conductor*%
%TO.N,Net-(IC1-TRM)*%
G36*
X146765390Y-116464014D02*
G01*
X147325000Y-116610000D01*
X148951000Y-116610000D01*
X149018039Y-116629685D01*
X149063794Y-116682489D01*
X149075000Y-116734000D01*
X149075000Y-117180727D01*
X149061909Y-117236181D01*
X148700000Y-117959999D01*
X148700000Y-118811000D01*
X148680315Y-118878039D01*
X148627511Y-118923794D01*
X148576000Y-118935000D01*
X147849000Y-118935000D01*
X147781961Y-118915315D01*
X147736206Y-118862511D01*
X147725000Y-118811000D01*
X147725000Y-117959999D01*
X146750001Y-117435000D01*
X146750000Y-117435000D01*
X145924000Y-117435000D01*
X145856961Y-117415315D01*
X145811206Y-117362511D01*
X145800000Y-117311000D01*
X145800000Y-116584000D01*
X145819685Y-116516961D01*
X145872489Y-116471206D01*
X145924000Y-116460000D01*
X146734091Y-116460000D01*
X146765390Y-116464014D01*
G37*
%TD.AperFunction*%
%TD*%
%TA.AperFunction,Conductor*%
%TO.N,Net-(U1C-V+)*%
G36*
X157740720Y-114150424D02*
G01*
X157752265Y-114151943D01*
X157876639Y-114168318D01*
X157901591Y-114175004D01*
X158019207Y-114223721D01*
X158041587Y-114236643D01*
X158142584Y-114314140D01*
X158160859Y-114332415D01*
X158238356Y-114433412D01*
X158251278Y-114455793D01*
X158299993Y-114573401D01*
X158306682Y-114598364D01*
X158324576Y-114734279D01*
X158325000Y-114740747D01*
X158325000Y-115152962D01*
X158324825Y-115157126D01*
X158311567Y-115314274D01*
X158308778Y-115330685D01*
X158269376Y-115483394D01*
X158268166Y-115487381D01*
X158206143Y-115664589D01*
X158206142Y-115664593D01*
X158150000Y-115825000D01*
X158150000Y-115994944D01*
X158150000Y-115994945D01*
X158150000Y-116292196D01*
X158148777Y-116307709D01*
X158129197Y-116431122D01*
X158119594Y-116460623D01*
X158066368Y-116564883D01*
X158048106Y-116589964D01*
X157965227Y-116672627D01*
X157940100Y-116690823D01*
X157835707Y-116743775D01*
X157806180Y-116753301D01*
X157682716Y-116772559D01*
X157667204Y-116773741D01*
X157556362Y-116773453D01*
X157540916Y-116772198D01*
X157477781Y-116762046D01*
X157417619Y-116752373D01*
X157388230Y-116742757D01*
X157284067Y-116689444D01*
X157259079Y-116671229D01*
X157176450Y-116588385D01*
X157158299Y-116563348D01*
X157106059Y-116460623D01*
X157105258Y-116459048D01*
X157095719Y-116429635D01*
X157076215Y-116306284D01*
X157075000Y-116290822D01*
X157075000Y-115994949D01*
X157075000Y-115994946D01*
X157075000Y-115825000D01*
X156956829Y-115487368D01*
X156955623Y-115483394D01*
X156916219Y-115330678D01*
X156913433Y-115314280D01*
X156900175Y-115157125D01*
X156900000Y-115152962D01*
X156900000Y-114740747D01*
X156900424Y-114734279D01*
X156918318Y-114598358D01*
X156925003Y-114573410D01*
X156973723Y-114455788D01*
X156986643Y-114433412D01*
X157009427Y-114403718D01*
X157064143Y-114332411D01*
X157082411Y-114314143D01*
X157183412Y-114236643D01*
X157205788Y-114223723D01*
X157323410Y-114175003D01*
X157348358Y-114168318D01*
X157474335Y-114151733D01*
X157484280Y-114150424D01*
X157490748Y-114150000D01*
X157734252Y-114150000D01*
X157740720Y-114150424D01*
G37*
%TD.AperFunction*%
%TD*%
M02*
