M48
; DRILL file {KiCad 7.0.5-0} date 2024 May 16, Thursday 10:37:42
; FORMAT={-:-/ absolute / inch / decimal}
; #@! TF.CreationDate,2024-05-16T10:37:42-03:00
; #@! TF.GenerationSoftware,Kicad,Pcbnew,7.0.5-0
; #@! TF.FileFunction,Plated,1,4,PTH
FMAT,2
INCH
; #@! TA.AperFunction,Plated,PTH,ViaDrill
T1C0.0118
; #@! TA.AperFunction,Plated,PTH,ComponentDrill
T2C0.0197
; #@! TA.AperFunction,Plated,PTH,ComponentDrill
T3C0.0469
; #@! TA.AperFunction,Plated,PTH,ComponentDrill
T4C0.1063
%
G90
G05
T1
X5.3346Y-4.2028
X5.3346Y-4.2323
X5.3346Y-4.2717
X5.3346Y-4.3898
X5.3346Y-4.4193
X5.3346Y-4.4488
X5.3445Y-3.8504
X5.3445Y-3.8911
X5.3445Y-3.9317
X5.3445Y-3.9724
X5.3445Y-4.0131
X5.3445Y-4.0538
X5.3445Y-4.627
X5.3445Y-4.6669
X5.3445Y-4.7067
X5.3445Y-4.7466
X5.3445Y-4.7865
X5.3642Y-4.2028
X5.3642Y-4.2717
X5.3642Y-4.3898
X5.3642Y-4.4488
X5.3839Y-3.8091
X5.3839Y-4.0129
X5.3839Y-4.0537
X5.3839Y-4.6344
X5.3839Y-4.678
X5.3839Y-4.8524
X5.3937Y-4.2028
X5.3937Y-4.2717
X5.3937Y-4.3898
X5.3937Y-4.4488
X5.4232Y-4.2028
X5.4232Y-4.2717
X5.4232Y-4.3898
X5.4232Y-4.4488
X5.435Y-3.7697
X5.447Y-4.8917
X5.4528Y-4.2028
X5.4528Y-4.2717
X5.4528Y-4.3898
X5.4528Y-4.4488
X5.4757Y-3.7697
X5.4823Y-4.2028
X5.4823Y-4.2717
X5.4823Y-4.3898
X5.4823Y-4.4488
X5.4869Y-4.8917
X5.5118Y-4.2028
X5.5118Y-4.2717
X5.5118Y-4.3898
X5.5118Y-4.4488
X5.5268Y-4.8917
X5.5294Y-3.7697
X5.5517Y-3.8091
X5.5666Y-4.8917
X5.5696Y-3.7697
X5.5845Y-4.8524
X5.5915Y-3.8091
X5.6065Y-4.8917
X5.6097Y-3.7697
X5.6144Y-4.8014
X5.6246Y-4.8524
X5.6299Y-3.8583
X5.6314Y-3.8091
X5.6464Y-4.8917
X5.6486Y-4.3622
X5.6498Y-3.7697
X5.6604Y-4.4528
X5.6604Y-4.5325
X5.6604Y-4.6211
X5.6604Y-4.7047
X5.6713Y-3.8091
X5.6825Y-3.8927
X5.6899Y-3.7697
X5.7175Y-4.4528
X5.7175Y-4.5325
X5.7175Y-4.6211
X5.7175Y-4.7047
X5.7303Y-4.3022
X5.7303Y-4.3593
X5.7628Y-4.1004
X5.7648Y-4.4262
X5.7765Y-3.8547
X5.8051Y-4.1555
X5.8287Y-4.3022
X5.8287Y-4.3593
X5.8445Y-4.065
X5.8691Y-4.2195
X5.8795Y-3.8567
X5.8907Y-4.5807
X5.8927Y-4.1073
X5.9134Y-4.6683
X5.9154Y-4.5266
X5.9222Y-4.3022
X5.9222Y-4.3602
X5.9272Y-4.2667
X5.9331Y-4.4222
X5.9341Y-4.624
X5.9439Y-4.1575
X5.9557Y-4.4931
X5.9606Y-4.748
X5.9855Y-3.8547
X5.9862Y-4.5276
X5.9882Y-4.5974
X5.9941Y-4.2116
X6.0049Y-4.7815
X6.0098Y-4.0197
X6.0202Y-4.7333
X6.0354Y-4.251
X6.0551Y-4.3868
X6.062Y-4.0817
X6.0912Y-3.7697
X6.0915Y-4.2697
X6.0984Y-4.7815
X6.1073Y-4.311
X6.1083Y-4.003
X6.1093Y-4.1289
X6.1099Y-3.8091
X6.1124Y-4.4612
X6.1215Y-3.8937
X6.1313Y-3.7697
X6.1348Y-4.7116
X6.1497Y-3.8091
X6.1586Y-4.4964
X6.1644Y-4.1732
X6.1693Y-4.0581
X6.1715Y-3.7697
X6.1864Y-4.8524
X6.1895Y-3.9577
X6.1896Y-3.8091
X6.1909Y-3.8484
X6.2045Y-4.8917
X6.2057Y-4.5837
X6.2116Y-3.7697
X6.2207Y-4.8014
X6.2265Y-4.8524
X6.2295Y-3.8091
X6.2431Y-4.1398
X6.2444Y-4.8917
X6.2461Y-4.2805
X6.248Y-4.564
X6.249Y-4.376
X6.25Y-4.2215
X6.2517Y-3.7697
X6.2667Y-4.8524
X6.2805Y-4.2835
X6.2843Y-4.8917
X6.2914Y-3.7697
X6.2992Y-4.2028
X6.2992Y-4.4488
X6.3189Y-4.2717
X6.3189Y-4.3898
X6.3241Y-4.8917
X6.3287Y-4.2028
X6.3287Y-4.4488
X6.3353Y-3.7697
X6.3484Y-4.2717
X6.3484Y-4.3898
X6.3583Y-4.2028
X6.3583Y-4.4488
X6.364Y-4.8917
X6.376Y-3.7697
X6.378Y-4.2717
X6.378Y-4.3898
X6.3878Y-4.2028
X6.3878Y-4.4488
X6.4075Y-4.2717
X6.4075Y-4.3898
X6.4173Y-4.2028
X6.4173Y-4.4488
X6.4272Y-3.8091
X6.4272Y-4.0129
X6.4272Y-4.0537
X6.4272Y-4.5908
X6.4272Y-4.6344
X6.4272Y-4.678
X6.4272Y-4.8524
X6.437Y-4.2717
X6.437Y-4.3898
X6.4469Y-4.2028
X6.4469Y-4.4488
X6.4665Y-3.8504
X6.4665Y-3.8911
X6.4665Y-3.9317
X6.4665Y-3.9724
X6.4665Y-4.0131
X6.4665Y-4.0538
X6.4665Y-4.2717
X6.4665Y-4.3898
X6.4665Y-4.5871
X6.4665Y-4.627
X6.4665Y-4.6669
X6.4665Y-4.7067
X6.4665Y-4.7466
X6.4665Y-4.7865
X6.4764Y-4.2028
X6.4764Y-4.2421
X6.4764Y-4.4193
X6.4764Y-4.4488
T2
X5.3927Y-3.8976
X5.3927Y-4.7638
X5.4161Y-3.8413
X5.4161Y-3.954
X5.4161Y-4.7074
X5.4161Y-4.8202
X5.4724Y-3.8179
X5.4724Y-3.9774
X5.4724Y-4.6841
X5.4724Y-4.8435
X5.5288Y-3.8413
X5.5288Y-3.954
X5.5288Y-4.7074
X5.5288Y-4.8202
X5.5522Y-3.8976
X5.5522Y-4.7638
X6.2589Y-3.8976
X6.2589Y-4.7638
X6.2822Y-3.8413
X6.2822Y-3.954
X6.2822Y-4.7074
X6.2822Y-4.8202
X6.3386Y-3.8179
X6.3386Y-3.9774
X6.3386Y-4.6841
X6.3386Y-4.8435
X6.395Y-3.8413
X6.395Y-3.954
X6.395Y-4.7074
X6.395Y-4.8202
X6.4183Y-3.8976
X6.4183Y-4.7638
T3
X5.8025Y-3.9539
X5.9025Y-3.9539
X6.0025Y-3.9539
T4
X5.4724Y-3.8976
X5.4724Y-4.7638
X6.3386Y-3.8976
X6.3386Y-4.7638
T0
M30
