%TF.GenerationSoftware,KiCad,Pcbnew,7.0.5-0*%
%TF.CreationDate,2024-05-16T10:38:20-03:00*%
%TF.ProjectId,Error Signal,4572726f-7220-4536-9967-6e616c2e6b69,rev?*%
%TF.SameCoordinates,Original*%
%TF.FileFunction,Soldermask,Bot*%
%TF.FilePolarity,Negative*%
%FSLAX46Y46*%
G04 Gerber Fmt 4.6, Leading zero omitted, Abs format (unit mm)*
G04 Created by KiCad (PCBNEW 7.0.5-0) date 2024-05-16 10:38:20*
%MOMM*%
%LPD*%
G01*
G04 APERTURE LIST*
G04 Aperture macros list*
%AMRoundRect*
0 Rectangle with rounded corners*
0 $1 Rounding radius*
0 $2 $3 $4 $5 $6 $7 $8 $9 X,Y pos of 4 corners*
0 Add a 4 corners polygon primitive as box body*
4,1,4,$2,$3,$4,$5,$6,$7,$8,$9,$2,$3,0*
0 Add four circle primitives for the rounded corners*
1,1,$1+$1,$2,$3*
1,1,$1+$1,$4,$5*
1,1,$1+$1,$6,$7*
1,1,$1+$1,$8,$9*
0 Add four rect primitives between the rounded corners*
20,1,$1+$1,$2,$3,$4,$5,0*
20,1,$1+$1,$4,$5,$6,$7,0*
20,1,$1+$1,$6,$7,$8,$9,0*
20,1,$1+$1,$8,$9,$2,$3,0*%
G04 Aperture macros list end*
%ADD10C,4.100000*%
%ADD11C,0.200000*%
%ADD12C,0.800000*%
%ADD13C,5.400000*%
%ADD14RoundRect,0.250000X0.620000X0.845000X-0.620000X0.845000X-0.620000X-0.845000X0.620000X-0.845000X0*%
%ADD15O,1.740000X2.190000*%
%ADD16RoundRect,0.237500X0.237500X-0.250000X0.237500X0.250000X-0.237500X0.250000X-0.237500X-0.250000X0*%
%ADD17RoundRect,0.237500X-0.300000X-0.237500X0.300000X-0.237500X0.300000X0.237500X-0.300000X0.237500X0*%
%ADD18RoundRect,0.250000X-0.325000X-0.450000X0.325000X-0.450000X0.325000X0.450000X-0.325000X0.450000X0*%
%ADD19RoundRect,0.237500X0.300000X0.237500X-0.300000X0.237500X-0.300000X-0.237500X0.300000X-0.237500X0*%
%ADD20RoundRect,0.250000X-0.450000X0.325000X-0.450000X-0.325000X0.450000X-0.325000X0.450000X0.325000X0*%
%ADD21RoundRect,0.237500X-0.237500X0.300000X-0.237500X-0.300000X0.237500X-0.300000X0.237500X0.300000X0*%
%ADD22RoundRect,0.150000X0.725000X0.150000X-0.725000X0.150000X-0.725000X-0.150000X0.725000X-0.150000X0*%
%ADD23RoundRect,0.237500X-0.250000X-0.237500X0.250000X-0.237500X0.250000X0.237500X-0.250000X0.237500X0*%
G04 APERTURE END LIST*
D10*
X141050000Y-121000000D02*
G75*
G03*
X141050000Y-121000000I-2050000J0D01*
G01*
X163050000Y-99000000D02*
G75*
G03*
X163050000Y-99000000I-2050000J0D01*
G01*
D11*
X139000000Y-95000000D02*
X161000000Y-95000000D01*
X161000000Y-97323600D01*
X139000000Y-97323600D01*
X139000000Y-95000000D01*
G36*
X139000000Y-95000000D02*
G01*
X161000000Y-95000000D01*
X161000000Y-97323600D01*
X139000000Y-97323600D01*
X139000000Y-95000000D01*
G37*
X139000000Y-122550000D02*
X161000000Y-122550000D01*
X161000000Y-125000000D01*
X139000000Y-125000000D01*
X139000000Y-122550000D01*
G36*
X139000000Y-122550000D02*
G01*
X161000000Y-122550000D01*
X161000000Y-125000000D01*
X139000000Y-125000000D01*
X139000000Y-122550000D01*
G37*
X162500000Y-99400000D02*
X164950000Y-99400000D01*
X164950000Y-121400000D01*
X162500000Y-121400000D01*
X162500000Y-99400000D01*
G36*
X162500000Y-99400000D02*
G01*
X164950000Y-99400000D01*
X164950000Y-121400000D01*
X162500000Y-121400000D01*
X162500000Y-99400000D01*
G37*
D10*
X141050000Y-99000000D02*
G75*
G03*
X141050000Y-99000000I-2050000J0D01*
G01*
D11*
X135050000Y-98925000D02*
X137500000Y-98925000D01*
X137500000Y-120925000D01*
X135050000Y-120925000D01*
X135050000Y-98925000D01*
G36*
X135050000Y-98925000D02*
G01*
X137500000Y-98925000D01*
X137500000Y-120925000D01*
X135050000Y-120925000D01*
X135050000Y-98925000D01*
G37*
D10*
X163050000Y-121000000D02*
G75*
G03*
X163050000Y-121000000I-2050000J0D01*
G01*
D12*
%TO.C,MH1*%
X136975000Y-99000000D03*
X137568109Y-97568109D03*
X137568109Y-100431891D03*
X139000000Y-96975000D03*
D13*
X139000000Y-99000000D03*
D12*
X139000000Y-101025000D03*
X140431891Y-97568109D03*
X140431891Y-100431891D03*
X141025000Y-99000000D03*
%TD*%
%TO.C,MH4*%
X158975000Y-121000000D03*
X159568109Y-119568109D03*
X159568109Y-122431891D03*
X161000000Y-118975000D03*
D13*
X161000000Y-121000000D03*
D12*
X161000000Y-123025000D03*
X162431891Y-119568109D03*
X162431891Y-122431891D03*
X163025000Y-121000000D03*
%TD*%
%TO.C,MH3*%
X136975000Y-121000000D03*
X137568109Y-119568109D03*
X137568109Y-122431891D03*
X139000000Y-118975000D03*
D13*
X139000000Y-121000000D03*
D12*
X139000000Y-123025000D03*
X140431891Y-119568109D03*
X140431891Y-122431891D03*
X141025000Y-121000000D03*
%TD*%
D14*
%TO.C,J1*%
X152463800Y-100429600D03*
D15*
X149923800Y-100429600D03*
X147383800Y-100429600D03*
%TD*%
D12*
%TO.C,MH2*%
X158975000Y-99000000D03*
X159568109Y-97568109D03*
X159568109Y-100431891D03*
X161000000Y-96975000D03*
D13*
X161000000Y-99000000D03*
D12*
X161000000Y-101025000D03*
X162431891Y-97568109D03*
X162431891Y-100431891D03*
X163025000Y-99000000D03*
%TD*%
D16*
%TO.C,R7*%
X146275000Y-116947500D03*
X146275000Y-115122500D03*
%TD*%
D17*
%TO.C,C3*%
X157612500Y-116300000D03*
X159337500Y-116300000D03*
%TD*%
D18*
%TO.C,FB1*%
X151624000Y-109641000D03*
X153674000Y-109641000D03*
%TD*%
D19*
%TO.C,C1*%
X153766600Y-111342800D03*
X152041600Y-111342800D03*
%TD*%
D17*
%TO.C,C2*%
X151634100Y-107939200D03*
X153359100Y-107939200D03*
%TD*%
D20*
%TO.C,FB2*%
X157610531Y-112681593D03*
X157610531Y-114731593D03*
%TD*%
D21*
%TO.C,C7*%
X155225000Y-114412500D03*
X155225000Y-116137500D03*
%TD*%
D22*
%TO.C,IC1*%
X153350000Y-113095000D03*
X153350000Y-114365000D03*
X153350000Y-115635000D03*
X153350000Y-116905000D03*
X148200000Y-116905000D03*
X148200000Y-115635000D03*
X148200000Y-114365000D03*
X148200000Y-113095000D03*
%TD*%
D23*
%TO.C,R8*%
X146387500Y-118435000D03*
X148212500Y-118435000D03*
%TD*%
D17*
%TO.C,C8*%
X151462500Y-118435000D03*
X153187500Y-118435000D03*
%TD*%
D19*
%TO.C,C4*%
X157615053Y-111121295D03*
X155890053Y-111121295D03*
%TD*%
M02*
