%TF.GenerationSoftware,KiCad,Pcbnew,7.0.5-0*%
%TF.CreationDate,2024-05-16T10:38:20-03:00*%
%TF.ProjectId,Error Signal,4572726f-7220-4536-9967-6e616c2e6b69,rev?*%
%TF.SameCoordinates,Original*%
%TF.FileFunction,Legend,Top*%
%TF.FilePolarity,Positive*%
%FSLAX46Y46*%
G04 Gerber Fmt 4.6, Leading zero omitted, Abs format (unit mm)*
G04 Created by KiCad (PCBNEW 7.0.5-0) date 2024-05-16 10:38:20*
%MOMM*%
%LPD*%
G01*
G04 APERTURE LIST*
%ADD10C,0.175000*%
%ADD11C,0.150000*%
%ADD12C,0.120000*%
G04 APERTURE END LIST*
D10*
X145801797Y-104108566D02*
X146335131Y-104108566D01*
X147035131Y-104375233D02*
X146635131Y-104375233D01*
X146835131Y-104375233D02*
X146835131Y-103675233D01*
X146835131Y-103675233D02*
X146768464Y-103775233D01*
X146768464Y-103775233D02*
X146701798Y-103841900D01*
X146701798Y-103841900D02*
X146635131Y-103875233D01*
X147301798Y-103741900D02*
X147335131Y-103708566D01*
X147335131Y-103708566D02*
X147401798Y-103675233D01*
X147401798Y-103675233D02*
X147568465Y-103675233D01*
X147568465Y-103675233D02*
X147635131Y-103708566D01*
X147635131Y-103708566D02*
X147668465Y-103741900D01*
X147668465Y-103741900D02*
X147701798Y-103808566D01*
X147701798Y-103808566D02*
X147701798Y-103875233D01*
X147701798Y-103875233D02*
X147668465Y-103975233D01*
X147668465Y-103975233D02*
X147268465Y-104375233D01*
X147268465Y-104375233D02*
X147701798Y-104375233D01*
X147901798Y-103675233D02*
X148135132Y-104375233D01*
X148135132Y-104375233D02*
X148368465Y-103675233D01*
D11*
X143115350Y-106047366D02*
X143348684Y-106047366D01*
X143448684Y-106414033D02*
X143115350Y-106414033D01*
X143115350Y-106414033D02*
X143115350Y-105714033D01*
X143115350Y-105714033D02*
X143448684Y-105714033D01*
X143748683Y-106414033D02*
X143748683Y-105947366D01*
X143748683Y-106080700D02*
X143782017Y-106014033D01*
X143782017Y-106014033D02*
X143815350Y-105980700D01*
X143815350Y-105980700D02*
X143882017Y-105947366D01*
X143882017Y-105947366D02*
X143948683Y-105947366D01*
X144182016Y-106414033D02*
X144182016Y-105947366D01*
X144182016Y-106080700D02*
X144215350Y-106014033D01*
X144215350Y-106014033D02*
X144248683Y-105980700D01*
X144248683Y-105980700D02*
X144315350Y-105947366D01*
X144315350Y-105947366D02*
X144382016Y-105947366D01*
X145115349Y-106380700D02*
X145215349Y-106414033D01*
X145215349Y-106414033D02*
X145382016Y-106414033D01*
X145382016Y-106414033D02*
X145448682Y-106380700D01*
X145448682Y-106380700D02*
X145482016Y-106347366D01*
X145482016Y-106347366D02*
X145515349Y-106280700D01*
X145515349Y-106280700D02*
X145515349Y-106214033D01*
X145515349Y-106214033D02*
X145482016Y-106147366D01*
X145482016Y-106147366D02*
X145448682Y-106114033D01*
X145448682Y-106114033D02*
X145382016Y-106080700D01*
X145382016Y-106080700D02*
X145248682Y-106047366D01*
X145248682Y-106047366D02*
X145182016Y-106014033D01*
X145182016Y-106014033D02*
X145148682Y-105980700D01*
X145148682Y-105980700D02*
X145115349Y-105914033D01*
X145115349Y-105914033D02*
X145115349Y-105847366D01*
X145115349Y-105847366D02*
X145148682Y-105780700D01*
X145148682Y-105780700D02*
X145182016Y-105747366D01*
X145182016Y-105747366D02*
X145248682Y-105714033D01*
X145248682Y-105714033D02*
X145415349Y-105714033D01*
X145415349Y-105714033D02*
X145515349Y-105747366D01*
X145815349Y-106414033D02*
X145815349Y-105947366D01*
X145815349Y-105714033D02*
X145782016Y-105747366D01*
X145782016Y-105747366D02*
X145815349Y-105780700D01*
X145815349Y-105780700D02*
X145848683Y-105747366D01*
X145848683Y-105747366D02*
X145815349Y-105714033D01*
X145815349Y-105714033D02*
X145815349Y-105780700D01*
X146448682Y-105947366D02*
X146448682Y-106514033D01*
X146448682Y-106514033D02*
X146415349Y-106580700D01*
X146415349Y-106580700D02*
X146382016Y-106614033D01*
X146382016Y-106614033D02*
X146315349Y-106647366D01*
X146315349Y-106647366D02*
X146215349Y-106647366D01*
X146215349Y-106647366D02*
X146148682Y-106614033D01*
X146448682Y-106380700D02*
X146382016Y-106414033D01*
X146382016Y-106414033D02*
X146248682Y-106414033D01*
X146248682Y-106414033D02*
X146182016Y-106380700D01*
X146182016Y-106380700D02*
X146148682Y-106347366D01*
X146148682Y-106347366D02*
X146115349Y-106280700D01*
X146115349Y-106280700D02*
X146115349Y-106080700D01*
X146115349Y-106080700D02*
X146148682Y-106014033D01*
X146148682Y-106014033D02*
X146182016Y-105980700D01*
X146182016Y-105980700D02*
X146248682Y-105947366D01*
X146248682Y-105947366D02*
X146382016Y-105947366D01*
X146382016Y-105947366D02*
X146448682Y-105980700D01*
X147215348Y-105714033D02*
X147448682Y-106414033D01*
X147448682Y-106414033D02*
X147682015Y-105714033D01*
X148282015Y-106414033D02*
X147882015Y-106414033D01*
X148082015Y-106414033D02*
X148082015Y-105714033D01*
X148082015Y-105714033D02*
X148015348Y-105814033D01*
X148015348Y-105814033D02*
X147948682Y-105880700D01*
X147948682Y-105880700D02*
X147882015Y-105914033D01*
X148582015Y-106347366D02*
X148615349Y-106380700D01*
X148615349Y-106380700D02*
X148582015Y-106414033D01*
X148582015Y-106414033D02*
X148548682Y-106380700D01*
X148548682Y-106380700D02*
X148582015Y-106347366D01*
X148582015Y-106347366D02*
X148582015Y-106414033D01*
X149282015Y-106414033D02*
X148882015Y-106414033D01*
X149082015Y-106414033D02*
X149082015Y-105714033D01*
X149082015Y-105714033D02*
X149015348Y-105814033D01*
X149015348Y-105814033D02*
X148948682Y-105880700D01*
X148948682Y-105880700D02*
X148882015Y-105914033D01*
X143115350Y-107541033D02*
X143115350Y-106841033D01*
X143515350Y-107541033D02*
X143215350Y-107141033D01*
X143515350Y-106841033D02*
X143115350Y-107241033D01*
X143815350Y-107474366D02*
X143848684Y-107507700D01*
X143848684Y-107507700D02*
X143815350Y-107541033D01*
X143815350Y-107541033D02*
X143782017Y-107507700D01*
X143782017Y-107507700D02*
X143815350Y-107474366D01*
X143815350Y-107474366D02*
X143815350Y-107541033D01*
X144115350Y-107507700D02*
X144215350Y-107541033D01*
X144215350Y-107541033D02*
X144382017Y-107541033D01*
X144382017Y-107541033D02*
X144448683Y-107507700D01*
X144448683Y-107507700D02*
X144482017Y-107474366D01*
X144482017Y-107474366D02*
X144515350Y-107407700D01*
X144515350Y-107407700D02*
X144515350Y-107341033D01*
X144515350Y-107341033D02*
X144482017Y-107274366D01*
X144482017Y-107274366D02*
X144448683Y-107241033D01*
X144448683Y-107241033D02*
X144382017Y-107207700D01*
X144382017Y-107207700D02*
X144248683Y-107174366D01*
X144248683Y-107174366D02*
X144182017Y-107141033D01*
X144182017Y-107141033D02*
X144148683Y-107107700D01*
X144148683Y-107107700D02*
X144115350Y-107041033D01*
X144115350Y-107041033D02*
X144115350Y-106974366D01*
X144115350Y-106974366D02*
X144148683Y-106907700D01*
X144148683Y-106907700D02*
X144182017Y-106874366D01*
X144182017Y-106874366D02*
X144248683Y-106841033D01*
X144248683Y-106841033D02*
X144415350Y-106841033D01*
X144415350Y-106841033D02*
X144515350Y-106874366D01*
X144815350Y-107541033D02*
X144815350Y-106841033D01*
X145115350Y-107541033D02*
X145115350Y-107174366D01*
X145115350Y-107174366D02*
X145082017Y-107107700D01*
X145082017Y-107107700D02*
X145015350Y-107074366D01*
X145015350Y-107074366D02*
X144915350Y-107074366D01*
X144915350Y-107074366D02*
X144848684Y-107107700D01*
X144848684Y-107107700D02*
X144815350Y-107141033D01*
X145748683Y-107541033D02*
X145748683Y-107174366D01*
X145748683Y-107174366D02*
X145715350Y-107107700D01*
X145715350Y-107107700D02*
X145648683Y-107074366D01*
X145648683Y-107074366D02*
X145515350Y-107074366D01*
X145515350Y-107074366D02*
X145448683Y-107107700D01*
X145748683Y-107507700D02*
X145682017Y-107541033D01*
X145682017Y-107541033D02*
X145515350Y-107541033D01*
X145515350Y-107541033D02*
X145448683Y-107507700D01*
X145448683Y-107507700D02*
X145415350Y-107441033D01*
X145415350Y-107441033D02*
X145415350Y-107374366D01*
X145415350Y-107374366D02*
X145448683Y-107307700D01*
X145448683Y-107307700D02*
X145515350Y-107274366D01*
X145515350Y-107274366D02*
X145682017Y-107274366D01*
X145682017Y-107274366D02*
X145748683Y-107241033D01*
X146182016Y-107541033D02*
X146115350Y-107507700D01*
X146115350Y-107507700D02*
X146082016Y-107441033D01*
X146082016Y-107441033D02*
X146082016Y-106841033D01*
X146748683Y-107541033D02*
X146748683Y-107174366D01*
X146748683Y-107174366D02*
X146715350Y-107107700D01*
X146715350Y-107107700D02*
X146648683Y-107074366D01*
X146648683Y-107074366D02*
X146515350Y-107074366D01*
X146515350Y-107074366D02*
X146448683Y-107107700D01*
X146748683Y-107507700D02*
X146682017Y-107541033D01*
X146682017Y-107541033D02*
X146515350Y-107541033D01*
X146515350Y-107541033D02*
X146448683Y-107507700D01*
X146448683Y-107507700D02*
X146415350Y-107441033D01*
X146415350Y-107441033D02*
X146415350Y-107374366D01*
X146415350Y-107374366D02*
X146448683Y-107307700D01*
X146448683Y-107307700D02*
X146515350Y-107274366D01*
X146515350Y-107274366D02*
X146682017Y-107274366D01*
X146682017Y-107274366D02*
X146748683Y-107241033D01*
X147082016Y-107541033D02*
X147082016Y-106841033D01*
X147082016Y-107107700D02*
X147148683Y-107074366D01*
X147148683Y-107074366D02*
X147282016Y-107074366D01*
X147282016Y-107074366D02*
X147348683Y-107107700D01*
X147348683Y-107107700D02*
X147382016Y-107141033D01*
X147382016Y-107141033D02*
X147415350Y-107207700D01*
X147415350Y-107207700D02*
X147415350Y-107407700D01*
X147415350Y-107407700D02*
X147382016Y-107474366D01*
X147382016Y-107474366D02*
X147348683Y-107507700D01*
X147348683Y-107507700D02*
X147282016Y-107541033D01*
X147282016Y-107541033D02*
X147148683Y-107541033D01*
X147148683Y-107541033D02*
X147082016Y-107507700D01*
X147648683Y-107074366D02*
X147815349Y-107541033D01*
X147982016Y-107074366D02*
X147815349Y-107541033D01*
X147815349Y-107541033D02*
X147748683Y-107707700D01*
X147748683Y-107707700D02*
X147715349Y-107741033D01*
X147715349Y-107741033D02*
X147648683Y-107774366D01*
X143248684Y-107968033D02*
X143315350Y-107968033D01*
X143315350Y-107968033D02*
X143382017Y-108001366D01*
X143382017Y-108001366D02*
X143415350Y-108034700D01*
X143415350Y-108034700D02*
X143448684Y-108101366D01*
X143448684Y-108101366D02*
X143482017Y-108234700D01*
X143482017Y-108234700D02*
X143482017Y-108401366D01*
X143482017Y-108401366D02*
X143448684Y-108534700D01*
X143448684Y-108534700D02*
X143415350Y-108601366D01*
X143415350Y-108601366D02*
X143382017Y-108634700D01*
X143382017Y-108634700D02*
X143315350Y-108668033D01*
X143315350Y-108668033D02*
X143248684Y-108668033D01*
X143248684Y-108668033D02*
X143182017Y-108634700D01*
X143182017Y-108634700D02*
X143148684Y-108601366D01*
X143148684Y-108601366D02*
X143115350Y-108534700D01*
X143115350Y-108534700D02*
X143082017Y-108401366D01*
X143082017Y-108401366D02*
X143082017Y-108234700D01*
X143082017Y-108234700D02*
X143115350Y-108101366D01*
X143115350Y-108101366D02*
X143148684Y-108034700D01*
X143148684Y-108034700D02*
X143182017Y-108001366D01*
X143182017Y-108001366D02*
X143248684Y-107968033D01*
X144148684Y-108668033D02*
X143748684Y-108668033D01*
X143948684Y-108668033D02*
X143948684Y-107968033D01*
X143948684Y-107968033D02*
X143882017Y-108068033D01*
X143882017Y-108068033D02*
X143815351Y-108134700D01*
X143815351Y-108134700D02*
X143748684Y-108168033D01*
X144948684Y-107934700D02*
X144348684Y-108834700D01*
X145148684Y-108034700D02*
X145182017Y-108001366D01*
X145182017Y-108001366D02*
X145248684Y-107968033D01*
X145248684Y-107968033D02*
X145415351Y-107968033D01*
X145415351Y-107968033D02*
X145482017Y-108001366D01*
X145482017Y-108001366D02*
X145515351Y-108034700D01*
X145515351Y-108034700D02*
X145548684Y-108101366D01*
X145548684Y-108101366D02*
X145548684Y-108168033D01*
X145548684Y-108168033D02*
X145515351Y-108268033D01*
X145515351Y-108268033D02*
X145115351Y-108668033D01*
X145115351Y-108668033D02*
X145548684Y-108668033D01*
X145982018Y-107968033D02*
X146048684Y-107968033D01*
X146048684Y-107968033D02*
X146115351Y-108001366D01*
X146115351Y-108001366D02*
X146148684Y-108034700D01*
X146148684Y-108034700D02*
X146182018Y-108101366D01*
X146182018Y-108101366D02*
X146215351Y-108234700D01*
X146215351Y-108234700D02*
X146215351Y-108401366D01*
X146215351Y-108401366D02*
X146182018Y-108534700D01*
X146182018Y-108534700D02*
X146148684Y-108601366D01*
X146148684Y-108601366D02*
X146115351Y-108634700D01*
X146115351Y-108634700D02*
X146048684Y-108668033D01*
X146048684Y-108668033D02*
X145982018Y-108668033D01*
X145982018Y-108668033D02*
X145915351Y-108634700D01*
X145915351Y-108634700D02*
X145882018Y-108601366D01*
X145882018Y-108601366D02*
X145848684Y-108534700D01*
X145848684Y-108534700D02*
X145815351Y-108401366D01*
X145815351Y-108401366D02*
X145815351Y-108234700D01*
X145815351Y-108234700D02*
X145848684Y-108101366D01*
X145848684Y-108101366D02*
X145882018Y-108034700D01*
X145882018Y-108034700D02*
X145915351Y-108001366D01*
X145915351Y-108001366D02*
X145982018Y-107968033D01*
X146482018Y-108034700D02*
X146515351Y-108001366D01*
X146515351Y-108001366D02*
X146582018Y-107968033D01*
X146582018Y-107968033D02*
X146748685Y-107968033D01*
X146748685Y-107968033D02*
X146815351Y-108001366D01*
X146815351Y-108001366D02*
X146848685Y-108034700D01*
X146848685Y-108034700D02*
X146882018Y-108101366D01*
X146882018Y-108101366D02*
X146882018Y-108168033D01*
X146882018Y-108168033D02*
X146848685Y-108268033D01*
X146848685Y-108268033D02*
X146448685Y-108668033D01*
X146448685Y-108668033D02*
X146882018Y-108668033D01*
X147482018Y-108201366D02*
X147482018Y-108668033D01*
X147315352Y-107934700D02*
X147148685Y-108434700D01*
X147148685Y-108434700D02*
X147582018Y-108434700D01*
D10*
X150751797Y-104188566D02*
X151285131Y-104188566D01*
X151018464Y-104455233D02*
X151018464Y-103921900D01*
X151985131Y-104455233D02*
X151585131Y-104455233D01*
X151785131Y-104455233D02*
X151785131Y-103755233D01*
X151785131Y-103755233D02*
X151718464Y-103855233D01*
X151718464Y-103855233D02*
X151651798Y-103921900D01*
X151651798Y-103921900D02*
X151585131Y-103955233D01*
X152251798Y-103821900D02*
X152285131Y-103788566D01*
X152285131Y-103788566D02*
X152351798Y-103755233D01*
X152351798Y-103755233D02*
X152518465Y-103755233D01*
X152518465Y-103755233D02*
X152585131Y-103788566D01*
X152585131Y-103788566D02*
X152618465Y-103821900D01*
X152618465Y-103821900D02*
X152651798Y-103888566D01*
X152651798Y-103888566D02*
X152651798Y-103955233D01*
X152651798Y-103955233D02*
X152618465Y-104055233D01*
X152618465Y-104055233D02*
X152218465Y-104455233D01*
X152218465Y-104455233D02*
X152651798Y-104455233D01*
X152851798Y-103755233D02*
X153085132Y-104455233D01*
X153085132Y-104455233D02*
X153318465Y-103755233D01*
D11*
%TO.C,C6*%
X142735166Y-98991466D02*
X142768500Y-99024799D01*
X142768500Y-99024799D02*
X142801833Y-99124799D01*
X142801833Y-99124799D02*
X142801833Y-99191466D01*
X142801833Y-99191466D02*
X142768500Y-99291466D01*
X142768500Y-99291466D02*
X142701833Y-99358133D01*
X142701833Y-99358133D02*
X142635166Y-99391466D01*
X142635166Y-99391466D02*
X142501833Y-99424799D01*
X142501833Y-99424799D02*
X142401833Y-99424799D01*
X142401833Y-99424799D02*
X142268500Y-99391466D01*
X142268500Y-99391466D02*
X142201833Y-99358133D01*
X142201833Y-99358133D02*
X142135166Y-99291466D01*
X142135166Y-99291466D02*
X142101833Y-99191466D01*
X142101833Y-99191466D02*
X142101833Y-99124799D01*
X142101833Y-99124799D02*
X142135166Y-99024799D01*
X142135166Y-99024799D02*
X142168500Y-98991466D01*
X142101833Y-98391466D02*
X142101833Y-98524799D01*
X142101833Y-98524799D02*
X142135166Y-98591466D01*
X142135166Y-98591466D02*
X142168500Y-98624799D01*
X142168500Y-98624799D02*
X142268500Y-98691466D01*
X142268500Y-98691466D02*
X142401833Y-98724799D01*
X142401833Y-98724799D02*
X142668500Y-98724799D01*
X142668500Y-98724799D02*
X142735166Y-98691466D01*
X142735166Y-98691466D02*
X142768500Y-98658133D01*
X142768500Y-98658133D02*
X142801833Y-98591466D01*
X142801833Y-98591466D02*
X142801833Y-98458133D01*
X142801833Y-98458133D02*
X142768500Y-98391466D01*
X142768500Y-98391466D02*
X142735166Y-98358133D01*
X142735166Y-98358133D02*
X142668500Y-98324799D01*
X142668500Y-98324799D02*
X142501833Y-98324799D01*
X142501833Y-98324799D02*
X142435166Y-98358133D01*
X142435166Y-98358133D02*
X142401833Y-98391466D01*
X142401833Y-98391466D02*
X142368500Y-98458133D01*
X142368500Y-98458133D02*
X142368500Y-98591466D01*
X142368500Y-98591466D02*
X142401833Y-98658133D01*
X142401833Y-98658133D02*
X142435166Y-98691466D01*
X142435166Y-98691466D02*
X142501833Y-98724799D01*
%TO.C,R9*%
X157508333Y-109041033D02*
X157275000Y-108707700D01*
X157108333Y-109041033D02*
X157108333Y-108341033D01*
X157108333Y-108341033D02*
X157375000Y-108341033D01*
X157375000Y-108341033D02*
X157441667Y-108374366D01*
X157441667Y-108374366D02*
X157475000Y-108407700D01*
X157475000Y-108407700D02*
X157508333Y-108474366D01*
X157508333Y-108474366D02*
X157508333Y-108574366D01*
X157508333Y-108574366D02*
X157475000Y-108641033D01*
X157475000Y-108641033D02*
X157441667Y-108674366D01*
X157441667Y-108674366D02*
X157375000Y-108707700D01*
X157375000Y-108707700D02*
X157108333Y-108707700D01*
X157841667Y-109041033D02*
X157975000Y-109041033D01*
X157975000Y-109041033D02*
X158041667Y-109007700D01*
X158041667Y-109007700D02*
X158075000Y-108974366D01*
X158075000Y-108974366D02*
X158141667Y-108874366D01*
X158141667Y-108874366D02*
X158175000Y-108741033D01*
X158175000Y-108741033D02*
X158175000Y-108474366D01*
X158175000Y-108474366D02*
X158141667Y-108407700D01*
X158141667Y-108407700D02*
X158108333Y-108374366D01*
X158108333Y-108374366D02*
X158041667Y-108341033D01*
X158041667Y-108341033D02*
X157908333Y-108341033D01*
X157908333Y-108341033D02*
X157841667Y-108374366D01*
X157841667Y-108374366D02*
X157808333Y-108407700D01*
X157808333Y-108407700D02*
X157775000Y-108474366D01*
X157775000Y-108474366D02*
X157775000Y-108641033D01*
X157775000Y-108641033D02*
X157808333Y-108707700D01*
X157808333Y-108707700D02*
X157841667Y-108741033D01*
X157841667Y-108741033D02*
X157908333Y-108774366D01*
X157908333Y-108774366D02*
X158041667Y-108774366D01*
X158041667Y-108774366D02*
X158108333Y-108741033D01*
X158108333Y-108741033D02*
X158141667Y-108707700D01*
X158141667Y-108707700D02*
X158175000Y-108641033D01*
%TO.C,R6*%
X156608333Y-120291033D02*
X156375000Y-119957700D01*
X156208333Y-120291033D02*
X156208333Y-119591033D01*
X156208333Y-119591033D02*
X156475000Y-119591033D01*
X156475000Y-119591033D02*
X156541667Y-119624366D01*
X156541667Y-119624366D02*
X156575000Y-119657700D01*
X156575000Y-119657700D02*
X156608333Y-119724366D01*
X156608333Y-119724366D02*
X156608333Y-119824366D01*
X156608333Y-119824366D02*
X156575000Y-119891033D01*
X156575000Y-119891033D02*
X156541667Y-119924366D01*
X156541667Y-119924366D02*
X156475000Y-119957700D01*
X156475000Y-119957700D02*
X156208333Y-119957700D01*
X157208333Y-119591033D02*
X157075000Y-119591033D01*
X157075000Y-119591033D02*
X157008333Y-119624366D01*
X157008333Y-119624366D02*
X156975000Y-119657700D01*
X156975000Y-119657700D02*
X156908333Y-119757700D01*
X156908333Y-119757700D02*
X156875000Y-119891033D01*
X156875000Y-119891033D02*
X156875000Y-120157700D01*
X156875000Y-120157700D02*
X156908333Y-120224366D01*
X156908333Y-120224366D02*
X156941667Y-120257700D01*
X156941667Y-120257700D02*
X157008333Y-120291033D01*
X157008333Y-120291033D02*
X157141667Y-120291033D01*
X157141667Y-120291033D02*
X157208333Y-120257700D01*
X157208333Y-120257700D02*
X157241667Y-120224366D01*
X157241667Y-120224366D02*
X157275000Y-120157700D01*
X157275000Y-120157700D02*
X157275000Y-119991033D01*
X157275000Y-119991033D02*
X157241667Y-119924366D01*
X157241667Y-119924366D02*
X157208333Y-119891033D01*
X157208333Y-119891033D02*
X157141667Y-119857700D01*
X157141667Y-119857700D02*
X157008333Y-119857700D01*
X157008333Y-119857700D02*
X156941667Y-119891033D01*
X156941667Y-119891033D02*
X156908333Y-119924366D01*
X156908333Y-119924366D02*
X156875000Y-119991033D01*
%TO.C,R3*%
X143691033Y-111891666D02*
X143357700Y-112124999D01*
X143691033Y-112291666D02*
X142991033Y-112291666D01*
X142991033Y-112291666D02*
X142991033Y-112024999D01*
X142991033Y-112024999D02*
X143024366Y-111958333D01*
X143024366Y-111958333D02*
X143057700Y-111924999D01*
X143057700Y-111924999D02*
X143124366Y-111891666D01*
X143124366Y-111891666D02*
X143224366Y-111891666D01*
X143224366Y-111891666D02*
X143291033Y-111924999D01*
X143291033Y-111924999D02*
X143324366Y-111958333D01*
X143324366Y-111958333D02*
X143357700Y-112024999D01*
X143357700Y-112024999D02*
X143357700Y-112291666D01*
X142991033Y-111658333D02*
X142991033Y-111224999D01*
X142991033Y-111224999D02*
X143257700Y-111458333D01*
X143257700Y-111458333D02*
X143257700Y-111358333D01*
X143257700Y-111358333D02*
X143291033Y-111291666D01*
X143291033Y-111291666D02*
X143324366Y-111258333D01*
X143324366Y-111258333D02*
X143391033Y-111224999D01*
X143391033Y-111224999D02*
X143557700Y-111224999D01*
X143557700Y-111224999D02*
X143624366Y-111258333D01*
X143624366Y-111258333D02*
X143657700Y-111291666D01*
X143657700Y-111291666D02*
X143691033Y-111358333D01*
X143691033Y-111358333D02*
X143691033Y-111558333D01*
X143691033Y-111558333D02*
X143657700Y-111624999D01*
X143657700Y-111624999D02*
X143624366Y-111658333D01*
%TO.C,J4*%
X161399866Y-115686633D02*
X161399866Y-116186633D01*
X161399866Y-116186633D02*
X161366533Y-116286633D01*
X161366533Y-116286633D02*
X161299866Y-116353300D01*
X161299866Y-116353300D02*
X161199866Y-116386633D01*
X161199866Y-116386633D02*
X161133200Y-116386633D01*
X162033199Y-115919966D02*
X162033199Y-116386633D01*
X161866533Y-115653300D02*
X161699866Y-116153300D01*
X161699866Y-116153300D02*
X162133199Y-116153300D01*
%TO.C,J1*%
X149690466Y-104165633D02*
X149690466Y-104665633D01*
X149690466Y-104665633D02*
X149657133Y-104765633D01*
X149657133Y-104765633D02*
X149590466Y-104832300D01*
X149590466Y-104832300D02*
X149490466Y-104865633D01*
X149490466Y-104865633D02*
X149423800Y-104865633D01*
X150390466Y-104865633D02*
X149990466Y-104865633D01*
X150190466Y-104865633D02*
X150190466Y-104165633D01*
X150190466Y-104165633D02*
X150123799Y-104265633D01*
X150123799Y-104265633D02*
X150057133Y-104332300D01*
X150057133Y-104332300D02*
X149990466Y-104365633D01*
%TO.C,R1*%
X151858333Y-109541033D02*
X151625000Y-109207700D01*
X151458333Y-109541033D02*
X151458333Y-108841033D01*
X151458333Y-108841033D02*
X151725000Y-108841033D01*
X151725000Y-108841033D02*
X151791667Y-108874366D01*
X151791667Y-108874366D02*
X151825000Y-108907700D01*
X151825000Y-108907700D02*
X151858333Y-108974366D01*
X151858333Y-108974366D02*
X151858333Y-109074366D01*
X151858333Y-109074366D02*
X151825000Y-109141033D01*
X151825000Y-109141033D02*
X151791667Y-109174366D01*
X151791667Y-109174366D02*
X151725000Y-109207700D01*
X151725000Y-109207700D02*
X151458333Y-109207700D01*
X152525000Y-109541033D02*
X152125000Y-109541033D01*
X152325000Y-109541033D02*
X152325000Y-108841033D01*
X152325000Y-108841033D02*
X152258333Y-108941033D01*
X152258333Y-108941033D02*
X152191667Y-109007700D01*
X152191667Y-109007700D02*
X152125000Y-109041033D01*
%TO.C,J7*%
X149876033Y-122013333D02*
X150376033Y-122013333D01*
X150376033Y-122013333D02*
X150476033Y-122046666D01*
X150476033Y-122046666D02*
X150542700Y-122113333D01*
X150542700Y-122113333D02*
X150576033Y-122213333D01*
X150576033Y-122213333D02*
X150576033Y-122280000D01*
X149876033Y-121746667D02*
X149876033Y-121280000D01*
X149876033Y-121280000D02*
X150576033Y-121580000D01*
%TO.C,C5*%
X157666166Y-99270866D02*
X157699500Y-99304199D01*
X157699500Y-99304199D02*
X157732833Y-99404199D01*
X157732833Y-99404199D02*
X157732833Y-99470866D01*
X157732833Y-99470866D02*
X157699500Y-99570866D01*
X157699500Y-99570866D02*
X157632833Y-99637533D01*
X157632833Y-99637533D02*
X157566166Y-99670866D01*
X157566166Y-99670866D02*
X157432833Y-99704199D01*
X157432833Y-99704199D02*
X157332833Y-99704199D01*
X157332833Y-99704199D02*
X157199500Y-99670866D01*
X157199500Y-99670866D02*
X157132833Y-99637533D01*
X157132833Y-99637533D02*
X157066166Y-99570866D01*
X157066166Y-99570866D02*
X157032833Y-99470866D01*
X157032833Y-99470866D02*
X157032833Y-99404199D01*
X157032833Y-99404199D02*
X157066166Y-99304199D01*
X157066166Y-99304199D02*
X157099500Y-99270866D01*
X157032833Y-98637533D02*
X157032833Y-98970866D01*
X157032833Y-98970866D02*
X157366166Y-99004199D01*
X157366166Y-99004199D02*
X157332833Y-98970866D01*
X157332833Y-98970866D02*
X157299500Y-98904199D01*
X157299500Y-98904199D02*
X157299500Y-98737533D01*
X157299500Y-98737533D02*
X157332833Y-98670866D01*
X157332833Y-98670866D02*
X157366166Y-98637533D01*
X157366166Y-98637533D02*
X157432833Y-98604199D01*
X157432833Y-98604199D02*
X157599500Y-98604199D01*
X157599500Y-98604199D02*
X157666166Y-98637533D01*
X157666166Y-98637533D02*
X157699500Y-98670866D01*
X157699500Y-98670866D02*
X157732833Y-98737533D01*
X157732833Y-98737533D02*
X157732833Y-98904199D01*
X157732833Y-98904199D02*
X157699500Y-98970866D01*
X157699500Y-98970866D02*
X157666166Y-99004199D01*
%TO.C,R2*%
X141727204Y-108991033D02*
X141493871Y-108657700D01*
X141327204Y-108991033D02*
X141327204Y-108291033D01*
X141327204Y-108291033D02*
X141593871Y-108291033D01*
X141593871Y-108291033D02*
X141660538Y-108324366D01*
X141660538Y-108324366D02*
X141693871Y-108357700D01*
X141693871Y-108357700D02*
X141727204Y-108424366D01*
X141727204Y-108424366D02*
X141727204Y-108524366D01*
X141727204Y-108524366D02*
X141693871Y-108591033D01*
X141693871Y-108591033D02*
X141660538Y-108624366D01*
X141660538Y-108624366D02*
X141593871Y-108657700D01*
X141593871Y-108657700D02*
X141327204Y-108657700D01*
X141993871Y-108357700D02*
X142027204Y-108324366D01*
X142027204Y-108324366D02*
X142093871Y-108291033D01*
X142093871Y-108291033D02*
X142260538Y-108291033D01*
X142260538Y-108291033D02*
X142327204Y-108324366D01*
X142327204Y-108324366D02*
X142360538Y-108357700D01*
X142360538Y-108357700D02*
X142393871Y-108424366D01*
X142393871Y-108424366D02*
X142393871Y-108491033D01*
X142393871Y-108491033D02*
X142360538Y-108591033D01*
X142360538Y-108591033D02*
X141960538Y-108991033D01*
X141960538Y-108991033D02*
X142393871Y-108991033D01*
%TO.C,J3*%
X138133466Y-103545433D02*
X138133466Y-104045433D01*
X138133466Y-104045433D02*
X138100133Y-104145433D01*
X138100133Y-104145433D02*
X138033466Y-104212100D01*
X138033466Y-104212100D02*
X137933466Y-104245433D01*
X137933466Y-104245433D02*
X137866800Y-104245433D01*
X138400133Y-103545433D02*
X138833466Y-103545433D01*
X138833466Y-103545433D02*
X138600133Y-103812100D01*
X138600133Y-103812100D02*
X138700133Y-103812100D01*
X138700133Y-103812100D02*
X138766799Y-103845433D01*
X138766799Y-103845433D02*
X138800133Y-103878766D01*
X138800133Y-103878766D02*
X138833466Y-103945433D01*
X138833466Y-103945433D02*
X138833466Y-104112100D01*
X138833466Y-104112100D02*
X138800133Y-104178766D01*
X138800133Y-104178766D02*
X138766799Y-104212100D01*
X138766799Y-104212100D02*
X138700133Y-104245433D01*
X138700133Y-104245433D02*
X138500133Y-104245433D01*
X138500133Y-104245433D02*
X138433466Y-104212100D01*
X138433466Y-104212100D02*
X138400133Y-104178766D01*
%TO.C,R4*%
X153733333Y-121991033D02*
X153500000Y-121657700D01*
X153333333Y-121991033D02*
X153333333Y-121291033D01*
X153333333Y-121291033D02*
X153600000Y-121291033D01*
X153600000Y-121291033D02*
X153666667Y-121324366D01*
X153666667Y-121324366D02*
X153700000Y-121357700D01*
X153700000Y-121357700D02*
X153733333Y-121424366D01*
X153733333Y-121424366D02*
X153733333Y-121524366D01*
X153733333Y-121524366D02*
X153700000Y-121591033D01*
X153700000Y-121591033D02*
X153666667Y-121624366D01*
X153666667Y-121624366D02*
X153600000Y-121657700D01*
X153600000Y-121657700D02*
X153333333Y-121657700D01*
X154333333Y-121524366D02*
X154333333Y-121991033D01*
X154166667Y-121257700D02*
X154000000Y-121757700D01*
X154000000Y-121757700D02*
X154433333Y-121757700D01*
%TO.C,R5*%
X155407621Y-107363004D02*
X155074288Y-107596337D01*
X155407621Y-107763004D02*
X154707621Y-107763004D01*
X154707621Y-107763004D02*
X154707621Y-107496337D01*
X154707621Y-107496337D02*
X154740954Y-107429671D01*
X154740954Y-107429671D02*
X154774288Y-107396337D01*
X154774288Y-107396337D02*
X154840954Y-107363004D01*
X154840954Y-107363004D02*
X154940954Y-107363004D01*
X154940954Y-107363004D02*
X155007621Y-107396337D01*
X155007621Y-107396337D02*
X155040954Y-107429671D01*
X155040954Y-107429671D02*
X155074288Y-107496337D01*
X155074288Y-107496337D02*
X155074288Y-107763004D01*
X154707621Y-106729671D02*
X154707621Y-107063004D01*
X154707621Y-107063004D02*
X155040954Y-107096337D01*
X155040954Y-107096337D02*
X155007621Y-107063004D01*
X155007621Y-107063004D02*
X154974288Y-106996337D01*
X154974288Y-106996337D02*
X154974288Y-106829671D01*
X154974288Y-106829671D02*
X155007621Y-106763004D01*
X155007621Y-106763004D02*
X155040954Y-106729671D01*
X155040954Y-106729671D02*
X155107621Y-106696337D01*
X155107621Y-106696337D02*
X155274288Y-106696337D01*
X155274288Y-106696337D02*
X155340954Y-106729671D01*
X155340954Y-106729671D02*
X155374288Y-106763004D01*
X155374288Y-106763004D02*
X155407621Y-106829671D01*
X155407621Y-106829671D02*
X155407621Y-106996337D01*
X155407621Y-106996337D02*
X155374288Y-107063004D01*
X155374288Y-107063004D02*
X155340954Y-107096337D01*
%TO.C,U1*%
X158716033Y-114833333D02*
X159282700Y-114833333D01*
X159282700Y-114833333D02*
X159349366Y-114800000D01*
X159349366Y-114800000D02*
X159382700Y-114766666D01*
X159382700Y-114766666D02*
X159416033Y-114700000D01*
X159416033Y-114700000D02*
X159416033Y-114566666D01*
X159416033Y-114566666D02*
X159382700Y-114500000D01*
X159382700Y-114500000D02*
X159349366Y-114466666D01*
X159349366Y-114466666D02*
X159282700Y-114433333D01*
X159282700Y-114433333D02*
X158716033Y-114433333D01*
X159416033Y-113733333D02*
X159416033Y-114133333D01*
X159416033Y-113933333D02*
X158716033Y-113933333D01*
X158716033Y-113933333D02*
X158816033Y-114000000D01*
X158816033Y-114000000D02*
X158882700Y-114066667D01*
X158882700Y-114066667D02*
X158916033Y-114133333D01*
D12*
%TO.C,C6*%
X143425800Y-99586052D02*
X143425800Y-98163548D01*
X145245800Y-99586052D02*
X145245800Y-98163548D01*
%TO.C,R9*%
X157504724Y-110372500D02*
X156995276Y-110372500D01*
X157504724Y-109327500D02*
X156995276Y-109327500D01*
%TO.C,R6*%
X155395276Y-118227500D02*
X155904724Y-118227500D01*
X155395276Y-119272500D02*
X155904724Y-119272500D01*
%TO.C,R3*%
X143988799Y-111534389D02*
X143988799Y-111024941D01*
X145033799Y-111534389D02*
X145033799Y-111024941D01*
%TO.C,J1*%
X154133800Y-102429600D02*
X154133800Y-98429600D01*
X153843800Y-103459600D02*
X153843800Y-97439600D01*
X153843800Y-97439600D02*
X146003800Y-97439600D01*
X153263800Y-103459600D02*
X153263800Y-102859600D01*
X153263800Y-102859600D02*
X151663800Y-102859600D01*
X152463800Y-98439600D02*
X152213800Y-98969600D01*
X152463800Y-98439600D02*
X147383800Y-98439600D01*
X152463800Y-97439600D02*
X152463800Y-98439600D01*
X152213800Y-98969600D02*
X147633800Y-98969600D01*
X152213800Y-97439600D02*
X152213800Y-98439600D01*
X151663800Y-102859600D02*
X151663800Y-103459600D01*
X150723800Y-103459600D02*
X150723800Y-102859600D01*
X150723800Y-102859600D02*
X149123800Y-102859600D01*
X149123800Y-102859600D02*
X149123800Y-103459600D01*
X148183800Y-103459600D02*
X148183800Y-102859600D01*
X148183800Y-102859600D02*
X146583800Y-102859600D01*
X147633800Y-98969600D02*
X147383800Y-98439600D01*
X147633800Y-97439600D02*
X147633800Y-98439600D01*
X147383800Y-98439600D02*
X147383800Y-97439600D01*
X146583800Y-102859600D02*
X146583800Y-103459600D01*
X146003800Y-103459600D02*
X153843800Y-103459600D01*
X146003800Y-97439600D02*
X146003800Y-103459600D01*
%TO.C,R1*%
X151426007Y-111533902D02*
X151426007Y-111024454D01*
X152471007Y-111533902D02*
X152471007Y-111024454D01*
%TO.C,C5*%
X154576400Y-99611452D02*
X154576400Y-98188948D01*
X156396400Y-99611452D02*
X156396400Y-98188948D01*
%TO.C,R2*%
X141563747Y-109477499D02*
X142073195Y-109477499D01*
X141563747Y-110522499D02*
X142073195Y-110522499D01*
%TO.C,R4*%
X153570276Y-119702500D02*
X154079724Y-119702500D01*
X153570276Y-120747500D02*
X154079724Y-120747500D01*
%TO.C,R5*%
X156858688Y-107194814D02*
X156858688Y-107704262D01*
X155813688Y-107194814D02*
X155813688Y-107704262D01*
%TO.C,U1*%
X158260000Y-114300000D02*
X158260000Y-110850000D01*
X158260000Y-114300000D02*
X158260000Y-116250000D01*
X153140000Y-114300000D02*
X153140000Y-112350000D01*
X153140000Y-114300000D02*
X153140000Y-116250000D01*
%TD*%
M02*
