%TF.GenerationSoftware,KiCad,Pcbnew,7.0.10*%
%TF.CreationDate,2024-02-16T20:10:33+00:00*%
%TF.ProjectId,Template-3U220mm,54656d70-6c61-4746-952d-33553232306d,0.1*%
%TF.SameCoordinates,Original*%
%TF.FileFunction,Legend,Top*%
%TF.FilePolarity,Positive*%
%FSLAX46Y46*%
G04 Gerber Fmt 4.6, Leading zero omitted, Abs format (unit mm)*
G04 Created by KiCad (PCBNEW 7.0.10) date 2024-02-16 20:10:33*
%MOMM*%
%LPD*%
G01*
G04 APERTURE LIST*
%ADD10C,0.150000*%
%ADD11C,0.127000*%
%ADD12C,0.120000*%
%ADD13C,0.254000*%
G04 APERTURE END LIST*
D10*
X248496666Y-144746033D02*
X248496666Y-145246033D01*
X248496666Y-145246033D02*
X248463333Y-145346033D01*
X248463333Y-145346033D02*
X248396666Y-145412700D01*
X248396666Y-145412700D02*
X248296666Y-145446033D01*
X248296666Y-145446033D02*
X248230000Y-145446033D01*
X248796666Y-144812700D02*
X248829999Y-144779366D01*
X248829999Y-144779366D02*
X248896666Y-144746033D01*
X248896666Y-144746033D02*
X249063333Y-144746033D01*
X249063333Y-144746033D02*
X249129999Y-144779366D01*
X249129999Y-144779366D02*
X249163333Y-144812700D01*
X249163333Y-144812700D02*
X249196666Y-144879366D01*
X249196666Y-144879366D02*
X249196666Y-144946033D01*
X249196666Y-144946033D02*
X249163333Y-145046033D01*
X249163333Y-145046033D02*
X248763333Y-145446033D01*
X248763333Y-145446033D02*
X249196666Y-145446033D01*
X223600476Y-54134819D02*
X223600476Y-54849104D01*
X223600476Y-54849104D02*
X223552857Y-54991961D01*
X223552857Y-54991961D02*
X223457619Y-55087200D01*
X223457619Y-55087200D02*
X223314762Y-55134819D01*
X223314762Y-55134819D02*
X223219524Y-55134819D01*
X224029048Y-54230057D02*
X224076667Y-54182438D01*
X224076667Y-54182438D02*
X224171905Y-54134819D01*
X224171905Y-54134819D02*
X224410000Y-54134819D01*
X224410000Y-54134819D02*
X224505238Y-54182438D01*
X224505238Y-54182438D02*
X224552857Y-54230057D01*
X224552857Y-54230057D02*
X224600476Y-54325295D01*
X224600476Y-54325295D02*
X224600476Y-54420533D01*
X224600476Y-54420533D02*
X224552857Y-54563390D01*
X224552857Y-54563390D02*
X223981429Y-55134819D01*
X223981429Y-55134819D02*
X224600476Y-55134819D01*
X224981429Y-54230057D02*
X225029048Y-54182438D01*
X225029048Y-54182438D02*
X225124286Y-54134819D01*
X225124286Y-54134819D02*
X225362381Y-54134819D01*
X225362381Y-54134819D02*
X225457619Y-54182438D01*
X225457619Y-54182438D02*
X225505238Y-54230057D01*
X225505238Y-54230057D02*
X225552857Y-54325295D01*
X225552857Y-54325295D02*
X225552857Y-54420533D01*
X225552857Y-54420533D02*
X225505238Y-54563390D01*
X225505238Y-54563390D02*
X224933810Y-55134819D01*
X224933810Y-55134819D02*
X225552857Y-55134819D01*
X215547142Y-147224819D02*
X215213809Y-146748628D01*
X214975714Y-147224819D02*
X214975714Y-146224819D01*
X214975714Y-146224819D02*
X215356666Y-146224819D01*
X215356666Y-146224819D02*
X215451904Y-146272438D01*
X215451904Y-146272438D02*
X215499523Y-146320057D01*
X215499523Y-146320057D02*
X215547142Y-146415295D01*
X215547142Y-146415295D02*
X215547142Y-146558152D01*
X215547142Y-146558152D02*
X215499523Y-146653390D01*
X215499523Y-146653390D02*
X215451904Y-146701009D01*
X215451904Y-146701009D02*
X215356666Y-146748628D01*
X215356666Y-146748628D02*
X214975714Y-146748628D01*
X216499523Y-147224819D02*
X215928095Y-147224819D01*
X216213809Y-147224819D02*
X216213809Y-146224819D01*
X216213809Y-146224819D02*
X216118571Y-146367676D01*
X216118571Y-146367676D02*
X216023333Y-146462914D01*
X216023333Y-146462914D02*
X215928095Y-146510533D01*
X217356666Y-146224819D02*
X217166190Y-146224819D01*
X217166190Y-146224819D02*
X217070952Y-146272438D01*
X217070952Y-146272438D02*
X217023333Y-146320057D01*
X217023333Y-146320057D02*
X216928095Y-146462914D01*
X216928095Y-146462914D02*
X216880476Y-146653390D01*
X216880476Y-146653390D02*
X216880476Y-147034342D01*
X216880476Y-147034342D02*
X216928095Y-147129580D01*
X216928095Y-147129580D02*
X216975714Y-147177200D01*
X216975714Y-147177200D02*
X217070952Y-147224819D01*
X217070952Y-147224819D02*
X217261428Y-147224819D01*
X217261428Y-147224819D02*
X217356666Y-147177200D01*
X217356666Y-147177200D02*
X217404285Y-147129580D01*
X217404285Y-147129580D02*
X217451904Y-147034342D01*
X217451904Y-147034342D02*
X217451904Y-146796247D01*
X217451904Y-146796247D02*
X217404285Y-146701009D01*
X217404285Y-146701009D02*
X217356666Y-146653390D01*
X217356666Y-146653390D02*
X217261428Y-146605771D01*
X217261428Y-146605771D02*
X217070952Y-146605771D01*
X217070952Y-146605771D02*
X216975714Y-146653390D01*
X216975714Y-146653390D02*
X216928095Y-146701009D01*
X216928095Y-146701009D02*
X216880476Y-146796247D01*
X221164819Y-76641904D02*
X221974342Y-76641904D01*
X221974342Y-76641904D02*
X222069580Y-76594285D01*
X222069580Y-76594285D02*
X222117200Y-76546666D01*
X222117200Y-76546666D02*
X222164819Y-76451428D01*
X222164819Y-76451428D02*
X222164819Y-76260952D01*
X222164819Y-76260952D02*
X222117200Y-76165714D01*
X222117200Y-76165714D02*
X222069580Y-76118095D01*
X222069580Y-76118095D02*
X221974342Y-76070476D01*
X221974342Y-76070476D02*
X221164819Y-76070476D01*
X221260057Y-75641904D02*
X221212438Y-75594285D01*
X221212438Y-75594285D02*
X221164819Y-75499047D01*
X221164819Y-75499047D02*
X221164819Y-75260952D01*
X221164819Y-75260952D02*
X221212438Y-75165714D01*
X221212438Y-75165714D02*
X221260057Y-75118095D01*
X221260057Y-75118095D02*
X221355295Y-75070476D01*
X221355295Y-75070476D02*
X221450533Y-75070476D01*
X221450533Y-75070476D02*
X221593390Y-75118095D01*
X221593390Y-75118095D02*
X222164819Y-75689523D01*
X222164819Y-75689523D02*
X222164819Y-75070476D01*
X219294819Y-91496666D02*
X218818628Y-91829999D01*
X219294819Y-92068094D02*
X218294819Y-92068094D01*
X218294819Y-92068094D02*
X218294819Y-91687142D01*
X218294819Y-91687142D02*
X218342438Y-91591904D01*
X218342438Y-91591904D02*
X218390057Y-91544285D01*
X218390057Y-91544285D02*
X218485295Y-91496666D01*
X218485295Y-91496666D02*
X218628152Y-91496666D01*
X218628152Y-91496666D02*
X218723390Y-91544285D01*
X218723390Y-91544285D02*
X218771009Y-91591904D01*
X218771009Y-91591904D02*
X218818628Y-91687142D01*
X218818628Y-91687142D02*
X218818628Y-92068094D01*
X219294819Y-91020475D02*
X219294819Y-90829999D01*
X219294819Y-90829999D02*
X219247200Y-90734761D01*
X219247200Y-90734761D02*
X219199580Y-90687142D01*
X219199580Y-90687142D02*
X219056723Y-90591904D01*
X219056723Y-90591904D02*
X218866247Y-90544285D01*
X218866247Y-90544285D02*
X218485295Y-90544285D01*
X218485295Y-90544285D02*
X218390057Y-90591904D01*
X218390057Y-90591904D02*
X218342438Y-90639523D01*
X218342438Y-90639523D02*
X218294819Y-90734761D01*
X218294819Y-90734761D02*
X218294819Y-90925237D01*
X218294819Y-90925237D02*
X218342438Y-91020475D01*
X218342438Y-91020475D02*
X218390057Y-91068094D01*
X218390057Y-91068094D02*
X218485295Y-91115713D01*
X218485295Y-91115713D02*
X218723390Y-91115713D01*
X218723390Y-91115713D02*
X218818628Y-91068094D01*
X218818628Y-91068094D02*
X218866247Y-91020475D01*
X218866247Y-91020475D02*
X218913866Y-90925237D01*
X218913866Y-90925237D02*
X218913866Y-90734761D01*
X218913866Y-90734761D02*
X218866247Y-90639523D01*
X218866247Y-90639523D02*
X218818628Y-90591904D01*
X218818628Y-90591904D02*
X218723390Y-90544285D01*
X230844819Y-76869523D02*
X231559104Y-76869523D01*
X231559104Y-76869523D02*
X231701961Y-76917142D01*
X231701961Y-76917142D02*
X231797200Y-77012380D01*
X231797200Y-77012380D02*
X231844819Y-77155237D01*
X231844819Y-77155237D02*
X231844819Y-77250475D01*
X230940057Y-76440951D02*
X230892438Y-76393332D01*
X230892438Y-76393332D02*
X230844819Y-76298094D01*
X230844819Y-76298094D02*
X230844819Y-76059999D01*
X230844819Y-76059999D02*
X230892438Y-75964761D01*
X230892438Y-75964761D02*
X230940057Y-75917142D01*
X230940057Y-75917142D02*
X231035295Y-75869523D01*
X231035295Y-75869523D02*
X231130533Y-75869523D01*
X231130533Y-75869523D02*
X231273390Y-75917142D01*
X231273390Y-75917142D02*
X231844819Y-76488570D01*
X231844819Y-76488570D02*
X231844819Y-75869523D01*
X231178152Y-75012380D02*
X231844819Y-75012380D01*
X230797200Y-75250475D02*
X231511485Y-75488570D01*
X231511485Y-75488570D02*
X231511485Y-74869523D01*
X209669580Y-66436666D02*
X209717200Y-66484285D01*
X209717200Y-66484285D02*
X209764819Y-66627142D01*
X209764819Y-66627142D02*
X209764819Y-66722380D01*
X209764819Y-66722380D02*
X209717200Y-66865237D01*
X209717200Y-66865237D02*
X209621961Y-66960475D01*
X209621961Y-66960475D02*
X209526723Y-67008094D01*
X209526723Y-67008094D02*
X209336247Y-67055713D01*
X209336247Y-67055713D02*
X209193390Y-67055713D01*
X209193390Y-67055713D02*
X209002914Y-67008094D01*
X209002914Y-67008094D02*
X208907676Y-66960475D01*
X208907676Y-66960475D02*
X208812438Y-66865237D01*
X208812438Y-66865237D02*
X208764819Y-66722380D01*
X208764819Y-66722380D02*
X208764819Y-66627142D01*
X208764819Y-66627142D02*
X208812438Y-66484285D01*
X208812438Y-66484285D02*
X208860057Y-66436666D01*
X208764819Y-65579523D02*
X208764819Y-65769999D01*
X208764819Y-65769999D02*
X208812438Y-65865237D01*
X208812438Y-65865237D02*
X208860057Y-65912856D01*
X208860057Y-65912856D02*
X209002914Y-66008094D01*
X209002914Y-66008094D02*
X209193390Y-66055713D01*
X209193390Y-66055713D02*
X209574342Y-66055713D01*
X209574342Y-66055713D02*
X209669580Y-66008094D01*
X209669580Y-66008094D02*
X209717200Y-65960475D01*
X209717200Y-65960475D02*
X209764819Y-65865237D01*
X209764819Y-65865237D02*
X209764819Y-65674761D01*
X209764819Y-65674761D02*
X209717200Y-65579523D01*
X209717200Y-65579523D02*
X209669580Y-65531904D01*
X209669580Y-65531904D02*
X209574342Y-65484285D01*
X209574342Y-65484285D02*
X209336247Y-65484285D01*
X209336247Y-65484285D02*
X209241009Y-65531904D01*
X209241009Y-65531904D02*
X209193390Y-65579523D01*
X209193390Y-65579523D02*
X209145771Y-65674761D01*
X209145771Y-65674761D02*
X209145771Y-65865237D01*
X209145771Y-65865237D02*
X209193390Y-65960475D01*
X209193390Y-65960475D02*
X209241009Y-66008094D01*
X209241009Y-66008094D02*
X209336247Y-66055713D01*
X221574819Y-132391904D02*
X222384342Y-132391904D01*
X222384342Y-132391904D02*
X222479580Y-132344285D01*
X222479580Y-132344285D02*
X222527200Y-132296666D01*
X222527200Y-132296666D02*
X222574819Y-132201428D01*
X222574819Y-132201428D02*
X222574819Y-132010952D01*
X222574819Y-132010952D02*
X222527200Y-131915714D01*
X222527200Y-131915714D02*
X222479580Y-131868095D01*
X222479580Y-131868095D02*
X222384342Y-131820476D01*
X222384342Y-131820476D02*
X221574819Y-131820476D01*
X221574819Y-131439523D02*
X221574819Y-130820476D01*
X221574819Y-130820476D02*
X221955771Y-131153809D01*
X221955771Y-131153809D02*
X221955771Y-131010952D01*
X221955771Y-131010952D02*
X222003390Y-130915714D01*
X222003390Y-130915714D02*
X222051009Y-130868095D01*
X222051009Y-130868095D02*
X222146247Y-130820476D01*
X222146247Y-130820476D02*
X222384342Y-130820476D01*
X222384342Y-130820476D02*
X222479580Y-130868095D01*
X222479580Y-130868095D02*
X222527200Y-130915714D01*
X222527200Y-130915714D02*
X222574819Y-131010952D01*
X222574819Y-131010952D02*
X222574819Y-131296666D01*
X222574819Y-131296666D02*
X222527200Y-131391904D01*
X222527200Y-131391904D02*
X222479580Y-131439523D01*
X206204819Y-137262857D02*
X205728628Y-137596190D01*
X206204819Y-137834285D02*
X205204819Y-137834285D01*
X205204819Y-137834285D02*
X205204819Y-137453333D01*
X205204819Y-137453333D02*
X205252438Y-137358095D01*
X205252438Y-137358095D02*
X205300057Y-137310476D01*
X205300057Y-137310476D02*
X205395295Y-137262857D01*
X205395295Y-137262857D02*
X205538152Y-137262857D01*
X205538152Y-137262857D02*
X205633390Y-137310476D01*
X205633390Y-137310476D02*
X205681009Y-137358095D01*
X205681009Y-137358095D02*
X205728628Y-137453333D01*
X205728628Y-137453333D02*
X205728628Y-137834285D01*
X206204819Y-136310476D02*
X206204819Y-136881904D01*
X206204819Y-136596190D02*
X205204819Y-136596190D01*
X205204819Y-136596190D02*
X205347676Y-136691428D01*
X205347676Y-136691428D02*
X205442914Y-136786666D01*
X205442914Y-136786666D02*
X205490533Y-136881904D01*
X206204819Y-135358095D02*
X206204819Y-135929523D01*
X206204819Y-135643809D02*
X205204819Y-135643809D01*
X205204819Y-135643809D02*
X205347676Y-135739047D01*
X205347676Y-135739047D02*
X205442914Y-135834285D01*
X205442914Y-135834285D02*
X205490533Y-135929523D01*
X219864819Y-123059523D02*
X220579104Y-123059523D01*
X220579104Y-123059523D02*
X220721961Y-123107142D01*
X220721961Y-123107142D02*
X220817200Y-123202380D01*
X220817200Y-123202380D02*
X220864819Y-123345237D01*
X220864819Y-123345237D02*
X220864819Y-123440475D01*
X220864819Y-122059523D02*
X220864819Y-122630951D01*
X220864819Y-122345237D02*
X219864819Y-122345237D01*
X219864819Y-122345237D02*
X220007676Y-122440475D01*
X220007676Y-122440475D02*
X220102914Y-122535713D01*
X220102914Y-122535713D02*
X220150533Y-122630951D01*
X219864819Y-121726189D02*
X219864819Y-121059523D01*
X219864819Y-121059523D02*
X220864819Y-121488094D01*
X230474819Y-111179523D02*
X231189104Y-111179523D01*
X231189104Y-111179523D02*
X231331961Y-111227142D01*
X231331961Y-111227142D02*
X231427200Y-111322380D01*
X231427200Y-111322380D02*
X231474819Y-111465237D01*
X231474819Y-111465237D02*
X231474819Y-111560475D01*
X230570057Y-110750951D02*
X230522438Y-110703332D01*
X230522438Y-110703332D02*
X230474819Y-110608094D01*
X230474819Y-110608094D02*
X230474819Y-110369999D01*
X230474819Y-110369999D02*
X230522438Y-110274761D01*
X230522438Y-110274761D02*
X230570057Y-110227142D01*
X230570057Y-110227142D02*
X230665295Y-110179523D01*
X230665295Y-110179523D02*
X230760533Y-110179523D01*
X230760533Y-110179523D02*
X230903390Y-110227142D01*
X230903390Y-110227142D02*
X231474819Y-110798570D01*
X231474819Y-110798570D02*
X231474819Y-110179523D01*
X230474819Y-109846189D02*
X230474819Y-109179523D01*
X230474819Y-109179523D02*
X231474819Y-109608094D01*
X243084819Y-110879523D02*
X243799104Y-110879523D01*
X243799104Y-110879523D02*
X243941961Y-110927142D01*
X243941961Y-110927142D02*
X244037200Y-111022380D01*
X244037200Y-111022380D02*
X244084819Y-111165237D01*
X244084819Y-111165237D02*
X244084819Y-111260475D01*
X243180057Y-110450951D02*
X243132438Y-110403332D01*
X243132438Y-110403332D02*
X243084819Y-110308094D01*
X243084819Y-110308094D02*
X243084819Y-110069999D01*
X243084819Y-110069999D02*
X243132438Y-109974761D01*
X243132438Y-109974761D02*
X243180057Y-109927142D01*
X243180057Y-109927142D02*
X243275295Y-109879523D01*
X243275295Y-109879523D02*
X243370533Y-109879523D01*
X243370533Y-109879523D02*
X243513390Y-109927142D01*
X243513390Y-109927142D02*
X244084819Y-110498570D01*
X244084819Y-110498570D02*
X244084819Y-109879523D01*
X243513390Y-109308094D02*
X243465771Y-109403332D01*
X243465771Y-109403332D02*
X243418152Y-109450951D01*
X243418152Y-109450951D02*
X243322914Y-109498570D01*
X243322914Y-109498570D02*
X243275295Y-109498570D01*
X243275295Y-109498570D02*
X243180057Y-109450951D01*
X243180057Y-109450951D02*
X243132438Y-109403332D01*
X243132438Y-109403332D02*
X243084819Y-109308094D01*
X243084819Y-109308094D02*
X243084819Y-109117618D01*
X243084819Y-109117618D02*
X243132438Y-109022380D01*
X243132438Y-109022380D02*
X243180057Y-108974761D01*
X243180057Y-108974761D02*
X243275295Y-108927142D01*
X243275295Y-108927142D02*
X243322914Y-108927142D01*
X243322914Y-108927142D02*
X243418152Y-108974761D01*
X243418152Y-108974761D02*
X243465771Y-109022380D01*
X243465771Y-109022380D02*
X243513390Y-109117618D01*
X243513390Y-109117618D02*
X243513390Y-109308094D01*
X243513390Y-109308094D02*
X243561009Y-109403332D01*
X243561009Y-109403332D02*
X243608628Y-109450951D01*
X243608628Y-109450951D02*
X243703866Y-109498570D01*
X243703866Y-109498570D02*
X243894342Y-109498570D01*
X243894342Y-109498570D02*
X243989580Y-109450951D01*
X243989580Y-109450951D02*
X244037200Y-109403332D01*
X244037200Y-109403332D02*
X244084819Y-109308094D01*
X244084819Y-109308094D02*
X244084819Y-109117618D01*
X244084819Y-109117618D02*
X244037200Y-109022380D01*
X244037200Y-109022380D02*
X243989580Y-108974761D01*
X243989580Y-108974761D02*
X243894342Y-108927142D01*
X243894342Y-108927142D02*
X243703866Y-108927142D01*
X243703866Y-108927142D02*
X243608628Y-108974761D01*
X243608628Y-108974761D02*
X243561009Y-109022380D01*
X243561009Y-109022380D02*
X243513390Y-109117618D01*
X233544819Y-134289523D02*
X234259104Y-134289523D01*
X234259104Y-134289523D02*
X234401961Y-134337142D01*
X234401961Y-134337142D02*
X234497200Y-134432380D01*
X234497200Y-134432380D02*
X234544819Y-134575237D01*
X234544819Y-134575237D02*
X234544819Y-134670475D01*
X234544819Y-133289523D02*
X234544819Y-133860951D01*
X234544819Y-133575237D02*
X233544819Y-133575237D01*
X233544819Y-133575237D02*
X233687676Y-133670475D01*
X233687676Y-133670475D02*
X233782914Y-133765713D01*
X233782914Y-133765713D02*
X233830533Y-133860951D01*
X234544819Y-132813332D02*
X234544819Y-132622856D01*
X234544819Y-132622856D02*
X234497200Y-132527618D01*
X234497200Y-132527618D02*
X234449580Y-132479999D01*
X234449580Y-132479999D02*
X234306723Y-132384761D01*
X234306723Y-132384761D02*
X234116247Y-132337142D01*
X234116247Y-132337142D02*
X233735295Y-132337142D01*
X233735295Y-132337142D02*
X233640057Y-132384761D01*
X233640057Y-132384761D02*
X233592438Y-132432380D01*
X233592438Y-132432380D02*
X233544819Y-132527618D01*
X233544819Y-132527618D02*
X233544819Y-132718094D01*
X233544819Y-132718094D02*
X233592438Y-132813332D01*
X233592438Y-132813332D02*
X233640057Y-132860951D01*
X233640057Y-132860951D02*
X233735295Y-132908570D01*
X233735295Y-132908570D02*
X233973390Y-132908570D01*
X233973390Y-132908570D02*
X234068628Y-132860951D01*
X234068628Y-132860951D02*
X234116247Y-132813332D01*
X234116247Y-132813332D02*
X234163866Y-132718094D01*
X234163866Y-132718094D02*
X234163866Y-132527618D01*
X234163866Y-132527618D02*
X234116247Y-132432380D01*
X234116247Y-132432380D02*
X234068628Y-132384761D01*
X234068628Y-132384761D02*
X233973390Y-132337142D01*
X221918095Y-98764819D02*
X221918095Y-99574342D01*
X221918095Y-99574342D02*
X221965714Y-99669580D01*
X221965714Y-99669580D02*
X222013333Y-99717200D01*
X222013333Y-99717200D02*
X222108571Y-99764819D01*
X222108571Y-99764819D02*
X222299047Y-99764819D01*
X222299047Y-99764819D02*
X222394285Y-99717200D01*
X222394285Y-99717200D02*
X222441904Y-99669580D01*
X222441904Y-99669580D02*
X222489523Y-99574342D01*
X222489523Y-99574342D02*
X222489523Y-98764819D01*
X223489523Y-99764819D02*
X222918095Y-99764819D01*
X223203809Y-99764819D02*
X223203809Y-98764819D01*
X223203809Y-98764819D02*
X223108571Y-98907676D01*
X223108571Y-98907676D02*
X223013333Y-99002914D01*
X223013333Y-99002914D02*
X222918095Y-99050533D01*
X243084819Y-67279523D02*
X243799104Y-67279523D01*
X243799104Y-67279523D02*
X243941961Y-67327142D01*
X243941961Y-67327142D02*
X244037200Y-67422380D01*
X244037200Y-67422380D02*
X244084819Y-67565237D01*
X244084819Y-67565237D02*
X244084819Y-67660475D01*
X243180057Y-66850951D02*
X243132438Y-66803332D01*
X243132438Y-66803332D02*
X243084819Y-66708094D01*
X243084819Y-66708094D02*
X243084819Y-66469999D01*
X243084819Y-66469999D02*
X243132438Y-66374761D01*
X243132438Y-66374761D02*
X243180057Y-66327142D01*
X243180057Y-66327142D02*
X243275295Y-66279523D01*
X243275295Y-66279523D02*
X243370533Y-66279523D01*
X243370533Y-66279523D02*
X243513390Y-66327142D01*
X243513390Y-66327142D02*
X244084819Y-66898570D01*
X244084819Y-66898570D02*
X244084819Y-66279523D01*
X243084819Y-65660475D02*
X243084819Y-65565237D01*
X243084819Y-65565237D02*
X243132438Y-65469999D01*
X243132438Y-65469999D02*
X243180057Y-65422380D01*
X243180057Y-65422380D02*
X243275295Y-65374761D01*
X243275295Y-65374761D02*
X243465771Y-65327142D01*
X243465771Y-65327142D02*
X243703866Y-65327142D01*
X243703866Y-65327142D02*
X243894342Y-65374761D01*
X243894342Y-65374761D02*
X243989580Y-65422380D01*
X243989580Y-65422380D02*
X244037200Y-65469999D01*
X244037200Y-65469999D02*
X244084819Y-65565237D01*
X244084819Y-65565237D02*
X244084819Y-65660475D01*
X244084819Y-65660475D02*
X244037200Y-65755713D01*
X244037200Y-65755713D02*
X243989580Y-65803332D01*
X243989580Y-65803332D02*
X243894342Y-65850951D01*
X243894342Y-65850951D02*
X243703866Y-65898570D01*
X243703866Y-65898570D02*
X243465771Y-65898570D01*
X243465771Y-65898570D02*
X243275295Y-65850951D01*
X243275295Y-65850951D02*
X243180057Y-65803332D01*
X243180057Y-65803332D02*
X243132438Y-65755713D01*
X243132438Y-65755713D02*
X243084819Y-65660475D01*
X219314819Y-141992857D02*
X218838628Y-142326190D01*
X219314819Y-142564285D02*
X218314819Y-142564285D01*
X218314819Y-142564285D02*
X218314819Y-142183333D01*
X218314819Y-142183333D02*
X218362438Y-142088095D01*
X218362438Y-142088095D02*
X218410057Y-142040476D01*
X218410057Y-142040476D02*
X218505295Y-141992857D01*
X218505295Y-141992857D02*
X218648152Y-141992857D01*
X218648152Y-141992857D02*
X218743390Y-142040476D01*
X218743390Y-142040476D02*
X218791009Y-142088095D01*
X218791009Y-142088095D02*
X218838628Y-142183333D01*
X218838628Y-142183333D02*
X218838628Y-142564285D01*
X219314819Y-141040476D02*
X219314819Y-141611904D01*
X219314819Y-141326190D02*
X218314819Y-141326190D01*
X218314819Y-141326190D02*
X218457676Y-141421428D01*
X218457676Y-141421428D02*
X218552914Y-141516666D01*
X218552914Y-141516666D02*
X218600533Y-141611904D01*
X218314819Y-140135714D02*
X218314819Y-140611904D01*
X218314819Y-140611904D02*
X218791009Y-140659523D01*
X218791009Y-140659523D02*
X218743390Y-140611904D01*
X218743390Y-140611904D02*
X218695771Y-140516666D01*
X218695771Y-140516666D02*
X218695771Y-140278571D01*
X218695771Y-140278571D02*
X218743390Y-140183333D01*
X218743390Y-140183333D02*
X218791009Y-140135714D01*
X218791009Y-140135714D02*
X218886247Y-140088095D01*
X218886247Y-140088095D02*
X219124342Y-140088095D01*
X219124342Y-140088095D02*
X219219580Y-140135714D01*
X219219580Y-140135714D02*
X219267200Y-140183333D01*
X219267200Y-140183333D02*
X219314819Y-140278571D01*
X219314819Y-140278571D02*
X219314819Y-140516666D01*
X219314819Y-140516666D02*
X219267200Y-140611904D01*
X219267200Y-140611904D02*
X219219580Y-140659523D01*
X216787142Y-136374819D02*
X216453809Y-135898628D01*
X216215714Y-136374819D02*
X216215714Y-135374819D01*
X216215714Y-135374819D02*
X216596666Y-135374819D01*
X216596666Y-135374819D02*
X216691904Y-135422438D01*
X216691904Y-135422438D02*
X216739523Y-135470057D01*
X216739523Y-135470057D02*
X216787142Y-135565295D01*
X216787142Y-135565295D02*
X216787142Y-135708152D01*
X216787142Y-135708152D02*
X216739523Y-135803390D01*
X216739523Y-135803390D02*
X216691904Y-135851009D01*
X216691904Y-135851009D02*
X216596666Y-135898628D01*
X216596666Y-135898628D02*
X216215714Y-135898628D01*
X217739523Y-136374819D02*
X217168095Y-136374819D01*
X217453809Y-136374819D02*
X217453809Y-135374819D01*
X217453809Y-135374819D02*
X217358571Y-135517676D01*
X217358571Y-135517676D02*
X217263333Y-135612914D01*
X217263333Y-135612914D02*
X217168095Y-135660533D01*
X218596666Y-135708152D02*
X218596666Y-136374819D01*
X218358571Y-135327200D02*
X218120476Y-136041485D01*
X218120476Y-136041485D02*
X218739523Y-136041485D01*
X230330476Y-54224819D02*
X230330476Y-54939104D01*
X230330476Y-54939104D02*
X230282857Y-55081961D01*
X230282857Y-55081961D02*
X230187619Y-55177200D01*
X230187619Y-55177200D02*
X230044762Y-55224819D01*
X230044762Y-55224819D02*
X229949524Y-55224819D01*
X230759048Y-54320057D02*
X230806667Y-54272438D01*
X230806667Y-54272438D02*
X230901905Y-54224819D01*
X230901905Y-54224819D02*
X231140000Y-54224819D01*
X231140000Y-54224819D02*
X231235238Y-54272438D01*
X231235238Y-54272438D02*
X231282857Y-54320057D01*
X231282857Y-54320057D02*
X231330476Y-54415295D01*
X231330476Y-54415295D02*
X231330476Y-54510533D01*
X231330476Y-54510533D02*
X231282857Y-54653390D01*
X231282857Y-54653390D02*
X230711429Y-55224819D01*
X230711429Y-55224819D02*
X231330476Y-55224819D01*
X232282857Y-55224819D02*
X231711429Y-55224819D01*
X231997143Y-55224819D02*
X231997143Y-54224819D01*
X231997143Y-54224819D02*
X231901905Y-54367676D01*
X231901905Y-54367676D02*
X231806667Y-54462914D01*
X231806667Y-54462914D02*
X231711429Y-54510533D01*
X211800476Y-146054819D02*
X211800476Y-146769104D01*
X211800476Y-146769104D02*
X211752857Y-146911961D01*
X211752857Y-146911961D02*
X211657619Y-147007200D01*
X211657619Y-147007200D02*
X211514762Y-147054819D01*
X211514762Y-147054819D02*
X211419524Y-147054819D01*
X212181429Y-146054819D02*
X212800476Y-146054819D01*
X212800476Y-146054819D02*
X212467143Y-146435771D01*
X212467143Y-146435771D02*
X212610000Y-146435771D01*
X212610000Y-146435771D02*
X212705238Y-146483390D01*
X212705238Y-146483390D02*
X212752857Y-146531009D01*
X212752857Y-146531009D02*
X212800476Y-146626247D01*
X212800476Y-146626247D02*
X212800476Y-146864342D01*
X212800476Y-146864342D02*
X212752857Y-146959580D01*
X212752857Y-146959580D02*
X212705238Y-147007200D01*
X212705238Y-147007200D02*
X212610000Y-147054819D01*
X212610000Y-147054819D02*
X212324286Y-147054819D01*
X212324286Y-147054819D02*
X212229048Y-147007200D01*
X212229048Y-147007200D02*
X212181429Y-146959580D01*
X213181429Y-146150057D02*
X213229048Y-146102438D01*
X213229048Y-146102438D02*
X213324286Y-146054819D01*
X213324286Y-146054819D02*
X213562381Y-146054819D01*
X213562381Y-146054819D02*
X213657619Y-146102438D01*
X213657619Y-146102438D02*
X213705238Y-146150057D01*
X213705238Y-146150057D02*
X213752857Y-146245295D01*
X213752857Y-146245295D02*
X213752857Y-146340533D01*
X213752857Y-146340533D02*
X213705238Y-146483390D01*
X213705238Y-146483390D02*
X213133810Y-147054819D01*
X213133810Y-147054819D02*
X213752857Y-147054819D01*
X212824819Y-99509523D02*
X213539104Y-99509523D01*
X213539104Y-99509523D02*
X213681961Y-99557142D01*
X213681961Y-99557142D02*
X213777200Y-99652380D01*
X213777200Y-99652380D02*
X213824819Y-99795237D01*
X213824819Y-99795237D02*
X213824819Y-99890475D01*
X212920057Y-99080951D02*
X212872438Y-99033332D01*
X212872438Y-99033332D02*
X212824819Y-98938094D01*
X212824819Y-98938094D02*
X212824819Y-98699999D01*
X212824819Y-98699999D02*
X212872438Y-98604761D01*
X212872438Y-98604761D02*
X212920057Y-98557142D01*
X212920057Y-98557142D02*
X213015295Y-98509523D01*
X213015295Y-98509523D02*
X213110533Y-98509523D01*
X213110533Y-98509523D02*
X213253390Y-98557142D01*
X213253390Y-98557142D02*
X213824819Y-99128570D01*
X213824819Y-99128570D02*
X213824819Y-98509523D01*
X213824819Y-98033332D02*
X213824819Y-97842856D01*
X213824819Y-97842856D02*
X213777200Y-97747618D01*
X213777200Y-97747618D02*
X213729580Y-97699999D01*
X213729580Y-97699999D02*
X213586723Y-97604761D01*
X213586723Y-97604761D02*
X213396247Y-97557142D01*
X213396247Y-97557142D02*
X213015295Y-97557142D01*
X213015295Y-97557142D02*
X212920057Y-97604761D01*
X212920057Y-97604761D02*
X212872438Y-97652380D01*
X212872438Y-97652380D02*
X212824819Y-97747618D01*
X212824819Y-97747618D02*
X212824819Y-97938094D01*
X212824819Y-97938094D02*
X212872438Y-98033332D01*
X212872438Y-98033332D02*
X212920057Y-98080951D01*
X212920057Y-98080951D02*
X213015295Y-98128570D01*
X213015295Y-98128570D02*
X213253390Y-98128570D01*
X213253390Y-98128570D02*
X213348628Y-98080951D01*
X213348628Y-98080951D02*
X213396247Y-98033332D01*
X213396247Y-98033332D02*
X213443866Y-97938094D01*
X213443866Y-97938094D02*
X213443866Y-97747618D01*
X213443866Y-97747618D02*
X213396247Y-97652380D01*
X213396247Y-97652380D02*
X213348628Y-97604761D01*
X213348628Y-97604761D02*
X213253390Y-97557142D01*
X225119580Y-99736666D02*
X225167200Y-99784285D01*
X225167200Y-99784285D02*
X225214819Y-99927142D01*
X225214819Y-99927142D02*
X225214819Y-100022380D01*
X225214819Y-100022380D02*
X225167200Y-100165237D01*
X225167200Y-100165237D02*
X225071961Y-100260475D01*
X225071961Y-100260475D02*
X224976723Y-100308094D01*
X224976723Y-100308094D02*
X224786247Y-100355713D01*
X224786247Y-100355713D02*
X224643390Y-100355713D01*
X224643390Y-100355713D02*
X224452914Y-100308094D01*
X224452914Y-100308094D02*
X224357676Y-100260475D01*
X224357676Y-100260475D02*
X224262438Y-100165237D01*
X224262438Y-100165237D02*
X224214819Y-100022380D01*
X224214819Y-100022380D02*
X224214819Y-99927142D01*
X224214819Y-99927142D02*
X224262438Y-99784285D01*
X224262438Y-99784285D02*
X224310057Y-99736666D01*
X224214819Y-99403332D02*
X224214819Y-98784285D01*
X224214819Y-98784285D02*
X224595771Y-99117618D01*
X224595771Y-99117618D02*
X224595771Y-98974761D01*
X224595771Y-98974761D02*
X224643390Y-98879523D01*
X224643390Y-98879523D02*
X224691009Y-98831904D01*
X224691009Y-98831904D02*
X224786247Y-98784285D01*
X224786247Y-98784285D02*
X225024342Y-98784285D01*
X225024342Y-98784285D02*
X225119580Y-98831904D01*
X225119580Y-98831904D02*
X225167200Y-98879523D01*
X225167200Y-98879523D02*
X225214819Y-98974761D01*
X225214819Y-98974761D02*
X225214819Y-99260475D01*
X225214819Y-99260475D02*
X225167200Y-99355713D01*
X225167200Y-99355713D02*
X225119580Y-99403332D01*
X209589580Y-115366666D02*
X209637200Y-115414285D01*
X209637200Y-115414285D02*
X209684819Y-115557142D01*
X209684819Y-115557142D02*
X209684819Y-115652380D01*
X209684819Y-115652380D02*
X209637200Y-115795237D01*
X209637200Y-115795237D02*
X209541961Y-115890475D01*
X209541961Y-115890475D02*
X209446723Y-115938094D01*
X209446723Y-115938094D02*
X209256247Y-115985713D01*
X209256247Y-115985713D02*
X209113390Y-115985713D01*
X209113390Y-115985713D02*
X208922914Y-115938094D01*
X208922914Y-115938094D02*
X208827676Y-115890475D01*
X208827676Y-115890475D02*
X208732438Y-115795237D01*
X208732438Y-115795237D02*
X208684819Y-115652380D01*
X208684819Y-115652380D02*
X208684819Y-115557142D01*
X208684819Y-115557142D02*
X208732438Y-115414285D01*
X208732438Y-115414285D02*
X208780057Y-115366666D01*
X208780057Y-114985713D02*
X208732438Y-114938094D01*
X208732438Y-114938094D02*
X208684819Y-114842856D01*
X208684819Y-114842856D02*
X208684819Y-114604761D01*
X208684819Y-114604761D02*
X208732438Y-114509523D01*
X208732438Y-114509523D02*
X208780057Y-114461904D01*
X208780057Y-114461904D02*
X208875295Y-114414285D01*
X208875295Y-114414285D02*
X208970533Y-114414285D01*
X208970533Y-114414285D02*
X209113390Y-114461904D01*
X209113390Y-114461904D02*
X209684819Y-115033332D01*
X209684819Y-115033332D02*
X209684819Y-114414285D01*
X222974819Y-111349523D02*
X223689104Y-111349523D01*
X223689104Y-111349523D02*
X223831961Y-111397142D01*
X223831961Y-111397142D02*
X223927200Y-111492380D01*
X223927200Y-111492380D02*
X223974819Y-111635237D01*
X223974819Y-111635237D02*
X223974819Y-111730475D01*
X223070057Y-110920951D02*
X223022438Y-110873332D01*
X223022438Y-110873332D02*
X222974819Y-110778094D01*
X222974819Y-110778094D02*
X222974819Y-110539999D01*
X222974819Y-110539999D02*
X223022438Y-110444761D01*
X223022438Y-110444761D02*
X223070057Y-110397142D01*
X223070057Y-110397142D02*
X223165295Y-110349523D01*
X223165295Y-110349523D02*
X223260533Y-110349523D01*
X223260533Y-110349523D02*
X223403390Y-110397142D01*
X223403390Y-110397142D02*
X223974819Y-110968570D01*
X223974819Y-110968570D02*
X223974819Y-110349523D01*
X222974819Y-109492380D02*
X222974819Y-109682856D01*
X222974819Y-109682856D02*
X223022438Y-109778094D01*
X223022438Y-109778094D02*
X223070057Y-109825713D01*
X223070057Y-109825713D02*
X223212914Y-109920951D01*
X223212914Y-109920951D02*
X223403390Y-109968570D01*
X223403390Y-109968570D02*
X223784342Y-109968570D01*
X223784342Y-109968570D02*
X223879580Y-109920951D01*
X223879580Y-109920951D02*
X223927200Y-109873332D01*
X223927200Y-109873332D02*
X223974819Y-109778094D01*
X223974819Y-109778094D02*
X223974819Y-109587618D01*
X223974819Y-109587618D02*
X223927200Y-109492380D01*
X223927200Y-109492380D02*
X223879580Y-109444761D01*
X223879580Y-109444761D02*
X223784342Y-109397142D01*
X223784342Y-109397142D02*
X223546247Y-109397142D01*
X223546247Y-109397142D02*
X223451009Y-109444761D01*
X223451009Y-109444761D02*
X223403390Y-109492380D01*
X223403390Y-109492380D02*
X223355771Y-109587618D01*
X223355771Y-109587618D02*
X223355771Y-109778094D01*
X223355771Y-109778094D02*
X223403390Y-109873332D01*
X223403390Y-109873332D02*
X223451009Y-109920951D01*
X223451009Y-109920951D02*
X223546247Y-109968570D01*
X243084819Y-89079523D02*
X243799104Y-89079523D01*
X243799104Y-89079523D02*
X243941961Y-89127142D01*
X243941961Y-89127142D02*
X244037200Y-89222380D01*
X244037200Y-89222380D02*
X244084819Y-89365237D01*
X244084819Y-89365237D02*
X244084819Y-89460475D01*
X243180057Y-88650951D02*
X243132438Y-88603332D01*
X243132438Y-88603332D02*
X243084819Y-88508094D01*
X243084819Y-88508094D02*
X243084819Y-88269999D01*
X243084819Y-88269999D02*
X243132438Y-88174761D01*
X243132438Y-88174761D02*
X243180057Y-88127142D01*
X243180057Y-88127142D02*
X243275295Y-88079523D01*
X243275295Y-88079523D02*
X243370533Y-88079523D01*
X243370533Y-88079523D02*
X243513390Y-88127142D01*
X243513390Y-88127142D02*
X244084819Y-88698570D01*
X244084819Y-88698570D02*
X244084819Y-88079523D01*
X243084819Y-87746189D02*
X243084819Y-87127142D01*
X243084819Y-87127142D02*
X243465771Y-87460475D01*
X243465771Y-87460475D02*
X243465771Y-87317618D01*
X243465771Y-87317618D02*
X243513390Y-87222380D01*
X243513390Y-87222380D02*
X243561009Y-87174761D01*
X243561009Y-87174761D02*
X243656247Y-87127142D01*
X243656247Y-87127142D02*
X243894342Y-87127142D01*
X243894342Y-87127142D02*
X243989580Y-87174761D01*
X243989580Y-87174761D02*
X244037200Y-87222380D01*
X244037200Y-87222380D02*
X244084819Y-87317618D01*
X244084819Y-87317618D02*
X244084819Y-87603332D01*
X244084819Y-87603332D02*
X244037200Y-87698570D01*
X244037200Y-87698570D02*
X243989580Y-87746189D01*
X220148095Y-136134819D02*
X220148095Y-136944342D01*
X220148095Y-136944342D02*
X220195714Y-137039580D01*
X220195714Y-137039580D02*
X220243333Y-137087200D01*
X220243333Y-137087200D02*
X220338571Y-137134819D01*
X220338571Y-137134819D02*
X220529047Y-137134819D01*
X220529047Y-137134819D02*
X220624285Y-137087200D01*
X220624285Y-137087200D02*
X220671904Y-137039580D01*
X220671904Y-137039580D02*
X220719523Y-136944342D01*
X220719523Y-136944342D02*
X220719523Y-136134819D01*
X221624285Y-136468152D02*
X221624285Y-137134819D01*
X221386190Y-136087200D02*
X221148095Y-136801485D01*
X221148095Y-136801485D02*
X221767142Y-136801485D01*
X232380476Y-129594819D02*
X232380476Y-130309104D01*
X232380476Y-130309104D02*
X232332857Y-130451961D01*
X232332857Y-130451961D02*
X232237619Y-130547200D01*
X232237619Y-130547200D02*
X232094762Y-130594819D01*
X232094762Y-130594819D02*
X231999524Y-130594819D01*
X233380476Y-130594819D02*
X232809048Y-130594819D01*
X233094762Y-130594819D02*
X233094762Y-129594819D01*
X233094762Y-129594819D02*
X232999524Y-129737676D01*
X232999524Y-129737676D02*
X232904286Y-129832914D01*
X232904286Y-129832914D02*
X232809048Y-129880533D01*
X233951905Y-130023390D02*
X233856667Y-129975771D01*
X233856667Y-129975771D02*
X233809048Y-129928152D01*
X233809048Y-129928152D02*
X233761429Y-129832914D01*
X233761429Y-129832914D02*
X233761429Y-129785295D01*
X233761429Y-129785295D02*
X233809048Y-129690057D01*
X233809048Y-129690057D02*
X233856667Y-129642438D01*
X233856667Y-129642438D02*
X233951905Y-129594819D01*
X233951905Y-129594819D02*
X234142381Y-129594819D01*
X234142381Y-129594819D02*
X234237619Y-129642438D01*
X234237619Y-129642438D02*
X234285238Y-129690057D01*
X234285238Y-129690057D02*
X234332857Y-129785295D01*
X234332857Y-129785295D02*
X234332857Y-129832914D01*
X234332857Y-129832914D02*
X234285238Y-129928152D01*
X234285238Y-129928152D02*
X234237619Y-129975771D01*
X234237619Y-129975771D02*
X234142381Y-130023390D01*
X234142381Y-130023390D02*
X233951905Y-130023390D01*
X233951905Y-130023390D02*
X233856667Y-130071009D01*
X233856667Y-130071009D02*
X233809048Y-130118628D01*
X233809048Y-130118628D02*
X233761429Y-130213866D01*
X233761429Y-130213866D02*
X233761429Y-130404342D01*
X233761429Y-130404342D02*
X233809048Y-130499580D01*
X233809048Y-130499580D02*
X233856667Y-130547200D01*
X233856667Y-130547200D02*
X233951905Y-130594819D01*
X233951905Y-130594819D02*
X234142381Y-130594819D01*
X234142381Y-130594819D02*
X234237619Y-130547200D01*
X234237619Y-130547200D02*
X234285238Y-130499580D01*
X234285238Y-130499580D02*
X234332857Y-130404342D01*
X234332857Y-130404342D02*
X234332857Y-130213866D01*
X234332857Y-130213866D02*
X234285238Y-130118628D01*
X234285238Y-130118628D02*
X234237619Y-130071009D01*
X234237619Y-130071009D02*
X234142381Y-130023390D01*
X216619580Y-115822857D02*
X216667200Y-115870476D01*
X216667200Y-115870476D02*
X216714819Y-116013333D01*
X216714819Y-116013333D02*
X216714819Y-116108571D01*
X216714819Y-116108571D02*
X216667200Y-116251428D01*
X216667200Y-116251428D02*
X216571961Y-116346666D01*
X216571961Y-116346666D02*
X216476723Y-116394285D01*
X216476723Y-116394285D02*
X216286247Y-116441904D01*
X216286247Y-116441904D02*
X216143390Y-116441904D01*
X216143390Y-116441904D02*
X215952914Y-116394285D01*
X215952914Y-116394285D02*
X215857676Y-116346666D01*
X215857676Y-116346666D02*
X215762438Y-116251428D01*
X215762438Y-116251428D02*
X215714819Y-116108571D01*
X215714819Y-116108571D02*
X215714819Y-116013333D01*
X215714819Y-116013333D02*
X215762438Y-115870476D01*
X215762438Y-115870476D02*
X215810057Y-115822857D01*
X216714819Y-114870476D02*
X216714819Y-115441904D01*
X216714819Y-115156190D02*
X215714819Y-115156190D01*
X215714819Y-115156190D02*
X215857676Y-115251428D01*
X215857676Y-115251428D02*
X215952914Y-115346666D01*
X215952914Y-115346666D02*
X216000533Y-115441904D01*
X215714819Y-114537142D02*
X215714819Y-113918095D01*
X215714819Y-113918095D02*
X216095771Y-114251428D01*
X216095771Y-114251428D02*
X216095771Y-114108571D01*
X216095771Y-114108571D02*
X216143390Y-114013333D01*
X216143390Y-114013333D02*
X216191009Y-113965714D01*
X216191009Y-113965714D02*
X216286247Y-113918095D01*
X216286247Y-113918095D02*
X216524342Y-113918095D01*
X216524342Y-113918095D02*
X216619580Y-113965714D01*
X216619580Y-113965714D02*
X216667200Y-114013333D01*
X216667200Y-114013333D02*
X216714819Y-114108571D01*
X216714819Y-114108571D02*
X216714819Y-114394285D01*
X216714819Y-114394285D02*
X216667200Y-114489523D01*
X216667200Y-114489523D02*
X216619580Y-114537142D01*
X217204819Y-98332857D02*
X216728628Y-98666190D01*
X217204819Y-98904285D02*
X216204819Y-98904285D01*
X216204819Y-98904285D02*
X216204819Y-98523333D01*
X216204819Y-98523333D02*
X216252438Y-98428095D01*
X216252438Y-98428095D02*
X216300057Y-98380476D01*
X216300057Y-98380476D02*
X216395295Y-98332857D01*
X216395295Y-98332857D02*
X216538152Y-98332857D01*
X216538152Y-98332857D02*
X216633390Y-98380476D01*
X216633390Y-98380476D02*
X216681009Y-98428095D01*
X216681009Y-98428095D02*
X216728628Y-98523333D01*
X216728628Y-98523333D02*
X216728628Y-98904285D01*
X217204819Y-97380476D02*
X217204819Y-97951904D01*
X217204819Y-97666190D02*
X216204819Y-97666190D01*
X216204819Y-97666190D02*
X216347676Y-97761428D01*
X216347676Y-97761428D02*
X216442914Y-97856666D01*
X216442914Y-97856666D02*
X216490533Y-97951904D01*
X216204819Y-96761428D02*
X216204819Y-96666190D01*
X216204819Y-96666190D02*
X216252438Y-96570952D01*
X216252438Y-96570952D02*
X216300057Y-96523333D01*
X216300057Y-96523333D02*
X216395295Y-96475714D01*
X216395295Y-96475714D02*
X216585771Y-96428095D01*
X216585771Y-96428095D02*
X216823866Y-96428095D01*
X216823866Y-96428095D02*
X217014342Y-96475714D01*
X217014342Y-96475714D02*
X217109580Y-96523333D01*
X217109580Y-96523333D02*
X217157200Y-96570952D01*
X217157200Y-96570952D02*
X217204819Y-96666190D01*
X217204819Y-96666190D02*
X217204819Y-96761428D01*
X217204819Y-96761428D02*
X217157200Y-96856666D01*
X217157200Y-96856666D02*
X217109580Y-96904285D01*
X217109580Y-96904285D02*
X217014342Y-96951904D01*
X217014342Y-96951904D02*
X216823866Y-96999523D01*
X216823866Y-96999523D02*
X216585771Y-96999523D01*
X216585771Y-96999523D02*
X216395295Y-96951904D01*
X216395295Y-96951904D02*
X216300057Y-96904285D01*
X216300057Y-96904285D02*
X216252438Y-96856666D01*
X216252438Y-96856666D02*
X216204819Y-96761428D01*
X223684819Y-75809523D02*
X224399104Y-75809523D01*
X224399104Y-75809523D02*
X224541961Y-75857142D01*
X224541961Y-75857142D02*
X224637200Y-75952380D01*
X224637200Y-75952380D02*
X224684819Y-76095237D01*
X224684819Y-76095237D02*
X224684819Y-76190475D01*
X223780057Y-75380951D02*
X223732438Y-75333332D01*
X223732438Y-75333332D02*
X223684819Y-75238094D01*
X223684819Y-75238094D02*
X223684819Y-74999999D01*
X223684819Y-74999999D02*
X223732438Y-74904761D01*
X223732438Y-74904761D02*
X223780057Y-74857142D01*
X223780057Y-74857142D02*
X223875295Y-74809523D01*
X223875295Y-74809523D02*
X223970533Y-74809523D01*
X223970533Y-74809523D02*
X224113390Y-74857142D01*
X224113390Y-74857142D02*
X224684819Y-75428570D01*
X224684819Y-75428570D02*
X224684819Y-74809523D01*
X223684819Y-73904761D02*
X223684819Y-74380951D01*
X223684819Y-74380951D02*
X224161009Y-74428570D01*
X224161009Y-74428570D02*
X224113390Y-74380951D01*
X224113390Y-74380951D02*
X224065771Y-74285713D01*
X224065771Y-74285713D02*
X224065771Y-74047618D01*
X224065771Y-74047618D02*
X224113390Y-73952380D01*
X224113390Y-73952380D02*
X224161009Y-73904761D01*
X224161009Y-73904761D02*
X224256247Y-73857142D01*
X224256247Y-73857142D02*
X224494342Y-73857142D01*
X224494342Y-73857142D02*
X224589580Y-73904761D01*
X224589580Y-73904761D02*
X224637200Y-73952380D01*
X224637200Y-73952380D02*
X224684819Y-74047618D01*
X224684819Y-74047618D02*
X224684819Y-74285713D01*
X224684819Y-74285713D02*
X224637200Y-74380951D01*
X224637200Y-74380951D02*
X224589580Y-74428570D01*
X49883333Y-143496033D02*
X49650000Y-143162700D01*
X49483333Y-143496033D02*
X49483333Y-142796033D01*
X49483333Y-142796033D02*
X49750000Y-142796033D01*
X49750000Y-142796033D02*
X49816667Y-142829366D01*
X49816667Y-142829366D02*
X49850000Y-142862700D01*
X49850000Y-142862700D02*
X49883333Y-142929366D01*
X49883333Y-142929366D02*
X49883333Y-143029366D01*
X49883333Y-143029366D02*
X49850000Y-143096033D01*
X49850000Y-143096033D02*
X49816667Y-143129366D01*
X49816667Y-143129366D02*
X49750000Y-143162700D01*
X49750000Y-143162700D02*
X49483333Y-143162700D01*
X50150000Y-142862700D02*
X50183333Y-142829366D01*
X50183333Y-142829366D02*
X50250000Y-142796033D01*
X50250000Y-142796033D02*
X50416667Y-142796033D01*
X50416667Y-142796033D02*
X50483333Y-142829366D01*
X50483333Y-142829366D02*
X50516667Y-142862700D01*
X50516667Y-142862700D02*
X50550000Y-142929366D01*
X50550000Y-142929366D02*
X50550000Y-142996033D01*
X50550000Y-142996033D02*
X50516667Y-143096033D01*
X50516667Y-143096033D02*
X50116667Y-143496033D01*
X50116667Y-143496033D02*
X50550000Y-143496033D01*
X206334819Y-88366666D02*
X205858628Y-88699999D01*
X206334819Y-88938094D02*
X205334819Y-88938094D01*
X205334819Y-88938094D02*
X205334819Y-88557142D01*
X205334819Y-88557142D02*
X205382438Y-88461904D01*
X205382438Y-88461904D02*
X205430057Y-88414285D01*
X205430057Y-88414285D02*
X205525295Y-88366666D01*
X205525295Y-88366666D02*
X205668152Y-88366666D01*
X205668152Y-88366666D02*
X205763390Y-88414285D01*
X205763390Y-88414285D02*
X205811009Y-88461904D01*
X205811009Y-88461904D02*
X205858628Y-88557142D01*
X205858628Y-88557142D02*
X205858628Y-88938094D01*
X205763390Y-87795237D02*
X205715771Y-87890475D01*
X205715771Y-87890475D02*
X205668152Y-87938094D01*
X205668152Y-87938094D02*
X205572914Y-87985713D01*
X205572914Y-87985713D02*
X205525295Y-87985713D01*
X205525295Y-87985713D02*
X205430057Y-87938094D01*
X205430057Y-87938094D02*
X205382438Y-87890475D01*
X205382438Y-87890475D02*
X205334819Y-87795237D01*
X205334819Y-87795237D02*
X205334819Y-87604761D01*
X205334819Y-87604761D02*
X205382438Y-87509523D01*
X205382438Y-87509523D02*
X205430057Y-87461904D01*
X205430057Y-87461904D02*
X205525295Y-87414285D01*
X205525295Y-87414285D02*
X205572914Y-87414285D01*
X205572914Y-87414285D02*
X205668152Y-87461904D01*
X205668152Y-87461904D02*
X205715771Y-87509523D01*
X205715771Y-87509523D02*
X205763390Y-87604761D01*
X205763390Y-87604761D02*
X205763390Y-87795237D01*
X205763390Y-87795237D02*
X205811009Y-87890475D01*
X205811009Y-87890475D02*
X205858628Y-87938094D01*
X205858628Y-87938094D02*
X205953866Y-87985713D01*
X205953866Y-87985713D02*
X206144342Y-87985713D01*
X206144342Y-87985713D02*
X206239580Y-87938094D01*
X206239580Y-87938094D02*
X206287200Y-87890475D01*
X206287200Y-87890475D02*
X206334819Y-87795237D01*
X206334819Y-87795237D02*
X206334819Y-87604761D01*
X206334819Y-87604761D02*
X206287200Y-87509523D01*
X206287200Y-87509523D02*
X206239580Y-87461904D01*
X206239580Y-87461904D02*
X206144342Y-87414285D01*
X206144342Y-87414285D02*
X205953866Y-87414285D01*
X205953866Y-87414285D02*
X205858628Y-87461904D01*
X205858628Y-87461904D02*
X205811009Y-87509523D01*
X205811009Y-87509523D02*
X205763390Y-87604761D01*
X229287142Y-134069580D02*
X229239523Y-134117200D01*
X229239523Y-134117200D02*
X229096666Y-134164819D01*
X229096666Y-134164819D02*
X229001428Y-134164819D01*
X229001428Y-134164819D02*
X228858571Y-134117200D01*
X228858571Y-134117200D02*
X228763333Y-134021961D01*
X228763333Y-134021961D02*
X228715714Y-133926723D01*
X228715714Y-133926723D02*
X228668095Y-133736247D01*
X228668095Y-133736247D02*
X228668095Y-133593390D01*
X228668095Y-133593390D02*
X228715714Y-133402914D01*
X228715714Y-133402914D02*
X228763333Y-133307676D01*
X228763333Y-133307676D02*
X228858571Y-133212438D01*
X228858571Y-133212438D02*
X229001428Y-133164819D01*
X229001428Y-133164819D02*
X229096666Y-133164819D01*
X229096666Y-133164819D02*
X229239523Y-133212438D01*
X229239523Y-133212438D02*
X229287142Y-133260057D01*
X230239523Y-134164819D02*
X229668095Y-134164819D01*
X229953809Y-134164819D02*
X229953809Y-133164819D01*
X229953809Y-133164819D02*
X229858571Y-133307676D01*
X229858571Y-133307676D02*
X229763333Y-133402914D01*
X229763333Y-133402914D02*
X229668095Y-133450533D01*
X231144285Y-133164819D02*
X230668095Y-133164819D01*
X230668095Y-133164819D02*
X230620476Y-133641009D01*
X230620476Y-133641009D02*
X230668095Y-133593390D01*
X230668095Y-133593390D02*
X230763333Y-133545771D01*
X230763333Y-133545771D02*
X231001428Y-133545771D01*
X231001428Y-133545771D02*
X231096666Y-133593390D01*
X231096666Y-133593390D02*
X231144285Y-133641009D01*
X231144285Y-133641009D02*
X231191904Y-133736247D01*
X231191904Y-133736247D02*
X231191904Y-133974342D01*
X231191904Y-133974342D02*
X231144285Y-134069580D01*
X231144285Y-134069580D02*
X231096666Y-134117200D01*
X231096666Y-134117200D02*
X231001428Y-134164819D01*
X231001428Y-134164819D02*
X230763333Y-134164819D01*
X230763333Y-134164819D02*
X230668095Y-134117200D01*
X230668095Y-134117200D02*
X230620476Y-134069580D01*
D11*
X265300514Y-139123162D02*
X266443514Y-138361162D01*
X265300514Y-138361162D02*
X266443514Y-139123162D01*
X266443514Y-137327019D02*
X266443514Y-137980162D01*
X266443514Y-137653591D02*
X265300514Y-137653591D01*
X265300514Y-137653591D02*
X265463800Y-137762448D01*
X265463800Y-137762448D02*
X265572657Y-137871305D01*
X265572657Y-137871305D02*
X265627086Y-137980162D01*
X247115552Y-64293514D02*
X247115552Y-63150514D01*
X247115552Y-64239086D02*
X247006694Y-64293514D01*
X247006694Y-64293514D02*
X246788980Y-64293514D01*
X246788980Y-64293514D02*
X246680123Y-64239086D01*
X246680123Y-64239086D02*
X246625694Y-64184657D01*
X246625694Y-64184657D02*
X246571266Y-64075800D01*
X246571266Y-64075800D02*
X246571266Y-63749228D01*
X246571266Y-63749228D02*
X246625694Y-63640371D01*
X246625694Y-63640371D02*
X246680123Y-63585943D01*
X246680123Y-63585943D02*
X246788980Y-63531514D01*
X246788980Y-63531514D02*
X247006694Y-63531514D01*
X247006694Y-63531514D02*
X247115552Y-63585943D01*
X268983514Y-72974305D02*
X267840514Y-72974305D01*
X267840514Y-72974305D02*
X267840514Y-72702162D01*
X267840514Y-72702162D02*
X267894943Y-72538876D01*
X267894943Y-72538876D02*
X268003800Y-72430019D01*
X268003800Y-72430019D02*
X268112657Y-72375590D01*
X268112657Y-72375590D02*
X268330371Y-72321162D01*
X268330371Y-72321162D02*
X268493657Y-72321162D01*
X268493657Y-72321162D02*
X268711371Y-72375590D01*
X268711371Y-72375590D02*
X268820228Y-72430019D01*
X268820228Y-72430019D02*
X268929086Y-72538876D01*
X268929086Y-72538876D02*
X268983514Y-72702162D01*
X268983514Y-72702162D02*
X268983514Y-72974305D01*
X268983514Y-71831305D02*
X267840514Y-71831305D01*
X268983514Y-71287019D02*
X267840514Y-71287019D01*
X267840514Y-71287019D02*
X268983514Y-70633876D01*
X268983514Y-70633876D02*
X267840514Y-70633876D01*
X268221514Y-68728876D02*
X268983514Y-68728876D01*
X267786086Y-69001018D02*
X268602514Y-69273161D01*
X268602514Y-69273161D02*
X268602514Y-68565590D01*
X268983514Y-67531447D02*
X268983514Y-68184590D01*
X268983514Y-67858019D02*
X267840514Y-67858019D01*
X267840514Y-67858019D02*
X268003800Y-67966876D01*
X268003800Y-67966876D02*
X268112657Y-68075733D01*
X268112657Y-68075733D02*
X268167086Y-68184590D01*
X267840514Y-66551734D02*
X267840514Y-66769448D01*
X267840514Y-66769448D02*
X267894943Y-66878305D01*
X267894943Y-66878305D02*
X267949371Y-66932734D01*
X267949371Y-66932734D02*
X268112657Y-67041591D01*
X268112657Y-67041591D02*
X268330371Y-67096019D01*
X268330371Y-67096019D02*
X268765800Y-67096019D01*
X268765800Y-67096019D02*
X268874657Y-67041591D01*
X268874657Y-67041591D02*
X268929086Y-66987162D01*
X268929086Y-66987162D02*
X268983514Y-66878305D01*
X268983514Y-66878305D02*
X268983514Y-66660591D01*
X268983514Y-66660591D02*
X268929086Y-66551734D01*
X268929086Y-66551734D02*
X268874657Y-66497305D01*
X268874657Y-66497305D02*
X268765800Y-66442876D01*
X268765800Y-66442876D02*
X268493657Y-66442876D01*
X268493657Y-66442876D02*
X268384800Y-66497305D01*
X268384800Y-66497305D02*
X268330371Y-66551734D01*
X268330371Y-66551734D02*
X268275943Y-66660591D01*
X268275943Y-66660591D02*
X268275943Y-66878305D01*
X268275943Y-66878305D02*
X268330371Y-66987162D01*
X268330371Y-66987162D02*
X268384800Y-67041591D01*
X268384800Y-67041591D02*
X268493657Y-67096019D01*
X268983514Y-65354305D02*
X268983514Y-66007448D01*
X268983514Y-65680877D02*
X267840514Y-65680877D01*
X267840514Y-65680877D02*
X268003800Y-65789734D01*
X268003800Y-65789734D02*
X268112657Y-65898591D01*
X268112657Y-65898591D02*
X268167086Y-66007448D01*
X267949371Y-64918877D02*
X267894943Y-64864449D01*
X267894943Y-64864449D02*
X267840514Y-64755592D01*
X267840514Y-64755592D02*
X267840514Y-64483449D01*
X267840514Y-64483449D02*
X267894943Y-64374592D01*
X267894943Y-64374592D02*
X267949371Y-64320163D01*
X267949371Y-64320163D02*
X268058228Y-64265734D01*
X268058228Y-64265734D02*
X268167086Y-64265734D01*
X268167086Y-64265734D02*
X268330371Y-64320163D01*
X268330371Y-64320163D02*
X268983514Y-64973306D01*
X268983514Y-64973306D02*
X268983514Y-64265734D01*
X265808514Y-72974305D02*
X264665514Y-72974305D01*
X265209800Y-72974305D02*
X265209800Y-72321162D01*
X265808514Y-72321162D02*
X264665514Y-72321162D01*
X265808514Y-71178161D02*
X265808514Y-71831304D01*
X265808514Y-71504733D02*
X264665514Y-71504733D01*
X264665514Y-71504733D02*
X264828800Y-71613590D01*
X264828800Y-71613590D02*
X264937657Y-71722447D01*
X264937657Y-71722447D02*
X264992086Y-71831304D01*
X264665514Y-70144019D02*
X264665514Y-70688305D01*
X264665514Y-70688305D02*
X265209800Y-70742733D01*
X265209800Y-70742733D02*
X265155371Y-70688305D01*
X265155371Y-70688305D02*
X265100943Y-70579448D01*
X265100943Y-70579448D02*
X265100943Y-70307305D01*
X265100943Y-70307305D02*
X265155371Y-70198448D01*
X265155371Y-70198448D02*
X265209800Y-70144019D01*
X265209800Y-70144019D02*
X265318657Y-70089590D01*
X265318657Y-70089590D02*
X265590800Y-70089590D01*
X265590800Y-70089590D02*
X265699657Y-70144019D01*
X265699657Y-70144019D02*
X265754086Y-70198448D01*
X265754086Y-70198448D02*
X265808514Y-70307305D01*
X265808514Y-70307305D02*
X265808514Y-70579448D01*
X265808514Y-70579448D02*
X265754086Y-70688305D01*
X265754086Y-70688305D02*
X265699657Y-70742733D01*
X265808514Y-69599734D02*
X264665514Y-69599734D01*
X264665514Y-69599734D02*
X265481943Y-69218734D01*
X265481943Y-69218734D02*
X264665514Y-68837734D01*
X264665514Y-68837734D02*
X265808514Y-68837734D01*
X250961837Y-63531514D02*
X251560552Y-63531514D01*
X251560552Y-63531514D02*
X250961837Y-64293514D01*
X250961837Y-64293514D02*
X251560552Y-64293514D01*
X256195552Y-67961514D02*
X256195552Y-68723514D01*
X255923409Y-67526086D02*
X255651266Y-68342514D01*
X255651266Y-68342514D02*
X256358837Y-68342514D01*
D10*
X229273333Y-131389580D02*
X229225714Y-131437200D01*
X229225714Y-131437200D02*
X229082857Y-131484819D01*
X229082857Y-131484819D02*
X228987619Y-131484819D01*
X228987619Y-131484819D02*
X228844762Y-131437200D01*
X228844762Y-131437200D02*
X228749524Y-131341961D01*
X228749524Y-131341961D02*
X228701905Y-131246723D01*
X228701905Y-131246723D02*
X228654286Y-131056247D01*
X228654286Y-131056247D02*
X228654286Y-130913390D01*
X228654286Y-130913390D02*
X228701905Y-130722914D01*
X228701905Y-130722914D02*
X228749524Y-130627676D01*
X228749524Y-130627676D02*
X228844762Y-130532438D01*
X228844762Y-130532438D02*
X228987619Y-130484819D01*
X228987619Y-130484819D02*
X229082857Y-130484819D01*
X229082857Y-130484819D02*
X229225714Y-130532438D01*
X229225714Y-130532438D02*
X229273333Y-130580057D01*
X230130476Y-130818152D02*
X230130476Y-131484819D01*
X229892381Y-130437200D02*
X229654286Y-131151485D01*
X229654286Y-131151485D02*
X230273333Y-131151485D01*
X213173333Y-88074819D02*
X212840000Y-87598628D01*
X212601905Y-88074819D02*
X212601905Y-87074819D01*
X212601905Y-87074819D02*
X212982857Y-87074819D01*
X212982857Y-87074819D02*
X213078095Y-87122438D01*
X213078095Y-87122438D02*
X213125714Y-87170057D01*
X213125714Y-87170057D02*
X213173333Y-87265295D01*
X213173333Y-87265295D02*
X213173333Y-87408152D01*
X213173333Y-87408152D02*
X213125714Y-87503390D01*
X213125714Y-87503390D02*
X213078095Y-87551009D01*
X213078095Y-87551009D02*
X212982857Y-87598628D01*
X212982857Y-87598628D02*
X212601905Y-87598628D01*
X214030476Y-87074819D02*
X213840000Y-87074819D01*
X213840000Y-87074819D02*
X213744762Y-87122438D01*
X213744762Y-87122438D02*
X213697143Y-87170057D01*
X213697143Y-87170057D02*
X213601905Y-87312914D01*
X213601905Y-87312914D02*
X213554286Y-87503390D01*
X213554286Y-87503390D02*
X213554286Y-87884342D01*
X213554286Y-87884342D02*
X213601905Y-87979580D01*
X213601905Y-87979580D02*
X213649524Y-88027200D01*
X213649524Y-88027200D02*
X213744762Y-88074819D01*
X213744762Y-88074819D02*
X213935238Y-88074819D01*
X213935238Y-88074819D02*
X214030476Y-88027200D01*
X214030476Y-88027200D02*
X214078095Y-87979580D01*
X214078095Y-87979580D02*
X214125714Y-87884342D01*
X214125714Y-87884342D02*
X214125714Y-87646247D01*
X214125714Y-87646247D02*
X214078095Y-87551009D01*
X214078095Y-87551009D02*
X214030476Y-87503390D01*
X214030476Y-87503390D02*
X213935238Y-87455771D01*
X213935238Y-87455771D02*
X213744762Y-87455771D01*
X213744762Y-87455771D02*
X213649524Y-87503390D01*
X213649524Y-87503390D02*
X213601905Y-87551009D01*
X213601905Y-87551009D02*
X213554286Y-87646247D01*
X215459580Y-66496666D02*
X215507200Y-66544285D01*
X215507200Y-66544285D02*
X215554819Y-66687142D01*
X215554819Y-66687142D02*
X215554819Y-66782380D01*
X215554819Y-66782380D02*
X215507200Y-66925237D01*
X215507200Y-66925237D02*
X215411961Y-67020475D01*
X215411961Y-67020475D02*
X215316723Y-67068094D01*
X215316723Y-67068094D02*
X215126247Y-67115713D01*
X215126247Y-67115713D02*
X214983390Y-67115713D01*
X214983390Y-67115713D02*
X214792914Y-67068094D01*
X214792914Y-67068094D02*
X214697676Y-67020475D01*
X214697676Y-67020475D02*
X214602438Y-66925237D01*
X214602438Y-66925237D02*
X214554819Y-66782380D01*
X214554819Y-66782380D02*
X214554819Y-66687142D01*
X214554819Y-66687142D02*
X214602438Y-66544285D01*
X214602438Y-66544285D02*
X214650057Y-66496666D01*
X215554819Y-66020475D02*
X215554819Y-65829999D01*
X215554819Y-65829999D02*
X215507200Y-65734761D01*
X215507200Y-65734761D02*
X215459580Y-65687142D01*
X215459580Y-65687142D02*
X215316723Y-65591904D01*
X215316723Y-65591904D02*
X215126247Y-65544285D01*
X215126247Y-65544285D02*
X214745295Y-65544285D01*
X214745295Y-65544285D02*
X214650057Y-65591904D01*
X214650057Y-65591904D02*
X214602438Y-65639523D01*
X214602438Y-65639523D02*
X214554819Y-65734761D01*
X214554819Y-65734761D02*
X214554819Y-65925237D01*
X214554819Y-65925237D02*
X214602438Y-66020475D01*
X214602438Y-66020475D02*
X214650057Y-66068094D01*
X214650057Y-66068094D02*
X214745295Y-66115713D01*
X214745295Y-66115713D02*
X214983390Y-66115713D01*
X214983390Y-66115713D02*
X215078628Y-66068094D01*
X215078628Y-66068094D02*
X215126247Y-66020475D01*
X215126247Y-66020475D02*
X215173866Y-65925237D01*
X215173866Y-65925237D02*
X215173866Y-65734761D01*
X215173866Y-65734761D02*
X215126247Y-65639523D01*
X215126247Y-65639523D02*
X215078628Y-65591904D01*
X215078628Y-65591904D02*
X214983390Y-65544285D01*
X231709580Y-100432857D02*
X231757200Y-100480476D01*
X231757200Y-100480476D02*
X231804819Y-100623333D01*
X231804819Y-100623333D02*
X231804819Y-100718571D01*
X231804819Y-100718571D02*
X231757200Y-100861428D01*
X231757200Y-100861428D02*
X231661961Y-100956666D01*
X231661961Y-100956666D02*
X231566723Y-101004285D01*
X231566723Y-101004285D02*
X231376247Y-101051904D01*
X231376247Y-101051904D02*
X231233390Y-101051904D01*
X231233390Y-101051904D02*
X231042914Y-101004285D01*
X231042914Y-101004285D02*
X230947676Y-100956666D01*
X230947676Y-100956666D02*
X230852438Y-100861428D01*
X230852438Y-100861428D02*
X230804819Y-100718571D01*
X230804819Y-100718571D02*
X230804819Y-100623333D01*
X230804819Y-100623333D02*
X230852438Y-100480476D01*
X230852438Y-100480476D02*
X230900057Y-100432857D01*
X231804819Y-99480476D02*
X231804819Y-100051904D01*
X231804819Y-99766190D02*
X230804819Y-99766190D01*
X230804819Y-99766190D02*
X230947676Y-99861428D01*
X230947676Y-99861428D02*
X231042914Y-99956666D01*
X231042914Y-99956666D02*
X231090533Y-100051904D01*
X230804819Y-98861428D02*
X230804819Y-98766190D01*
X230804819Y-98766190D02*
X230852438Y-98670952D01*
X230852438Y-98670952D02*
X230900057Y-98623333D01*
X230900057Y-98623333D02*
X230995295Y-98575714D01*
X230995295Y-98575714D02*
X231185771Y-98528095D01*
X231185771Y-98528095D02*
X231423866Y-98528095D01*
X231423866Y-98528095D02*
X231614342Y-98575714D01*
X231614342Y-98575714D02*
X231709580Y-98623333D01*
X231709580Y-98623333D02*
X231757200Y-98670952D01*
X231757200Y-98670952D02*
X231804819Y-98766190D01*
X231804819Y-98766190D02*
X231804819Y-98861428D01*
X231804819Y-98861428D02*
X231757200Y-98956666D01*
X231757200Y-98956666D02*
X231709580Y-99004285D01*
X231709580Y-99004285D02*
X231614342Y-99051904D01*
X231614342Y-99051904D02*
X231423866Y-99099523D01*
X231423866Y-99099523D02*
X231185771Y-99099523D01*
X231185771Y-99099523D02*
X230995295Y-99051904D01*
X230995295Y-99051904D02*
X230900057Y-99004285D01*
X230900057Y-99004285D02*
X230852438Y-98956666D01*
X230852438Y-98956666D02*
X230804819Y-98861428D01*
D12*
%TO.C,R12*%
X206670000Y-133387064D02*
X206670000Y-131932936D01*
X208490000Y-133387064D02*
X208490000Y-131932936D01*
%TO.C,J22*%
X226440000Y-55700000D02*
X222440000Y-55700000D01*
X227470000Y-55990000D02*
X221450000Y-55990000D01*
X221450000Y-55990000D02*
X221450000Y-63830000D01*
X227470000Y-56570000D02*
X226870000Y-56570000D01*
X226870000Y-56570000D02*
X226870000Y-58170000D01*
X222450000Y-57370000D02*
X222980000Y-57620000D01*
X222450000Y-57370000D02*
X222450000Y-62450000D01*
X221450000Y-57370000D02*
X222450000Y-57370000D01*
X222980000Y-57620000D02*
X222980000Y-62200000D01*
X221450000Y-57620000D02*
X222450000Y-57620000D01*
X226870000Y-58170000D02*
X227470000Y-58170000D01*
X227470000Y-59110000D02*
X226870000Y-59110000D01*
X226870000Y-59110000D02*
X226870000Y-60710000D01*
X226870000Y-60710000D02*
X227470000Y-60710000D01*
X227470000Y-61650000D02*
X226870000Y-61650000D01*
X226870000Y-61650000D02*
X226870000Y-63250000D01*
X222980000Y-62200000D02*
X222450000Y-62450000D01*
X221450000Y-62200000D02*
X222450000Y-62200000D01*
X222450000Y-62450000D02*
X221450000Y-62450000D01*
X226870000Y-63250000D02*
X227470000Y-63250000D01*
X227470000Y-63830000D02*
X227470000Y-55990000D01*
X221450000Y-63830000D02*
X227470000Y-63830000D01*
%TO.C,R16*%
X217790000Y-144527064D02*
X217790000Y-143072936D01*
X215970000Y-144527064D02*
X215970000Y-143072936D01*
%TO.C,U2*%
X220360000Y-74695000D02*
X218550000Y-74695000D01*
X218550000Y-74695000D02*
X218550000Y-69570000D01*
X211770000Y-74695000D02*
X211770000Y-73595000D01*
X209960000Y-74695000D02*
X211770000Y-74695000D01*
X220360000Y-76195000D02*
X220360000Y-74695000D01*
X209960000Y-76195000D02*
X209960000Y-74695000D01*
%TO.C,R9*%
X217700000Y-88172936D02*
X217700000Y-89627064D01*
X215880000Y-88172936D02*
X215880000Y-89627064D01*
%TO.C,J24*%
X233260000Y-77470000D02*
X229260000Y-77470000D01*
X234290000Y-77760000D02*
X228270000Y-77760000D01*
X228270000Y-77760000D02*
X228270000Y-85600000D01*
X234290000Y-78340000D02*
X233690000Y-78340000D01*
X233690000Y-78340000D02*
X233690000Y-79940000D01*
X229270000Y-79140000D02*
X229800000Y-79390000D01*
X229270000Y-79140000D02*
X229270000Y-84220000D01*
X228270000Y-79140000D02*
X229270000Y-79140000D01*
X229800000Y-79390000D02*
X229800000Y-83970000D01*
X228270000Y-79390000D02*
X229270000Y-79390000D01*
X233690000Y-79940000D02*
X234290000Y-79940000D01*
X234290000Y-80880000D02*
X233690000Y-80880000D01*
X233690000Y-80880000D02*
X233690000Y-82480000D01*
X233690000Y-82480000D02*
X234290000Y-82480000D01*
X234290000Y-83420000D02*
X233690000Y-83420000D01*
X233690000Y-83420000D02*
X233690000Y-85020000D01*
X229800000Y-83970000D02*
X229270000Y-84220000D01*
X228270000Y-83970000D02*
X229270000Y-83970000D01*
X229270000Y-84220000D02*
X228270000Y-84220000D01*
X233690000Y-85020000D02*
X234290000Y-85020000D01*
X234290000Y-85600000D02*
X234290000Y-77760000D01*
X228270000Y-85600000D02*
X234290000Y-85600000D01*
%TO.C,C16*%
X206680000Y-145508752D02*
X206680000Y-144086248D01*
X208500000Y-145508752D02*
X208500000Y-144086248D01*
%TO.C,C6*%
X212490000Y-67011252D02*
X212490000Y-65588748D01*
X214310000Y-67011252D02*
X214310000Y-65588748D01*
%TO.C,J15*%
X49500000Y-103500000D02*
X49500000Y-104300000D01*
X49300000Y-103500000D02*
X49500000Y-103500000D01*
X46500000Y-103700000D02*
X46700000Y-103500000D01*
X46500000Y-104300000D02*
X46500000Y-103700000D01*
X46500000Y-104300000D02*
X46000000Y-104300000D01*
X49500000Y-105700000D02*
X49500000Y-106500000D01*
X46500000Y-105700000D02*
X46000000Y-105700000D01*
X49500000Y-106500000D02*
X49300000Y-106500000D01*
X46700000Y-106500000D02*
X46500000Y-106500000D01*
X46500000Y-106500000D02*
X46500000Y-105700000D01*
%TO.C,U3*%
X220600000Y-123675000D02*
X218790000Y-123675000D01*
X218790000Y-123675000D02*
X218790000Y-118550000D01*
X212010000Y-123675000D02*
X212010000Y-122575000D01*
X210200000Y-123675000D02*
X212010000Y-123675000D01*
X220600000Y-125175000D02*
X220600000Y-123675000D01*
X210200000Y-125175000D02*
X210200000Y-123675000D01*
%TO.C,J1*%
X49500000Y-93500000D02*
X49500000Y-94300000D01*
X49300000Y-93500000D02*
X49500000Y-93500000D01*
X46500000Y-93700000D02*
X46700000Y-93500000D01*
X46500000Y-94300000D02*
X46500000Y-93700000D01*
X46500000Y-94300000D02*
X46000000Y-94300000D01*
X49500000Y-95700000D02*
X49500000Y-96500000D01*
X46500000Y-95700000D02*
X46000000Y-95700000D01*
X49500000Y-96500000D02*
X49300000Y-96500000D01*
X46700000Y-96500000D02*
X46500000Y-96500000D01*
X46500000Y-96500000D02*
X46500000Y-95700000D01*
%TO.C,J9*%
X49500000Y-133500000D02*
X49500000Y-134300000D01*
X49300000Y-133500000D02*
X49500000Y-133500000D01*
X46500000Y-133700000D02*
X46700000Y-133500000D01*
X46500000Y-134300000D02*
X46500000Y-133700000D01*
X46500000Y-134300000D02*
X46000000Y-134300000D01*
X49500000Y-135700000D02*
X49500000Y-136500000D01*
X46500000Y-135700000D02*
X46000000Y-135700000D01*
X49500000Y-136500000D02*
X49300000Y-136500000D01*
X46700000Y-136500000D02*
X46500000Y-136500000D01*
X46500000Y-136500000D02*
X46500000Y-135700000D01*
%TO.C,C14*%
X206680000Y-140548752D02*
X206680000Y-139126248D01*
X208500000Y-140548752D02*
X208500000Y-139126248D01*
%TO.C,R11*%
X209527064Y-137110000D02*
X208072936Y-137110000D01*
X209527064Y-135290000D02*
X208072936Y-135290000D01*
%TO.C,J17*%
X226440000Y-121080000D02*
X222440000Y-121080000D01*
X227470000Y-121370000D02*
X221450000Y-121370000D01*
X221450000Y-121370000D02*
X221450000Y-129210000D01*
X227470000Y-121950000D02*
X226870000Y-121950000D01*
X226870000Y-121950000D02*
X226870000Y-123550000D01*
X222450000Y-122750000D02*
X222980000Y-123000000D01*
X222450000Y-122750000D02*
X222450000Y-127830000D01*
X221450000Y-122750000D02*
X222450000Y-122750000D01*
X222980000Y-123000000D02*
X222980000Y-127580000D01*
X221450000Y-123000000D02*
X222450000Y-123000000D01*
X226870000Y-123550000D02*
X227470000Y-123550000D01*
X227470000Y-124490000D02*
X226870000Y-124490000D01*
X226870000Y-124490000D02*
X226870000Y-126090000D01*
X226870000Y-126090000D02*
X227470000Y-126090000D01*
X227470000Y-127030000D02*
X226870000Y-127030000D01*
X226870000Y-127030000D02*
X226870000Y-128630000D01*
X222980000Y-127580000D02*
X222450000Y-127830000D01*
X221450000Y-127580000D02*
X222450000Y-127580000D01*
X222450000Y-127830000D02*
X221450000Y-127830000D01*
X226870000Y-128630000D02*
X227470000Y-128630000D01*
X227470000Y-129210000D02*
X227470000Y-121370000D01*
X221450000Y-129210000D02*
X227470000Y-129210000D01*
%TO.C,J27*%
X233250000Y-112450000D02*
X229250000Y-112450000D01*
X234280000Y-112740000D02*
X228260000Y-112740000D01*
X228260000Y-112740000D02*
X228260000Y-120580000D01*
X234280000Y-113320000D02*
X233680000Y-113320000D01*
X233680000Y-113320000D02*
X233680000Y-114920000D01*
X229260000Y-114120000D02*
X229790000Y-114370000D01*
X229260000Y-114120000D02*
X229260000Y-119200000D01*
X228260000Y-114120000D02*
X229260000Y-114120000D01*
X229790000Y-114370000D02*
X229790000Y-118950000D01*
X228260000Y-114370000D02*
X229260000Y-114370000D01*
X233680000Y-114920000D02*
X234280000Y-114920000D01*
X234280000Y-115860000D02*
X233680000Y-115860000D01*
X233680000Y-115860000D02*
X233680000Y-117460000D01*
X233680000Y-117460000D02*
X234280000Y-117460000D01*
X234280000Y-118400000D02*
X233680000Y-118400000D01*
X233680000Y-118400000D02*
X233680000Y-120000000D01*
X229790000Y-118950000D02*
X229260000Y-119200000D01*
X228260000Y-118950000D02*
X229260000Y-118950000D01*
X229260000Y-119200000D02*
X228260000Y-119200000D01*
X233680000Y-120000000D02*
X234280000Y-120000000D01*
X234280000Y-120580000D02*
X234280000Y-112740000D01*
X228260000Y-120580000D02*
X234280000Y-120580000D01*
%TO.C,J28*%
X241290000Y-99560000D02*
X235070000Y-99560000D01*
X235070000Y-99560000D02*
X235070000Y-120580000D01*
X242930000Y-103970000D02*
X242930000Y-105970000D01*
X241680000Y-103970000D02*
X242930000Y-103970000D01*
X242540000Y-104360000D02*
X241290000Y-104360000D01*
X241290000Y-104360000D02*
X241290000Y-99560000D01*
X241580000Y-105070000D02*
X241580000Y-108070000D01*
X240230000Y-105070000D02*
X240230000Y-105820000D01*
X235930000Y-105070000D02*
X240230000Y-105070000D01*
X240580000Y-105320000D02*
X241580000Y-105070000D01*
X240580000Y-105820000D02*
X240580000Y-105320000D01*
X240230000Y-105820000D02*
X240580000Y-105820000D01*
X235930000Y-105820000D02*
X235930000Y-105070000D01*
X240580000Y-107320000D02*
X240230000Y-107320000D01*
X240230000Y-107320000D02*
X240230000Y-108070000D01*
X240580000Y-107820000D02*
X240580000Y-107320000D01*
X241580000Y-108070000D02*
X240580000Y-107820000D01*
X240230000Y-108070000D02*
X235930000Y-108070000D01*
X235930000Y-108070000D02*
X235930000Y-107320000D01*
X241580000Y-108570000D02*
X241580000Y-111570000D01*
X240230000Y-108570000D02*
X240230000Y-109320000D01*
X235930000Y-108570000D02*
X240230000Y-108570000D01*
X240580000Y-108820000D02*
X241580000Y-108570000D01*
X240580000Y-109320000D02*
X240580000Y-108820000D01*
X240230000Y-109320000D02*
X240580000Y-109320000D01*
X235930000Y-109320000D02*
X235930000Y-108570000D01*
X240580000Y-110820000D02*
X240230000Y-110820000D01*
X240230000Y-110820000D02*
X240230000Y-111570000D01*
X240580000Y-111320000D02*
X240580000Y-110820000D01*
X241580000Y-111570000D02*
X240580000Y-111320000D01*
X240230000Y-111570000D02*
X235930000Y-111570000D01*
X235930000Y-111570000D02*
X235930000Y-110820000D01*
X241580000Y-112070000D02*
X241580000Y-115070000D01*
X240230000Y-112070000D02*
X240230000Y-112820000D01*
X235930000Y-112070000D02*
X240230000Y-112070000D01*
X240580000Y-112320000D02*
X241580000Y-112070000D01*
X240580000Y-112820000D02*
X240580000Y-112320000D01*
X240230000Y-112820000D02*
X240580000Y-112820000D01*
X235930000Y-112820000D02*
X235930000Y-112070000D01*
X240580000Y-114320000D02*
X240230000Y-114320000D01*
X240230000Y-114320000D02*
X240230000Y-115070000D01*
X240580000Y-114820000D02*
X240580000Y-114320000D01*
X241580000Y-115070000D02*
X240580000Y-114820000D01*
X240230000Y-115070000D02*
X235930000Y-115070000D01*
X235930000Y-115070000D02*
X235930000Y-114320000D01*
X242540000Y-115780000D02*
X242540000Y-104360000D01*
X241290000Y-115780000D02*
X242540000Y-115780000D01*
X241290000Y-120580000D02*
X241290000Y-115780000D01*
X235070000Y-120580000D02*
X241290000Y-120580000D01*
X235930155Y-107319647D02*
G75*
G03*
X235930000Y-105820000I-1700155J749647D01*
G01*
X235930155Y-110819647D02*
G75*
G03*
X235930000Y-109320000I-1700155J749647D01*
G01*
X235930155Y-114319647D02*
G75*
G03*
X235930000Y-112820000I-1700155J749647D01*
G01*
X240080000Y-102270000D02*
G75*
G03*
X236280000Y-102270000I-1900000J0D01*
G01*
X236280000Y-102270000D02*
G75*
G03*
X240080000Y-102270000I1900000J0D01*
G01*
X240080000Y-117870000D02*
G75*
G03*
X236280000Y-117870000I-1900000J0D01*
G01*
X236280000Y-117870000D02*
G75*
G03*
X240080000Y-117870000I1900000J0D01*
G01*
%TO.C,J7*%
X49500000Y-63500000D02*
X49500000Y-64300000D01*
X49300000Y-63500000D02*
X49500000Y-63500000D01*
X46500000Y-63700000D02*
X46700000Y-63500000D01*
X46500000Y-64300000D02*
X46500000Y-63700000D01*
X46500000Y-64300000D02*
X46000000Y-64300000D01*
X49500000Y-65700000D02*
X49500000Y-66500000D01*
X46500000Y-65700000D02*
X46000000Y-65700000D01*
X49500000Y-66500000D02*
X49300000Y-66500000D01*
X46700000Y-66500000D02*
X46500000Y-66500000D01*
X46500000Y-66500000D02*
X46500000Y-65700000D01*
%TO.C,J19*%
X241287500Y-121360000D02*
X235067500Y-121360000D01*
X235067500Y-121360000D02*
X235067500Y-142380000D01*
X242927500Y-125770000D02*
X242927500Y-127770000D01*
X241677500Y-125770000D02*
X242927500Y-125770000D01*
X242537500Y-126160000D02*
X241287500Y-126160000D01*
X241287500Y-126160000D02*
X241287500Y-121360000D01*
X241577500Y-126870000D02*
X241577500Y-129870000D01*
X240227500Y-126870000D02*
X240227500Y-127620000D01*
X235927500Y-126870000D02*
X240227500Y-126870000D01*
X240577500Y-127120000D02*
X241577500Y-126870000D01*
X240577500Y-127620000D02*
X240577500Y-127120000D01*
X240227500Y-127620000D02*
X240577500Y-127620000D01*
X235927500Y-127620000D02*
X235927500Y-126870000D01*
X240577500Y-129120000D02*
X240227500Y-129120000D01*
X240227500Y-129120000D02*
X240227500Y-129870000D01*
X240577500Y-129620000D02*
X240577500Y-129120000D01*
X241577500Y-129870000D02*
X240577500Y-129620000D01*
X240227500Y-129870000D02*
X235927500Y-129870000D01*
X235927500Y-129870000D02*
X235927500Y-129120000D01*
X241577500Y-130370000D02*
X241577500Y-133370000D01*
X240227500Y-130370000D02*
X240227500Y-131120000D01*
X235927500Y-130370000D02*
X240227500Y-130370000D01*
X240577500Y-130620000D02*
X241577500Y-130370000D01*
X240577500Y-131120000D02*
X240577500Y-130620000D01*
X240227500Y-131120000D02*
X240577500Y-131120000D01*
X235927500Y-131120000D02*
X235927500Y-130370000D01*
X240577500Y-132620000D02*
X240227500Y-132620000D01*
X240227500Y-132620000D02*
X240227500Y-133370000D01*
X240577500Y-133120000D02*
X240577500Y-132620000D01*
X241577500Y-133370000D02*
X240577500Y-133120000D01*
X240227500Y-133370000D02*
X235927500Y-133370000D01*
X235927500Y-133370000D02*
X235927500Y-132620000D01*
X241577500Y-133870000D02*
X241577500Y-136870000D01*
X240227500Y-133870000D02*
X240227500Y-134620000D01*
X235927500Y-133870000D02*
X240227500Y-133870000D01*
X240577500Y-134120000D02*
X241577500Y-133870000D01*
X240577500Y-134620000D02*
X240577500Y-134120000D01*
X240227500Y-134620000D02*
X240577500Y-134620000D01*
X235927500Y-134620000D02*
X235927500Y-133870000D01*
X240577500Y-136120000D02*
X240227500Y-136120000D01*
X240227500Y-136120000D02*
X240227500Y-136870000D01*
X240577500Y-136620000D02*
X240577500Y-136120000D01*
X241577500Y-136870000D02*
X240577500Y-136620000D01*
X240227500Y-136870000D02*
X235927500Y-136870000D01*
X235927500Y-136870000D02*
X235927500Y-136120000D01*
X242537500Y-137580000D02*
X242537500Y-126160000D01*
X241287500Y-137580000D02*
X242537500Y-137580000D01*
X241287500Y-142380000D02*
X241287500Y-137580000D01*
X235067500Y-142380000D02*
X241287500Y-142380000D01*
X235927655Y-129119647D02*
G75*
G03*
X235927500Y-127620000I-1700155J749647D01*
G01*
X235927655Y-132619647D02*
G75*
G03*
X235927500Y-131120000I-1700155J749647D01*
G01*
X235927655Y-136119647D02*
G75*
G03*
X235927500Y-134620000I-1700155J749647D01*
G01*
X240077500Y-124070000D02*
G75*
G03*
X236277500Y-124070000I-1900000J0D01*
G01*
X236277500Y-124070000D02*
G75*
G03*
X240077500Y-124070000I1900000J0D01*
G01*
X240077500Y-139670000D02*
G75*
G03*
X236277500Y-139670000I-1900000J0D01*
G01*
X236277500Y-139670000D02*
G75*
G03*
X240077500Y-139670000I1900000J0D01*
G01*
%TO.C,U1*%
X223310000Y-86525000D02*
X223310000Y-88335000D01*
X223310000Y-88335000D02*
X218185000Y-88335000D01*
X223310000Y-95115000D02*
X222210000Y-95115000D01*
X223310000Y-96925000D02*
X223310000Y-95115000D01*
X224810000Y-86525000D02*
X223310000Y-86525000D01*
X224810000Y-96925000D02*
X223310000Y-96925000D01*
%TO.C,J20*%
X241290000Y-55960000D02*
X235070000Y-55960000D01*
X235070000Y-55960000D02*
X235070000Y-76980000D01*
X242930000Y-60370000D02*
X242930000Y-62370000D01*
X241680000Y-60370000D02*
X242930000Y-60370000D01*
X242540000Y-60760000D02*
X241290000Y-60760000D01*
X241290000Y-60760000D02*
X241290000Y-55960000D01*
X241580000Y-61470000D02*
X241580000Y-64470000D01*
X240230000Y-61470000D02*
X240230000Y-62220000D01*
X235930000Y-61470000D02*
X240230000Y-61470000D01*
X240580000Y-61720000D02*
X241580000Y-61470000D01*
X240580000Y-62220000D02*
X240580000Y-61720000D01*
X240230000Y-62220000D02*
X240580000Y-62220000D01*
X235930000Y-62220000D02*
X235930000Y-61470000D01*
X240580000Y-63720000D02*
X240230000Y-63720000D01*
X240230000Y-63720000D02*
X240230000Y-64470000D01*
X240580000Y-64220000D02*
X240580000Y-63720000D01*
X241580000Y-64470000D02*
X240580000Y-64220000D01*
X240230000Y-64470000D02*
X235930000Y-64470000D01*
X235930000Y-64470000D02*
X235930000Y-63720000D01*
X241580000Y-64970000D02*
X241580000Y-67970000D01*
X240230000Y-64970000D02*
X240230000Y-65720000D01*
X235930000Y-64970000D02*
X240230000Y-64970000D01*
X240580000Y-65220000D02*
X241580000Y-64970000D01*
X240580000Y-65720000D02*
X240580000Y-65220000D01*
X240230000Y-65720000D02*
X240580000Y-65720000D01*
X235930000Y-65720000D02*
X235930000Y-64970000D01*
X240580000Y-67220000D02*
X240230000Y-67220000D01*
X240230000Y-67220000D02*
X240230000Y-67970000D01*
X240580000Y-67720000D02*
X240580000Y-67220000D01*
X241580000Y-67970000D02*
X240580000Y-67720000D01*
X240230000Y-67970000D02*
X235930000Y-67970000D01*
X235930000Y-67970000D02*
X235930000Y-67220000D01*
X241580000Y-68470000D02*
X241580000Y-71470000D01*
X240230000Y-68470000D02*
X240230000Y-69220000D01*
X235930000Y-68470000D02*
X240230000Y-68470000D01*
X240580000Y-68720000D02*
X241580000Y-68470000D01*
X240580000Y-69220000D02*
X240580000Y-68720000D01*
X240230000Y-69220000D02*
X240580000Y-69220000D01*
X235930000Y-69220000D02*
X235930000Y-68470000D01*
X240580000Y-70720000D02*
X240230000Y-70720000D01*
X240230000Y-70720000D02*
X240230000Y-71470000D01*
X240580000Y-71220000D02*
X240580000Y-70720000D01*
X241580000Y-71470000D02*
X240580000Y-71220000D01*
X240230000Y-71470000D02*
X235930000Y-71470000D01*
X235930000Y-71470000D02*
X235930000Y-70720000D01*
X242540000Y-72180000D02*
X242540000Y-60760000D01*
X241290000Y-72180000D02*
X242540000Y-72180000D01*
X241290000Y-76980000D02*
X241290000Y-72180000D01*
X235070000Y-76980000D02*
X241290000Y-76980000D01*
X235930155Y-63719647D02*
G75*
G03*
X235930000Y-62220000I-1700155J749647D01*
G01*
X235930155Y-67219647D02*
G75*
G03*
X235930000Y-65720000I-1700155J749647D01*
G01*
X235930155Y-70719647D02*
G75*
G03*
X235930000Y-69220000I-1700155J749647D01*
G01*
X240080000Y-58670000D02*
G75*
G03*
X236280000Y-58670000I-1900000J0D01*
G01*
X236280000Y-58670000D02*
G75*
G03*
X240080000Y-58670000I1900000J0D01*
G01*
X240080000Y-74270000D02*
G75*
G03*
X236280000Y-74270000I-1900000J0D01*
G01*
X236280000Y-74270000D02*
G75*
G03*
X240080000Y-74270000I1900000J0D01*
G01*
%TO.C,R15*%
X217800000Y-138472936D02*
X217800000Y-139927064D01*
X215980000Y-138472936D02*
X215980000Y-139927064D01*
%TO.C,R14*%
X212750436Y-135550000D02*
X214204564Y-135550000D01*
X212750436Y-137370000D02*
X214204564Y-137370000D01*
%TO.C,J21*%
X233240000Y-55700000D02*
X229240000Y-55700000D01*
X234270000Y-55990000D02*
X228250000Y-55990000D01*
X228250000Y-55990000D02*
X228250000Y-63830000D01*
X234270000Y-56570000D02*
X233670000Y-56570000D01*
X233670000Y-56570000D02*
X233670000Y-58170000D01*
X229250000Y-57370000D02*
X229780000Y-57620000D01*
X229250000Y-57370000D02*
X229250000Y-62450000D01*
X228250000Y-57370000D02*
X229250000Y-57370000D01*
X229780000Y-57620000D02*
X229780000Y-62200000D01*
X228250000Y-57620000D02*
X229250000Y-57620000D01*
X233670000Y-58170000D02*
X234270000Y-58170000D01*
X234270000Y-59110000D02*
X233670000Y-59110000D01*
X233670000Y-59110000D02*
X233670000Y-60710000D01*
X233670000Y-60710000D02*
X234270000Y-60710000D01*
X234270000Y-61650000D02*
X233670000Y-61650000D01*
X233670000Y-61650000D02*
X233670000Y-63250000D01*
X229780000Y-62200000D02*
X229250000Y-62450000D01*
X228250000Y-62200000D02*
X229250000Y-62200000D01*
X229250000Y-62450000D02*
X228250000Y-62450000D01*
X233670000Y-63250000D02*
X234270000Y-63250000D01*
X234270000Y-63830000D02*
X234270000Y-55990000D01*
X228250000Y-63830000D02*
X234270000Y-63830000D01*
%TO.C,C11*%
X206790000Y-91941252D02*
X206790000Y-90518748D01*
X208610000Y-91941252D02*
X208610000Y-90518748D01*
%TO.C,R1*%
X206790000Y-84527064D02*
X206790000Y-83072936D01*
X208610000Y-84527064D02*
X208610000Y-83072936D01*
%TO.C,J32*%
X214320000Y-137710000D02*
X210320000Y-137710000D01*
X215350000Y-138000000D02*
X209330000Y-138000000D01*
X209330000Y-138000000D02*
X209330000Y-145840000D01*
X215350000Y-138580000D02*
X214750000Y-138580000D01*
X214750000Y-138580000D02*
X214750000Y-140180000D01*
X210330000Y-139380000D02*
X210860000Y-139630000D01*
X210330000Y-139380000D02*
X210330000Y-144460000D01*
X209330000Y-139380000D02*
X210330000Y-139380000D01*
X210860000Y-139630000D02*
X210860000Y-144210000D01*
X209330000Y-139630000D02*
X210330000Y-139630000D01*
X214750000Y-140180000D02*
X215350000Y-140180000D01*
X215350000Y-141120000D02*
X214750000Y-141120000D01*
X214750000Y-141120000D02*
X214750000Y-142720000D01*
X214750000Y-142720000D02*
X215350000Y-142720000D01*
X215350000Y-143660000D02*
X214750000Y-143660000D01*
X214750000Y-143660000D02*
X214750000Y-145260000D01*
X210860000Y-144210000D02*
X210330000Y-144460000D01*
X209330000Y-144210000D02*
X210330000Y-144210000D01*
X210330000Y-144460000D02*
X209330000Y-144460000D01*
X214750000Y-145260000D02*
X215350000Y-145260000D01*
X215350000Y-145840000D02*
X215350000Y-138000000D01*
X209330000Y-145840000D02*
X215350000Y-145840000D01*
%TO.C,J13*%
X49500000Y-113500000D02*
X49500000Y-114300000D01*
X49300000Y-113500000D02*
X49500000Y-113500000D01*
X46500000Y-113700000D02*
X46700000Y-113500000D01*
X46500000Y-114300000D02*
X46500000Y-113700000D01*
X46500000Y-114300000D02*
X46000000Y-114300000D01*
X49500000Y-115700000D02*
X49500000Y-116500000D01*
X46500000Y-115700000D02*
X46000000Y-115700000D01*
X49500000Y-116500000D02*
X49300000Y-116500000D01*
X46700000Y-116500000D02*
X46500000Y-116500000D01*
X46500000Y-116500000D02*
X46500000Y-115700000D01*
%TO.C,J11*%
X49500000Y-123500000D02*
X49500000Y-124300000D01*
X49300000Y-123500000D02*
X49500000Y-123500000D01*
X46500000Y-123700000D02*
X46700000Y-123500000D01*
X46500000Y-124300000D02*
X46500000Y-123700000D01*
X46500000Y-124300000D02*
X46000000Y-124300000D01*
X49500000Y-125700000D02*
X49500000Y-126500000D01*
X46500000Y-125700000D02*
X46000000Y-125700000D01*
X49500000Y-126500000D02*
X49300000Y-126500000D01*
X46700000Y-126500000D02*
X46500000Y-126500000D01*
X46500000Y-126500000D02*
X46500000Y-125700000D01*
%TO.C,J5*%
X49500000Y-73500000D02*
X49500000Y-74300000D01*
X49300000Y-73500000D02*
X49500000Y-73500000D01*
X46500000Y-73700000D02*
X46700000Y-73500000D01*
X46500000Y-74300000D02*
X46500000Y-73700000D01*
X46500000Y-74300000D02*
X46000000Y-74300000D01*
X49500000Y-75700000D02*
X49500000Y-76500000D01*
X46500000Y-75700000D02*
X46000000Y-75700000D01*
X49500000Y-76500000D02*
X49300000Y-76500000D01*
X46700000Y-76500000D02*
X46500000Y-76500000D01*
X46500000Y-76500000D02*
X46500000Y-75700000D01*
%TO.C,R3*%
X48152936Y-54370000D02*
X49607064Y-54370000D01*
X48152936Y-56190000D02*
X49607064Y-56190000D01*
%TO.C,J29*%
X214250000Y-88860000D02*
X210250000Y-88860000D01*
X215280000Y-89150000D02*
X209260000Y-89150000D01*
X209260000Y-89150000D02*
X209260000Y-96990000D01*
X215280000Y-89730000D02*
X214680000Y-89730000D01*
X214680000Y-89730000D02*
X214680000Y-91330000D01*
X210260000Y-90530000D02*
X210790000Y-90780000D01*
X210260000Y-90530000D02*
X210260000Y-95610000D01*
X209260000Y-90530000D02*
X210260000Y-90530000D01*
X210790000Y-90780000D02*
X210790000Y-95360000D01*
X209260000Y-90780000D02*
X210260000Y-90780000D01*
X214680000Y-91330000D02*
X215280000Y-91330000D01*
X215280000Y-92270000D02*
X214680000Y-92270000D01*
X214680000Y-92270000D02*
X214680000Y-93870000D01*
X214680000Y-93870000D02*
X215280000Y-93870000D01*
X215280000Y-94810000D02*
X214680000Y-94810000D01*
X214680000Y-94810000D02*
X214680000Y-96410000D01*
X210790000Y-95360000D02*
X210260000Y-95610000D01*
X209260000Y-95360000D02*
X210260000Y-95360000D01*
X210260000Y-95610000D02*
X209260000Y-95610000D01*
X214680000Y-96410000D02*
X215280000Y-96410000D01*
X215280000Y-96990000D02*
X215280000Y-89150000D01*
X209260000Y-96990000D02*
X215280000Y-96990000D01*
%TO.C,C3*%
X228480000Y-100701252D02*
X228480000Y-99278748D01*
X230300000Y-100701252D02*
X230300000Y-99278748D01*
%TO.C,C2*%
X215210000Y-116048752D02*
X215210000Y-114626248D01*
X213390000Y-116048752D02*
X213390000Y-114626248D01*
%TO.C,J26*%
X226450000Y-112450000D02*
X222450000Y-112450000D01*
X227480000Y-112740000D02*
X221460000Y-112740000D01*
X221460000Y-112740000D02*
X221460000Y-120580000D01*
X227480000Y-113320000D02*
X226880000Y-113320000D01*
X226880000Y-113320000D02*
X226880000Y-114920000D01*
X222460000Y-114120000D02*
X222990000Y-114370000D01*
X222460000Y-114120000D02*
X222460000Y-119200000D01*
X221460000Y-114120000D02*
X222460000Y-114120000D01*
X222990000Y-114370000D02*
X222990000Y-118950000D01*
X221460000Y-114370000D02*
X222460000Y-114370000D01*
X226880000Y-114920000D02*
X227480000Y-114920000D01*
X227480000Y-115860000D02*
X226880000Y-115860000D01*
X226880000Y-115860000D02*
X226880000Y-117460000D01*
X226880000Y-117460000D02*
X227480000Y-117460000D01*
X227480000Y-118400000D02*
X226880000Y-118400000D01*
X226880000Y-118400000D02*
X226880000Y-120000000D01*
X222990000Y-118950000D02*
X222460000Y-119200000D01*
X221460000Y-118950000D02*
X222460000Y-118950000D01*
X222460000Y-119200000D02*
X221460000Y-119200000D01*
X226880000Y-120000000D02*
X227480000Y-120000000D01*
X227480000Y-120580000D02*
X227480000Y-112740000D01*
X221460000Y-120580000D02*
X227480000Y-120580000D01*
%TO.C,J23*%
X241290000Y-77760000D02*
X235070000Y-77760000D01*
X235070000Y-77760000D02*
X235070000Y-98780000D01*
X242930000Y-82170000D02*
X242930000Y-84170000D01*
X241680000Y-82170000D02*
X242930000Y-82170000D01*
X242540000Y-82560000D02*
X241290000Y-82560000D01*
X241290000Y-82560000D02*
X241290000Y-77760000D01*
X241580000Y-83270000D02*
X241580000Y-86270000D01*
X240230000Y-83270000D02*
X240230000Y-84020000D01*
X235930000Y-83270000D02*
X240230000Y-83270000D01*
X240580000Y-83520000D02*
X241580000Y-83270000D01*
X240580000Y-84020000D02*
X240580000Y-83520000D01*
X240230000Y-84020000D02*
X240580000Y-84020000D01*
X235930000Y-84020000D02*
X235930000Y-83270000D01*
X240580000Y-85520000D02*
X240230000Y-85520000D01*
X240230000Y-85520000D02*
X240230000Y-86270000D01*
X240580000Y-86020000D02*
X240580000Y-85520000D01*
X241580000Y-86270000D02*
X240580000Y-86020000D01*
X240230000Y-86270000D02*
X235930000Y-86270000D01*
X235930000Y-86270000D02*
X235930000Y-85520000D01*
X241580000Y-86770000D02*
X241580000Y-89770000D01*
X240230000Y-86770000D02*
X240230000Y-87520000D01*
X235930000Y-86770000D02*
X240230000Y-86770000D01*
X240580000Y-87020000D02*
X241580000Y-86770000D01*
X240580000Y-87520000D02*
X240580000Y-87020000D01*
X240230000Y-87520000D02*
X240580000Y-87520000D01*
X235930000Y-87520000D02*
X235930000Y-86770000D01*
X240580000Y-89020000D02*
X240230000Y-89020000D01*
X240230000Y-89020000D02*
X240230000Y-89770000D01*
X240580000Y-89520000D02*
X240580000Y-89020000D01*
X241580000Y-89770000D02*
X240580000Y-89520000D01*
X240230000Y-89770000D02*
X235930000Y-89770000D01*
X235930000Y-89770000D02*
X235930000Y-89020000D01*
X241580000Y-90270000D02*
X241580000Y-93270000D01*
X240230000Y-90270000D02*
X240230000Y-91020000D01*
X235930000Y-90270000D02*
X240230000Y-90270000D01*
X240580000Y-90520000D02*
X241580000Y-90270000D01*
X240580000Y-91020000D02*
X240580000Y-90520000D01*
X240230000Y-91020000D02*
X240580000Y-91020000D01*
X235930000Y-91020000D02*
X235930000Y-90270000D01*
X240580000Y-92520000D02*
X240230000Y-92520000D01*
X240230000Y-92520000D02*
X240230000Y-93270000D01*
X240580000Y-93020000D02*
X240580000Y-92520000D01*
X241580000Y-93270000D02*
X240580000Y-93020000D01*
X240230000Y-93270000D02*
X235930000Y-93270000D01*
X235930000Y-93270000D02*
X235930000Y-92520000D01*
X242540000Y-93980000D02*
X242540000Y-82560000D01*
X241290000Y-93980000D02*
X242540000Y-93980000D01*
X241290000Y-98780000D02*
X241290000Y-93980000D01*
X235070000Y-98780000D02*
X241290000Y-98780000D01*
X235930155Y-85519647D02*
G75*
G03*
X235930000Y-84020000I-1700155J749647D01*
G01*
X235930155Y-89019647D02*
G75*
G03*
X235930000Y-87520000I-1700155J749647D01*
G01*
X235930155Y-92519647D02*
G75*
G03*
X235930000Y-91020000I-1700155J749647D01*
G01*
X240080000Y-80470000D02*
G75*
G03*
X236280000Y-80470000I-1900000J0D01*
G01*
X236280000Y-80470000D02*
G75*
G03*
X240080000Y-80470000I1900000J0D01*
G01*
X240080000Y-96070000D02*
G75*
G03*
X236280000Y-96070000I-1900000J0D01*
G01*
X236280000Y-96070000D02*
G75*
G03*
X240080000Y-96070000I1900000J0D01*
G01*
%TO.C,R7*%
X206790000Y-79967064D02*
X206790000Y-78512936D01*
X208610000Y-79967064D02*
X208610000Y-78512936D01*
%TO.C,U4*%
X223400000Y-136135000D02*
X223400000Y-137945000D01*
X223400000Y-137945000D02*
X218275000Y-137945000D01*
X223400000Y-144725000D02*
X222300000Y-144725000D01*
X223400000Y-146535000D02*
X223400000Y-144725000D01*
X224900000Y-136135000D02*
X223400000Y-136135000D01*
X224900000Y-146535000D02*
X223400000Y-146535000D01*
%TO.C,J18*%
X233240000Y-121080000D02*
X229240000Y-121080000D01*
X234270000Y-121370000D02*
X228250000Y-121370000D01*
X228250000Y-121370000D02*
X228250000Y-129210000D01*
X234270000Y-121950000D02*
X233670000Y-121950000D01*
X233670000Y-121950000D02*
X233670000Y-123550000D01*
X229250000Y-122750000D02*
X229780000Y-123000000D01*
X229250000Y-122750000D02*
X229250000Y-127830000D01*
X228250000Y-122750000D02*
X229250000Y-122750000D01*
X229780000Y-123000000D02*
X229780000Y-127580000D01*
X228250000Y-123000000D02*
X229250000Y-123000000D01*
X233670000Y-123550000D02*
X234270000Y-123550000D01*
X234270000Y-124490000D02*
X233670000Y-124490000D01*
X233670000Y-124490000D02*
X233670000Y-126090000D01*
X233670000Y-126090000D02*
X234270000Y-126090000D01*
X234270000Y-127030000D02*
X233670000Y-127030000D01*
X233670000Y-127030000D02*
X233670000Y-128630000D01*
X229780000Y-127580000D02*
X229250000Y-127830000D01*
X228250000Y-127580000D02*
X229250000Y-127580000D01*
X229250000Y-127830000D02*
X228250000Y-127830000D01*
X233670000Y-128630000D02*
X234270000Y-128630000D01*
X234270000Y-129210000D02*
X234270000Y-121370000D01*
X228250000Y-129210000D02*
X234270000Y-129210000D01*
%TO.C,C13*%
X212585000Y-114631248D02*
X212585000Y-116053752D01*
X210765000Y-114631248D02*
X210765000Y-116053752D01*
%TO.C,R10*%
X215890000Y-94197064D02*
X215890000Y-92742936D01*
X217710000Y-94197064D02*
X217710000Y-92742936D01*
%TO.C,J25*%
X226460000Y-77470000D02*
X222460000Y-77470000D01*
X227490000Y-77760000D02*
X221470000Y-77760000D01*
X221470000Y-77760000D02*
X221470000Y-85600000D01*
X227490000Y-78340000D02*
X226890000Y-78340000D01*
X226890000Y-78340000D02*
X226890000Y-79940000D01*
X222470000Y-79140000D02*
X223000000Y-79390000D01*
X222470000Y-79140000D02*
X222470000Y-84220000D01*
X221470000Y-79140000D02*
X222470000Y-79140000D01*
X223000000Y-79390000D02*
X223000000Y-83970000D01*
X221470000Y-79390000D02*
X222470000Y-79390000D01*
X226890000Y-79940000D02*
X227490000Y-79940000D01*
X227490000Y-80880000D02*
X226890000Y-80880000D01*
X226890000Y-80880000D02*
X226890000Y-82480000D01*
X226890000Y-82480000D02*
X227490000Y-82480000D01*
X227490000Y-83420000D02*
X226890000Y-83420000D01*
X226890000Y-83420000D02*
X226890000Y-85020000D01*
X223000000Y-83970000D02*
X222470000Y-84220000D01*
X221470000Y-83970000D02*
X222470000Y-83970000D01*
X222470000Y-84220000D02*
X221470000Y-84220000D01*
X226890000Y-85020000D02*
X227490000Y-85020000D01*
X227490000Y-85600000D02*
X227490000Y-77760000D01*
X221470000Y-85600000D02*
X227490000Y-85600000D01*
%TO.C,R2*%
X49272936Y-144090000D02*
X50727064Y-144090000D01*
X49272936Y-145910000D02*
X50727064Y-145910000D01*
%TO.C,R8*%
X209527064Y-88180000D02*
X208072936Y-88180000D01*
X209527064Y-86360000D02*
X208072936Y-86360000D01*
%TO.C,C15*%
X226411252Y-132010000D02*
X224988748Y-132010000D01*
X226411252Y-130190000D02*
X224988748Y-130190000D01*
%TO.C,J3*%
X49500000Y-83500000D02*
X49500000Y-84300000D01*
X49300000Y-83500000D02*
X49500000Y-83500000D01*
X46500000Y-83700000D02*
X46700000Y-83500000D01*
X46500000Y-84300000D02*
X46500000Y-83700000D01*
X46500000Y-84300000D02*
X46000000Y-84300000D01*
X49500000Y-85700000D02*
X49500000Y-86500000D01*
X46500000Y-85700000D02*
X46000000Y-85700000D01*
X49500000Y-86500000D02*
X49300000Y-86500000D01*
X46700000Y-86500000D02*
X46500000Y-86500000D01*
X46500000Y-86500000D02*
X46500000Y-85700000D01*
%TO.C,R13*%
X206670000Y-128827064D02*
X206670000Y-127372936D01*
X208490000Y-128827064D02*
X208490000Y-127372936D01*
D13*
%TO.C,X1*%
X245635000Y-58725000D02*
X245635000Y-58090000D01*
X245635000Y-69901000D02*
X245635000Y-58725000D01*
X245635000Y-69901000D02*
X248937000Y-69901000D01*
X245635000Y-76759000D02*
X248937000Y-76759000D01*
X245635000Y-77775000D02*
X245635000Y-76759000D01*
X245635000Y-77775000D02*
X248055000Y-77775000D01*
X245635000Y-79045000D02*
X245635000Y-77775000D01*
X245635000Y-79045000D02*
X248130000Y-79050000D01*
X245635000Y-80061000D02*
X245635000Y-79045000D01*
X245635000Y-80061000D02*
X248937000Y-80061000D01*
X245635000Y-86919000D02*
X248937000Y-86919000D01*
X245635000Y-87935000D02*
X245635000Y-86919000D01*
X245635000Y-87935000D02*
X248130000Y-87935000D01*
X245635000Y-89205000D02*
X245635000Y-87935000D01*
X245635000Y-89205000D02*
X248155000Y-89205000D01*
X245635000Y-90221000D02*
X245635000Y-89205000D01*
X245635000Y-90221000D02*
X245635000Y-91618000D01*
X245635000Y-90221000D02*
X248937000Y-90221000D01*
X245635000Y-97079000D02*
X248937000Y-97079000D01*
X245635000Y-98095000D02*
X245635000Y-97079000D01*
X245635000Y-98095000D02*
X248155000Y-98095000D01*
X245635000Y-99365000D02*
X245635000Y-98095000D01*
X245635000Y-99365000D02*
X248180000Y-99365000D01*
X245635000Y-100381000D02*
X245635000Y-99365000D01*
X245635000Y-100381000D02*
X248937000Y-100381000D01*
X245635000Y-107239000D02*
X248937000Y-107239000D01*
X245635000Y-108255000D02*
X245635000Y-107239000D01*
X245635000Y-108255000D02*
X248155000Y-108255000D01*
X245635000Y-109525000D02*
X245635000Y-108255000D01*
X245635000Y-109525000D02*
X248155000Y-109525000D01*
X245635000Y-110541000D02*
X245635000Y-109525000D01*
X245635000Y-110541000D02*
X248937000Y-110541000D01*
X245635000Y-117399000D02*
X248937000Y-117399000D01*
X245635000Y-118415000D02*
X245635000Y-117399000D01*
X245635000Y-118415000D02*
X248130000Y-118415000D01*
X245635000Y-119685000D02*
X245635000Y-118415000D01*
X245635000Y-119685000D02*
X248130000Y-119685000D01*
X245635000Y-120701000D02*
X245635000Y-119685000D01*
X245635000Y-120701000D02*
X248937000Y-120701000D01*
X245635000Y-127686000D02*
X248937000Y-127686000D01*
X245635000Y-130861000D02*
X245635000Y-127686000D01*
X245635000Y-141910000D02*
X245635000Y-137846000D01*
X245635000Y-141910000D02*
X259055000Y-141910000D01*
X245635000Y-142545000D02*
X245635000Y-141910000D01*
X253890000Y-53010000D02*
X253890000Y-58090000D01*
X253890000Y-58090000D02*
X245635000Y-58090000D01*
X253890000Y-142545000D02*
X245635000Y-142545000D01*
X253890000Y-142545000D02*
X253890000Y-146990000D01*
X254505000Y-98100000D02*
X259080000Y-98095000D01*
X254530000Y-99365000D02*
X259080000Y-99365000D01*
X254555000Y-89205000D02*
X259055000Y-89205000D01*
X254555000Y-118415000D02*
X259030000Y-118415000D01*
X254580000Y-77775000D02*
X259055000Y-77775000D01*
X254580000Y-87935000D02*
X259055000Y-87935000D01*
X254580000Y-108250000D02*
X259055000Y-108255000D01*
X254580000Y-109525000D02*
X259055000Y-109525000D01*
X254605000Y-119685000D02*
X259030000Y-119685000D01*
X254630000Y-79045000D02*
X259055000Y-79045000D01*
X259030000Y-58720000D02*
X245635000Y-58725000D01*
X259030000Y-58720000D02*
X259030000Y-56180000D01*
X259030000Y-118415000D02*
X259030000Y-119685000D01*
X259055000Y-77775000D02*
X259055000Y-79045000D01*
X259055000Y-87935000D02*
X259055000Y-89205000D01*
X259055000Y-108255000D02*
X259055000Y-109525000D01*
X259055000Y-141910000D02*
X259055000Y-143815000D01*
X259080000Y-98095000D02*
X259080000Y-99365000D01*
X257700000Y-55550000D02*
G75*
G03*
X255160000Y-55550000I-1270000J0D01*
G01*
X255160000Y-55550000D02*
G75*
G03*
X257700000Y-55550000I1270000J0D01*
G01*
X257700000Y-144450000D02*
G75*
G03*
X255160000Y-144450000I-1270000J0D01*
G01*
X255160000Y-144450000D02*
G75*
G03*
X257700000Y-144450000I1270000J0D01*
G01*
D12*
%TO.C,C4*%
X225088748Y-132990000D02*
X226511252Y-132990000D01*
X225088748Y-134810000D02*
X226511252Y-134810000D01*
%TO.C,R6*%
X212652936Y-86670000D02*
X214107064Y-86670000D01*
X212652936Y-88490000D02*
X214107064Y-88490000D01*
%TO.C,C9*%
X212010000Y-65588748D02*
X212010000Y-67011252D01*
X210190000Y-65588748D02*
X210190000Y-67011252D01*
%TO.C,C12*%
X206750000Y-96931252D02*
X206750000Y-95508748D01*
X208570000Y-96931252D02*
X208570000Y-95508748D01*
%TO.C,C10*%
X225930000Y-99268748D02*
X225930000Y-100691252D01*
X227750000Y-99268748D02*
X227750000Y-100691252D01*
%TD*%
M02*
