M48
; DRILL file {KiCad 7.0.10} date Fri 16 Feb 2024 08:10:29 PM UTC
; FORMAT={-:-/ absolute / inch / decimal}
; #@! TF.CreationDate,2024-02-16T20:10:29+00:00
; #@! TF.GenerationSoftware,Kicad,Pcbnew,7.0.10
; #@! TF.FileFunction,Plated,1,4,PTH
FMAT,2
INCH
; #@! TA.AperFunction,Plated,PTH,ViaDrill
T1C0.0118
; #@! TA.AperFunction,Plated,PTH,ViaDrill
T2C0.0197
; #@! TA.AperFunction,Plated,PTH,ComponentDrill
T3C0.0197
; #@! TA.AperFunction,Plated,PTH,ComponentDrill
T4C0.0469
; #@! TA.AperFunction,Plated,PTH,ComponentDrill
T5C0.0472
; #@! TA.AperFunction,Plated,PTH,ComponentDrill
T6C0.0630
; #@! TA.AperFunction,Plated,PTH,ComponentDrill
T7C0.1063
%
G90
G05
T1
X1.7776Y-5.0335
X1.7833Y-4.0281
X1.7976Y-5.2134
X1.8035Y-4.7949
X1.8067Y-4.4232
X1.8079Y-4.2118
X1.8146Y-4.6291
X1.8217Y-5.4622
X8.047Y-3.3065
X8.0825Y-3.4191
X8.0902Y-5.7929
X8.1024Y-5.6772
X8.1323Y-4.5047
X8.5004Y-4.7634
X8.5012Y-4.3937
X8.5748Y-2.4413
X8.5801Y-2.2793
T2
X1.7421Y-2.0177
X1.7421Y-5.8563
X1.8209Y-2.0177
X1.8209Y-5.8563
X1.9193Y-2.0177
X1.9193Y-5.8563
X2.0177Y-2.0177
X2.0177Y-5.8563
X2.0857Y-4.5522
X2.09Y-3.3843
X2.0912Y-5.7617
X2.0975Y-3.2986
X2.0984Y-2.3181
X2.0984Y-2.4165
X2.0984Y-2.515
X2.0984Y-2.6134
X2.0984Y-2.7118
X2.0984Y-2.8102
X2.0984Y-2.9087
X2.0984Y-3.0071
X2.0984Y-3.1055
X2.0984Y-3.2039
X2.0984Y-3.5976
X2.0984Y-3.6961
X2.0984Y-3.7945
X2.0984Y-3.8929
X2.0984Y-3.9913
X2.0984Y-4.0898
X2.0984Y-4.1882
X2.0984Y-4.2866
X2.0984Y-4.385
X2.0992Y-5.6709
X2.1008Y-4.4748
X2.1008Y-4.6717
X2.1008Y-4.7701
X2.1008Y-4.8685
X2.1008Y-4.9669
X2.1008Y-5.0654
X2.1008Y-5.1638
X2.1008Y-5.274
X2.1008Y-5.3724
X2.1008Y-5.4709
X2.1008Y-5.5693
X2.1029Y-2.2241
X2.1054Y-3.5062
X2.1157Y-2.0146
X2.1161Y-5.8563
X2.1167Y-2.1323
X2.2142Y-2.0146
X2.2146Y-5.8563
X2.2178Y-3.3561
X2.2352Y-4.5522
X2.3126Y-2.0146
X2.3231Y-3.3561
X2.3321Y-4.5522
X2.361Y-5.8535
X2.411Y-2.0146
X2.4217Y-3.3561
X2.4318Y-4.5522
X2.4594Y-5.8535
X2.5098Y-2.0177
X2.5204Y-3.3561
X2.5296Y-4.5522
X2.5579Y-5.8535
X2.6083Y-2.0177
X2.6563Y-5.8535
X2.67Y-3.3561
X2.6782Y-4.5522
X2.7067Y-2.0177
X2.7671Y-3.3561
X2.7748Y-4.5522
X2.8051Y-2.0177
X2.8051Y-5.8563
X2.8634Y-3.3561
X2.8734Y-4.5522
X2.9035Y-2.0177
X2.9035Y-5.8563
X2.9598Y-3.3541
X2.9768Y-4.5522
X3.002Y-2.0177
X3.002Y-5.8563
X3.0603Y-3.3561
X3.0676Y-4.5522
X3.1004Y-2.0177
X3.1004Y-5.8563
X3.1563Y-3.3537
X3.173Y-4.5522
X3.1988Y-2.0177
X3.1988Y-5.8563
X3.2653Y-4.5522
X3.2728Y-3.3555
X3.2972Y-2.0177
X3.2972Y-5.8563
X3.3075Y-3.2744
X3.3202Y-4.5522
X3.3217Y-2.114
X3.3217Y-2.2177
X3.3217Y-2.3161
X3.3217Y-2.4146
X3.3217Y-2.513
X3.3217Y-2.6114
X3.3217Y-2.7098
X3.3217Y-2.8083
X3.3217Y-2.9067
X3.3217Y-3.0051
X3.3217Y-3.1035
X3.3217Y-3.202
X3.3217Y-3.4972
X3.3217Y-3.5957
X3.3217Y-3.6941
X3.3217Y-3.7925
X3.3217Y-3.8909
X3.3217Y-3.9894
X3.3217Y-4.0878
X3.3217Y-4.1862
X3.3217Y-4.2846
X3.3217Y-4.3831
X3.3224Y-5.6689
X3.324Y-4.4728
X3.324Y-4.6697
X3.324Y-4.7681
X3.324Y-4.8665
X3.324Y-4.965
X3.324Y-5.0634
X3.324Y-5.1618
X3.324Y-5.272
X3.324Y-5.3705
X3.324Y-5.4689
X3.324Y-5.5673
X3.3642Y-4.5522
X3.3673Y-3.3561
X3.3957Y-2.0177
X3.3957Y-5.8563
X3.4539Y-3.3561
X3.4623Y-4.5522
X3.4941Y-2.0177
X3.4941Y-5.8563
X3.5524Y-3.3561
X3.5608Y-4.5522
X3.5925Y-2.0177
X3.5925Y-5.8563
X3.6508Y-3.3561
X3.6626Y-4.5522
X3.6909Y-2.0177
X3.6909Y-5.8563
X3.7492Y-3.3561
X3.7583Y-4.5522
X3.7894Y-2.0177
X3.7894Y-5.8563
X3.8476Y-3.3561
X3.8626Y-4.5522
X3.8878Y-5.8563
X3.8909Y-2.0154
X3.9461Y-3.3561
X3.9563Y-4.5522
X3.9862Y-5.8563
X3.9894Y-2.0154
X4.0445Y-3.3561
X4.0594Y-4.5522
X4.0846Y-5.8563
X4.0878Y-2.0154
X4.1429Y-3.3561
X4.1579Y-4.5522
X4.1831Y-5.8563
X4.1862Y-2.0154
X4.2413Y-3.3561
X4.2517Y-4.5522
X4.2815Y-2.0177
X4.2815Y-5.8563
X4.3398Y-3.3561
X4.3547Y-4.5522
X4.3799Y-2.0177
X4.3799Y-5.8563
X4.4382Y-3.3561
X4.4531Y-4.5522
X4.4783Y-2.0177
X4.4783Y-5.8563
X4.5134Y-2.114
X4.5134Y-2.2173
X4.5134Y-2.3157
X4.5134Y-2.4142
X4.5134Y-2.5126
X4.5134Y-2.611
X4.5134Y-2.7094
X4.5134Y-2.8079
X4.5134Y-2.9063
X4.5134Y-3.0047
X4.5134Y-3.1031
X4.5134Y-3.2016
X4.5134Y-3.297
X4.5134Y-3.4969
X4.5134Y-3.5953
X4.5134Y-3.6937
X4.5134Y-3.7921
X4.5134Y-3.8906
X4.5134Y-3.989
X4.5134Y-4.0874
X4.5134Y-4.1858
X4.5134Y-4.2843
X4.5134Y-4.3827
X4.5142Y-5.6685
X4.5157Y-4.4724
X4.5157Y-4.5522
X4.5157Y-4.6693
X4.5157Y-4.7677
X4.5157Y-4.8661
X4.5157Y-4.9646
X4.5157Y-5.063
X4.5157Y-5.1614
X4.5157Y-5.2717
X4.5157Y-5.3701
X4.5157Y-5.4685
X4.5157Y-5.5669
X4.5366Y-3.3561
X4.5516Y-4.5522
X4.5768Y-2.0177
X4.5768Y-5.8563
X4.635Y-3.3561
X4.636Y-4.5522
X4.6752Y-2.0177
X4.6752Y-5.8563
X4.7304Y-4.5419
X4.7363Y-3.3561
X4.7736Y-2.0177
X4.7736Y-5.8563
X4.8319Y-3.3561
X4.8432Y-4.5419
X4.872Y-2.0177
X4.872Y-5.8563
X4.9346Y-3.3561
X4.9382Y-4.5419
X4.9705Y-2.0177
X4.9705Y-5.8563
X5.032Y-3.3561
X5.039Y-4.5522
X5.0689Y-2.0177
X5.0689Y-5.8563
X5.1276Y-3.3561
X5.136Y-4.5522
X5.1673Y-2.0177
X5.1673Y-5.8563
X5.2256Y-3.3561
X5.2406Y-4.5522
X5.2657Y-2.0177
X5.2657Y-5.8563
X5.324Y-3.3561
X5.3364Y-4.5522
X5.3642Y-2.0177
X5.3642Y-5.8563
X5.4185Y-3.3561
X5.43Y-4.5522
X5.4626Y-2.0177
X5.4626Y-5.8563
X5.5169Y-3.3561
X5.5279Y-4.5522
X5.5571Y-5.8559
X5.5697Y-2.0161
X5.6154Y-3.3561
X5.6237Y-4.5522
X5.6555Y-5.8559
X5.6681Y-2.0161
X5.7076Y-4.5522
X5.7083Y-2.1087
X5.7083Y-2.2071
X5.7083Y-2.3055
X5.7083Y-2.4039
X5.7083Y-2.5024
X5.7083Y-2.6008
X5.7083Y-2.6992
X5.7083Y-2.7976
X5.7083Y-2.8961
X5.7083Y-2.9945
X5.7083Y-3.0929
X5.7083Y-3.1913
X5.7083Y-3.2898
X5.7083Y-3.4866
X5.7083Y-3.585
X5.7083Y-3.6835
X5.7083Y-3.7819
X5.7083Y-3.8803
X5.7083Y-3.9787
X5.7083Y-4.0772
X5.7083Y-4.1756
X5.7083Y-4.274
X5.7083Y-4.3724
X5.7091Y-5.6583
X5.7106Y-4.4622
X5.7106Y-4.6591
X5.7106Y-4.7575
X5.7106Y-4.8559
X5.7106Y-4.9543
X5.7106Y-5.0528
X5.7106Y-5.1512
X5.7106Y-5.2614
X5.7106Y-5.3598
X5.7106Y-5.4583
X5.7106Y-5.5567
X5.7138Y-3.3561
X5.7539Y-5.8559
X5.7665Y-2.0161
X5.8161Y-3.3561
X5.8233Y-4.5522
X5.8524Y-5.8559
X5.865Y-2.0161
X5.8948Y-4.5522
X5.9146Y-3.3561
X5.9547Y-2.0177
X5.9547Y-5.8563
X6.013Y-3.3561
X6.0214Y-4.5522
X6.0531Y-2.0177
X6.0531Y-5.8563
X6.1114Y-3.3561
X6.1511Y-4.5414
X6.1516Y-2.0177
X6.1516Y-5.8563
X6.2098Y-3.3561
X6.2174Y-4.5522
X6.25Y-2.0177
X6.25Y-5.8563
X6.3083Y-3.3561
X6.3147Y-4.5522
X6.3484Y-2.0177
X6.3484Y-5.8563
X6.4067Y-3.3561
X6.4147Y-4.5522
X6.4469Y-2.0177
X6.4469Y-5.8563
X6.5051Y-3.3561
X6.5145Y-4.5522
X6.5453Y-2.0177
X6.5453Y-5.8563
X6.6035Y-3.3561
X6.613Y-4.5522
X6.6437Y-2.0177
X6.6437Y-5.8563
X6.702Y-3.3561
X6.7169Y-4.5522
X6.7421Y-2.0177
X6.7421Y-5.8563
X6.8004Y-3.3561
X6.8146Y-4.5522
X6.8406Y-2.0177
X6.8406Y-5.8563
X6.8988Y-3.3561
X6.9212Y-4.5522
X6.9221Y-5.7683
X6.9244Y-2.2122
X6.9244Y-2.3106
X6.9244Y-2.4091
X6.9244Y-2.5075
X6.9244Y-2.6059
X6.9244Y-2.7043
X6.9244Y-2.8028
X6.9244Y-2.9012
X6.9244Y-2.9996
X6.9244Y-3.098
X6.9244Y-3.1965
X6.9244Y-3.2949
X6.9244Y-3.4917
X6.9244Y-3.5902
X6.9244Y-3.6886
X6.9244Y-3.787
X6.9244Y-3.8854
X6.9244Y-3.9839
X6.9244Y-4.0823
X6.9244Y-4.1807
X6.9244Y-4.2791
X6.9244Y-4.3776
X6.9252Y-5.6634
X6.9268Y-4.4673
X6.9268Y-4.6642
X6.9268Y-4.7626
X6.9268Y-4.861
X6.9268Y-4.9594
X6.9268Y-5.0579
X6.9268Y-5.1563
X6.9268Y-5.2665
X6.9268Y-5.365
X6.9268Y-5.4634
X6.9268Y-5.5618
X6.9328Y-2.1081
X6.939Y-2.0177
X6.939Y-5.8563
X7.0041Y-3.3561
X7.0065Y-4.5522
X7.0374Y-2.0177
X7.0374Y-5.8563
X7.0957Y-3.3561
X7.1099Y-4.5522
X7.1358Y-2.0177
X7.1358Y-5.8563
X7.196Y-3.3561
X7.2091Y-4.5522
X7.2343Y-2.0177
X7.2343Y-5.8563
X7.2955Y-3.3561
X7.3075Y-4.5522
X7.3327Y-2.0177
X7.3327Y-5.8563
X7.395Y-3.3561
X7.4059Y-4.5522
X7.4311Y-2.0177
X7.4311Y-5.8563
X7.4894Y-3.3561
X7.5118Y-4.5522
X7.5295Y-2.0177
X7.5295Y-5.8563
X7.5884Y-3.3561
X7.6104Y-4.5522
X7.628Y-2.0177
X7.628Y-5.8563
X7.6862Y-3.3561
X7.7072Y-4.5522
X7.7264Y-2.0177
X7.7264Y-5.8563
X7.7846Y-3.3561
X7.805Y-4.5522
X7.8248Y-2.0177
X7.8248Y-5.8563
X7.8847Y-3.3561
X7.9056Y-4.5522
X7.9232Y-2.0177
X7.9232Y-5.8563
X8.0217Y-2.0177
X8.0217Y-5.8563
X8.1201Y-2.0177
X8.1201Y-5.8563
X8.2185Y-2.0177
X8.2185Y-5.8563
X8.3169Y-2.0177
X8.3169Y-5.8563
X8.4154Y-2.0177
X8.4154Y-5.8563
X8.5138Y-2.0177
X8.5138Y-5.8563
X8.6122Y-2.0177
X8.6122Y-5.8563
X8.7106Y-2.0177
X8.7106Y-5.8563
X8.8091Y-2.0177
X8.8091Y-5.8563
X8.9075Y-2.0177
X8.9075Y-5.8563
X9.0059Y-2.0177
X9.0059Y-5.8563
X9.1043Y-2.0177
X9.1043Y-5.8563
X9.2028Y-2.0177
X9.2028Y-5.8563
X9.3012Y-2.0177
X9.3012Y-5.8563
X9.3996Y-2.0177
X9.3996Y-5.8563
X9.498Y-2.0177
X9.498Y-5.8563
X9.5965Y-2.0177
X9.5965Y-5.8563
X9.6949Y-2.0177
X9.6949Y-5.8563
X9.7933Y-2.0177
X9.7933Y-5.8563
X9.8917Y-2.0177
X9.8917Y-5.8563
X9.9902Y-2.0177
X9.9902Y-5.8563
X10.0886Y-2.0177
X10.0886Y-5.8563
X10.187Y-2.0177
X10.187Y-2.3228
X10.187Y-2.4213
X10.187Y-2.5197
X10.187Y-2.6181
X10.187Y-2.7165
X10.187Y-2.815
X10.187Y-2.9134
X10.187Y-3.0118
X10.187Y-3.1102
X10.187Y-3.2087
X10.187Y-3.3071
X10.187Y-3.4055
X10.187Y-3.5039
X10.187Y-3.6024
X10.187Y-3.7008
X10.187Y-3.7992
X10.187Y-3.8976
X10.187Y-3.9961
X10.187Y-4.0945
X10.187Y-4.1929
X10.187Y-4.2913
X10.187Y-4.3898
X10.187Y-4.4882
X10.187Y-4.5866
X10.187Y-4.685
X10.187Y-4.7835
X10.187Y-4.8819
X10.187Y-4.9803
X10.187Y-5.0787
X10.187Y-5.1772
X10.187Y-5.2756
X10.187Y-5.374
X10.187Y-5.4724
X10.187Y-5.5709
X10.187Y-5.8563
T3
X1.6047Y-2.187
X1.6047Y-5.687
X1.6278Y-2.1313
X1.6278Y-2.2427
X1.6278Y-5.6313
X1.6278Y-5.7427
X1.6835Y-2.1083
X1.6835Y-2.2657
X1.6835Y-5.6083
X1.6835Y-5.7657
X1.7391Y-2.1313
X1.7391Y-2.2427
X1.7391Y-5.6313
X1.7391Y-5.7427
X1.7622Y-2.187
X1.7622Y-5.687
X2.2037Y-2.3228
X2.2037Y-3.5236
X2.2037Y-4.3898
X2.2037Y-4.7244
X2.2037Y-5.5906
X2.2047Y-3.189
X2.2271Y-2.2665
X2.2271Y-2.3792
X2.2271Y-3.4672
X2.2271Y-3.58
X2.2271Y-4.3334
X2.2271Y-4.4461
X2.2271Y-4.668
X2.2271Y-4.7808
X2.2271Y-5.5342
X2.2271Y-5.6469
X2.2281Y-3.1326
X2.2281Y-3.2454
X2.2835Y-2.2431
X2.2835Y-2.4026
X2.2835Y-3.4439
X2.2835Y-3.6033
X2.2835Y-4.31
X2.2835Y-4.4695
X2.2835Y-4.6447
X2.2835Y-4.8041
X2.2835Y-5.5108
X2.2835Y-5.6703
X2.2844Y-3.1093
X2.2844Y-3.2687
X2.3398Y-2.2665
X2.3398Y-2.3792
X2.3398Y-3.4672
X2.3398Y-3.58
X2.3398Y-4.3334
X2.3398Y-4.4461
X2.3398Y-4.668
X2.3398Y-4.7808
X2.3398Y-5.5342
X2.3398Y-5.6469
X2.3408Y-3.1326
X2.3408Y-3.2454
X2.3632Y-2.3228
X2.3632Y-3.5236
X2.3632Y-4.3898
X2.3632Y-4.7244
X2.3632Y-5.5906
X2.3642Y-3.189
X3.0699Y-2.3228
X3.0699Y-3.189
X3.0699Y-3.5236
X3.0699Y-4.3898
X3.0699Y-4.7244
X3.0699Y-5.5906
X3.0932Y-2.2665
X3.0932Y-2.3792
X3.0932Y-3.1326
X3.0932Y-3.2454
X3.0932Y-3.4672
X3.0932Y-3.58
X3.0932Y-4.3334
X3.0932Y-4.4461
X3.0932Y-4.668
X3.0932Y-4.7808
X3.0932Y-5.5342
X3.0932Y-5.6469
X3.1496Y-2.2431
X3.1496Y-2.4026
X3.1496Y-3.1093
X3.1496Y-3.2687
X3.1496Y-3.4439
X3.1496Y-3.6033
X3.1496Y-4.31
X3.1496Y-4.4695
X3.1496Y-4.6447
X3.1496Y-4.8041
X3.1496Y-5.5108
X3.1496Y-5.6703
X3.206Y-2.2665
X3.206Y-2.3792
X3.206Y-3.1326
X3.206Y-3.2454
X3.206Y-3.4672
X3.206Y-3.58
X3.206Y-4.3334
X3.206Y-4.4461
X3.206Y-4.668
X3.206Y-4.7808
X3.206Y-5.5342
X3.206Y-5.6469
X3.2293Y-2.3228
X3.2293Y-3.189
X3.2293Y-3.5236
X3.2293Y-4.3898
X3.2293Y-4.7244
X3.2293Y-5.5906
X3.4045Y-2.3228
X3.4045Y-3.189
X3.4045Y-3.5236
X3.4045Y-4.3898
X3.4045Y-4.7244
X3.4045Y-5.5906
X3.4279Y-2.2665
X3.4279Y-2.3792
X3.4279Y-3.1326
X3.4279Y-3.2454
X3.4279Y-3.4672
X3.4279Y-3.58
X3.4279Y-4.3334
X3.4279Y-4.4461
X3.4279Y-4.668
X3.4279Y-4.7808
X3.4279Y-5.5342
X3.4279Y-5.6469
X3.4843Y-2.2431
X3.4843Y-2.4026
X3.4843Y-3.1093
X3.4843Y-3.2687
X3.4843Y-3.4439
X3.4843Y-3.6033
X3.4843Y-4.31
X3.4843Y-4.4695
X3.4843Y-4.6447
X3.4843Y-4.8041
X3.4843Y-5.5108
X3.4843Y-5.6703
X3.5406Y-2.2665
X3.5406Y-2.3792
X3.5406Y-3.1326
X3.5406Y-3.2454
X3.5406Y-3.4672
X3.5406Y-3.58
X3.5406Y-4.3334
X3.5406Y-4.4461
X3.5406Y-4.668
X3.5406Y-4.7808
X3.5406Y-5.5342
X3.5406Y-5.6469
X3.564Y-2.3228
X3.564Y-3.189
X3.564Y-3.5236
X3.564Y-4.3898
X3.564Y-4.7244
X3.564Y-5.5906
X4.2707Y-2.3228
X4.2707Y-3.189
X4.2707Y-3.5236
X4.2707Y-4.3898
X4.2707Y-4.7244
X4.2707Y-5.5906
X4.294Y-2.2665
X4.294Y-2.3792
X4.294Y-3.1326
X4.294Y-3.2454
X4.294Y-3.4672
X4.294Y-3.58
X4.294Y-4.3334
X4.294Y-4.4461
X4.294Y-4.668
X4.294Y-4.7808
X4.294Y-5.5342
X4.294Y-5.6469
X4.3504Y-2.2431
X4.3504Y-2.4026
X4.3504Y-3.1093
X4.3504Y-3.2687
X4.3504Y-3.4439
X4.3504Y-3.6033
X4.3504Y-4.31
X4.3504Y-4.4695
X4.3504Y-4.6447
X4.3504Y-4.8041
X4.3504Y-5.5108
X4.3504Y-5.6703
X4.4068Y-2.2665
X4.4068Y-2.3792
X4.4068Y-3.1326
X4.4068Y-3.2454
X4.4068Y-3.4672
X4.4068Y-3.58
X4.4068Y-4.3334
X4.4068Y-4.4461
X4.4068Y-4.668
X4.4068Y-4.7808
X4.4068Y-5.5342
X4.4068Y-5.6469
X4.4301Y-2.3228
X4.4301Y-3.189
X4.4301Y-3.5236
X4.4301Y-4.3898
X4.4301Y-4.7244
X4.4301Y-5.5906
X4.6053Y-2.3228
X4.6053Y-3.189
X4.6053Y-3.5236
X4.6053Y-4.3898
X4.6053Y-4.7244
X4.6053Y-5.5906
X4.6287Y-2.2665
X4.6287Y-2.3792
X4.6287Y-3.1326
X4.6287Y-3.2454
X4.6287Y-3.4672
X4.6287Y-3.58
X4.6287Y-4.3334
X4.6287Y-4.4461
X4.6287Y-4.668
X4.6287Y-4.7808
X4.6287Y-5.5342
X4.6287Y-5.6469
X4.685Y-2.2431
X4.685Y-2.4026
X4.685Y-3.1093
X4.685Y-3.2687
X4.685Y-3.4439
X4.685Y-3.6033
X4.685Y-4.31
X4.685Y-4.4695
X4.685Y-4.6447
X4.685Y-4.8041
X4.685Y-5.5108
X4.685Y-5.6703
X4.7414Y-2.2665
X4.7414Y-2.3792
X4.7414Y-3.1326
X4.7414Y-3.2454
X4.7414Y-3.4672
X4.7414Y-3.58
X4.7414Y-4.3334
X4.7414Y-4.4461
X4.7414Y-4.668
X4.7414Y-4.7808
X4.7414Y-5.5342
X4.7414Y-5.6469
X4.7648Y-2.3228
X4.7648Y-3.189
X4.7648Y-3.5236
X4.7648Y-4.3898
X4.7648Y-4.7244
X4.7648Y-5.5906
X5.4715Y-2.3228
X5.4715Y-3.189
X5.4715Y-3.5236
X5.4715Y-4.3898
X5.4715Y-4.7244
X5.4715Y-5.5906
X5.4948Y-2.2665
X5.4948Y-2.3792
X5.4948Y-3.1326
X5.4948Y-3.2454
X5.4948Y-3.4672
X5.4948Y-3.58
X5.4948Y-4.3334
X5.4948Y-4.4461
X5.4948Y-4.668
X5.4948Y-4.7808
X5.4948Y-5.5342
X5.4948Y-5.6469
X5.5512Y-2.2431
X5.5512Y-2.4026
X5.5512Y-3.1093
X5.5512Y-3.2687
X5.5512Y-3.4439
X5.5512Y-3.6033
X5.5512Y-4.31
X5.5512Y-4.4695
X5.5512Y-4.6447
X5.5512Y-4.8041
X5.5512Y-5.5108
X5.5512Y-5.6703
X5.6076Y-2.2665
X5.6076Y-2.3792
X5.6076Y-3.1326
X5.6076Y-3.2454
X5.6076Y-3.4672
X5.6076Y-3.58
X5.6076Y-4.3334
X5.6076Y-4.4461
X5.6076Y-4.668
X5.6076Y-4.7808
X5.6076Y-5.5342
X5.6076Y-5.6469
X5.6309Y-2.3228
X5.6309Y-3.189
X5.6309Y-3.5236
X5.6309Y-4.3898
X5.6309Y-4.7244
X5.6309Y-5.5906
X5.8061Y-2.3228
X5.8061Y-3.189
X5.8061Y-3.5236
X5.8061Y-4.3898
X5.8061Y-4.7244
X5.8061Y-5.5906
X5.8295Y-2.2665
X5.8295Y-2.3792
X5.8295Y-3.1326
X5.8295Y-3.2454
X5.8295Y-3.4672
X5.8295Y-3.58
X5.8295Y-4.3334
X5.8295Y-4.4461
X5.8295Y-4.668
X5.8295Y-4.7808
X5.8295Y-5.5342
X5.8295Y-5.6469
X5.8858Y-2.2431
X5.8858Y-2.4026
X5.8858Y-3.1093
X5.8858Y-3.2687
X5.8858Y-3.4439
X5.8858Y-3.6033
X5.8858Y-4.31
X5.8858Y-4.4695
X5.8858Y-4.6447
X5.8858Y-4.8041
X5.8858Y-5.5108
X5.8858Y-5.6703
X5.9422Y-2.2665
X5.9422Y-2.3792
X5.9422Y-3.1326
X5.9422Y-3.2454
X5.9422Y-3.4672
X5.9422Y-3.58
X5.9422Y-4.3334
X5.9422Y-4.4461
X5.9422Y-4.668
X5.9422Y-4.7808
X5.9422Y-5.5342
X5.9422Y-5.6469
X5.9656Y-2.3228
X5.9656Y-3.189
X5.9656Y-3.5236
X5.9656Y-4.3898
X5.9656Y-4.7244
X5.9656Y-5.5906
X6.6722Y-2.3228
X6.6722Y-3.189
X6.6722Y-3.5236
X6.6722Y-4.3898
X6.6722Y-4.7244
X6.6722Y-5.5906
X6.6956Y-2.2665
X6.6956Y-2.3792
X6.6956Y-3.1326
X6.6956Y-3.2454
X6.6956Y-3.4672
X6.6956Y-3.58
X6.6956Y-4.3334
X6.6956Y-4.4461
X6.6956Y-4.668
X6.6956Y-4.7808
X6.6956Y-5.5342
X6.6956Y-5.6469
X6.752Y-2.2431
X6.752Y-2.4026
X6.752Y-3.1093
X6.752Y-3.2687
X6.752Y-3.4439
X6.752Y-3.6033
X6.752Y-4.31
X6.752Y-4.4695
X6.752Y-4.6447
X6.752Y-4.8041
X6.752Y-5.5108
X6.752Y-5.6703
X6.8083Y-2.2665
X6.8083Y-2.3792
X6.8083Y-3.1326
X6.8083Y-3.2454
X6.8083Y-3.4672
X6.8083Y-3.58
X6.8083Y-4.3334
X6.8083Y-4.4461
X6.8083Y-4.668
X6.8083Y-4.7808
X6.8083Y-5.5342
X6.8083Y-5.6469
X6.8317Y-2.3228
X6.8317Y-3.189
X6.8317Y-3.5236
X6.8317Y-4.3898
X6.8317Y-4.7244
X6.8317Y-5.5906
X7.0069Y-2.3228
X7.0069Y-3.189
X7.0069Y-3.5236
X7.0069Y-4.3898
X7.0069Y-4.7244
X7.0069Y-5.5906
X7.0302Y-2.2665
X7.0302Y-2.3792
X7.0302Y-3.1326
X7.0302Y-3.2454
X7.0302Y-3.4672
X7.0302Y-3.58
X7.0302Y-4.3334
X7.0302Y-4.4461
X7.0302Y-4.668
X7.0302Y-4.7808
X7.0302Y-5.5342
X7.0302Y-5.6469
X7.0866Y-2.2431
X7.0866Y-2.4026
X7.0866Y-3.1093
X7.0866Y-3.2687
X7.0866Y-3.4439
X7.0866Y-3.6033
X7.0866Y-4.31
X7.0866Y-4.4695
X7.0866Y-4.6447
X7.0866Y-4.8041
X7.0866Y-5.5108
X7.0866Y-5.6703
X7.143Y-2.2665
X7.143Y-2.3792
X7.143Y-3.1326
X7.143Y-3.2454
X7.143Y-3.4672
X7.143Y-3.58
X7.143Y-4.3334
X7.143Y-4.4461
X7.143Y-4.668
X7.143Y-4.7808
X7.143Y-5.5342
X7.143Y-5.6469
X7.1663Y-2.3228
X7.1663Y-3.189
X7.1663Y-3.5236
X7.1663Y-4.3898
X7.1663Y-4.7244
X7.1663Y-5.5906
X7.873Y-2.3228
X7.873Y-3.189
X7.873Y-3.5236
X7.873Y-4.3898
X7.873Y-4.7244
X7.873Y-5.5906
X7.8964Y-2.2665
X7.8964Y-2.3792
X7.8964Y-3.1326
X7.8964Y-3.2454
X7.8964Y-3.4672
X7.8964Y-3.58
X7.8964Y-4.3334
X7.8964Y-4.4461
X7.8964Y-4.668
X7.8964Y-4.7808
X7.8964Y-5.5342
X7.8964Y-5.6469
X7.9528Y-2.2431
X7.9528Y-2.4026
X7.9528Y-3.1093
X7.9528Y-3.2687
X7.9528Y-3.4439
X7.9528Y-3.6033
X7.9528Y-4.31
X7.9528Y-4.4695
X7.9528Y-4.6447
X7.9528Y-4.8041
X7.9528Y-5.5108
X7.9528Y-5.6703
X8.0091Y-2.2665
X8.0091Y-2.3792
X8.0091Y-3.1326
X8.0091Y-3.2454
X8.0091Y-3.4672
X8.0091Y-3.58
X8.0091Y-4.3334
X8.0091Y-4.4461
X8.0091Y-4.668
X8.0091Y-4.7808
X8.0091Y-5.5342
X8.0091Y-5.6469
X8.0325Y-2.3228
X8.0325Y-3.189
X8.0325Y-3.5236
X8.0325Y-4.3898
X8.0325Y-4.7244
X8.0325Y-5.5906
T4
X8.3563Y-3.5642
X8.3563Y-3.6642
X8.3563Y-3.7642
X8.3591Y-5.4874
X8.3591Y-5.5874
X8.3591Y-5.6874
X8.8362Y-2.2587
X8.8362Y-2.3587
X8.8362Y-2.4587
X8.8362Y-4.8327
X8.8362Y-4.9327
X8.8362Y-5.0327
X8.8366Y-4.4929
X8.8366Y-4.5929
X8.8366Y-4.6929
X8.837Y-3.1157
X8.837Y-3.2157
X8.837Y-3.3157
X9.1039Y-2.2587
X9.1039Y-2.3587
X9.1039Y-2.4587
X9.1039Y-4.8327
X9.1039Y-4.9327
X9.1039Y-5.0327
X9.1043Y-4.4929
X9.1043Y-4.5929
X9.1043Y-4.6929
X9.1047Y-3.1157
X9.1047Y-3.2157
X9.1047Y-3.3157
T5
X9.3771Y-5.0539
X9.3771Y-5.1917
X9.3771Y-5.3295
X9.3772Y-2.4791
X9.3772Y-2.6169
X9.3772Y-2.7547
X9.3772Y-3.3374
X9.3772Y-3.4752
X9.3772Y-3.613
X9.3772Y-4.1957
X9.3772Y-4.3335
X9.3772Y-4.4713
T6
X9.6957Y-2.887
X9.6957Y-3.287
X9.6957Y-3.687
X9.6957Y-4.087
X9.6957Y-4.487
X9.6957Y-4.887
X9.6957Y-5.287
X9.8957Y-2.687
X9.8957Y-3.087
X9.8957Y-3.487
X9.8957Y-3.887
X9.8957Y-4.287
X9.8957Y-4.687
X9.8957Y-5.087
X9.8957Y-5.487
T7
X1.6835Y-2.187
X1.6835Y-5.687
X2.2835Y-2.3228
X2.2835Y-3.5236
X2.2835Y-4.3898
X2.2835Y-4.7244
X2.2835Y-5.5906
X2.2844Y-3.189
X3.1496Y-2.3228
X3.1496Y-3.189
X3.1496Y-3.5236
X3.1496Y-4.3898
X3.1496Y-4.7244
X3.1496Y-5.5906
X3.4843Y-2.3228
X3.4843Y-3.189
X3.4843Y-3.5236
X3.4843Y-4.3898
X3.4843Y-4.7244
X3.4843Y-5.5906
X4.3504Y-2.3228
X4.3504Y-3.189
X4.3504Y-3.5236
X4.3504Y-4.3898
X4.3504Y-4.7244
X4.3504Y-5.5906
X4.685Y-2.3228
X4.685Y-3.189
X4.685Y-3.5236
X4.685Y-4.3898
X4.685Y-4.7244
X4.685Y-5.5906
X5.5512Y-2.3228
X5.5512Y-3.189
X5.5512Y-3.5236
X5.5512Y-4.3898
X5.5512Y-4.7244
X5.5512Y-5.5906
X5.8858Y-2.3228
X5.8858Y-3.189
X5.8858Y-3.5236
X5.8858Y-4.3898
X5.8858Y-4.7244
X5.8858Y-5.5906
X6.752Y-2.3228
X6.752Y-3.189
X6.752Y-3.5236
X6.752Y-4.3898
X6.752Y-4.7244
X6.752Y-5.5906
X7.0866Y-2.3228
X7.0866Y-3.189
X7.0866Y-3.5236
X7.0866Y-4.3898
X7.0866Y-4.7244
X7.0866Y-5.5906
X7.9528Y-2.3228
X7.9528Y-3.189
X7.9528Y-3.5236
X7.9528Y-4.3898
X7.9528Y-4.7244
X7.9528Y-5.5906
M30
