%TF.GenerationSoftware,KiCad,Pcbnew,7.0.10*%
%TF.CreationDate,2024-02-16T20:10:34+00:00*%
%TF.ProjectId,Template-3U220mm,54656d70-6c61-4746-952d-33553232306d,0.1*%
%TF.SameCoordinates,Original*%
%TF.FileFunction,Soldermask,Top*%
%TF.FilePolarity,Negative*%
%FSLAX46Y46*%
G04 Gerber Fmt 4.6, Leading zero omitted, Abs format (unit mm)*
G04 Created by KiCad (PCBNEW 7.0.10) date 2024-02-16 20:10:34*
%MOMM*%
%LPD*%
G01*
G04 APERTURE LIST*
G04 Aperture macros list*
%AMRoundRect*
0 Rectangle with rounded corners*
0 $1 Rounding radius*
0 $2 $3 $4 $5 $6 $7 $8 $9 X,Y pos of 4 corners*
0 Add a 4 corners polygon primitive as box body*
4,1,4,$2,$3,$4,$5,$6,$7,$8,$9,$2,$3,0*
0 Add four circle primitives for the rounded corners*
1,1,$1+$1,$2,$3*
1,1,$1+$1,$4,$5*
1,1,$1+$1,$6,$7*
1,1,$1+$1,$8,$9*
0 Add four rect primitives between the rounded corners*
20,1,$1+$1,$2,$3,$4,$5,0*
20,1,$1+$1,$4,$5,$6,$7,0*
20,1,$1+$1,$6,$7,$8,$9,0*
20,1,$1+$1,$8,$9,$2,$3,0*%
%AMFreePoly0*
4,1,93,0.006530,2.344911,0.071157,2.344911,0.077575,2.343026,0.084259,2.342849,0.145712,2.323019,0.207708,2.304816,0.213335,2.301199,0.219699,2.299146,0.273087,2.262799,0.327430,2.227875,0.331809,2.222820,0.337338,2.219057,0.378328,2.169135,0.420627,2.120320,0.423405,2.114236,0.427649,2.109068,0.452917,2.049612,0.479746,1.990866,0.480697,1.984248,0.483314,1.978092,
0.490807,1.913930,0.500000,1.850000,0.500000,-1.850000,0.494911,-1.885393,0.494911,-1.921157,0.484834,-1.955473,0.479746,-1.990866,0.464892,-2.023391,0.454816,-2.057708,0.435481,-2.087793,0.420627,-2.120320,0.397209,-2.147345,0.377875,-2.177430,0.350848,-2.200848,0.327430,-2.227875,0.297345,-2.247209,0.270320,-2.270627,0.237793,-2.285481,0.207708,-2.304816,0.173391,-2.314892,
0.140866,-2.329746,0.105473,-2.334834,0.071157,-2.344911,0.035394,-2.344911,0.000000,-2.350000,-2.000000,-2.350000,-2.035394,-2.344911,-2.071157,-2.344911,-2.105473,-2.334834,-2.140866,-2.329746,-2.173391,-2.314892,-2.207708,-2.304816,-2.237793,-2.285481,-2.270320,-2.270627,-2.297345,-2.247209,-2.327430,-2.227875,-2.350848,-2.200848,-2.377875,-2.177430,-2.397209,-2.147345,-2.420627,-2.120320,
-2.435481,-2.087793,-2.454816,-2.057708,-2.464892,-2.023391,-2.479746,-1.990866,-2.484834,-1.955473,-2.494911,-1.921157,-2.494911,-1.885393,-2.500000,-1.850000,-2.500000,1.000000,-2.499048,1.006620,-2.499824,1.013263,-2.488937,1.076938,-2.479746,1.140866,-2.476968,1.146948,-2.475841,1.153542,-2.447458,1.211566,-2.420627,1.270320,-2.416246,1.275375,-2.413308,1.281383,-2.369734,1.329053,
-2.327430,1.377875,-2.321801,1.381491,-2.317291,1.386427,-2.262067,1.419881,-2.207708,1.454816,-2.201287,1.456701,-2.195570,1.460165,-0.195571,2.310165,-0.133159,2.326705,-0.071157,2.344911,-0.064465,2.344911,-0.058005,2.346623,0.006530,2.344911,0.006530,2.344911,$1*%
%AMFreePoly1*
4,1,93,0.064465,2.344911,0.071157,2.344911,0.133164,2.326703,0.195570,2.310165,2.195570,1.460166,2.201290,1.456700,2.207708,1.454816,2.262054,1.419889,2.317291,1.386427,2.321801,1.381491,2.327430,1.377875,2.369734,1.329053,2.413308,1.281383,2.416246,1.275375,2.420627,1.270320,2.447458,1.211566,2.475841,1.153542,2.476968,1.146948,2.479746,1.140866,2.488937,1.076938,
2.499824,1.013263,2.499048,1.006620,2.500000,1.000000,2.500000,-1.850000,2.494911,-1.885393,2.494911,-1.921157,2.484834,-1.955473,2.479746,-1.990866,2.464892,-2.023391,2.454816,-2.057708,2.435481,-2.087793,2.420627,-2.120320,2.397209,-2.147345,2.377875,-2.177430,2.350848,-2.200848,2.327430,-2.227875,2.297345,-2.247209,2.270320,-2.270627,2.237793,-2.285481,2.207708,-2.304816,
2.173391,-2.314892,2.140866,-2.329746,2.105473,-2.334834,2.071157,-2.344911,2.035394,-2.344911,2.000000,-2.350000,0.000000,-2.350000,-0.035394,-2.344911,-0.071157,-2.344911,-0.105473,-2.334834,-0.140866,-2.329746,-0.173391,-2.314892,-0.207708,-2.304816,-0.237793,-2.285481,-0.270320,-2.270627,-0.297345,-2.247209,-0.327430,-2.227875,-0.350848,-2.200848,-0.377875,-2.177430,-0.397209,-2.147345,
-0.420627,-2.120320,-0.435481,-2.087793,-0.454816,-2.057708,-0.464892,-2.023391,-0.479746,-1.990866,-0.484834,-1.955473,-0.494911,-1.921157,-0.494911,-1.885393,-0.500000,-1.850000,-0.500000,1.850000,-0.490807,1.913930,-0.483314,1.978092,-0.480697,1.984248,-0.479746,1.990866,-0.452925,2.049595,-0.427650,2.109068,-0.423404,2.114239,-0.420627,2.120320,-0.378336,2.169125,-0.337338,2.219057,
-0.331809,2.222820,-0.327430,2.227875,-0.273087,2.262799,-0.219699,2.299146,-0.213335,2.301199,-0.207708,2.304816,-0.145719,2.323017,-0.084260,2.342849,-0.077575,2.343026,-0.071157,2.344911,-0.006531,2.344911,0.058005,2.346623,0.064465,2.344911,0.064465,2.344911,$1*%
G04 Aperture macros list end*
%ADD10C,0.100000*%
%ADD11C,0.800000*%
%ADD12C,5.400000*%
%ADD13RoundRect,0.250000X0.625000X-0.312500X0.625000X0.312500X-0.625000X0.312500X-0.625000X-0.312500X0*%
%ADD14C,3.000000*%
%ADD15RoundRect,0.250000X-0.845000X0.620000X-0.845000X-0.620000X0.845000X-0.620000X0.845000X0.620000X0*%
%ADD16O,2.190000X1.740000*%
%ADD17RoundRect,0.250000X-0.300000X2.050000X-0.300000X-2.050000X0.300000X-2.050000X0.300000X2.050000X0*%
%ADD18RoundRect,0.250002X-5.149998X4.449998X-5.149998X-4.449998X5.149998X-4.449998X5.149998X4.449998X0*%
%ADD19RoundRect,0.250000X-0.625000X0.312500X-0.625000X-0.312500X0.625000X-0.312500X0.625000X0.312500X0*%
%ADD20RoundRect,0.250000X-2.290000X0.250000X-2.290000X-0.250000X2.290000X-0.250000X2.290000X0.250000X0*%
%ADD21FreePoly0,270.000000*%
%ADD22FreePoly1,270.000000*%
%ADD23RoundRect,0.250000X0.650000X-0.412500X0.650000X0.412500X-0.650000X0.412500X-0.650000X-0.412500X0*%
%ADD24R,1.000000X1.000000*%
%ADD25R,2.200000X1.050000*%
%ADD26RoundRect,0.250000X0.312500X0.625000X-0.312500X0.625000X-0.312500X-0.625000X0.312500X-0.625000X0*%
%ADD27C,2.400000*%
%ADD28RoundRect,0.250000X-1.550000X0.650000X-1.550000X-0.650000X1.550000X-0.650000X1.550000X0.650000X0*%
%ADD29O,3.600000X1.800000*%
%ADD30RoundRect,0.250000X-2.050000X-0.300000X2.050000X-0.300000X2.050000X0.300000X-2.050000X0.300000X0*%
%ADD31RoundRect,0.250002X-4.449998X-5.149998X4.449998X-5.149998X4.449998X5.149998X-4.449998X5.149998X0*%
%ADD32RoundRect,0.250000X-0.312500X-0.625000X0.312500X-0.625000X0.312500X0.625000X-0.312500X0.625000X0*%
%ADD33R,1.350000X5.400000*%
%ADD34R,2.700000X4.250000*%
%ADD35R,4.490000X1.350000*%
%ADD36R,4.920000X1.350000*%
%ADD37RoundRect,0.412500X-0.412500X-2.287500X0.412500X-2.287500X0.412500X2.287500X-0.412500X2.287500X0*%
%ADD38R,2.700000X4.190000*%
%ADD39R,4.725000X1.350000*%
%ADD40RoundRect,0.250000X-0.650000X0.412500X-0.650000X-0.412500X0.650000X-0.412500X0.650000X0.412500X0*%
%ADD41RoundRect,0.250000X0.412500X0.650000X-0.412500X0.650000X-0.412500X-0.650000X0.412500X-0.650000X0*%
%ADD42C,2.794000*%
%ADD43O,6.254000X3.254000*%
%ADD44RoundRect,0.250000X-0.412500X-0.650000X0.412500X-0.650000X0.412500X0.650000X-0.412500X0.650000X0*%
G04 APERTURE END LIST*
D10*
X40000000Y-58700000D02*
X42500000Y-58700000D01*
X42500000Y-63700000D01*
X40000000Y-63700000D01*
X40000000Y-58700000D01*
G36*
X40000000Y-58700000D02*
G01*
X42500000Y-58700000D01*
X42500000Y-63700000D01*
X40000000Y-63700000D01*
X40000000Y-58700000D01*
G37*
X53390000Y-114480000D02*
X206000000Y-114480000D01*
X206000000Y-116980000D01*
X53390000Y-116980000D01*
X53390000Y-114480000D01*
G36*
X53390000Y-114480000D02*
G01*
X206000000Y-114480000D01*
X206000000Y-116980000D01*
X53390000Y-116980000D01*
X53390000Y-114480000D01*
G37*
X40000000Y-136470000D02*
X42500000Y-136470000D01*
X42500000Y-141300000D01*
X40000000Y-141300000D01*
X40000000Y-136470000D01*
G36*
X40000000Y-136470000D02*
G01*
X42500000Y-136470000D01*
X42500000Y-141300000D01*
X40000000Y-141300000D01*
X40000000Y-136470000D01*
G37*
X53370000Y-53450000D02*
X205980000Y-53450000D01*
X205980000Y-55950000D01*
X53370000Y-55950000D01*
X53370000Y-53450000D01*
G36*
X53370000Y-53450000D02*
G01*
X205980000Y-53450000D01*
X205980000Y-55950000D01*
X53370000Y-55950000D01*
X53370000Y-53450000D01*
G37*
X40000000Y-50000000D02*
X260000000Y-50000000D01*
X260000000Y-52500000D01*
X40000000Y-52500000D01*
X40000000Y-50000000D01*
G36*
X40000000Y-50000000D02*
G01*
X260000000Y-50000000D01*
X260000000Y-52500000D01*
X40000000Y-52500000D01*
X40000000Y-50000000D01*
G37*
X40000000Y-147500000D02*
X260000000Y-147500000D01*
X260000000Y-150000000D01*
X40000000Y-150000000D01*
X40000000Y-147500000D01*
G36*
X40000000Y-147500000D02*
G01*
X260000000Y-147500000D01*
X260000000Y-150000000D01*
X40000000Y-150000000D01*
X40000000Y-147500000D01*
G37*
X53400000Y-145010000D02*
X204700000Y-145010000D01*
X204700000Y-147510000D01*
X53400000Y-147510000D01*
X53400000Y-145010000D01*
G36*
X53400000Y-145010000D02*
G01*
X204700000Y-145010000D01*
X204700000Y-147510000D01*
X53400000Y-147510000D01*
X53400000Y-145010000D01*
G37*
X53330000Y-84030000D02*
X203620000Y-84030000D01*
X203620000Y-86530000D01*
X53330000Y-86530000D01*
X53330000Y-84030000D01*
G36*
X53330000Y-84030000D02*
G01*
X203620000Y-84030000D01*
X203620000Y-86530000D01*
X53330000Y-86530000D01*
X53330000Y-84030000D01*
G37*
D11*
%TO.C,Tile34*%
X116975000Y-111500000D03*
X117568109Y-110068109D03*
X117568109Y-112931891D03*
X119000000Y-109475000D03*
D12*
X119000000Y-111500000D03*
D11*
X119000000Y-113525000D03*
X120431891Y-110068109D03*
X120431891Y-112931891D03*
X121025000Y-111500000D03*
%TD*%
D13*
%TO.C,R12*%
X207580000Y-134122500D03*
X207580000Y-131197500D03*
%TD*%
D11*
%TO.C,Tile42*%
X147475000Y-111500000D03*
X148068109Y-110068109D03*
X148068109Y-112931891D03*
X149500000Y-109475000D03*
D12*
X149500000Y-111500000D03*
D11*
X149500000Y-113525000D03*
X150931891Y-110068109D03*
X150931891Y-112931891D03*
X151525000Y-111500000D03*
%TD*%
D14*
%TO.C,FID8*%
X49970000Y-140870000D03*
%TD*%
D15*
%TO.C,J22*%
X224440000Y-57370000D03*
D16*
X224440000Y-59910000D03*
X224440000Y-62450000D03*
%TD*%
D13*
%TO.C,R16*%
X216880000Y-142337500D03*
X216880000Y-145262500D03*
%TD*%
D11*
%TO.C,Tile33*%
X86475000Y-111500000D03*
X87068109Y-110068109D03*
X87068109Y-112931891D03*
X88500000Y-109475000D03*
D12*
X88500000Y-111500000D03*
D11*
X88500000Y-113525000D03*
X89931891Y-110068109D03*
X89931891Y-112931891D03*
X90525000Y-111500000D03*
%TD*%
%TO.C,Tile45*%
X138975000Y-59000000D03*
X139568109Y-57568109D03*
X139568109Y-60431891D03*
X141000000Y-56975000D03*
D12*
X141000000Y-59000000D03*
D11*
X141000000Y-61025000D03*
X142431891Y-57568109D03*
X142431891Y-60431891D03*
X143025000Y-59000000D03*
%TD*%
%TO.C,Tile19*%
X199975000Y-89500000D03*
X200568109Y-88068109D03*
X200568109Y-90931891D03*
X202000000Y-87475000D03*
D12*
X202000000Y-89500000D03*
D11*
X202000000Y-91525000D03*
X203431891Y-88068109D03*
X203431891Y-90931891D03*
X204025000Y-89500000D03*
%TD*%
D17*
%TO.C,U2*%
X217700000Y-71870000D03*
D18*
X215160000Y-81020000D03*
D17*
X212620000Y-71870000D03*
%TD*%
D11*
%TO.C,Tile43*%
X108475000Y-111500000D03*
X109068109Y-110068109D03*
X109068109Y-112931891D03*
X110500000Y-109475000D03*
D12*
X110500000Y-111500000D03*
D11*
X110500000Y-113525000D03*
X111931891Y-110068109D03*
X111931891Y-112931891D03*
X112525000Y-111500000D03*
%TD*%
%TO.C,Tile54*%
X116975000Y-89500000D03*
X117568109Y-88068109D03*
X117568109Y-90931891D03*
X119000000Y-87475000D03*
D12*
X119000000Y-89500000D03*
D11*
X119000000Y-91525000D03*
X120431891Y-88068109D03*
X120431891Y-90931891D03*
X121025000Y-89500000D03*
%TD*%
%TO.C,Tile4*%
X55975000Y-89500000D03*
X56568109Y-88068109D03*
X56568109Y-90931891D03*
X58000000Y-87475000D03*
D12*
X58000000Y-89500000D03*
D11*
X58000000Y-91525000D03*
X59431891Y-88068109D03*
X59431891Y-90931891D03*
X60025000Y-89500000D03*
%TD*%
%TO.C,Tile1*%
X55975000Y-111500000D03*
X56568109Y-110068109D03*
X56568109Y-112931891D03*
X58000000Y-109475000D03*
D12*
X58000000Y-111500000D03*
D11*
X58000000Y-113525000D03*
X59431891Y-110068109D03*
X59431891Y-112931891D03*
X60025000Y-111500000D03*
%TD*%
D19*
%TO.C,R9*%
X216790000Y-87437500D03*
X216790000Y-90362500D03*
%TD*%
D11*
%TO.C,Tile3*%
X77975000Y-89500000D03*
X78568109Y-88068109D03*
X78568109Y-90931891D03*
X80000000Y-87475000D03*
D12*
X80000000Y-89500000D03*
D11*
X80000000Y-91525000D03*
X81431891Y-88068109D03*
X81431891Y-90931891D03*
X82025000Y-89500000D03*
%TD*%
D20*
%TO.C,J4*%
X42700000Y-85000000D03*
D21*
X42500000Y-89250000D03*
D22*
X42500000Y-80750000D03*
%TD*%
D11*
%TO.C,Tile23*%
X147475000Y-120000000D03*
X148068109Y-118568109D03*
X148068109Y-121431891D03*
X149500000Y-117975000D03*
D12*
X149500000Y-120000000D03*
D11*
X149500000Y-122025000D03*
X150931891Y-118568109D03*
X150931891Y-121431891D03*
X151525000Y-120000000D03*
%TD*%
D15*
%TO.C,J24*%
X231260000Y-79140000D03*
D16*
X231260000Y-81680000D03*
X231260000Y-84220000D03*
%TD*%
D11*
%TO.C,Tile18*%
X177975000Y-120000000D03*
X178568109Y-118568109D03*
X178568109Y-121431891D03*
X180000000Y-117975000D03*
D12*
X180000000Y-120000000D03*
D11*
X180000000Y-122025000D03*
X181431891Y-118568109D03*
X181431891Y-121431891D03*
X182025000Y-120000000D03*
%TD*%
D14*
%TO.C,FID5*%
X49000000Y-60000000D03*
%TD*%
D23*
%TO.C,C16*%
X207590000Y-146360000D03*
X207590000Y-143235000D03*
%TD*%
D11*
%TO.C,Tile41*%
X147475000Y-59000000D03*
X148068109Y-57568109D03*
X148068109Y-60431891D03*
X149500000Y-56975000D03*
D12*
X149500000Y-59000000D03*
D11*
X149500000Y-61025000D03*
X150931891Y-57568109D03*
X150931891Y-60431891D03*
X151525000Y-59000000D03*
%TD*%
D23*
%TO.C,C6*%
X213400000Y-67862500D03*
X213400000Y-64737500D03*
%TD*%
D11*
%TO.C,Tile6*%
X77975000Y-142000000D03*
X78568109Y-140568109D03*
X78568109Y-143431891D03*
X80000000Y-139975000D03*
D12*
X80000000Y-142000000D03*
D11*
X80000000Y-144025000D03*
X81431891Y-140568109D03*
X81431891Y-143431891D03*
X82025000Y-142000000D03*
%TD*%
D24*
%TO.C,J15*%
X46500000Y-105000000D03*
D25*
X48000000Y-103525000D03*
D24*
X49500000Y-105000000D03*
D25*
X48000000Y-106475000D03*
%TD*%
D20*
%TO.C,J6*%
X42700000Y-75000000D03*
D21*
X42500000Y-79250000D03*
D22*
X42500000Y-70750000D03*
%TD*%
D20*
%TO.C,J10*%
X42700000Y-135000000D03*
D21*
X42500000Y-139250000D03*
D22*
X42500000Y-130750000D03*
%TD*%
D11*
%TO.C,Tile15*%
X138975000Y-120000000D03*
X139568109Y-118568109D03*
X139568109Y-121431891D03*
X141000000Y-117975000D03*
D12*
X141000000Y-120000000D03*
D11*
X141000000Y-122025000D03*
X142431891Y-118568109D03*
X142431891Y-121431891D03*
X143025000Y-120000000D03*
%TD*%
D17*
%TO.C,U3*%
X217940000Y-120850000D03*
D18*
X215400000Y-130000000D03*
D17*
X212860000Y-120850000D03*
%TD*%
D14*
%TO.C,FID3*%
X244000000Y-145000000D03*
%TD*%
D11*
%TO.C,Tile8*%
X77975000Y-120000000D03*
X78568109Y-118568109D03*
X78568109Y-121431891D03*
X80000000Y-117975000D03*
D12*
X80000000Y-120000000D03*
D11*
X80000000Y-122025000D03*
X81431891Y-118568109D03*
X81431891Y-121431891D03*
X82025000Y-120000000D03*
%TD*%
D24*
%TO.C,J1*%
X46500000Y-95000000D03*
D25*
X48000000Y-93525000D03*
D24*
X49500000Y-95000000D03*
D25*
X48000000Y-96475000D03*
%TD*%
D11*
%TO.C,Tile26*%
X177975000Y-59000000D03*
X178568109Y-57568109D03*
X178568109Y-60431891D03*
X180000000Y-56975000D03*
D12*
X180000000Y-59000000D03*
D11*
X180000000Y-61025000D03*
X181431891Y-57568109D03*
X181431891Y-60431891D03*
X182025000Y-59000000D03*
%TD*%
%TO.C,Tile21*%
X138975000Y-142000000D03*
X139568109Y-140568109D03*
X139568109Y-143431891D03*
X141000000Y-139975000D03*
D12*
X141000000Y-142000000D03*
D11*
X141000000Y-144025000D03*
X142431891Y-140568109D03*
X142431891Y-143431891D03*
X143025000Y-142000000D03*
%TD*%
D24*
%TO.C,J9*%
X46500000Y-135000000D03*
D25*
X48000000Y-133525000D03*
D24*
X49500000Y-135000000D03*
D25*
X48000000Y-136475000D03*
%TD*%
D11*
%TO.C,Tile49*%
X169475000Y-81000000D03*
X170068109Y-79568109D03*
X170068109Y-82431891D03*
X171500000Y-78975000D03*
D12*
X171500000Y-81000000D03*
D11*
X171500000Y-83025000D03*
X172931891Y-79568109D03*
X172931891Y-82431891D03*
X173525000Y-81000000D03*
%TD*%
%TO.C,Tile47*%
X86475000Y-81000000D03*
X87068109Y-79568109D03*
X87068109Y-82431891D03*
X88500000Y-78975000D03*
D12*
X88500000Y-81000000D03*
D11*
X88500000Y-83025000D03*
X89931891Y-79568109D03*
X89931891Y-82431891D03*
X90525000Y-81000000D03*
%TD*%
D23*
%TO.C,C14*%
X207590000Y-141400000D03*
X207590000Y-138275000D03*
%TD*%
D11*
%TO.C,Tile50*%
X147475000Y-81000000D03*
X148068109Y-79568109D03*
X148068109Y-82431891D03*
X149500000Y-78975000D03*
D12*
X149500000Y-81000000D03*
D11*
X149500000Y-83025000D03*
X150931891Y-79568109D03*
X150931891Y-82431891D03*
X151525000Y-81000000D03*
%TD*%
D26*
%TO.C,R11*%
X210262500Y-136200000D03*
X207337500Y-136200000D03*
%TD*%
D15*
%TO.C,J17*%
X224440000Y-122750000D03*
D16*
X224440000Y-125290000D03*
X224440000Y-127830000D03*
%TD*%
D15*
%TO.C,J27*%
X231250000Y-114120000D03*
D16*
X231250000Y-116660000D03*
X231250000Y-119200000D03*
%TD*%
D11*
%TO.C,Tile44*%
X169475000Y-89500000D03*
X170068109Y-88068109D03*
X170068109Y-90931891D03*
X171500000Y-87475000D03*
D12*
X171500000Y-89500000D03*
D11*
X171500000Y-91525000D03*
X172931891Y-88068109D03*
X172931891Y-90931891D03*
X173525000Y-89500000D03*
%TD*%
%TO.C,Tile51*%
X116975000Y-59000000D03*
X117568109Y-57568109D03*
X117568109Y-60431891D03*
X119000000Y-56975000D03*
D12*
X119000000Y-59000000D03*
D11*
X119000000Y-61025000D03*
X120431891Y-57568109D03*
X120431891Y-60431891D03*
X121025000Y-59000000D03*
%TD*%
%TO.C,Tile59*%
X138975000Y-89500000D03*
X139568109Y-88068109D03*
X139568109Y-90931891D03*
X141000000Y-87475000D03*
D12*
X141000000Y-89500000D03*
D11*
X141000000Y-91525000D03*
X142431891Y-88068109D03*
X142431891Y-90931891D03*
X143025000Y-89500000D03*
%TD*%
%TO.C,Tile22*%
X147475000Y-142000000D03*
X148068109Y-140568109D03*
X148068109Y-143431891D03*
X149500000Y-139975000D03*
D12*
X149500000Y-142000000D03*
D11*
X149500000Y-144025000D03*
X150931891Y-140568109D03*
X150931891Y-143431891D03*
X151525000Y-142000000D03*
%TD*%
%TO.C,Tile39*%
X169475000Y-111500000D03*
X170068109Y-110068109D03*
X170068109Y-112931891D03*
X171500000Y-109475000D03*
D12*
X171500000Y-111500000D03*
D11*
X171500000Y-113525000D03*
X172931891Y-110068109D03*
X172931891Y-112931891D03*
X173525000Y-111500000D03*
%TD*%
D20*
%TO.C,J8*%
X42700000Y-65000000D03*
D21*
X42500000Y-69250000D03*
D22*
X42500000Y-60750000D03*
%TD*%
D11*
%TO.C,Tile32*%
X108475000Y-142000000D03*
X109068109Y-140568109D03*
X109068109Y-143431891D03*
X110500000Y-139975000D03*
D12*
X110500000Y-142000000D03*
D11*
X110500000Y-144025000D03*
X111931891Y-140568109D03*
X111931891Y-143431891D03*
X112525000Y-142000000D03*
%TD*%
D27*
%TO.C,J28*%
X238180000Y-102270000D03*
X238180000Y-117870000D03*
D28*
X238180000Y-106570000D03*
D29*
X238180000Y-110070000D03*
X238180000Y-113570000D03*
%TD*%
D24*
%TO.C,J7*%
X46500000Y-65000000D03*
D25*
X48000000Y-63525000D03*
D24*
X49500000Y-65000000D03*
D25*
X48000000Y-66475000D03*
%TD*%
D11*
%TO.C,Tile11*%
X56000000Y-81000000D03*
X56593109Y-79568109D03*
X56593109Y-82431891D03*
X58025000Y-78975000D03*
D12*
X58025000Y-81000000D03*
D11*
X58025000Y-83025000D03*
X59456891Y-79568109D03*
X59456891Y-82431891D03*
X60050000Y-81000000D03*
%TD*%
D27*
%TO.C,J19*%
X238177500Y-124070000D03*
X238177500Y-139670000D03*
D28*
X238177500Y-128370000D03*
D29*
X238177500Y-131870000D03*
X238177500Y-135370000D03*
%TD*%
D20*
%TO.C,J16*%
X42700000Y-105000000D03*
D21*
X42500000Y-109250000D03*
D22*
X42500000Y-100750000D03*
%TD*%
D30*
%TO.C,U1*%
X220485000Y-89185000D03*
D31*
X229635000Y-91725000D03*
D30*
X220485000Y-94265000D03*
%TD*%
D11*
%TO.C,Tile12*%
X77975000Y-59000000D03*
X78568109Y-57568109D03*
X78568109Y-60431891D03*
X80000000Y-56975000D03*
D12*
X80000000Y-59000000D03*
D11*
X80000000Y-61025000D03*
X81431891Y-57568109D03*
X81431891Y-60431891D03*
X82025000Y-59000000D03*
%TD*%
D27*
%TO.C,J20*%
X238180000Y-58670000D03*
X238180000Y-74270000D03*
D28*
X238180000Y-62970000D03*
D29*
X238180000Y-66470000D03*
X238180000Y-69970000D03*
%TD*%
D19*
%TO.C,R15*%
X216890000Y-137737500D03*
X216890000Y-140662500D03*
%TD*%
D32*
%TO.C,R14*%
X212015000Y-136460000D03*
X214940000Y-136460000D03*
%TD*%
D11*
%TO.C,Tile29*%
X177975000Y-111500000D03*
X178568109Y-110068109D03*
X178568109Y-112931891D03*
X180000000Y-109475000D03*
D12*
X180000000Y-111500000D03*
D11*
X180000000Y-113525000D03*
X181431891Y-110068109D03*
X181431891Y-112931891D03*
X182025000Y-111500000D03*
%TD*%
D15*
%TO.C,J21*%
X231240000Y-57370000D03*
D16*
X231240000Y-59910000D03*
X231240000Y-62450000D03*
%TD*%
D11*
%TO.C,Tile37*%
X108475000Y-120000000D03*
X109068109Y-118568109D03*
X109068109Y-121431891D03*
X110500000Y-117975000D03*
D12*
X110500000Y-120000000D03*
D11*
X110500000Y-122025000D03*
X111931891Y-118568109D03*
X111931891Y-121431891D03*
X112525000Y-120000000D03*
%TD*%
%TO.C,Tile16*%
X116975000Y-142000000D03*
X117568109Y-140568109D03*
X117568109Y-143431891D03*
X119000000Y-139975000D03*
D12*
X119000000Y-142000000D03*
D11*
X119000000Y-144025000D03*
X120431891Y-140568109D03*
X120431891Y-143431891D03*
X121025000Y-142000000D03*
%TD*%
%TO.C,Tile35*%
X138975000Y-111500000D03*
X139568109Y-110068109D03*
X139568109Y-112931891D03*
X141000000Y-109475000D03*
D12*
X141000000Y-111500000D03*
D11*
X141000000Y-113525000D03*
X142431891Y-110068109D03*
X142431891Y-112931891D03*
X143025000Y-111500000D03*
%TD*%
D23*
%TO.C,C11*%
X207700000Y-92792500D03*
X207700000Y-89667500D03*
%TD*%
D33*
%TO.C,H2*%
X40735000Y-55550000D03*
D11*
X40760000Y-55550000D03*
X41346000Y-54136000D03*
X41346000Y-56964000D03*
D34*
X41410000Y-52175000D03*
D35*
X42305000Y-53525000D03*
D36*
X42520000Y-57575000D03*
D11*
X42760000Y-53550000D03*
D12*
X42760000Y-55550000D03*
D11*
X42760000Y-57550000D03*
X44174000Y-54136000D03*
X44174000Y-56964000D03*
X44760000Y-55550000D03*
D37*
X44935000Y-55550000D03*
D33*
X40735000Y-144450000D03*
D11*
X40760000Y-144450000D03*
X41346000Y-143036000D03*
X41346000Y-145864000D03*
D38*
X41410000Y-147895000D03*
D39*
X42422500Y-142425000D03*
X42422500Y-146475000D03*
D11*
X42760000Y-142450000D03*
D12*
X42760000Y-144450000D03*
D11*
X42760000Y-146450000D03*
X44174000Y-143036000D03*
X44174000Y-145864000D03*
X44760000Y-144450000D03*
D37*
X44935000Y-144450000D03*
%TD*%
D11*
%TO.C,Tile27*%
X177975000Y-81000000D03*
X178568109Y-79568109D03*
X178568109Y-82431891D03*
X180000000Y-78975000D03*
D12*
X180000000Y-81000000D03*
D11*
X180000000Y-83025000D03*
X181431891Y-79568109D03*
X181431891Y-82431891D03*
X182025000Y-81000000D03*
%TD*%
%TO.C,Tile7*%
X55975000Y-120000000D03*
X56568109Y-118568109D03*
X56568109Y-121431891D03*
X58000000Y-117975000D03*
D12*
X58000000Y-120000000D03*
D11*
X58000000Y-122025000D03*
X59431891Y-118568109D03*
X59431891Y-121431891D03*
X60025000Y-120000000D03*
%TD*%
D13*
%TO.C,R1*%
X207700000Y-85262500D03*
X207700000Y-82337500D03*
%TD*%
D11*
%TO.C,Tile53*%
X138975000Y-81000000D03*
X139568109Y-79568109D03*
X139568109Y-82431891D03*
X141000000Y-78975000D03*
D12*
X141000000Y-81000000D03*
D11*
X141000000Y-83025000D03*
X142431891Y-79568109D03*
X142431891Y-82431891D03*
X143025000Y-81000000D03*
%TD*%
%TO.C,Tile5*%
X55975000Y-59000000D03*
X56568109Y-57568109D03*
X56568109Y-60431891D03*
X58000000Y-56975000D03*
D12*
X58000000Y-59000000D03*
D11*
X58000000Y-61025000D03*
X59431891Y-57568109D03*
X59431891Y-60431891D03*
X60025000Y-59000000D03*
%TD*%
D20*
%TO.C,J2*%
X42700000Y-95000000D03*
D21*
X42500000Y-99250000D03*
D22*
X42500000Y-90750000D03*
%TD*%
D14*
%TO.C,FID1*%
X248130000Y-61500000D03*
%TD*%
D20*
%TO.C,J14*%
X42700000Y-115000000D03*
D21*
X42500000Y-119250000D03*
D22*
X42500000Y-110750000D03*
%TD*%
D11*
%TO.C,Tile60*%
X108475000Y-89500000D03*
X109068109Y-88068109D03*
X109068109Y-90931891D03*
X110500000Y-87475000D03*
D12*
X110500000Y-89500000D03*
D11*
X110500000Y-91525000D03*
X111931891Y-88068109D03*
X111931891Y-90931891D03*
X112525000Y-89500000D03*
%TD*%
%TO.C,Tile46*%
X86475000Y-59000000D03*
X87068109Y-57568109D03*
X87068109Y-60431891D03*
X88500000Y-56975000D03*
D12*
X88500000Y-59000000D03*
D11*
X88500000Y-61025000D03*
X89931891Y-57568109D03*
X89931891Y-60431891D03*
X90525000Y-59000000D03*
%TD*%
%TO.C,Tile57*%
X108475000Y-59000000D03*
X109068109Y-57568109D03*
X109068109Y-60431891D03*
X110500000Y-56975000D03*
D12*
X110500000Y-59000000D03*
D11*
X110500000Y-61025000D03*
X111931891Y-57568109D03*
X111931891Y-60431891D03*
X112525000Y-59000000D03*
%TD*%
%TO.C,Tile14*%
X199975000Y-59000000D03*
X200568109Y-57568109D03*
X200568109Y-60431891D03*
X202000000Y-56975000D03*
D12*
X202000000Y-59000000D03*
D11*
X202000000Y-61025000D03*
X203431891Y-57568109D03*
X203431891Y-60431891D03*
X204025000Y-59000000D03*
%TD*%
D15*
%TO.C,J32*%
X212320000Y-139380000D03*
D16*
X212320000Y-141920000D03*
X212320000Y-144460000D03*
%TD*%
D24*
%TO.C,J13*%
X46500000Y-115000000D03*
D25*
X48000000Y-113525000D03*
D24*
X49500000Y-115000000D03*
D25*
X48000000Y-116475000D03*
%TD*%
D24*
%TO.C,J11*%
X46500000Y-125000000D03*
D25*
X48000000Y-123525000D03*
D24*
X49500000Y-125000000D03*
D25*
X48000000Y-126475000D03*
%TD*%
D24*
%TO.C,J5*%
X46500000Y-75000000D03*
D25*
X48000000Y-73525000D03*
D24*
X49500000Y-75000000D03*
D25*
X48000000Y-76475000D03*
%TD*%
D32*
%TO.C,R3*%
X47417500Y-55280000D03*
X50342500Y-55280000D03*
%TD*%
D15*
%TO.C,J29*%
X212250000Y-90530000D03*
D16*
X212250000Y-93070000D03*
X212250000Y-95610000D03*
%TD*%
D23*
%TO.C,C3*%
X229390000Y-101552500D03*
X229390000Y-98427500D03*
%TD*%
D11*
%TO.C,Tile28*%
X177975000Y-89500000D03*
X178568109Y-88068109D03*
X178568109Y-90931891D03*
X180000000Y-87475000D03*
D12*
X180000000Y-89500000D03*
D11*
X180000000Y-91525000D03*
X181431891Y-88068109D03*
X181431891Y-90931891D03*
X182025000Y-89500000D03*
%TD*%
%TO.C,Tile58*%
X147475000Y-89500000D03*
X148068109Y-88068109D03*
X148068109Y-90931891D03*
X149500000Y-87475000D03*
D12*
X149500000Y-89500000D03*
D11*
X149500000Y-91525000D03*
X150931891Y-88068109D03*
X150931891Y-90931891D03*
X151525000Y-89500000D03*
%TD*%
D23*
%TO.C,C2*%
X214300000Y-113775000D03*
X214300000Y-116900000D03*
%TD*%
D11*
%TO.C,Tile30*%
X169475000Y-120000000D03*
X170068109Y-118568109D03*
X170068109Y-121431891D03*
X171500000Y-117975000D03*
D12*
X171500000Y-120000000D03*
D11*
X171500000Y-122025000D03*
X172931891Y-118568109D03*
X172931891Y-121431891D03*
X173525000Y-120000000D03*
%TD*%
%TO.C,Tile40*%
X169475000Y-59000000D03*
X170068109Y-57568109D03*
X170068109Y-60431891D03*
X171500000Y-56975000D03*
D12*
X171500000Y-59000000D03*
D11*
X171500000Y-61025000D03*
X172931891Y-57568109D03*
X172931891Y-60431891D03*
X173525000Y-59000000D03*
%TD*%
D15*
%TO.C,J26*%
X224450000Y-114120000D03*
D16*
X224450000Y-116660000D03*
X224450000Y-119200000D03*
%TD*%
D27*
%TO.C,J23*%
X238180000Y-80470000D03*
X238180000Y-96070000D03*
D28*
X238180000Y-84770000D03*
D29*
X238180000Y-88270000D03*
X238180000Y-91770000D03*
%TD*%
D13*
%TO.C,R7*%
X207700000Y-80702500D03*
X207700000Y-77777500D03*
%TD*%
D11*
%TO.C,Tile48*%
X108475000Y-81000000D03*
X109068109Y-79568109D03*
X109068109Y-82431891D03*
X110500000Y-78975000D03*
D12*
X110500000Y-81000000D03*
D11*
X110500000Y-83025000D03*
X111931891Y-79568109D03*
X111931891Y-82431891D03*
X112525000Y-81000000D03*
%TD*%
D30*
%TO.C,U4*%
X220575000Y-138795000D03*
D31*
X229725000Y-141335000D03*
D30*
X220575000Y-143875000D03*
%TD*%
D11*
%TO.C,Tile52*%
X116975000Y-81000000D03*
X117568109Y-79568109D03*
X117568109Y-82431891D03*
X119000000Y-78975000D03*
D12*
X119000000Y-81000000D03*
D11*
X119000000Y-83025000D03*
X120431891Y-79568109D03*
X120431891Y-82431891D03*
X121025000Y-81000000D03*
%TD*%
D15*
%TO.C,J18*%
X231240000Y-122750000D03*
D16*
X231240000Y-125290000D03*
X231240000Y-127830000D03*
%TD*%
D11*
%TO.C,Tile56*%
X86475000Y-89500000D03*
X87068109Y-88068109D03*
X87068109Y-90931891D03*
X88500000Y-87475000D03*
D12*
X88500000Y-89500000D03*
D11*
X88500000Y-91525000D03*
X89931891Y-88068109D03*
X89931891Y-90931891D03*
X90525000Y-89500000D03*
%TD*%
%TO.C,Tile13*%
X199975000Y-111500000D03*
X200568109Y-110068109D03*
X200568109Y-112931891D03*
X202000000Y-109475000D03*
D12*
X202000000Y-111500000D03*
D11*
X202000000Y-113525000D03*
X203431891Y-110068109D03*
X203431891Y-112931891D03*
X204025000Y-111500000D03*
%TD*%
D40*
%TO.C,C13*%
X211675000Y-113780000D03*
X211675000Y-116905000D03*
%TD*%
D11*
%TO.C,Tile20*%
X199975000Y-81000000D03*
X200568109Y-79568109D03*
X200568109Y-82431891D03*
X202000000Y-78975000D03*
D12*
X202000000Y-81000000D03*
D11*
X202000000Y-83025000D03*
X203431891Y-79568109D03*
X203431891Y-82431891D03*
X204025000Y-81000000D03*
%TD*%
D13*
%TO.C,R10*%
X216800000Y-94932500D03*
X216800000Y-92007500D03*
%TD*%
D15*
%TO.C,J25*%
X224460000Y-79140000D03*
D16*
X224460000Y-81680000D03*
X224460000Y-84220000D03*
%TD*%
D32*
%TO.C,R2*%
X48537500Y-145000000D03*
X51462500Y-145000000D03*
%TD*%
D11*
%TO.C,Tile17*%
X177975000Y-142000000D03*
X178568109Y-140568109D03*
X178568109Y-143431891D03*
X180000000Y-139975000D03*
D12*
X180000000Y-142000000D03*
D11*
X180000000Y-144025000D03*
X181431891Y-140568109D03*
X181431891Y-143431891D03*
X182025000Y-142000000D03*
%TD*%
D20*
%TO.C,J12*%
X42700000Y-125000000D03*
D21*
X42500000Y-129250000D03*
D22*
X42500000Y-120750000D03*
%TD*%
D11*
%TO.C,Tile24*%
X169475000Y-142000000D03*
X170068109Y-140568109D03*
X170068109Y-143431891D03*
X171500000Y-139975000D03*
D12*
X171500000Y-142000000D03*
D11*
X171500000Y-144025000D03*
X172931891Y-140568109D03*
X172931891Y-143431891D03*
X173525000Y-142000000D03*
%TD*%
%TO.C,Tile38*%
X86475000Y-120000000D03*
X87068109Y-118568109D03*
X87068109Y-121431891D03*
X88500000Y-117975000D03*
D12*
X88500000Y-120000000D03*
D11*
X88500000Y-122025000D03*
X89931891Y-118568109D03*
X89931891Y-121431891D03*
X90525000Y-120000000D03*
%TD*%
D26*
%TO.C,R8*%
X210262500Y-87270000D03*
X207337500Y-87270000D03*
%TD*%
D41*
%TO.C,C15*%
X227262500Y-131100000D03*
X224137500Y-131100000D03*
%TD*%
D24*
%TO.C,J3*%
X46500000Y-85000000D03*
D25*
X48000000Y-83525000D03*
D24*
X49500000Y-85000000D03*
D25*
X48000000Y-86475000D03*
%TD*%
D13*
%TO.C,R13*%
X207580000Y-129562500D03*
X207580000Y-126637500D03*
%TD*%
D42*
%TO.C,X1*%
X256430000Y-55550000D03*
X256430000Y-144450000D03*
D43*
X246270000Y-73330000D03*
X246270000Y-83490000D03*
X246270000Y-93650000D03*
X246270000Y-103810000D03*
X246270000Y-113970000D03*
X246270000Y-124130000D03*
X246270000Y-134290000D03*
X251350000Y-68250000D03*
X251350000Y-78410000D03*
X251350000Y-88570000D03*
X251350000Y-98730000D03*
X251350000Y-108890000D03*
X251350000Y-119050000D03*
X251350000Y-129210000D03*
X251350000Y-139370000D03*
%TD*%
D11*
%TO.C,Tile36*%
X86475000Y-142000000D03*
X87068109Y-140568109D03*
X87068109Y-143431891D03*
X88500000Y-139975000D03*
D12*
X88500000Y-142000000D03*
D11*
X88500000Y-144025000D03*
X89931891Y-140568109D03*
X89931891Y-143431891D03*
X90525000Y-142000000D03*
%TD*%
%TO.C,Tile2*%
X77975000Y-111500000D03*
X78568109Y-110068109D03*
X78568109Y-112931891D03*
X80000000Y-109475000D03*
D12*
X80000000Y-111500000D03*
D11*
X80000000Y-113525000D03*
X81431891Y-110068109D03*
X81431891Y-112931891D03*
X82025000Y-111500000D03*
%TD*%
%TO.C,Tile55*%
X199975000Y-142000000D03*
X200568109Y-140568109D03*
X200568109Y-143431891D03*
X202000000Y-139975000D03*
D12*
X202000000Y-142000000D03*
D11*
X202000000Y-144025000D03*
X203431891Y-140568109D03*
X203431891Y-143431891D03*
X204025000Y-142000000D03*
%TD*%
D44*
%TO.C,C4*%
X224237500Y-133900000D03*
X227362500Y-133900000D03*
%TD*%
D11*
%TO.C,Tile10*%
X55975000Y-142000000D03*
X56568109Y-140568109D03*
X56568109Y-143431891D03*
X58000000Y-139975000D03*
D12*
X58000000Y-142000000D03*
D11*
X58000000Y-144025000D03*
X59431891Y-140568109D03*
X59431891Y-143431891D03*
X60025000Y-142000000D03*
%TD*%
%TO.C,Tile31*%
X116975000Y-120000000D03*
X117568109Y-118568109D03*
X117568109Y-121431891D03*
X119000000Y-117975000D03*
D12*
X119000000Y-120000000D03*
D11*
X119000000Y-122025000D03*
X120431891Y-118568109D03*
X120431891Y-121431891D03*
X121025000Y-120000000D03*
%TD*%
%TO.C,Tile25*%
X199975000Y-120000000D03*
X200568109Y-118568109D03*
X200568109Y-121431891D03*
X202000000Y-117975000D03*
D12*
X202000000Y-120000000D03*
D11*
X202000000Y-122025000D03*
X203431891Y-118568109D03*
X203431891Y-121431891D03*
X204025000Y-120000000D03*
%TD*%
D32*
%TO.C,R6*%
X211917500Y-87580000D03*
X214842500Y-87580000D03*
%TD*%
D40*
%TO.C,C9*%
X211100000Y-64737500D03*
X211100000Y-67862500D03*
%TD*%
D23*
%TO.C,C12*%
X207660000Y-97782500D03*
X207660000Y-94657500D03*
%TD*%
D40*
%TO.C,C10*%
X226840000Y-101542500D03*
X226840000Y-98417500D03*
%TD*%
D11*
%TO.C,Tile9*%
X77975000Y-81000000D03*
X78568109Y-79568109D03*
X78568109Y-82431891D03*
X80000000Y-78975000D03*
D12*
X80000000Y-81000000D03*
D11*
X80000000Y-83025000D03*
X81431891Y-79568109D03*
X81431891Y-82431891D03*
X82025000Y-81000000D03*
%TD*%
M02*
