%TF.GenerationSoftware,KiCad,Pcbnew,7.0.10*%
%TF.CreationDate,2024-02-16T20:10:34+00:00*%
%TF.ProjectId,Template-3U220mm,54656d70-6c61-4746-952d-33553232306d,0.1*%
%TF.SameCoordinates,Original*%
%TF.FileFunction,Legend,Bot*%
%TF.FilePolarity,Positive*%
%FSLAX46Y46*%
G04 Gerber Fmt 4.6, Leading zero omitted, Abs format (unit mm)*
G04 Created by KiCad (PCBNEW 7.0.10) date 2024-02-16 20:10:34*
%MOMM*%
%LPD*%
G01*
G04 APERTURE LIST*
%ADD10C,0.120000*%
%ADD11C,0.150000*%
G04 APERTURE END LIST*
D10*
X46350000Y-62850000D02*
X54100000Y-62850000D01*
X54100000Y-137850000D01*
X46350000Y-137850000D01*
X46350000Y-62850000D01*
G36*
X46350000Y-62850000D02*
G01*
X54100000Y-62850000D01*
X54100000Y-137850000D01*
X46350000Y-137850000D01*
X46350000Y-62850000D01*
G37*
D11*
X220720357Y-60734819D02*
X221053690Y-60258628D01*
X221291785Y-60734819D02*
X221291785Y-59734819D01*
X221291785Y-59734819D02*
X220910833Y-59734819D01*
X220910833Y-59734819D02*
X220815595Y-59782438D01*
X220815595Y-59782438D02*
X220767976Y-59830057D01*
X220767976Y-59830057D02*
X220720357Y-59925295D01*
X220720357Y-59925295D02*
X220720357Y-60068152D01*
X220720357Y-60068152D02*
X220767976Y-60163390D01*
X220767976Y-60163390D02*
X220815595Y-60211009D01*
X220815595Y-60211009D02*
X220910833Y-60258628D01*
X220910833Y-60258628D02*
X221291785Y-60258628D01*
X220339404Y-59830057D02*
X220291785Y-59782438D01*
X220291785Y-59782438D02*
X220196547Y-59734819D01*
X220196547Y-59734819D02*
X219958452Y-59734819D01*
X219958452Y-59734819D02*
X219863214Y-59782438D01*
X219863214Y-59782438D02*
X219815595Y-59830057D01*
X219815595Y-59830057D02*
X219767976Y-59925295D01*
X219767976Y-59925295D02*
X219767976Y-60020533D01*
X219767976Y-60020533D02*
X219815595Y-60163390D01*
X219815595Y-60163390D02*
X220387023Y-60734819D01*
X220387023Y-60734819D02*
X219767976Y-60734819D01*
X219434642Y-59734819D02*
X218815595Y-59734819D01*
X218815595Y-59734819D02*
X219148928Y-60115771D01*
X219148928Y-60115771D02*
X219006071Y-60115771D01*
X219006071Y-60115771D02*
X218910833Y-60163390D01*
X218910833Y-60163390D02*
X218863214Y-60211009D01*
X218863214Y-60211009D02*
X218815595Y-60306247D01*
X218815595Y-60306247D02*
X218815595Y-60544342D01*
X218815595Y-60544342D02*
X218863214Y-60639580D01*
X218863214Y-60639580D02*
X218910833Y-60687200D01*
X218910833Y-60687200D02*
X219006071Y-60734819D01*
X219006071Y-60734819D02*
X219291785Y-60734819D01*
X219291785Y-60734819D02*
X219387023Y-60687200D01*
X219387023Y-60687200D02*
X219434642Y-60639580D01*
X241284580Y-67820833D02*
X241332200Y-67773214D01*
X241332200Y-67773214D02*
X241379819Y-67630357D01*
X241379819Y-67630357D02*
X241379819Y-67535119D01*
X241379819Y-67535119D02*
X241332200Y-67392262D01*
X241332200Y-67392262D02*
X241236961Y-67297024D01*
X241236961Y-67297024D02*
X241141723Y-67249405D01*
X241141723Y-67249405D02*
X240951247Y-67201786D01*
X240951247Y-67201786D02*
X240808390Y-67201786D01*
X240808390Y-67201786D02*
X240617914Y-67249405D01*
X240617914Y-67249405D02*
X240522676Y-67297024D01*
X240522676Y-67297024D02*
X240427438Y-67392262D01*
X240427438Y-67392262D02*
X240379819Y-67535119D01*
X240379819Y-67535119D02*
X240379819Y-67630357D01*
X240379819Y-67630357D02*
X240427438Y-67773214D01*
X240427438Y-67773214D02*
X240475057Y-67820833D01*
X241379819Y-68773214D02*
X241379819Y-68201786D01*
X241379819Y-68487500D02*
X240379819Y-68487500D01*
X240379819Y-68487500D02*
X240522676Y-68392262D01*
X240522676Y-68392262D02*
X240617914Y-68297024D01*
X240617914Y-68297024D02*
X240665533Y-68201786D01*
X220720357Y-56734819D02*
X221053690Y-56258628D01*
X221291785Y-56734819D02*
X221291785Y-55734819D01*
X221291785Y-55734819D02*
X220910833Y-55734819D01*
X220910833Y-55734819D02*
X220815595Y-55782438D01*
X220815595Y-55782438D02*
X220767976Y-55830057D01*
X220767976Y-55830057D02*
X220720357Y-55925295D01*
X220720357Y-55925295D02*
X220720357Y-56068152D01*
X220720357Y-56068152D02*
X220767976Y-56163390D01*
X220767976Y-56163390D02*
X220815595Y-56211009D01*
X220815595Y-56211009D02*
X220910833Y-56258628D01*
X220910833Y-56258628D02*
X221291785Y-56258628D01*
X220339404Y-55830057D02*
X220291785Y-55782438D01*
X220291785Y-55782438D02*
X220196547Y-55734819D01*
X220196547Y-55734819D02*
X219958452Y-55734819D01*
X219958452Y-55734819D02*
X219863214Y-55782438D01*
X219863214Y-55782438D02*
X219815595Y-55830057D01*
X219815595Y-55830057D02*
X219767976Y-55925295D01*
X219767976Y-55925295D02*
X219767976Y-56020533D01*
X219767976Y-56020533D02*
X219815595Y-56163390D01*
X219815595Y-56163390D02*
X220387023Y-56734819D01*
X220387023Y-56734819D02*
X219767976Y-56734819D01*
X218910833Y-56068152D02*
X218910833Y-56734819D01*
X219148928Y-55687200D02*
X219387023Y-56401485D01*
X219387023Y-56401485D02*
X218767976Y-56401485D01*
X221242857Y-126234819D02*
X221576190Y-125758628D01*
X221814285Y-126234819D02*
X221814285Y-125234819D01*
X221814285Y-125234819D02*
X221433333Y-125234819D01*
X221433333Y-125234819D02*
X221338095Y-125282438D01*
X221338095Y-125282438D02*
X221290476Y-125330057D01*
X221290476Y-125330057D02*
X221242857Y-125425295D01*
X221242857Y-125425295D02*
X221242857Y-125568152D01*
X221242857Y-125568152D02*
X221290476Y-125663390D01*
X221290476Y-125663390D02*
X221338095Y-125711009D01*
X221338095Y-125711009D02*
X221433333Y-125758628D01*
X221433333Y-125758628D02*
X221814285Y-125758628D01*
X220290476Y-126234819D02*
X220861904Y-126234819D01*
X220576190Y-126234819D02*
X220576190Y-125234819D01*
X220576190Y-125234819D02*
X220671428Y-125377676D01*
X220671428Y-125377676D02*
X220766666Y-125472914D01*
X220766666Y-125472914D02*
X220861904Y-125520533D01*
X219719047Y-125663390D02*
X219814285Y-125615771D01*
X219814285Y-125615771D02*
X219861904Y-125568152D01*
X219861904Y-125568152D02*
X219909523Y-125472914D01*
X219909523Y-125472914D02*
X219909523Y-125425295D01*
X219909523Y-125425295D02*
X219861904Y-125330057D01*
X219861904Y-125330057D02*
X219814285Y-125282438D01*
X219814285Y-125282438D02*
X219719047Y-125234819D01*
X219719047Y-125234819D02*
X219528571Y-125234819D01*
X219528571Y-125234819D02*
X219433333Y-125282438D01*
X219433333Y-125282438D02*
X219385714Y-125330057D01*
X219385714Y-125330057D02*
X219338095Y-125425295D01*
X219338095Y-125425295D02*
X219338095Y-125472914D01*
X219338095Y-125472914D02*
X219385714Y-125568152D01*
X219385714Y-125568152D02*
X219433333Y-125615771D01*
X219433333Y-125615771D02*
X219528571Y-125663390D01*
X219528571Y-125663390D02*
X219719047Y-125663390D01*
X219719047Y-125663390D02*
X219814285Y-125711009D01*
X219814285Y-125711009D02*
X219861904Y-125758628D01*
X219861904Y-125758628D02*
X219909523Y-125853866D01*
X219909523Y-125853866D02*
X219909523Y-126044342D01*
X219909523Y-126044342D02*
X219861904Y-126139580D01*
X219861904Y-126139580D02*
X219814285Y-126187200D01*
X219814285Y-126187200D02*
X219719047Y-126234819D01*
X219719047Y-126234819D02*
X219528571Y-126234819D01*
X219528571Y-126234819D02*
X219433333Y-126187200D01*
X219433333Y-126187200D02*
X219385714Y-126139580D01*
X219385714Y-126139580D02*
X219338095Y-126044342D01*
X219338095Y-126044342D02*
X219338095Y-125853866D01*
X219338095Y-125853866D02*
X219385714Y-125758628D01*
X219385714Y-125758628D02*
X219433333Y-125711009D01*
X219433333Y-125711009D02*
X219528571Y-125663390D01*
X216282857Y-118164819D02*
X216616190Y-117688628D01*
X216854285Y-118164819D02*
X216854285Y-117164819D01*
X216854285Y-117164819D02*
X216473333Y-117164819D01*
X216473333Y-117164819D02*
X216378095Y-117212438D01*
X216378095Y-117212438D02*
X216330476Y-117260057D01*
X216330476Y-117260057D02*
X216282857Y-117355295D01*
X216282857Y-117355295D02*
X216282857Y-117498152D01*
X216282857Y-117498152D02*
X216330476Y-117593390D01*
X216330476Y-117593390D02*
X216378095Y-117641009D01*
X216378095Y-117641009D02*
X216473333Y-117688628D01*
X216473333Y-117688628D02*
X216854285Y-117688628D01*
X215901904Y-117260057D02*
X215854285Y-117212438D01*
X215854285Y-117212438D02*
X215759047Y-117164819D01*
X215759047Y-117164819D02*
X215520952Y-117164819D01*
X215520952Y-117164819D02*
X215425714Y-117212438D01*
X215425714Y-117212438D02*
X215378095Y-117260057D01*
X215378095Y-117260057D02*
X215330476Y-117355295D01*
X215330476Y-117355295D02*
X215330476Y-117450533D01*
X215330476Y-117450533D02*
X215378095Y-117593390D01*
X215378095Y-117593390D02*
X215949523Y-118164819D01*
X215949523Y-118164819D02*
X215330476Y-118164819D01*
X214711428Y-117164819D02*
X214616190Y-117164819D01*
X214616190Y-117164819D02*
X214520952Y-117212438D01*
X214520952Y-117212438D02*
X214473333Y-117260057D01*
X214473333Y-117260057D02*
X214425714Y-117355295D01*
X214425714Y-117355295D02*
X214378095Y-117545771D01*
X214378095Y-117545771D02*
X214378095Y-117783866D01*
X214378095Y-117783866D02*
X214425714Y-117974342D01*
X214425714Y-117974342D02*
X214473333Y-118069580D01*
X214473333Y-118069580D02*
X214520952Y-118117200D01*
X214520952Y-118117200D02*
X214616190Y-118164819D01*
X214616190Y-118164819D02*
X214711428Y-118164819D01*
X214711428Y-118164819D02*
X214806666Y-118117200D01*
X214806666Y-118117200D02*
X214854285Y-118069580D01*
X214854285Y-118069580D02*
X214901904Y-117974342D01*
X214901904Y-117974342D02*
X214949523Y-117783866D01*
X214949523Y-117783866D02*
X214949523Y-117545771D01*
X214949523Y-117545771D02*
X214901904Y-117355295D01*
X214901904Y-117355295D02*
X214854285Y-117260057D01*
X214854285Y-117260057D02*
X214806666Y-117212438D01*
X214806666Y-117212438D02*
X214711428Y-117164819D01*
X241284580Y-62858333D02*
X241332200Y-62810714D01*
X241332200Y-62810714D02*
X241379819Y-62667857D01*
X241379819Y-62667857D02*
X241379819Y-62572619D01*
X241379819Y-62572619D02*
X241332200Y-62429762D01*
X241332200Y-62429762D02*
X241236961Y-62334524D01*
X241236961Y-62334524D02*
X241141723Y-62286905D01*
X241141723Y-62286905D02*
X240951247Y-62239286D01*
X240951247Y-62239286D02*
X240808390Y-62239286D01*
X240808390Y-62239286D02*
X240617914Y-62286905D01*
X240617914Y-62286905D02*
X240522676Y-62334524D01*
X240522676Y-62334524D02*
X240427438Y-62429762D01*
X240427438Y-62429762D02*
X240379819Y-62572619D01*
X240379819Y-62572619D02*
X240379819Y-62667857D01*
X240379819Y-62667857D02*
X240427438Y-62810714D01*
X240427438Y-62810714D02*
X240475057Y-62858333D01*
X240379819Y-63763095D02*
X240379819Y-63286905D01*
X240379819Y-63286905D02*
X240856009Y-63239286D01*
X240856009Y-63239286D02*
X240808390Y-63286905D01*
X240808390Y-63286905D02*
X240760771Y-63382143D01*
X240760771Y-63382143D02*
X240760771Y-63620238D01*
X240760771Y-63620238D02*
X240808390Y-63715476D01*
X240808390Y-63715476D02*
X240856009Y-63763095D01*
X240856009Y-63763095D02*
X240951247Y-63810714D01*
X240951247Y-63810714D02*
X241189342Y-63810714D01*
X241189342Y-63810714D02*
X241284580Y-63763095D01*
X241284580Y-63763095D02*
X241332200Y-63715476D01*
X241332200Y-63715476D02*
X241379819Y-63620238D01*
X241379819Y-63620238D02*
X241379819Y-63382143D01*
X241379819Y-63382143D02*
X241332200Y-63286905D01*
X241332200Y-63286905D02*
X241284580Y-63239286D01*
X217792857Y-111534819D02*
X218126190Y-111058628D01*
X218364285Y-111534819D02*
X218364285Y-110534819D01*
X218364285Y-110534819D02*
X217983333Y-110534819D01*
X217983333Y-110534819D02*
X217888095Y-110582438D01*
X217888095Y-110582438D02*
X217840476Y-110630057D01*
X217840476Y-110630057D02*
X217792857Y-110725295D01*
X217792857Y-110725295D02*
X217792857Y-110868152D01*
X217792857Y-110868152D02*
X217840476Y-110963390D01*
X217840476Y-110963390D02*
X217888095Y-111011009D01*
X217888095Y-111011009D02*
X217983333Y-111058628D01*
X217983333Y-111058628D02*
X218364285Y-111058628D01*
X216840476Y-111534819D02*
X217411904Y-111534819D01*
X217126190Y-111534819D02*
X217126190Y-110534819D01*
X217126190Y-110534819D02*
X217221428Y-110677676D01*
X217221428Y-110677676D02*
X217316666Y-110772914D01*
X217316666Y-110772914D02*
X217411904Y-110820533D01*
X216364285Y-111534819D02*
X216173809Y-111534819D01*
X216173809Y-111534819D02*
X216078571Y-111487200D01*
X216078571Y-111487200D02*
X216030952Y-111439580D01*
X216030952Y-111439580D02*
X215935714Y-111296723D01*
X215935714Y-111296723D02*
X215888095Y-111106247D01*
X215888095Y-111106247D02*
X215888095Y-110725295D01*
X215888095Y-110725295D02*
X215935714Y-110630057D01*
X215935714Y-110630057D02*
X215983333Y-110582438D01*
X215983333Y-110582438D02*
X216078571Y-110534819D01*
X216078571Y-110534819D02*
X216269047Y-110534819D01*
X216269047Y-110534819D02*
X216364285Y-110582438D01*
X216364285Y-110582438D02*
X216411904Y-110630057D01*
X216411904Y-110630057D02*
X216459523Y-110725295D01*
X216459523Y-110725295D02*
X216459523Y-110963390D01*
X216459523Y-110963390D02*
X216411904Y-111058628D01*
X216411904Y-111058628D02*
X216364285Y-111106247D01*
X216364285Y-111106247D02*
X216269047Y-111153866D01*
X216269047Y-111153866D02*
X216078571Y-111153866D01*
X216078571Y-111153866D02*
X215983333Y-111106247D01*
X215983333Y-111106247D02*
X215935714Y-111058628D01*
X215935714Y-111058628D02*
X215888095Y-110963390D01*
X216892857Y-124004819D02*
X217226190Y-123528628D01*
X217464285Y-124004819D02*
X217464285Y-123004819D01*
X217464285Y-123004819D02*
X217083333Y-123004819D01*
X217083333Y-123004819D02*
X216988095Y-123052438D01*
X216988095Y-123052438D02*
X216940476Y-123100057D01*
X216940476Y-123100057D02*
X216892857Y-123195295D01*
X216892857Y-123195295D02*
X216892857Y-123338152D01*
X216892857Y-123338152D02*
X216940476Y-123433390D01*
X216940476Y-123433390D02*
X216988095Y-123481009D01*
X216988095Y-123481009D02*
X217083333Y-123528628D01*
X217083333Y-123528628D02*
X217464285Y-123528628D01*
X215940476Y-124004819D02*
X216511904Y-124004819D01*
X216226190Y-124004819D02*
X216226190Y-123004819D01*
X216226190Y-123004819D02*
X216321428Y-123147676D01*
X216321428Y-123147676D02*
X216416666Y-123242914D01*
X216416666Y-123242914D02*
X216511904Y-123290533D01*
X215607142Y-123004819D02*
X214940476Y-123004819D01*
X214940476Y-123004819D02*
X215369047Y-124004819D01*
X220642857Y-77634819D02*
X220976190Y-77158628D01*
X221214285Y-77634819D02*
X221214285Y-76634819D01*
X221214285Y-76634819D02*
X220833333Y-76634819D01*
X220833333Y-76634819D02*
X220738095Y-76682438D01*
X220738095Y-76682438D02*
X220690476Y-76730057D01*
X220690476Y-76730057D02*
X220642857Y-76825295D01*
X220642857Y-76825295D02*
X220642857Y-76968152D01*
X220642857Y-76968152D02*
X220690476Y-77063390D01*
X220690476Y-77063390D02*
X220738095Y-77111009D01*
X220738095Y-77111009D02*
X220833333Y-77158628D01*
X220833333Y-77158628D02*
X221214285Y-77158628D01*
X220261904Y-76730057D02*
X220214285Y-76682438D01*
X220214285Y-76682438D02*
X220119047Y-76634819D01*
X220119047Y-76634819D02*
X219880952Y-76634819D01*
X219880952Y-76634819D02*
X219785714Y-76682438D01*
X219785714Y-76682438D02*
X219738095Y-76730057D01*
X219738095Y-76730057D02*
X219690476Y-76825295D01*
X219690476Y-76825295D02*
X219690476Y-76920533D01*
X219690476Y-76920533D02*
X219738095Y-77063390D01*
X219738095Y-77063390D02*
X220309523Y-77634819D01*
X220309523Y-77634819D02*
X219690476Y-77634819D01*
X218738095Y-77634819D02*
X219309523Y-77634819D01*
X219023809Y-77634819D02*
X219023809Y-76634819D01*
X219023809Y-76634819D02*
X219119047Y-76777676D01*
X219119047Y-76777676D02*
X219214285Y-76872914D01*
X219214285Y-76872914D02*
X219309523Y-76920533D01*
X223139580Y-111563333D02*
X223187200Y-111515714D01*
X223187200Y-111515714D02*
X223234819Y-111372857D01*
X223234819Y-111372857D02*
X223234819Y-111277619D01*
X223234819Y-111277619D02*
X223187200Y-111134762D01*
X223187200Y-111134762D02*
X223091961Y-111039524D01*
X223091961Y-111039524D02*
X222996723Y-110991905D01*
X222996723Y-110991905D02*
X222806247Y-110944286D01*
X222806247Y-110944286D02*
X222663390Y-110944286D01*
X222663390Y-110944286D02*
X222472914Y-110991905D01*
X222472914Y-110991905D02*
X222377676Y-111039524D01*
X222377676Y-111039524D02*
X222282438Y-111134762D01*
X222282438Y-111134762D02*
X222234819Y-111277619D01*
X222234819Y-111277619D02*
X222234819Y-111372857D01*
X222234819Y-111372857D02*
X222282438Y-111515714D01*
X222282438Y-111515714D02*
X222330057Y-111563333D01*
X222663390Y-112134762D02*
X222615771Y-112039524D01*
X222615771Y-112039524D02*
X222568152Y-111991905D01*
X222568152Y-111991905D02*
X222472914Y-111944286D01*
X222472914Y-111944286D02*
X222425295Y-111944286D01*
X222425295Y-111944286D02*
X222330057Y-111991905D01*
X222330057Y-111991905D02*
X222282438Y-112039524D01*
X222282438Y-112039524D02*
X222234819Y-112134762D01*
X222234819Y-112134762D02*
X222234819Y-112325238D01*
X222234819Y-112325238D02*
X222282438Y-112420476D01*
X222282438Y-112420476D02*
X222330057Y-112468095D01*
X222330057Y-112468095D02*
X222425295Y-112515714D01*
X222425295Y-112515714D02*
X222472914Y-112515714D01*
X222472914Y-112515714D02*
X222568152Y-112468095D01*
X222568152Y-112468095D02*
X222615771Y-112420476D01*
X222615771Y-112420476D02*
X222663390Y-112325238D01*
X222663390Y-112325238D02*
X222663390Y-112134762D01*
X222663390Y-112134762D02*
X222711009Y-112039524D01*
X222711009Y-112039524D02*
X222758628Y-111991905D01*
X222758628Y-111991905D02*
X222853866Y-111944286D01*
X222853866Y-111944286D02*
X223044342Y-111944286D01*
X223044342Y-111944286D02*
X223139580Y-111991905D01*
X223139580Y-111991905D02*
X223187200Y-112039524D01*
X223187200Y-112039524D02*
X223234819Y-112134762D01*
X223234819Y-112134762D02*
X223234819Y-112325238D01*
X223234819Y-112325238D02*
X223187200Y-112420476D01*
X223187200Y-112420476D02*
X223139580Y-112468095D01*
X223139580Y-112468095D02*
X223044342Y-112515714D01*
X223044342Y-112515714D02*
X222853866Y-112515714D01*
X222853866Y-112515714D02*
X222758628Y-112468095D01*
X222758628Y-112468095D02*
X222711009Y-112420476D01*
X222711009Y-112420476D02*
X222663390Y-112325238D01*
X220642857Y-81634819D02*
X220976190Y-81158628D01*
X221214285Y-81634819D02*
X221214285Y-80634819D01*
X221214285Y-80634819D02*
X220833333Y-80634819D01*
X220833333Y-80634819D02*
X220738095Y-80682438D01*
X220738095Y-80682438D02*
X220690476Y-80730057D01*
X220690476Y-80730057D02*
X220642857Y-80825295D01*
X220642857Y-80825295D02*
X220642857Y-80968152D01*
X220642857Y-80968152D02*
X220690476Y-81063390D01*
X220690476Y-81063390D02*
X220738095Y-81111009D01*
X220738095Y-81111009D02*
X220833333Y-81158628D01*
X220833333Y-81158628D02*
X221214285Y-81158628D01*
X220261904Y-80730057D02*
X220214285Y-80682438D01*
X220214285Y-80682438D02*
X220119047Y-80634819D01*
X220119047Y-80634819D02*
X219880952Y-80634819D01*
X219880952Y-80634819D02*
X219785714Y-80682438D01*
X219785714Y-80682438D02*
X219738095Y-80730057D01*
X219738095Y-80730057D02*
X219690476Y-80825295D01*
X219690476Y-80825295D02*
X219690476Y-80920533D01*
X219690476Y-80920533D02*
X219738095Y-81063390D01*
X219738095Y-81063390D02*
X220309523Y-81634819D01*
X220309523Y-81634819D02*
X219690476Y-81634819D01*
X219309523Y-80730057D02*
X219261904Y-80682438D01*
X219261904Y-80682438D02*
X219166666Y-80634819D01*
X219166666Y-80634819D02*
X218928571Y-80634819D01*
X218928571Y-80634819D02*
X218833333Y-80682438D01*
X218833333Y-80682438D02*
X218785714Y-80730057D01*
X218785714Y-80730057D02*
X218738095Y-80825295D01*
X218738095Y-80825295D02*
X218738095Y-80920533D01*
X218738095Y-80920533D02*
X218785714Y-81063390D01*
X218785714Y-81063390D02*
X219357142Y-81634819D01*
X219357142Y-81634819D02*
X218738095Y-81634819D01*
X219629580Y-116813333D02*
X219677200Y-116765714D01*
X219677200Y-116765714D02*
X219724819Y-116622857D01*
X219724819Y-116622857D02*
X219724819Y-116527619D01*
X219724819Y-116527619D02*
X219677200Y-116384762D01*
X219677200Y-116384762D02*
X219581961Y-116289524D01*
X219581961Y-116289524D02*
X219486723Y-116241905D01*
X219486723Y-116241905D02*
X219296247Y-116194286D01*
X219296247Y-116194286D02*
X219153390Y-116194286D01*
X219153390Y-116194286D02*
X218962914Y-116241905D01*
X218962914Y-116241905D02*
X218867676Y-116289524D01*
X218867676Y-116289524D02*
X218772438Y-116384762D01*
X218772438Y-116384762D02*
X218724819Y-116527619D01*
X218724819Y-116527619D02*
X218724819Y-116622857D01*
X218724819Y-116622857D02*
X218772438Y-116765714D01*
X218772438Y-116765714D02*
X218820057Y-116813333D01*
X218724819Y-117146667D02*
X218724819Y-117813333D01*
X218724819Y-117813333D02*
X219724819Y-117384762D01*
D10*
%TO.C,J28*%
X240390000Y-102270000D02*
G75*
G03*
X235970000Y-102270000I-2210000J0D01*
G01*
X235970000Y-102270000D02*
G75*
G03*
X240390000Y-102270000I2210000J0D01*
G01*
X240390000Y-117870000D02*
G75*
G03*
X235970000Y-117870000I-2210000J0D01*
G01*
X235970000Y-117870000D02*
G75*
G03*
X240390000Y-117870000I2210000J0D01*
G01*
%TO.C,J19*%
X240387500Y-124070000D02*
G75*
G03*
X235967500Y-124070000I-2210000J0D01*
G01*
X235967500Y-124070000D02*
G75*
G03*
X240387500Y-124070000I2210000J0D01*
G01*
X240387500Y-139670000D02*
G75*
G03*
X235967500Y-139670000I-2210000J0D01*
G01*
X235967500Y-139670000D02*
G75*
G03*
X240387500Y-139670000I2210000J0D01*
G01*
%TO.C,J20*%
X240390000Y-58670000D02*
G75*
G03*
X235970000Y-58670000I-2210000J0D01*
G01*
X235970000Y-58670000D02*
G75*
G03*
X240390000Y-58670000I2210000J0D01*
G01*
X240390000Y-74270000D02*
G75*
G03*
X235970000Y-74270000I-2210000J0D01*
G01*
X235970000Y-74270000D02*
G75*
G03*
X240390000Y-74270000I2210000J0D01*
G01*
%TO.C,J23*%
X240390000Y-80470000D02*
G75*
G03*
X235970000Y-80470000I-2210000J0D01*
G01*
X235970000Y-80470000D02*
G75*
G03*
X240390000Y-80470000I2210000J0D01*
G01*
X240390000Y-96070000D02*
G75*
G03*
X235970000Y-96070000I-2210000J0D01*
G01*
X235970000Y-96070000D02*
G75*
G03*
X240390000Y-96070000I2210000J0D01*
G01*
%TO.C,R23*%
X220804564Y-63010000D02*
X219350436Y-63010000D01*
X220804564Y-61190000D02*
X219350436Y-61190000D01*
%TO.C,C1*%
X243685000Y-67276248D02*
X243685000Y-68698752D01*
X241865000Y-67276248D02*
X241865000Y-68698752D01*
%TO.C,R24*%
X220804564Y-59010000D02*
X219350436Y-59010000D01*
X220804564Y-57190000D02*
X219350436Y-57190000D01*
%TO.C,R18*%
X221327064Y-128510000D02*
X219872936Y-128510000D01*
X221327064Y-126690000D02*
X219872936Y-126690000D01*
%TO.C,D6*%
X45285000Y-117635000D02*
X41400000Y-117635000D01*
X45285000Y-115365000D02*
X45285000Y-117635000D01*
X41400000Y-115365000D02*
X45285000Y-115365000D01*
%TO.C,R20*%
X218177064Y-120485000D02*
X216722936Y-120485000D01*
X218177064Y-118665000D02*
X216722936Y-118665000D01*
%TO.C,D5*%
X40715000Y-112365000D02*
X44600000Y-112365000D01*
X40715000Y-114635000D02*
X40715000Y-112365000D01*
X44600000Y-114635000D02*
X40715000Y-114635000D01*
%TO.C,D1*%
X40715000Y-132365000D02*
X44600000Y-132365000D01*
X40715000Y-134635000D02*
X40715000Y-132365000D01*
X44600000Y-134635000D02*
X40715000Y-134635000D01*
%TO.C,D4*%
X45285000Y-127635000D02*
X41400000Y-127635000D01*
X45285000Y-125365000D02*
X45285000Y-127635000D01*
X41400000Y-125365000D02*
X45285000Y-125365000D01*
%TO.C,D3*%
X40715000Y-122365000D02*
X44600000Y-122365000D01*
X40715000Y-124635000D02*
X40715000Y-122365000D01*
X44600000Y-124635000D02*
X40715000Y-124635000D01*
%TO.C,C5*%
X243685000Y-62313748D02*
X243685000Y-63736252D01*
X241865000Y-62313748D02*
X241865000Y-63736252D01*
%TO.C,R19*%
X217877064Y-113810000D02*
X216422936Y-113810000D01*
X217877064Y-111990000D02*
X216422936Y-111990000D01*
%TO.C,R17*%
X221327064Y-124185000D02*
X219872936Y-124185000D01*
X221327064Y-122365000D02*
X219872936Y-122365000D01*
%TO.C,D7*%
X45285000Y-107635000D02*
X41400000Y-107635000D01*
X45285000Y-105365000D02*
X45285000Y-107635000D01*
X41400000Y-105365000D02*
X45285000Y-105365000D01*
%TO.C,D2*%
X45285000Y-137635000D02*
X41400000Y-137635000D01*
X45285000Y-135365000D02*
X45285000Y-137635000D01*
X41400000Y-135365000D02*
X45285000Y-135365000D01*
%TO.C,R21*%
X220727064Y-79910000D02*
X219272936Y-79910000D01*
X220727064Y-78090000D02*
X219272936Y-78090000D01*
%TO.C,D8*%
X40715000Y-102365000D02*
X44600000Y-102365000D01*
X40715000Y-104635000D02*
X40715000Y-102365000D01*
X44600000Y-104635000D02*
X40715000Y-104635000D01*
%TO.C,C8*%
X220090000Y-114961252D02*
X220090000Y-113538748D01*
X221910000Y-114961252D02*
X221910000Y-113538748D01*
%TO.C,R22*%
X220727064Y-83910000D02*
X219272936Y-83910000D01*
X220727064Y-82090000D02*
X219272936Y-82090000D01*
%TO.C,C7*%
X220090000Y-119961252D02*
X220090000Y-118538748D01*
X221910000Y-119961252D02*
X221910000Y-118538748D01*
%TD*%
M02*
