%TF.GenerationSoftware,KiCad,Pcbnew,7.0.10*%
%TF.CreationDate,2024-02-16T20:10:35+00:00*%
%TF.ProjectId,Template-3U220mm,54656d70-6c61-4746-952d-33553232306d,0.1*%
%TF.SameCoordinates,Original*%
%TF.FileFunction,Profile,NP*%
%FSLAX46Y46*%
G04 Gerber Fmt 4.6, Leading zero omitted, Abs format (unit mm)*
G04 Created by KiCad (PCBNEW 7.0.10) date 2024-02-16 20:10:35*
%MOMM*%
%LPD*%
G01*
G04 APERTURE LIST*
%TA.AperFunction,Profile*%
%ADD10C,0.050000*%
%TD*%
G04 APERTURE END LIST*
D10*
X260000000Y-52000000D02*
X260000000Y-148000000D01*
X186000000Y-117000000D02*
G75*
G03*
X183000000Y-120000000I0J-3000000D01*
G01*
X88500000Y-92500000D02*
G75*
G03*
X85500000Y-95500000I0J-3000000D01*
G01*
X155500000Y-56000000D02*
G75*
G03*
X152500000Y-59000000I0J-3000000D01*
G01*
X140250000Y-150000000D02*
X150250000Y-150000000D01*
X155499980Y-145000000D02*
X165500000Y-145000000D01*
X202000001Y-139000001D02*
G75*
G03*
X205000001Y-136000001I-1J3000001D01*
G01*
X180000000Y-123000000D02*
G75*
G03*
X177000000Y-126000000I0J-3000000D01*
G01*
X174500000Y-126000000D02*
G75*
G03*
X171500000Y-123000000I-3000000J0D01*
G01*
X85499920Y-74999980D02*
G75*
G03*
X88499980Y-77999980I3000080J80D01*
G01*
X171500001Y-139000001D02*
G75*
G03*
X174500001Y-136000001I-1J3000001D01*
G01*
X138000001Y-119999999D02*
G75*
G03*
X135000001Y-116999999I-3000001J-1D01*
G01*
X144000000Y-65000000D02*
G75*
G03*
X141000000Y-62000000I-3000000J0D01*
G01*
X205000000Y-65000000D02*
G75*
G03*
X202000000Y-62000000I-3000000J0D01*
G01*
X94500000Y-117000000D02*
X104500001Y-116999999D01*
X171500000Y-139000000D02*
G75*
G03*
X168500000Y-142000000I0J-3000000D01*
G01*
X107540000Y-50000000D02*
X140250000Y-50000000D01*
X122000000Y-81000000D02*
G75*
G03*
X119000000Y-78000000I-3000000J0D01*
G01*
X202000000Y-108500000D02*
G75*
G03*
X199000000Y-111500000I0J-3000000D01*
G01*
X94499980Y-145000000D02*
X104500000Y-145000000D01*
X124999980Y-145000000D02*
X135000000Y-145000000D01*
X113500000Y-95500000D02*
X113500001Y-105500001D01*
X168500000Y-120000000D02*
G75*
G03*
X171500000Y-123000000I3000000J0D01*
G01*
X138000001Y-89499999D02*
G75*
G03*
X135000001Y-86499999I-3000001J-1D01*
G01*
X113500000Y-126000000D02*
X113500001Y-136000001D01*
X94499980Y-114500000D02*
X104500000Y-114500000D01*
X185999980Y-84000000D02*
X196000000Y-84000000D01*
X152500000Y-111500000D02*
G75*
G03*
X149500000Y-108500000I-3000000J0D01*
G01*
X85500000Y-95500000D02*
X85499980Y-105499980D01*
X110500001Y-139000001D02*
G75*
G03*
X113500001Y-136000001I-1J3000001D01*
G01*
X149500000Y-92500000D02*
G75*
G03*
X146500000Y-95500000I0J-3000000D01*
G01*
X64000000Y-117000000D02*
G75*
G03*
X61000000Y-120000000I0J-3000000D01*
G01*
X168500000Y-89500000D02*
G75*
G03*
X171500000Y-92500000I3000000J0D01*
G01*
X155500000Y-117000000D02*
X165500001Y-116999999D01*
X116000000Y-65000000D02*
X115999980Y-74999980D01*
X61750000Y-50000000D02*
X97540000Y-50000000D01*
X74000000Y-114500000D02*
G75*
G03*
X77000000Y-111500000I0J3000000D01*
G01*
X140250000Y-50000000D02*
X150250000Y-50000000D01*
X77000001Y-58999999D02*
G75*
G03*
X74000001Y-55999999I-3000001J-1D01*
G01*
X202000000Y-78000000D02*
G75*
G03*
X199000000Y-81000000I0J-3000000D01*
G01*
X94500000Y-117000000D02*
G75*
G03*
X91500000Y-120000000I0J-3000000D01*
G01*
X171500000Y-108500000D02*
G75*
G03*
X168500000Y-111500000I0J-3000000D01*
G01*
X104500000Y-84000000D02*
G75*
G03*
X107500000Y-81000000I0J3000000D01*
G01*
X150250000Y-150000000D02*
X257999999Y-149999999D01*
X40000000Y-50000000D02*
X40000000Y-67000000D01*
X91500000Y-111500000D02*
G75*
G03*
X94499980Y-114500000I3000000J0D01*
G01*
X40000000Y-127250000D02*
X40000000Y-67000000D01*
X205000000Y-126000000D02*
G75*
G03*
X202000000Y-123000000I-3000000J0D01*
G01*
X83000000Y-95500000D02*
G75*
G03*
X80000000Y-92500000I-3000000J0D01*
G01*
X150250000Y-50000000D02*
X258000000Y-50000000D01*
X119000000Y-62000000D02*
G75*
G03*
X122000000Y-59000000I0J3000000D01*
G01*
X63999980Y-84000000D02*
X74000000Y-84000000D01*
X177000000Y-65000000D02*
X176999980Y-74999980D01*
X183000000Y-142000000D02*
G75*
G03*
X180000000Y-139000000I-3000000J0D01*
G01*
X110500001Y-108500001D02*
G75*
G03*
X113500001Y-105500001I-1J3000001D01*
G01*
X202000001Y-108500001D02*
G75*
G03*
X205000001Y-105500001I-1J3000001D01*
G01*
X168500001Y-58999999D02*
G75*
G03*
X165500001Y-55999999I-3000001J-1D01*
G01*
X122000000Y-142000000D02*
G75*
G03*
X124999980Y-145000000I3000000J0D01*
G01*
X85499920Y-135999980D02*
G75*
G03*
X88499980Y-138999980I3000080J80D01*
G01*
X152500000Y-111500000D02*
G75*
G03*
X155499980Y-114500000I3000000J0D01*
G01*
X125000000Y-56000000D02*
X135000001Y-55999999D01*
X122000000Y-142000000D02*
G75*
G03*
X119000000Y-139000000I-3000000J0D01*
G01*
X80000000Y-108500000D02*
G75*
G03*
X77000000Y-111500000I0J-3000000D01*
G01*
X149500000Y-62000000D02*
G75*
G03*
X146500000Y-65000000I0J-3000000D01*
G01*
X115999920Y-74999980D02*
G75*
G03*
X118999980Y-77999980I3000080J80D01*
G01*
X180000000Y-92500000D02*
G75*
G03*
X183000000Y-89500000I0J3000000D01*
G01*
X186000000Y-56000000D02*
X196000001Y-55999999D01*
X199000001Y-119999999D02*
G75*
G03*
X196000001Y-116999999I-3000001J-1D01*
G01*
X141000001Y-108500001D02*
G75*
G03*
X144000001Y-105500001I-1J3000001D01*
G01*
X61000000Y-81000000D02*
G75*
G03*
X58000000Y-78000000I-3000000J0D01*
G01*
X85499920Y-105499980D02*
G75*
G03*
X88499980Y-108499980I3000080J80D01*
G01*
X202000000Y-139000000D02*
G75*
G03*
X199000000Y-142000000I0J-3000000D01*
G01*
X58000000Y-92500000D02*
G75*
G03*
X61000000Y-89500000I0J3000000D01*
G01*
X205000000Y-95500000D02*
G75*
G03*
X202000000Y-92500000I-3000000J0D01*
G01*
X83000000Y-126000000D02*
G75*
G03*
X80000000Y-123000000I-3000000J0D01*
G01*
X55000000Y-95500000D02*
X54999980Y-105499980D01*
X113500000Y-65000000D02*
X113500001Y-75000001D01*
X180000000Y-62000000D02*
G75*
G03*
X177000000Y-65000000I0J-3000000D01*
G01*
X122000000Y-111500000D02*
G75*
G03*
X124999980Y-114500000I3000000J0D01*
G01*
X58000000Y-62000000D02*
G75*
G03*
X61000000Y-59000000I0J3000000D01*
G01*
X186000000Y-86500000D02*
X196000001Y-86499999D01*
X138000000Y-89500000D02*
G75*
G03*
X141000000Y-92500000I3000000J0D01*
G01*
X61000000Y-111500000D02*
G75*
G03*
X63999980Y-114500000I3000000J0D01*
G01*
X125000000Y-56000000D02*
G75*
G03*
X122000000Y-59000000I0J-3000000D01*
G01*
X64000000Y-117000000D02*
X74000001Y-116999999D01*
X91500000Y-142000000D02*
G75*
G03*
X88500000Y-139000000I-3000000J0D01*
G01*
X107500000Y-59000000D02*
G75*
G03*
X110500000Y-62000000I3000000J0D01*
G01*
X119000000Y-92500000D02*
G75*
G03*
X122000000Y-89500000I0J3000000D01*
G01*
X83000000Y-126000000D02*
X83000001Y-136000001D01*
X168500001Y-119999999D02*
G75*
G03*
X165500001Y-116999999I-3000001J-1D01*
G01*
X85500000Y-65000000D02*
X85499980Y-74999980D01*
X146500000Y-95500000D02*
X146499980Y-105499980D01*
X77000000Y-89500000D02*
G75*
G03*
X80000000Y-92500000I3000000J0D01*
G01*
X141000001Y-139000001D02*
G75*
G03*
X144000001Y-136000001I-1J3000001D01*
G01*
X196000000Y-145000000D02*
G75*
G03*
X199000000Y-142000000I0J3000000D01*
G01*
X149500000Y-62000000D02*
G75*
G03*
X152500000Y-59000000I0J3000000D01*
G01*
X77000000Y-120000000D02*
G75*
G03*
X80000000Y-123000000I3000000J0D01*
G01*
X64000000Y-56000000D02*
G75*
G03*
X61000000Y-59000000I0J-3000000D01*
G01*
X155500000Y-86500000D02*
X165500001Y-86499999D01*
X155499980Y-84000000D02*
X165500000Y-84000000D01*
X64000000Y-86500000D02*
G75*
G03*
X61000000Y-89500000I0J-3000000D01*
G01*
X113500000Y-65000000D02*
G75*
G03*
X110500000Y-62000000I-3000000J0D01*
G01*
X94500000Y-56000000D02*
G75*
G03*
X91500000Y-59000000I0J-3000000D01*
G01*
X205000000Y-65000000D02*
X205000001Y-75000001D01*
X58000000Y-123000000D02*
G75*
G03*
X55000000Y-126000000I0J-3000000D01*
G01*
X180000000Y-123000000D02*
G75*
G03*
X183000000Y-120000000I0J3000000D01*
G01*
X77000001Y-119999999D02*
G75*
G03*
X74000001Y-116999999I-3000001J-1D01*
G01*
X152500000Y-142000000D02*
G75*
G03*
X155499980Y-145000000I3000000J0D01*
G01*
X77000000Y-59000000D02*
G75*
G03*
X80000000Y-62000000I3000000J0D01*
G01*
X141000000Y-139000000D02*
G75*
G03*
X138000000Y-142000000I0J-3000000D01*
G01*
X125000000Y-117000000D02*
X135000001Y-116999999D01*
X88500000Y-92500000D02*
G75*
G03*
X91500000Y-89500000I0J3000000D01*
G01*
X119000000Y-123000000D02*
G75*
G03*
X116000000Y-126000000I0J-3000000D01*
G01*
X80000000Y-78000000D02*
G75*
G03*
X77000000Y-81000000I0J-3000000D01*
G01*
X180000000Y-62000000D02*
G75*
G03*
X183000000Y-59000000I0J3000000D01*
G01*
X94499980Y-84000000D02*
X104500000Y-84000000D01*
X141000001Y-78000001D02*
G75*
G03*
X144000001Y-75000001I-1J3000001D01*
G01*
X199000000Y-120000000D02*
G75*
G03*
X202000000Y-123000000I3000000J0D01*
G01*
X176999920Y-135999980D02*
G75*
G03*
X179999980Y-138999980I3000080J80D01*
G01*
X168500001Y-89499999D02*
G75*
G03*
X165500001Y-86499999I-3000001J-1D01*
G01*
X144000000Y-95500000D02*
X144000001Y-105500001D01*
X83000000Y-65000000D02*
X83000001Y-75000001D01*
X125000000Y-117000000D02*
G75*
G03*
X122000000Y-120000000I0J-3000000D01*
G01*
X199000001Y-58999999D02*
G75*
G03*
X196000001Y-55999999I-3000001J-1D01*
G01*
X110500000Y-139000000D02*
G75*
G03*
X107500000Y-142000000I0J-3000000D01*
G01*
X91500000Y-81000000D02*
G75*
G03*
X88500000Y-78000000I-3000000J0D01*
G01*
X104500000Y-145000000D02*
G75*
G03*
X107500000Y-142000000I0J3000000D01*
G01*
X260000000Y-52000000D02*
G75*
G03*
X258000000Y-50000000I-2000000J0D01*
G01*
X196000000Y-84000000D02*
G75*
G03*
X199000000Y-81000000I0J3000000D01*
G01*
X144000000Y-95500000D02*
G75*
G03*
X141000000Y-92500000I-3000000J0D01*
G01*
X141000000Y-108500000D02*
G75*
G03*
X138000000Y-111500000I0J-3000000D01*
G01*
X64000000Y-56000000D02*
X74000001Y-55999999D01*
X54999920Y-105499980D02*
G75*
G03*
X57999980Y-108499980I3000080J80D01*
G01*
X54999920Y-74999980D02*
G75*
G03*
X57999980Y-77999980I3000080J80D01*
G01*
X119000000Y-62000000D02*
G75*
G03*
X116000000Y-65000000I0J-3000000D01*
G01*
X94500000Y-56000000D02*
X104500001Y-55999999D01*
X110500000Y-78000000D02*
G75*
G03*
X107500000Y-81000000I0J-3000000D01*
G01*
X205000000Y-95500000D02*
X205000001Y-105500001D01*
X135000000Y-84000000D02*
G75*
G03*
X138000000Y-81000000I0J3000000D01*
G01*
X110500001Y-78000001D02*
G75*
G03*
X113500001Y-75000001I-1J3000001D01*
G01*
X91500000Y-111500000D02*
G75*
G03*
X88500000Y-108500000I-3000000J0D01*
G01*
X149500000Y-123000000D02*
G75*
G03*
X152500000Y-120000000I0J3000000D01*
G01*
X186000000Y-117000000D02*
X196000001Y-116999999D01*
X63999980Y-114500000D02*
X74000000Y-114500000D01*
X113500000Y-95500000D02*
G75*
G03*
X110500000Y-92500000I-3000000J0D01*
G01*
X146500000Y-126000000D02*
X146499980Y-135999980D01*
X174500000Y-65000000D02*
X174500001Y-75000001D01*
X113500000Y-126000000D02*
G75*
G03*
X110500000Y-123000000I-3000000J0D01*
G01*
X80000000Y-139000000D02*
G75*
G03*
X77000000Y-142000000I0J-3000000D01*
G01*
X119000000Y-92500000D02*
G75*
G03*
X116000000Y-95500000I0J-3000000D01*
G01*
X61000000Y-142000000D02*
G75*
G03*
X63999980Y-145000000I3000000J0D01*
G01*
X80000001Y-78000001D02*
G75*
G03*
X83000001Y-75000001I-1J3000001D01*
G01*
X152500000Y-81000000D02*
G75*
G03*
X155499980Y-84000000I3000000J0D01*
G01*
X80000001Y-108500001D02*
G75*
G03*
X83000001Y-105500001I-1J3000001D01*
G01*
X61000000Y-142000000D02*
G75*
G03*
X58000000Y-139000000I-3000000J0D01*
G01*
X59000000Y-150000000D02*
X69000000Y-150000000D01*
X88500000Y-62000000D02*
G75*
G03*
X91500000Y-59000000I0J3000000D01*
G01*
X180000000Y-92500000D02*
G75*
G03*
X177000000Y-95500000I0J-3000000D01*
G01*
X144000000Y-126000000D02*
X144000001Y-136000001D01*
X51750000Y-50000000D02*
X40000000Y-50000000D01*
X155500000Y-86500000D02*
G75*
G03*
X152500000Y-89500000I0J-3000000D01*
G01*
X88500000Y-123000000D02*
G75*
G03*
X91500000Y-120000000I0J3000000D01*
G01*
X176999920Y-74999980D02*
G75*
G03*
X179999980Y-77999980I3000080J80D01*
G01*
X74000000Y-84000000D02*
G75*
G03*
X77000000Y-81000000I0J3000000D01*
G01*
X58000000Y-62000000D02*
G75*
G03*
X55000000Y-65000000I0J-3000000D01*
G01*
X91500000Y-81000000D02*
G75*
G03*
X94499980Y-84000000I3000000J0D01*
G01*
X94500000Y-86500000D02*
X104500001Y-86499999D01*
X88500000Y-123000000D02*
G75*
G03*
X85500000Y-126000000I0J-3000000D01*
G01*
X138000000Y-59000000D02*
G75*
G03*
X141000000Y-62000000I3000000J0D01*
G01*
X107500001Y-119999999D02*
G75*
G03*
X104500001Y-116999999I-3000001J-1D01*
G01*
X61000000Y-81000000D02*
G75*
G03*
X63999980Y-84000000I3000000J0D01*
G01*
X149500000Y-92500000D02*
G75*
G03*
X152500000Y-89500000I0J3000000D01*
G01*
X107500001Y-58999999D02*
G75*
G03*
X104500001Y-55999999I-3000001J-1D01*
G01*
X183000000Y-81000000D02*
G75*
G03*
X180000000Y-78000000I-3000000J0D01*
G01*
X63999980Y-145000000D02*
X74000000Y-145000000D01*
X64000000Y-86500000D02*
X74000001Y-86499999D01*
X116000000Y-126000000D02*
X115999980Y-135999980D01*
X199000001Y-89499999D02*
G75*
G03*
X196000001Y-86499999I-3000001J-1D01*
G01*
X54999920Y-135999980D02*
G75*
G03*
X57999980Y-138999980I3000080J80D01*
G01*
X91500000Y-142000000D02*
G75*
G03*
X94499980Y-145000000I3000000J0D01*
G01*
X174500000Y-126000000D02*
X174500001Y-136000001D01*
X51750000Y-50000000D02*
X61750000Y-50000000D01*
X196000000Y-114500000D02*
G75*
G03*
X199000000Y-111500000I0J3000000D01*
G01*
X104500000Y-114500000D02*
G75*
G03*
X107500000Y-111500000I0J3000000D01*
G01*
X186000000Y-86500000D02*
G75*
G03*
X183000000Y-89500000I0J-3000000D01*
G01*
X88500000Y-62000000D02*
G75*
G03*
X85500000Y-65000000I0J-3000000D01*
G01*
X165500000Y-145000000D02*
G75*
G03*
X168500000Y-142000000I0J3000000D01*
G01*
X183000000Y-142000000D02*
G75*
G03*
X185999980Y-145000000I3000000J0D01*
G01*
X124999980Y-84000000D02*
X135000000Y-84000000D01*
X58000000Y-92500000D02*
G75*
G03*
X55000000Y-95500000I0J-3000000D01*
G01*
X165500000Y-114500000D02*
G75*
G03*
X168500000Y-111500000I0J3000000D01*
G01*
X183000000Y-81000000D02*
G75*
G03*
X185999980Y-84000000I3000000J0D01*
G01*
X77000001Y-89499999D02*
G75*
G03*
X74000001Y-86499999I-3000001J-1D01*
G01*
X135000000Y-114500000D02*
G75*
G03*
X138000000Y-111500000I0J3000000D01*
G01*
X58000000Y-123000000D02*
G75*
G03*
X61000000Y-120000000I0J3000000D01*
G01*
X138000001Y-58999999D02*
G75*
G03*
X135000001Y-55999999I-3000001J-1D01*
G01*
X199000000Y-89500000D02*
G75*
G03*
X202000000Y-92500000I3000000J0D01*
G01*
X149500000Y-123000000D02*
G75*
G03*
X146500000Y-126000000I0J-3000000D01*
G01*
X177000000Y-126000000D02*
X176999980Y-135999980D01*
X83000000Y-95500000D02*
X83000001Y-105500001D01*
X171500001Y-108500001D02*
G75*
G03*
X174500001Y-105500001I-1J3000001D01*
G01*
X138000000Y-120000000D02*
G75*
G03*
X141000000Y-123000000I3000000J0D01*
G01*
X155500000Y-56000000D02*
X165500001Y-55999999D01*
X152500000Y-81000000D02*
G75*
G03*
X149500000Y-78000000I-3000000J0D01*
G01*
X40000000Y-150000000D02*
X40000000Y-127250000D01*
X141000000Y-78000000D02*
G75*
G03*
X138000000Y-81000000I0J-3000000D01*
G01*
X171500001Y-78000001D02*
G75*
G03*
X174500001Y-75000001I-1J3000001D01*
G01*
X83000000Y-65000000D02*
G75*
G03*
X80000000Y-62000000I-3000000J0D01*
G01*
X185999980Y-145000000D02*
X196000000Y-145000000D01*
X115999920Y-105499980D02*
G75*
G03*
X118999980Y-108499980I3000080J80D01*
G01*
X199000000Y-59000000D02*
G75*
G03*
X202000000Y-62000000I3000000J0D01*
G01*
X183000000Y-111500000D02*
G75*
G03*
X180000000Y-108500000I-3000000J0D01*
G01*
X185999980Y-114500000D02*
X196000000Y-114500000D01*
X94500000Y-86500000D02*
G75*
G03*
X91500000Y-89500000I0J-3000000D01*
G01*
X257999999Y-149999999D02*
G75*
G03*
X259999999Y-147999999I1J1999999D01*
G01*
X171500000Y-78000000D02*
G75*
G03*
X168500000Y-81000000I0J-3000000D01*
G01*
X74000000Y-145000000D02*
G75*
G03*
X77000000Y-142000000I0J3000000D01*
G01*
X135000000Y-145000000D02*
G75*
G03*
X138000000Y-142000000I0J3000000D01*
G01*
X59000000Y-150000000D02*
X40000000Y-150000000D01*
X110500000Y-108500000D02*
G75*
G03*
X107500000Y-111500000I0J-3000000D01*
G01*
X97540000Y-50000000D02*
X107540000Y-50000000D01*
X144000000Y-126000000D02*
G75*
G03*
X141000000Y-123000000I-3000000J0D01*
G01*
X107500000Y-120000000D02*
G75*
G03*
X110500000Y-123000000I3000000J0D01*
G01*
X124999980Y-114500000D02*
X135000000Y-114500000D01*
X155499980Y-114500000D02*
X165500000Y-114500000D01*
X122000000Y-111500000D02*
G75*
G03*
X119000000Y-108500000I-3000000J0D01*
G01*
X165500000Y-84000000D02*
G75*
G03*
X168500000Y-81000000I0J3000000D01*
G01*
X125000000Y-86500000D02*
G75*
G03*
X122000000Y-89500000I0J-3000000D01*
G01*
X168500000Y-59000000D02*
G75*
G03*
X171500000Y-62000000I3000000J0D01*
G01*
X205000000Y-126000000D02*
X205000001Y-136000001D01*
X122000000Y-81000000D02*
G75*
G03*
X124999980Y-84000000I3000000J0D01*
G01*
X155500000Y-117000000D02*
G75*
G03*
X152500000Y-120000000I0J-3000000D01*
G01*
X55000000Y-65000000D02*
X54999980Y-74999980D01*
X61000000Y-111500000D02*
G75*
G03*
X58000000Y-108500000I-3000000J0D01*
G01*
X146500000Y-65000000D02*
X146499980Y-74999980D01*
X107500000Y-89500000D02*
G75*
G03*
X110500000Y-92500000I3000000J0D01*
G01*
X107500001Y-89499999D02*
G75*
G03*
X104500001Y-86499999I-3000001J-1D01*
G01*
X176999920Y-105499980D02*
G75*
G03*
X179999980Y-108499980I3000080J80D01*
G01*
X174500000Y-65000000D02*
G75*
G03*
X171500000Y-62000000I-3000000J0D01*
G01*
X69000000Y-150000000D02*
X140250000Y-150000000D01*
X125000000Y-86500000D02*
X135000001Y-86499999D01*
X186000000Y-56000000D02*
G75*
G03*
X183000000Y-59000000I0J-3000000D01*
G01*
X202000001Y-78000001D02*
G75*
G03*
X205000001Y-75000001I-1J3000001D01*
G01*
X85500000Y-126000000D02*
X85499980Y-135999980D01*
X177000000Y-95500000D02*
X176999980Y-105499980D01*
X152500000Y-142000000D02*
G75*
G03*
X149500000Y-139000000I-3000000J0D01*
G01*
X174500000Y-95500000D02*
G75*
G03*
X171500000Y-92500000I-3000000J0D01*
G01*
X183000000Y-111500000D02*
G75*
G03*
X185999980Y-114500000I3000000J0D01*
G01*
X146499920Y-135999980D02*
G75*
G03*
X149499980Y-138999980I3000080J80D01*
G01*
X116000000Y-95500000D02*
X115999980Y-105499980D01*
X115999920Y-135999980D02*
G75*
G03*
X118999980Y-138999980I3000080J80D01*
G01*
X174500000Y-95500000D02*
X174500001Y-105500001D01*
X55000000Y-126000000D02*
X54999980Y-135999980D01*
X144000000Y-65000000D02*
X144000001Y-75000001D01*
X146499920Y-74999980D02*
G75*
G03*
X149499980Y-77999980I3000080J80D01*
G01*
X119000000Y-123000000D02*
G75*
G03*
X122000000Y-120000000I0J3000000D01*
G01*
X146499920Y-105499980D02*
G75*
G03*
X149499980Y-108499980I3000080J80D01*
G01*
X80000001Y-139000001D02*
G75*
G03*
X83000001Y-136000001I-1J3000001D01*
G01*
M02*
