%TF.GenerationSoftware,KiCad,Pcbnew,7.0.10*%
%TF.CreationDate,2024-02-16T20:10:33+00:00*%
%TF.ProjectId,Template-3U220mm,54656d70-6c61-4746-952d-33553232306d,0.1*%
%TF.SameCoordinates,Original*%
%TF.FileFunction,Paste,Top*%
%TF.FilePolarity,Positive*%
%FSLAX46Y46*%
G04 Gerber Fmt 4.6, Leading zero omitted, Abs format (unit mm)*
G04 Created by KiCad (PCBNEW 7.0.10) date 2024-02-16 20:10:33*
%MOMM*%
%LPD*%
G01*
G04 APERTURE LIST*
G04 Aperture macros list*
%AMRoundRect*
0 Rectangle with rounded corners*
0 $1 Rounding radius*
0 $2 $3 $4 $5 $6 $7 $8 $9 X,Y pos of 4 corners*
0 Add a 4 corners polygon primitive as box body*
4,1,4,$2,$3,$4,$5,$6,$7,$8,$9,$2,$3,0*
0 Add four circle primitives for the rounded corners*
1,1,$1+$1,$2,$3*
1,1,$1+$1,$4,$5*
1,1,$1+$1,$6,$7*
1,1,$1+$1,$8,$9*
0 Add four rect primitives between the rounded corners*
20,1,$1+$1,$2,$3,$4,$5,0*
20,1,$1+$1,$4,$5,$6,$7,0*
20,1,$1+$1,$6,$7,$8,$9,0*
20,1,$1+$1,$8,$9,$2,$3,0*%
%AMFreePoly0*
4,1,93,0.006530,2.344911,0.071157,2.344911,0.077575,2.343026,0.084259,2.342849,0.145712,2.323019,0.207708,2.304816,0.213335,2.301199,0.219699,2.299146,0.273087,2.262799,0.327430,2.227875,0.331809,2.222820,0.337338,2.219057,0.378328,2.169135,0.420627,2.120320,0.423405,2.114236,0.427649,2.109068,0.452917,2.049612,0.479746,1.990866,0.480697,1.984248,0.483314,1.978092,
0.490807,1.913930,0.500000,1.850000,0.500000,-1.850000,0.494911,-1.885393,0.494911,-1.921157,0.484834,-1.955473,0.479746,-1.990866,0.464892,-2.023391,0.454816,-2.057708,0.435481,-2.087793,0.420627,-2.120320,0.397209,-2.147345,0.377875,-2.177430,0.350848,-2.200848,0.327430,-2.227875,0.297345,-2.247209,0.270320,-2.270627,0.237793,-2.285481,0.207708,-2.304816,0.173391,-2.314892,
0.140866,-2.329746,0.105473,-2.334834,0.071157,-2.344911,0.035394,-2.344911,0.000000,-2.350000,-2.000000,-2.350000,-2.035394,-2.344911,-2.071157,-2.344911,-2.105473,-2.334834,-2.140866,-2.329746,-2.173391,-2.314892,-2.207708,-2.304816,-2.237793,-2.285481,-2.270320,-2.270627,-2.297345,-2.247209,-2.327430,-2.227875,-2.350848,-2.200848,-2.377875,-2.177430,-2.397209,-2.147345,-2.420627,-2.120320,
-2.435481,-2.087793,-2.454816,-2.057708,-2.464892,-2.023391,-2.479746,-1.990866,-2.484834,-1.955473,-2.494911,-1.921157,-2.494911,-1.885393,-2.500000,-1.850000,-2.500000,1.000000,-2.499048,1.006620,-2.499824,1.013263,-2.488937,1.076938,-2.479746,1.140866,-2.476968,1.146948,-2.475841,1.153542,-2.447458,1.211566,-2.420627,1.270320,-2.416246,1.275375,-2.413308,1.281383,-2.369734,1.329053,
-2.327430,1.377875,-2.321801,1.381491,-2.317291,1.386427,-2.262067,1.419881,-2.207708,1.454816,-2.201287,1.456701,-2.195570,1.460165,-0.195571,2.310165,-0.133159,2.326705,-0.071157,2.344911,-0.064465,2.344911,-0.058005,2.346623,0.006530,2.344911,0.006530,2.344911,$1*%
%AMFreePoly1*
4,1,93,0.064465,2.344911,0.071157,2.344911,0.133164,2.326703,0.195570,2.310165,2.195570,1.460166,2.201290,1.456700,2.207708,1.454816,2.262054,1.419889,2.317291,1.386427,2.321801,1.381491,2.327430,1.377875,2.369734,1.329053,2.413308,1.281383,2.416246,1.275375,2.420627,1.270320,2.447458,1.211566,2.475841,1.153542,2.476968,1.146948,2.479746,1.140866,2.488937,1.076938,
2.499824,1.013263,2.499048,1.006620,2.500000,1.000000,2.500000,-1.850000,2.494911,-1.885393,2.494911,-1.921157,2.484834,-1.955473,2.479746,-1.990866,2.464892,-2.023391,2.454816,-2.057708,2.435481,-2.087793,2.420627,-2.120320,2.397209,-2.147345,2.377875,-2.177430,2.350848,-2.200848,2.327430,-2.227875,2.297345,-2.247209,2.270320,-2.270627,2.237793,-2.285481,2.207708,-2.304816,
2.173391,-2.314892,2.140866,-2.329746,2.105473,-2.334834,2.071157,-2.344911,2.035394,-2.344911,2.000000,-2.350000,0.000000,-2.350000,-0.035394,-2.344911,-0.071157,-2.344911,-0.105473,-2.334834,-0.140866,-2.329746,-0.173391,-2.314892,-0.207708,-2.304816,-0.237793,-2.285481,-0.270320,-2.270627,-0.297345,-2.247209,-0.327430,-2.227875,-0.350848,-2.200848,-0.377875,-2.177430,-0.397209,-2.147345,
-0.420627,-2.120320,-0.435481,-2.087793,-0.454816,-2.057708,-0.464892,-2.023391,-0.479746,-1.990866,-0.484834,-1.955473,-0.494911,-1.921157,-0.494911,-1.885393,-0.500000,-1.850000,-0.500000,1.850000,-0.490807,1.913930,-0.483314,1.978092,-0.480697,1.984248,-0.479746,1.990866,-0.452925,2.049595,-0.427650,2.109068,-0.423404,2.114239,-0.420627,2.120320,-0.378336,2.169125,-0.337338,2.219057,
-0.331809,2.222820,-0.327430,2.227875,-0.273087,2.262799,-0.219699,2.299146,-0.213335,2.301199,-0.207708,2.304816,-0.145719,2.323017,-0.084260,2.342849,-0.077575,2.343026,-0.071157,2.344911,-0.006531,2.344911,0.058005,2.346623,0.064465,2.344911,0.064465,2.344911,$1*%
G04 Aperture macros list end*
%ADD10RoundRect,0.250000X0.625000X-0.312500X0.625000X0.312500X-0.625000X0.312500X-0.625000X-0.312500X0*%
%ADD11RoundRect,0.250000X-0.300000X2.050000X-0.300000X-2.050000X0.300000X-2.050000X0.300000X2.050000X0*%
%ADD12RoundRect,0.250000X-2.375000X2.025000X-2.375000X-2.025000X2.375000X-2.025000X2.375000X2.025000X0*%
%ADD13RoundRect,0.250000X-0.625000X0.312500X-0.625000X-0.312500X0.625000X-0.312500X0.625000X0.312500X0*%
%ADD14RoundRect,0.250000X-2.290000X0.250000X-2.290000X-0.250000X2.290000X-0.250000X2.290000X0.250000X0*%
%ADD15FreePoly0,270.000000*%
%ADD16FreePoly1,270.000000*%
%ADD17RoundRect,0.250000X0.650000X-0.412500X0.650000X0.412500X-0.650000X0.412500X-0.650000X-0.412500X0*%
%ADD18R,1.000000X1.000000*%
%ADD19R,2.200000X1.050000*%
%ADD20RoundRect,0.250000X0.312500X0.625000X-0.312500X0.625000X-0.312500X-0.625000X0.312500X-0.625000X0*%
%ADD21RoundRect,0.250000X-2.050000X-0.300000X2.050000X-0.300000X2.050000X0.300000X-2.050000X0.300000X0*%
%ADD22RoundRect,0.250000X-2.025000X-2.375000X2.025000X-2.375000X2.025000X2.375000X-2.025000X2.375000X0*%
%ADD23RoundRect,0.250000X-0.312500X-0.625000X0.312500X-0.625000X0.312500X0.625000X-0.312500X0.625000X0*%
%ADD24RoundRect,0.250000X-0.650000X0.412500X-0.650000X-0.412500X0.650000X-0.412500X0.650000X0.412500X0*%
%ADD25RoundRect,0.250000X0.412500X0.650000X-0.412500X0.650000X-0.412500X-0.650000X0.412500X-0.650000X0*%
%ADD26RoundRect,0.250000X-0.412500X-0.650000X0.412500X-0.650000X0.412500X0.650000X-0.412500X0.650000X0*%
G04 APERTURE END LIST*
D10*
%TO.C,R12*%
X207580000Y-134122500D03*
X207580000Y-131197500D03*
%TD*%
%TO.C,R16*%
X216880000Y-142337500D03*
X216880000Y-145262500D03*
%TD*%
D11*
%TO.C,U2*%
X217700000Y-71870000D03*
D12*
X217935000Y-78595000D03*
X212385000Y-78595000D03*
X217935000Y-83445000D03*
X212385000Y-83445000D03*
D11*
X212620000Y-71870000D03*
%TD*%
D13*
%TO.C,R9*%
X216790000Y-87437500D03*
X216790000Y-90362500D03*
%TD*%
D14*
%TO.C,J4*%
X42700000Y-85000000D03*
D15*
X42500000Y-89250000D03*
D16*
X42500000Y-80750000D03*
%TD*%
D17*
%TO.C,C16*%
X207590000Y-146360000D03*
X207590000Y-143235000D03*
%TD*%
%TO.C,C6*%
X213400000Y-67862500D03*
X213400000Y-64737500D03*
%TD*%
D18*
%TO.C,J15*%
X46500000Y-105000000D03*
D19*
X48000000Y-103525000D03*
D18*
X49500000Y-105000000D03*
D19*
X48000000Y-106475000D03*
%TD*%
D14*
%TO.C,J6*%
X42700000Y-75000000D03*
D15*
X42500000Y-79250000D03*
D16*
X42500000Y-70750000D03*
%TD*%
D14*
%TO.C,J10*%
X42700000Y-135000000D03*
D15*
X42500000Y-139250000D03*
D16*
X42500000Y-130750000D03*
%TD*%
D11*
%TO.C,U3*%
X217940000Y-120850000D03*
D12*
X218175000Y-127575000D03*
X212625000Y-127575000D03*
X218175000Y-132425000D03*
X212625000Y-132425000D03*
D11*
X212860000Y-120850000D03*
%TD*%
D18*
%TO.C,J1*%
X46500000Y-95000000D03*
D19*
X48000000Y-93525000D03*
D18*
X49500000Y-95000000D03*
D19*
X48000000Y-96475000D03*
%TD*%
D18*
%TO.C,J9*%
X46500000Y-135000000D03*
D19*
X48000000Y-133525000D03*
D18*
X49500000Y-135000000D03*
D19*
X48000000Y-136475000D03*
%TD*%
D17*
%TO.C,C14*%
X207590000Y-141400000D03*
X207590000Y-138275000D03*
%TD*%
D20*
%TO.C,R11*%
X210262500Y-136200000D03*
X207337500Y-136200000D03*
%TD*%
D14*
%TO.C,J8*%
X42700000Y-65000000D03*
D15*
X42500000Y-69250000D03*
D16*
X42500000Y-60750000D03*
%TD*%
D18*
%TO.C,J7*%
X46500000Y-65000000D03*
D19*
X48000000Y-63525000D03*
D18*
X49500000Y-65000000D03*
D19*
X48000000Y-66475000D03*
%TD*%
D14*
%TO.C,J16*%
X42700000Y-105000000D03*
D15*
X42500000Y-109250000D03*
D16*
X42500000Y-100750000D03*
%TD*%
D21*
%TO.C,U1*%
X220485000Y-89185000D03*
D22*
X227210000Y-88950000D03*
X227210000Y-94500000D03*
X232060000Y-88950000D03*
X232060000Y-94500000D03*
D21*
X220485000Y-94265000D03*
%TD*%
D13*
%TO.C,R15*%
X216890000Y-137737500D03*
X216890000Y-140662500D03*
%TD*%
D23*
%TO.C,R14*%
X212015000Y-136460000D03*
X214940000Y-136460000D03*
%TD*%
D17*
%TO.C,C11*%
X207700000Y-92792500D03*
X207700000Y-89667500D03*
%TD*%
D10*
%TO.C,R1*%
X207700000Y-85262500D03*
X207700000Y-82337500D03*
%TD*%
D14*
%TO.C,J2*%
X42700000Y-95000000D03*
D15*
X42500000Y-99250000D03*
D16*
X42500000Y-90750000D03*
%TD*%
D14*
%TO.C,J14*%
X42700000Y-115000000D03*
D15*
X42500000Y-119250000D03*
D16*
X42500000Y-110750000D03*
%TD*%
D18*
%TO.C,J13*%
X46500000Y-115000000D03*
D19*
X48000000Y-113525000D03*
D18*
X49500000Y-115000000D03*
D19*
X48000000Y-116475000D03*
%TD*%
D18*
%TO.C,J11*%
X46500000Y-125000000D03*
D19*
X48000000Y-123525000D03*
D18*
X49500000Y-125000000D03*
D19*
X48000000Y-126475000D03*
%TD*%
D18*
%TO.C,J5*%
X46500000Y-75000000D03*
D19*
X48000000Y-73525000D03*
D18*
X49500000Y-75000000D03*
D19*
X48000000Y-76475000D03*
%TD*%
D23*
%TO.C,R3*%
X47417500Y-55280000D03*
X50342500Y-55280000D03*
%TD*%
D17*
%TO.C,C3*%
X229390000Y-101552500D03*
X229390000Y-98427500D03*
%TD*%
%TO.C,C2*%
X214300000Y-113775000D03*
X214300000Y-116900000D03*
%TD*%
D10*
%TO.C,R7*%
X207700000Y-80702500D03*
X207700000Y-77777500D03*
%TD*%
D21*
%TO.C,U4*%
X220575000Y-138795000D03*
D22*
X227300000Y-138560000D03*
X227300000Y-144110000D03*
X232150000Y-138560000D03*
X232150000Y-144110000D03*
D21*
X220575000Y-143875000D03*
%TD*%
D24*
%TO.C,C13*%
X211675000Y-113780000D03*
X211675000Y-116905000D03*
%TD*%
D10*
%TO.C,R10*%
X216800000Y-94932500D03*
X216800000Y-92007500D03*
%TD*%
D23*
%TO.C,R2*%
X48537500Y-145000000D03*
X51462500Y-145000000D03*
%TD*%
D14*
%TO.C,J12*%
X42700000Y-125000000D03*
D15*
X42500000Y-129250000D03*
D16*
X42500000Y-120750000D03*
%TD*%
D20*
%TO.C,R8*%
X210262500Y-87270000D03*
X207337500Y-87270000D03*
%TD*%
D25*
%TO.C,C15*%
X227262500Y-131100000D03*
X224137500Y-131100000D03*
%TD*%
D18*
%TO.C,J3*%
X46500000Y-85000000D03*
D19*
X48000000Y-83525000D03*
D18*
X49500000Y-85000000D03*
D19*
X48000000Y-86475000D03*
%TD*%
D10*
%TO.C,R13*%
X207580000Y-129562500D03*
X207580000Y-126637500D03*
%TD*%
D26*
%TO.C,C4*%
X224237500Y-133900000D03*
X227362500Y-133900000D03*
%TD*%
D23*
%TO.C,R6*%
X211917500Y-87580000D03*
X214842500Y-87580000D03*
%TD*%
D24*
%TO.C,C9*%
X211100000Y-64737500D03*
X211100000Y-67862500D03*
%TD*%
D17*
%TO.C,C12*%
X207660000Y-97782500D03*
X207660000Y-94657500D03*
%TD*%
D24*
%TO.C,C10*%
X226840000Y-101542500D03*
X226840000Y-98417500D03*
%TD*%
M02*
