%TF.GenerationSoftware,KiCad,Pcbnew,7.0.10*%
%TF.CreationDate,2024-02-16T20:10:34+00:00*%
%TF.ProjectId,Template-3U220mm,54656d70-6c61-4746-952d-33553232306d,0.1*%
%TF.SameCoordinates,Original*%
%TF.FileFunction,Soldermask,Bot*%
%TF.FilePolarity,Negative*%
%FSLAX46Y46*%
G04 Gerber Fmt 4.6, Leading zero omitted, Abs format (unit mm)*
G04 Created by KiCad (PCBNEW 7.0.10) date 2024-02-16 20:10:34*
%MOMM*%
%LPD*%
G01*
G04 APERTURE LIST*
G04 Aperture macros list*
%AMRoundRect*
0 Rectangle with rounded corners*
0 $1 Rounding radius*
0 $2 $3 $4 $5 $6 $7 $8 $9 X,Y pos of 4 corners*
0 Add a 4 corners polygon primitive as box body*
4,1,4,$2,$3,$4,$5,$6,$7,$8,$9,$2,$3,0*
0 Add four circle primitives for the rounded corners*
1,1,$1+$1,$2,$3*
1,1,$1+$1,$4,$5*
1,1,$1+$1,$6,$7*
1,1,$1+$1,$8,$9*
0 Add four rect primitives between the rounded corners*
20,1,$1+$1,$2,$3,$4,$5,0*
20,1,$1+$1,$4,$5,$6,$7,0*
20,1,$1+$1,$6,$7,$8,$9,0*
20,1,$1+$1,$8,$9,$2,$3,0*%
G04 Aperture macros list end*
%ADD10C,0.100000*%
%ADD11C,0.800000*%
%ADD12C,5.400000*%
%ADD13RoundRect,0.250000X-0.845000X0.620000X-0.845000X-0.620000X0.845000X-0.620000X0.845000X0.620000X0*%
%ADD14O,2.190000X1.740000*%
%ADD15C,2.400000*%
%ADD16RoundRect,0.250000X-1.550000X0.650000X-1.550000X-0.650000X1.550000X-0.650000X1.550000X0.650000X0*%
%ADD17O,3.600000X1.800000*%
%ADD18C,2.794000*%
%ADD19O,6.254000X3.254000*%
%ADD20RoundRect,0.250000X0.312500X0.625000X-0.312500X0.625000X-0.312500X-0.625000X0.312500X-0.625000X0*%
%ADD21RoundRect,0.250000X-0.650000X0.412500X-0.650000X-0.412500X0.650000X-0.412500X0.650000X0.412500X0*%
%ADD22C,3.000000*%
%ADD23RoundRect,0.250000X0.375000X0.625000X-0.375000X0.625000X-0.375000X-0.625000X0.375000X-0.625000X0*%
%ADD24RoundRect,0.250000X-0.375000X-0.625000X0.375000X-0.625000X0.375000X0.625000X-0.375000X0.625000X0*%
%ADD25RoundRect,0.250000X0.650000X-0.412500X0.650000X0.412500X-0.650000X0.412500X-0.650000X-0.412500X0*%
G04 APERTURE END LIST*
D10*
X40000000Y-50000000D02*
X260000000Y-50000000D01*
X260000000Y-52500000D01*
X40000000Y-52500000D01*
X40000000Y-50000000D01*
G36*
X40000000Y-50000000D02*
G01*
X260000000Y-50000000D01*
X260000000Y-52500000D01*
X40000000Y-52500000D01*
X40000000Y-50000000D01*
G37*
X40000000Y-147500000D02*
X260000000Y-147500000D01*
X260000000Y-150000000D01*
X40000000Y-150000000D01*
X40000000Y-147500000D01*
G36*
X40000000Y-147500000D02*
G01*
X260000000Y-147500000D01*
X260000000Y-150000000D01*
X40000000Y-150000000D01*
X40000000Y-147500000D01*
G37*
D11*
%TO.C,Tile34*%
X116975000Y-111500000D03*
X117568109Y-110068109D03*
X117568109Y-112931891D03*
X119000000Y-109475000D03*
D12*
X119000000Y-111500000D03*
D11*
X119000000Y-113525000D03*
X120431891Y-110068109D03*
X120431891Y-112931891D03*
X121025000Y-111500000D03*
%TD*%
%TO.C,Tile42*%
X147475000Y-111500000D03*
X148068109Y-110068109D03*
X148068109Y-112931891D03*
X149500000Y-109475000D03*
D12*
X149500000Y-111500000D03*
D11*
X149500000Y-113525000D03*
X150931891Y-110068109D03*
X150931891Y-112931891D03*
X151525000Y-111500000D03*
%TD*%
D13*
%TO.C,J22*%
X224440000Y-57370000D03*
D14*
X224440000Y-59910000D03*
X224440000Y-62450000D03*
%TD*%
D11*
%TO.C,Tile33*%
X86475000Y-111500000D03*
X87068109Y-110068109D03*
X87068109Y-112931891D03*
X88500000Y-109475000D03*
D12*
X88500000Y-111500000D03*
D11*
X88500000Y-113525000D03*
X89931891Y-110068109D03*
X89931891Y-112931891D03*
X90525000Y-111500000D03*
%TD*%
%TO.C,Tile45*%
X138975000Y-59000000D03*
X139568109Y-57568109D03*
X139568109Y-60431891D03*
X141000000Y-56975000D03*
D12*
X141000000Y-59000000D03*
D11*
X141000000Y-61025000D03*
X142431891Y-57568109D03*
X142431891Y-60431891D03*
X143025000Y-59000000D03*
%TD*%
%TO.C,Tile19*%
X199975000Y-89500000D03*
X200568109Y-88068109D03*
X200568109Y-90931891D03*
X202000000Y-87475000D03*
D12*
X202000000Y-89500000D03*
D11*
X202000000Y-91525000D03*
X203431891Y-88068109D03*
X203431891Y-90931891D03*
X204025000Y-89500000D03*
%TD*%
%TO.C,Tile43*%
X108475000Y-111500000D03*
X109068109Y-110068109D03*
X109068109Y-112931891D03*
X110500000Y-109475000D03*
D12*
X110500000Y-111500000D03*
D11*
X110500000Y-113525000D03*
X111931891Y-110068109D03*
X111931891Y-112931891D03*
X112525000Y-111500000D03*
%TD*%
%TO.C,Tile54*%
X116975000Y-89500000D03*
X117568109Y-88068109D03*
X117568109Y-90931891D03*
X119000000Y-87475000D03*
D12*
X119000000Y-89500000D03*
D11*
X119000000Y-91525000D03*
X120431891Y-88068109D03*
X120431891Y-90931891D03*
X121025000Y-89500000D03*
%TD*%
%TO.C,Tile4*%
X55975000Y-89500000D03*
X56568109Y-88068109D03*
X56568109Y-90931891D03*
X58000000Y-87475000D03*
D12*
X58000000Y-89500000D03*
D11*
X58000000Y-91525000D03*
X59431891Y-88068109D03*
X59431891Y-90931891D03*
X60025000Y-89500000D03*
%TD*%
%TO.C,Tile1*%
X55975000Y-111500000D03*
X56568109Y-110068109D03*
X56568109Y-112931891D03*
X58000000Y-109475000D03*
D12*
X58000000Y-111500000D03*
D11*
X58000000Y-113525000D03*
X59431891Y-110068109D03*
X59431891Y-112931891D03*
X60025000Y-111500000D03*
%TD*%
%TO.C,Tile3*%
X77975000Y-89500000D03*
X78568109Y-88068109D03*
X78568109Y-90931891D03*
X80000000Y-87475000D03*
D12*
X80000000Y-89500000D03*
D11*
X80000000Y-91525000D03*
X81431891Y-88068109D03*
X81431891Y-90931891D03*
X82025000Y-89500000D03*
%TD*%
%TO.C,Tile23*%
X147475000Y-120000000D03*
X148068109Y-118568109D03*
X148068109Y-121431891D03*
X149500000Y-117975000D03*
D12*
X149500000Y-120000000D03*
D11*
X149500000Y-122025000D03*
X150931891Y-118568109D03*
X150931891Y-121431891D03*
X151525000Y-120000000D03*
%TD*%
D13*
%TO.C,J24*%
X231260000Y-79140000D03*
D14*
X231260000Y-81680000D03*
X231260000Y-84220000D03*
%TD*%
D11*
%TO.C,Tile18*%
X177975000Y-120000000D03*
X178568109Y-118568109D03*
X178568109Y-121431891D03*
X180000000Y-117975000D03*
D12*
X180000000Y-120000000D03*
D11*
X180000000Y-122025000D03*
X181431891Y-118568109D03*
X181431891Y-121431891D03*
X182025000Y-120000000D03*
%TD*%
%TO.C,Tile41*%
X147475000Y-59000000D03*
X148068109Y-57568109D03*
X148068109Y-60431891D03*
X149500000Y-56975000D03*
D12*
X149500000Y-59000000D03*
D11*
X149500000Y-61025000D03*
X150931891Y-57568109D03*
X150931891Y-60431891D03*
X151525000Y-59000000D03*
%TD*%
%TO.C,Tile6*%
X77975000Y-142000000D03*
X78568109Y-140568109D03*
X78568109Y-143431891D03*
X80000000Y-139975000D03*
D12*
X80000000Y-142000000D03*
D11*
X80000000Y-144025000D03*
X81431891Y-140568109D03*
X81431891Y-143431891D03*
X82025000Y-142000000D03*
%TD*%
%TO.C,Tile15*%
X138975000Y-120000000D03*
X139568109Y-118568109D03*
X139568109Y-121431891D03*
X141000000Y-117975000D03*
D12*
X141000000Y-120000000D03*
D11*
X141000000Y-122025000D03*
X142431891Y-118568109D03*
X142431891Y-121431891D03*
X143025000Y-120000000D03*
%TD*%
%TO.C,Tile8*%
X77975000Y-120000000D03*
X78568109Y-118568109D03*
X78568109Y-121431891D03*
X80000000Y-117975000D03*
D12*
X80000000Y-120000000D03*
D11*
X80000000Y-122025000D03*
X81431891Y-118568109D03*
X81431891Y-121431891D03*
X82025000Y-120000000D03*
%TD*%
%TO.C,Tile26*%
X177975000Y-59000000D03*
X178568109Y-57568109D03*
X178568109Y-60431891D03*
X180000000Y-56975000D03*
D12*
X180000000Y-59000000D03*
D11*
X180000000Y-61025000D03*
X181431891Y-57568109D03*
X181431891Y-60431891D03*
X182025000Y-59000000D03*
%TD*%
%TO.C,Tile21*%
X138975000Y-142000000D03*
X139568109Y-140568109D03*
X139568109Y-143431891D03*
X141000000Y-139975000D03*
D12*
X141000000Y-142000000D03*
D11*
X141000000Y-144025000D03*
X142431891Y-140568109D03*
X142431891Y-143431891D03*
X143025000Y-142000000D03*
%TD*%
%TO.C,Tile49*%
X169475000Y-81000000D03*
X170068109Y-79568109D03*
X170068109Y-82431891D03*
X171500000Y-78975000D03*
D12*
X171500000Y-81000000D03*
D11*
X171500000Y-83025000D03*
X172931891Y-79568109D03*
X172931891Y-82431891D03*
X173525000Y-81000000D03*
%TD*%
%TO.C,Tile47*%
X86475000Y-81000000D03*
X87068109Y-79568109D03*
X87068109Y-82431891D03*
X88500000Y-78975000D03*
D12*
X88500000Y-81000000D03*
D11*
X88500000Y-83025000D03*
X89931891Y-79568109D03*
X89931891Y-82431891D03*
X90525000Y-81000000D03*
%TD*%
%TO.C,Tile50*%
X147475000Y-81000000D03*
X148068109Y-79568109D03*
X148068109Y-82431891D03*
X149500000Y-78975000D03*
D12*
X149500000Y-81000000D03*
D11*
X149500000Y-83025000D03*
X150931891Y-79568109D03*
X150931891Y-82431891D03*
X151525000Y-81000000D03*
%TD*%
D13*
%TO.C,J17*%
X224440000Y-122750000D03*
D14*
X224440000Y-125290000D03*
X224440000Y-127830000D03*
%TD*%
D13*
%TO.C,J27*%
X231250000Y-114120000D03*
D14*
X231250000Y-116660000D03*
X231250000Y-119200000D03*
%TD*%
D11*
%TO.C,Tile44*%
X169475000Y-89500000D03*
X170068109Y-88068109D03*
X170068109Y-90931891D03*
X171500000Y-87475000D03*
D12*
X171500000Y-89500000D03*
D11*
X171500000Y-91525000D03*
X172931891Y-88068109D03*
X172931891Y-90931891D03*
X173525000Y-89500000D03*
%TD*%
%TO.C,Tile51*%
X116975000Y-59000000D03*
X117568109Y-57568109D03*
X117568109Y-60431891D03*
X119000000Y-56975000D03*
D12*
X119000000Y-59000000D03*
D11*
X119000000Y-61025000D03*
X120431891Y-57568109D03*
X120431891Y-60431891D03*
X121025000Y-59000000D03*
%TD*%
%TO.C,Tile59*%
X138975000Y-89500000D03*
X139568109Y-88068109D03*
X139568109Y-90931891D03*
X141000000Y-87475000D03*
D12*
X141000000Y-89500000D03*
D11*
X141000000Y-91525000D03*
X142431891Y-88068109D03*
X142431891Y-90931891D03*
X143025000Y-89500000D03*
%TD*%
%TO.C,Tile22*%
X147475000Y-142000000D03*
X148068109Y-140568109D03*
X148068109Y-143431891D03*
X149500000Y-139975000D03*
D12*
X149500000Y-142000000D03*
D11*
X149500000Y-144025000D03*
X150931891Y-140568109D03*
X150931891Y-143431891D03*
X151525000Y-142000000D03*
%TD*%
%TO.C,Tile39*%
X169475000Y-111500000D03*
X170068109Y-110068109D03*
X170068109Y-112931891D03*
X171500000Y-109475000D03*
D12*
X171500000Y-111500000D03*
D11*
X171500000Y-113525000D03*
X172931891Y-110068109D03*
X172931891Y-112931891D03*
X173525000Y-111500000D03*
%TD*%
%TO.C,Tile32*%
X108475000Y-142000000D03*
X109068109Y-140568109D03*
X109068109Y-143431891D03*
X110500000Y-139975000D03*
D12*
X110500000Y-142000000D03*
D11*
X110500000Y-144025000D03*
X111931891Y-140568109D03*
X111931891Y-143431891D03*
X112525000Y-142000000D03*
%TD*%
D15*
%TO.C,J28*%
X238180000Y-102270000D03*
X238180000Y-117870000D03*
D16*
X238180000Y-106570000D03*
D17*
X238180000Y-110070000D03*
X238180000Y-113570000D03*
%TD*%
D11*
%TO.C,Tile11*%
X56000000Y-81000000D03*
X56593109Y-79568109D03*
X56593109Y-82431891D03*
X58025000Y-78975000D03*
D12*
X58025000Y-81000000D03*
D11*
X58025000Y-83025000D03*
X59456891Y-79568109D03*
X59456891Y-82431891D03*
X60050000Y-81000000D03*
%TD*%
D15*
%TO.C,J19*%
X238177500Y-124070000D03*
X238177500Y-139670000D03*
D16*
X238177500Y-128370000D03*
D17*
X238177500Y-131870000D03*
X238177500Y-135370000D03*
%TD*%
D11*
%TO.C,Tile12*%
X77975000Y-59000000D03*
X78568109Y-57568109D03*
X78568109Y-60431891D03*
X80000000Y-56975000D03*
D12*
X80000000Y-59000000D03*
D11*
X80000000Y-61025000D03*
X81431891Y-57568109D03*
X81431891Y-60431891D03*
X82025000Y-59000000D03*
%TD*%
D15*
%TO.C,J20*%
X238180000Y-58670000D03*
X238180000Y-74270000D03*
D16*
X238180000Y-62970000D03*
D17*
X238180000Y-66470000D03*
X238180000Y-69970000D03*
%TD*%
D11*
%TO.C,Tile29*%
X177975000Y-111500000D03*
X178568109Y-110068109D03*
X178568109Y-112931891D03*
X180000000Y-109475000D03*
D12*
X180000000Y-111500000D03*
D11*
X180000000Y-113525000D03*
X181431891Y-110068109D03*
X181431891Y-112931891D03*
X182025000Y-111500000D03*
%TD*%
D13*
%TO.C,J21*%
X231240000Y-57370000D03*
D14*
X231240000Y-59910000D03*
X231240000Y-62450000D03*
%TD*%
D11*
%TO.C,Tile37*%
X108475000Y-120000000D03*
X109068109Y-118568109D03*
X109068109Y-121431891D03*
X110500000Y-117975000D03*
D12*
X110500000Y-120000000D03*
D11*
X110500000Y-122025000D03*
X111931891Y-118568109D03*
X111931891Y-121431891D03*
X112525000Y-120000000D03*
%TD*%
%TO.C,Tile16*%
X116975000Y-142000000D03*
X117568109Y-140568109D03*
X117568109Y-143431891D03*
X119000000Y-139975000D03*
D12*
X119000000Y-142000000D03*
D11*
X119000000Y-144025000D03*
X120431891Y-140568109D03*
X120431891Y-143431891D03*
X121025000Y-142000000D03*
%TD*%
%TO.C,Tile35*%
X138975000Y-111500000D03*
X139568109Y-110068109D03*
X139568109Y-112931891D03*
X141000000Y-109475000D03*
D12*
X141000000Y-111500000D03*
D11*
X141000000Y-113525000D03*
X142431891Y-110068109D03*
X142431891Y-112931891D03*
X143025000Y-111500000D03*
%TD*%
%TO.C,H2*%
X40760000Y-55550000D03*
X41346000Y-54136000D03*
X41346000Y-56964000D03*
X42760000Y-53550000D03*
D12*
X42760000Y-55550000D03*
D11*
X42760000Y-57550000D03*
X44174000Y-54136000D03*
X44174000Y-56964000D03*
X44760000Y-55550000D03*
X40760000Y-144450000D03*
X41346000Y-143036000D03*
X41346000Y-145864000D03*
X42760000Y-142450000D03*
D12*
X42760000Y-144450000D03*
D11*
X42760000Y-146450000D03*
X44174000Y-143036000D03*
X44174000Y-145864000D03*
X44760000Y-144450000D03*
%TD*%
%TO.C,Tile27*%
X177975000Y-81000000D03*
X178568109Y-79568109D03*
X178568109Y-82431891D03*
X180000000Y-78975000D03*
D12*
X180000000Y-81000000D03*
D11*
X180000000Y-83025000D03*
X181431891Y-79568109D03*
X181431891Y-82431891D03*
X182025000Y-81000000D03*
%TD*%
%TO.C,Tile7*%
X55975000Y-120000000D03*
X56568109Y-118568109D03*
X56568109Y-121431891D03*
X58000000Y-117975000D03*
D12*
X58000000Y-120000000D03*
D11*
X58000000Y-122025000D03*
X59431891Y-118568109D03*
X59431891Y-121431891D03*
X60025000Y-120000000D03*
%TD*%
%TO.C,Tile53*%
X138975000Y-81000000D03*
X139568109Y-79568109D03*
X139568109Y-82431891D03*
X141000000Y-78975000D03*
D12*
X141000000Y-81000000D03*
D11*
X141000000Y-83025000D03*
X142431891Y-79568109D03*
X142431891Y-82431891D03*
X143025000Y-81000000D03*
%TD*%
%TO.C,Tile5*%
X55975000Y-59000000D03*
X56568109Y-57568109D03*
X56568109Y-60431891D03*
X58000000Y-56975000D03*
D12*
X58000000Y-59000000D03*
D11*
X58000000Y-61025000D03*
X59431891Y-57568109D03*
X59431891Y-60431891D03*
X60025000Y-59000000D03*
%TD*%
%TO.C,Tile60*%
X108475000Y-89500000D03*
X109068109Y-88068109D03*
X109068109Y-90931891D03*
X110500000Y-87475000D03*
D12*
X110500000Y-89500000D03*
D11*
X110500000Y-91525000D03*
X111931891Y-88068109D03*
X111931891Y-90931891D03*
X112525000Y-89500000D03*
%TD*%
%TO.C,Tile46*%
X86475000Y-59000000D03*
X87068109Y-57568109D03*
X87068109Y-60431891D03*
X88500000Y-56975000D03*
D12*
X88500000Y-59000000D03*
D11*
X88500000Y-61025000D03*
X89931891Y-57568109D03*
X89931891Y-60431891D03*
X90525000Y-59000000D03*
%TD*%
%TO.C,Tile57*%
X108475000Y-59000000D03*
X109068109Y-57568109D03*
X109068109Y-60431891D03*
X110500000Y-56975000D03*
D12*
X110500000Y-59000000D03*
D11*
X110500000Y-61025000D03*
X111931891Y-57568109D03*
X111931891Y-60431891D03*
X112525000Y-59000000D03*
%TD*%
%TO.C,Tile14*%
X199975000Y-59000000D03*
X200568109Y-57568109D03*
X200568109Y-60431891D03*
X202000000Y-56975000D03*
D12*
X202000000Y-59000000D03*
D11*
X202000000Y-61025000D03*
X203431891Y-57568109D03*
X203431891Y-60431891D03*
X204025000Y-59000000D03*
%TD*%
D13*
%TO.C,J32*%
X212320000Y-139380000D03*
D14*
X212320000Y-141920000D03*
X212320000Y-144460000D03*
%TD*%
D13*
%TO.C,J29*%
X212250000Y-90530000D03*
D14*
X212250000Y-93070000D03*
X212250000Y-95610000D03*
%TD*%
D11*
%TO.C,Tile28*%
X177975000Y-89500000D03*
X178568109Y-88068109D03*
X178568109Y-90931891D03*
X180000000Y-87475000D03*
D12*
X180000000Y-89500000D03*
D11*
X180000000Y-91525000D03*
X181431891Y-88068109D03*
X181431891Y-90931891D03*
X182025000Y-89500000D03*
%TD*%
%TO.C,Tile58*%
X147475000Y-89500000D03*
X148068109Y-88068109D03*
X148068109Y-90931891D03*
X149500000Y-87475000D03*
D12*
X149500000Y-89500000D03*
D11*
X149500000Y-91525000D03*
X150931891Y-88068109D03*
X150931891Y-90931891D03*
X151525000Y-89500000D03*
%TD*%
%TO.C,Tile30*%
X169475000Y-120000000D03*
X170068109Y-118568109D03*
X170068109Y-121431891D03*
X171500000Y-117975000D03*
D12*
X171500000Y-120000000D03*
D11*
X171500000Y-122025000D03*
X172931891Y-118568109D03*
X172931891Y-121431891D03*
X173525000Y-120000000D03*
%TD*%
%TO.C,Tile40*%
X169475000Y-59000000D03*
X170068109Y-57568109D03*
X170068109Y-60431891D03*
X171500000Y-56975000D03*
D12*
X171500000Y-59000000D03*
D11*
X171500000Y-61025000D03*
X172931891Y-57568109D03*
X172931891Y-60431891D03*
X173525000Y-59000000D03*
%TD*%
D13*
%TO.C,J26*%
X224450000Y-114120000D03*
D14*
X224450000Y-116660000D03*
X224450000Y-119200000D03*
%TD*%
D15*
%TO.C,J23*%
X238180000Y-80470000D03*
X238180000Y-96070000D03*
D16*
X238180000Y-84770000D03*
D17*
X238180000Y-88270000D03*
X238180000Y-91770000D03*
%TD*%
D11*
%TO.C,Tile48*%
X108475000Y-81000000D03*
X109068109Y-79568109D03*
X109068109Y-82431891D03*
X110500000Y-78975000D03*
D12*
X110500000Y-81000000D03*
D11*
X110500000Y-83025000D03*
X111931891Y-79568109D03*
X111931891Y-82431891D03*
X112525000Y-81000000D03*
%TD*%
%TO.C,Tile52*%
X116975000Y-81000000D03*
X117568109Y-79568109D03*
X117568109Y-82431891D03*
X119000000Y-78975000D03*
D12*
X119000000Y-81000000D03*
D11*
X119000000Y-83025000D03*
X120431891Y-79568109D03*
X120431891Y-82431891D03*
X121025000Y-81000000D03*
%TD*%
D13*
%TO.C,J18*%
X231240000Y-122750000D03*
D14*
X231240000Y-125290000D03*
X231240000Y-127830000D03*
%TD*%
D11*
%TO.C,Tile56*%
X86475000Y-89500000D03*
X87068109Y-88068109D03*
X87068109Y-90931891D03*
X88500000Y-87475000D03*
D12*
X88500000Y-89500000D03*
D11*
X88500000Y-91525000D03*
X89931891Y-88068109D03*
X89931891Y-90931891D03*
X90525000Y-89500000D03*
%TD*%
%TO.C,Tile13*%
X199975000Y-111500000D03*
X200568109Y-110068109D03*
X200568109Y-112931891D03*
X202000000Y-109475000D03*
D12*
X202000000Y-111500000D03*
D11*
X202000000Y-113525000D03*
X203431891Y-110068109D03*
X203431891Y-112931891D03*
X204025000Y-111500000D03*
%TD*%
%TO.C,Tile20*%
X199975000Y-81000000D03*
X200568109Y-79568109D03*
X200568109Y-82431891D03*
X202000000Y-78975000D03*
D12*
X202000000Y-81000000D03*
D11*
X202000000Y-83025000D03*
X203431891Y-79568109D03*
X203431891Y-82431891D03*
X204025000Y-81000000D03*
%TD*%
D13*
%TO.C,J25*%
X224460000Y-79140000D03*
D14*
X224460000Y-81680000D03*
X224460000Y-84220000D03*
%TD*%
D11*
%TO.C,Tile17*%
X177975000Y-142000000D03*
X178568109Y-140568109D03*
X178568109Y-143431891D03*
X180000000Y-139975000D03*
D12*
X180000000Y-142000000D03*
D11*
X180000000Y-144025000D03*
X181431891Y-140568109D03*
X181431891Y-143431891D03*
X182025000Y-142000000D03*
%TD*%
%TO.C,Tile24*%
X169475000Y-142000000D03*
X170068109Y-140568109D03*
X170068109Y-143431891D03*
X171500000Y-139975000D03*
D12*
X171500000Y-142000000D03*
D11*
X171500000Y-144025000D03*
X172931891Y-140568109D03*
X172931891Y-143431891D03*
X173525000Y-142000000D03*
%TD*%
%TO.C,Tile38*%
X86475000Y-120000000D03*
X87068109Y-118568109D03*
X87068109Y-121431891D03*
X88500000Y-117975000D03*
D12*
X88500000Y-120000000D03*
D11*
X88500000Y-122025000D03*
X89931891Y-118568109D03*
X89931891Y-121431891D03*
X90525000Y-120000000D03*
%TD*%
D18*
%TO.C,X1*%
X256430000Y-55550000D03*
X256430000Y-144450000D03*
D19*
X246270000Y-73330000D03*
X246270000Y-83490000D03*
X246270000Y-93650000D03*
X246270000Y-103810000D03*
X246270000Y-113970000D03*
X246270000Y-124130000D03*
X246270000Y-134290000D03*
X251350000Y-68250000D03*
X251350000Y-78410000D03*
X251350000Y-88570000D03*
X251350000Y-98730000D03*
X251350000Y-108890000D03*
X251350000Y-119050000D03*
X251350000Y-129210000D03*
X251350000Y-139370000D03*
%TD*%
D11*
%TO.C,Tile36*%
X86475000Y-142000000D03*
X87068109Y-140568109D03*
X87068109Y-143431891D03*
X88500000Y-139975000D03*
D12*
X88500000Y-142000000D03*
D11*
X88500000Y-144025000D03*
X89931891Y-140568109D03*
X89931891Y-143431891D03*
X90525000Y-142000000D03*
%TD*%
%TO.C,Tile2*%
X77975000Y-111500000D03*
X78568109Y-110068109D03*
X78568109Y-112931891D03*
X80000000Y-109475000D03*
D12*
X80000000Y-111500000D03*
D11*
X80000000Y-113525000D03*
X81431891Y-110068109D03*
X81431891Y-112931891D03*
X82025000Y-111500000D03*
%TD*%
%TO.C,Tile55*%
X199975000Y-142000000D03*
X200568109Y-140568109D03*
X200568109Y-143431891D03*
X202000000Y-139975000D03*
D12*
X202000000Y-142000000D03*
D11*
X202000000Y-144025000D03*
X203431891Y-140568109D03*
X203431891Y-143431891D03*
X204025000Y-142000000D03*
%TD*%
%TO.C,Tile10*%
X55975000Y-142000000D03*
X56568109Y-140568109D03*
X56568109Y-143431891D03*
X58000000Y-139975000D03*
D12*
X58000000Y-142000000D03*
D11*
X58000000Y-144025000D03*
X59431891Y-140568109D03*
X59431891Y-143431891D03*
X60025000Y-142000000D03*
%TD*%
%TO.C,Tile31*%
X116975000Y-120000000D03*
X117568109Y-118568109D03*
X117568109Y-121431891D03*
X119000000Y-117975000D03*
D12*
X119000000Y-120000000D03*
D11*
X119000000Y-122025000D03*
X120431891Y-118568109D03*
X120431891Y-121431891D03*
X121025000Y-120000000D03*
%TD*%
%TO.C,Tile25*%
X199975000Y-120000000D03*
X200568109Y-118568109D03*
X200568109Y-121431891D03*
X202000000Y-117975000D03*
D12*
X202000000Y-120000000D03*
D11*
X202000000Y-122025000D03*
X203431891Y-118568109D03*
X203431891Y-121431891D03*
X204025000Y-120000000D03*
%TD*%
%TO.C,Tile9*%
X77975000Y-81000000D03*
X78568109Y-79568109D03*
X78568109Y-82431891D03*
X80000000Y-78975000D03*
D12*
X80000000Y-81000000D03*
D11*
X80000000Y-83025000D03*
X81431891Y-79568109D03*
X81431891Y-82431891D03*
X82025000Y-81000000D03*
%TD*%
D20*
%TO.C,R23*%
X221540000Y-62100000D03*
X218615000Y-62100000D03*
%TD*%
D21*
%TO.C,C1*%
X242775000Y-66425000D03*
X242775000Y-69550000D03*
%TD*%
D20*
%TO.C,R24*%
X221540000Y-58100000D03*
X218615000Y-58100000D03*
%TD*%
D22*
%TO.C,FID6*%
X49000000Y-60000000D03*
%TD*%
D20*
%TO.C,R18*%
X222062500Y-127600000D03*
X219137500Y-127600000D03*
%TD*%
D23*
%TO.C,D6*%
X44400000Y-116500000D03*
X41600000Y-116500000D03*
%TD*%
D22*
%TO.C,FID7*%
X244000000Y-145000000D03*
%TD*%
D20*
%TO.C,R20*%
X218912500Y-119575000D03*
X215987500Y-119575000D03*
%TD*%
D22*
%TO.C,FID2*%
X248090000Y-61500000D03*
%TD*%
D24*
%TO.C,D5*%
X41600000Y-113500000D03*
X44400000Y-113500000D03*
%TD*%
%TO.C,D1*%
X41600000Y-133500000D03*
X44400000Y-133500000D03*
%TD*%
D23*
%TO.C,D4*%
X44400000Y-126500000D03*
X41600000Y-126500000D03*
%TD*%
D24*
%TO.C,D3*%
X41600000Y-123500000D03*
X44400000Y-123500000D03*
%TD*%
D21*
%TO.C,C5*%
X242775000Y-61462500D03*
X242775000Y-64587500D03*
%TD*%
D20*
%TO.C,R19*%
X218612500Y-112900000D03*
X215687500Y-112900000D03*
%TD*%
%TO.C,R17*%
X222062500Y-123275000D03*
X219137500Y-123275000D03*
%TD*%
D23*
%TO.C,D7*%
X44400000Y-106500000D03*
X41600000Y-106500000D03*
%TD*%
%TO.C,D2*%
X44400000Y-136500000D03*
X41600000Y-136500000D03*
%TD*%
D20*
%TO.C,R21*%
X221462500Y-79000000D03*
X218537500Y-79000000D03*
%TD*%
D24*
%TO.C,D8*%
X41600000Y-103500000D03*
X44400000Y-103500000D03*
%TD*%
D25*
%TO.C,C8*%
X221000000Y-115812500D03*
X221000000Y-112687500D03*
%TD*%
D22*
%TO.C,FID4*%
X50000000Y-141000000D03*
%TD*%
D20*
%TO.C,R22*%
X221462500Y-83000000D03*
X218537500Y-83000000D03*
%TD*%
D25*
%TO.C,C7*%
X221000000Y-120812500D03*
X221000000Y-117687500D03*
%TD*%
M02*
