G04 EAGLE Gerber RS-274X export*
G75*
%MOMM*%
%FSLAX34Y34*%
%LPD*%
%INBottom Copper*%
%IPPOS*%
%AMOC8*
5,1,8,0,0,1.08239X$1,22.5*%
G01*
%ADD10C,3.000000*%
%ADD11C,1.117600*%
%ADD12R,5.080000X2.286000*%
%ADD13C,1.524000*%
%ADD14C,4.016000*%
%ADD15C,0.906400*%
%ADD16C,0.756400*%
%ADD17C,0.330000*%

G36*
X2226658Y2544D02*
X2226658Y2544D01*
X2226677Y2542D01*
X2226779Y2564D01*
X2226881Y2580D01*
X2226898Y2590D01*
X2226918Y2594D01*
X2227007Y2647D01*
X2227098Y2696D01*
X2227112Y2710D01*
X2227129Y2720D01*
X2227196Y2799D01*
X2227268Y2874D01*
X2227276Y2892D01*
X2227289Y2907D01*
X2227328Y3003D01*
X2227371Y3097D01*
X2227373Y3117D01*
X2227381Y3135D01*
X2227399Y3302D01*
X2227399Y54223D01*
X2227391Y54272D01*
X2227393Y54321D01*
X2227372Y54392D01*
X2227360Y54466D01*
X2227337Y54509D01*
X2227323Y54556D01*
X2227279Y54617D01*
X2227244Y54683D01*
X2227209Y54717D01*
X2227181Y54757D01*
X2227120Y54801D01*
X2227066Y54853D01*
X2227022Y54873D01*
X2226982Y54902D01*
X2226911Y54925D01*
X2226843Y54956D01*
X2226794Y54962D01*
X2226748Y54977D01*
X2226673Y54975D01*
X2226599Y54984D01*
X2226551Y54973D01*
X2226502Y54972D01*
X2226431Y54947D01*
X2226358Y54931D01*
X2226316Y54906D01*
X2226270Y54890D01*
X2226211Y54843D01*
X2226147Y54805D01*
X2226115Y54768D01*
X2226077Y54738D01*
X2226036Y54675D01*
X2225987Y54618D01*
X2225969Y54573D01*
X2225942Y54532D01*
X2225904Y54412D01*
X2225895Y54390D01*
X2225894Y54381D01*
X2225891Y54372D01*
X2224280Y46271D01*
X2219052Y38448D01*
X2211229Y33220D01*
X2202000Y31384D01*
X2192771Y33220D01*
X2184948Y38448D01*
X2179720Y46271D01*
X2177884Y55500D01*
X2179720Y64729D01*
X2184948Y72552D01*
X2192771Y77780D01*
X2202000Y79616D01*
X2211229Y77780D01*
X2219052Y72552D01*
X2224280Y64729D01*
X2225891Y56628D01*
X2225909Y56582D01*
X2225917Y56534D01*
X2225951Y56468D01*
X2225978Y56398D01*
X2226009Y56360D01*
X2226032Y56317D01*
X2226086Y56265D01*
X2226133Y56207D01*
X2226174Y56181D01*
X2226210Y56147D01*
X2226278Y56116D01*
X2226341Y56076D01*
X2226389Y56064D01*
X2226433Y56044D01*
X2226507Y56035D01*
X2226580Y56018D01*
X2226629Y56022D01*
X2226677Y56016D01*
X2226751Y56032D01*
X2226825Y56039D01*
X2226870Y56058D01*
X2226918Y56069D01*
X2226982Y56107D01*
X2227051Y56137D01*
X2227087Y56170D01*
X2227129Y56195D01*
X2227178Y56252D01*
X2227233Y56302D01*
X2227257Y56345D01*
X2227289Y56382D01*
X2227317Y56451D01*
X2227353Y56516D01*
X2227362Y56565D01*
X2227381Y56610D01*
X2227395Y56734D01*
X2227399Y56758D01*
X2227398Y56767D01*
X2227399Y56777D01*
X2227399Y943223D01*
X2227391Y943272D01*
X2227393Y943321D01*
X2227372Y943392D01*
X2227360Y943466D01*
X2227337Y943509D01*
X2227323Y943556D01*
X2227279Y943617D01*
X2227244Y943683D01*
X2227209Y943717D01*
X2227181Y943757D01*
X2227120Y943801D01*
X2227066Y943853D01*
X2227022Y943873D01*
X2226982Y943902D01*
X2226911Y943925D01*
X2226843Y943956D01*
X2226794Y943962D01*
X2226748Y943977D01*
X2226673Y943975D01*
X2226599Y943984D01*
X2226551Y943973D01*
X2226502Y943972D01*
X2226431Y943947D01*
X2226358Y943931D01*
X2226316Y943906D01*
X2226270Y943890D01*
X2226211Y943843D01*
X2226147Y943805D01*
X2226115Y943768D01*
X2226077Y943738D01*
X2226036Y943675D01*
X2225987Y943618D01*
X2225969Y943573D01*
X2225942Y943532D01*
X2225904Y943412D01*
X2225895Y943390D01*
X2225894Y943381D01*
X2225891Y943372D01*
X2224280Y935271D01*
X2219052Y927448D01*
X2211229Y922220D01*
X2202000Y920384D01*
X2192771Y922220D01*
X2184948Y927448D01*
X2179720Y935271D01*
X2177884Y944500D01*
X2179720Y953729D01*
X2184948Y961552D01*
X2192771Y966780D01*
X2202000Y968616D01*
X2211229Y966780D01*
X2219052Y961552D01*
X2224280Y953729D01*
X2225891Y945628D01*
X2225909Y945582D01*
X2225917Y945534D01*
X2225951Y945468D01*
X2225978Y945398D01*
X2226009Y945360D01*
X2226032Y945317D01*
X2226086Y945265D01*
X2226133Y945207D01*
X2226174Y945181D01*
X2226210Y945147D01*
X2226278Y945116D01*
X2226341Y945076D01*
X2226389Y945064D01*
X2226433Y945044D01*
X2226507Y945035D01*
X2226580Y945018D01*
X2226629Y945022D01*
X2226677Y945016D01*
X2226751Y945032D01*
X2226825Y945039D01*
X2226870Y945058D01*
X2226918Y945069D01*
X2226982Y945107D01*
X2227051Y945137D01*
X2227087Y945170D01*
X2227129Y945195D01*
X2227178Y945252D01*
X2227233Y945302D01*
X2227257Y945345D01*
X2227289Y945382D01*
X2227317Y945451D01*
X2227353Y945516D01*
X2227362Y945565D01*
X2227381Y945610D01*
X2227395Y945734D01*
X2227399Y945758D01*
X2227398Y945767D01*
X2227399Y945777D01*
X2227399Y996698D01*
X2227396Y996718D01*
X2227398Y996737D01*
X2227376Y996839D01*
X2227360Y996941D01*
X2227350Y996958D01*
X2227346Y996978D01*
X2227293Y997067D01*
X2227244Y997158D01*
X2227230Y997172D01*
X2227220Y997189D01*
X2227141Y997256D01*
X2227066Y997328D01*
X2227048Y997336D01*
X2227033Y997349D01*
X2226937Y997388D01*
X2226843Y997431D01*
X2226823Y997433D01*
X2226805Y997441D01*
X2226638Y997459D01*
X3302Y997459D01*
X3282Y997456D01*
X3263Y997458D01*
X3161Y997436D01*
X3059Y997420D01*
X3042Y997410D01*
X3022Y997406D01*
X2933Y997353D01*
X2842Y997304D01*
X2828Y997290D01*
X2811Y997280D01*
X2744Y997201D01*
X2672Y997126D01*
X2664Y997108D01*
X2651Y997093D01*
X2612Y996997D01*
X2569Y996903D01*
X2567Y996883D01*
X2559Y996865D01*
X2541Y996698D01*
X2541Y858928D01*
X2543Y858916D01*
X2542Y858908D01*
X2543Y858901D01*
X2542Y858889D01*
X2564Y858787D01*
X2580Y858685D01*
X2590Y858668D01*
X2594Y858648D01*
X2647Y858559D01*
X2696Y858468D01*
X2710Y858454D01*
X2720Y858437D01*
X2799Y858370D01*
X2874Y858298D01*
X2892Y858290D01*
X2907Y858277D01*
X3003Y858238D01*
X3097Y858195D01*
X3117Y858193D01*
X3135Y858185D01*
X3302Y858167D01*
X24131Y858167D01*
X24131Y844958D01*
X24134Y844938D01*
X24132Y844919D01*
X24154Y844817D01*
X24171Y844715D01*
X24180Y844698D01*
X24184Y844678D01*
X24237Y844589D01*
X24286Y844498D01*
X24300Y844484D01*
X24310Y844467D01*
X24389Y844400D01*
X24464Y844329D01*
X24482Y844320D01*
X24497Y844307D01*
X24593Y844268D01*
X24687Y844225D01*
X24707Y844223D01*
X24725Y844215D01*
X24892Y844197D01*
X25655Y844197D01*
X25655Y844195D01*
X24892Y844195D01*
X24872Y844192D01*
X24853Y844194D01*
X24751Y844172D01*
X24649Y844155D01*
X24632Y844146D01*
X24612Y844142D01*
X24523Y844089D01*
X24432Y844040D01*
X24418Y844026D01*
X24401Y844016D01*
X24334Y843937D01*
X24263Y843862D01*
X24254Y843844D01*
X24241Y843829D01*
X24202Y843733D01*
X24159Y843639D01*
X24157Y843619D01*
X24149Y843601D01*
X24131Y843434D01*
X24131Y830225D01*
X3302Y830225D01*
X3282Y830222D01*
X3263Y830224D01*
X3161Y830202D01*
X3059Y830186D01*
X3042Y830176D01*
X3022Y830172D01*
X2933Y830119D01*
X2842Y830070D01*
X2828Y830056D01*
X2811Y830046D01*
X2744Y829967D01*
X2672Y829892D01*
X2664Y829874D01*
X2651Y829859D01*
X2612Y829763D01*
X2569Y829669D01*
X2567Y829649D01*
X2559Y829631D01*
X2541Y829464D01*
X2541Y770536D01*
X2544Y770516D01*
X2542Y770497D01*
X2564Y770395D01*
X2580Y770293D01*
X2590Y770276D01*
X2594Y770256D01*
X2647Y770167D01*
X2696Y770076D01*
X2710Y770062D01*
X2720Y770045D01*
X2799Y769978D01*
X2874Y769906D01*
X2892Y769898D01*
X2907Y769885D01*
X3003Y769846D01*
X3097Y769803D01*
X3117Y769801D01*
X3135Y769793D01*
X3302Y769775D01*
X24131Y769775D01*
X24131Y756566D01*
X24134Y756546D01*
X24132Y756527D01*
X24154Y756425D01*
X24171Y756323D01*
X24180Y756306D01*
X24184Y756286D01*
X24237Y756197D01*
X24286Y756106D01*
X24300Y756092D01*
X24310Y756075D01*
X24389Y756008D01*
X24464Y755937D01*
X24482Y755928D01*
X24497Y755915D01*
X24593Y755876D01*
X24687Y755833D01*
X24707Y755831D01*
X24725Y755823D01*
X24892Y755805D01*
X25655Y755805D01*
X25655Y755803D01*
X24892Y755803D01*
X24872Y755800D01*
X24853Y755802D01*
X24751Y755780D01*
X24649Y755763D01*
X24632Y755754D01*
X24612Y755750D01*
X24523Y755697D01*
X24432Y755648D01*
X24418Y755634D01*
X24401Y755624D01*
X24334Y755545D01*
X24263Y755470D01*
X24254Y755452D01*
X24241Y755437D01*
X24202Y755341D01*
X24159Y755247D01*
X24157Y755227D01*
X24149Y755209D01*
X24131Y755042D01*
X24131Y741833D01*
X3302Y741833D01*
X3282Y741830D01*
X3263Y741832D01*
X3161Y741810D01*
X3059Y741794D01*
X3042Y741784D01*
X3022Y741780D01*
X2933Y741727D01*
X2842Y741678D01*
X2828Y741664D01*
X2811Y741654D01*
X2744Y741575D01*
X2672Y741500D01*
X2664Y741482D01*
X2651Y741467D01*
X2612Y741371D01*
X2569Y741277D01*
X2567Y741257D01*
X2559Y741239D01*
X2541Y741072D01*
X2541Y658928D01*
X2544Y658908D01*
X2542Y658889D01*
X2564Y658787D01*
X2580Y658685D01*
X2590Y658668D01*
X2594Y658648D01*
X2647Y658559D01*
X2696Y658468D01*
X2710Y658454D01*
X2720Y658437D01*
X2799Y658370D01*
X2874Y658298D01*
X2892Y658290D01*
X2907Y658277D01*
X3003Y658238D01*
X3097Y658195D01*
X3117Y658193D01*
X3135Y658185D01*
X3302Y658167D01*
X24131Y658167D01*
X24131Y644958D01*
X24134Y644938D01*
X24132Y644919D01*
X24154Y644817D01*
X24171Y644715D01*
X24180Y644698D01*
X24184Y644678D01*
X24237Y644589D01*
X24286Y644498D01*
X24300Y644484D01*
X24310Y644467D01*
X24389Y644400D01*
X24464Y644329D01*
X24482Y644320D01*
X24497Y644307D01*
X24593Y644268D01*
X24687Y644225D01*
X24707Y644223D01*
X24725Y644215D01*
X24892Y644197D01*
X25655Y644197D01*
X25655Y644195D01*
X24892Y644195D01*
X24872Y644192D01*
X24853Y644194D01*
X24751Y644172D01*
X24649Y644155D01*
X24632Y644146D01*
X24612Y644142D01*
X24523Y644089D01*
X24432Y644040D01*
X24418Y644026D01*
X24401Y644016D01*
X24334Y643937D01*
X24263Y643862D01*
X24254Y643844D01*
X24241Y643829D01*
X24202Y643733D01*
X24159Y643639D01*
X24157Y643619D01*
X24149Y643601D01*
X24131Y643434D01*
X24131Y630225D01*
X3302Y630225D01*
X3282Y630222D01*
X3263Y630224D01*
X3161Y630202D01*
X3059Y630186D01*
X3042Y630176D01*
X3022Y630172D01*
X2933Y630119D01*
X2842Y630070D01*
X2828Y630056D01*
X2811Y630046D01*
X2744Y629967D01*
X2672Y629892D01*
X2664Y629874D01*
X2651Y629859D01*
X2612Y629763D01*
X2569Y629669D01*
X2567Y629649D01*
X2559Y629631D01*
X2541Y629464D01*
X2541Y570536D01*
X2544Y570516D01*
X2542Y570497D01*
X2564Y570395D01*
X2580Y570293D01*
X2590Y570276D01*
X2594Y570256D01*
X2647Y570167D01*
X2696Y570076D01*
X2710Y570062D01*
X2720Y570045D01*
X2799Y569978D01*
X2874Y569906D01*
X2892Y569898D01*
X2907Y569885D01*
X3003Y569846D01*
X3097Y569803D01*
X3117Y569801D01*
X3135Y569793D01*
X3302Y569775D01*
X24131Y569775D01*
X24131Y556566D01*
X24134Y556546D01*
X24132Y556527D01*
X24154Y556425D01*
X24171Y556323D01*
X24180Y556306D01*
X24184Y556286D01*
X24237Y556197D01*
X24286Y556106D01*
X24300Y556092D01*
X24310Y556075D01*
X24389Y556008D01*
X24464Y555937D01*
X24482Y555928D01*
X24497Y555915D01*
X24593Y555876D01*
X24687Y555833D01*
X24707Y555831D01*
X24725Y555823D01*
X24892Y555805D01*
X25655Y555805D01*
X25655Y555803D01*
X24892Y555803D01*
X24872Y555800D01*
X24853Y555802D01*
X24751Y555780D01*
X24649Y555763D01*
X24632Y555754D01*
X24612Y555750D01*
X24523Y555697D01*
X24432Y555648D01*
X24418Y555634D01*
X24401Y555624D01*
X24334Y555545D01*
X24263Y555470D01*
X24254Y555452D01*
X24241Y555437D01*
X24202Y555341D01*
X24159Y555247D01*
X24157Y555227D01*
X24149Y555209D01*
X24131Y555042D01*
X24131Y541833D01*
X3302Y541833D01*
X3282Y541830D01*
X3263Y541832D01*
X3161Y541810D01*
X3059Y541794D01*
X3042Y541784D01*
X3022Y541780D01*
X2933Y541727D01*
X2842Y541678D01*
X2828Y541664D01*
X2811Y541654D01*
X2744Y541575D01*
X2672Y541500D01*
X2664Y541482D01*
X2651Y541467D01*
X2612Y541371D01*
X2569Y541277D01*
X2567Y541257D01*
X2559Y541239D01*
X2541Y541072D01*
X2541Y458928D01*
X2544Y458908D01*
X2542Y458889D01*
X2564Y458787D01*
X2580Y458685D01*
X2590Y458668D01*
X2594Y458648D01*
X2647Y458559D01*
X2696Y458468D01*
X2710Y458454D01*
X2720Y458437D01*
X2799Y458370D01*
X2874Y458298D01*
X2892Y458290D01*
X2907Y458277D01*
X3003Y458238D01*
X3097Y458195D01*
X3117Y458193D01*
X3135Y458185D01*
X3302Y458167D01*
X24131Y458167D01*
X24131Y444958D01*
X24134Y444938D01*
X24132Y444919D01*
X24154Y444817D01*
X24171Y444715D01*
X24180Y444698D01*
X24184Y444678D01*
X24237Y444589D01*
X24286Y444498D01*
X24300Y444484D01*
X24310Y444467D01*
X24389Y444400D01*
X24464Y444329D01*
X24482Y444320D01*
X24497Y444307D01*
X24593Y444268D01*
X24687Y444225D01*
X24707Y444223D01*
X24725Y444215D01*
X24892Y444197D01*
X25655Y444197D01*
X25655Y444195D01*
X24892Y444195D01*
X24872Y444192D01*
X24853Y444194D01*
X24751Y444172D01*
X24649Y444155D01*
X24632Y444146D01*
X24612Y444142D01*
X24523Y444089D01*
X24432Y444040D01*
X24418Y444026D01*
X24401Y444016D01*
X24334Y443937D01*
X24263Y443862D01*
X24254Y443844D01*
X24241Y443829D01*
X24202Y443733D01*
X24159Y443639D01*
X24157Y443619D01*
X24149Y443601D01*
X24131Y443434D01*
X24131Y430225D01*
X3302Y430225D01*
X3282Y430222D01*
X3263Y430224D01*
X3161Y430202D01*
X3059Y430186D01*
X3042Y430176D01*
X3022Y430172D01*
X2933Y430119D01*
X2842Y430070D01*
X2828Y430056D01*
X2811Y430046D01*
X2744Y429967D01*
X2672Y429892D01*
X2664Y429874D01*
X2651Y429859D01*
X2612Y429763D01*
X2569Y429669D01*
X2567Y429649D01*
X2559Y429631D01*
X2541Y429464D01*
X2541Y370536D01*
X2544Y370516D01*
X2542Y370497D01*
X2564Y370395D01*
X2580Y370293D01*
X2590Y370276D01*
X2594Y370256D01*
X2647Y370167D01*
X2696Y370076D01*
X2710Y370062D01*
X2720Y370045D01*
X2799Y369978D01*
X2874Y369906D01*
X2892Y369898D01*
X2907Y369885D01*
X3003Y369846D01*
X3097Y369803D01*
X3117Y369801D01*
X3135Y369793D01*
X3302Y369775D01*
X24131Y369775D01*
X24131Y356566D01*
X24134Y356546D01*
X24132Y356527D01*
X24154Y356425D01*
X24171Y356323D01*
X24180Y356306D01*
X24184Y356286D01*
X24237Y356197D01*
X24286Y356106D01*
X24300Y356092D01*
X24310Y356075D01*
X24389Y356008D01*
X24464Y355937D01*
X24482Y355928D01*
X24497Y355915D01*
X24593Y355876D01*
X24687Y355833D01*
X24707Y355831D01*
X24725Y355823D01*
X24892Y355805D01*
X25655Y355805D01*
X25655Y355803D01*
X24892Y355803D01*
X24872Y355800D01*
X24853Y355802D01*
X24751Y355780D01*
X24649Y355763D01*
X24632Y355754D01*
X24612Y355750D01*
X24523Y355697D01*
X24432Y355648D01*
X24418Y355634D01*
X24401Y355624D01*
X24334Y355545D01*
X24263Y355470D01*
X24254Y355452D01*
X24241Y355437D01*
X24202Y355341D01*
X24159Y355247D01*
X24157Y355227D01*
X24149Y355209D01*
X24131Y355042D01*
X24131Y341833D01*
X3302Y341833D01*
X3282Y341830D01*
X3263Y341832D01*
X3161Y341810D01*
X3059Y341794D01*
X3042Y341784D01*
X3022Y341780D01*
X2933Y341727D01*
X2842Y341678D01*
X2828Y341664D01*
X2811Y341654D01*
X2744Y341575D01*
X2672Y341500D01*
X2664Y341482D01*
X2651Y341467D01*
X2612Y341371D01*
X2569Y341277D01*
X2567Y341257D01*
X2559Y341239D01*
X2541Y341072D01*
X2541Y258928D01*
X2544Y258908D01*
X2542Y258889D01*
X2564Y258787D01*
X2580Y258685D01*
X2590Y258668D01*
X2594Y258648D01*
X2647Y258559D01*
X2696Y258468D01*
X2710Y258454D01*
X2720Y258437D01*
X2799Y258370D01*
X2874Y258298D01*
X2892Y258290D01*
X2907Y258277D01*
X3003Y258238D01*
X3097Y258195D01*
X3117Y258193D01*
X3135Y258185D01*
X3302Y258167D01*
X24131Y258167D01*
X24131Y244958D01*
X24134Y244938D01*
X24132Y244919D01*
X24154Y244817D01*
X24171Y244715D01*
X24180Y244698D01*
X24184Y244678D01*
X24237Y244589D01*
X24286Y244498D01*
X24300Y244484D01*
X24310Y244467D01*
X24389Y244400D01*
X24464Y244329D01*
X24482Y244320D01*
X24497Y244307D01*
X24593Y244268D01*
X24687Y244225D01*
X24707Y244223D01*
X24725Y244215D01*
X24892Y244197D01*
X25655Y244197D01*
X25655Y244195D01*
X24892Y244195D01*
X24872Y244192D01*
X24853Y244194D01*
X24751Y244172D01*
X24649Y244155D01*
X24632Y244146D01*
X24612Y244142D01*
X24523Y244089D01*
X24432Y244040D01*
X24418Y244026D01*
X24401Y244016D01*
X24334Y243937D01*
X24263Y243862D01*
X24254Y243844D01*
X24241Y243829D01*
X24202Y243733D01*
X24159Y243639D01*
X24157Y243619D01*
X24149Y243601D01*
X24131Y243434D01*
X24131Y230225D01*
X3302Y230225D01*
X3282Y230222D01*
X3263Y230224D01*
X3161Y230202D01*
X3059Y230186D01*
X3042Y230176D01*
X3022Y230172D01*
X2933Y230119D01*
X2842Y230070D01*
X2828Y230056D01*
X2811Y230046D01*
X2744Y229967D01*
X2672Y229892D01*
X2664Y229874D01*
X2651Y229859D01*
X2612Y229763D01*
X2569Y229669D01*
X2567Y229649D01*
X2559Y229631D01*
X2541Y229464D01*
X2541Y170536D01*
X2544Y170516D01*
X2542Y170497D01*
X2564Y170395D01*
X2580Y170293D01*
X2590Y170276D01*
X2594Y170256D01*
X2647Y170167D01*
X2696Y170076D01*
X2710Y170062D01*
X2720Y170045D01*
X2799Y169978D01*
X2874Y169906D01*
X2892Y169898D01*
X2907Y169885D01*
X3003Y169846D01*
X3097Y169803D01*
X3117Y169801D01*
X3135Y169793D01*
X3302Y169775D01*
X24131Y169775D01*
X24131Y156566D01*
X24134Y156546D01*
X24132Y156527D01*
X24154Y156425D01*
X24171Y156323D01*
X24180Y156306D01*
X24184Y156286D01*
X24237Y156197D01*
X24286Y156106D01*
X24300Y156092D01*
X24310Y156075D01*
X24389Y156008D01*
X24464Y155937D01*
X24482Y155928D01*
X24497Y155915D01*
X24593Y155876D01*
X24687Y155833D01*
X24707Y155831D01*
X24725Y155823D01*
X24892Y155805D01*
X25655Y155805D01*
X25655Y155803D01*
X24892Y155803D01*
X24872Y155800D01*
X24853Y155802D01*
X24751Y155780D01*
X24649Y155763D01*
X24632Y155754D01*
X24612Y155750D01*
X24523Y155697D01*
X24432Y155648D01*
X24418Y155634D01*
X24401Y155624D01*
X24334Y155545D01*
X24263Y155470D01*
X24254Y155452D01*
X24241Y155437D01*
X24202Y155341D01*
X24159Y155247D01*
X24157Y155227D01*
X24149Y155209D01*
X24131Y155042D01*
X24131Y141833D01*
X3302Y141833D01*
X3282Y141830D01*
X3263Y141832D01*
X3161Y141810D01*
X3059Y141794D01*
X3042Y141784D01*
X3022Y141780D01*
X2933Y141727D01*
X2842Y141678D01*
X2828Y141664D01*
X2811Y141654D01*
X2744Y141575D01*
X2672Y141500D01*
X2664Y141482D01*
X2651Y141467D01*
X2612Y141371D01*
X2569Y141277D01*
X2567Y141257D01*
X2559Y141239D01*
X2541Y141072D01*
X2541Y3302D01*
X2544Y3282D01*
X2542Y3263D01*
X2564Y3161D01*
X2580Y3059D01*
X2590Y3042D01*
X2594Y3022D01*
X2647Y2933D01*
X2696Y2842D01*
X2710Y2828D01*
X2720Y2811D01*
X2799Y2744D01*
X2874Y2672D01*
X2892Y2664D01*
X2907Y2651D01*
X3003Y2612D01*
X3097Y2569D01*
X3117Y2567D01*
X3135Y2559D01*
X3302Y2541D01*
X2226638Y2541D01*
X2226658Y2544D01*
G37*
%LPC*%
G36*
X1814037Y525174D02*
X1814037Y525174D01*
X1812674Y526537D01*
X1812674Y653463D01*
X1814037Y654826D01*
X1915963Y654826D01*
X1917326Y653463D01*
X1917326Y526537D01*
X1915963Y525174D01*
X1814037Y525174D01*
G37*
%LPD*%
%LPC*%
G36*
X1814037Y680174D02*
X1814037Y680174D01*
X1812674Y681537D01*
X1812674Y798463D01*
X1814037Y799826D01*
X1915963Y799826D01*
X1917326Y798463D01*
X1917326Y681537D01*
X1915963Y680174D01*
X1814037Y680174D01*
G37*
%LPD*%
%LPC*%
G36*
X1787907Y584947D02*
X1787907Y584947D01*
X1784947Y587907D01*
X1784947Y590607D01*
X1784933Y590697D01*
X1784925Y590788D01*
X1784913Y590818D01*
X1784908Y590850D01*
X1784865Y590930D01*
X1784829Y591014D01*
X1784803Y591046D01*
X1784792Y591067D01*
X1784769Y591089D01*
X1784724Y591145D01*
X1767079Y608790D01*
X1767079Y778475D01*
X1767065Y778565D01*
X1767057Y778656D01*
X1767045Y778686D01*
X1767040Y778718D01*
X1766997Y778798D01*
X1766961Y778882D01*
X1766935Y778914D01*
X1766924Y778935D01*
X1766901Y778957D01*
X1766856Y779013D01*
X1749013Y796856D01*
X1748939Y796909D01*
X1748870Y796969D01*
X1748840Y796981D01*
X1748813Y797000D01*
X1748726Y797027D01*
X1748642Y797061D01*
X1748601Y797065D01*
X1748578Y797072D01*
X1748546Y797071D01*
X1748475Y797079D01*
X354540Y797079D01*
X354450Y797065D01*
X354359Y797057D01*
X354329Y797045D01*
X354297Y797040D01*
X354217Y796997D01*
X354133Y796961D01*
X354101Y796935D01*
X354080Y796924D01*
X354058Y796901D01*
X354002Y796856D01*
X352093Y794947D01*
X347907Y794947D01*
X345998Y796856D01*
X345924Y796909D01*
X345855Y796969D01*
X345824Y796981D01*
X345798Y797000D01*
X345711Y797027D01*
X345626Y797061D01*
X345586Y797065D01*
X345563Y797072D01*
X345531Y797071D01*
X345460Y797079D01*
X284540Y797079D01*
X284450Y797065D01*
X284359Y797057D01*
X284329Y797045D01*
X284297Y797040D01*
X284217Y796997D01*
X284133Y796961D01*
X284101Y796935D01*
X284080Y796924D01*
X284058Y796901D01*
X284002Y796856D01*
X282093Y794947D01*
X277907Y794947D01*
X274947Y797907D01*
X274947Y802093D01*
X277907Y805053D01*
X282093Y805053D01*
X284002Y803144D01*
X284076Y803091D01*
X284145Y803031D01*
X284176Y803019D01*
X284202Y803000D01*
X284289Y802973D01*
X284374Y802939D01*
X284414Y802935D01*
X284437Y802928D01*
X284469Y802929D01*
X284540Y802921D01*
X345460Y802921D01*
X345550Y802935D01*
X345641Y802943D01*
X345671Y802955D01*
X345703Y802960D01*
X345783Y803003D01*
X345867Y803039D01*
X345899Y803065D01*
X345920Y803076D01*
X345942Y803099D01*
X345998Y803144D01*
X347907Y805053D01*
X352093Y805053D01*
X354002Y803144D01*
X354076Y803091D01*
X354145Y803031D01*
X354176Y803019D01*
X354202Y803000D01*
X354289Y802973D01*
X354374Y802939D01*
X354414Y802935D01*
X354437Y802928D01*
X354469Y802929D01*
X354540Y802921D01*
X1751210Y802921D01*
X1772921Y781210D01*
X1772921Y611525D01*
X1772923Y611512D01*
X1772922Y611501D01*
X1772933Y611448D01*
X1772935Y611435D01*
X1772943Y611344D01*
X1772955Y611314D01*
X1772960Y611282D01*
X1773003Y611202D01*
X1773039Y611118D01*
X1773065Y611086D01*
X1773076Y611065D01*
X1773099Y611043D01*
X1773144Y610987D01*
X1788855Y595276D01*
X1788929Y595223D01*
X1788998Y595163D01*
X1789028Y595151D01*
X1789055Y595132D01*
X1789142Y595105D01*
X1789226Y595071D01*
X1789267Y595067D01*
X1789290Y595060D01*
X1789322Y595061D01*
X1789393Y595053D01*
X1792093Y595053D01*
X1795053Y592093D01*
X1795053Y587907D01*
X1792093Y584947D01*
X1787907Y584947D01*
G37*
%LPD*%
%LPC*%
G36*
X1927907Y374947D02*
X1927907Y374947D01*
X1924947Y377907D01*
X1924947Y382093D01*
X1926856Y384002D01*
X1926909Y384076D01*
X1926969Y384145D01*
X1926981Y384176D01*
X1927000Y384202D01*
X1927027Y384289D01*
X1927061Y384374D01*
X1927065Y384414D01*
X1927072Y384437D01*
X1927071Y384469D01*
X1927079Y384540D01*
X1927079Y418475D01*
X1927065Y418565D01*
X1927057Y418656D01*
X1927045Y418686D01*
X1927040Y418718D01*
X1926997Y418798D01*
X1926961Y418882D01*
X1926935Y418914D01*
X1926924Y418935D01*
X1926901Y418957D01*
X1926856Y419013D01*
X1909013Y436856D01*
X1908939Y436909D01*
X1908870Y436969D01*
X1908840Y436981D01*
X1908813Y437000D01*
X1908726Y437027D01*
X1908642Y437061D01*
X1908601Y437065D01*
X1908578Y437072D01*
X1908546Y437071D01*
X1908475Y437079D01*
X624540Y437079D01*
X624450Y437065D01*
X624359Y437057D01*
X624329Y437045D01*
X624297Y437040D01*
X624217Y436997D01*
X624133Y436961D01*
X624101Y436935D01*
X624080Y436924D01*
X624058Y436901D01*
X624002Y436856D01*
X622093Y434947D01*
X617907Y434947D01*
X614947Y437907D01*
X614947Y442093D01*
X617907Y445053D01*
X622093Y445053D01*
X624002Y443144D01*
X624076Y443091D01*
X624145Y443031D01*
X624176Y443019D01*
X624202Y443000D01*
X624289Y442973D01*
X624374Y442939D01*
X624414Y442935D01*
X624437Y442928D01*
X624469Y442929D01*
X624540Y442921D01*
X1911210Y442921D01*
X1932921Y421210D01*
X1932921Y384540D01*
X1932935Y384450D01*
X1932943Y384359D01*
X1932955Y384329D01*
X1932960Y384297D01*
X1933003Y384217D01*
X1933039Y384133D01*
X1933065Y384101D01*
X1933076Y384080D01*
X1933099Y384058D01*
X1933144Y384002D01*
X1935053Y382093D01*
X1935053Y377907D01*
X1932093Y374947D01*
X1927907Y374947D01*
G37*
%LPD*%
%LPC*%
G36*
X198790Y77079D02*
X198790Y77079D01*
X196856Y79013D01*
X81145Y194724D01*
X81071Y194777D01*
X81002Y194837D01*
X80972Y194849D01*
X80945Y194868D01*
X80858Y194895D01*
X80774Y194929D01*
X80733Y194933D01*
X80710Y194940D01*
X80678Y194939D01*
X80607Y194947D01*
X77907Y194947D01*
X74947Y197907D01*
X74947Y202093D01*
X77907Y205053D01*
X82093Y205053D01*
X85053Y202093D01*
X85053Y199393D01*
X85067Y199303D01*
X85075Y199212D01*
X85087Y199182D01*
X85092Y199150D01*
X85135Y199070D01*
X85171Y198986D01*
X85197Y198954D01*
X85208Y198933D01*
X85231Y198911D01*
X85276Y198855D01*
X200987Y83144D01*
X201061Y83091D01*
X201130Y83031D01*
X201160Y83019D01*
X201187Y83000D01*
X201274Y82973D01*
X201358Y82939D01*
X201399Y82935D01*
X201422Y82928D01*
X201454Y82929D01*
X201525Y82921D01*
X828475Y82921D01*
X828565Y82935D01*
X828656Y82943D01*
X828686Y82955D01*
X828718Y82960D01*
X828798Y83003D01*
X828882Y83039D01*
X828914Y83065D01*
X828935Y83076D01*
X828957Y83099D01*
X829013Y83144D01*
X1088790Y342921D01*
X1173458Y342921D01*
X1173573Y342940D01*
X1173689Y342957D01*
X1173694Y342959D01*
X1173701Y342960D01*
X1173803Y343015D01*
X1173908Y343068D01*
X1173913Y343073D01*
X1173918Y343076D01*
X1173998Y343160D01*
X1174080Y343244D01*
X1174084Y343250D01*
X1174087Y343254D01*
X1174095Y343271D01*
X1174161Y343391D01*
X1174843Y345036D01*
X1177344Y347537D01*
X1180612Y348891D01*
X1199388Y348891D01*
X1202656Y347537D01*
X1205157Y345036D01*
X1206511Y341768D01*
X1206511Y338232D01*
X1205157Y334964D01*
X1202656Y332463D01*
X1199388Y331109D01*
X1180612Y331109D01*
X1177344Y332463D01*
X1174843Y334964D01*
X1174161Y336609D01*
X1174099Y336709D01*
X1174040Y336809D01*
X1174035Y336813D01*
X1174032Y336818D01*
X1173941Y336893D01*
X1173853Y336969D01*
X1173847Y336971D01*
X1173842Y336975D01*
X1173734Y337017D01*
X1173625Y337061D01*
X1173617Y337062D01*
X1173613Y337063D01*
X1173594Y337064D01*
X1173458Y337079D01*
X1091525Y337079D01*
X1091435Y337065D01*
X1091344Y337057D01*
X1091314Y337045D01*
X1091282Y337040D01*
X1091202Y336997D01*
X1091118Y336961D01*
X1091086Y336935D01*
X1091065Y336924D01*
X1091043Y336901D01*
X1090987Y336856D01*
X831210Y77079D01*
X198790Y77079D01*
G37*
%LPD*%
%LPC*%
G36*
X657907Y964947D02*
X657907Y964947D01*
X654947Y967907D01*
X654947Y972093D01*
X657907Y975053D01*
X662093Y975053D01*
X664002Y973144D01*
X664076Y973091D01*
X664145Y973031D01*
X664176Y973019D01*
X664202Y973000D01*
X664289Y972973D01*
X664374Y972939D01*
X664414Y972935D01*
X664437Y972928D01*
X664469Y972929D01*
X664540Y972921D01*
X1955460Y972921D01*
X1955550Y972935D01*
X1955641Y972943D01*
X1955671Y972955D01*
X1955703Y972960D01*
X1955783Y973003D01*
X1955867Y973039D01*
X1955899Y973065D01*
X1955920Y973076D01*
X1955942Y973099D01*
X1955998Y973144D01*
X1957907Y975053D01*
X1962093Y975053D01*
X1965053Y972093D01*
X1965053Y967907D01*
X1962093Y964947D01*
X1957907Y964947D01*
X1955998Y966856D01*
X1955924Y966909D01*
X1955855Y966969D01*
X1955824Y966981D01*
X1955798Y967000D01*
X1955711Y967027D01*
X1955626Y967061D01*
X1955586Y967065D01*
X1955563Y967072D01*
X1955531Y967071D01*
X1955460Y967079D01*
X664540Y967079D01*
X664450Y967065D01*
X664359Y967057D01*
X664329Y967045D01*
X664297Y967040D01*
X664217Y966997D01*
X664133Y966961D01*
X664101Y966935D01*
X664080Y966924D01*
X664058Y966901D01*
X664002Y966856D01*
X662093Y964947D01*
X657907Y964947D01*
G37*
%LPD*%
%LPC*%
G36*
X767907Y564947D02*
X767907Y564947D01*
X764947Y567907D01*
X764947Y570607D01*
X764933Y570697D01*
X764925Y570788D01*
X764913Y570818D01*
X764908Y570850D01*
X764865Y570930D01*
X764829Y571014D01*
X764803Y571046D01*
X764792Y571067D01*
X764769Y571089D01*
X764724Y571145D01*
X739013Y596856D01*
X738939Y596909D01*
X738870Y596969D01*
X738840Y596981D01*
X738813Y597000D01*
X738726Y597027D01*
X738642Y597061D01*
X738601Y597065D01*
X738578Y597072D01*
X738546Y597071D01*
X738475Y597079D01*
X84540Y597079D01*
X84450Y597065D01*
X84359Y597057D01*
X84329Y597045D01*
X84297Y597040D01*
X84217Y596997D01*
X84133Y596961D01*
X84101Y596935D01*
X84080Y596924D01*
X84078Y596922D01*
X84057Y596901D01*
X84002Y596856D01*
X82093Y594947D01*
X77907Y594947D01*
X74947Y597907D01*
X74947Y602093D01*
X77907Y605053D01*
X82093Y605053D01*
X84002Y603144D01*
X84076Y603091D01*
X84145Y603031D01*
X84176Y603019D01*
X84202Y603000D01*
X84289Y602973D01*
X84374Y602939D01*
X84414Y602935D01*
X84437Y602928D01*
X84469Y602929D01*
X84540Y602921D01*
X741210Y602921D01*
X768855Y575276D01*
X768929Y575223D01*
X768998Y575163D01*
X769028Y575151D01*
X769055Y575132D01*
X769142Y575105D01*
X769226Y575071D01*
X769267Y575067D01*
X769290Y575060D01*
X769322Y575061D01*
X769393Y575053D01*
X772093Y575053D01*
X775053Y572093D01*
X775053Y567907D01*
X772093Y564947D01*
X767907Y564947D01*
G37*
%LPD*%
%LPC*%
G36*
X570407Y189947D02*
X570407Y189947D01*
X568498Y191856D01*
X568424Y191909D01*
X568355Y191969D01*
X568324Y191981D01*
X568298Y192000D01*
X568211Y192027D01*
X568126Y192061D01*
X568086Y192065D01*
X568063Y192072D01*
X568031Y192071D01*
X567960Y192079D01*
X375099Y192079D01*
X170322Y396856D01*
X170248Y396909D01*
X170179Y396969D01*
X170149Y396981D01*
X170123Y397000D01*
X170036Y397027D01*
X169951Y397061D01*
X169910Y397065D01*
X169888Y397072D01*
X169855Y397071D01*
X169784Y397079D01*
X84540Y397079D01*
X84450Y397065D01*
X84359Y397057D01*
X84329Y397045D01*
X84297Y397040D01*
X84217Y396997D01*
X84133Y396961D01*
X84101Y396935D01*
X84080Y396924D01*
X84058Y396901D01*
X84002Y396856D01*
X82093Y394947D01*
X77907Y394947D01*
X74947Y397907D01*
X74947Y402093D01*
X77907Y405053D01*
X82093Y405053D01*
X84002Y403144D01*
X84076Y403091D01*
X84145Y403031D01*
X84176Y403019D01*
X84202Y403000D01*
X84289Y402973D01*
X84374Y402939D01*
X84414Y402935D01*
X84437Y402928D01*
X84469Y402929D01*
X84540Y402921D01*
X172519Y402921D01*
X377296Y198144D01*
X377370Y198091D01*
X377439Y198031D01*
X377470Y198019D01*
X377496Y198000D01*
X377583Y197973D01*
X377668Y197939D01*
X377709Y197935D01*
X377731Y197928D01*
X377763Y197929D01*
X377834Y197921D01*
X567960Y197921D01*
X568050Y197935D01*
X568141Y197943D01*
X568171Y197955D01*
X568203Y197960D01*
X568283Y198003D01*
X568367Y198039D01*
X568399Y198065D01*
X568420Y198076D01*
X568442Y198099D01*
X568498Y198144D01*
X570407Y200053D01*
X574593Y200053D01*
X577553Y197093D01*
X577553Y192907D01*
X574593Y189947D01*
X570407Y189947D01*
G37*
%LPD*%
%LPC*%
G36*
X387907Y94947D02*
X387907Y94947D01*
X384947Y97907D01*
X384947Y102093D01*
X387907Y105053D01*
X392093Y105053D01*
X394002Y103144D01*
X394076Y103091D01*
X394145Y103031D01*
X394176Y103019D01*
X394202Y103000D01*
X394289Y102973D01*
X394374Y102939D01*
X394414Y102935D01*
X394437Y102928D01*
X394469Y102929D01*
X394540Y102921D01*
X728475Y102921D01*
X728565Y102935D01*
X728656Y102943D01*
X728686Y102955D01*
X728718Y102960D01*
X728798Y103003D01*
X728882Y103039D01*
X728914Y103065D01*
X728935Y103076D01*
X728957Y103099D01*
X729013Y103144D01*
X746856Y120987D01*
X746909Y121061D01*
X746969Y121130D01*
X746981Y121160D01*
X747000Y121187D01*
X747027Y121274D01*
X747061Y121358D01*
X747065Y121399D01*
X747072Y121422D01*
X747071Y121454D01*
X747079Y121525D01*
X747079Y235460D01*
X747065Y235550D01*
X747057Y235641D01*
X747045Y235671D01*
X747040Y235703D01*
X746997Y235783D01*
X746961Y235867D01*
X746935Y235899D01*
X746924Y235920D01*
X746901Y235942D01*
X746879Y235970D01*
X746876Y235974D01*
X746873Y235977D01*
X746856Y235998D01*
X744947Y237907D01*
X744947Y242093D01*
X747907Y245053D01*
X752093Y245053D01*
X755053Y242093D01*
X755053Y237907D01*
X753144Y235998D01*
X753098Y235935D01*
X753076Y235911D01*
X753072Y235902D01*
X753031Y235855D01*
X753019Y235824D01*
X753000Y235798D01*
X752973Y235711D01*
X752939Y235626D01*
X752935Y235586D01*
X752928Y235563D01*
X752929Y235531D01*
X752921Y235460D01*
X752921Y118790D01*
X731210Y97079D01*
X394540Y97079D01*
X394450Y97065D01*
X394359Y97057D01*
X394329Y97045D01*
X394297Y97040D01*
X394217Y96997D01*
X394133Y96961D01*
X394101Y96935D01*
X394080Y96924D01*
X394058Y96901D01*
X394002Y96856D01*
X392093Y94947D01*
X387907Y94947D01*
G37*
%LPD*%
%LPC*%
G36*
X647907Y224947D02*
X647907Y224947D01*
X644947Y227907D01*
X644947Y232093D01*
X646856Y234002D01*
X646909Y234076D01*
X646969Y234145D01*
X646981Y234176D01*
X647000Y234202D01*
X647027Y234289D01*
X647061Y234374D01*
X647065Y234414D01*
X647072Y234437D01*
X647071Y234469D01*
X647079Y234540D01*
X647079Y271210D01*
X693390Y317521D01*
X823458Y317521D01*
X823573Y317540D01*
X823689Y317557D01*
X823694Y317559D01*
X823701Y317560D01*
X823803Y317615D01*
X823908Y317668D01*
X823913Y317673D01*
X823918Y317676D01*
X823998Y317760D01*
X824080Y317844D01*
X824084Y317850D01*
X824087Y317854D01*
X824095Y317871D01*
X824161Y317991D01*
X824843Y319636D01*
X827344Y322137D01*
X830612Y323491D01*
X849388Y323491D01*
X852656Y322137D01*
X855157Y319636D01*
X856511Y316368D01*
X856511Y312832D01*
X855157Y309564D01*
X852656Y307063D01*
X849388Y305709D01*
X830612Y305709D01*
X827344Y307063D01*
X824843Y309564D01*
X824161Y311209D01*
X824100Y311309D01*
X824040Y311409D01*
X824035Y311413D01*
X824032Y311418D01*
X823942Y311493D01*
X823853Y311569D01*
X823847Y311571D01*
X823842Y311575D01*
X823734Y311617D01*
X823625Y311661D01*
X823617Y311662D01*
X823612Y311663D01*
X823594Y311664D01*
X823458Y311679D01*
X696125Y311679D01*
X696035Y311665D01*
X695944Y311657D01*
X695914Y311645D01*
X695882Y311640D01*
X695802Y311597D01*
X695718Y311561D01*
X695686Y311535D01*
X695665Y311524D01*
X695643Y311501D01*
X695587Y311456D01*
X653144Y269013D01*
X653091Y268939D01*
X653031Y268870D01*
X653019Y268840D01*
X653000Y268813D01*
X652973Y268726D01*
X652939Y268642D01*
X652935Y268601D01*
X652928Y268578D01*
X652929Y268546D01*
X652921Y268475D01*
X652921Y234540D01*
X652935Y234450D01*
X652943Y234359D01*
X652955Y234329D01*
X652960Y234297D01*
X653003Y234217D01*
X653039Y234133D01*
X653065Y234101D01*
X653076Y234080D01*
X653099Y234058D01*
X653144Y234002D01*
X655053Y232093D01*
X655053Y227907D01*
X652093Y224947D01*
X647907Y224947D01*
G37*
%LPD*%
%LPC*%
G36*
X2132964Y90029D02*
X2132964Y90029D01*
X2126983Y92506D01*
X2122406Y97083D01*
X2119929Y103064D01*
X2119929Y109536D01*
X2122406Y115517D01*
X2126983Y120094D01*
X2132964Y122571D01*
X2169436Y122571D01*
X2175417Y120094D01*
X2179994Y115517D01*
X2182471Y109536D01*
X2182471Y103064D01*
X2179994Y97083D01*
X2175417Y92506D01*
X2169436Y90029D01*
X2132964Y90029D01*
G37*
%LPD*%
%LPC*%
G36*
X2082164Y140829D02*
X2082164Y140829D01*
X2076183Y143306D01*
X2071606Y147883D01*
X2069129Y153864D01*
X2069129Y160336D01*
X2071606Y166317D01*
X2076183Y170894D01*
X2082164Y173371D01*
X2118636Y173371D01*
X2124617Y170894D01*
X2129194Y166317D01*
X2131671Y160336D01*
X2131671Y153864D01*
X2129194Y147883D01*
X2124617Y143306D01*
X2118636Y140829D01*
X2082164Y140829D01*
G37*
%LPD*%
%LPC*%
G36*
X2132964Y801229D02*
X2132964Y801229D01*
X2126983Y803706D01*
X2122406Y808283D01*
X2119929Y814264D01*
X2119929Y820736D01*
X2122406Y826717D01*
X2126983Y831294D01*
X2132964Y833771D01*
X2169436Y833771D01*
X2175417Y831294D01*
X2179994Y826717D01*
X2182471Y820736D01*
X2182471Y814264D01*
X2179994Y808283D01*
X2175417Y803706D01*
X2169436Y801229D01*
X2132964Y801229D01*
G37*
%LPD*%
%LPC*%
G36*
X2082164Y750429D02*
X2082164Y750429D01*
X2076183Y752906D01*
X2071606Y757483D01*
X2069129Y763464D01*
X2069129Y769936D01*
X2071606Y775917D01*
X2076183Y780494D01*
X2082164Y782971D01*
X2118636Y782971D01*
X2124617Y780494D01*
X2129194Y775917D01*
X2131671Y769936D01*
X2131671Y763464D01*
X2129194Y757483D01*
X2124617Y752906D01*
X2118636Y750429D01*
X2082164Y750429D01*
G37*
%LPD*%
%LPC*%
G36*
X2132964Y394829D02*
X2132964Y394829D01*
X2126983Y397306D01*
X2122406Y401883D01*
X2119929Y407864D01*
X2119929Y414336D01*
X2122406Y420317D01*
X2126983Y424894D01*
X2132964Y427371D01*
X2169436Y427371D01*
X2175417Y424894D01*
X2179994Y420317D01*
X2182471Y414336D01*
X2182471Y407864D01*
X2179994Y401883D01*
X2175417Y397306D01*
X2169436Y394829D01*
X2132964Y394829D01*
G37*
%LPD*%
%LPC*%
G36*
X2082164Y445629D02*
X2082164Y445629D01*
X2076183Y448106D01*
X2071606Y452683D01*
X2069129Y458664D01*
X2069129Y465136D01*
X2071606Y471117D01*
X2076183Y475694D01*
X2082164Y478171D01*
X2118636Y478171D01*
X2124617Y475694D01*
X2129194Y471117D01*
X2131671Y465136D01*
X2131671Y458664D01*
X2129194Y452683D01*
X2124617Y448106D01*
X2118636Y445629D01*
X2082164Y445629D01*
G37*
%LPD*%
%LPC*%
G36*
X2132964Y699629D02*
X2132964Y699629D01*
X2126983Y702106D01*
X2122406Y706683D01*
X2119929Y712664D01*
X2119929Y719136D01*
X2122406Y725117D01*
X2126983Y729694D01*
X2132964Y732171D01*
X2169436Y732171D01*
X2175417Y729694D01*
X2179994Y725117D01*
X2182471Y719136D01*
X2182471Y712664D01*
X2179994Y706683D01*
X2175417Y702106D01*
X2169436Y699629D01*
X2132964Y699629D01*
G37*
%LPD*%
%LPC*%
G36*
X2082164Y648829D02*
X2082164Y648829D01*
X2076183Y651306D01*
X2071606Y655883D01*
X2069129Y661864D01*
X2069129Y668336D01*
X2071606Y674317D01*
X2076183Y678894D01*
X2082164Y681371D01*
X2118636Y681371D01*
X2124617Y678894D01*
X2129194Y674317D01*
X2131671Y668336D01*
X2131671Y661864D01*
X2129194Y655883D01*
X2124617Y651306D01*
X2118636Y648829D01*
X2082164Y648829D01*
G37*
%LPD*%
%LPC*%
G36*
X2082164Y344029D02*
X2082164Y344029D01*
X2076183Y346506D01*
X2071606Y351083D01*
X2069129Y357064D01*
X2069129Y363536D01*
X2071606Y369517D01*
X2076183Y374094D01*
X2082164Y376571D01*
X2118636Y376571D01*
X2124617Y374094D01*
X2129194Y369517D01*
X2131671Y363536D01*
X2131671Y357064D01*
X2129194Y351083D01*
X2124617Y346506D01*
X2118636Y344029D01*
X2082164Y344029D01*
G37*
%LPD*%
%LPC*%
G36*
X2132964Y598029D02*
X2132964Y598029D01*
X2126983Y600506D01*
X2122406Y605083D01*
X2119929Y611064D01*
X2119929Y617536D01*
X2122406Y623517D01*
X2126983Y628094D01*
X2132964Y630571D01*
X2169436Y630571D01*
X2175417Y628094D01*
X2179994Y623517D01*
X2182471Y617536D01*
X2182471Y611064D01*
X2179994Y605083D01*
X2175417Y600506D01*
X2169436Y598029D01*
X2132964Y598029D01*
G37*
%LPD*%
%LPC*%
G36*
X2132964Y293229D02*
X2132964Y293229D01*
X2126983Y295706D01*
X2122406Y300283D01*
X2119929Y306264D01*
X2119929Y312736D01*
X2122406Y318717D01*
X2126983Y323294D01*
X2132964Y325771D01*
X2169436Y325771D01*
X2175417Y323294D01*
X2179994Y318717D01*
X2182471Y312736D01*
X2182471Y306264D01*
X2179994Y300283D01*
X2175417Y295706D01*
X2169436Y293229D01*
X2132964Y293229D01*
G37*
%LPD*%
%LPC*%
G36*
X1137907Y174947D02*
X1137907Y174947D01*
X1134947Y177907D01*
X1134947Y182093D01*
X1137907Y185053D01*
X1140607Y185053D01*
X1140697Y185067D01*
X1140788Y185075D01*
X1140818Y185087D01*
X1140850Y185092D01*
X1140930Y185135D01*
X1141014Y185171D01*
X1141046Y185197D01*
X1141067Y185208D01*
X1141089Y185231D01*
X1141145Y185276D01*
X1186856Y230987D01*
X1186909Y231061D01*
X1186969Y231130D01*
X1186981Y231160D01*
X1187000Y231187D01*
X1187027Y231274D01*
X1187061Y231358D01*
X1187065Y231399D01*
X1187072Y231422D01*
X1187071Y231454D01*
X1187079Y231525D01*
X1187079Y304948D01*
X1187076Y304968D01*
X1187078Y304987D01*
X1187056Y305089D01*
X1187040Y305191D01*
X1187030Y305208D01*
X1187026Y305228D01*
X1186973Y305317D01*
X1186924Y305408D01*
X1186910Y305422D01*
X1186900Y305439D01*
X1186821Y305506D01*
X1186746Y305578D01*
X1186728Y305586D01*
X1186713Y305599D01*
X1186617Y305638D01*
X1186523Y305681D01*
X1186503Y305683D01*
X1186485Y305691D01*
X1186318Y305709D01*
X1180612Y305709D01*
X1177344Y307063D01*
X1174843Y309564D01*
X1173489Y312832D01*
X1173489Y316368D01*
X1174843Y319636D01*
X1177344Y322137D01*
X1180612Y323491D01*
X1199388Y323491D01*
X1202656Y322137D01*
X1205157Y319636D01*
X1206511Y316368D01*
X1206511Y312832D01*
X1205157Y309564D01*
X1202656Y307063D01*
X1199388Y305709D01*
X1193682Y305709D01*
X1193662Y305706D01*
X1193643Y305708D01*
X1193541Y305686D01*
X1193439Y305670D01*
X1193422Y305660D01*
X1193402Y305656D01*
X1193313Y305603D01*
X1193222Y305554D01*
X1193208Y305540D01*
X1193191Y305530D01*
X1193124Y305451D01*
X1193052Y305376D01*
X1193044Y305358D01*
X1193031Y305343D01*
X1192992Y305247D01*
X1192949Y305153D01*
X1192947Y305133D01*
X1192939Y305115D01*
X1192921Y304948D01*
X1192921Y228790D01*
X1145276Y181145D01*
X1145223Y181071D01*
X1145163Y181002D01*
X1145151Y180972D01*
X1145132Y180945D01*
X1145105Y180858D01*
X1145071Y180774D01*
X1145067Y180733D01*
X1145060Y180710D01*
X1145061Y180678D01*
X1145053Y180607D01*
X1145053Y177907D01*
X1142093Y174947D01*
X1137907Y174947D01*
G37*
%LPD*%
%LPC*%
G36*
X509037Y715174D02*
X509037Y715174D01*
X507674Y716537D01*
X507674Y748463D01*
X509037Y749826D01*
X540963Y749826D01*
X542326Y748463D01*
X542326Y716537D01*
X540963Y715174D01*
X509037Y715174D01*
G37*
%LPD*%
%LPC*%
G36*
X1132907Y202447D02*
X1132907Y202447D01*
X1129947Y205407D01*
X1129947Y209593D01*
X1131856Y211502D01*
X1131909Y211576D01*
X1131969Y211645D01*
X1131981Y211676D01*
X1132000Y211702D01*
X1132027Y211789D01*
X1132061Y211874D01*
X1132065Y211914D01*
X1132072Y211937D01*
X1132071Y211969D01*
X1132079Y212040D01*
X1132079Y305460D01*
X1132065Y305550D01*
X1132057Y305641D01*
X1132045Y305671D01*
X1132040Y305703D01*
X1131997Y305783D01*
X1131961Y305867D01*
X1131935Y305899D01*
X1131924Y305920D01*
X1131901Y305942D01*
X1131856Y305998D01*
X1129947Y307907D01*
X1129947Y312093D01*
X1132907Y315053D01*
X1137093Y315053D01*
X1140053Y312093D01*
X1140053Y307907D01*
X1138144Y305998D01*
X1138091Y305924D01*
X1138031Y305855D01*
X1138019Y305824D01*
X1138000Y305798D01*
X1137973Y305711D01*
X1137939Y305626D01*
X1137935Y305586D01*
X1137928Y305563D01*
X1137929Y305531D01*
X1137921Y305460D01*
X1137921Y212040D01*
X1137935Y211950D01*
X1137943Y211859D01*
X1137955Y211829D01*
X1137960Y211797D01*
X1138003Y211717D01*
X1138039Y211633D01*
X1138065Y211601D01*
X1138076Y211580D01*
X1138099Y211558D01*
X1138144Y211502D01*
X1140053Y209593D01*
X1140053Y205407D01*
X1137093Y202447D01*
X1132907Y202447D01*
G37*
%LPD*%
%LPC*%
G36*
X1180612Y123809D02*
X1180612Y123809D01*
X1177344Y125163D01*
X1174843Y127664D01*
X1173489Y130932D01*
X1173489Y134468D01*
X1174843Y137736D01*
X1177344Y140237D01*
X1180612Y141591D01*
X1199388Y141591D01*
X1202656Y140237D01*
X1205157Y137736D01*
X1206511Y134468D01*
X1206511Y130932D01*
X1205157Y127664D01*
X1202656Y125163D01*
X1199388Y123809D01*
X1180612Y123809D01*
G37*
%LPD*%
%LPC*%
G36*
X830612Y183809D02*
X830612Y183809D01*
X827344Y185163D01*
X824843Y187664D01*
X823489Y190932D01*
X823489Y194468D01*
X824843Y197736D01*
X827344Y200237D01*
X830612Y201591D01*
X849388Y201591D01*
X852656Y200237D01*
X855157Y197736D01*
X856511Y194468D01*
X856511Y190932D01*
X855157Y187664D01*
X852656Y185163D01*
X849388Y183809D01*
X830612Y183809D01*
G37*
%LPD*%
%LPC*%
G36*
X830612Y158409D02*
X830612Y158409D01*
X827344Y159763D01*
X824843Y162264D01*
X823489Y165532D01*
X823489Y169068D01*
X824843Y172336D01*
X827344Y174837D01*
X830612Y176191D01*
X849388Y176191D01*
X852656Y174837D01*
X855157Y172336D01*
X856511Y169068D01*
X856511Y165532D01*
X855157Y162264D01*
X852656Y159763D01*
X849388Y158409D01*
X830612Y158409D01*
G37*
%LPD*%
%LPC*%
G36*
X830612Y331109D02*
X830612Y331109D01*
X827344Y332463D01*
X824843Y334964D01*
X823489Y338232D01*
X823489Y341768D01*
X824843Y345036D01*
X827344Y347537D01*
X830612Y348891D01*
X849388Y348891D01*
X852656Y347537D01*
X855157Y345036D01*
X856511Y341768D01*
X856511Y338232D01*
X855157Y334964D01*
X852656Y332463D01*
X849388Y331109D01*
X830612Y331109D01*
G37*
%LPD*%
%LPC*%
G36*
X1180612Y356509D02*
X1180612Y356509D01*
X1177344Y357863D01*
X1174843Y360364D01*
X1173489Y363632D01*
X1173489Y367168D01*
X1174843Y370436D01*
X1177344Y372937D01*
X1180612Y374291D01*
X1199388Y374291D01*
X1202656Y372937D01*
X1205157Y370436D01*
X1206511Y367168D01*
X1206511Y363632D01*
X1205157Y360364D01*
X1202656Y357863D01*
X1199388Y356509D01*
X1180612Y356509D01*
G37*
%LPD*%
%LPC*%
G36*
X1180612Y98409D02*
X1180612Y98409D01*
X1177344Y99763D01*
X1174843Y102264D01*
X1173489Y105532D01*
X1173489Y109068D01*
X1174843Y112336D01*
X1177344Y114837D01*
X1180612Y116191D01*
X1199388Y116191D01*
X1202656Y114837D01*
X1205157Y112336D01*
X1206511Y109068D01*
X1206511Y105532D01*
X1205157Y102264D01*
X1202656Y99763D01*
X1199388Y98409D01*
X1180612Y98409D01*
G37*
%LPD*%
%LPC*%
G36*
X557907Y697447D02*
X557907Y697447D01*
X554947Y700407D01*
X554947Y704593D01*
X556856Y706502D01*
X556909Y706576D01*
X556969Y706645D01*
X556981Y706676D01*
X557000Y706702D01*
X557027Y706789D01*
X557061Y706874D01*
X557065Y706914D01*
X557072Y706937D01*
X557071Y706969D01*
X557079Y707040D01*
X557079Y757960D01*
X557065Y758050D01*
X557057Y758141D01*
X557045Y758171D01*
X557040Y758203D01*
X556997Y758283D01*
X556961Y758367D01*
X556935Y758399D01*
X556924Y758420D01*
X556901Y758442D01*
X556856Y758498D01*
X554947Y760407D01*
X554947Y764593D01*
X557907Y767553D01*
X562093Y767553D01*
X565053Y764593D01*
X565053Y760407D01*
X563144Y758498D01*
X563091Y758424D01*
X563031Y758355D01*
X563019Y758324D01*
X563000Y758298D01*
X562973Y758211D01*
X562939Y758126D01*
X562935Y758086D01*
X562928Y758063D01*
X562929Y758031D01*
X562921Y757960D01*
X562921Y707040D01*
X562935Y706950D01*
X562943Y706859D01*
X562955Y706829D01*
X562960Y706797D01*
X563003Y706717D01*
X563039Y706633D01*
X563065Y706601D01*
X563076Y706580D01*
X563099Y706558D01*
X563144Y706502D01*
X565053Y704593D01*
X565053Y700407D01*
X562093Y697447D01*
X557907Y697447D01*
G37*
%LPD*%
%LPC*%
G36*
X2101923Y260223D02*
X2101923Y260223D01*
X2101923Y276241D01*
X2116550Y276241D01*
X2118829Y275941D01*
X2121050Y275345D01*
X2123175Y274466D01*
X2125166Y273316D01*
X2126990Y271916D01*
X2128616Y270290D01*
X2130016Y268466D01*
X2131166Y266475D01*
X2132045Y264350D01*
X2132641Y262129D01*
X2132892Y260223D01*
X2101923Y260223D01*
G37*
%LPD*%
%LPC*%
G36*
X2101923Y565023D02*
X2101923Y565023D01*
X2101923Y581041D01*
X2116550Y581041D01*
X2118829Y580741D01*
X2121050Y580145D01*
X2123175Y579266D01*
X2125166Y578116D01*
X2126990Y576716D01*
X2128616Y575090D01*
X2130016Y573266D01*
X2131166Y571275D01*
X2132045Y569150D01*
X2132641Y566929D01*
X2132892Y565023D01*
X2101923Y565023D01*
G37*
%LPD*%
%LPC*%
G36*
X2152723Y209423D02*
X2152723Y209423D01*
X2152723Y225441D01*
X2167350Y225441D01*
X2169629Y225141D01*
X2171850Y224545D01*
X2173975Y223666D01*
X2175966Y222516D01*
X2177790Y221116D01*
X2179416Y219490D01*
X2180816Y217666D01*
X2181966Y215675D01*
X2182845Y213550D01*
X2183441Y211329D01*
X2183692Y209423D01*
X2152723Y209423D01*
G37*
%LPD*%
%LPC*%
G36*
X2152723Y514223D02*
X2152723Y514223D01*
X2152723Y530241D01*
X2167350Y530241D01*
X2169629Y529941D01*
X2171850Y529345D01*
X2173975Y528466D01*
X2175966Y527316D01*
X2177790Y525916D01*
X2179416Y524290D01*
X2180816Y522466D01*
X2181966Y520475D01*
X2182845Y518350D01*
X2183441Y516129D01*
X2183692Y514223D01*
X2152723Y514223D01*
G37*
%LPD*%
%LPC*%
G36*
X2067908Y565023D02*
X2067908Y565023D01*
X2068159Y566929D01*
X2068755Y569150D01*
X2069634Y571275D01*
X2070784Y573266D01*
X2072184Y575090D01*
X2073810Y576716D01*
X2075634Y578116D01*
X2077625Y579266D01*
X2079750Y580145D01*
X2081971Y580741D01*
X2084250Y581041D01*
X2098877Y581041D01*
X2098877Y565023D01*
X2067908Y565023D01*
G37*
%LPD*%
%LPC*%
G36*
X2118708Y209423D02*
X2118708Y209423D01*
X2118959Y211329D01*
X2119555Y213550D01*
X2120434Y215675D01*
X2121584Y217666D01*
X2122984Y219490D01*
X2124610Y221116D01*
X2126434Y222516D01*
X2128425Y223666D01*
X2130550Y224545D01*
X2132771Y225141D01*
X2135050Y225441D01*
X2149677Y225441D01*
X2149677Y209423D01*
X2118708Y209423D01*
G37*
%LPD*%
%LPC*%
G36*
X2118708Y514223D02*
X2118708Y514223D01*
X2118959Y516129D01*
X2119555Y518350D01*
X2120434Y520475D01*
X2121584Y522466D01*
X2122984Y524290D01*
X2124610Y525916D01*
X2126434Y527316D01*
X2128425Y528466D01*
X2130550Y529345D01*
X2132771Y529941D01*
X2135050Y530241D01*
X2149677Y530241D01*
X2149677Y514223D01*
X2118708Y514223D01*
G37*
%LPD*%
%LPC*%
G36*
X2067908Y260223D02*
X2067908Y260223D01*
X2068159Y262129D01*
X2068755Y264350D01*
X2069634Y266475D01*
X2070784Y268466D01*
X2072184Y270290D01*
X2073810Y271916D01*
X2075634Y273316D01*
X2077625Y274466D01*
X2079750Y275345D01*
X2081971Y275941D01*
X2084250Y276241D01*
X2098877Y276241D01*
X2098877Y260223D01*
X2067908Y260223D01*
G37*
%LPD*%
%LPC*%
G36*
X2152723Y190359D02*
X2152723Y190359D01*
X2152723Y206377D01*
X2183692Y206377D01*
X2183441Y204471D01*
X2182845Y202250D01*
X2181966Y200125D01*
X2180816Y198134D01*
X2179416Y196310D01*
X2177790Y194684D01*
X2175966Y193284D01*
X2173975Y192134D01*
X2171850Y191255D01*
X2169629Y190659D01*
X2167350Y190359D01*
X2152723Y190359D01*
G37*
%LPD*%
%LPC*%
G36*
X2101923Y545959D02*
X2101923Y545959D01*
X2101923Y561977D01*
X2132892Y561977D01*
X2132641Y560071D01*
X2132045Y557850D01*
X2131166Y555725D01*
X2130016Y553734D01*
X2128616Y551910D01*
X2126990Y550284D01*
X2125166Y548884D01*
X2123175Y547734D01*
X2121050Y546855D01*
X2118829Y546259D01*
X2116550Y545959D01*
X2101923Y545959D01*
G37*
%LPD*%
%LPC*%
G36*
X2101923Y241159D02*
X2101923Y241159D01*
X2101923Y257177D01*
X2132892Y257177D01*
X2132641Y255271D01*
X2132045Y253050D01*
X2131166Y250925D01*
X2130016Y248934D01*
X2128616Y247110D01*
X2126990Y245484D01*
X2125166Y244084D01*
X2123175Y242934D01*
X2121050Y242055D01*
X2118829Y241459D01*
X2116550Y241159D01*
X2101923Y241159D01*
G37*
%LPD*%
%LPC*%
G36*
X2152723Y495159D02*
X2152723Y495159D01*
X2152723Y511177D01*
X2183692Y511177D01*
X2183441Y509271D01*
X2182845Y507050D01*
X2181966Y504925D01*
X2180816Y502934D01*
X2179416Y501110D01*
X2177790Y499484D01*
X2175966Y498084D01*
X2173975Y496934D01*
X2171850Y496055D01*
X2169629Y495459D01*
X2167350Y495159D01*
X2152723Y495159D01*
G37*
%LPD*%
%LPC*%
G36*
X2135050Y190359D02*
X2135050Y190359D01*
X2132771Y190659D01*
X2130550Y191255D01*
X2128425Y192134D01*
X2126434Y193284D01*
X2124610Y194684D01*
X2122984Y196310D01*
X2121584Y198134D01*
X2120434Y200125D01*
X2119555Y202250D01*
X2118959Y204471D01*
X2118708Y206377D01*
X2149677Y206377D01*
X2149677Y190359D01*
X2135050Y190359D01*
G37*
%LPD*%
%LPC*%
G36*
X2084250Y545959D02*
X2084250Y545959D01*
X2081971Y546259D01*
X2079750Y546855D01*
X2077625Y547734D01*
X2075634Y548884D01*
X2073810Y550284D01*
X2072184Y551910D01*
X2070784Y553734D01*
X2069634Y555725D01*
X2068755Y557850D01*
X2068159Y560071D01*
X2067908Y561977D01*
X2098877Y561977D01*
X2098877Y545959D01*
X2084250Y545959D01*
G37*
%LPD*%
%LPC*%
G36*
X2084250Y241159D02*
X2084250Y241159D01*
X2081971Y241459D01*
X2079750Y242055D01*
X2077625Y242934D01*
X2075634Y244084D01*
X2073810Y245484D01*
X2072184Y247110D01*
X2070784Y248934D01*
X2069634Y250925D01*
X2068755Y253050D01*
X2068159Y255271D01*
X2067908Y257177D01*
X2098877Y257177D01*
X2098877Y241159D01*
X2084250Y241159D01*
G37*
%LPD*%
%LPC*%
G36*
X2135050Y495159D02*
X2135050Y495159D01*
X2132771Y495459D01*
X2130550Y496055D01*
X2128425Y496934D01*
X2126434Y498084D01*
X2124610Y499484D01*
X2122984Y501110D01*
X2121584Y502934D01*
X2120434Y504925D01*
X2119555Y507050D01*
X2118959Y509271D01*
X2118708Y511177D01*
X2149677Y511177D01*
X2149677Y495159D01*
X2135050Y495159D01*
G37*
%LPD*%
%LPC*%
G36*
X27177Y157327D02*
X27177Y157327D01*
X27177Y169775D01*
X51388Y169775D01*
X52035Y169602D01*
X52614Y169267D01*
X53087Y168794D01*
X53422Y168215D01*
X53595Y167568D01*
X53595Y157327D01*
X27177Y157327D01*
G37*
%LPD*%
%LPC*%
G36*
X27177Y757327D02*
X27177Y757327D01*
X27177Y769775D01*
X51388Y769775D01*
X52035Y769602D01*
X52614Y769267D01*
X53087Y768794D01*
X53422Y768215D01*
X53595Y767568D01*
X53595Y757327D01*
X27177Y757327D01*
G37*
%LPD*%
%LPC*%
G36*
X27177Y445719D02*
X27177Y445719D01*
X27177Y458167D01*
X51388Y458167D01*
X52035Y457994D01*
X52614Y457659D01*
X53087Y457186D01*
X53422Y456607D01*
X53595Y455960D01*
X53595Y445719D01*
X27177Y445719D01*
G37*
%LPD*%
%LPC*%
G36*
X27177Y357327D02*
X27177Y357327D01*
X27177Y369775D01*
X51388Y369775D01*
X52035Y369602D01*
X52614Y369267D01*
X53087Y368794D01*
X53422Y368215D01*
X53595Y367568D01*
X53595Y357327D01*
X27177Y357327D01*
G37*
%LPD*%
%LPC*%
G36*
X27177Y645719D02*
X27177Y645719D01*
X27177Y658167D01*
X51388Y658167D01*
X52035Y657994D01*
X52614Y657659D01*
X53087Y657186D01*
X53422Y656607D01*
X53595Y655960D01*
X53595Y645719D01*
X27177Y645719D01*
G37*
%LPD*%
%LPC*%
G36*
X27177Y845719D02*
X27177Y845719D01*
X27177Y858167D01*
X51388Y858167D01*
X52035Y857994D01*
X52614Y857659D01*
X53087Y857186D01*
X53422Y856607D01*
X53595Y855960D01*
X53595Y845719D01*
X27177Y845719D01*
G37*
%LPD*%
%LPC*%
G36*
X27177Y557327D02*
X27177Y557327D01*
X27177Y569775D01*
X51388Y569775D01*
X52035Y569602D01*
X52614Y569267D01*
X53087Y568794D01*
X53422Y568215D01*
X53595Y567568D01*
X53595Y557327D01*
X27177Y557327D01*
G37*
%LPD*%
%LPC*%
G36*
X27177Y245719D02*
X27177Y245719D01*
X27177Y258167D01*
X51388Y258167D01*
X52035Y257994D01*
X52614Y257659D01*
X53087Y257186D01*
X53422Y256607D01*
X53595Y255960D01*
X53595Y245719D01*
X27177Y245719D01*
G37*
%LPD*%
%LPC*%
G36*
X27177Y830225D02*
X27177Y830225D01*
X27177Y842673D01*
X53595Y842673D01*
X53595Y832432D01*
X53422Y831785D01*
X53087Y831206D01*
X52614Y830733D01*
X52035Y830398D01*
X51388Y830225D01*
X27177Y830225D01*
G37*
%LPD*%
%LPC*%
G36*
X27177Y741833D02*
X27177Y741833D01*
X27177Y754281D01*
X53595Y754281D01*
X53595Y744040D01*
X53422Y743393D01*
X53087Y742814D01*
X52614Y742341D01*
X52035Y742006D01*
X51388Y741833D01*
X27177Y741833D01*
G37*
%LPD*%
%LPC*%
G36*
X27177Y630225D02*
X27177Y630225D01*
X27177Y642673D01*
X53595Y642673D01*
X53595Y632432D01*
X53422Y631785D01*
X53087Y631206D01*
X52614Y630733D01*
X52035Y630398D01*
X51388Y630225D01*
X27177Y630225D01*
G37*
%LPD*%
%LPC*%
G36*
X27177Y541833D02*
X27177Y541833D01*
X27177Y554281D01*
X53595Y554281D01*
X53595Y544040D01*
X53422Y543393D01*
X53087Y542814D01*
X52614Y542341D01*
X52035Y542006D01*
X51388Y541833D01*
X27177Y541833D01*
G37*
%LPD*%
%LPC*%
G36*
X27177Y341833D02*
X27177Y341833D01*
X27177Y354281D01*
X53595Y354281D01*
X53595Y344040D01*
X53422Y343393D01*
X53087Y342814D01*
X52614Y342341D01*
X52035Y342006D01*
X51388Y341833D01*
X27177Y341833D01*
G37*
%LPD*%
%LPC*%
G36*
X27177Y230225D02*
X27177Y230225D01*
X27177Y242673D01*
X53595Y242673D01*
X53595Y232432D01*
X53422Y231785D01*
X53087Y231206D01*
X52614Y230733D01*
X52035Y230398D01*
X51388Y230225D01*
X27177Y230225D01*
G37*
%LPD*%
%LPC*%
G36*
X27177Y430225D02*
X27177Y430225D01*
X27177Y442673D01*
X53595Y442673D01*
X53595Y432432D01*
X53422Y431785D01*
X53087Y431206D01*
X52614Y430733D01*
X52035Y430398D01*
X51388Y430225D01*
X27177Y430225D01*
G37*
%LPD*%
%LPC*%
G36*
X27177Y141833D02*
X27177Y141833D01*
X27177Y154281D01*
X53595Y154281D01*
X53595Y144040D01*
X53422Y143393D01*
X53087Y142814D01*
X52614Y142341D01*
X52035Y142006D01*
X51388Y141833D01*
X27177Y141833D01*
G37*
%LPD*%
%LPC*%
G36*
X278636Y508541D02*
X278636Y508541D01*
X276115Y509585D01*
X274185Y511515D01*
X273141Y514036D01*
X273141Y516764D01*
X274185Y519285D01*
X276115Y521215D01*
X278636Y522259D01*
X281364Y522259D01*
X283885Y521215D01*
X285815Y519285D01*
X286859Y516764D01*
X286859Y514036D01*
X285815Y511515D01*
X283885Y509585D01*
X281364Y508541D01*
X278636Y508541D01*
G37*
%LPD*%
%LPC*%
G36*
X1978636Y498541D02*
X1978636Y498541D01*
X1976115Y499585D01*
X1974185Y501515D01*
X1973141Y504036D01*
X1973141Y506764D01*
X1974185Y509285D01*
X1976115Y511215D01*
X1978636Y512259D01*
X1981364Y512259D01*
X1983885Y511215D01*
X1985815Y509285D01*
X1986859Y506764D01*
X1986859Y504036D01*
X1985815Y501515D01*
X1983885Y499585D01*
X1981364Y498541D01*
X1978636Y498541D01*
G37*
%LPD*%
%LPC*%
G36*
X278636Y483141D02*
X278636Y483141D01*
X276115Y484185D01*
X274185Y486115D01*
X273141Y488636D01*
X273141Y491364D01*
X274185Y493885D01*
X276115Y495815D01*
X278636Y496859D01*
X281364Y496859D01*
X283885Y495815D01*
X285815Y493885D01*
X286859Y491364D01*
X286859Y488636D01*
X285815Y486115D01*
X283885Y484185D01*
X281364Y483141D01*
X278636Y483141D01*
G37*
%LPD*%
%LPC*%
G36*
X278636Y398541D02*
X278636Y398541D01*
X276115Y399585D01*
X274185Y401515D01*
X273141Y404036D01*
X273141Y406764D01*
X274185Y409285D01*
X276115Y411215D01*
X278636Y412259D01*
X281364Y412259D01*
X283885Y411215D01*
X285815Y409285D01*
X286859Y406764D01*
X286859Y404036D01*
X285815Y401515D01*
X283885Y399585D01*
X281364Y398541D01*
X278636Y398541D01*
G37*
%LPD*%
%LPC*%
G36*
X426136Y306041D02*
X426136Y306041D01*
X423615Y307085D01*
X421685Y309015D01*
X420641Y311536D01*
X420641Y314264D01*
X421685Y316785D01*
X423615Y318715D01*
X426136Y319759D01*
X428864Y319759D01*
X431385Y318715D01*
X433315Y316785D01*
X434359Y314264D01*
X434359Y311536D01*
X433315Y309015D01*
X431385Y307085D01*
X428864Y306041D01*
X426136Y306041D01*
G37*
%LPD*%
%LPC*%
G36*
X278636Y373141D02*
X278636Y373141D01*
X276115Y374185D01*
X274185Y376115D01*
X273141Y378636D01*
X273141Y381364D01*
X274185Y383885D01*
X276115Y385815D01*
X278636Y386859D01*
X281364Y386859D01*
X283885Y385815D01*
X285815Y383885D01*
X286859Y381364D01*
X286859Y378636D01*
X285815Y376115D01*
X283885Y374185D01*
X281364Y373141D01*
X278636Y373141D01*
G37*
%LPD*%
%LPC*%
G36*
X426136Y280641D02*
X426136Y280641D01*
X423615Y281685D01*
X421685Y283615D01*
X420641Y286136D01*
X420641Y288864D01*
X421685Y291385D01*
X423615Y293315D01*
X426136Y294359D01*
X428864Y294359D01*
X431385Y293315D01*
X433315Y291385D01*
X434359Y288864D01*
X434359Y286136D01*
X433315Y283615D01*
X431385Y281685D01*
X428864Y280641D01*
X426136Y280641D01*
G37*
%LPD*%
%LPC*%
G36*
X278636Y347741D02*
X278636Y347741D01*
X276115Y348785D01*
X274185Y350715D01*
X273141Y353236D01*
X273141Y355964D01*
X274185Y358485D01*
X276115Y360415D01*
X278636Y361459D01*
X281364Y361459D01*
X283885Y360415D01*
X285815Y358485D01*
X286859Y355964D01*
X286859Y353236D01*
X285815Y350715D01*
X283885Y348785D01*
X281364Y347741D01*
X278636Y347741D01*
G37*
%LPD*%
%LPC*%
G36*
X1978636Y473141D02*
X1978636Y473141D01*
X1976115Y474185D01*
X1974185Y476115D01*
X1973141Y478636D01*
X1973141Y481364D01*
X1974185Y483885D01*
X1976115Y485815D01*
X1978636Y486859D01*
X1981364Y486859D01*
X1983885Y485815D01*
X1985815Y483885D01*
X1986859Y481364D01*
X1986859Y478636D01*
X1985815Y476115D01*
X1983885Y474185D01*
X1981364Y473141D01*
X1978636Y473141D01*
G37*
%LPD*%
%LPC*%
G36*
X278636Y457741D02*
X278636Y457741D01*
X276115Y458785D01*
X274185Y460715D01*
X273141Y463236D01*
X273141Y465964D01*
X274185Y468485D01*
X276115Y470415D01*
X278636Y471459D01*
X281364Y471459D01*
X283885Y470415D01*
X285815Y468485D01*
X286859Y465964D01*
X286859Y463236D01*
X285815Y460715D01*
X283885Y458785D01*
X281364Y457741D01*
X278636Y457741D01*
G37*
%LPD*%
%LPC*%
G36*
X841523Y366923D02*
X841523Y366923D01*
X841523Y375561D01*
X848420Y375561D01*
X849999Y375311D01*
X851520Y374816D01*
X852945Y374090D01*
X854239Y373150D01*
X855370Y372019D01*
X856310Y370725D01*
X857036Y369300D01*
X857531Y367779D01*
X857666Y366923D01*
X841523Y366923D01*
G37*
%LPD*%
%LPC*%
G36*
X822334Y366923D02*
X822334Y366923D01*
X822469Y367779D01*
X822964Y369300D01*
X823690Y370725D01*
X824630Y372019D01*
X825761Y373150D01*
X827055Y374090D01*
X828480Y374816D01*
X830001Y375311D01*
X831580Y375561D01*
X838477Y375561D01*
X838477Y366923D01*
X822334Y366923D01*
G37*
%LPD*%
%LPC*%
G36*
X841523Y355239D02*
X841523Y355239D01*
X841523Y363877D01*
X857666Y363877D01*
X857531Y363021D01*
X857036Y361500D01*
X856310Y360075D01*
X855370Y358781D01*
X854239Y357650D01*
X852945Y356710D01*
X851520Y355984D01*
X849999Y355489D01*
X848420Y355239D01*
X841523Y355239D01*
G37*
%LPD*%
%LPC*%
G36*
X831580Y355239D02*
X831580Y355239D01*
X830001Y355489D01*
X828480Y355984D01*
X827055Y356710D01*
X825761Y357650D01*
X824630Y358781D01*
X823690Y360075D01*
X822964Y361500D01*
X822469Y363021D01*
X822334Y363877D01*
X838477Y363877D01*
X838477Y355239D01*
X831580Y355239D01*
G37*
%LPD*%
%LPC*%
G36*
X1933846Y659197D02*
X1933846Y659197D01*
X1931713Y660081D01*
X1930081Y661713D01*
X1929197Y663846D01*
X1929197Y666154D01*
X1930081Y668287D01*
X1931713Y669919D01*
X1933846Y670803D01*
X1936154Y670803D01*
X1938287Y669919D01*
X1939919Y668287D01*
X1940803Y666154D01*
X1940803Y663846D01*
X1939919Y661713D01*
X1938287Y660081D01*
X1936154Y659197D01*
X1933846Y659197D01*
G37*
%LPD*%
%LPC*%
G36*
X658846Y184197D02*
X658846Y184197D01*
X656713Y185081D01*
X655081Y186713D01*
X654197Y188846D01*
X654197Y191154D01*
X655081Y193287D01*
X656713Y194919D01*
X658846Y195803D01*
X661154Y195803D01*
X663287Y194919D01*
X664919Y193287D01*
X665803Y191154D01*
X665803Y188846D01*
X664919Y186713D01*
X663287Y185081D01*
X661154Y184197D01*
X658846Y184197D01*
G37*
%LPD*%
%LPC*%
G36*
X1017907Y214947D02*
X1017907Y214947D01*
X1014947Y217907D01*
X1014947Y222093D01*
X1017907Y225053D01*
X1022093Y225053D01*
X1025053Y222093D01*
X1025053Y217907D01*
X1022093Y214947D01*
X1017907Y214947D01*
G37*
%LPD*%
%LPC*%
G36*
X347907Y194947D02*
X347907Y194947D01*
X344947Y197907D01*
X344947Y202093D01*
X347907Y205053D01*
X352093Y205053D01*
X355053Y202093D01*
X355053Y197907D01*
X352093Y194947D01*
X347907Y194947D01*
G37*
%LPD*%
%LPC*%
G36*
X1147907Y214947D02*
X1147907Y214947D01*
X1144947Y217907D01*
X1144947Y222093D01*
X1147907Y225053D01*
X1152093Y225053D01*
X1155053Y222093D01*
X1155053Y217907D01*
X1152093Y214947D01*
X1147907Y214947D01*
G37*
%LPD*%
%LPC*%
G36*
X617907Y204947D02*
X617907Y204947D01*
X614947Y207907D01*
X614947Y212093D01*
X617907Y215053D01*
X622093Y215053D01*
X625053Y212093D01*
X625053Y207907D01*
X622093Y204947D01*
X617907Y204947D01*
G37*
%LPD*%
%LPC*%
G36*
X432907Y384947D02*
X432907Y384947D01*
X429947Y387907D01*
X429947Y392093D01*
X432907Y395053D01*
X437093Y395053D01*
X440053Y392093D01*
X440053Y387907D01*
X437093Y384947D01*
X432907Y384947D01*
G37*
%LPD*%
%LPC*%
G36*
X507907Y164947D02*
X507907Y164947D01*
X504947Y167907D01*
X504947Y172093D01*
X507907Y175053D01*
X512093Y175053D01*
X515053Y172093D01*
X515053Y167907D01*
X512093Y164947D01*
X507907Y164947D01*
G37*
%LPD*%
%LPC*%
G36*
X237907Y164947D02*
X237907Y164947D01*
X234947Y167907D01*
X234947Y172093D01*
X237907Y175053D01*
X242093Y175053D01*
X245053Y172093D01*
X245053Y167907D01*
X242093Y164947D01*
X237907Y164947D01*
G37*
%LPD*%
%LPC*%
G36*
X617907Y154947D02*
X617907Y154947D01*
X614947Y157907D01*
X614947Y162093D01*
X617907Y165053D01*
X622093Y165053D01*
X625053Y162093D01*
X625053Y157907D01*
X622093Y154947D01*
X617907Y154947D01*
G37*
%LPD*%
%LPC*%
G36*
X347907Y154947D02*
X347907Y154947D01*
X344947Y157907D01*
X344947Y162093D01*
X347907Y165053D01*
X352093Y165053D01*
X355053Y162093D01*
X355053Y157907D01*
X352093Y154947D01*
X347907Y154947D01*
G37*
%LPD*%
%LPC*%
G36*
X382907Y544947D02*
X382907Y544947D01*
X379947Y547907D01*
X379947Y552093D01*
X382907Y555053D01*
X387093Y555053D01*
X390053Y552093D01*
X390053Y547907D01*
X387093Y544947D01*
X382907Y544947D01*
G37*
%LPD*%
%LPC*%
G36*
X157907Y484947D02*
X157907Y484947D01*
X154947Y487907D01*
X154947Y492093D01*
X157907Y495053D01*
X162093Y495053D01*
X165053Y492093D01*
X165053Y487907D01*
X162093Y484947D01*
X157907Y484947D01*
G37*
%LPD*%
%LPC*%
G36*
X429023Y263623D02*
X429023Y263623D01*
X429023Y270085D01*
X429871Y269916D01*
X431350Y269304D01*
X432682Y268414D01*
X433814Y267282D01*
X434704Y265950D01*
X435316Y264471D01*
X435485Y263623D01*
X429023Y263623D01*
G37*
%LPD*%
%LPC*%
G36*
X1981523Y456123D02*
X1981523Y456123D01*
X1981523Y462585D01*
X1982371Y462416D01*
X1983850Y461804D01*
X1985182Y460914D01*
X1986314Y459782D01*
X1987204Y458450D01*
X1987816Y456971D01*
X1987985Y456123D01*
X1981523Y456123D01*
G37*
%LPD*%
%LPC*%
G36*
X419515Y263623D02*
X419515Y263623D01*
X419684Y264471D01*
X420296Y265950D01*
X421186Y267282D01*
X422318Y268414D01*
X423650Y269304D01*
X425129Y269916D01*
X425977Y270085D01*
X425977Y263623D01*
X419515Y263623D01*
G37*
%LPD*%
%LPC*%
G36*
X429023Y260577D02*
X429023Y260577D01*
X435485Y260577D01*
X435316Y259729D01*
X434704Y258250D01*
X433814Y256918D01*
X432682Y255786D01*
X431350Y254896D01*
X429871Y254284D01*
X429023Y254115D01*
X429023Y260577D01*
G37*
%LPD*%
%LPC*%
G36*
X1972015Y456123D02*
X1972015Y456123D01*
X1972184Y456971D01*
X1972796Y458450D01*
X1973686Y459782D01*
X1974818Y460914D01*
X1976150Y461804D01*
X1977629Y462416D01*
X1978477Y462585D01*
X1978477Y456123D01*
X1972015Y456123D01*
G37*
%LPD*%
%LPC*%
G36*
X1981523Y453077D02*
X1981523Y453077D01*
X1987985Y453077D01*
X1987816Y452229D01*
X1987204Y450750D01*
X1986314Y449418D01*
X1985182Y448286D01*
X1983850Y447396D01*
X1982371Y446784D01*
X1981523Y446615D01*
X1981523Y453077D01*
G37*
%LPD*%
%LPC*%
G36*
X425129Y254284D02*
X425129Y254284D01*
X423650Y254896D01*
X422318Y255786D01*
X421186Y256918D01*
X420296Y258250D01*
X419684Y259729D01*
X419515Y260577D01*
X425977Y260577D01*
X425977Y254115D01*
X425129Y254284D01*
G37*
%LPD*%
%LPC*%
G36*
X1977629Y446784D02*
X1977629Y446784D01*
X1976150Y447396D01*
X1974818Y448286D01*
X1973686Y449418D01*
X1972796Y450750D01*
X1972184Y452229D01*
X1972015Y453077D01*
X1978477Y453077D01*
X1978477Y446615D01*
X1977629Y446784D01*
G37*
%LPD*%
%LPC*%
G36*
X2151199Y512699D02*
X2151199Y512699D01*
X2151199Y512701D01*
X2151201Y512701D01*
X2151201Y512699D01*
X2151199Y512699D01*
G37*
%LPD*%
%LPC*%
G36*
X2100399Y563499D02*
X2100399Y563499D01*
X2100399Y563501D01*
X2100401Y563501D01*
X2100401Y563499D01*
X2100399Y563499D01*
G37*
%LPD*%
%LPC*%
G36*
X1979999Y454599D02*
X1979999Y454599D01*
X1979999Y454601D01*
X1980001Y454601D01*
X1980001Y454599D01*
X1979999Y454599D01*
G37*
%LPD*%
%LPC*%
G36*
X2100399Y258699D02*
X2100399Y258699D01*
X2100399Y258701D01*
X2100401Y258701D01*
X2100401Y258699D01*
X2100399Y258699D01*
G37*
%LPD*%
%LPC*%
G36*
X427499Y262099D02*
X427499Y262099D01*
X427499Y262101D01*
X427501Y262101D01*
X427501Y262099D01*
X427499Y262099D01*
G37*
%LPD*%
%LPC*%
G36*
X839999Y365399D02*
X839999Y365399D01*
X839999Y365401D01*
X840001Y365401D01*
X840001Y365399D01*
X839999Y365399D01*
G37*
%LPD*%
%LPC*%
G36*
X2151199Y207899D02*
X2151199Y207899D01*
X2151199Y207901D01*
X2151201Y207901D01*
X2151201Y207899D01*
X2151199Y207899D01*
G37*
%LPD*%
D10*
X2136200Y106300D02*
X2166200Y106300D01*
X2115400Y157100D02*
X2085400Y157100D01*
X2136200Y207900D02*
X2166200Y207900D01*
X2115400Y258700D02*
X2085400Y258700D01*
X2136200Y309500D02*
X2166200Y309500D01*
X2115400Y360300D02*
X2085400Y360300D01*
X2136200Y411100D02*
X2166200Y411100D01*
X2115400Y461900D02*
X2085400Y461900D01*
X2136200Y512700D02*
X2166200Y512700D01*
X2115400Y563500D02*
X2085400Y563500D01*
X2136200Y614300D02*
X2166200Y614300D01*
X2115400Y665100D02*
X2085400Y665100D01*
X2085400Y766700D02*
X2115400Y766700D01*
X2136200Y715900D02*
X2166200Y715900D01*
X2166200Y817500D02*
X2136200Y817500D01*
D11*
X1980000Y454600D03*
X1980000Y480000D03*
X1980000Y505400D03*
D12*
X25654Y755804D03*
X25654Y844196D03*
D11*
X280000Y515400D03*
X280000Y490000D03*
X280000Y464600D03*
X280000Y354600D03*
X280000Y380000D03*
X280000Y405400D03*
D12*
X25654Y555804D03*
X25654Y644196D03*
D11*
X427500Y312900D03*
X427500Y287500D03*
X427500Y262100D03*
D12*
X25654Y355804D03*
X25654Y444196D03*
D13*
X832380Y365400D02*
X847620Y365400D01*
X847620Y340000D02*
X832380Y340000D01*
X832380Y314600D02*
X847620Y314600D01*
X847620Y167300D02*
X832380Y167300D01*
X832380Y192700D02*
X847620Y192700D01*
X1182380Y132700D02*
X1197620Y132700D01*
X1197620Y107300D02*
X1182380Y107300D01*
X1182380Y365400D02*
X1197620Y365400D01*
X1197620Y340000D02*
X1182380Y340000D01*
X1182380Y314600D02*
X1197620Y314600D01*
D12*
X25654Y155804D03*
X25654Y244196D03*
D14*
X30000Y970000D03*
X30000Y30000D03*
X2140000Y970000D03*
X2140000Y30000D03*
D15*
X65000Y815000D03*
X65000Y785000D03*
X135000Y815000D03*
X135000Y785000D03*
X170000Y785000D03*
X170000Y835000D03*
X197500Y835000D03*
X197500Y795000D03*
X240000Y785000D03*
X240000Y840000D03*
D16*
X280000Y830000D03*
D15*
X320000Y855000D03*
X320000Y780000D03*
X362500Y855000D03*
X362500Y825000D03*
D16*
X320000Y810000D03*
D15*
X360000Y780000D03*
X400000Y815000D03*
X430000Y815000D03*
X430000Y860000D03*
X360000Y750000D03*
X395000Y740000D03*
X430000Y760000D03*
X430000Y720000D03*
X470000Y730000D03*
X490000Y760000D03*
X510000Y700000D03*
X470000Y870000D03*
X575000Y710000D03*
X590000Y780000D03*
X615000Y785000D03*
X640000Y790000D03*
X667500Y810000D03*
X700000Y820000D03*
X700000Y930000D03*
X80000Y700000D03*
X260000Y700000D03*
X80000Y630000D03*
X260000Y630000D03*
X440000Y630000D03*
X550000Y640000D03*
X80000Y570000D03*
X260000Y570000D03*
X440000Y570000D03*
X550000Y570000D03*
X610000Y570000D03*
X470000Y960000D03*
X590000Y885000D03*
X840000Y940000D03*
X840000Y830000D03*
X840000Y770000D03*
X660000Y730000D03*
X660000Y640000D03*
X840000Y620000D03*
X80000Y430000D03*
X80000Y370000D03*
X80000Y230000D03*
X80000Y170000D03*
X220000Y450000D03*
X320000Y490000D03*
X350000Y520000D03*
X460000Y530000D03*
X407500Y470000D03*
X350000Y420000D03*
X410000Y390000D03*
X470000Y420000D03*
X490000Y460000D03*
X500000Y500000D03*
X570000Y510000D03*
X610000Y410000D03*
X600000Y340000D03*
X530000Y320000D03*
X370000Y310000D03*
X465000Y300000D03*
X532500Y275000D03*
X430000Y220000D03*
X250000Y270000D03*
X315000Y225000D03*
X300000Y150000D03*
X200000Y120000D03*
X200000Y50000D03*
X430000Y50000D03*
X430000Y150000D03*
X570000Y150000D03*
X650000Y140000D03*
X650000Y50000D03*
X760000Y100000D03*
X590000Y230000D03*
X620000Y280000D03*
X740000Y370000D03*
X840000Y250000D03*
X880000Y50000D03*
X910000Y180000D03*
X930000Y320000D03*
X930000Y410000D03*
X840000Y480000D03*
X710000Y500000D03*
X1080000Y480000D03*
X1080000Y410000D03*
X1080000Y360000D03*
X1010000Y300000D03*
X1015000Y235000D03*
X1080000Y285000D03*
X1017500Y140000D03*
X1080000Y160000D03*
X1080000Y50000D03*
X1145000Y120000D03*
X1190000Y170000D03*
X1290000Y50000D03*
X1290000Y180000D03*
X1230000Y240000D03*
X1145000Y235000D03*
X1150000Y265000D03*
X1290000Y300000D03*
X1290000Y410000D03*
X1290000Y480000D03*
X1080000Y620000D03*
X1080000Y770000D03*
X1080000Y830000D03*
X1080000Y940000D03*
X1290000Y940000D03*
X1290000Y830000D03*
X1290000Y770000D03*
X1290000Y620000D03*
X1510000Y50000D03*
X1510000Y180000D03*
X1510000Y300000D03*
X1510000Y410000D03*
X1510000Y480000D03*
X1510000Y620000D03*
X1510000Y770000D03*
X1510000Y830000D03*
X1510000Y940000D03*
X1720000Y940000D03*
X1720000Y830000D03*
X1720000Y770000D03*
X1720000Y620000D03*
X1720000Y480000D03*
X1720000Y410000D03*
X1720000Y300000D03*
X1720000Y180000D03*
X1720000Y50000D03*
X1930000Y50000D03*
X1930000Y180000D03*
X1930000Y300000D03*
X2030000Y380000D03*
X1920000Y510000D03*
X2010000Y590000D03*
X2030000Y750000D03*
X1930000Y830000D03*
X1930000Y940000D03*
X2030000Y890000D03*
D16*
X280000Y810000D03*
X1960000Y970000D03*
D17*
X660000Y970000D01*
D16*
X660000Y970000D03*
X560000Y762500D03*
D17*
X560000Y702500D01*
D16*
X560000Y702500D03*
X1790000Y590000D03*
D17*
X1770000Y610000D01*
X1750000Y800000D02*
X350000Y800000D01*
D16*
X350000Y800000D03*
D17*
X1770000Y780000D02*
X1770000Y610000D01*
X1770000Y780000D02*
X1750000Y800000D01*
X350000Y800000D02*
X280000Y800000D01*
D16*
X280000Y800000D03*
X160000Y490000D03*
X385000Y550000D03*
X350000Y200000D03*
X350000Y160000D03*
X620000Y210000D03*
X620000Y160000D03*
X1020000Y220000D03*
X435000Y390000D03*
X240000Y170000D03*
X510000Y170000D03*
X1150000Y220000D03*
X390000Y100000D03*
D17*
X730000Y100000D01*
X750000Y120000D01*
X750000Y240000D01*
D16*
X750000Y240000D03*
X80000Y600000D03*
D17*
X740000Y600000D01*
X770000Y570000D01*
D16*
X770000Y570000D03*
X1930000Y380000D03*
X620000Y440000D03*
D17*
X1930000Y420000D02*
X1930000Y380000D01*
X1930000Y420000D02*
X1910000Y440000D01*
X620000Y440000D01*
D16*
X80000Y400000D03*
D17*
X171309Y400000D01*
X376309Y195000D02*
X572500Y195000D01*
D16*
X572500Y195000D03*
D17*
X376309Y195000D02*
X171309Y400000D01*
D16*
X650000Y230000D03*
D17*
X650000Y270000D01*
X694600Y314600D02*
X840000Y314600D01*
X694600Y314600D02*
X650000Y270000D01*
D16*
X1135000Y310000D03*
D17*
X1135000Y207500D01*
D16*
X1135000Y207500D03*
X1140000Y180000D03*
D17*
X1190000Y230000D01*
X1190000Y314600D01*
X1190000Y340000D02*
X1090000Y340000D01*
X1070000Y320000D01*
X830000Y80000D01*
X200000Y80000D02*
X80000Y200000D01*
D16*
X80000Y200000D03*
D17*
X200000Y80000D02*
X830000Y80000D01*
D15*
X660000Y190000D03*
X1935000Y665000D03*
M02*
