G04 EAGLE Gerber RS-274X export*
G75*
%MOMM*%
%FSLAX34Y34*%
%LPD*%
%INCopper Layer 15*%
%IPPOS*%
%AMOC8*
5,1,8,0,0,1.08239X$1,22.5*%
G01*
%ADD10C,2.400300*%
%ADD11C,1.117600*%
%ADD12C,1.524000*%
%ADD13C,4.016000*%
%ADD14C,0.906400*%
%ADD15C,0.756400*%
%ADD16C,0.330000*%

G36*
X2224895Y2544D02*
X2224895Y2544D01*
X2224929Y2542D01*
X2225118Y2564D01*
X2225309Y2581D01*
X2225342Y2590D01*
X2225376Y2594D01*
X2225559Y2649D01*
X2225743Y2699D01*
X2225774Y2714D01*
X2225807Y2724D01*
X2225978Y2811D01*
X2226150Y2893D01*
X2226178Y2913D01*
X2226209Y2928D01*
X2226361Y3044D01*
X2226516Y3155D01*
X2226540Y3180D01*
X2226567Y3200D01*
X2226696Y3340D01*
X2226830Y3477D01*
X2226849Y3506D01*
X2226873Y3532D01*
X2226975Y3693D01*
X2227082Y3850D01*
X2227096Y3882D01*
X2227114Y3911D01*
X2227187Y4088D01*
X2227264Y4262D01*
X2227272Y4296D01*
X2227285Y4328D01*
X2227325Y4515D01*
X2227371Y4700D01*
X2227373Y4734D01*
X2227380Y4768D01*
X2227399Y5080D01*
X2227399Y994920D01*
X2227396Y994955D01*
X2227398Y994989D01*
X2227376Y995178D01*
X2227359Y995369D01*
X2227350Y995402D01*
X2227346Y995436D01*
X2227291Y995619D01*
X2227241Y995803D01*
X2227226Y995834D01*
X2227216Y995867D01*
X2227129Y996038D01*
X2227047Y996210D01*
X2227027Y996238D01*
X2227012Y996269D01*
X2226896Y996421D01*
X2226785Y996576D01*
X2226760Y996600D01*
X2226740Y996627D01*
X2226600Y996756D01*
X2226463Y996890D01*
X2226434Y996909D01*
X2226408Y996933D01*
X2226247Y997035D01*
X2226090Y997142D01*
X2226058Y997156D01*
X2226029Y997174D01*
X2225852Y997247D01*
X2225678Y997324D01*
X2225644Y997332D01*
X2225612Y997345D01*
X2225425Y997385D01*
X2225240Y997431D01*
X2225206Y997433D01*
X2225172Y997440D01*
X2224860Y997459D01*
X5080Y997459D01*
X5045Y997456D01*
X5011Y997458D01*
X4822Y997436D01*
X4631Y997419D01*
X4598Y997410D01*
X4564Y997406D01*
X4381Y997351D01*
X4197Y997301D01*
X4166Y997286D01*
X4133Y997276D01*
X3962Y997189D01*
X3790Y997107D01*
X3762Y997087D01*
X3731Y997072D01*
X3579Y996956D01*
X3424Y996845D01*
X3400Y996820D01*
X3373Y996800D01*
X3244Y996660D01*
X3110Y996523D01*
X3091Y996494D01*
X3067Y996468D01*
X2965Y996307D01*
X2858Y996150D01*
X2844Y996118D01*
X2826Y996089D01*
X2753Y995912D01*
X2676Y995738D01*
X2668Y995704D01*
X2655Y995672D01*
X2615Y995485D01*
X2569Y995300D01*
X2567Y995266D01*
X2560Y995232D01*
X2541Y994920D01*
X2541Y5080D01*
X2544Y5045D01*
X2542Y5011D01*
X2564Y4822D01*
X2581Y4631D01*
X2590Y4598D01*
X2594Y4564D01*
X2649Y4381D01*
X2699Y4197D01*
X2714Y4166D01*
X2724Y4133D01*
X2811Y3962D01*
X2893Y3790D01*
X2913Y3762D01*
X2928Y3731D01*
X3044Y3579D01*
X3155Y3424D01*
X3180Y3400D01*
X3200Y3373D01*
X3340Y3244D01*
X3477Y3110D01*
X3506Y3091D01*
X3532Y3067D01*
X3693Y2965D01*
X3850Y2858D01*
X3882Y2844D01*
X3911Y2826D01*
X4088Y2753D01*
X4262Y2676D01*
X4296Y2668D01*
X4328Y2655D01*
X4515Y2615D01*
X4700Y2569D01*
X4734Y2567D01*
X4768Y2560D01*
X5080Y2541D01*
X2224860Y2541D01*
X2224895Y2544D01*
G37*
%LPC*%
G36*
X1814037Y525174D02*
X1814037Y525174D01*
X1812674Y526537D01*
X1812674Y653463D01*
X1814037Y654826D01*
X1915963Y654826D01*
X1917326Y653463D01*
X1917326Y526537D01*
X1915963Y525174D01*
X1814037Y525174D01*
G37*
%LPD*%
%LPC*%
G36*
X1814037Y680174D02*
X1814037Y680174D01*
X1812674Y681537D01*
X1812674Y798463D01*
X1814037Y799826D01*
X1915963Y799826D01*
X1917326Y798463D01*
X1917326Y681537D01*
X1915963Y680174D01*
X1814037Y680174D01*
G37*
%LPD*%
%LPC*%
G36*
X2135753Y948649D02*
X2135753Y948649D01*
X2127906Y951900D01*
X2121900Y957906D01*
X2118649Y965753D01*
X2118649Y974247D01*
X2121900Y982094D01*
X2127906Y988100D01*
X2135753Y991351D01*
X2144247Y991351D01*
X2152094Y988100D01*
X2158100Y982094D01*
X2161351Y974247D01*
X2161351Y965753D01*
X2158100Y957906D01*
X2152094Y951900D01*
X2144247Y948649D01*
X2135753Y948649D01*
G37*
%LPD*%
%LPC*%
G36*
X25753Y948649D02*
X25753Y948649D01*
X17906Y951900D01*
X11900Y957906D01*
X8649Y965753D01*
X8649Y974247D01*
X11900Y982094D01*
X17906Y988100D01*
X25753Y991351D01*
X34247Y991351D01*
X42094Y988100D01*
X48100Y982094D01*
X51351Y974247D01*
X51351Y965753D01*
X48100Y957906D01*
X42094Y951900D01*
X34247Y948649D01*
X25753Y948649D01*
G37*
%LPD*%
%LPC*%
G36*
X25753Y8649D02*
X25753Y8649D01*
X17906Y11900D01*
X11900Y17906D01*
X8649Y25753D01*
X8649Y34247D01*
X11900Y42094D01*
X17906Y48100D01*
X25753Y51351D01*
X34247Y51351D01*
X42094Y48100D01*
X48100Y42094D01*
X51351Y34247D01*
X51351Y25753D01*
X48100Y17906D01*
X42094Y11900D01*
X34247Y8649D01*
X25753Y8649D01*
G37*
%LPD*%
%LPC*%
G36*
X2135753Y8649D02*
X2135753Y8649D01*
X2127906Y11900D01*
X2121900Y17906D01*
X2118649Y25753D01*
X2118649Y34247D01*
X2121900Y42094D01*
X2127906Y48100D01*
X2135753Y51351D01*
X2144247Y51351D01*
X2152094Y48100D01*
X2158100Y42094D01*
X2161351Y34247D01*
X2161351Y25753D01*
X2158100Y17906D01*
X2152094Y11900D01*
X2144247Y8649D01*
X2135753Y8649D01*
G37*
%LPD*%
%LPC*%
G36*
X509037Y715174D02*
X509037Y715174D01*
X507674Y716537D01*
X507674Y748463D01*
X509037Y749826D01*
X540963Y749826D01*
X542326Y748463D01*
X542326Y716537D01*
X540963Y715174D01*
X509037Y715174D01*
G37*
%LPD*%
%LPC*%
G36*
X2198716Y927989D02*
X2198716Y927989D01*
X2192647Y930503D01*
X2188003Y935147D01*
X2185489Y941216D01*
X2185489Y947784D01*
X2188003Y953853D01*
X2192647Y958497D01*
X2198716Y961011D01*
X2205284Y961011D01*
X2211353Y958497D01*
X2215997Y953853D01*
X2218511Y947784D01*
X2218511Y941216D01*
X2215997Y935147D01*
X2211353Y930503D01*
X2205284Y927989D01*
X2198716Y927989D01*
G37*
%LPD*%
%LPC*%
G36*
X2198716Y38989D02*
X2198716Y38989D01*
X2192647Y41503D01*
X2188003Y46147D01*
X2185489Y52216D01*
X2185489Y58784D01*
X2188003Y64853D01*
X2192647Y69497D01*
X2198716Y72011D01*
X2205284Y72011D01*
X2211353Y69497D01*
X2215997Y64853D01*
X2218511Y58784D01*
X2218511Y52216D01*
X2215997Y46147D01*
X2211353Y41503D01*
X2205284Y38989D01*
X2198716Y38989D01*
G37*
%LPD*%
%LPC*%
G36*
X2148560Y397828D02*
X2148560Y397828D01*
X2143682Y399848D01*
X2139948Y403582D01*
X2137928Y408460D01*
X2137928Y413740D01*
X2139948Y418618D01*
X2143682Y422352D01*
X2148560Y424372D01*
X2153840Y424372D01*
X2158718Y422352D01*
X2162452Y418618D01*
X2164472Y413740D01*
X2164472Y408460D01*
X2162452Y403582D01*
X2158718Y399848D01*
X2153840Y397828D01*
X2148560Y397828D01*
G37*
%LPD*%
%LPC*%
G36*
X2148560Y601028D02*
X2148560Y601028D01*
X2143682Y603048D01*
X2139948Y606782D01*
X2137928Y611660D01*
X2137928Y616940D01*
X2139948Y621818D01*
X2143682Y625552D01*
X2148560Y627572D01*
X2153840Y627572D01*
X2158718Y625552D01*
X2162452Y621818D01*
X2164472Y616940D01*
X2164472Y611660D01*
X2162452Y606782D01*
X2158718Y603048D01*
X2153840Y601028D01*
X2148560Y601028D01*
G37*
%LPD*%
%LPC*%
G36*
X2148560Y804228D02*
X2148560Y804228D01*
X2143682Y806248D01*
X2139948Y809982D01*
X2137928Y814860D01*
X2137928Y820140D01*
X2139948Y825018D01*
X2143682Y828752D01*
X2148560Y830772D01*
X2153840Y830772D01*
X2158718Y828752D01*
X2162452Y825018D01*
X2164472Y820140D01*
X2164472Y814860D01*
X2162452Y809982D01*
X2158718Y806248D01*
X2153840Y804228D01*
X2148560Y804228D01*
G37*
%LPD*%
%LPC*%
G36*
X2148560Y499428D02*
X2148560Y499428D01*
X2143682Y501448D01*
X2139948Y505182D01*
X2137928Y510060D01*
X2137928Y515340D01*
X2139948Y520218D01*
X2143682Y523952D01*
X2148560Y525972D01*
X2153840Y525972D01*
X2158718Y523952D01*
X2162452Y520218D01*
X2164472Y515340D01*
X2164472Y510060D01*
X2162452Y505182D01*
X2158718Y501448D01*
X2153840Y499428D01*
X2148560Y499428D01*
G37*
%LPD*%
%LPC*%
G36*
X2097760Y753428D02*
X2097760Y753428D01*
X2092882Y755448D01*
X2089148Y759182D01*
X2087128Y764060D01*
X2087128Y769340D01*
X2089148Y774218D01*
X2092882Y777952D01*
X2097760Y779972D01*
X2103040Y779972D01*
X2107918Y777952D01*
X2111652Y774218D01*
X2113672Y769340D01*
X2113672Y764060D01*
X2111652Y759182D01*
X2107918Y755448D01*
X2103040Y753428D01*
X2097760Y753428D01*
G37*
%LPD*%
%LPC*%
G36*
X2097760Y245428D02*
X2097760Y245428D01*
X2092882Y247448D01*
X2089148Y251182D01*
X2087128Y256060D01*
X2087128Y261340D01*
X2089148Y266218D01*
X2092882Y269952D01*
X2097760Y271972D01*
X2103040Y271972D01*
X2107918Y269952D01*
X2111652Y266218D01*
X2113672Y261340D01*
X2113672Y256060D01*
X2111652Y251182D01*
X2107918Y247448D01*
X2103040Y245428D01*
X2097760Y245428D01*
G37*
%LPD*%
%LPC*%
G36*
X2097760Y651828D02*
X2097760Y651828D01*
X2092882Y653848D01*
X2089148Y657582D01*
X2087128Y662460D01*
X2087128Y667740D01*
X2089148Y672618D01*
X2092882Y676352D01*
X2097760Y678372D01*
X2103040Y678372D01*
X2107918Y676352D01*
X2111652Y672618D01*
X2113672Y667740D01*
X2113672Y662460D01*
X2111652Y657582D01*
X2107918Y653848D01*
X2103040Y651828D01*
X2097760Y651828D01*
G37*
%LPD*%
%LPC*%
G36*
X2097760Y347028D02*
X2097760Y347028D01*
X2092882Y349048D01*
X2089148Y352782D01*
X2087128Y357660D01*
X2087128Y362940D01*
X2089148Y367818D01*
X2092882Y371552D01*
X2097760Y373572D01*
X2103040Y373572D01*
X2107918Y371552D01*
X2111652Y367818D01*
X2113672Y362940D01*
X2113672Y357660D01*
X2111652Y352782D01*
X2107918Y349048D01*
X2103040Y347028D01*
X2097760Y347028D01*
G37*
%LPD*%
%LPC*%
G36*
X2148560Y194628D02*
X2148560Y194628D01*
X2143682Y196648D01*
X2139948Y200382D01*
X2137928Y205260D01*
X2137928Y210540D01*
X2139948Y215418D01*
X2143682Y219152D01*
X2148560Y221172D01*
X2153840Y221172D01*
X2158718Y219152D01*
X2162452Y215418D01*
X2164472Y210540D01*
X2164472Y205260D01*
X2162452Y200382D01*
X2158718Y196648D01*
X2153840Y194628D01*
X2148560Y194628D01*
G37*
%LPD*%
%LPC*%
G36*
X2097760Y143828D02*
X2097760Y143828D01*
X2092882Y145848D01*
X2089148Y149582D01*
X2087128Y154460D01*
X2087128Y159740D01*
X2089148Y164618D01*
X2092882Y168352D01*
X2097760Y170372D01*
X2103040Y170372D01*
X2107918Y168352D01*
X2111652Y164618D01*
X2113672Y159740D01*
X2113672Y154460D01*
X2111652Y149582D01*
X2107918Y145848D01*
X2103040Y143828D01*
X2097760Y143828D01*
G37*
%LPD*%
%LPC*%
G36*
X2148560Y93028D02*
X2148560Y93028D01*
X2143682Y95048D01*
X2139948Y98782D01*
X2137928Y103660D01*
X2137928Y108940D01*
X2139948Y113818D01*
X2143682Y117552D01*
X2148560Y119572D01*
X2153840Y119572D01*
X2158718Y117552D01*
X2162452Y113818D01*
X2164472Y108940D01*
X2164472Y103660D01*
X2162452Y98782D01*
X2158718Y95048D01*
X2153840Y93028D01*
X2148560Y93028D01*
G37*
%LPD*%
%LPC*%
G36*
X2148560Y702628D02*
X2148560Y702628D01*
X2143682Y704648D01*
X2139948Y708382D01*
X2137928Y713260D01*
X2137928Y718540D01*
X2139948Y723418D01*
X2143682Y727152D01*
X2148560Y729172D01*
X2153840Y729172D01*
X2158718Y727152D01*
X2162452Y723418D01*
X2164472Y718540D01*
X2164472Y713260D01*
X2162452Y708382D01*
X2158718Y704648D01*
X2153840Y702628D01*
X2148560Y702628D01*
G37*
%LPD*%
%LPC*%
G36*
X2097760Y448628D02*
X2097760Y448628D01*
X2092882Y450648D01*
X2089148Y454382D01*
X2087128Y459260D01*
X2087128Y464540D01*
X2089148Y469418D01*
X2092882Y473152D01*
X2097760Y475172D01*
X2103040Y475172D01*
X2107918Y473152D01*
X2111652Y469418D01*
X2113672Y464540D01*
X2113672Y459260D01*
X2111652Y454382D01*
X2107918Y450648D01*
X2103040Y448628D01*
X2097760Y448628D01*
G37*
%LPD*%
%LPC*%
G36*
X2097760Y550228D02*
X2097760Y550228D01*
X2092882Y552248D01*
X2089148Y555982D01*
X2087128Y560860D01*
X2087128Y566140D01*
X2089148Y571018D01*
X2092882Y574752D01*
X2097760Y576772D01*
X2103040Y576772D01*
X2107918Y574752D01*
X2111652Y571018D01*
X2113672Y566140D01*
X2113672Y560860D01*
X2111652Y555982D01*
X2107918Y552248D01*
X2103040Y550228D01*
X2097760Y550228D01*
G37*
%LPD*%
%LPC*%
G36*
X1188232Y331109D02*
X1188232Y331109D01*
X1184964Y332463D01*
X1182463Y334964D01*
X1181109Y338232D01*
X1181109Y341768D01*
X1182463Y345036D01*
X1184964Y347537D01*
X1188232Y348891D01*
X1191768Y348891D01*
X1195036Y347537D01*
X1197537Y345036D01*
X1198891Y341768D01*
X1198891Y338232D01*
X1197537Y334964D01*
X1195036Y332463D01*
X1191768Y331109D01*
X1188232Y331109D01*
G37*
%LPD*%
%LPC*%
G36*
X838232Y356509D02*
X838232Y356509D01*
X834964Y357863D01*
X832463Y360364D01*
X831109Y363632D01*
X831109Y367168D01*
X832463Y370436D01*
X834964Y372937D01*
X838232Y374291D01*
X841768Y374291D01*
X845036Y372937D01*
X847537Y370436D01*
X848891Y367168D01*
X848891Y363632D01*
X847537Y360364D01*
X845036Y357863D01*
X841768Y356509D01*
X838232Y356509D01*
G37*
%LPD*%
%LPC*%
G36*
X1188232Y356509D02*
X1188232Y356509D01*
X1184964Y357863D01*
X1182463Y360364D01*
X1181109Y363632D01*
X1181109Y367168D01*
X1182463Y370436D01*
X1184964Y372937D01*
X1188232Y374291D01*
X1191768Y374291D01*
X1195036Y372937D01*
X1197537Y370436D01*
X1198891Y367168D01*
X1198891Y363632D01*
X1197537Y360364D01*
X1195036Y357863D01*
X1191768Y356509D01*
X1188232Y356509D01*
G37*
%LPD*%
%LPC*%
G36*
X838232Y305709D02*
X838232Y305709D01*
X834964Y307063D01*
X832463Y309564D01*
X831109Y312832D01*
X831109Y316368D01*
X832463Y319636D01*
X834964Y322137D01*
X838232Y323491D01*
X841768Y323491D01*
X845036Y322137D01*
X847537Y319636D01*
X848891Y316368D01*
X848891Y312832D01*
X847537Y309564D01*
X845036Y307063D01*
X841768Y305709D01*
X838232Y305709D01*
G37*
%LPD*%
%LPC*%
G36*
X838232Y183809D02*
X838232Y183809D01*
X834964Y185163D01*
X832463Y187664D01*
X831109Y190932D01*
X831109Y194468D01*
X832463Y197736D01*
X834964Y200237D01*
X838232Y201591D01*
X841768Y201591D01*
X845036Y200237D01*
X847537Y197736D01*
X848891Y194468D01*
X848891Y190932D01*
X847537Y187664D01*
X845036Y185163D01*
X841768Y183809D01*
X838232Y183809D01*
G37*
%LPD*%
%LPC*%
G36*
X838232Y158409D02*
X838232Y158409D01*
X834964Y159763D01*
X832463Y162264D01*
X831109Y165532D01*
X831109Y169068D01*
X832463Y172336D01*
X834964Y174837D01*
X838232Y176191D01*
X841768Y176191D01*
X845036Y174837D01*
X847537Y172336D01*
X848891Y169068D01*
X848891Y165532D01*
X847537Y162264D01*
X845036Y159763D01*
X841768Y158409D01*
X838232Y158409D01*
G37*
%LPD*%
%LPC*%
G36*
X838232Y331109D02*
X838232Y331109D01*
X834964Y332463D01*
X832463Y334964D01*
X831109Y338232D01*
X831109Y341768D01*
X832463Y345036D01*
X834964Y347537D01*
X838232Y348891D01*
X841768Y348891D01*
X845036Y347537D01*
X847537Y345036D01*
X848891Y341768D01*
X848891Y338232D01*
X847537Y334964D01*
X845036Y332463D01*
X841768Y331109D01*
X838232Y331109D01*
G37*
%LPD*%
%LPC*%
G36*
X1188232Y123809D02*
X1188232Y123809D01*
X1184964Y125163D01*
X1182463Y127664D01*
X1181109Y130932D01*
X1181109Y134468D01*
X1182463Y137736D01*
X1184964Y140237D01*
X1188232Y141591D01*
X1191768Y141591D01*
X1195036Y140237D01*
X1197537Y137736D01*
X1198891Y134468D01*
X1198891Y130932D01*
X1197537Y127664D01*
X1195036Y125163D01*
X1191768Y123809D01*
X1188232Y123809D01*
G37*
%LPD*%
%LPC*%
G36*
X1188232Y305709D02*
X1188232Y305709D01*
X1184964Y307063D01*
X1182463Y309564D01*
X1181109Y312832D01*
X1181109Y316368D01*
X1182463Y319636D01*
X1184964Y322137D01*
X1188232Y323491D01*
X1191768Y323491D01*
X1195036Y322137D01*
X1197537Y319636D01*
X1198891Y316368D01*
X1198891Y312832D01*
X1197537Y309564D01*
X1195036Y307063D01*
X1191768Y305709D01*
X1188232Y305709D01*
G37*
%LPD*%
%LPC*%
G36*
X1188232Y98409D02*
X1188232Y98409D01*
X1184964Y99763D01*
X1182463Y102264D01*
X1181109Y105532D01*
X1181109Y109068D01*
X1182463Y112336D01*
X1184964Y114837D01*
X1188232Y116191D01*
X1191768Y116191D01*
X1195036Y114837D01*
X1197537Y112336D01*
X1198891Y109068D01*
X1198891Y105532D01*
X1197537Y102264D01*
X1195036Y99763D01*
X1191768Y98409D01*
X1188232Y98409D01*
G37*
%LPD*%
%LPC*%
G36*
X278995Y794947D02*
X278995Y794947D01*
X277138Y795716D01*
X275716Y797138D01*
X274947Y798995D01*
X274947Y801005D01*
X275716Y802862D01*
X276059Y803204D01*
X276081Y803231D01*
X276107Y803254D01*
X276173Y803337D01*
X276177Y803341D01*
X276181Y803347D01*
X276225Y803403D01*
X276348Y803550D01*
X276365Y803580D01*
X276386Y803607D01*
X276477Y803775D01*
X276571Y803941D01*
X276583Y803973D01*
X276599Y804004D01*
X276658Y804186D01*
X276722Y804365D01*
X276728Y804399D01*
X276738Y804432D01*
X276764Y804621D01*
X276795Y804809D01*
X276795Y804844D01*
X276800Y804878D01*
X276792Y805068D01*
X276789Y805260D01*
X276783Y805294D01*
X276781Y805328D01*
X276740Y805514D01*
X276704Y805702D01*
X276691Y805734D01*
X276684Y805768D01*
X276610Y805944D01*
X276541Y806122D01*
X276523Y806151D01*
X276510Y806183D01*
X276407Y806343D01*
X276308Y806506D01*
X276285Y806532D01*
X276266Y806561D01*
X276059Y806796D01*
X275717Y807138D01*
X274947Y808995D01*
X274947Y811005D01*
X275716Y812862D01*
X277138Y814284D01*
X278995Y815053D01*
X281005Y815053D01*
X282862Y814284D01*
X284284Y812862D01*
X285053Y811005D01*
X285053Y808995D01*
X284283Y807138D01*
X283941Y806796D01*
X283919Y806769D01*
X283893Y806746D01*
X283775Y806597D01*
X283652Y806450D01*
X283635Y806420D01*
X283614Y806393D01*
X283524Y806225D01*
X283429Y806059D01*
X283417Y806027D01*
X283401Y805996D01*
X283342Y805814D01*
X283278Y805635D01*
X283272Y805601D01*
X283262Y805568D01*
X283236Y805379D01*
X283205Y805191D01*
X283205Y805156D01*
X283200Y805122D01*
X283208Y804931D01*
X283211Y804741D01*
X283217Y804707D01*
X283219Y804672D01*
X283260Y804486D01*
X283296Y804298D01*
X283309Y804266D01*
X283316Y804232D01*
X283390Y804056D01*
X283459Y803878D01*
X283476Y803849D01*
X283490Y803817D01*
X283593Y803657D01*
X283692Y803494D01*
X283715Y803468D01*
X283734Y803439D01*
X283941Y803204D01*
X284284Y802862D01*
X285053Y801005D01*
X285053Y798995D01*
X284284Y797138D01*
X282862Y795716D01*
X281005Y794947D01*
X278995Y794947D01*
G37*
%LPD*%
%LPC*%
G36*
X278636Y347741D02*
X278636Y347741D01*
X276115Y348785D01*
X274185Y350715D01*
X273141Y353236D01*
X273141Y355964D01*
X274185Y358485D01*
X276115Y360415D01*
X278636Y361459D01*
X281364Y361459D01*
X283885Y360415D01*
X285815Y358485D01*
X286859Y355964D01*
X286859Y353236D01*
X285815Y350715D01*
X283885Y348785D01*
X281364Y347741D01*
X278636Y347741D01*
G37*
%LPD*%
%LPC*%
G36*
X1978636Y498541D02*
X1978636Y498541D01*
X1976115Y499585D01*
X1974185Y501515D01*
X1973141Y504036D01*
X1973141Y506764D01*
X1974185Y509285D01*
X1976115Y511215D01*
X1978636Y512259D01*
X1981364Y512259D01*
X1983885Y511215D01*
X1985815Y509285D01*
X1986859Y506764D01*
X1986859Y504036D01*
X1985815Y501515D01*
X1983885Y499585D01*
X1981364Y498541D01*
X1978636Y498541D01*
G37*
%LPD*%
%LPC*%
G36*
X278636Y508541D02*
X278636Y508541D01*
X276115Y509585D01*
X274185Y511515D01*
X273141Y514036D01*
X273141Y516764D01*
X274185Y519285D01*
X276115Y521215D01*
X278636Y522259D01*
X281364Y522259D01*
X283885Y521215D01*
X285815Y519285D01*
X286859Y516764D01*
X286859Y514036D01*
X285815Y511515D01*
X283885Y509585D01*
X281364Y508541D01*
X278636Y508541D01*
G37*
%LPD*%
%LPC*%
G36*
X278636Y398541D02*
X278636Y398541D01*
X276115Y399585D01*
X274185Y401515D01*
X273141Y404036D01*
X273141Y406764D01*
X274185Y409285D01*
X276115Y411215D01*
X278636Y412259D01*
X281364Y412259D01*
X283885Y411215D01*
X285815Y409285D01*
X286859Y406764D01*
X286859Y404036D01*
X285815Y401515D01*
X283885Y399585D01*
X281364Y398541D01*
X278636Y398541D01*
G37*
%LPD*%
%LPC*%
G36*
X278636Y483141D02*
X278636Y483141D01*
X276115Y484185D01*
X274185Y486115D01*
X273141Y488636D01*
X273141Y491364D01*
X274185Y493885D01*
X276115Y495815D01*
X278636Y496859D01*
X281364Y496859D01*
X283885Y495815D01*
X285815Y493885D01*
X286859Y491364D01*
X286859Y488636D01*
X285815Y486115D01*
X283885Y484185D01*
X281364Y483141D01*
X278636Y483141D01*
G37*
%LPD*%
%LPC*%
G36*
X426136Y306041D02*
X426136Y306041D01*
X423615Y307085D01*
X421685Y309015D01*
X420641Y311536D01*
X420641Y314264D01*
X421685Y316785D01*
X423615Y318715D01*
X426136Y319759D01*
X428864Y319759D01*
X431385Y318715D01*
X433315Y316785D01*
X434359Y314264D01*
X434359Y311536D01*
X433315Y309015D01*
X431385Y307085D01*
X428864Y306041D01*
X426136Y306041D01*
G37*
%LPD*%
%LPC*%
G36*
X1978636Y473141D02*
X1978636Y473141D01*
X1976115Y474185D01*
X1974185Y476115D01*
X1973141Y478636D01*
X1973141Y481364D01*
X1974185Y483885D01*
X1976115Y485815D01*
X1978636Y486859D01*
X1981364Y486859D01*
X1983885Y485815D01*
X1985815Y483885D01*
X1986859Y481364D01*
X1986859Y478636D01*
X1985815Y476115D01*
X1983885Y474185D01*
X1981364Y473141D01*
X1978636Y473141D01*
G37*
%LPD*%
%LPC*%
G36*
X278636Y457741D02*
X278636Y457741D01*
X276115Y458785D01*
X274185Y460715D01*
X273141Y463236D01*
X273141Y465964D01*
X274185Y468485D01*
X276115Y470415D01*
X278636Y471459D01*
X281364Y471459D01*
X283885Y470415D01*
X285815Y468485D01*
X286859Y465964D01*
X286859Y463236D01*
X285815Y460715D01*
X283885Y458785D01*
X281364Y457741D01*
X278636Y457741D01*
G37*
%LPD*%
%LPC*%
G36*
X426136Y255241D02*
X426136Y255241D01*
X423615Y256285D01*
X421685Y258215D01*
X420641Y260736D01*
X420641Y263464D01*
X421685Y265985D01*
X423615Y267915D01*
X426136Y268959D01*
X428864Y268959D01*
X431385Y267915D01*
X433315Y265985D01*
X434359Y263464D01*
X434359Y260736D01*
X433315Y258215D01*
X431385Y256285D01*
X428864Y255241D01*
X426136Y255241D01*
G37*
%LPD*%
%LPC*%
G36*
X1978636Y447741D02*
X1978636Y447741D01*
X1976115Y448785D01*
X1974185Y450715D01*
X1973141Y453236D01*
X1973141Y455964D01*
X1974185Y458485D01*
X1976115Y460415D01*
X1978636Y461459D01*
X1981364Y461459D01*
X1983885Y460415D01*
X1985815Y458485D01*
X1986859Y455964D01*
X1986859Y453236D01*
X1985815Y450715D01*
X1983885Y448785D01*
X1981364Y447741D01*
X1978636Y447741D01*
G37*
%LPD*%
%LPC*%
G36*
X278636Y373141D02*
X278636Y373141D01*
X276115Y374185D01*
X274185Y376115D01*
X273141Y378636D01*
X273141Y381364D01*
X274185Y383885D01*
X276115Y385815D01*
X278636Y386859D01*
X281364Y386859D01*
X283885Y385815D01*
X285815Y383885D01*
X286859Y381364D01*
X286859Y378636D01*
X285815Y376115D01*
X283885Y374185D01*
X281364Y373141D01*
X278636Y373141D01*
G37*
%LPD*%
%LPC*%
G36*
X426136Y280641D02*
X426136Y280641D01*
X423615Y281685D01*
X421685Y283615D01*
X420641Y286136D01*
X420641Y288864D01*
X421685Y291385D01*
X423615Y293315D01*
X426136Y294359D01*
X428864Y294359D01*
X431385Y293315D01*
X433315Y291385D01*
X434359Y288864D01*
X434359Y286136D01*
X433315Y283615D01*
X431385Y281685D01*
X428864Y280641D01*
X426136Y280641D01*
G37*
%LPD*%
%LPC*%
G36*
X1146721Y229141D02*
X1146721Y229141D01*
X1146547Y229178D01*
X1146488Y229182D01*
X1146452Y229188D01*
X1146389Y229188D01*
X1146235Y229197D01*
X1143846Y229197D01*
X1141713Y230081D01*
X1140081Y231713D01*
X1139197Y233846D01*
X1139197Y236154D01*
X1140081Y238287D01*
X1141713Y239919D01*
X1143846Y240803D01*
X1146154Y240803D01*
X1148287Y239919D01*
X1149919Y238287D01*
X1150803Y236154D01*
X1150803Y233846D01*
X1149919Y231713D01*
X1148287Y230081D01*
X1147942Y229938D01*
X1147785Y229856D01*
X1147625Y229779D01*
X1147586Y229752D01*
X1147543Y229729D01*
X1147403Y229621D01*
X1147258Y229517D01*
X1147225Y229483D01*
X1147187Y229454D01*
X1147068Y229322D01*
X1146944Y229195D01*
X1146918Y229155D01*
X1146886Y229120D01*
X1146881Y229112D01*
X1146721Y229141D01*
G37*
%LPD*%
%LPC*%
G36*
X1288846Y824197D02*
X1288846Y824197D01*
X1286713Y825081D01*
X1285081Y826713D01*
X1284197Y828846D01*
X1284197Y831154D01*
X1285081Y833287D01*
X1286713Y834919D01*
X1288846Y835803D01*
X1291154Y835803D01*
X1293287Y834919D01*
X1294919Y833287D01*
X1295803Y831154D01*
X1295803Y828846D01*
X1294919Y826713D01*
X1293287Y825081D01*
X1291154Y824197D01*
X1288846Y824197D01*
G37*
%LPD*%
%LPC*%
G36*
X1078846Y824197D02*
X1078846Y824197D01*
X1076713Y825081D01*
X1075081Y826713D01*
X1074197Y828846D01*
X1074197Y831154D01*
X1075081Y833287D01*
X1076713Y834919D01*
X1078846Y835803D01*
X1081154Y835803D01*
X1083287Y834919D01*
X1084919Y833287D01*
X1085803Y831154D01*
X1085803Y828846D01*
X1084919Y826713D01*
X1083287Y825081D01*
X1081154Y824197D01*
X1078846Y824197D01*
G37*
%LPD*%
%LPC*%
G36*
X1928846Y824197D02*
X1928846Y824197D01*
X1926713Y825081D01*
X1925081Y826713D01*
X1924197Y828846D01*
X1924197Y831154D01*
X1925081Y833287D01*
X1926713Y834919D01*
X1928846Y835803D01*
X1931154Y835803D01*
X1933287Y834919D01*
X1934919Y833287D01*
X1935803Y831154D01*
X1935803Y828846D01*
X1934919Y826713D01*
X1933287Y825081D01*
X1931154Y824197D01*
X1928846Y824197D01*
G37*
%LPD*%
%LPC*%
G36*
X1718846Y824197D02*
X1718846Y824197D01*
X1716713Y825081D01*
X1715081Y826713D01*
X1714197Y828846D01*
X1714197Y831154D01*
X1715081Y833287D01*
X1716713Y834919D01*
X1718846Y835803D01*
X1721154Y835803D01*
X1723287Y834919D01*
X1724919Y833287D01*
X1725803Y831154D01*
X1725803Y828846D01*
X1724919Y826713D01*
X1723287Y825081D01*
X1721154Y824197D01*
X1718846Y824197D01*
G37*
%LPD*%
%LPC*%
G36*
X1508846Y824197D02*
X1508846Y824197D01*
X1506713Y825081D01*
X1505081Y826713D01*
X1504197Y828846D01*
X1504197Y831154D01*
X1505081Y833287D01*
X1506713Y834919D01*
X1508846Y835803D01*
X1511154Y835803D01*
X1513287Y834919D01*
X1514919Y833287D01*
X1515803Y831154D01*
X1515803Y828846D01*
X1514919Y826713D01*
X1513287Y825081D01*
X1511154Y824197D01*
X1508846Y824197D01*
G37*
%LPD*%
%LPC*%
G36*
X361346Y819197D02*
X361346Y819197D01*
X359213Y820081D01*
X357581Y821713D01*
X356697Y823846D01*
X356697Y826154D01*
X357581Y828287D01*
X359213Y829919D01*
X361346Y830803D01*
X363654Y830803D01*
X365787Y829919D01*
X367419Y828287D01*
X368303Y826154D01*
X368303Y823846D01*
X367419Y821713D01*
X365787Y820081D01*
X363654Y819197D01*
X361346Y819197D01*
G37*
%LPD*%
%LPC*%
G36*
X698846Y814197D02*
X698846Y814197D01*
X696713Y815081D01*
X695081Y816713D01*
X694197Y818846D01*
X694197Y821154D01*
X695081Y823287D01*
X696713Y824919D01*
X698846Y825803D01*
X701154Y825803D01*
X703287Y824919D01*
X704919Y823287D01*
X705803Y821154D01*
X705803Y818846D01*
X704919Y816713D01*
X703287Y815081D01*
X701154Y814197D01*
X698846Y814197D01*
G37*
%LPD*%
%LPC*%
G36*
X428846Y809197D02*
X428846Y809197D01*
X426713Y810081D01*
X425081Y811713D01*
X424197Y813846D01*
X424197Y816154D01*
X425081Y818287D01*
X426713Y819919D01*
X428846Y820803D01*
X431154Y820803D01*
X433287Y819919D01*
X434919Y818287D01*
X435803Y816154D01*
X435803Y813846D01*
X434919Y811713D01*
X433287Y810081D01*
X431154Y809197D01*
X428846Y809197D01*
G37*
%LPD*%
%LPC*%
G36*
X398846Y809197D02*
X398846Y809197D01*
X396713Y810081D01*
X395081Y811713D01*
X394197Y813846D01*
X394197Y816154D01*
X395081Y818287D01*
X396713Y819919D01*
X398846Y820803D01*
X401154Y820803D01*
X403287Y819919D01*
X404919Y818287D01*
X405803Y816154D01*
X405803Y813846D01*
X404919Y811713D01*
X403287Y810081D01*
X401154Y809197D01*
X398846Y809197D01*
G37*
%LPD*%
%LPC*%
G36*
X133846Y809197D02*
X133846Y809197D01*
X131713Y810081D01*
X130081Y811713D01*
X129197Y813846D01*
X129197Y816154D01*
X130081Y818287D01*
X131713Y819919D01*
X133846Y820803D01*
X136154Y820803D01*
X138287Y819919D01*
X139919Y818287D01*
X140803Y816154D01*
X140803Y813846D01*
X139919Y811713D01*
X138287Y810081D01*
X136154Y809197D01*
X133846Y809197D01*
G37*
%LPD*%
%LPC*%
G36*
X63846Y809197D02*
X63846Y809197D01*
X61713Y810081D01*
X60081Y811713D01*
X59197Y813846D01*
X59197Y816154D01*
X60081Y818287D01*
X61713Y819919D01*
X63846Y820803D01*
X66154Y820803D01*
X68287Y819919D01*
X69919Y818287D01*
X70803Y816154D01*
X70803Y813846D01*
X69919Y811713D01*
X68287Y810081D01*
X66154Y809197D01*
X63846Y809197D01*
G37*
%LPD*%
%LPC*%
G36*
X666346Y804197D02*
X666346Y804197D01*
X664213Y805081D01*
X662581Y806713D01*
X661697Y808846D01*
X661697Y811154D01*
X662581Y813287D01*
X664213Y814919D01*
X666346Y815803D01*
X668654Y815803D01*
X670787Y814919D01*
X672419Y813287D01*
X673303Y811154D01*
X673303Y808846D01*
X672419Y806713D01*
X670787Y805081D01*
X668654Y804197D01*
X666346Y804197D01*
G37*
%LPD*%
%LPC*%
G36*
X196346Y789197D02*
X196346Y789197D01*
X194213Y790081D01*
X192581Y791713D01*
X191697Y793846D01*
X191697Y796154D01*
X192581Y798287D01*
X194213Y799919D01*
X196346Y800803D01*
X198654Y800803D01*
X200787Y799919D01*
X202419Y798287D01*
X203303Y796154D01*
X203303Y793846D01*
X202419Y791713D01*
X200787Y790081D01*
X198654Y789197D01*
X196346Y789197D01*
G37*
%LPD*%
%LPC*%
G36*
X638846Y784197D02*
X638846Y784197D01*
X636713Y785081D01*
X635081Y786713D01*
X634197Y788846D01*
X634197Y791154D01*
X635081Y793287D01*
X636713Y794919D01*
X638846Y795803D01*
X641154Y795803D01*
X643287Y794919D01*
X644919Y793287D01*
X645803Y791154D01*
X645803Y788846D01*
X644919Y786713D01*
X643287Y785081D01*
X641154Y784197D01*
X638846Y784197D01*
G37*
%LPD*%
%LPC*%
G36*
X613846Y779197D02*
X613846Y779197D01*
X611713Y780081D01*
X610081Y781713D01*
X609197Y783846D01*
X609197Y786154D01*
X610081Y788287D01*
X611713Y789919D01*
X613846Y790803D01*
X616154Y790803D01*
X618287Y789919D01*
X619919Y788287D01*
X620803Y786154D01*
X620803Y783846D01*
X619919Y781713D01*
X618287Y780081D01*
X616154Y779197D01*
X613846Y779197D01*
G37*
%LPD*%
%LPC*%
G36*
X238846Y779197D02*
X238846Y779197D01*
X236713Y780081D01*
X235081Y781713D01*
X234197Y783846D01*
X234197Y786154D01*
X235081Y788287D01*
X236713Y789919D01*
X238846Y790803D01*
X241154Y790803D01*
X243287Y789919D01*
X244919Y788287D01*
X245803Y786154D01*
X245803Y783846D01*
X244919Y781713D01*
X243287Y780081D01*
X241154Y779197D01*
X238846Y779197D01*
G37*
%LPD*%
%LPC*%
G36*
X168846Y779197D02*
X168846Y779197D01*
X166713Y780081D01*
X165081Y781713D01*
X164197Y783846D01*
X164197Y786154D01*
X165081Y788287D01*
X166713Y789919D01*
X168846Y790803D01*
X171154Y790803D01*
X173287Y789919D01*
X174919Y788287D01*
X175803Y786154D01*
X175803Y783846D01*
X174919Y781713D01*
X173287Y780081D01*
X171154Y779197D01*
X168846Y779197D01*
G37*
%LPD*%
%LPC*%
G36*
X133846Y779197D02*
X133846Y779197D01*
X131713Y780081D01*
X130081Y781713D01*
X129197Y783846D01*
X129197Y786154D01*
X130081Y788287D01*
X131713Y789919D01*
X133846Y790803D01*
X136154Y790803D01*
X138287Y789919D01*
X139919Y788287D01*
X140803Y786154D01*
X140803Y783846D01*
X139919Y781713D01*
X138287Y780081D01*
X136154Y779197D01*
X133846Y779197D01*
G37*
%LPD*%
%LPC*%
G36*
X63846Y779197D02*
X63846Y779197D01*
X61713Y780081D01*
X60081Y781713D01*
X59197Y783846D01*
X59197Y786154D01*
X60081Y788287D01*
X61713Y789919D01*
X63846Y790803D01*
X66154Y790803D01*
X68287Y789919D01*
X69919Y788287D01*
X70803Y786154D01*
X70803Y783846D01*
X69919Y781713D01*
X68287Y780081D01*
X66154Y779197D01*
X63846Y779197D01*
G37*
%LPD*%
%LPC*%
G36*
X588846Y774197D02*
X588846Y774197D01*
X586713Y775081D01*
X585081Y776713D01*
X584197Y778846D01*
X584197Y781154D01*
X585081Y783287D01*
X586713Y784919D01*
X588846Y785803D01*
X591154Y785803D01*
X593287Y784919D01*
X594919Y783287D01*
X595803Y781154D01*
X595803Y778846D01*
X594919Y776713D01*
X593287Y775081D01*
X591154Y774197D01*
X588846Y774197D01*
G37*
%LPD*%
%LPC*%
G36*
X358846Y774197D02*
X358846Y774197D01*
X356713Y775081D01*
X355081Y776713D01*
X354197Y778846D01*
X354197Y781154D01*
X355081Y783287D01*
X356713Y784919D01*
X358846Y785803D01*
X361154Y785803D01*
X363287Y784919D01*
X364919Y783287D01*
X365803Y781154D01*
X365803Y778846D01*
X364919Y776713D01*
X363287Y775081D01*
X361154Y774197D01*
X358846Y774197D01*
G37*
%LPD*%
%LPC*%
G36*
X318846Y774197D02*
X318846Y774197D01*
X316713Y775081D01*
X315081Y776713D01*
X314197Y778846D01*
X314197Y781154D01*
X315081Y783287D01*
X316713Y784919D01*
X318846Y785803D01*
X321154Y785803D01*
X323287Y784919D01*
X324919Y783287D01*
X325803Y781154D01*
X325803Y778846D01*
X324919Y776713D01*
X323287Y775081D01*
X321154Y774197D01*
X318846Y774197D01*
G37*
%LPD*%
%LPC*%
G36*
X1288846Y764197D02*
X1288846Y764197D01*
X1286713Y765081D01*
X1285081Y766713D01*
X1284197Y768846D01*
X1284197Y771154D01*
X1285081Y773287D01*
X1286713Y774919D01*
X1288846Y775803D01*
X1291154Y775803D01*
X1293287Y774919D01*
X1294919Y773287D01*
X1295803Y771154D01*
X1295803Y768846D01*
X1294919Y766713D01*
X1293287Y765081D01*
X1291154Y764197D01*
X1288846Y764197D01*
G37*
%LPD*%
%LPC*%
G36*
X1078846Y764197D02*
X1078846Y764197D01*
X1076713Y765081D01*
X1075081Y766713D01*
X1074197Y768846D01*
X1074197Y771154D01*
X1075081Y773287D01*
X1076713Y774919D01*
X1078846Y775803D01*
X1081154Y775803D01*
X1083287Y774919D01*
X1084919Y773287D01*
X1085803Y771154D01*
X1085803Y768846D01*
X1084919Y766713D01*
X1083287Y765081D01*
X1081154Y764197D01*
X1078846Y764197D01*
G37*
%LPD*%
%LPC*%
G36*
X1718846Y764197D02*
X1718846Y764197D01*
X1716713Y765081D01*
X1715081Y766713D01*
X1714197Y768846D01*
X1714197Y771154D01*
X1715081Y773287D01*
X1716713Y774919D01*
X1718846Y775803D01*
X1721154Y775803D01*
X1723287Y774919D01*
X1724919Y773287D01*
X1725803Y771154D01*
X1725803Y768846D01*
X1724919Y766713D01*
X1723287Y765081D01*
X1721154Y764197D01*
X1718846Y764197D01*
G37*
%LPD*%
%LPC*%
G36*
X1508846Y764197D02*
X1508846Y764197D01*
X1506713Y765081D01*
X1505081Y766713D01*
X1504197Y768846D01*
X1504197Y771154D01*
X1505081Y773287D01*
X1506713Y774919D01*
X1508846Y775803D01*
X1511154Y775803D01*
X1513287Y774919D01*
X1514919Y773287D01*
X1515803Y771154D01*
X1515803Y768846D01*
X1514919Y766713D01*
X1513287Y765081D01*
X1511154Y764197D01*
X1508846Y764197D01*
G37*
%LPD*%
%LPC*%
G36*
X838846Y764197D02*
X838846Y764197D01*
X836713Y765081D01*
X835081Y766713D01*
X834197Y768846D01*
X834197Y771154D01*
X835081Y773287D01*
X836713Y774919D01*
X838846Y775803D01*
X841154Y775803D01*
X843287Y774919D01*
X844919Y773287D01*
X845803Y771154D01*
X845803Y768846D01*
X844919Y766713D01*
X843287Y765081D01*
X841154Y764197D01*
X838846Y764197D01*
G37*
%LPD*%
%LPC*%
G36*
X488846Y754197D02*
X488846Y754197D01*
X486713Y755081D01*
X485081Y756713D01*
X484197Y758846D01*
X484197Y761154D01*
X485081Y763287D01*
X486713Y764919D01*
X488846Y765803D01*
X491154Y765803D01*
X493287Y764919D01*
X494919Y763287D01*
X495803Y761154D01*
X495803Y758846D01*
X494919Y756713D01*
X493287Y755081D01*
X491154Y754197D01*
X488846Y754197D01*
G37*
%LPD*%
%LPC*%
G36*
X428846Y754197D02*
X428846Y754197D01*
X426713Y755081D01*
X425081Y756713D01*
X424197Y758846D01*
X424197Y761154D01*
X425081Y763287D01*
X426713Y764919D01*
X428846Y765803D01*
X431154Y765803D01*
X433287Y764919D01*
X434919Y763287D01*
X435803Y761154D01*
X435803Y758846D01*
X434919Y756713D01*
X433287Y755081D01*
X431154Y754197D01*
X428846Y754197D01*
G37*
%LPD*%
%LPC*%
G36*
X2028846Y744197D02*
X2028846Y744197D01*
X2026713Y745081D01*
X2025081Y746713D01*
X2024197Y748846D01*
X2024197Y751154D01*
X2025081Y753287D01*
X2026713Y754919D01*
X2028846Y755803D01*
X2031154Y755803D01*
X2033287Y754919D01*
X2034919Y753287D01*
X2035803Y751154D01*
X2035803Y748846D01*
X2034919Y746713D01*
X2033287Y745081D01*
X2031154Y744197D01*
X2028846Y744197D01*
G37*
%LPD*%
%LPC*%
G36*
X358846Y744197D02*
X358846Y744197D01*
X356713Y745081D01*
X355081Y746713D01*
X354197Y748846D01*
X354197Y751154D01*
X355081Y753287D01*
X356713Y754919D01*
X358846Y755803D01*
X361154Y755803D01*
X363287Y754919D01*
X364919Y753287D01*
X365803Y751154D01*
X365803Y748846D01*
X364919Y746713D01*
X363287Y745081D01*
X361154Y744197D01*
X358846Y744197D01*
G37*
%LPD*%
%LPC*%
G36*
X393846Y734197D02*
X393846Y734197D01*
X391713Y735081D01*
X390081Y736713D01*
X389197Y738846D01*
X389197Y741154D01*
X390081Y743287D01*
X391713Y744919D01*
X393846Y745803D01*
X396154Y745803D01*
X398287Y744919D01*
X399919Y743287D01*
X400803Y741154D01*
X400803Y738846D01*
X399919Y736713D01*
X398287Y735081D01*
X396154Y734197D01*
X393846Y734197D01*
G37*
%LPD*%
%LPC*%
G36*
X658846Y724197D02*
X658846Y724197D01*
X656713Y725081D01*
X655081Y726713D01*
X654197Y728846D01*
X654197Y731154D01*
X655081Y733287D01*
X656713Y734919D01*
X658846Y735803D01*
X661154Y735803D01*
X663287Y734919D01*
X664919Y733287D01*
X665803Y731154D01*
X665803Y728846D01*
X664919Y726713D01*
X663287Y725081D01*
X661154Y724197D01*
X658846Y724197D01*
G37*
%LPD*%
%LPC*%
G36*
X468846Y724197D02*
X468846Y724197D01*
X466713Y725081D01*
X465081Y726713D01*
X464197Y728846D01*
X464197Y731154D01*
X465081Y733287D01*
X466713Y734919D01*
X468846Y735803D01*
X471154Y735803D01*
X473287Y734919D01*
X474919Y733287D01*
X475803Y731154D01*
X475803Y728846D01*
X474919Y726713D01*
X473287Y725081D01*
X471154Y724197D01*
X468846Y724197D01*
G37*
%LPD*%
%LPC*%
G36*
X428846Y714197D02*
X428846Y714197D01*
X426713Y715081D01*
X425081Y716713D01*
X424197Y718846D01*
X424197Y721154D01*
X425081Y723287D01*
X426713Y724919D01*
X428846Y725803D01*
X431154Y725803D01*
X433287Y724919D01*
X434919Y723287D01*
X435803Y721154D01*
X435803Y718846D01*
X434919Y716713D01*
X433287Y715081D01*
X431154Y714197D01*
X428846Y714197D01*
G37*
%LPD*%
%LPC*%
G36*
X573846Y704197D02*
X573846Y704197D01*
X571713Y705081D01*
X570081Y706713D01*
X569197Y708846D01*
X569197Y711154D01*
X570081Y713287D01*
X571713Y714919D01*
X573846Y715803D01*
X576154Y715803D01*
X578287Y714919D01*
X579919Y713287D01*
X580803Y711154D01*
X580803Y708846D01*
X579919Y706713D01*
X578287Y705081D01*
X576154Y704197D01*
X573846Y704197D01*
G37*
%LPD*%
%LPC*%
G36*
X508846Y694197D02*
X508846Y694197D01*
X506713Y695081D01*
X505081Y696713D01*
X504197Y698846D01*
X504197Y701154D01*
X505081Y703287D01*
X506713Y704919D01*
X508846Y705803D01*
X511154Y705803D01*
X513287Y704919D01*
X514919Y703287D01*
X515803Y701154D01*
X515803Y698846D01*
X514919Y696713D01*
X513287Y695081D01*
X511154Y694197D01*
X508846Y694197D01*
G37*
%LPD*%
%LPC*%
G36*
X258846Y694197D02*
X258846Y694197D01*
X256713Y695081D01*
X255081Y696713D01*
X254197Y698846D01*
X254197Y701154D01*
X255081Y703287D01*
X256713Y704919D01*
X258846Y705803D01*
X261154Y705803D01*
X263287Y704919D01*
X264919Y703287D01*
X265803Y701154D01*
X265803Y698846D01*
X264919Y696713D01*
X263287Y695081D01*
X261154Y694197D01*
X258846Y694197D01*
G37*
%LPD*%
%LPC*%
G36*
X78846Y694197D02*
X78846Y694197D01*
X76713Y695081D01*
X75081Y696713D01*
X74197Y698846D01*
X74197Y701154D01*
X75081Y703287D01*
X76713Y704919D01*
X78846Y705803D01*
X81154Y705803D01*
X83287Y704919D01*
X84919Y703287D01*
X85803Y701154D01*
X85803Y698846D01*
X84919Y696713D01*
X83287Y695081D01*
X81154Y694197D01*
X78846Y694197D01*
G37*
%LPD*%
%LPC*%
G36*
X1933846Y659197D02*
X1933846Y659197D01*
X1931713Y660081D01*
X1930081Y661713D01*
X1929197Y663846D01*
X1929197Y666154D01*
X1930081Y668287D01*
X1931713Y669919D01*
X1933846Y670803D01*
X1936154Y670803D01*
X1938287Y669919D01*
X1939919Y668287D01*
X1940803Y666154D01*
X1940803Y663846D01*
X1939919Y661713D01*
X1938287Y660081D01*
X1936154Y659197D01*
X1933846Y659197D01*
G37*
%LPD*%
%LPC*%
G36*
X658846Y634197D02*
X658846Y634197D01*
X656713Y635081D01*
X655081Y636713D01*
X654197Y638846D01*
X654197Y641154D01*
X655081Y643287D01*
X656713Y644919D01*
X658846Y645803D01*
X661154Y645803D01*
X663287Y644919D01*
X664919Y643287D01*
X665803Y641154D01*
X665803Y638846D01*
X664919Y636713D01*
X663287Y635081D01*
X661154Y634197D01*
X658846Y634197D01*
G37*
%LPD*%
%LPC*%
G36*
X548846Y634197D02*
X548846Y634197D01*
X546713Y635081D01*
X545081Y636713D01*
X544197Y638846D01*
X544197Y641154D01*
X545081Y643287D01*
X546713Y644919D01*
X548846Y645803D01*
X551154Y645803D01*
X553287Y644919D01*
X554919Y643287D01*
X555803Y641154D01*
X555803Y638846D01*
X554919Y636713D01*
X553287Y635081D01*
X551154Y634197D01*
X548846Y634197D01*
G37*
%LPD*%
%LPC*%
G36*
X438846Y624197D02*
X438846Y624197D01*
X436713Y625081D01*
X435081Y626713D01*
X434197Y628846D01*
X434197Y631154D01*
X435081Y633287D01*
X436713Y634919D01*
X438846Y635803D01*
X441154Y635803D01*
X443287Y634919D01*
X444919Y633287D01*
X445803Y631154D01*
X445803Y628846D01*
X444919Y626713D01*
X443287Y625081D01*
X441154Y624197D01*
X438846Y624197D01*
G37*
%LPD*%
%LPC*%
G36*
X258846Y624197D02*
X258846Y624197D01*
X256713Y625081D01*
X255081Y626713D01*
X254197Y628846D01*
X254197Y631154D01*
X255081Y633287D01*
X256713Y634919D01*
X258846Y635803D01*
X261154Y635803D01*
X263287Y634919D01*
X264919Y633287D01*
X265803Y631154D01*
X265803Y628846D01*
X264919Y626713D01*
X263287Y625081D01*
X261154Y624197D01*
X258846Y624197D01*
G37*
%LPD*%
%LPC*%
G36*
X78846Y624197D02*
X78846Y624197D01*
X76713Y625081D01*
X75081Y626713D01*
X74197Y628846D01*
X74197Y631154D01*
X75081Y633287D01*
X76713Y634919D01*
X78846Y635803D01*
X81154Y635803D01*
X83287Y634919D01*
X84919Y633287D01*
X85803Y631154D01*
X85803Y628846D01*
X84919Y626713D01*
X83287Y625081D01*
X81154Y624197D01*
X78846Y624197D01*
G37*
%LPD*%
%LPC*%
G36*
X1078846Y614197D02*
X1078846Y614197D01*
X1076713Y615081D01*
X1075081Y616713D01*
X1074197Y618846D01*
X1074197Y621154D01*
X1075081Y623287D01*
X1076713Y624919D01*
X1078846Y625803D01*
X1081154Y625803D01*
X1083287Y624919D01*
X1084919Y623287D01*
X1085803Y621154D01*
X1085803Y618846D01*
X1084919Y616713D01*
X1083287Y615081D01*
X1081154Y614197D01*
X1078846Y614197D01*
G37*
%LPD*%
%LPC*%
G36*
X838846Y614197D02*
X838846Y614197D01*
X836713Y615081D01*
X835081Y616713D01*
X834197Y618846D01*
X834197Y621154D01*
X835081Y623287D01*
X836713Y624919D01*
X838846Y625803D01*
X841154Y625803D01*
X843287Y624919D01*
X844919Y623287D01*
X845803Y621154D01*
X845803Y618846D01*
X844919Y616713D01*
X843287Y615081D01*
X841154Y614197D01*
X838846Y614197D01*
G37*
%LPD*%
%LPC*%
G36*
X1718846Y614197D02*
X1718846Y614197D01*
X1716713Y615081D01*
X1715081Y616713D01*
X1714197Y618846D01*
X1714197Y621154D01*
X1715081Y623287D01*
X1716713Y624919D01*
X1718846Y625803D01*
X1721154Y625803D01*
X1723287Y624919D01*
X1724919Y623287D01*
X1725803Y621154D01*
X1725803Y618846D01*
X1724919Y616713D01*
X1723287Y615081D01*
X1721154Y614197D01*
X1718846Y614197D01*
G37*
%LPD*%
%LPC*%
G36*
X1288846Y614197D02*
X1288846Y614197D01*
X1286713Y615081D01*
X1285081Y616713D01*
X1284197Y618846D01*
X1284197Y621154D01*
X1285081Y623287D01*
X1286713Y624919D01*
X1288846Y625803D01*
X1291154Y625803D01*
X1293287Y624919D01*
X1294919Y623287D01*
X1295803Y621154D01*
X1295803Y618846D01*
X1294919Y616713D01*
X1293287Y615081D01*
X1291154Y614197D01*
X1288846Y614197D01*
G37*
%LPD*%
%LPC*%
G36*
X2008846Y584197D02*
X2008846Y584197D01*
X2006713Y585081D01*
X2005081Y586713D01*
X2004197Y588846D01*
X2004197Y591154D01*
X2005081Y593287D01*
X2006713Y594919D01*
X2008846Y595803D01*
X2011154Y595803D01*
X2013287Y594919D01*
X2014919Y593287D01*
X2015803Y591154D01*
X2015803Y588846D01*
X2014919Y586713D01*
X2013287Y585081D01*
X2011154Y584197D01*
X2008846Y584197D01*
G37*
%LPD*%
%LPC*%
G36*
X608846Y564197D02*
X608846Y564197D01*
X606713Y565081D01*
X605081Y566713D01*
X604197Y568846D01*
X604197Y571154D01*
X605081Y573287D01*
X606713Y574919D01*
X608846Y575803D01*
X611154Y575803D01*
X613287Y574919D01*
X614919Y573287D01*
X615803Y571154D01*
X615803Y568846D01*
X614919Y566713D01*
X613287Y565081D01*
X611154Y564197D01*
X608846Y564197D01*
G37*
%LPD*%
%LPC*%
G36*
X548846Y564197D02*
X548846Y564197D01*
X546713Y565081D01*
X545081Y566713D01*
X544197Y568846D01*
X544197Y571154D01*
X545081Y573287D01*
X546713Y574919D01*
X548846Y575803D01*
X551154Y575803D01*
X553287Y574919D01*
X554919Y573287D01*
X555803Y571154D01*
X555803Y568846D01*
X554919Y566713D01*
X553287Y565081D01*
X551154Y564197D01*
X548846Y564197D01*
G37*
%LPD*%
%LPC*%
G36*
X438846Y564197D02*
X438846Y564197D01*
X436713Y565081D01*
X435081Y566713D01*
X434197Y568846D01*
X434197Y571154D01*
X435081Y573287D01*
X436713Y574919D01*
X438846Y575803D01*
X441154Y575803D01*
X443287Y574919D01*
X444919Y573287D01*
X445803Y571154D01*
X445803Y568846D01*
X444919Y566713D01*
X443287Y565081D01*
X441154Y564197D01*
X438846Y564197D01*
G37*
%LPD*%
%LPC*%
G36*
X258846Y564197D02*
X258846Y564197D01*
X256713Y565081D01*
X255081Y566713D01*
X254197Y568846D01*
X254197Y571154D01*
X255081Y573287D01*
X256713Y574919D01*
X258846Y575803D01*
X261154Y575803D01*
X263287Y574919D01*
X264919Y573287D01*
X265803Y571154D01*
X265803Y568846D01*
X264919Y566713D01*
X263287Y565081D01*
X261154Y564197D01*
X258846Y564197D01*
G37*
%LPD*%
%LPC*%
G36*
X78846Y564197D02*
X78846Y564197D01*
X76713Y565081D01*
X75081Y566713D01*
X74197Y568846D01*
X74197Y571154D01*
X75081Y573287D01*
X76713Y574919D01*
X78846Y575803D01*
X81154Y575803D01*
X83287Y574919D01*
X84919Y573287D01*
X85803Y571154D01*
X85803Y568846D01*
X84919Y566713D01*
X83287Y565081D01*
X81154Y564197D01*
X78846Y564197D01*
G37*
%LPD*%
%LPC*%
G36*
X458846Y524197D02*
X458846Y524197D01*
X456713Y525081D01*
X455081Y526713D01*
X454197Y528846D01*
X454197Y531154D01*
X455081Y533287D01*
X456713Y534919D01*
X458846Y535803D01*
X461154Y535803D01*
X463287Y534919D01*
X464919Y533287D01*
X465803Y531154D01*
X465803Y528846D01*
X464919Y526713D01*
X463287Y525081D01*
X461154Y524197D01*
X458846Y524197D01*
G37*
%LPD*%
%LPC*%
G36*
X348846Y514197D02*
X348846Y514197D01*
X346713Y515081D01*
X345081Y516713D01*
X344197Y518846D01*
X344197Y521154D01*
X345081Y523287D01*
X346713Y524919D01*
X348846Y525803D01*
X351154Y525803D01*
X353287Y524919D01*
X354919Y523287D01*
X355803Y521154D01*
X355803Y518846D01*
X354919Y516713D01*
X353287Y515081D01*
X351154Y514197D01*
X348846Y514197D01*
G37*
%LPD*%
%LPC*%
G36*
X1918846Y504197D02*
X1918846Y504197D01*
X1916713Y505081D01*
X1915081Y506713D01*
X1914197Y508846D01*
X1914197Y511154D01*
X1915081Y513287D01*
X1916713Y514919D01*
X1918846Y515803D01*
X1921154Y515803D01*
X1923287Y514919D01*
X1924919Y513287D01*
X1925803Y511154D01*
X1925803Y508846D01*
X1924919Y506713D01*
X1923287Y505081D01*
X1921154Y504197D01*
X1918846Y504197D01*
G37*
%LPD*%
%LPC*%
G36*
X568846Y504197D02*
X568846Y504197D01*
X566713Y505081D01*
X565081Y506713D01*
X564197Y508846D01*
X564197Y511154D01*
X565081Y513287D01*
X566713Y514919D01*
X568846Y515803D01*
X571154Y515803D01*
X573287Y514919D01*
X574919Y513287D01*
X575803Y511154D01*
X575803Y508846D01*
X574919Y506713D01*
X573287Y505081D01*
X571154Y504197D01*
X568846Y504197D01*
G37*
%LPD*%
%LPC*%
G36*
X708846Y494197D02*
X708846Y494197D01*
X706713Y495081D01*
X705081Y496713D01*
X704197Y498846D01*
X704197Y501154D01*
X705081Y503287D01*
X706713Y504919D01*
X708846Y505803D01*
X711154Y505803D01*
X713287Y504919D01*
X714919Y503287D01*
X715803Y501154D01*
X715803Y498846D01*
X714919Y496713D01*
X713287Y495081D01*
X711154Y494197D01*
X708846Y494197D01*
G37*
%LPD*%
%LPC*%
G36*
X498846Y494197D02*
X498846Y494197D01*
X496713Y495081D01*
X495081Y496713D01*
X494197Y498846D01*
X494197Y501154D01*
X495081Y503287D01*
X496713Y504919D01*
X498846Y505803D01*
X501154Y505803D01*
X503287Y504919D01*
X504919Y503287D01*
X505803Y501154D01*
X505803Y498846D01*
X504919Y496713D01*
X503287Y495081D01*
X501154Y494197D01*
X498846Y494197D01*
G37*
%LPD*%
%LPC*%
G36*
X318846Y484197D02*
X318846Y484197D01*
X316713Y485081D01*
X315081Y486713D01*
X314197Y488846D01*
X314197Y491154D01*
X315081Y493287D01*
X316713Y494919D01*
X318846Y495803D01*
X321154Y495803D01*
X323287Y494919D01*
X324919Y493287D01*
X325803Y491154D01*
X325803Y488846D01*
X324919Y486713D01*
X323287Y485081D01*
X321154Y484197D01*
X318846Y484197D01*
G37*
%LPD*%
%LPC*%
G36*
X1078846Y474197D02*
X1078846Y474197D01*
X1076713Y475081D01*
X1075081Y476713D01*
X1074197Y478846D01*
X1074197Y481154D01*
X1075081Y483287D01*
X1076713Y484919D01*
X1078846Y485803D01*
X1081154Y485803D01*
X1083287Y484919D01*
X1084919Y483287D01*
X1085803Y481154D01*
X1085803Y478846D01*
X1084919Y476713D01*
X1083287Y475081D01*
X1081154Y474197D01*
X1078846Y474197D01*
G37*
%LPD*%
%LPC*%
G36*
X838846Y474197D02*
X838846Y474197D01*
X836713Y475081D01*
X835081Y476713D01*
X834197Y478846D01*
X834197Y481154D01*
X835081Y483287D01*
X836713Y484919D01*
X838846Y485803D01*
X841154Y485803D01*
X843287Y484919D01*
X844919Y483287D01*
X845803Y481154D01*
X845803Y478846D01*
X844919Y476713D01*
X843287Y475081D01*
X841154Y474197D01*
X838846Y474197D01*
G37*
%LPD*%
%LPC*%
G36*
X1718846Y474197D02*
X1718846Y474197D01*
X1716713Y475081D01*
X1715081Y476713D01*
X1714197Y478846D01*
X1714197Y481154D01*
X1715081Y483287D01*
X1716713Y484919D01*
X1718846Y485803D01*
X1721154Y485803D01*
X1723287Y484919D01*
X1724919Y483287D01*
X1725803Y481154D01*
X1725803Y478846D01*
X1724919Y476713D01*
X1723287Y475081D01*
X1721154Y474197D01*
X1718846Y474197D01*
G37*
%LPD*%
%LPC*%
G36*
X1508846Y474197D02*
X1508846Y474197D01*
X1506713Y475081D01*
X1505081Y476713D01*
X1504197Y478846D01*
X1504197Y481154D01*
X1505081Y483287D01*
X1506713Y484919D01*
X1508846Y485803D01*
X1511154Y485803D01*
X1513287Y484919D01*
X1514919Y483287D01*
X1515803Y481154D01*
X1515803Y478846D01*
X1514919Y476713D01*
X1513287Y475081D01*
X1511154Y474197D01*
X1508846Y474197D01*
G37*
%LPD*%
%LPC*%
G36*
X838846Y824197D02*
X838846Y824197D01*
X836713Y825081D01*
X835081Y826713D01*
X834197Y828846D01*
X834197Y831154D01*
X835081Y833287D01*
X836713Y834919D01*
X838846Y835803D01*
X841154Y835803D01*
X843287Y834919D01*
X844919Y833287D01*
X845803Y831154D01*
X845803Y828846D01*
X844919Y826713D01*
X843287Y825081D01*
X841154Y824197D01*
X838846Y824197D01*
G37*
%LPD*%
%LPC*%
G36*
X406346Y464197D02*
X406346Y464197D01*
X404213Y465081D01*
X402581Y466713D01*
X401697Y468846D01*
X401697Y471154D01*
X402581Y473287D01*
X404213Y474919D01*
X406346Y475803D01*
X408654Y475803D01*
X410787Y474919D01*
X412419Y473287D01*
X413303Y471154D01*
X413303Y468846D01*
X412419Y466713D01*
X410787Y465081D01*
X408654Y464197D01*
X406346Y464197D01*
G37*
%LPD*%
%LPC*%
G36*
X488846Y454197D02*
X488846Y454197D01*
X486713Y455081D01*
X485081Y456713D01*
X484197Y458846D01*
X484197Y461154D01*
X485081Y463287D01*
X486713Y464919D01*
X488846Y465803D01*
X491154Y465803D01*
X493287Y464919D01*
X494919Y463287D01*
X495803Y461154D01*
X495803Y458846D01*
X494919Y456713D01*
X493287Y455081D01*
X491154Y454197D01*
X488846Y454197D01*
G37*
%LPD*%
%LPC*%
G36*
X218846Y444197D02*
X218846Y444197D01*
X216713Y445081D01*
X215081Y446713D01*
X214197Y448846D01*
X214197Y451154D01*
X215081Y453287D01*
X216713Y454919D01*
X218846Y455803D01*
X221154Y455803D01*
X223287Y454919D01*
X224919Y453287D01*
X225803Y451154D01*
X225803Y448846D01*
X224919Y446713D01*
X223287Y445081D01*
X221154Y444197D01*
X218846Y444197D01*
G37*
%LPD*%
%LPC*%
G36*
X78846Y424197D02*
X78846Y424197D01*
X76713Y425081D01*
X75081Y426713D01*
X74197Y428846D01*
X74197Y431154D01*
X75081Y433287D01*
X76713Y434919D01*
X78846Y435803D01*
X81154Y435803D01*
X83287Y434919D01*
X84919Y433287D01*
X85803Y431154D01*
X85803Y428846D01*
X84919Y426713D01*
X83287Y425081D01*
X81154Y424197D01*
X78846Y424197D01*
G37*
%LPD*%
%LPC*%
G36*
X468846Y414197D02*
X468846Y414197D01*
X466713Y415081D01*
X465081Y416713D01*
X464197Y418846D01*
X464197Y421154D01*
X465081Y423287D01*
X466713Y424919D01*
X468846Y425803D01*
X471154Y425803D01*
X473287Y424919D01*
X474919Y423287D01*
X475803Y421154D01*
X475803Y418846D01*
X474919Y416713D01*
X473287Y415081D01*
X471154Y414197D01*
X468846Y414197D01*
G37*
%LPD*%
%LPC*%
G36*
X348846Y414197D02*
X348846Y414197D01*
X346713Y415081D01*
X345081Y416713D01*
X344197Y418846D01*
X344197Y421154D01*
X345081Y423287D01*
X346713Y424919D01*
X348846Y425803D01*
X351154Y425803D01*
X353287Y424919D01*
X354919Y423287D01*
X355803Y421154D01*
X355803Y418846D01*
X354919Y416713D01*
X353287Y415081D01*
X351154Y414197D01*
X348846Y414197D01*
G37*
%LPD*%
%LPC*%
G36*
X1508846Y404197D02*
X1508846Y404197D01*
X1506713Y405081D01*
X1505081Y406713D01*
X1504197Y408846D01*
X1504197Y411154D01*
X1505081Y413287D01*
X1506713Y414919D01*
X1508846Y415803D01*
X1511154Y415803D01*
X1513287Y414919D01*
X1514919Y413287D01*
X1515803Y411154D01*
X1515803Y408846D01*
X1514919Y406713D01*
X1513287Y405081D01*
X1511154Y404197D01*
X1508846Y404197D01*
G37*
%LPD*%
%LPC*%
G36*
X1288846Y404197D02*
X1288846Y404197D01*
X1286713Y405081D01*
X1285081Y406713D01*
X1284197Y408846D01*
X1284197Y411154D01*
X1285081Y413287D01*
X1286713Y414919D01*
X1288846Y415803D01*
X1291154Y415803D01*
X1293287Y414919D01*
X1294919Y413287D01*
X1295803Y411154D01*
X1295803Y408846D01*
X1294919Y406713D01*
X1293287Y405081D01*
X1291154Y404197D01*
X1288846Y404197D01*
G37*
%LPD*%
%LPC*%
G36*
X1718846Y404197D02*
X1718846Y404197D01*
X1716713Y405081D01*
X1715081Y406713D01*
X1714197Y408846D01*
X1714197Y411154D01*
X1715081Y413287D01*
X1716713Y414919D01*
X1718846Y415803D01*
X1721154Y415803D01*
X1723287Y414919D01*
X1724919Y413287D01*
X1725803Y411154D01*
X1725803Y408846D01*
X1724919Y406713D01*
X1723287Y405081D01*
X1721154Y404197D01*
X1718846Y404197D01*
G37*
%LPD*%
%LPC*%
G36*
X928846Y404197D02*
X928846Y404197D01*
X926713Y405081D01*
X925081Y406713D01*
X924197Y408846D01*
X924197Y411154D01*
X925081Y413287D01*
X926713Y414919D01*
X928846Y415803D01*
X931154Y415803D01*
X933287Y414919D01*
X934919Y413287D01*
X935803Y411154D01*
X935803Y408846D01*
X934919Y406713D01*
X933287Y405081D01*
X931154Y404197D01*
X928846Y404197D01*
G37*
%LPD*%
%LPC*%
G36*
X608846Y404197D02*
X608846Y404197D01*
X606713Y405081D01*
X605081Y406713D01*
X604197Y408846D01*
X604197Y411154D01*
X605081Y413287D01*
X606713Y414919D01*
X608846Y415803D01*
X611154Y415803D01*
X613287Y414919D01*
X614919Y413287D01*
X615803Y411154D01*
X615803Y408846D01*
X614919Y406713D01*
X613287Y405081D01*
X611154Y404197D01*
X608846Y404197D01*
G37*
%LPD*%
%LPC*%
G36*
X1078846Y404197D02*
X1078846Y404197D01*
X1076713Y405081D01*
X1075081Y406713D01*
X1074197Y408846D01*
X1074197Y411154D01*
X1075081Y413287D01*
X1076713Y414919D01*
X1078846Y415803D01*
X1081154Y415803D01*
X1083287Y414919D01*
X1084919Y413287D01*
X1085803Y411154D01*
X1085803Y408846D01*
X1084919Y406713D01*
X1083287Y405081D01*
X1081154Y404197D01*
X1078846Y404197D01*
G37*
%LPD*%
%LPC*%
G36*
X408846Y384197D02*
X408846Y384197D01*
X406713Y385081D01*
X405081Y386713D01*
X404197Y388846D01*
X404197Y391154D01*
X405081Y393287D01*
X406713Y394919D01*
X408846Y395803D01*
X411154Y395803D01*
X413287Y394919D01*
X414919Y393287D01*
X415803Y391154D01*
X415803Y388846D01*
X414919Y386713D01*
X413287Y385081D01*
X411154Y384197D01*
X408846Y384197D01*
G37*
%LPD*%
%LPC*%
G36*
X2028846Y374197D02*
X2028846Y374197D01*
X2026713Y375081D01*
X2025081Y376713D01*
X2024197Y378846D01*
X2024197Y381154D01*
X2025081Y383287D01*
X2026713Y384919D01*
X2028846Y385803D01*
X2031154Y385803D01*
X2033287Y384919D01*
X2034919Y383287D01*
X2035803Y381154D01*
X2035803Y378846D01*
X2034919Y376713D01*
X2033287Y375081D01*
X2031154Y374197D01*
X2028846Y374197D01*
G37*
%LPD*%
%LPC*%
G36*
X738846Y364197D02*
X738846Y364197D01*
X736713Y365081D01*
X735081Y366713D01*
X734197Y368846D01*
X734197Y371154D01*
X735081Y373287D01*
X736713Y374919D01*
X738846Y375803D01*
X741154Y375803D01*
X743287Y374919D01*
X744919Y373287D01*
X745803Y371154D01*
X745803Y368846D01*
X744919Y366713D01*
X743287Y365081D01*
X741154Y364197D01*
X738846Y364197D01*
G37*
%LPD*%
%LPC*%
G36*
X78846Y364197D02*
X78846Y364197D01*
X76713Y365081D01*
X75081Y366713D01*
X74197Y368846D01*
X74197Y371154D01*
X75081Y373287D01*
X76713Y374919D01*
X78846Y375803D01*
X81154Y375803D01*
X83287Y374919D01*
X84919Y373287D01*
X85803Y371154D01*
X85803Y368846D01*
X84919Y366713D01*
X83287Y365081D01*
X81154Y364197D01*
X78846Y364197D01*
G37*
%LPD*%
%LPC*%
G36*
X1288846Y474197D02*
X1288846Y474197D01*
X1286713Y475081D01*
X1285081Y476713D01*
X1284197Y478846D01*
X1284197Y481154D01*
X1285081Y483287D01*
X1286713Y484919D01*
X1288846Y485803D01*
X1291154Y485803D01*
X1293287Y484919D01*
X1294919Y483287D01*
X1295803Y481154D01*
X1295803Y478846D01*
X1294919Y476713D01*
X1293287Y475081D01*
X1291154Y474197D01*
X1288846Y474197D01*
G37*
%LPD*%
%LPC*%
G36*
X1078846Y354197D02*
X1078846Y354197D01*
X1076713Y355081D01*
X1075081Y356713D01*
X1074197Y358846D01*
X1074197Y361154D01*
X1075081Y363287D01*
X1076713Y364919D01*
X1078846Y365803D01*
X1081154Y365803D01*
X1083287Y364919D01*
X1084919Y363287D01*
X1085803Y361154D01*
X1085803Y358846D01*
X1084919Y356713D01*
X1083287Y355081D01*
X1081154Y354197D01*
X1078846Y354197D01*
G37*
%LPD*%
%LPC*%
G36*
X468846Y954197D02*
X468846Y954197D01*
X466713Y955081D01*
X465081Y956713D01*
X464197Y958846D01*
X464197Y961154D01*
X465081Y963287D01*
X466713Y964919D01*
X468846Y965803D01*
X471154Y965803D01*
X473287Y964919D01*
X474919Y963287D01*
X475803Y961154D01*
X475803Y958846D01*
X474919Y956713D01*
X473287Y955081D01*
X471154Y954197D01*
X468846Y954197D01*
G37*
%LPD*%
%LPC*%
G36*
X598846Y334197D02*
X598846Y334197D01*
X596713Y335081D01*
X595081Y336713D01*
X594197Y338846D01*
X594197Y341154D01*
X595081Y343287D01*
X596713Y344919D01*
X598846Y345803D01*
X601154Y345803D01*
X603287Y344919D01*
X604919Y343287D01*
X605803Y341154D01*
X605803Y338846D01*
X604919Y336713D01*
X603287Y335081D01*
X601154Y334197D01*
X598846Y334197D01*
G37*
%LPD*%
%LPC*%
G36*
X928846Y314197D02*
X928846Y314197D01*
X926713Y315081D01*
X925081Y316713D01*
X924197Y318846D01*
X924197Y321154D01*
X925081Y323287D01*
X926713Y324919D01*
X928846Y325803D01*
X931154Y325803D01*
X933287Y324919D01*
X934919Y323287D01*
X935803Y321154D01*
X935803Y318846D01*
X934919Y316713D01*
X933287Y315081D01*
X931154Y314197D01*
X928846Y314197D01*
G37*
%LPD*%
%LPC*%
G36*
X528846Y314197D02*
X528846Y314197D01*
X526713Y315081D01*
X525081Y316713D01*
X524197Y318846D01*
X524197Y321154D01*
X525081Y323287D01*
X526713Y324919D01*
X528846Y325803D01*
X531154Y325803D01*
X533287Y324919D01*
X534919Y323287D01*
X535803Y321154D01*
X535803Y318846D01*
X534919Y316713D01*
X533287Y315081D01*
X531154Y314197D01*
X528846Y314197D01*
G37*
%LPD*%
%LPC*%
G36*
X1288846Y934197D02*
X1288846Y934197D01*
X1286713Y935081D01*
X1285081Y936713D01*
X1284197Y938846D01*
X1284197Y941154D01*
X1285081Y943287D01*
X1286713Y944919D01*
X1288846Y945803D01*
X1291154Y945803D01*
X1293287Y944919D01*
X1294919Y943287D01*
X1295803Y941154D01*
X1295803Y938846D01*
X1294919Y936713D01*
X1293287Y935081D01*
X1291154Y934197D01*
X1288846Y934197D01*
G37*
%LPD*%
%LPC*%
G36*
X1078846Y934197D02*
X1078846Y934197D01*
X1076713Y935081D01*
X1075081Y936713D01*
X1074197Y938846D01*
X1074197Y941154D01*
X1075081Y943287D01*
X1076713Y944919D01*
X1078846Y945803D01*
X1081154Y945803D01*
X1083287Y944919D01*
X1084919Y943287D01*
X1085803Y941154D01*
X1085803Y938846D01*
X1084919Y936713D01*
X1083287Y935081D01*
X1081154Y934197D01*
X1078846Y934197D01*
G37*
%LPD*%
%LPC*%
G36*
X1928846Y934197D02*
X1928846Y934197D01*
X1926713Y935081D01*
X1925081Y936713D01*
X1924197Y938846D01*
X1924197Y941154D01*
X1925081Y943287D01*
X1926713Y944919D01*
X1928846Y945803D01*
X1931154Y945803D01*
X1933287Y944919D01*
X1934919Y943287D01*
X1935803Y941154D01*
X1935803Y938846D01*
X1934919Y936713D01*
X1933287Y935081D01*
X1931154Y934197D01*
X1928846Y934197D01*
G37*
%LPD*%
%LPC*%
G36*
X368846Y304197D02*
X368846Y304197D01*
X366713Y305081D01*
X365081Y306713D01*
X364197Y308846D01*
X364197Y311154D01*
X365081Y313287D01*
X366713Y314919D01*
X368846Y315803D01*
X371154Y315803D01*
X373287Y314919D01*
X374919Y313287D01*
X375803Y311154D01*
X375803Y308846D01*
X374919Y306713D01*
X373287Y305081D01*
X371154Y304197D01*
X368846Y304197D01*
G37*
%LPD*%
%LPC*%
G36*
X1928846Y294197D02*
X1928846Y294197D01*
X1926713Y295081D01*
X1925081Y296713D01*
X1924197Y298846D01*
X1924197Y301154D01*
X1925081Y303287D01*
X1926713Y304919D01*
X1928846Y305803D01*
X1931154Y305803D01*
X1933287Y304919D01*
X1934919Y303287D01*
X1935803Y301154D01*
X1935803Y298846D01*
X1934919Y296713D01*
X1933287Y295081D01*
X1931154Y294197D01*
X1928846Y294197D01*
G37*
%LPD*%
%LPC*%
G36*
X1718846Y294197D02*
X1718846Y294197D01*
X1716713Y295081D01*
X1715081Y296713D01*
X1714197Y298846D01*
X1714197Y301154D01*
X1715081Y303287D01*
X1716713Y304919D01*
X1718846Y305803D01*
X1721154Y305803D01*
X1723287Y304919D01*
X1724919Y303287D01*
X1725803Y301154D01*
X1725803Y298846D01*
X1724919Y296713D01*
X1723287Y295081D01*
X1721154Y294197D01*
X1718846Y294197D01*
G37*
%LPD*%
%LPC*%
G36*
X1508846Y294197D02*
X1508846Y294197D01*
X1506713Y295081D01*
X1505081Y296713D01*
X1504197Y298846D01*
X1504197Y301154D01*
X1505081Y303287D01*
X1506713Y304919D01*
X1508846Y305803D01*
X1511154Y305803D01*
X1513287Y304919D01*
X1514919Y303287D01*
X1515803Y301154D01*
X1515803Y298846D01*
X1514919Y296713D01*
X1513287Y295081D01*
X1511154Y294197D01*
X1508846Y294197D01*
G37*
%LPD*%
%LPC*%
G36*
X1288846Y294197D02*
X1288846Y294197D01*
X1286713Y295081D01*
X1285081Y296713D01*
X1284197Y298846D01*
X1284197Y301154D01*
X1285081Y303287D01*
X1286713Y304919D01*
X1288846Y305803D01*
X1291154Y305803D01*
X1293287Y304919D01*
X1294919Y303287D01*
X1295803Y301154D01*
X1295803Y298846D01*
X1294919Y296713D01*
X1293287Y295081D01*
X1291154Y294197D01*
X1288846Y294197D01*
G37*
%LPD*%
%LPC*%
G36*
X1008846Y294197D02*
X1008846Y294197D01*
X1006713Y295081D01*
X1005081Y296713D01*
X1004197Y298846D01*
X1004197Y301154D01*
X1005081Y303287D01*
X1006713Y304919D01*
X1008846Y305803D01*
X1011154Y305803D01*
X1013287Y304919D01*
X1014919Y303287D01*
X1015803Y301154D01*
X1015803Y298846D01*
X1014919Y296713D01*
X1013287Y295081D01*
X1011154Y294197D01*
X1008846Y294197D01*
G37*
%LPD*%
%LPC*%
G36*
X463846Y294197D02*
X463846Y294197D01*
X461713Y295081D01*
X460081Y296713D01*
X459197Y298846D01*
X459197Y301154D01*
X460081Y303287D01*
X461713Y304919D01*
X463846Y305803D01*
X466154Y305803D01*
X468287Y304919D01*
X469919Y303287D01*
X470803Y301154D01*
X470803Y298846D01*
X469919Y296713D01*
X468287Y295081D01*
X466154Y294197D01*
X463846Y294197D01*
G37*
%LPD*%
%LPC*%
G36*
X1718846Y934197D02*
X1718846Y934197D01*
X1716713Y935081D01*
X1715081Y936713D01*
X1714197Y938846D01*
X1714197Y941154D01*
X1715081Y943287D01*
X1716713Y944919D01*
X1718846Y945803D01*
X1721154Y945803D01*
X1723287Y944919D01*
X1724919Y943287D01*
X1725803Y941154D01*
X1725803Y938846D01*
X1724919Y936713D01*
X1723287Y935081D01*
X1721154Y934197D01*
X1718846Y934197D01*
G37*
%LPD*%
%LPC*%
G36*
X1078846Y279197D02*
X1078846Y279197D01*
X1076713Y280081D01*
X1075081Y281713D01*
X1074197Y283846D01*
X1074197Y286154D01*
X1075081Y288287D01*
X1076713Y289919D01*
X1078846Y290803D01*
X1081154Y290803D01*
X1083287Y289919D01*
X1084919Y288287D01*
X1085803Y286154D01*
X1085803Y283846D01*
X1084919Y281713D01*
X1083287Y280081D01*
X1081154Y279197D01*
X1078846Y279197D01*
G37*
%LPD*%
%LPC*%
G36*
X618846Y274197D02*
X618846Y274197D01*
X616713Y275081D01*
X615081Y276713D01*
X614197Y278846D01*
X614197Y281154D01*
X615081Y283287D01*
X616713Y284919D01*
X618846Y285803D01*
X621154Y285803D01*
X623287Y284919D01*
X624919Y283287D01*
X625803Y281154D01*
X625803Y278846D01*
X624919Y276713D01*
X623287Y275081D01*
X621154Y274197D01*
X618846Y274197D01*
G37*
%LPD*%
%LPC*%
G36*
X531346Y269197D02*
X531346Y269197D01*
X529213Y270081D01*
X527581Y271713D01*
X526697Y273846D01*
X526697Y276154D01*
X527581Y278287D01*
X529213Y279919D01*
X531346Y280803D01*
X533654Y280803D01*
X535787Y279919D01*
X537419Y278287D01*
X538303Y276154D01*
X538303Y273846D01*
X537419Y271713D01*
X535787Y270081D01*
X533654Y269197D01*
X531346Y269197D01*
G37*
%LPD*%
%LPC*%
G36*
X248846Y264197D02*
X248846Y264197D01*
X246713Y265081D01*
X245081Y266713D01*
X244197Y268846D01*
X244197Y271154D01*
X245081Y273287D01*
X246713Y274919D01*
X248846Y275803D01*
X251154Y275803D01*
X253287Y274919D01*
X254919Y273287D01*
X255803Y271154D01*
X255803Y268846D01*
X254919Y266713D01*
X253287Y265081D01*
X251154Y264197D01*
X248846Y264197D01*
G37*
%LPD*%
%LPC*%
G36*
X1508846Y934197D02*
X1508846Y934197D01*
X1506713Y935081D01*
X1505081Y936713D01*
X1504197Y938846D01*
X1504197Y941154D01*
X1505081Y943287D01*
X1506713Y944919D01*
X1508846Y945803D01*
X1511154Y945803D01*
X1513287Y944919D01*
X1514919Y943287D01*
X1515803Y941154D01*
X1515803Y938846D01*
X1514919Y936713D01*
X1513287Y935081D01*
X1511154Y934197D01*
X1508846Y934197D01*
G37*
%LPD*%
%LPC*%
G36*
X1148846Y259197D02*
X1148846Y259197D01*
X1146713Y260081D01*
X1145081Y261713D01*
X1144197Y263846D01*
X1144197Y266154D01*
X1145081Y268287D01*
X1146713Y269919D01*
X1148846Y270803D01*
X1151154Y270803D01*
X1153287Y269919D01*
X1154919Y268287D01*
X1155803Y266154D01*
X1155803Y263846D01*
X1154919Y261713D01*
X1153287Y260081D01*
X1151154Y259197D01*
X1148846Y259197D01*
G37*
%LPD*%
%LPC*%
G36*
X838846Y934197D02*
X838846Y934197D01*
X836713Y935081D01*
X835081Y936713D01*
X834197Y938846D01*
X834197Y941154D01*
X835081Y943287D01*
X836713Y944919D01*
X838846Y945803D01*
X841154Y945803D01*
X843287Y944919D01*
X844919Y943287D01*
X845803Y941154D01*
X845803Y938846D01*
X844919Y936713D01*
X843287Y935081D01*
X841154Y934197D01*
X838846Y934197D01*
G37*
%LPD*%
%LPC*%
G36*
X838846Y244197D02*
X838846Y244197D01*
X836713Y245081D01*
X835081Y246713D01*
X834197Y248846D01*
X834197Y251154D01*
X835081Y253287D01*
X836713Y254919D01*
X838846Y255803D01*
X841154Y255803D01*
X843287Y254919D01*
X844919Y253287D01*
X845803Y251154D01*
X845803Y248846D01*
X844919Y246713D01*
X843287Y245081D01*
X841154Y244197D01*
X838846Y244197D01*
G37*
%LPD*%
%LPC*%
G36*
X1228846Y234197D02*
X1228846Y234197D01*
X1226713Y235081D01*
X1225081Y236713D01*
X1224197Y238846D01*
X1224197Y241154D01*
X1225081Y243287D01*
X1226713Y244919D01*
X1228846Y245803D01*
X1231154Y245803D01*
X1233287Y244919D01*
X1234919Y243287D01*
X1235803Y241154D01*
X1235803Y238846D01*
X1234919Y236713D01*
X1233287Y235081D01*
X1231154Y234197D01*
X1228846Y234197D01*
G37*
%LPD*%
%LPC*%
G36*
X698846Y924197D02*
X698846Y924197D01*
X696713Y925081D01*
X695081Y926713D01*
X694197Y928846D01*
X694197Y931154D01*
X695081Y933287D01*
X696713Y934919D01*
X698846Y935803D01*
X701154Y935803D01*
X703287Y934919D01*
X704919Y933287D01*
X705803Y931154D01*
X705803Y928846D01*
X704919Y926713D01*
X703287Y925081D01*
X701154Y924197D01*
X698846Y924197D01*
G37*
%LPD*%
%LPC*%
G36*
X1013846Y229197D02*
X1013846Y229197D01*
X1011713Y230081D01*
X1010081Y231713D01*
X1009197Y233846D01*
X1009197Y236154D01*
X1010081Y238287D01*
X1011713Y239919D01*
X1013846Y240803D01*
X1016154Y240803D01*
X1018287Y239919D01*
X1019919Y238287D01*
X1020803Y236154D01*
X1020803Y233846D01*
X1019919Y231713D01*
X1018287Y230081D01*
X1016154Y229197D01*
X1013846Y229197D01*
G37*
%LPD*%
%LPC*%
G36*
X588846Y224197D02*
X588846Y224197D01*
X586713Y225081D01*
X585081Y226713D01*
X584197Y228846D01*
X584197Y231154D01*
X585081Y233287D01*
X586713Y234919D01*
X588846Y235803D01*
X591154Y235803D01*
X593287Y234919D01*
X594919Y233287D01*
X595803Y231154D01*
X595803Y228846D01*
X594919Y226713D01*
X593287Y225081D01*
X591154Y224197D01*
X588846Y224197D01*
G37*
%LPD*%
%LPC*%
G36*
X78846Y224197D02*
X78846Y224197D01*
X76713Y225081D01*
X75081Y226713D01*
X74197Y228846D01*
X74197Y231154D01*
X75081Y233287D01*
X76713Y234919D01*
X78846Y235803D01*
X81154Y235803D01*
X83287Y234919D01*
X84919Y233287D01*
X85803Y231154D01*
X85803Y228846D01*
X84919Y226713D01*
X83287Y225081D01*
X81154Y224197D01*
X78846Y224197D01*
G37*
%LPD*%
%LPC*%
G36*
X313846Y219197D02*
X313846Y219197D01*
X311713Y220081D01*
X310081Y221713D01*
X309197Y223846D01*
X309197Y226154D01*
X310081Y228287D01*
X311713Y229919D01*
X313846Y230803D01*
X316154Y230803D01*
X318287Y229919D01*
X319919Y228287D01*
X320803Y226154D01*
X320803Y223846D01*
X319919Y221713D01*
X318287Y220081D01*
X316154Y219197D01*
X313846Y219197D01*
G37*
%LPD*%
%LPC*%
G36*
X428846Y214197D02*
X428846Y214197D01*
X426713Y215081D01*
X425081Y216713D01*
X424197Y218846D01*
X424197Y221154D01*
X425081Y223287D01*
X426713Y224919D01*
X428846Y225803D01*
X431154Y225803D01*
X433287Y224919D01*
X434919Y223287D01*
X435803Y221154D01*
X435803Y218846D01*
X434919Y216713D01*
X433287Y215081D01*
X431154Y214197D01*
X428846Y214197D01*
G37*
%LPD*%
%LPC*%
G36*
X2028846Y884197D02*
X2028846Y884197D01*
X2026713Y885081D01*
X2025081Y886713D01*
X2024197Y888846D01*
X2024197Y891154D01*
X2025081Y893287D01*
X2026713Y894919D01*
X2028846Y895803D01*
X2031154Y895803D01*
X2033287Y894919D01*
X2034919Y893287D01*
X2035803Y891154D01*
X2035803Y888846D01*
X2034919Y886713D01*
X2033287Y885081D01*
X2031154Y884197D01*
X2028846Y884197D01*
G37*
%LPD*%
%LPC*%
G36*
X588846Y879197D02*
X588846Y879197D01*
X586713Y880081D01*
X585081Y881713D01*
X584197Y883846D01*
X584197Y886154D01*
X585081Y888287D01*
X586713Y889919D01*
X588846Y890803D01*
X591154Y890803D01*
X593287Y889919D01*
X594919Y888287D01*
X595803Y886154D01*
X595803Y883846D01*
X594919Y881713D01*
X593287Y880081D01*
X591154Y879197D01*
X588846Y879197D01*
G37*
%LPD*%
%LPC*%
G36*
X658846Y184197D02*
X658846Y184197D01*
X656713Y185081D01*
X655081Y186713D01*
X654197Y188846D01*
X654197Y191154D01*
X655081Y193287D01*
X656713Y194919D01*
X658846Y195803D01*
X661154Y195803D01*
X663287Y194919D01*
X664919Y193287D01*
X665803Y191154D01*
X665803Y188846D01*
X664919Y186713D01*
X663287Y185081D01*
X661154Y184197D01*
X658846Y184197D01*
G37*
%LPD*%
%LPC*%
G36*
X1928846Y174197D02*
X1928846Y174197D01*
X1926713Y175081D01*
X1925081Y176713D01*
X1924197Y178846D01*
X1924197Y181154D01*
X1925081Y183287D01*
X1926713Y184919D01*
X1928846Y185803D01*
X1931154Y185803D01*
X1933287Y184919D01*
X1934919Y183287D01*
X1935803Y181154D01*
X1935803Y178846D01*
X1934919Y176713D01*
X1933287Y175081D01*
X1931154Y174197D01*
X1928846Y174197D01*
G37*
%LPD*%
%LPC*%
G36*
X1718846Y174197D02*
X1718846Y174197D01*
X1716713Y175081D01*
X1715081Y176713D01*
X1714197Y178846D01*
X1714197Y181154D01*
X1715081Y183287D01*
X1716713Y184919D01*
X1718846Y185803D01*
X1721154Y185803D01*
X1723287Y184919D01*
X1724919Y183287D01*
X1725803Y181154D01*
X1725803Y178846D01*
X1724919Y176713D01*
X1723287Y175081D01*
X1721154Y174197D01*
X1718846Y174197D01*
G37*
%LPD*%
%LPC*%
G36*
X1508846Y174197D02*
X1508846Y174197D01*
X1506713Y175081D01*
X1505081Y176713D01*
X1504197Y178846D01*
X1504197Y181154D01*
X1505081Y183287D01*
X1506713Y184919D01*
X1508846Y185803D01*
X1511154Y185803D01*
X1513287Y184919D01*
X1514919Y183287D01*
X1515803Y181154D01*
X1515803Y178846D01*
X1514919Y176713D01*
X1513287Y175081D01*
X1511154Y174197D01*
X1508846Y174197D01*
G37*
%LPD*%
%LPC*%
G36*
X1288846Y174197D02*
X1288846Y174197D01*
X1286713Y175081D01*
X1285081Y176713D01*
X1284197Y178846D01*
X1284197Y181154D01*
X1285081Y183287D01*
X1286713Y184919D01*
X1288846Y185803D01*
X1291154Y185803D01*
X1293287Y184919D01*
X1294919Y183287D01*
X1295803Y181154D01*
X1295803Y178846D01*
X1294919Y176713D01*
X1293287Y175081D01*
X1291154Y174197D01*
X1288846Y174197D01*
G37*
%LPD*%
%LPC*%
G36*
X908846Y174197D02*
X908846Y174197D01*
X906713Y175081D01*
X905081Y176713D01*
X904197Y178846D01*
X904197Y181154D01*
X905081Y183287D01*
X906713Y184919D01*
X908846Y185803D01*
X911154Y185803D01*
X913287Y184919D01*
X914919Y183287D01*
X915803Y181154D01*
X915803Y178846D01*
X914919Y176713D01*
X913287Y175081D01*
X911154Y174197D01*
X908846Y174197D01*
G37*
%LPD*%
%LPC*%
G36*
X468846Y864197D02*
X468846Y864197D01*
X466713Y865081D01*
X465081Y866713D01*
X464197Y868846D01*
X464197Y871154D01*
X465081Y873287D01*
X466713Y874919D01*
X468846Y875803D01*
X471154Y875803D01*
X473287Y874919D01*
X474919Y873287D01*
X475803Y871154D01*
X475803Y868846D01*
X474919Y866713D01*
X473287Y865081D01*
X471154Y864197D01*
X468846Y864197D01*
G37*
%LPD*%
%LPC*%
G36*
X1188846Y164197D02*
X1188846Y164197D01*
X1186713Y165081D01*
X1185081Y166713D01*
X1184197Y168846D01*
X1184197Y171154D01*
X1185081Y173287D01*
X1186713Y174919D01*
X1188846Y175803D01*
X1191154Y175803D01*
X1193287Y174919D01*
X1194919Y173287D01*
X1195803Y171154D01*
X1195803Y168846D01*
X1194919Y166713D01*
X1193287Y165081D01*
X1191154Y164197D01*
X1188846Y164197D01*
G37*
%LPD*%
%LPC*%
G36*
X1508846Y614197D02*
X1508846Y614197D01*
X1506713Y615081D01*
X1505081Y616713D01*
X1504197Y618846D01*
X1504197Y621154D01*
X1505081Y623287D01*
X1506713Y624919D01*
X1508846Y625803D01*
X1511154Y625803D01*
X1513287Y624919D01*
X1514919Y623287D01*
X1515803Y621154D01*
X1515803Y618846D01*
X1514919Y616713D01*
X1513287Y615081D01*
X1511154Y614197D01*
X1508846Y614197D01*
G37*
%LPD*%
%LPC*%
G36*
X428846Y854197D02*
X428846Y854197D01*
X426713Y855081D01*
X425081Y856713D01*
X424197Y858846D01*
X424197Y861154D01*
X425081Y863287D01*
X426713Y864919D01*
X428846Y865803D01*
X431154Y865803D01*
X433287Y864919D01*
X434919Y863287D01*
X435803Y861154D01*
X435803Y858846D01*
X434919Y856713D01*
X433287Y855081D01*
X431154Y854197D01*
X428846Y854197D01*
G37*
%LPD*%
%LPC*%
G36*
X1078846Y154197D02*
X1078846Y154197D01*
X1076713Y155081D01*
X1075081Y156713D01*
X1074197Y158846D01*
X1074197Y161154D01*
X1075081Y163287D01*
X1076713Y164919D01*
X1078846Y165803D01*
X1081154Y165803D01*
X1083287Y164919D01*
X1084919Y163287D01*
X1085803Y161154D01*
X1085803Y158846D01*
X1084919Y156713D01*
X1083287Y155081D01*
X1081154Y154197D01*
X1078846Y154197D01*
G37*
%LPD*%
%LPC*%
G36*
X568846Y144197D02*
X568846Y144197D01*
X566713Y145081D01*
X565081Y146713D01*
X564197Y148846D01*
X564197Y151154D01*
X565081Y153287D01*
X566713Y154919D01*
X568846Y155803D01*
X571154Y155803D01*
X573287Y154919D01*
X574919Y153287D01*
X575803Y151154D01*
X575803Y148846D01*
X574919Y146713D01*
X573287Y145081D01*
X571154Y144197D01*
X568846Y144197D01*
G37*
%LPD*%
%LPC*%
G36*
X428846Y144197D02*
X428846Y144197D01*
X426713Y145081D01*
X425081Y146713D01*
X424197Y148846D01*
X424197Y151154D01*
X425081Y153287D01*
X426713Y154919D01*
X428846Y155803D01*
X431154Y155803D01*
X433287Y154919D01*
X434919Y153287D01*
X435803Y151154D01*
X435803Y148846D01*
X434919Y146713D01*
X433287Y145081D01*
X431154Y144197D01*
X428846Y144197D01*
G37*
%LPD*%
%LPC*%
G36*
X298846Y144197D02*
X298846Y144197D01*
X296713Y145081D01*
X295081Y146713D01*
X294197Y148846D01*
X294197Y151154D01*
X295081Y153287D01*
X296713Y154919D01*
X298846Y155803D01*
X301154Y155803D01*
X303287Y154919D01*
X304919Y153287D01*
X305803Y151154D01*
X305803Y148846D01*
X304919Y146713D01*
X303287Y145081D01*
X301154Y144197D01*
X298846Y144197D01*
G37*
%LPD*%
%LPC*%
G36*
X1016346Y134197D02*
X1016346Y134197D01*
X1014213Y135081D01*
X1012581Y136713D01*
X1011697Y138846D01*
X1011697Y141154D01*
X1012581Y143287D01*
X1014213Y144919D01*
X1016346Y145803D01*
X1018654Y145803D01*
X1020787Y144919D01*
X1022419Y143287D01*
X1023303Y141154D01*
X1023303Y138846D01*
X1022419Y136713D01*
X1020787Y135081D01*
X1018654Y134197D01*
X1016346Y134197D01*
G37*
%LPD*%
%LPC*%
G36*
X648846Y134197D02*
X648846Y134197D01*
X646713Y135081D01*
X645081Y136713D01*
X644197Y138846D01*
X644197Y141154D01*
X645081Y143287D01*
X646713Y144919D01*
X648846Y145803D01*
X651154Y145803D01*
X653287Y144919D01*
X654919Y143287D01*
X655803Y141154D01*
X655803Y138846D01*
X654919Y136713D01*
X653287Y135081D01*
X651154Y134197D01*
X648846Y134197D01*
G37*
%LPD*%
%LPC*%
G36*
X361346Y849197D02*
X361346Y849197D01*
X359213Y850081D01*
X357581Y851713D01*
X356697Y853846D01*
X356697Y856154D01*
X357581Y858287D01*
X359213Y859919D01*
X361346Y860803D01*
X363654Y860803D01*
X365787Y859919D01*
X367419Y858287D01*
X368303Y856154D01*
X368303Y853846D01*
X367419Y851713D01*
X365787Y850081D01*
X363654Y849197D01*
X361346Y849197D01*
G37*
%LPD*%
%LPC*%
G36*
X1143846Y114197D02*
X1143846Y114197D01*
X1141713Y115081D01*
X1140081Y116713D01*
X1139197Y118846D01*
X1139197Y121154D01*
X1140081Y123287D01*
X1141713Y124919D01*
X1143846Y125803D01*
X1146154Y125803D01*
X1148287Y124919D01*
X1149919Y123287D01*
X1150803Y121154D01*
X1150803Y118846D01*
X1149919Y116713D01*
X1148287Y115081D01*
X1146154Y114197D01*
X1143846Y114197D01*
G37*
%LPD*%
%LPC*%
G36*
X198846Y114197D02*
X198846Y114197D01*
X196713Y115081D01*
X195081Y116713D01*
X194197Y118846D01*
X194197Y121154D01*
X195081Y123287D01*
X196713Y124919D01*
X198846Y125803D01*
X201154Y125803D01*
X203287Y124919D01*
X204919Y123287D01*
X205803Y121154D01*
X205803Y118846D01*
X204919Y116713D01*
X203287Y115081D01*
X201154Y114197D01*
X198846Y114197D01*
G37*
%LPD*%
%LPC*%
G36*
X318846Y849197D02*
X318846Y849197D01*
X316713Y850081D01*
X315081Y851713D01*
X314197Y853846D01*
X314197Y856154D01*
X315081Y858287D01*
X316713Y859919D01*
X318846Y860803D01*
X321154Y860803D01*
X323287Y859919D01*
X324919Y858287D01*
X325803Y856154D01*
X325803Y853846D01*
X324919Y851713D01*
X323287Y850081D01*
X321154Y849197D01*
X318846Y849197D01*
G37*
%LPD*%
%LPC*%
G36*
X238846Y834197D02*
X238846Y834197D01*
X236713Y835081D01*
X235081Y836713D01*
X234197Y838846D01*
X234197Y841154D01*
X235081Y843287D01*
X236713Y844919D01*
X238846Y845803D01*
X241154Y845803D01*
X243287Y844919D01*
X244919Y843287D01*
X245803Y841154D01*
X245803Y838846D01*
X244919Y836713D01*
X243287Y835081D01*
X241154Y834197D01*
X238846Y834197D01*
G37*
%LPD*%
%LPC*%
G36*
X758846Y94197D02*
X758846Y94197D01*
X756713Y95081D01*
X755081Y96713D01*
X754197Y98846D01*
X754197Y101154D01*
X755081Y103287D01*
X756713Y104919D01*
X758846Y105803D01*
X761154Y105803D01*
X763287Y104919D01*
X764919Y103287D01*
X765803Y101154D01*
X765803Y98846D01*
X764919Y96713D01*
X763287Y95081D01*
X761154Y94197D01*
X758846Y94197D01*
G37*
%LPD*%
%LPC*%
G36*
X196346Y829197D02*
X196346Y829197D01*
X194213Y830081D01*
X192581Y831713D01*
X191697Y833846D01*
X191697Y836154D01*
X192581Y838287D01*
X194213Y839919D01*
X196346Y840803D01*
X198654Y840803D01*
X200787Y839919D01*
X202419Y838287D01*
X203303Y836154D01*
X203303Y833846D01*
X202419Y831713D01*
X200787Y830081D01*
X198654Y829197D01*
X196346Y829197D01*
G37*
%LPD*%
%LPC*%
G36*
X1928846Y44197D02*
X1928846Y44197D01*
X1926713Y45081D01*
X1925081Y46713D01*
X1924197Y48846D01*
X1924197Y51154D01*
X1925081Y53287D01*
X1926713Y54919D01*
X1928846Y55803D01*
X1931154Y55803D01*
X1933287Y54919D01*
X1934919Y53287D01*
X1935803Y51154D01*
X1935803Y48846D01*
X1934919Y46713D01*
X1933287Y45081D01*
X1931154Y44197D01*
X1928846Y44197D01*
G37*
%LPD*%
%LPC*%
G36*
X1718846Y44197D02*
X1718846Y44197D01*
X1716713Y45081D01*
X1715081Y46713D01*
X1714197Y48846D01*
X1714197Y51154D01*
X1715081Y53287D01*
X1716713Y54919D01*
X1718846Y55803D01*
X1721154Y55803D01*
X1723287Y54919D01*
X1724919Y53287D01*
X1725803Y51154D01*
X1725803Y48846D01*
X1724919Y46713D01*
X1723287Y45081D01*
X1721154Y44197D01*
X1718846Y44197D01*
G37*
%LPD*%
%LPC*%
G36*
X1508846Y44197D02*
X1508846Y44197D01*
X1506713Y45081D01*
X1505081Y46713D01*
X1504197Y48846D01*
X1504197Y51154D01*
X1505081Y53287D01*
X1506713Y54919D01*
X1508846Y55803D01*
X1511154Y55803D01*
X1513287Y54919D01*
X1514919Y53287D01*
X1515803Y51154D01*
X1515803Y48846D01*
X1514919Y46713D01*
X1513287Y45081D01*
X1511154Y44197D01*
X1508846Y44197D01*
G37*
%LPD*%
%LPC*%
G36*
X1288846Y44197D02*
X1288846Y44197D01*
X1286713Y45081D01*
X1285081Y46713D01*
X1284197Y48846D01*
X1284197Y51154D01*
X1285081Y53287D01*
X1286713Y54919D01*
X1288846Y55803D01*
X1291154Y55803D01*
X1293287Y54919D01*
X1294919Y53287D01*
X1295803Y51154D01*
X1295803Y48846D01*
X1294919Y46713D01*
X1293287Y45081D01*
X1291154Y44197D01*
X1288846Y44197D01*
G37*
%LPD*%
%LPC*%
G36*
X1078846Y44197D02*
X1078846Y44197D01*
X1076713Y45081D01*
X1075081Y46713D01*
X1074197Y48846D01*
X1074197Y51154D01*
X1075081Y53287D01*
X1076713Y54919D01*
X1078846Y55803D01*
X1081154Y55803D01*
X1083287Y54919D01*
X1084919Y53287D01*
X1085803Y51154D01*
X1085803Y48846D01*
X1084919Y46713D01*
X1083287Y45081D01*
X1081154Y44197D01*
X1078846Y44197D01*
G37*
%LPD*%
%LPC*%
G36*
X878846Y44197D02*
X878846Y44197D01*
X876713Y45081D01*
X875081Y46713D01*
X874197Y48846D01*
X874197Y51154D01*
X875081Y53287D01*
X876713Y54919D01*
X878846Y55803D01*
X881154Y55803D01*
X883287Y54919D01*
X884919Y53287D01*
X885803Y51154D01*
X885803Y48846D01*
X884919Y46713D01*
X883287Y45081D01*
X881154Y44197D01*
X878846Y44197D01*
G37*
%LPD*%
%LPC*%
G36*
X648846Y44197D02*
X648846Y44197D01*
X646713Y45081D01*
X645081Y46713D01*
X644197Y48846D01*
X644197Y51154D01*
X645081Y53287D01*
X646713Y54919D01*
X648846Y55803D01*
X651154Y55803D01*
X653287Y54919D01*
X654919Y53287D01*
X655803Y51154D01*
X655803Y48846D01*
X654919Y46713D01*
X653287Y45081D01*
X651154Y44197D01*
X648846Y44197D01*
G37*
%LPD*%
%LPC*%
G36*
X428846Y44197D02*
X428846Y44197D01*
X426713Y45081D01*
X425081Y46713D01*
X424197Y48846D01*
X424197Y51154D01*
X425081Y53287D01*
X426713Y54919D01*
X428846Y55803D01*
X431154Y55803D01*
X433287Y54919D01*
X434919Y53287D01*
X435803Y51154D01*
X435803Y48846D01*
X434919Y46713D01*
X433287Y45081D01*
X431154Y44197D01*
X428846Y44197D01*
G37*
%LPD*%
%LPC*%
G36*
X198846Y44197D02*
X198846Y44197D01*
X196713Y45081D01*
X195081Y46713D01*
X194197Y48846D01*
X194197Y51154D01*
X195081Y53287D01*
X196713Y54919D01*
X198846Y55803D01*
X201154Y55803D01*
X203287Y54919D01*
X204919Y53287D01*
X205803Y51154D01*
X205803Y48846D01*
X204919Y46713D01*
X203287Y45081D01*
X201154Y44197D01*
X198846Y44197D01*
G37*
%LPD*%
%LPC*%
G36*
X168846Y829197D02*
X168846Y829197D01*
X166713Y830081D01*
X165081Y831713D01*
X164197Y833846D01*
X164197Y836154D01*
X165081Y838287D01*
X166713Y839919D01*
X168846Y840803D01*
X171154Y840803D01*
X173287Y839919D01*
X174919Y838287D01*
X175803Y836154D01*
X175803Y833846D01*
X174919Y831713D01*
X173287Y830081D01*
X171154Y829197D01*
X168846Y829197D01*
G37*
%LPD*%
%LPC*%
G36*
X78846Y164197D02*
X78846Y164197D01*
X76713Y165081D01*
X75081Y166713D01*
X74197Y168846D01*
X74197Y171154D01*
X75081Y173287D01*
X76713Y174919D01*
X78846Y175803D01*
X81154Y175803D01*
X83287Y174919D01*
X84919Y173287D01*
X85803Y171154D01*
X85803Y168846D01*
X84919Y166713D01*
X83287Y165081D01*
X81154Y164197D01*
X78846Y164197D01*
G37*
%LPD*%
%LPC*%
G36*
X1148995Y214947D02*
X1148995Y214947D01*
X1147138Y215716D01*
X1145716Y217138D01*
X1144947Y218995D01*
X1144947Y221005D01*
X1145716Y222862D01*
X1147138Y224283D01*
X1147207Y224312D01*
X1147365Y224395D01*
X1147525Y224471D01*
X1147563Y224498D01*
X1147606Y224521D01*
X1147747Y224629D01*
X1147891Y224733D01*
X1147924Y224767D01*
X1147962Y224796D01*
X1148081Y224928D01*
X1148205Y225055D01*
X1148232Y225095D01*
X1148264Y225130D01*
X1148268Y225138D01*
X1148428Y225109D01*
X1148602Y225072D01*
X1148661Y225068D01*
X1148697Y225062D01*
X1148760Y225062D01*
X1148914Y225053D01*
X1151005Y225053D01*
X1152862Y224284D01*
X1154284Y222862D01*
X1155053Y221005D01*
X1155053Y218995D01*
X1154284Y217138D01*
X1152862Y215716D01*
X1151005Y214947D01*
X1148995Y214947D01*
G37*
%LPD*%
%LPC*%
G36*
X508995Y164947D02*
X508995Y164947D01*
X507138Y165716D01*
X505716Y167138D01*
X504947Y168995D01*
X504947Y171005D01*
X505716Y172862D01*
X507138Y174284D01*
X508995Y175053D01*
X511005Y175053D01*
X512862Y174284D01*
X514284Y172862D01*
X515053Y171005D01*
X515053Y168995D01*
X514284Y167138D01*
X512862Y165716D01*
X511005Y164947D01*
X508995Y164947D01*
G37*
%LPD*%
%LPC*%
G36*
X238995Y164947D02*
X238995Y164947D01*
X237138Y165716D01*
X235716Y167138D01*
X234947Y168995D01*
X234947Y171005D01*
X235716Y172862D01*
X237138Y174284D01*
X238995Y175053D01*
X241005Y175053D01*
X242862Y174284D01*
X244284Y172862D01*
X245053Y171005D01*
X245053Y168995D01*
X244284Y167138D01*
X242862Y165716D01*
X241005Y164947D01*
X238995Y164947D01*
G37*
%LPD*%
%LPC*%
G36*
X1788995Y584947D02*
X1788995Y584947D01*
X1787138Y585716D01*
X1785716Y587138D01*
X1784947Y588995D01*
X1784947Y591005D01*
X1785716Y592862D01*
X1787138Y594284D01*
X1788995Y595053D01*
X1791005Y595053D01*
X1792862Y594284D01*
X1794284Y592862D01*
X1795053Y591005D01*
X1795053Y588995D01*
X1794284Y587138D01*
X1792862Y585716D01*
X1791005Y584947D01*
X1788995Y584947D01*
G37*
%LPD*%
%LPC*%
G36*
X558995Y697447D02*
X558995Y697447D01*
X557138Y698216D01*
X555716Y699638D01*
X554947Y701495D01*
X554947Y703505D01*
X555716Y705362D01*
X557138Y706784D01*
X558995Y707553D01*
X561005Y707553D01*
X562862Y706784D01*
X564284Y705362D01*
X565053Y703505D01*
X565053Y701495D01*
X564284Y699638D01*
X562862Y698216D01*
X561005Y697447D01*
X558995Y697447D01*
G37*
%LPD*%
%LPC*%
G36*
X748995Y234947D02*
X748995Y234947D01*
X747138Y235716D01*
X745716Y237138D01*
X744947Y238995D01*
X744947Y241005D01*
X745716Y242862D01*
X747138Y244284D01*
X748995Y245053D01*
X751005Y245053D01*
X752862Y244284D01*
X754284Y242862D01*
X755053Y241005D01*
X755053Y238995D01*
X754284Y237138D01*
X752862Y235716D01*
X751005Y234947D01*
X748995Y234947D01*
G37*
%LPD*%
%LPC*%
G36*
X1133995Y304947D02*
X1133995Y304947D01*
X1132138Y305716D01*
X1130716Y307138D01*
X1129947Y308995D01*
X1129947Y311005D01*
X1130716Y312862D01*
X1132138Y314284D01*
X1133995Y315053D01*
X1136005Y315053D01*
X1137862Y314284D01*
X1139284Y312862D01*
X1140053Y311005D01*
X1140053Y308995D01*
X1139284Y307138D01*
X1137862Y305716D01*
X1136005Y304947D01*
X1133995Y304947D01*
G37*
%LPD*%
%LPC*%
G36*
X318995Y804947D02*
X318995Y804947D01*
X317138Y805716D01*
X315716Y807138D01*
X314947Y808995D01*
X314947Y811005D01*
X315716Y812862D01*
X317138Y814284D01*
X318995Y815053D01*
X321005Y815053D01*
X322862Y814284D01*
X324284Y812862D01*
X325053Y811005D01*
X325053Y808995D01*
X324284Y807138D01*
X322862Y805716D01*
X321005Y804947D01*
X318995Y804947D01*
G37*
%LPD*%
%LPC*%
G36*
X618995Y434947D02*
X618995Y434947D01*
X617138Y435716D01*
X615716Y437138D01*
X614947Y438995D01*
X614947Y441005D01*
X615716Y442862D01*
X617138Y444284D01*
X618995Y445053D01*
X621005Y445053D01*
X622862Y444284D01*
X624284Y442862D01*
X625053Y441005D01*
X625053Y438995D01*
X624284Y437138D01*
X622862Y435716D01*
X621005Y434947D01*
X618995Y434947D01*
G37*
%LPD*%
%LPC*%
G36*
X278995Y824947D02*
X278995Y824947D01*
X277138Y825716D01*
X275716Y827138D01*
X274947Y828995D01*
X274947Y831005D01*
X275716Y832862D01*
X277138Y834284D01*
X278995Y835053D01*
X281005Y835053D01*
X282862Y834284D01*
X284284Y832862D01*
X285053Y831005D01*
X285053Y828995D01*
X284284Y827138D01*
X282862Y825716D01*
X281005Y824947D01*
X278995Y824947D01*
G37*
%LPD*%
%LPC*%
G36*
X648995Y224947D02*
X648995Y224947D01*
X647138Y225716D01*
X645716Y227138D01*
X644947Y228995D01*
X644947Y231005D01*
X645716Y232862D01*
X647138Y234284D01*
X648995Y235053D01*
X651005Y235053D01*
X652862Y234284D01*
X654284Y232862D01*
X655053Y231005D01*
X655053Y228995D01*
X654284Y227138D01*
X652862Y225716D01*
X651005Y224947D01*
X648995Y224947D01*
G37*
%LPD*%
%LPC*%
G36*
X558995Y757447D02*
X558995Y757447D01*
X557138Y758216D01*
X555716Y759638D01*
X554947Y761495D01*
X554947Y763505D01*
X555716Y765362D01*
X557138Y766784D01*
X558995Y767553D01*
X561005Y767553D01*
X562862Y766784D01*
X564284Y765362D01*
X565053Y763505D01*
X565053Y761495D01*
X564284Y759638D01*
X562862Y758216D01*
X561005Y757447D01*
X558995Y757447D01*
G37*
%LPD*%
%LPC*%
G36*
X658995Y964947D02*
X658995Y964947D01*
X657138Y965716D01*
X655716Y967138D01*
X654947Y968995D01*
X654947Y971005D01*
X655716Y972862D01*
X657138Y974284D01*
X658995Y975053D01*
X661005Y975053D01*
X662862Y974284D01*
X664284Y972862D01*
X665053Y971005D01*
X665053Y968995D01*
X664284Y967138D01*
X662862Y965716D01*
X661005Y964947D01*
X658995Y964947D01*
G37*
%LPD*%
%LPC*%
G36*
X1958995Y964947D02*
X1958995Y964947D01*
X1957138Y965716D01*
X1955716Y967138D01*
X1954947Y968995D01*
X1954947Y971005D01*
X1955716Y972862D01*
X1957138Y974284D01*
X1958995Y975053D01*
X1961005Y975053D01*
X1962862Y974284D01*
X1964284Y972862D01*
X1965053Y971005D01*
X1965053Y968995D01*
X1964284Y967138D01*
X1962862Y965716D01*
X1961005Y964947D01*
X1958995Y964947D01*
G37*
%LPD*%
%LPC*%
G36*
X1133995Y202447D02*
X1133995Y202447D01*
X1132138Y203216D01*
X1130716Y204638D01*
X1129947Y206495D01*
X1129947Y208505D01*
X1130716Y210362D01*
X1132138Y211784D01*
X1133995Y212553D01*
X1136005Y212553D01*
X1137862Y211784D01*
X1139284Y210362D01*
X1140053Y208505D01*
X1140053Y206495D01*
X1139284Y204638D01*
X1137862Y203216D01*
X1136005Y202447D01*
X1133995Y202447D01*
G37*
%LPD*%
%LPC*%
G36*
X388995Y94947D02*
X388995Y94947D01*
X387138Y95716D01*
X385716Y97138D01*
X384947Y98995D01*
X384947Y101005D01*
X385716Y102862D01*
X387138Y104284D01*
X388995Y105053D01*
X391005Y105053D01*
X392862Y104284D01*
X394284Y102862D01*
X395053Y101005D01*
X395053Y98995D01*
X394284Y97138D01*
X392862Y95716D01*
X391005Y94947D01*
X388995Y94947D01*
G37*
%LPD*%
%LPC*%
G36*
X78995Y194947D02*
X78995Y194947D01*
X77138Y195716D01*
X75716Y197138D01*
X74947Y198995D01*
X74947Y201005D01*
X75716Y202862D01*
X77138Y204284D01*
X78995Y205053D01*
X81005Y205053D01*
X82862Y204284D01*
X84284Y202862D01*
X85053Y201005D01*
X85053Y198995D01*
X84284Y197138D01*
X82862Y195716D01*
X81005Y194947D01*
X78995Y194947D01*
G37*
%LPD*%
%LPC*%
G36*
X571495Y189947D02*
X571495Y189947D01*
X569638Y190716D01*
X568216Y192138D01*
X567447Y193995D01*
X567447Y196005D01*
X568216Y197862D01*
X569638Y199284D01*
X571495Y200053D01*
X573505Y200053D01*
X575362Y199284D01*
X576784Y197862D01*
X577553Y196005D01*
X577553Y193995D01*
X576784Y192138D01*
X575362Y190716D01*
X573505Y189947D01*
X571495Y189947D01*
G37*
%LPD*%
%LPC*%
G36*
X78995Y394947D02*
X78995Y394947D01*
X77138Y395716D01*
X75716Y397138D01*
X74947Y398995D01*
X74947Y401005D01*
X75716Y402862D01*
X77138Y404284D01*
X78995Y405053D01*
X81005Y405053D01*
X82862Y404284D01*
X84284Y402862D01*
X85053Y401005D01*
X85053Y398995D01*
X84284Y397138D01*
X82862Y395716D01*
X81005Y394947D01*
X78995Y394947D01*
G37*
%LPD*%
%LPC*%
G36*
X768995Y564947D02*
X768995Y564947D01*
X767138Y565716D01*
X765716Y567138D01*
X764947Y568995D01*
X764947Y571005D01*
X765716Y572862D01*
X767138Y574284D01*
X768995Y575053D01*
X771005Y575053D01*
X772862Y574284D01*
X774284Y572862D01*
X775053Y571005D01*
X775053Y568995D01*
X774284Y567138D01*
X772862Y565716D01*
X771005Y564947D01*
X768995Y564947D01*
G37*
%LPD*%
%LPC*%
G36*
X433995Y384947D02*
X433995Y384947D01*
X432138Y385716D01*
X430716Y387138D01*
X429947Y388995D01*
X429947Y391005D01*
X430716Y392862D01*
X432138Y394284D01*
X433995Y395053D01*
X436005Y395053D01*
X437862Y394284D01*
X439284Y392862D01*
X440053Y391005D01*
X440053Y388995D01*
X439284Y387138D01*
X437862Y385716D01*
X436005Y384947D01*
X433995Y384947D01*
G37*
%LPD*%
%LPC*%
G36*
X348995Y794947D02*
X348995Y794947D01*
X347138Y795716D01*
X345716Y797138D01*
X344947Y798995D01*
X344947Y801005D01*
X345716Y802862D01*
X347138Y804284D01*
X348995Y805053D01*
X351005Y805053D01*
X352862Y804284D01*
X354284Y802862D01*
X355053Y801005D01*
X355053Y798995D01*
X354284Y797138D01*
X352862Y795716D01*
X351005Y794947D01*
X348995Y794947D01*
G37*
%LPD*%
%LPC*%
G36*
X78995Y594947D02*
X78995Y594947D01*
X77138Y595716D01*
X75716Y597138D01*
X74947Y598995D01*
X74947Y601005D01*
X75716Y602862D01*
X77138Y604284D01*
X78995Y605053D01*
X81005Y605053D01*
X82862Y604284D01*
X84284Y602862D01*
X85053Y601005D01*
X85053Y598995D01*
X84284Y597138D01*
X82862Y595716D01*
X81005Y594947D01*
X78995Y594947D01*
G37*
%LPD*%
%LPC*%
G36*
X1138995Y174947D02*
X1138995Y174947D01*
X1137138Y175716D01*
X1135716Y177138D01*
X1134947Y178995D01*
X1134947Y181005D01*
X1135716Y182862D01*
X1137138Y184284D01*
X1138995Y185053D01*
X1141005Y185053D01*
X1142862Y184284D01*
X1144284Y182862D01*
X1145053Y181005D01*
X1145053Y178995D01*
X1144284Y177138D01*
X1142862Y175716D01*
X1141005Y174947D01*
X1138995Y174947D01*
G37*
%LPD*%
%LPC*%
G36*
X1928995Y374947D02*
X1928995Y374947D01*
X1927138Y375716D01*
X1925716Y377138D01*
X1924947Y378995D01*
X1924947Y381005D01*
X1925716Y382862D01*
X1927138Y384284D01*
X1928995Y385053D01*
X1931005Y385053D01*
X1932862Y384284D01*
X1934284Y382862D01*
X1935053Y381005D01*
X1935053Y378995D01*
X1934284Y377138D01*
X1932862Y375716D01*
X1931005Y374947D01*
X1928995Y374947D01*
G37*
%LPD*%
%LPC*%
G36*
X2155200Y313500D02*
X2155200Y313500D01*
X2155200Y323483D01*
X2155884Y323300D01*
X2157646Y322570D01*
X2159297Y321617D01*
X2160809Y320457D01*
X2162157Y319109D01*
X2163317Y317597D01*
X2164270Y315946D01*
X2165000Y314184D01*
X2165183Y313500D01*
X2155200Y313500D01*
G37*
%LPD*%
%LPC*%
G36*
X2155200Y305500D02*
X2155200Y305500D01*
X2165183Y305500D01*
X2165000Y304816D01*
X2164270Y303054D01*
X2163317Y301403D01*
X2162157Y299891D01*
X2160809Y298543D01*
X2159297Y297383D01*
X2157646Y296430D01*
X2155884Y295700D01*
X2155200Y295517D01*
X2155200Y305500D01*
G37*
%LPD*%
%LPC*%
G36*
X2137217Y313500D02*
X2137217Y313500D01*
X2137400Y314184D01*
X2138130Y315946D01*
X2139083Y317597D01*
X2140243Y319109D01*
X2141591Y320457D01*
X2143103Y321617D01*
X2144754Y322570D01*
X2146516Y323300D01*
X2147200Y323483D01*
X2147200Y313500D01*
X2137217Y313500D01*
G37*
%LPD*%
%LPC*%
G36*
X2146516Y295700D02*
X2146516Y295700D01*
X2144754Y296430D01*
X2143103Y297383D01*
X2141591Y298543D01*
X2140243Y299891D01*
X2139083Y301403D01*
X2138130Y303054D01*
X2137400Y304816D01*
X2137217Y305500D01*
X2147200Y305500D01*
X2147200Y295517D01*
X2146516Y295700D01*
G37*
%LPD*%
D10*
X2151200Y106300D03*
X2100400Y157100D03*
X2151200Y207900D03*
X2100400Y258700D03*
X2151200Y309500D03*
X2100400Y360300D03*
X2151200Y411100D03*
X2100400Y461900D03*
X2151200Y512700D03*
X2100400Y563500D03*
X2151200Y614300D03*
X2100400Y665100D03*
X2100400Y766700D03*
X2151200Y715900D03*
X2151200Y817500D03*
D11*
X1980000Y454600D03*
X1980000Y480000D03*
X1980000Y505400D03*
X280000Y515400D03*
X280000Y490000D03*
X280000Y464600D03*
X280000Y354600D03*
X280000Y380000D03*
X280000Y405400D03*
X427500Y312900D03*
X427500Y287500D03*
X427500Y262100D03*
D12*
X840000Y365400D03*
X840000Y340000D03*
X840000Y314600D03*
X840000Y167300D03*
X840000Y192700D03*
X1190000Y132700D03*
X1190000Y107300D03*
X1190000Y365400D03*
X1190000Y340000D03*
X1190000Y314600D03*
D13*
X30000Y970000D03*
X30000Y30000D03*
X2140000Y970000D03*
X2140000Y30000D03*
D14*
X65000Y815000D03*
X65000Y785000D03*
X135000Y815000D03*
X135000Y785000D03*
X170000Y785000D03*
X170000Y835000D03*
X197500Y835000D03*
X197500Y795000D03*
X240000Y785000D03*
X240000Y840000D03*
D15*
X280000Y830000D03*
D14*
X320000Y855000D03*
X320000Y780000D03*
X362500Y855000D03*
X362500Y825000D03*
D15*
X320000Y810000D03*
D14*
X360000Y780000D03*
X400000Y815000D03*
X430000Y815000D03*
X430000Y860000D03*
X360000Y750000D03*
X395000Y740000D03*
X430000Y760000D03*
X430000Y720000D03*
X470000Y730000D03*
X490000Y760000D03*
X510000Y700000D03*
X470000Y870000D03*
X575000Y710000D03*
X590000Y780000D03*
X615000Y785000D03*
X640000Y790000D03*
X667500Y810000D03*
X700000Y820000D03*
X700000Y930000D03*
X80000Y700000D03*
X260000Y700000D03*
X80000Y630000D03*
X260000Y630000D03*
X440000Y630000D03*
X550000Y640000D03*
X80000Y570000D03*
X260000Y570000D03*
X440000Y570000D03*
X550000Y570000D03*
X610000Y570000D03*
X470000Y960000D03*
X590000Y885000D03*
X840000Y940000D03*
X840000Y830000D03*
X840000Y770000D03*
X660000Y730000D03*
X660000Y640000D03*
X840000Y620000D03*
X80000Y430000D03*
X80000Y370000D03*
X80000Y230000D03*
X80000Y170000D03*
X220000Y450000D03*
X320000Y490000D03*
X350000Y520000D03*
X460000Y530000D03*
X407500Y470000D03*
X350000Y420000D03*
X410000Y390000D03*
X470000Y420000D03*
X490000Y460000D03*
X500000Y500000D03*
X570000Y510000D03*
X610000Y410000D03*
X600000Y340000D03*
X530000Y320000D03*
X370000Y310000D03*
X465000Y300000D03*
X532500Y275000D03*
X430000Y220000D03*
X250000Y270000D03*
X315000Y225000D03*
X300000Y150000D03*
X200000Y120000D03*
X200000Y50000D03*
X430000Y50000D03*
X430000Y150000D03*
X570000Y150000D03*
X650000Y140000D03*
X650000Y50000D03*
X760000Y100000D03*
X590000Y230000D03*
X620000Y280000D03*
X740000Y370000D03*
X840000Y250000D03*
X880000Y50000D03*
X910000Y180000D03*
X930000Y320000D03*
X930000Y410000D03*
X840000Y480000D03*
X710000Y500000D03*
X1080000Y480000D03*
X1080000Y410000D03*
X1080000Y360000D03*
X1010000Y300000D03*
X1015000Y235000D03*
X1080000Y285000D03*
X1017500Y140000D03*
X1080000Y160000D03*
X1080000Y50000D03*
X1145000Y120000D03*
X1190000Y170000D03*
X1290000Y50000D03*
X1290000Y180000D03*
X1230000Y240000D03*
X1145000Y235000D03*
X1150000Y265000D03*
X1290000Y300000D03*
X1290000Y410000D03*
X1290000Y480000D03*
X1080000Y620000D03*
X1080000Y770000D03*
X1080000Y830000D03*
X1080000Y940000D03*
X1290000Y940000D03*
X1290000Y830000D03*
X1290000Y770000D03*
X1290000Y620000D03*
X1510000Y50000D03*
X1510000Y180000D03*
X1510000Y300000D03*
X1510000Y410000D03*
X1510000Y480000D03*
X1510000Y620000D03*
X1510000Y770000D03*
X1510000Y830000D03*
X1510000Y940000D03*
X1720000Y940000D03*
X1720000Y830000D03*
X1720000Y770000D03*
X1720000Y620000D03*
X1720000Y480000D03*
X1720000Y410000D03*
X1720000Y300000D03*
X1720000Y180000D03*
X1720000Y50000D03*
X1930000Y50000D03*
X1930000Y180000D03*
X1930000Y300000D03*
X2030000Y380000D03*
X1920000Y510000D03*
X2010000Y590000D03*
X2030000Y750000D03*
X1930000Y830000D03*
X1930000Y940000D03*
X2030000Y890000D03*
D15*
X280000Y810000D03*
X1960000Y970000D03*
X660000Y970000D03*
X560000Y762500D03*
X560000Y702500D03*
X1790000Y590000D03*
X350000Y800000D03*
X280000Y800000D03*
X160000Y490000D03*
X385000Y550000D03*
X350000Y200000D03*
D16*
X350000Y160000D01*
D15*
X350000Y160000D03*
X620000Y210000D03*
D16*
X620000Y160000D01*
D15*
X620000Y160000D03*
X1020000Y220000D03*
X435000Y390000D03*
X240000Y170000D03*
X510000Y170000D03*
X1150000Y220000D03*
X390000Y100000D03*
X750000Y240000D03*
X80000Y600000D03*
X770000Y570000D03*
X1930000Y380000D03*
X620000Y440000D03*
X80000Y400000D03*
X572500Y195000D03*
X650000Y230000D03*
X1135000Y310000D03*
X1135000Y207500D03*
X1140000Y180000D03*
X80000Y200000D03*
D14*
X660000Y190000D03*
X1935000Y665000D03*
M02*
