G04 EAGLE Gerber RS-274X export*
G75*
%MOMM*%
%FSLAX34Y34*%
%LPD*%
%IN*%
%IPPOS*%
%AMOC8*
5,1,8,0,0,1.08239X$1,22.5*%
G01*
%ADD10C,0.254000*%


D10*
X0Y0D02*
X2230000Y0D01*
X2230000Y1000000D01*
X0Y1000000D01*
X0Y0D01*
X2215970Y55001D02*
X2215899Y54006D01*
X2215757Y53018D01*
X2215545Y52043D01*
X2215264Y51085D01*
X2214915Y50151D01*
X2214500Y49243D01*
X2214022Y48367D01*
X2213483Y47528D01*
X2212885Y46729D01*
X2212231Y45975D01*
X2211525Y45269D01*
X2210771Y44615D01*
X2209973Y44017D01*
X2209133Y43478D01*
X2208257Y43000D01*
X2207350Y42585D01*
X2206415Y42236D01*
X2205457Y41955D01*
X2204482Y41743D01*
X2203494Y41601D01*
X2202499Y41530D01*
X2201501Y41530D01*
X2200506Y41601D01*
X2199518Y41743D01*
X2198543Y41955D01*
X2197585Y42236D01*
X2196651Y42585D01*
X2195743Y43000D01*
X2194867Y43478D01*
X2194028Y44017D01*
X2193229Y44615D01*
X2192475Y45269D01*
X2191769Y45975D01*
X2191115Y46729D01*
X2190517Y47528D01*
X2189978Y48367D01*
X2189500Y49243D01*
X2189085Y50151D01*
X2188736Y51085D01*
X2188455Y52043D01*
X2188243Y53018D01*
X2188101Y54006D01*
X2188030Y55001D01*
X2188030Y55999D01*
X2188101Y56994D01*
X2188243Y57982D01*
X2188455Y58957D01*
X2188736Y59915D01*
X2189085Y60850D01*
X2189500Y61757D01*
X2189978Y62633D01*
X2190517Y63473D01*
X2191115Y64271D01*
X2191769Y65025D01*
X2192475Y65731D01*
X2193229Y66385D01*
X2194028Y66983D01*
X2194867Y67522D01*
X2195743Y68000D01*
X2196651Y68415D01*
X2197585Y68764D01*
X2198543Y69045D01*
X2199518Y69257D01*
X2200506Y69399D01*
X2201501Y69470D01*
X2202499Y69470D01*
X2203494Y69399D01*
X2204482Y69257D01*
X2205457Y69045D01*
X2206415Y68764D01*
X2207350Y68415D01*
X2208257Y68000D01*
X2209133Y67522D01*
X2209973Y66983D01*
X2210771Y66385D01*
X2211525Y65731D01*
X2212231Y65025D01*
X2212885Y64271D01*
X2213483Y63473D01*
X2214022Y62633D01*
X2214500Y61757D01*
X2214915Y60850D01*
X2215264Y59915D01*
X2215545Y58957D01*
X2215757Y57982D01*
X2215899Y56994D01*
X2215970Y55999D01*
X2215970Y55001D01*
X2215970Y944001D02*
X2215899Y943006D01*
X2215757Y942018D01*
X2215545Y941043D01*
X2215264Y940085D01*
X2214915Y939151D01*
X2214500Y938243D01*
X2214022Y937367D01*
X2213483Y936528D01*
X2212885Y935729D01*
X2212231Y934975D01*
X2211525Y934269D01*
X2210771Y933615D01*
X2209973Y933017D01*
X2209133Y932478D01*
X2208257Y932000D01*
X2207350Y931585D01*
X2206415Y931236D01*
X2205457Y930955D01*
X2204482Y930743D01*
X2203494Y930601D01*
X2202499Y930530D01*
X2201501Y930530D01*
X2200506Y930601D01*
X2199518Y930743D01*
X2198543Y930955D01*
X2197585Y931236D01*
X2196651Y931585D01*
X2195743Y932000D01*
X2194867Y932478D01*
X2194028Y933017D01*
X2193229Y933615D01*
X2192475Y934269D01*
X2191769Y934975D01*
X2191115Y935729D01*
X2190517Y936528D01*
X2189978Y937367D01*
X2189500Y938243D01*
X2189085Y939151D01*
X2188736Y940085D01*
X2188455Y941043D01*
X2188243Y942018D01*
X2188101Y943006D01*
X2188030Y944001D01*
X2188030Y944999D01*
X2188101Y945994D01*
X2188243Y946982D01*
X2188455Y947957D01*
X2188736Y948915D01*
X2189085Y949850D01*
X2189500Y950757D01*
X2189978Y951633D01*
X2190517Y952473D01*
X2191115Y953271D01*
X2191769Y954025D01*
X2192475Y954731D01*
X2193229Y955385D01*
X2194028Y955983D01*
X2194867Y956522D01*
X2195743Y957000D01*
X2196651Y957415D01*
X2197585Y957764D01*
X2198543Y958045D01*
X2199518Y958257D01*
X2200506Y958399D01*
X2201501Y958470D01*
X2202499Y958470D01*
X2203494Y958399D01*
X2204482Y958257D01*
X2205457Y958045D01*
X2206415Y957764D01*
X2207350Y957415D01*
X2208257Y957000D01*
X2209133Y956522D01*
X2209973Y955983D01*
X2210771Y955385D01*
X2211525Y954731D01*
X2212231Y954025D01*
X2212885Y953271D01*
X2213483Y952473D01*
X2214022Y951633D01*
X2214500Y950757D01*
X2214915Y949850D01*
X2215264Y948915D01*
X2215545Y947957D01*
X2215757Y946982D01*
X2215899Y945994D01*
X2215970Y944999D01*
X2215970Y944001D01*
M02*
