G04 EAGLE Gerber RS-274X export*
G75*
%MOMM*%
%FSLAX34Y34*%
%LPD*%
%INSolderpaste Top*%
%IPPOS*%
%AMOC8*
5,1,8,0,0,1.08239X$1,22.5*%
G01*
%ADD10R,8.900000X10.300000*%
%ADD11R,3.810000X1.930400*%
%ADD12R,1.600000X1.800000*%
%ADD13R,3.810000X2.082800*%
%ADD14R,8.890000X11.430000*%
%ADD15R,1.600000X1.803000*%
%ADD16R,5.080000X2.286000*%
%ADD17R,1.000000X0.700000*%
%ADD18R,1.800000X1.600000*%
%ADD19R,0.700000X0.300000*%
%ADD20R,0.300000X0.700000*%
%ADD21R,2.700000X2.700000*%
%ADD22R,2.500000X1.000000*%
%ADD23R,1.130000X2.440000*%
%ADD24R,1.600000X2.000000*%
%ADD25R,2.200000X0.600000*%
%ADD26R,0.600000X2.200000*%
%ADD27R,2.000000X1.600000*%
%ADD28R,1.500000X0.600000*%
%ADD29R,1.800000X1.400000*%


D10*
X1865000Y740000D03*
D11*
X1972500Y714500D03*
X1972500Y765500D03*
D12*
X1976000Y820000D03*
X2004000Y820000D03*
X1976000Y660000D03*
X2004000Y660000D03*
D13*
X1978900Y564600D03*
X1978900Y615400D03*
D14*
X1864600Y590000D03*
D15*
X1895780Y480000D03*
X1924220Y480000D03*
D12*
X1844000Y480000D03*
X1816000Y480000D03*
X2054000Y107500D03*
X2026000Y107500D03*
X2054000Y310000D03*
X2026000Y310000D03*
D16*
X25654Y800000D03*
X25654Y844196D03*
X25654Y755804D03*
D12*
X86000Y800000D03*
X114000Y800000D03*
D17*
X158000Y819500D03*
X158000Y810000D03*
X158000Y800500D03*
X182000Y800500D03*
X182000Y810000D03*
X182000Y819500D03*
D12*
X226000Y820000D03*
X254000Y820000D03*
D18*
X280000Y774000D03*
X280000Y746000D03*
D17*
X308000Y839500D03*
X308000Y830000D03*
X308000Y820500D03*
X332000Y820500D03*
X332000Y830000D03*
X332000Y839500D03*
D12*
X386000Y840000D03*
X414000Y840000D03*
D19*
X544500Y720000D03*
X544500Y725000D03*
X544500Y730000D03*
X544500Y735000D03*
X544500Y740000D03*
X544500Y745000D03*
D20*
X537500Y752000D03*
X532500Y752000D03*
X527500Y752000D03*
X522500Y752000D03*
X517500Y752000D03*
X512500Y752000D03*
D19*
X505500Y745000D03*
X505500Y740000D03*
X505500Y735000D03*
X505500Y730000D03*
X505500Y725000D03*
X505500Y720000D03*
D20*
X512500Y713000D03*
X517500Y713000D03*
X522500Y713000D03*
X527500Y713000D03*
X532500Y713000D03*
X537500Y713000D03*
D21*
X525000Y732500D03*
D12*
X471000Y787500D03*
X499000Y787500D03*
D22*
X385000Y765000D03*
X385000Y715000D03*
X440000Y740000D03*
D12*
X564000Y955000D03*
X536000Y955000D03*
X556500Y787500D03*
X528500Y787500D03*
X531000Y675000D03*
X559000Y675000D03*
X566000Y605000D03*
X594000Y605000D03*
D23*
X678900Y913000D03*
X653500Y913000D03*
X628100Y913000D03*
X602700Y913000D03*
X577300Y913000D03*
X551900Y913000D03*
X526500Y913000D03*
X501100Y913000D03*
X501100Y827000D03*
X526500Y827000D03*
X551900Y827000D03*
X577300Y827000D03*
X602700Y827000D03*
X628100Y827000D03*
X653500Y827000D03*
X678900Y827000D03*
D24*
X746000Y780000D03*
X774000Y780000D03*
X746000Y820000D03*
X774000Y820000D03*
X746000Y860000D03*
X774000Y860000D03*
X746000Y900000D03*
X774000Y900000D03*
X746000Y940000D03*
X774000Y940000D03*
D25*
X367000Y470000D03*
X367000Y457300D03*
X367000Y444600D03*
D26*
X384600Y427000D03*
X397300Y427000D03*
X410000Y427000D03*
X422700Y427000D03*
X435400Y427000D03*
D25*
X453000Y444600D03*
X453000Y457300D03*
X453000Y470000D03*
X453000Y482700D03*
X453000Y495400D03*
D26*
X435400Y513000D03*
X422700Y513000D03*
X410000Y513000D03*
X397300Y513000D03*
X384600Y513000D03*
D25*
X367000Y495400D03*
X367000Y482700D03*
D27*
X535000Y529000D03*
X535000Y501000D03*
X535000Y466500D03*
X535000Y438500D03*
D24*
X633500Y530000D03*
X661500Y530000D03*
D12*
X661500Y605000D03*
X633500Y605000D03*
X554000Y390000D03*
X526000Y390000D03*
X494000Y390000D03*
X466000Y390000D03*
X326000Y550000D03*
X354000Y550000D03*
D24*
X224000Y490000D03*
X196000Y490000D03*
D12*
X364000Y390000D03*
X336000Y390000D03*
D24*
X364000Y340000D03*
X336000Y340000D03*
D27*
X200000Y354000D03*
X200000Y326000D03*
D12*
X286000Y295000D03*
X314000Y295000D03*
X123500Y187500D03*
X151500Y187500D03*
D27*
X200000Y214000D03*
X200000Y186000D03*
D25*
X274000Y196350D03*
X326000Y196350D03*
X274000Y209050D03*
X274000Y183650D03*
X274000Y170950D03*
X326000Y209050D03*
X326000Y183650D03*
X326000Y170950D03*
D24*
X314000Y250000D03*
X286000Y250000D03*
D12*
X316000Y130000D03*
X344000Y130000D03*
X256000Y130000D03*
X284000Y130000D03*
D16*
X25654Y600000D03*
X25654Y644196D03*
X25654Y555804D03*
D24*
X709000Y165000D03*
X681000Y165000D03*
X709000Y255000D03*
X681000Y255000D03*
X561000Y255000D03*
X589000Y255000D03*
D25*
X1844000Y366350D03*
X1896000Y366350D03*
X1844000Y379050D03*
X1844000Y353650D03*
X1844000Y340950D03*
X1896000Y379050D03*
X1896000Y353650D03*
X1896000Y340950D03*
D28*
X542500Y196350D03*
X597500Y196350D03*
X542500Y209050D03*
X542500Y183650D03*
X542500Y170950D03*
X597500Y209050D03*
X597500Y183650D03*
X597500Y170950D03*
D12*
X1794000Y365000D03*
X1766000Y365000D03*
X1956000Y355000D03*
X1984000Y355000D03*
D27*
X500000Y314000D03*
X500000Y286000D03*
X560000Y314000D03*
X560000Y286000D03*
D12*
X614000Y130000D03*
X586000Y130000D03*
X526000Y130000D03*
X554000Y130000D03*
D24*
X709000Y210000D03*
X681000Y210000D03*
D16*
X25654Y400000D03*
X25654Y444196D03*
X25654Y355804D03*
D25*
X1054000Y245400D03*
X1106000Y245400D03*
X1054000Y258100D03*
X1054000Y232700D03*
X1054000Y220000D03*
X1106000Y258100D03*
X1106000Y232700D03*
X1106000Y220000D03*
X1054000Y194600D03*
X1106000Y194600D03*
X1054000Y207300D03*
X1054000Y181900D03*
X1106000Y207300D03*
X1106000Y181900D03*
D24*
X956000Y270000D03*
X984000Y270000D03*
D27*
X910000Y236000D03*
X910000Y264000D03*
D24*
X956000Y120000D03*
X984000Y120000D03*
D12*
X1176000Y220000D03*
X1204000Y220000D03*
X984000Y220000D03*
X956000Y220000D03*
D24*
X984000Y320000D03*
X956000Y320000D03*
X956000Y170000D03*
X984000Y170000D03*
D27*
X1050000Y106000D03*
X1050000Y134000D03*
D18*
X1110000Y134000D03*
X1110000Y106000D03*
D24*
X1066000Y320000D03*
X1094000Y320000D03*
D27*
X1260000Y136000D03*
X1260000Y164000D03*
X1260000Y193500D03*
X1260000Y221500D03*
D24*
X1264000Y270000D03*
X1236000Y270000D03*
D27*
X1190000Y256000D03*
X1190000Y284000D03*
D16*
X25654Y200000D03*
X25654Y244196D03*
X25654Y155804D03*
D27*
X520000Y634000D03*
X520000Y606000D03*
X480000Y634000D03*
X480000Y606000D03*
D29*
X590000Y463000D03*
X590000Y497000D03*
M02*
