G04 EAGLE Gerber RS-274X export*
G75*
%MOMM*%
%FSLAX34Y34*%
%LPD*%
%INSoldermask Bottom*%
%IPPOS*%
%AMOC8*
5,1,8,0,0,1.08239X$1,22.5*%
G01*
%ADD10C,3.254000*%
%ADD11C,3.048000*%
%ADD12C,1.371600*%
%ADD13R,5.334000X2.540000*%
%ADD14C,1.778000*%
%ADD15C,4.270000*%
%ADD16C,1.160400*%
%ADD17C,1.010400*%


D10*
X2136200Y106300D02*
X2166200Y106300D01*
X2115400Y157100D02*
X2085400Y157100D01*
X2136200Y207900D02*
X2166200Y207900D01*
X2115400Y258700D02*
X2085400Y258700D01*
X2136200Y309500D02*
X2166200Y309500D01*
X2115400Y360300D02*
X2085400Y360300D01*
X2136200Y411100D02*
X2166200Y411100D01*
X2115400Y461900D02*
X2085400Y461900D01*
X2136200Y512700D02*
X2166200Y512700D01*
X2115400Y563500D02*
X2085400Y563500D01*
X2136200Y614300D02*
X2166200Y614300D01*
X2115400Y665100D02*
X2085400Y665100D01*
X2085400Y766700D02*
X2115400Y766700D01*
X2136200Y715900D02*
X2166200Y715900D01*
X2166200Y817500D02*
X2136200Y817500D01*
D11*
X2202000Y55500D03*
X2202000Y944500D03*
D12*
X1980000Y454600D03*
X1980000Y480000D03*
X1980000Y505400D03*
D13*
X25654Y755804D03*
X25654Y844196D03*
D12*
X280000Y515400D03*
X280000Y490000D03*
X280000Y464600D03*
X280000Y354600D03*
X280000Y380000D03*
X280000Y405400D03*
D13*
X25654Y555804D03*
X25654Y644196D03*
D12*
X427500Y312900D03*
X427500Y287500D03*
X427500Y262100D03*
D13*
X25654Y355804D03*
X25654Y444196D03*
D14*
X832380Y365400D02*
X847620Y365400D01*
X847620Y340000D02*
X832380Y340000D01*
X832380Y314600D02*
X847620Y314600D01*
X847620Y167300D02*
X832380Y167300D01*
X832380Y192700D02*
X847620Y192700D01*
X1182380Y132700D02*
X1197620Y132700D01*
X1197620Y107300D02*
X1182380Y107300D01*
X1182380Y365400D02*
X1197620Y365400D01*
X1197620Y340000D02*
X1182380Y340000D01*
X1182380Y314600D02*
X1197620Y314600D01*
D13*
X25654Y155804D03*
X25654Y244196D03*
D15*
X30000Y970000D03*
X30000Y30000D03*
X2140000Y970000D03*
X2140000Y30000D03*
D16*
X65000Y815000D03*
X65000Y785000D03*
X135000Y815000D03*
X135000Y785000D03*
X170000Y785000D03*
X170000Y835000D03*
X197500Y835000D03*
X197500Y795000D03*
X240000Y785000D03*
X240000Y840000D03*
D17*
X280000Y830000D03*
D16*
X320000Y855000D03*
X320000Y780000D03*
X362500Y855000D03*
X362500Y825000D03*
D17*
X320000Y810000D03*
D16*
X360000Y780000D03*
X400000Y815000D03*
X430000Y815000D03*
X430000Y860000D03*
X360000Y750000D03*
X395000Y740000D03*
X430000Y760000D03*
X430000Y720000D03*
X470000Y730000D03*
X490000Y760000D03*
X510000Y700000D03*
X470000Y870000D03*
X575000Y710000D03*
X590000Y780000D03*
X615000Y785000D03*
X640000Y790000D03*
X667500Y810000D03*
X700000Y820000D03*
X700000Y930000D03*
X80000Y700000D03*
X260000Y700000D03*
X80000Y630000D03*
X260000Y630000D03*
X440000Y630000D03*
X550000Y640000D03*
X80000Y570000D03*
X260000Y570000D03*
X440000Y570000D03*
X550000Y570000D03*
X610000Y570000D03*
X470000Y960000D03*
X590000Y885000D03*
X840000Y940000D03*
X840000Y830000D03*
X840000Y770000D03*
X660000Y730000D03*
X660000Y640000D03*
X840000Y620000D03*
X80000Y430000D03*
X80000Y370000D03*
X80000Y230000D03*
X80000Y170000D03*
X220000Y450000D03*
X320000Y490000D03*
X350000Y520000D03*
X460000Y530000D03*
X407500Y470000D03*
X350000Y420000D03*
X410000Y390000D03*
X470000Y420000D03*
X490000Y460000D03*
X500000Y500000D03*
X570000Y510000D03*
X610000Y410000D03*
X600000Y340000D03*
X530000Y320000D03*
X370000Y310000D03*
X465000Y300000D03*
X532500Y275000D03*
X430000Y220000D03*
X250000Y270000D03*
X315000Y225000D03*
X300000Y150000D03*
X200000Y120000D03*
X200000Y50000D03*
X430000Y50000D03*
X430000Y150000D03*
X570000Y150000D03*
X650000Y140000D03*
X650000Y50000D03*
X760000Y100000D03*
X590000Y230000D03*
X620000Y280000D03*
X740000Y370000D03*
X840000Y250000D03*
X880000Y50000D03*
X910000Y180000D03*
X930000Y320000D03*
X930000Y410000D03*
X840000Y480000D03*
X710000Y500000D03*
X1080000Y480000D03*
X1080000Y410000D03*
X1080000Y360000D03*
X1010000Y300000D03*
X1015000Y235000D03*
X1080000Y285000D03*
X1017500Y140000D03*
X1080000Y160000D03*
X1080000Y50000D03*
X1145000Y120000D03*
X1190000Y170000D03*
X1290000Y50000D03*
X1290000Y180000D03*
X1230000Y240000D03*
X1145000Y235000D03*
X1150000Y265000D03*
X1290000Y300000D03*
X1290000Y410000D03*
X1290000Y480000D03*
X1080000Y620000D03*
X1080000Y770000D03*
X1080000Y830000D03*
X1080000Y940000D03*
X1290000Y940000D03*
X1290000Y830000D03*
X1290000Y770000D03*
X1290000Y620000D03*
X1510000Y50000D03*
X1510000Y180000D03*
X1510000Y300000D03*
X1510000Y410000D03*
X1510000Y480000D03*
X1510000Y620000D03*
X1510000Y770000D03*
X1510000Y830000D03*
X1510000Y940000D03*
X1720000Y940000D03*
X1720000Y830000D03*
X1720000Y770000D03*
X1720000Y620000D03*
X1720000Y480000D03*
X1720000Y410000D03*
X1720000Y300000D03*
X1720000Y180000D03*
X1720000Y50000D03*
X1930000Y50000D03*
X1930000Y180000D03*
X1930000Y300000D03*
X2030000Y380000D03*
X1920000Y510000D03*
X2010000Y590000D03*
X2030000Y750000D03*
X1930000Y830000D03*
X1930000Y940000D03*
X2030000Y890000D03*
D17*
X280000Y810000D03*
X1960000Y970000D03*
X660000Y970000D03*
X560000Y762500D03*
X560000Y702500D03*
X1790000Y590000D03*
X350000Y800000D03*
X280000Y800000D03*
X160000Y490000D03*
X385000Y550000D03*
X350000Y200000D03*
X350000Y160000D03*
X620000Y210000D03*
X620000Y160000D03*
X1020000Y220000D03*
X435000Y390000D03*
X240000Y170000D03*
X510000Y170000D03*
X1150000Y220000D03*
X390000Y100000D03*
X750000Y240000D03*
X80000Y600000D03*
X770000Y570000D03*
X1930000Y380000D03*
X620000Y440000D03*
X80000Y400000D03*
X572500Y195000D03*
X650000Y230000D03*
X1135000Y310000D03*
X1135000Y207500D03*
X1140000Y180000D03*
X80000Y200000D03*
D16*
X660000Y190000D03*
X1935000Y665000D03*
M02*
