G04 EAGLE Gerber RS-274X export*
G75*
%MOMM*%
%FSLAX34Y34*%
%LPD*%
%INSoldermask Top*%
%IPPOS*%
%AMOC8*
5,1,8,0,0,1.08239X$1,22.5*%
G01*
%ADD10C,3.254000*%
%ADD11C,3.048000*%
%ADD12R,9.154000X10.554000*%
%ADD13R,4.064000X2.184400*%
%ADD14R,1.854000X2.054000*%
%ADD15R,4.064000X2.336800*%
%ADD16R,9.144000X11.684000*%
%ADD17C,1.371600*%
%ADD18R,1.854000X2.057000*%
%ADD19R,5.334000X2.540000*%
%ADD20R,1.254000X0.954000*%
%ADD21R,2.054000X1.854000*%
%ADD22R,1.254000X1.254000*%
%ADD23R,0.954000X0.554000*%
%ADD24R,0.554000X0.954000*%
%ADD25R,2.954000X2.954000*%
%ADD26R,2.754000X1.254000*%
%ADD27R,1.384000X2.694000*%
%ADD28R,1.854000X2.254000*%
%ADD29R,2.454000X0.854000*%
%ADD30R,0.854000X2.454000*%
%ADD31R,2.254000X1.854000*%
%ADD32R,1.754000X0.854000*%
%ADD33C,1.778000*%
%ADD34R,2.054000X1.654000*%
%ADD35C,4.270000*%
%ADD36C,1.160400*%
%ADD37C,1.010400*%


D10*
X2136200Y106300D02*
X2166200Y106300D01*
X2115400Y157100D02*
X2085400Y157100D01*
X2136200Y207900D02*
X2166200Y207900D01*
X2115400Y258700D02*
X2085400Y258700D01*
X2136200Y309500D02*
X2166200Y309500D01*
X2115400Y360300D02*
X2085400Y360300D01*
X2136200Y411100D02*
X2166200Y411100D01*
X2115400Y461900D02*
X2085400Y461900D01*
X2136200Y512700D02*
X2166200Y512700D01*
X2115400Y563500D02*
X2085400Y563500D01*
X2136200Y614300D02*
X2166200Y614300D01*
X2115400Y665100D02*
X2085400Y665100D01*
X2085400Y766700D02*
X2115400Y766700D01*
X2136200Y715900D02*
X2166200Y715900D01*
X2166200Y817500D02*
X2136200Y817500D01*
D11*
X2202000Y55500D03*
X2202000Y944500D03*
D12*
X1865000Y740000D03*
D13*
X1972500Y714500D03*
X1972500Y765500D03*
D14*
X1976000Y820000D03*
X2004000Y820000D03*
X1976000Y660000D03*
X2004000Y660000D03*
D15*
X1978900Y564600D03*
X1978900Y615400D03*
D16*
X1864600Y590000D03*
D17*
X1980000Y454600D03*
X1980000Y480000D03*
X1980000Y505400D03*
D18*
X1895780Y480000D03*
X1924220Y480000D03*
D14*
X1844000Y480000D03*
X1816000Y480000D03*
X2054000Y107500D03*
X2026000Y107500D03*
X2054000Y310000D03*
X2026000Y310000D03*
D19*
X25654Y800000D03*
X25654Y844196D03*
X25654Y755804D03*
D14*
X86000Y800000D03*
X114000Y800000D03*
D20*
X158000Y819500D03*
X158000Y810000D03*
X158000Y800500D03*
X182000Y800500D03*
X182000Y810000D03*
X182000Y819500D03*
D14*
X226000Y820000D03*
X254000Y820000D03*
D21*
X280000Y774000D03*
X280000Y746000D03*
D22*
X255000Y885000D03*
D20*
X308000Y839500D03*
X308000Y830000D03*
X308000Y820500D03*
X332000Y820500D03*
X332000Y830000D03*
X332000Y839500D03*
D14*
X386000Y840000D03*
X414000Y840000D03*
D22*
X415000Y885000D03*
D23*
X544500Y720000D03*
X544500Y725000D03*
X544500Y730000D03*
X544500Y735000D03*
X544500Y740000D03*
X544500Y745000D03*
D24*
X537500Y752000D03*
X532500Y752000D03*
X527500Y752000D03*
X522500Y752000D03*
X517500Y752000D03*
X512500Y752000D03*
D23*
X505500Y745000D03*
X505500Y740000D03*
X505500Y735000D03*
X505500Y730000D03*
X505500Y725000D03*
X505500Y720000D03*
D24*
X512500Y713000D03*
X517500Y713000D03*
X522500Y713000D03*
X527500Y713000D03*
X532500Y713000D03*
X537500Y713000D03*
D25*
X525000Y732500D03*
D14*
X471000Y787500D03*
X499000Y787500D03*
D26*
X385000Y765000D03*
X385000Y715000D03*
X440000Y740000D03*
D14*
X564000Y955000D03*
X536000Y955000D03*
X556500Y787500D03*
X528500Y787500D03*
X531000Y675000D03*
X559000Y675000D03*
X566000Y605000D03*
X594000Y605000D03*
D27*
X678900Y913000D03*
X653500Y913000D03*
X628100Y913000D03*
X602700Y913000D03*
X577300Y913000D03*
X551900Y913000D03*
X526500Y913000D03*
X501100Y913000D03*
X501100Y827000D03*
X526500Y827000D03*
X551900Y827000D03*
X577300Y827000D03*
X602700Y827000D03*
X628100Y827000D03*
X653500Y827000D03*
X678900Y827000D03*
D28*
X746000Y780000D03*
X774000Y780000D03*
X746000Y820000D03*
X774000Y820000D03*
X746000Y860000D03*
X774000Y860000D03*
X746000Y900000D03*
X774000Y900000D03*
X746000Y940000D03*
X774000Y940000D03*
D22*
X595000Y640000D03*
D29*
X367000Y470000D03*
X367000Y457300D03*
X367000Y444600D03*
D30*
X384600Y427000D03*
X397300Y427000D03*
X410000Y427000D03*
X422700Y427000D03*
X435400Y427000D03*
D29*
X453000Y444600D03*
X453000Y457300D03*
X453000Y470000D03*
X453000Y482700D03*
X453000Y495400D03*
D30*
X435400Y513000D03*
X422700Y513000D03*
X410000Y513000D03*
X397300Y513000D03*
X384600Y513000D03*
D29*
X367000Y495400D03*
X367000Y482700D03*
D31*
X535000Y529000D03*
X535000Y501000D03*
X535000Y466500D03*
X535000Y438500D03*
D28*
X633500Y530000D03*
X661500Y530000D03*
D14*
X661500Y605000D03*
X633500Y605000D03*
X554000Y390000D03*
X526000Y390000D03*
X494000Y390000D03*
X466000Y390000D03*
X326000Y550000D03*
X354000Y550000D03*
D17*
X280000Y515400D03*
X280000Y490000D03*
X280000Y464600D03*
D28*
X224000Y490000D03*
X196000Y490000D03*
D14*
X364000Y390000D03*
X336000Y390000D03*
D17*
X280000Y354600D03*
X280000Y380000D03*
X280000Y405400D03*
D28*
X364000Y340000D03*
X336000Y340000D03*
D22*
X225000Y415000D03*
D31*
X200000Y354000D03*
X200000Y326000D03*
D14*
X286000Y295000D03*
X314000Y295000D03*
X123500Y187500D03*
X151500Y187500D03*
D31*
X200000Y214000D03*
X200000Y186000D03*
D29*
X274000Y196350D03*
X326000Y196350D03*
X274000Y209050D03*
X274000Y183650D03*
X274000Y170950D03*
X326000Y209050D03*
X326000Y183650D03*
X326000Y170950D03*
D28*
X314000Y250000D03*
X286000Y250000D03*
D14*
X316000Y130000D03*
X344000Y130000D03*
X256000Y130000D03*
X284000Y130000D03*
D22*
X360000Y282500D03*
D19*
X25654Y600000D03*
X25654Y644196D03*
X25654Y555804D03*
D28*
X709000Y165000D03*
X681000Y165000D03*
X709000Y255000D03*
X681000Y255000D03*
X561000Y255000D03*
X589000Y255000D03*
D29*
X1844000Y366350D03*
X1896000Y366350D03*
X1844000Y379050D03*
X1844000Y353650D03*
X1844000Y340950D03*
X1896000Y379050D03*
X1896000Y353650D03*
X1896000Y340950D03*
D32*
X542500Y196350D03*
X597500Y196350D03*
X542500Y209050D03*
X542500Y183650D03*
X542500Y170950D03*
X597500Y209050D03*
X597500Y183650D03*
X597500Y170950D03*
D14*
X1794000Y365000D03*
X1766000Y365000D03*
X1956000Y355000D03*
X1984000Y355000D03*
D31*
X500000Y314000D03*
X500000Y286000D03*
D17*
X427500Y312900D03*
X427500Y287500D03*
X427500Y262100D03*
D31*
X560000Y314000D03*
X560000Y286000D03*
D14*
X614000Y130000D03*
X586000Y130000D03*
X526000Y130000D03*
X554000Y130000D03*
D28*
X709000Y210000D03*
X681000Y210000D03*
D19*
X25654Y400000D03*
X25654Y444196D03*
X25654Y355804D03*
D33*
X832380Y365400D02*
X847620Y365400D01*
X847620Y340000D02*
X832380Y340000D01*
X832380Y314600D02*
X847620Y314600D01*
X847620Y167300D02*
X832380Y167300D01*
X832380Y192700D02*
X847620Y192700D01*
D29*
X1054000Y245400D03*
X1106000Y245400D03*
X1054000Y258100D03*
X1054000Y232700D03*
X1054000Y220000D03*
X1106000Y258100D03*
X1106000Y232700D03*
X1106000Y220000D03*
X1054000Y194600D03*
X1106000Y194600D03*
X1054000Y207300D03*
X1054000Y181900D03*
X1106000Y207300D03*
X1106000Y181900D03*
D28*
X956000Y270000D03*
X984000Y270000D03*
D31*
X910000Y236000D03*
X910000Y264000D03*
D28*
X956000Y120000D03*
X984000Y120000D03*
D14*
X1176000Y220000D03*
X1204000Y220000D03*
X984000Y220000D03*
X956000Y220000D03*
D28*
X984000Y320000D03*
X956000Y320000D03*
X956000Y170000D03*
X984000Y170000D03*
D31*
X1050000Y106000D03*
X1050000Y134000D03*
D21*
X1110000Y134000D03*
X1110000Y106000D03*
D33*
X1182380Y132700D02*
X1197620Y132700D01*
X1197620Y107300D02*
X1182380Y107300D01*
D28*
X1066000Y320000D03*
X1094000Y320000D03*
D31*
X1260000Y136000D03*
X1260000Y164000D03*
X1260000Y193500D03*
X1260000Y221500D03*
D22*
X535000Y235000D03*
D28*
X1264000Y270000D03*
X1236000Y270000D03*
D31*
X1190000Y256000D03*
X1190000Y284000D03*
D33*
X1182380Y365400D02*
X1197620Y365400D01*
X1197620Y340000D02*
X1182380Y340000D01*
X1182380Y314600D02*
X1197620Y314600D01*
D19*
X25654Y200000D03*
X25654Y244196D03*
X25654Y155804D03*
D31*
X520000Y634000D03*
X520000Y606000D03*
X480000Y634000D03*
X480000Y606000D03*
D34*
X590000Y463000D03*
X590000Y497000D03*
D35*
X30000Y970000D03*
X30000Y30000D03*
X2140000Y970000D03*
X2140000Y30000D03*
D36*
X65000Y815000D03*
X65000Y785000D03*
X135000Y815000D03*
X135000Y785000D03*
X170000Y785000D03*
X170000Y835000D03*
X197500Y835000D03*
X197500Y795000D03*
X240000Y785000D03*
X240000Y840000D03*
D37*
X280000Y830000D03*
D36*
X320000Y855000D03*
X320000Y780000D03*
X362500Y855000D03*
X362500Y825000D03*
D37*
X320000Y810000D03*
D36*
X360000Y780000D03*
X400000Y815000D03*
X430000Y815000D03*
X430000Y860000D03*
X360000Y750000D03*
X395000Y740000D03*
X430000Y760000D03*
X430000Y720000D03*
X470000Y730000D03*
X490000Y760000D03*
X510000Y700000D03*
X470000Y870000D03*
X575000Y710000D03*
X590000Y780000D03*
X615000Y785000D03*
X640000Y790000D03*
X667500Y810000D03*
X700000Y820000D03*
X700000Y930000D03*
X80000Y700000D03*
X260000Y700000D03*
X80000Y630000D03*
X260000Y630000D03*
X440000Y630000D03*
X550000Y640000D03*
X80000Y570000D03*
X260000Y570000D03*
X440000Y570000D03*
X550000Y570000D03*
X610000Y570000D03*
X470000Y960000D03*
X590000Y885000D03*
X840000Y940000D03*
X840000Y830000D03*
X840000Y770000D03*
X660000Y730000D03*
X660000Y640000D03*
X840000Y620000D03*
X80000Y430000D03*
X80000Y370000D03*
X80000Y230000D03*
X80000Y170000D03*
X220000Y450000D03*
X320000Y490000D03*
X350000Y520000D03*
X460000Y530000D03*
X407500Y470000D03*
X350000Y420000D03*
X410000Y390000D03*
X470000Y420000D03*
X490000Y460000D03*
X500000Y500000D03*
X570000Y510000D03*
X610000Y410000D03*
X600000Y340000D03*
X530000Y320000D03*
X370000Y310000D03*
X465000Y300000D03*
X532500Y275000D03*
X430000Y220000D03*
X250000Y270000D03*
X315000Y225000D03*
X300000Y150000D03*
X200000Y120000D03*
X200000Y50000D03*
X430000Y50000D03*
X430000Y150000D03*
X570000Y150000D03*
X650000Y140000D03*
X650000Y50000D03*
X760000Y100000D03*
X590000Y230000D03*
X620000Y280000D03*
X740000Y370000D03*
X840000Y250000D03*
X880000Y50000D03*
X910000Y180000D03*
X930000Y320000D03*
X930000Y410000D03*
X840000Y480000D03*
X710000Y500000D03*
X1080000Y480000D03*
X1080000Y410000D03*
X1080000Y360000D03*
X1010000Y300000D03*
X1015000Y235000D03*
X1080000Y285000D03*
X1017500Y140000D03*
X1080000Y160000D03*
X1080000Y50000D03*
X1145000Y120000D03*
X1190000Y170000D03*
X1290000Y50000D03*
X1290000Y180000D03*
X1230000Y240000D03*
X1145000Y235000D03*
X1150000Y265000D03*
X1290000Y300000D03*
X1290000Y410000D03*
X1290000Y480000D03*
X1080000Y620000D03*
X1080000Y770000D03*
X1080000Y830000D03*
X1080000Y940000D03*
X1290000Y940000D03*
X1290000Y830000D03*
X1290000Y770000D03*
X1290000Y620000D03*
X1510000Y50000D03*
X1510000Y180000D03*
X1510000Y300000D03*
X1510000Y410000D03*
X1510000Y480000D03*
X1510000Y620000D03*
X1510000Y770000D03*
X1510000Y830000D03*
X1510000Y940000D03*
X1720000Y940000D03*
X1720000Y830000D03*
X1720000Y770000D03*
X1720000Y620000D03*
X1720000Y480000D03*
X1720000Y410000D03*
X1720000Y300000D03*
X1720000Y180000D03*
X1720000Y50000D03*
X1930000Y50000D03*
X1930000Y180000D03*
X1930000Y300000D03*
X2030000Y380000D03*
X1920000Y510000D03*
X2010000Y590000D03*
X2030000Y750000D03*
X1930000Y830000D03*
X1930000Y940000D03*
X2030000Y890000D03*
D37*
X280000Y810000D03*
X1960000Y970000D03*
X660000Y970000D03*
X560000Y762500D03*
X560000Y702500D03*
X1790000Y590000D03*
X350000Y800000D03*
X280000Y800000D03*
X160000Y490000D03*
X385000Y550000D03*
X350000Y200000D03*
X350000Y160000D03*
X620000Y210000D03*
X620000Y160000D03*
X1020000Y220000D03*
X435000Y390000D03*
X240000Y170000D03*
X510000Y170000D03*
X1150000Y220000D03*
X390000Y100000D03*
X750000Y240000D03*
X80000Y600000D03*
X770000Y570000D03*
X1930000Y380000D03*
X620000Y440000D03*
X80000Y400000D03*
X572500Y195000D03*
X650000Y230000D03*
X1135000Y310000D03*
X1135000Y207500D03*
X1140000Y180000D03*
X80000Y200000D03*
D36*
X660000Y190000D03*
X1935000Y665000D03*
M02*
