%TF.GenerationSoftware,KiCad,Pcbnew,7.0.5-0*%
%TF.CreationDate,2023-07-19T11:22:42-03:00*%
%TF.ProjectId,F2V,4632562e-6b69-4636-9164-5f7063625858,rev?*%
%TF.SameCoordinates,Original*%
%TF.FileFunction,Copper,L2,Inr*%
%TF.FilePolarity,Positive*%
%FSLAX46Y46*%
G04 Gerber Fmt 4.6, Leading zero omitted, Abs format (unit mm)*
G04 Created by KiCad (PCBNEW 7.0.5-0) date 2023-07-19 11:22:42*
%MOMM*%
%LPD*%
G01*
G04 APERTURE LIST*
G04 Aperture macros list*
%AMRoundRect*
0 Rectangle with rounded corners*
0 $1 Rounding radius*
0 $2 $3 $4 $5 $6 $7 $8 $9 X,Y pos of 4 corners*
0 Add a 4 corners polygon primitive as box body*
4,1,4,$2,$3,$4,$5,$6,$7,$8,$9,$2,$3,0*
0 Add four circle primitives for the rounded corners*
1,1,$1+$1,$2,$3*
1,1,$1+$1,$4,$5*
1,1,$1+$1,$6,$7*
1,1,$1+$1,$8,$9*
0 Add four rect primitives between the rounded corners*
20,1,$1+$1,$2,$3,$4,$5,0*
20,1,$1+$1,$4,$5,$6,$7,0*
20,1,$1+$1,$6,$7,$8,$9,0*
20,1,$1+$1,$8,$9,$2,$3,0*%
G04 Aperture macros list end*
%TA.AperFunction,ComponentPad*%
%ADD10RoundRect,0.250000X0.845000X-0.620000X0.845000X0.620000X-0.845000X0.620000X-0.845000X-0.620000X0*%
%TD*%
%TA.AperFunction,ComponentPad*%
%ADD11O,2.190000X1.740000*%
%TD*%
%TA.AperFunction,ComponentPad*%
%ADD12RoundRect,0.250000X0.620000X0.845000X-0.620000X0.845000X-0.620000X-0.845000X0.620000X-0.845000X0*%
%TD*%
%TA.AperFunction,ComponentPad*%
%ADD13O,1.740000X2.190000*%
%TD*%
%TA.AperFunction,ComponentPad*%
%ADD14C,0.708000*%
%TD*%
%TA.AperFunction,ComponentPad*%
%ADD15C,1.440000*%
%TD*%
%TA.AperFunction,ComponentPad*%
%ADD16C,0.970000*%
%TD*%
%TA.AperFunction,ComponentPad*%
%ADD17RoundRect,0.250000X-0.845000X0.620000X-0.845000X-0.620000X0.845000X-0.620000X0.845000X0.620000X0*%
%TD*%
%TA.AperFunction,ComponentPad*%
%ADD18O,6.000000X3.000000*%
%TD*%
%TA.AperFunction,ComponentPad*%
%ADD19R,1.700000X1.700000*%
%TD*%
%TA.AperFunction,ComponentPad*%
%ADD20O,1.700000X1.700000*%
%TD*%
%TA.AperFunction,ComponentPad*%
%ADD21RoundRect,0.250000X-0.620000X-0.845000X0.620000X-0.845000X0.620000X0.845000X-0.620000X0.845000X0*%
%TD*%
%TA.AperFunction,ViaPad*%
%ADD22C,0.756400*%
%TD*%
%TA.AperFunction,ViaPad*%
%ADD23C,2.000000*%
%TD*%
%TA.AperFunction,ViaPad*%
%ADD24C,1.000000*%
%TD*%
%TA.AperFunction,ViaPad*%
%ADD25C,0.800000*%
%TD*%
%TA.AperFunction,ViaPad*%
%ADD26C,4.000000*%
%TD*%
%TA.AperFunction,ViaPad*%
%ADD27C,0.600000*%
%TD*%
G04 APERTURE END LIST*
D10*
%TO.N,/F2V_FILT*%
%TO.C,P8*%
X70012643Y-102558902D03*
D11*
%TO.N,Net-(P8-Pin_2)*%
X70012643Y-100018902D03*
%TD*%
D12*
%TO.N,Net-(P4-Pin_1)*%
%TO.C,P4*%
X108457661Y-110946002D03*
D13*
%TO.N,Net-(P4-Pin_2)*%
X105917661Y-110946002D03*
%TD*%
D10*
%TO.N,/GND*%
%TO.C,P7*%
X66362643Y-140063902D03*
D11*
%TO.N,Net-(P7-Pin_2)*%
X66362643Y-137523902D03*
%TO.N,Net-(P7-Pin_3)*%
X66362643Y-134983902D03*
%TD*%
D14*
%TO.N,/GND*%
%TO.C,U$1*%
X66232403Y-77647902D03*
X66232403Y-80949902D03*
X66232403Y-79298902D03*
X62930403Y-79298902D03*
X62930403Y-77647902D03*
X62930403Y-80949902D03*
X64581403Y-80949902D03*
X64581403Y-79298902D03*
X64581403Y-77647902D03*
X65343403Y-78409902D03*
X65343403Y-80187902D03*
X63565403Y-80187902D03*
X63692403Y-78409902D03*
%TD*%
D15*
%TO.N,/GND*%
%TO.C,R23*%
X73380775Y-137525166D03*
%TO.N,Net-(P7-Pin_3)*%
X73380775Y-134985166D03*
%TO.N,/+5V*%
X73380775Y-132445166D03*
%TD*%
D16*
%TO.N,/GND*%
%TO.C,O3*%
X41522643Y-105808902D03*
X41522643Y-114568902D03*
%TD*%
D15*
%TO.N,/GND*%
%TO.C,R1*%
X105392643Y-89068902D03*
%TO.N,/F2V*%
X105392643Y-86528902D03*
%TO.N,Net-(R1-Pad3)*%
X105392643Y-83988902D03*
%TD*%
D17*
%TO.N,Net-(P2-Pin_1)*%
%TO.C,P2*%
X110572661Y-130281002D03*
D11*
%TO.N,Net-(P2-Pin_2)*%
X110572661Y-132821002D03*
%TD*%
D18*
%TO.N,unconnected-(X3-PadD6)*%
%TO.C,X3*%
X245532643Y-71018902D03*
%TO.N,unconnected-(X3-PadD10)*%
X245532643Y-81178902D03*
%TO.N,/GND*%
X245532643Y-91338902D03*
%TO.N,/-5V*%
X245532643Y-101498902D03*
%TO.N,unconnected-(X3-PadD22)*%
X245532643Y-111658902D03*
%TO.N,/GND*%
X245532643Y-121818902D03*
%TO.N,unconnected-(X3-PadD30)*%
X245532643Y-131978902D03*
%TO.N,unconnected-(X3-PadZ4)*%
X250612643Y-65938902D03*
%TO.N,/+12V*%
X250612643Y-76098902D03*
%TO.N,unconnected-(X3-PadZ12)*%
X250612643Y-86258902D03*
%TO.N,/GND*%
X250612643Y-96418902D03*
%TO.N,unconnected-(X3-PadZ20)*%
X250612643Y-106578902D03*
%TO.N,/+15V*%
X250612643Y-116738902D03*
%TO.N,/GND*%
X250612643Y-126898902D03*
%TO.N,/-15V*%
X250612643Y-137058902D03*
%TD*%
D15*
%TO.N,/GND*%
%TO.C,R38*%
X52502643Y-93442455D03*
%TO.N,Net-(U4A-+)*%
X55042643Y-93442455D03*
%TO.N,/+5V_REF*%
X57582643Y-93442455D03*
%TD*%
D10*
%TO.N,/F2V_SUM*%
%TO.C,P3*%
X115362661Y-123561002D03*
D11*
%TO.N,Net-(P3-Pin_2)*%
X115362661Y-121021002D03*
%TD*%
D16*
%TO.N,/GND*%
%TO.C,O4*%
X41522643Y-130808902D03*
X41522643Y-139568902D03*
%TD*%
%TO.N,/GND*%
%TO.C,O1*%
X41522643Y-55808902D03*
X41522643Y-64568902D03*
%TD*%
D19*
%TO.N,/PI+*%
%TO.C,P6*%
X63192643Y-127688902D03*
D20*
%TO.N,Net-(P6-Pin_2)*%
X60652643Y-127688902D03*
%TO.N,/PI-*%
X58112643Y-127688902D03*
%TD*%
D16*
%TO.N,/GND*%
%TO.C,O2*%
X41522643Y-80808902D03*
X41522643Y-89568902D03*
%TD*%
D19*
%TO.N,/GND*%
%TO.C,P1*%
X102389069Y-53356402D03*
D20*
%TO.N,Net-(D2-A)*%
X102389069Y-55896402D03*
%TO.N,/GND*%
X99849069Y-53356402D03*
%TO.N,Net-(D3-A)*%
X99849069Y-55896402D03*
%TO.N,/GND*%
X97309069Y-53356402D03*
%TO.N,Net-(D4-A)*%
X97309069Y-55896402D03*
%TO.N,/GND*%
X94769069Y-53356402D03*
%TO.N,Net-(D5-A)*%
X94769069Y-55896402D03*
%TO.N,/GND*%
X92229069Y-53356402D03*
%TO.N,Net-(D6-A)*%
X92229069Y-55896402D03*
%TO.N,/GND*%
X89689069Y-53356402D03*
%TO.N,Net-(D7-A)*%
X89689069Y-55896402D03*
%TO.N,/GND*%
X87149069Y-53356402D03*
%TO.N,Net-(D8-A)*%
X87149069Y-55896402D03*
%TO.N,/GND*%
X84609069Y-53356402D03*
%TO.N,Net-(D9-A)*%
X84609069Y-55896402D03*
%TD*%
D15*
%TO.N,Net-(IC1-20_OFFSET)*%
%TO.C,R15*%
X108257643Y-98143902D03*
%TO.N,Net-(R15-Pad2)*%
X105717643Y-98143902D03*
%TO.N,Net-(IC1-19_OFFSET)*%
X103177643Y-98143902D03*
%TD*%
D21*
%TO.N,Net-(P5-Pin_1)*%
%TO.C,P5*%
X90417661Y-110921002D03*
D13*
%TO.N,Net-(P5-Pin_2)*%
X92957661Y-110921002D03*
%TD*%
D22*
%TO.N,/GND*%
X86192643Y-104038902D03*
X46542643Y-86538902D03*
X128392643Y-110538902D03*
D23*
X138384064Y-101102823D03*
X66392643Y-92388902D03*
X188092643Y-50788902D03*
D22*
X53992643Y-71588902D03*
X77692643Y-91988902D03*
X97442643Y-82688902D03*
D23*
X212792643Y-83574615D03*
D24*
X95558100Y-72909028D03*
D23*
X140749064Y-105145323D03*
D22*
X61592643Y-91888902D03*
X83242643Y-113488902D03*
D23*
X188092643Y-79088902D03*
D25*
X98317643Y-90643902D03*
D22*
X80392643Y-116738902D03*
X128492643Y-106988902D03*
X64592643Y-98988902D03*
X125942643Y-112738902D03*
D23*
X143549064Y-101145323D03*
D22*
X55542643Y-89038902D03*
X128342643Y-115088902D03*
D23*
X105692643Y-129888902D03*
X90042643Y-78238902D03*
D22*
X79192643Y-70988902D03*
D23*
X234592643Y-104403186D03*
D22*
X72242643Y-113438902D03*
D23*
X165492643Y-140088902D03*
D22*
X77442643Y-110088902D03*
D23*
X212792643Y-110431757D03*
D22*
X82092643Y-64738902D03*
X59192643Y-70288902D03*
D23*
X94392643Y-145188902D03*
X76342643Y-103288902D03*
D25*
X91117661Y-126171002D03*
D22*
X77892643Y-73388902D03*
D23*
X234592643Y-78988902D03*
X188092643Y-104503186D03*
X234692643Y-144688902D03*
D22*
X84742643Y-69738902D03*
D26*
X38492643Y-144688902D03*
D23*
X188092643Y-131360328D03*
X187992643Y-119188902D03*
X76142643Y-114888902D03*
D25*
X95816699Y-103257826D03*
D22*
X53192643Y-67888902D03*
X72292643Y-106738902D03*
D23*
X138842643Y-83338902D03*
D22*
X64842643Y-88888902D03*
X77142643Y-127788902D03*
D25*
X67792643Y-114938902D03*
X90817643Y-84143902D03*
D22*
X126292643Y-108138902D03*
X76592643Y-119488902D03*
X74842643Y-71388902D03*
X59392643Y-88388902D03*
D23*
X48892643Y-74988902D03*
D25*
X86317643Y-101643902D03*
X72018882Y-87205565D03*
D23*
X141792643Y-144588902D03*
X46092643Y-92288902D03*
D22*
X80242643Y-103138902D03*
X89742643Y-69738902D03*
X72242643Y-116638902D03*
D23*
X111392643Y-93688902D03*
D25*
X76357643Y-93938902D03*
D22*
X58042643Y-72038902D03*
X80492643Y-106788902D03*
X63892643Y-72688902D03*
X94242643Y-69738902D03*
D23*
X141992643Y-130360328D03*
D22*
X54392643Y-114188902D03*
X50192643Y-89988902D03*
D23*
X141992643Y-49788902D03*
D25*
X69259559Y-91980445D03*
D23*
X142242643Y-80288902D03*
X120542643Y-95538902D03*
D22*
X76892643Y-106538902D03*
X50292643Y-65088902D03*
D25*
X77447403Y-63461402D03*
D22*
X64892643Y-70888902D03*
X89842643Y-103988902D03*
X64592643Y-96238902D03*
D23*
X165392643Y-57517473D03*
D22*
X51742643Y-88238902D03*
D23*
X142442643Y-86838902D03*
D22*
X61892643Y-70588902D03*
D23*
X44592643Y-69488902D03*
D25*
X80092643Y-74288902D03*
D23*
X45792643Y-123088902D03*
X84392643Y-84138902D03*
X46192643Y-130838902D03*
D25*
X82892643Y-79263902D03*
D22*
X133242643Y-115188902D03*
D25*
X77292643Y-75788902D03*
D23*
X115742643Y-109638902D03*
D25*
X75259736Y-79488902D03*
X77447403Y-65161402D03*
D22*
X56092643Y-71988902D03*
D23*
X45592643Y-80188902D03*
X165392643Y-70946044D03*
D22*
X115842643Y-138788902D03*
X48892643Y-66388902D03*
D23*
X52592643Y-128288902D03*
X71542643Y-121038902D03*
D22*
X129892643Y-108888902D03*
X64292643Y-114888902D03*
X83192643Y-104038902D03*
D23*
X117442643Y-73588902D03*
X117392643Y-68117476D03*
X117292643Y-54688902D03*
D22*
X47592643Y-84288902D03*
X43692643Y-59088902D03*
D23*
X188192643Y-144788902D03*
D22*
X71692643Y-83488902D03*
D23*
X234592643Y-90974615D03*
X212992643Y-140088902D03*
X122992643Y-120938902D03*
X94442643Y-137388902D03*
X234592643Y-50688902D03*
D22*
X91242643Y-106788902D03*
D23*
X72942643Y-142188902D03*
D22*
X86292643Y-111788902D03*
D23*
X38092643Y-101488902D03*
X165392643Y-84374615D03*
X234792643Y-119188902D03*
D22*
X62442643Y-96238902D03*
D23*
X165392643Y-111231757D03*
D22*
X101442643Y-82538902D03*
X74892643Y-128738902D03*
D23*
X44992643Y-53988902D03*
D24*
X106258100Y-74209028D03*
D23*
X212792643Y-97003186D03*
X142142643Y-73588902D03*
D22*
X111942643Y-138138902D03*
D23*
X38092643Y-94388902D03*
X188092643Y-64217473D03*
D22*
X56592643Y-70088902D03*
D23*
X37992643Y-69388902D03*
X141992643Y-116931757D03*
D22*
X82292643Y-89638902D03*
D23*
X234592643Y-131260328D03*
X212792643Y-123860328D03*
D22*
X133242643Y-112688902D03*
D25*
X104942643Y-120438902D03*
D22*
X114592643Y-134888902D03*
X94592643Y-106488902D03*
D23*
X38092643Y-125688902D03*
X46292643Y-102688902D03*
D22*
X86092643Y-106688902D03*
X60392643Y-82238902D03*
X75242643Y-110088902D03*
X130242643Y-119688902D03*
X70442643Y-130238902D03*
D23*
X51292643Y-145438902D03*
D26*
X249492643Y-50688902D03*
D23*
X55892643Y-122088902D03*
X119492643Y-140538902D03*
D22*
X119142643Y-135288902D03*
D23*
X50892643Y-58988902D03*
X212792643Y-70146044D03*
D27*
X55123119Y-111797711D03*
D22*
X75242643Y-106688902D03*
X80142643Y-90688902D03*
D23*
X99492643Y-86538902D03*
X212792643Y-56717473D03*
D22*
X43692643Y-61288902D03*
X81942643Y-62838902D03*
D23*
X140849064Y-101145323D03*
X141992643Y-63217473D03*
D25*
X97992643Y-97638902D03*
D22*
X130442643Y-112638902D03*
D23*
X234592643Y-64117473D03*
D22*
X51892643Y-69388902D03*
D25*
X61157643Y-114962455D03*
D22*
X134892643Y-117088902D03*
X130242643Y-116988902D03*
X77642643Y-70488902D03*
D23*
X38092643Y-76688902D03*
X165392643Y-124660328D03*
D22*
X92092643Y-101688902D03*
D23*
X81492643Y-100038902D03*
D22*
X60392643Y-72088902D03*
X93392643Y-82638902D03*
D26*
X249492643Y-144688902D03*
D22*
X62992643Y-89838902D03*
X52842643Y-117538902D03*
D23*
X140849064Y-97245323D03*
X38092643Y-119988902D03*
D22*
X72242643Y-110088902D03*
X54892643Y-69288902D03*
X70142643Y-72688902D03*
X83092643Y-110038902D03*
X104342643Y-80738902D03*
D25*
X93317643Y-97543902D03*
D26*
X38492643Y-50688902D03*
D23*
X165392643Y-97803186D03*
X145592643Y-83688902D03*
X188092643Y-91074615D03*
X87992643Y-72938902D03*
D22*
X81592643Y-92338902D03*
X133142643Y-119588902D03*
%TO.N,Net-(D10-K)*%
X55392643Y-84588902D03*
%TO.N,Net-(D11-K)*%
X55192643Y-82488902D03*
%TO.N,Net-(D12-K)*%
X56082403Y-80638902D03*
%TO.N,Net-(D13-K)*%
X57092643Y-78888902D03*
%TD*%
%TA.AperFunction,Conductor*%
%TO.N,/GND*%
G36*
X86689576Y-53146558D02*
G01*
X86649069Y-53284513D01*
X86649069Y-53428291D01*
X86689576Y-53566246D01*
X86715383Y-53606402D01*
X85042755Y-53606402D01*
X85068562Y-53566246D01*
X85109069Y-53428291D01*
X85109069Y-53284513D01*
X85068562Y-53146558D01*
X85042755Y-53106402D01*
X86715383Y-53106402D01*
X86689576Y-53146558D01*
G37*
%TD.AperFunction*%
%TA.AperFunction,Conductor*%
G36*
X89229576Y-53146558D02*
G01*
X89189069Y-53284513D01*
X89189069Y-53428291D01*
X89229576Y-53566246D01*
X89255383Y-53606402D01*
X87582755Y-53606402D01*
X87608562Y-53566246D01*
X87649069Y-53428291D01*
X87649069Y-53284513D01*
X87608562Y-53146558D01*
X87582755Y-53106402D01*
X89255383Y-53106402D01*
X89229576Y-53146558D01*
G37*
%TD.AperFunction*%
%TA.AperFunction,Conductor*%
G36*
X91769576Y-53146558D02*
G01*
X91729069Y-53284513D01*
X91729069Y-53428291D01*
X91769576Y-53566246D01*
X91795383Y-53606402D01*
X90122755Y-53606402D01*
X90148562Y-53566246D01*
X90189069Y-53428291D01*
X90189069Y-53284513D01*
X90148562Y-53146558D01*
X90122755Y-53106402D01*
X91795383Y-53106402D01*
X91769576Y-53146558D01*
G37*
%TD.AperFunction*%
%TA.AperFunction,Conductor*%
G36*
X94309576Y-53146558D02*
G01*
X94269069Y-53284513D01*
X94269069Y-53428291D01*
X94309576Y-53566246D01*
X94335383Y-53606402D01*
X92662755Y-53606402D01*
X92688562Y-53566246D01*
X92729069Y-53428291D01*
X92729069Y-53284513D01*
X92688562Y-53146558D01*
X92662755Y-53106402D01*
X94335383Y-53106402D01*
X94309576Y-53146558D01*
G37*
%TD.AperFunction*%
%TA.AperFunction,Conductor*%
G36*
X96849576Y-53146558D02*
G01*
X96809069Y-53284513D01*
X96809069Y-53428291D01*
X96849576Y-53566246D01*
X96875383Y-53606402D01*
X95202755Y-53606402D01*
X95228562Y-53566246D01*
X95269069Y-53428291D01*
X95269069Y-53284513D01*
X95228562Y-53146558D01*
X95202755Y-53106402D01*
X96875383Y-53106402D01*
X96849576Y-53146558D01*
G37*
%TD.AperFunction*%
%TA.AperFunction,Conductor*%
G36*
X99389576Y-53146558D02*
G01*
X99349069Y-53284513D01*
X99349069Y-53428291D01*
X99389576Y-53566246D01*
X99415383Y-53606402D01*
X97742755Y-53606402D01*
X97768562Y-53566246D01*
X97809069Y-53428291D01*
X97809069Y-53284513D01*
X97768562Y-53146558D01*
X97742755Y-53106402D01*
X99415383Y-53106402D01*
X99389576Y-53146558D01*
G37*
%TD.AperFunction*%
%TA.AperFunction,Conductor*%
G36*
X101929576Y-53146558D02*
G01*
X101889069Y-53284513D01*
X101889069Y-53428291D01*
X101929576Y-53566246D01*
X101955383Y-53606402D01*
X100282755Y-53606402D01*
X100308562Y-53566246D01*
X100349069Y-53428291D01*
X100349069Y-53284513D01*
X100308562Y-53146558D01*
X100282755Y-53106402D01*
X101955383Y-53106402D01*
X101929576Y-53146558D01*
G37*
%TD.AperFunction*%
%TA.AperFunction,Conductor*%
G36*
X258435182Y-47709087D02*
G01*
X258480937Y-47761891D01*
X258492143Y-47813402D01*
X258492143Y-147564402D01*
X258472458Y-147631441D01*
X258419654Y-147677196D01*
X258368143Y-147688402D01*
X35617143Y-147688402D01*
X35550104Y-147668717D01*
X35504349Y-147615913D01*
X35493143Y-147564402D01*
X35493143Y-142138902D01*
X254040049Y-142138902D01*
X254060394Y-142397420D01*
X254120934Y-142649586D01*
X254220168Y-142889160D01*
X254220170Y-142889163D01*
X254355662Y-143110267D01*
X254355663Y-143110268D01*
X254355664Y-143110270D01*
X254355666Y-143110272D01*
X254524083Y-143307462D01*
X254721273Y-143475879D01*
X254721275Y-143475880D01*
X254721276Y-143475881D01*
X254721277Y-143475882D01*
X254942381Y-143611374D01*
X254942384Y-143611376D01*
X255181958Y-143710610D01*
X255181963Y-143710612D01*
X255434120Y-143771150D01*
X255627917Y-143786402D01*
X255627925Y-143786402D01*
X255757361Y-143786402D01*
X255757369Y-143786402D01*
X255951166Y-143771150D01*
X256203323Y-143710612D01*
X256323114Y-143660992D01*
X256442901Y-143611376D01*
X256442902Y-143611375D01*
X256442905Y-143611374D01*
X256664013Y-143475879D01*
X256861203Y-143307462D01*
X257029620Y-143110272D01*
X257165115Y-142889164D01*
X257264353Y-142649582D01*
X257324891Y-142397425D01*
X257345237Y-142138902D01*
X257324891Y-141880379D01*
X257264353Y-141628222D01*
X257183863Y-141433901D01*
X257165117Y-141388643D01*
X257165115Y-141388640D01*
X257029623Y-141167536D01*
X257029622Y-141167535D01*
X257029621Y-141167534D01*
X257029620Y-141167532D01*
X256861203Y-140970342D01*
X256664013Y-140801925D01*
X256664011Y-140801923D01*
X256664009Y-140801922D01*
X256664008Y-140801921D01*
X256442904Y-140666429D01*
X256442901Y-140666427D01*
X256203327Y-140567193D01*
X256088603Y-140539650D01*
X255951166Y-140506654D01*
X255951164Y-140506653D01*
X255951161Y-140506653D01*
X255757374Y-140491402D01*
X255757369Y-140491402D01*
X255627917Y-140491402D01*
X255627911Y-140491402D01*
X255434124Y-140506653D01*
X255181958Y-140567193D01*
X254942384Y-140666427D01*
X254942381Y-140666429D01*
X254721277Y-140801921D01*
X254721276Y-140801922D01*
X254524083Y-140970342D01*
X254355663Y-141167535D01*
X254355662Y-141167536D01*
X254220170Y-141388640D01*
X254220168Y-141388643D01*
X254120934Y-141628217D01*
X254060394Y-141880383D01*
X254040049Y-142138902D01*
X35493143Y-142138902D01*
X35493143Y-140419894D01*
X41025202Y-140419894D01*
X41143873Y-140483325D01*
X41329550Y-140539650D01*
X41522643Y-140558667D01*
X41715735Y-140539650D01*
X41901415Y-140483324D01*
X41901417Y-140483324D01*
X42020081Y-140419894D01*
X42020082Y-140419893D01*
X41522644Y-139922455D01*
X41522643Y-139922455D01*
X41025202Y-140419894D01*
X35493143Y-140419894D01*
X35493143Y-139568902D01*
X40532877Y-139568902D01*
X40551894Y-139761994D01*
X40608219Y-139947671D01*
X40671650Y-140066341D01*
X41144511Y-139593481D01*
X41288793Y-139593481D01*
X41319008Y-139686471D01*
X41384432Y-139759133D01*
X41473755Y-139798902D01*
X41546815Y-139798902D01*
X41618282Y-139783711D01*
X41697385Y-139726240D01*
X41746273Y-139641564D01*
X41753910Y-139568902D01*
X41876196Y-139568902D01*
X42373635Y-140066341D01*
X42373635Y-140066340D01*
X42437065Y-139947676D01*
X42437065Y-139947674D01*
X42493391Y-139761994D01*
X42512408Y-139568901D01*
X42493391Y-139375809D01*
X42437066Y-139190132D01*
X42373635Y-139071461D01*
X41876196Y-139568901D01*
X41876196Y-139568902D01*
X41753910Y-139568902D01*
X41756493Y-139544323D01*
X41726278Y-139451333D01*
X41660854Y-139378671D01*
X41571531Y-139338902D01*
X41498471Y-139338902D01*
X41427004Y-139354093D01*
X41347901Y-139411564D01*
X41299013Y-139496240D01*
X41288793Y-139593481D01*
X41144511Y-139593481D01*
X41169090Y-139568902D01*
X40671650Y-139071462D01*
X40608219Y-139190132D01*
X40551894Y-139375809D01*
X40532877Y-139568902D01*
X35493143Y-139568902D01*
X35493143Y-138717909D01*
X41025203Y-138717909D01*
X41522643Y-139215349D01*
X41522644Y-139215349D01*
X42020082Y-138717909D01*
X41901412Y-138654478D01*
X41715735Y-138598153D01*
X41522643Y-138579136D01*
X41329550Y-138598153D01*
X41143873Y-138654478D01*
X41025203Y-138717909D01*
X35493143Y-138717909D01*
X35493143Y-137465526D01*
X64763427Y-137465526D01*
X64773328Y-137698602D01*
X64773329Y-137698611D01*
X64822479Y-137926668D01*
X64822480Y-137926671D01*
X64909462Y-138143133D01*
X64909464Y-138143137D01*
X65031781Y-138341793D01*
X65058621Y-138372289D01*
X65185912Y-138516920D01*
X65226370Y-138549588D01*
X65266162Y-138607019D01*
X65268588Y-138676847D01*
X65232878Y-138736901D01*
X65200878Y-138758445D01*
X65198523Y-138759543D01*
X65049297Y-138851586D01*
X64925327Y-138975556D01*
X64833286Y-139124777D01*
X64833284Y-139124782D01*
X64778137Y-139291204D01*
X64778136Y-139291211D01*
X64767643Y-139393915D01*
X64767643Y-139813902D01*
X65822173Y-139813902D01*
X65782958Y-139908576D01*
X65762509Y-140063902D01*
X65782958Y-140219228D01*
X65822173Y-140313902D01*
X64767644Y-140313902D01*
X64767644Y-140733888D01*
X64778137Y-140836599D01*
X64833284Y-141003021D01*
X64833286Y-141003026D01*
X64925327Y-141152247D01*
X65049297Y-141276217D01*
X65198518Y-141368258D01*
X65198523Y-141368260D01*
X65364945Y-141423407D01*
X65364952Y-141423408D01*
X65467662Y-141433901D01*
X66112642Y-141433901D01*
X66112643Y-141433900D01*
X66112642Y-140604371D01*
X66207317Y-140643587D01*
X66323646Y-140658902D01*
X66401640Y-140658902D01*
X66517969Y-140643587D01*
X66612643Y-140604371D01*
X66612643Y-141433901D01*
X67257615Y-141433901D01*
X67257629Y-141433900D01*
X67360340Y-141423407D01*
X67526762Y-141368260D01*
X67526767Y-141368258D01*
X67675988Y-141276217D01*
X67799958Y-141152247D01*
X67891999Y-141003026D01*
X67892001Y-141003021D01*
X67947148Y-140836599D01*
X67947149Y-140836592D01*
X67957642Y-140733888D01*
X67957643Y-140733875D01*
X67957643Y-140313902D01*
X66903113Y-140313902D01*
X66942328Y-140219228D01*
X66962777Y-140063902D01*
X66942328Y-139908576D01*
X66903113Y-139813902D01*
X67957642Y-139813902D01*
X67957642Y-139393930D01*
X67957641Y-139393915D01*
X67947148Y-139291204D01*
X67892001Y-139124782D01*
X67891999Y-139124777D01*
X67799958Y-138975556D01*
X67675988Y-138851586D01*
X67526764Y-138759544D01*
X67524317Y-138758403D01*
X67522919Y-138757172D01*
X67520618Y-138755753D01*
X67520860Y-138755359D01*
X67471876Y-138712232D01*
X67452722Y-138645039D01*
X67472935Y-138578158D01*
X67490912Y-138556502D01*
X67620159Y-138432630D01*
X67758883Y-138245063D01*
X67863913Y-138036749D01*
X67932226Y-137813682D01*
X67961859Y-137582278D01*
X67951957Y-137349195D01*
X67902807Y-137121137D01*
X67815822Y-136904667D01*
X67693505Y-136706011D01*
X67539374Y-136530884D01*
X67539372Y-136530882D01*
X67539369Y-136530879D01*
X67357869Y-136384328D01*
X67357858Y-136384321D01*
X67317540Y-136361797D01*
X67268614Y-136311917D01*
X67254422Y-136243504D01*
X67279470Y-136178278D01*
X67308574Y-136150812D01*
X67451731Y-136054055D01*
X67620159Y-135892630D01*
X67758883Y-135705063D01*
X67863913Y-135496749D01*
X67932226Y-135273682D01*
X67961859Y-135042278D01*
X67959433Y-134985167D01*
X72155613Y-134985167D01*
X72174225Y-135197907D01*
X72174227Y-135197918D01*
X72229496Y-135404188D01*
X72229498Y-135404192D01*
X72229499Y-135404196D01*
X72271946Y-135495224D01*
X72319752Y-135597744D01*
X72442247Y-135772687D01*
X72593253Y-135923693D01*
X72593256Y-135923695D01*
X72768194Y-136046187D01*
X72768196Y-136046188D01*
X72768195Y-136046188D01*
X72832711Y-136076272D01*
X72961745Y-136136442D01*
X72961758Y-136136445D01*
X72966839Y-136138296D01*
X72966165Y-136140144D01*
X73018455Y-136172023D01*
X73048979Y-136234873D01*
X73040678Y-136304248D01*
X72996188Y-136358122D01*
X72966679Y-136371598D01*
X72967011Y-136372508D01*
X72961915Y-136374363D01*
X72768442Y-136464580D01*
X72712742Y-136503580D01*
X73336374Y-137127212D01*
X73255627Y-137140001D01*
X73142730Y-137197525D01*
X73053134Y-137287121D01*
X72995610Y-137400018D01*
X72982821Y-137480765D01*
X72359189Y-136857133D01*
X72320189Y-136912833D01*
X72229972Y-137106306D01*
X72229969Y-137106312D01*
X72174720Y-137312503D01*
X72174719Y-137312511D01*
X72156115Y-137525163D01*
X72156115Y-137525168D01*
X72174719Y-137737820D01*
X72174720Y-137737828D01*
X72229969Y-137944019D01*
X72229972Y-137944025D01*
X72320187Y-138137494D01*
X72320188Y-138137496D01*
X72359190Y-138193196D01*
X72359191Y-138193197D01*
X72982821Y-137569566D01*
X72995610Y-137650314D01*
X73053134Y-137763211D01*
X73142730Y-137852807D01*
X73255627Y-137910331D01*
X73336374Y-137923119D01*
X72712742Y-138546749D01*
X72768445Y-138585752D01*
X72961915Y-138675968D01*
X72961921Y-138675971D01*
X73168112Y-138731220D01*
X73168120Y-138731221D01*
X73380773Y-138749826D01*
X73380777Y-138749826D01*
X73593429Y-138731221D01*
X73593437Y-138731220D01*
X73799628Y-138675971D01*
X73799634Y-138675968D01*
X73993105Y-138585752D01*
X73993111Y-138585748D01*
X74048806Y-138546750D01*
X73425176Y-137923119D01*
X73505923Y-137910331D01*
X73618820Y-137852807D01*
X73708416Y-137763211D01*
X73765940Y-137650314D01*
X73778728Y-137569566D01*
X74402359Y-138193197D01*
X74441357Y-138137502D01*
X74441361Y-138137496D01*
X74531577Y-137944025D01*
X74531580Y-137944019D01*
X74586829Y-137737828D01*
X74586830Y-137737820D01*
X74605435Y-137525168D01*
X74605435Y-137525163D01*
X74586830Y-137312511D01*
X74586829Y-137312503D01*
X74531580Y-137106312D01*
X74531577Y-137106306D01*
X74509473Y-137058903D01*
X247107033Y-137058903D01*
X247127447Y-137344335D01*
X247188271Y-137623939D01*
X247188273Y-137623945D01*
X247188274Y-137623948D01*
X247273634Y-137852807D01*
X247288278Y-137892068D01*
X247425413Y-138143211D01*
X247425418Y-138143219D01*
X247596897Y-138372289D01*
X247596913Y-138372307D01*
X247799237Y-138574631D01*
X247799255Y-138574647D01*
X248028325Y-138746126D01*
X248028333Y-138746131D01*
X248279476Y-138883266D01*
X248279475Y-138883266D01*
X248279479Y-138883267D01*
X248279482Y-138883269D01*
X248547597Y-138983271D01*
X248547603Y-138983272D01*
X248547605Y-138983273D01*
X248827209Y-139044097D01*
X248827211Y-139044097D01*
X248827215Y-139044098D01*
X249041195Y-139059402D01*
X252184091Y-139059402D01*
X252398071Y-139044098D01*
X252677689Y-138983271D01*
X252945804Y-138883269D01*
X253196958Y-138746128D01*
X253426038Y-138574641D01*
X253628382Y-138372297D01*
X253799869Y-138143217D01*
X253937010Y-137892063D01*
X254037012Y-137623948D01*
X254058501Y-137525163D01*
X254097838Y-137344335D01*
X254097838Y-137344334D01*
X254097839Y-137344330D01*
X254118253Y-137058902D01*
X254097839Y-136773474D01*
X254083163Y-136706011D01*
X254037014Y-136493864D01*
X254037013Y-136493862D01*
X254037012Y-136493856D01*
X253937010Y-136225741D01*
X253920707Y-136195885D01*
X253799872Y-135974592D01*
X253799867Y-135974584D01*
X253628388Y-135745514D01*
X253628372Y-135745496D01*
X253426048Y-135543172D01*
X253426030Y-135543156D01*
X253196960Y-135371677D01*
X253196952Y-135371672D01*
X252945809Y-135234537D01*
X252945810Y-135234537D01*
X252742220Y-135158602D01*
X252677689Y-135134533D01*
X252677686Y-135134532D01*
X252677680Y-135134530D01*
X252398076Y-135073706D01*
X252184093Y-135058402D01*
X252184091Y-135058402D01*
X249041195Y-135058402D01*
X249041192Y-135058402D01*
X248827209Y-135073706D01*
X248547605Y-135134530D01*
X248279476Y-135234537D01*
X248028333Y-135371672D01*
X248028325Y-135371677D01*
X247799255Y-135543156D01*
X247799237Y-135543172D01*
X247596913Y-135745496D01*
X247596897Y-135745514D01*
X247425418Y-135974584D01*
X247425413Y-135974592D01*
X247288278Y-136225735D01*
X247188271Y-136493864D01*
X247127447Y-136773468D01*
X247107033Y-137058900D01*
X247107033Y-137058903D01*
X74509473Y-137058903D01*
X74441361Y-136912836D01*
X74402358Y-136857133D01*
X73778728Y-137480764D01*
X73765940Y-137400018D01*
X73708416Y-137287121D01*
X73618820Y-137197525D01*
X73505923Y-137140001D01*
X73425176Y-137127212D01*
X74048806Y-136503582D01*
X74048805Y-136503581D01*
X73993105Y-136464579D01*
X73993103Y-136464578D01*
X73799634Y-136374363D01*
X73794539Y-136372508D01*
X73795230Y-136370609D01*
X73743100Y-136338833D01*
X73712572Y-136275986D01*
X73720868Y-136206610D01*
X73765354Y-136152733D01*
X73795032Y-136139180D01*
X73794711Y-136138296D01*
X73799788Y-136136446D01*
X73799805Y-136136442D01*
X73993356Y-136046187D01*
X74168294Y-135923695D01*
X74319304Y-135772685D01*
X74441796Y-135597747D01*
X74532051Y-135404196D01*
X74587324Y-135197913D01*
X74605937Y-134985166D01*
X74587324Y-134772419D01*
X74545356Y-134615793D01*
X74532053Y-134566143D01*
X74532052Y-134566142D01*
X74532051Y-134566136D01*
X74441796Y-134372585D01*
X74319304Y-134197647D01*
X74319302Y-134197644D01*
X74168296Y-134046638D01*
X73993353Y-133924143D01*
X73993354Y-133924143D01*
X73864322Y-133863974D01*
X73799805Y-133833890D01*
X73799798Y-133833888D01*
X73794711Y-133832036D01*
X73795484Y-133829912D01*
X73744080Y-133798590D01*
X73713541Y-133735747D01*
X73721825Y-133666370D01*
X73766303Y-133612486D01*
X73795090Y-133599338D01*
X73794711Y-133598296D01*
X73799788Y-133596446D01*
X73799805Y-133596442D01*
X73993356Y-133506187D01*
X74168294Y-133383695D01*
X74319304Y-133232685D01*
X74441796Y-133057747D01*
X74532051Y-132864196D01*
X74559266Y-132762626D01*
X108973445Y-132762626D01*
X108983346Y-132995702D01*
X108983347Y-132995711D01*
X109032497Y-133223768D01*
X109032498Y-133223771D01*
X109119480Y-133440233D01*
X109119482Y-133440237D01*
X109241799Y-133638893D01*
X109368726Y-133783110D01*
X109395931Y-133814021D01*
X109395934Y-133814024D01*
X109577434Y-133960575D01*
X109577440Y-133960580D01*
X109781106Y-134074355D01*
X109781109Y-134074356D01*
X110001077Y-134152075D01*
X110129386Y-134174076D01*
X110231005Y-134191501D01*
X110231014Y-134191502D01*
X110855876Y-134191502D01*
X110855877Y-134191502D01*
X110855878Y-134191501D01*
X110855895Y-134191501D01*
X111030107Y-134176673D01*
X111030107Y-134176672D01*
X111030114Y-134176672D01*
X111255880Y-134117887D01*
X111468463Y-134021794D01*
X111661749Y-133891155D01*
X111830177Y-133729730D01*
X111968901Y-133542163D01*
X112073931Y-133333849D01*
X112142244Y-133110782D01*
X112171877Y-132879378D01*
X112169017Y-132812068D01*
X112162469Y-132657918D01*
X112161975Y-132646295D01*
X112112825Y-132418237D01*
X112025840Y-132201767D01*
X111903523Y-132003111D01*
X111882217Y-131978903D01*
X242027033Y-131978903D01*
X242047447Y-132264335D01*
X242108271Y-132543939D01*
X242108273Y-132543945D01*
X242108274Y-132543948D01*
X242146448Y-132646295D01*
X242208278Y-132812068D01*
X242345413Y-133063211D01*
X242345418Y-133063219D01*
X242516897Y-133292289D01*
X242516913Y-133292307D01*
X242719237Y-133494631D01*
X242719255Y-133494647D01*
X242948325Y-133666126D01*
X242948333Y-133666131D01*
X243199476Y-133803266D01*
X243199475Y-133803266D01*
X243199479Y-133803267D01*
X243199482Y-133803269D01*
X243467597Y-133903271D01*
X243467603Y-133903272D01*
X243467605Y-133903273D01*
X243747209Y-133964097D01*
X243747211Y-133964097D01*
X243747215Y-133964098D01*
X243961195Y-133979402D01*
X247104091Y-133979402D01*
X247318071Y-133964098D01*
X247501733Y-133924145D01*
X247597680Y-133903273D01*
X247597680Y-133903272D01*
X247597689Y-133903271D01*
X247865804Y-133803269D01*
X248116958Y-133666128D01*
X248346038Y-133494641D01*
X248548382Y-133292297D01*
X248719869Y-133063217D01*
X248857010Y-132812063D01*
X248957012Y-132543948D01*
X248984360Y-132418232D01*
X249017838Y-132264335D01*
X249017838Y-132264334D01*
X249017839Y-132264330D01*
X249038253Y-131978902D01*
X249017839Y-131693474D01*
X249013059Y-131671502D01*
X248957014Y-131413864D01*
X248957013Y-131413862D01*
X248957012Y-131413856D01*
X248857010Y-131145741D01*
X248853807Y-131139876D01*
X248719872Y-130894592D01*
X248719867Y-130894584D01*
X248548388Y-130665514D01*
X248548372Y-130665496D01*
X248346048Y-130463172D01*
X248346030Y-130463156D01*
X248116960Y-130291677D01*
X248116952Y-130291672D01*
X247865809Y-130154537D01*
X247865810Y-130154537D01*
X247758558Y-130114534D01*
X247597689Y-130054533D01*
X247597686Y-130054532D01*
X247597680Y-130054530D01*
X247318076Y-129993706D01*
X247104093Y-129978402D01*
X247104091Y-129978402D01*
X243961195Y-129978402D01*
X243961192Y-129978402D01*
X243747209Y-129993706D01*
X243467605Y-130054530D01*
X243199476Y-130154537D01*
X242948333Y-130291672D01*
X242948325Y-130291677D01*
X242719255Y-130463156D01*
X242719237Y-130463172D01*
X242516913Y-130665496D01*
X242516897Y-130665514D01*
X242345418Y-130894584D01*
X242345413Y-130894592D01*
X242208278Y-131145735D01*
X242108271Y-131413864D01*
X242047447Y-131693468D01*
X242027033Y-131978900D01*
X242027033Y-131978903D01*
X111882217Y-131978903D01*
X111749392Y-131827984D01*
X111749390Y-131827982D01*
X111749387Y-131827979D01*
X111709369Y-131795667D01*
X111669576Y-131738237D01*
X111667149Y-131668409D01*
X111702860Y-131608355D01*
X111734876Y-131586803D01*
X111736987Y-131585818D01*
X111736995Y-131585816D01*
X111886317Y-131493714D01*
X112010373Y-131369658D01*
X112102475Y-131220336D01*
X112157660Y-131053799D01*
X112168161Y-130951011D01*
X112168160Y-129610994D01*
X112157660Y-129508205D01*
X112102475Y-129341668D01*
X112010373Y-129192346D01*
X111886317Y-129068290D01*
X111747551Y-128982699D01*
X111736997Y-128976189D01*
X111736992Y-128976187D01*
X111735523Y-128975700D01*
X111570458Y-128921003D01*
X111570456Y-128921002D01*
X111467671Y-128910502D01*
X109677659Y-128910502D01*
X109677642Y-128910503D01*
X109574864Y-128921002D01*
X109574861Y-128921003D01*
X109408329Y-128976187D01*
X109408324Y-128976189D01*
X109259003Y-129068291D01*
X109134950Y-129192344D01*
X109042848Y-129341665D01*
X109042846Y-129341668D01*
X109042847Y-129341668D01*
X108987662Y-129508205D01*
X108987662Y-129508206D01*
X108987661Y-129508206D01*
X108977161Y-129610985D01*
X108977161Y-130951003D01*
X108977162Y-130951020D01*
X108987661Y-131053798D01*
X108987662Y-131053801D01*
X109042737Y-131220004D01*
X109042847Y-131220336D01*
X109134949Y-131369658D01*
X109259005Y-131493714D01*
X109408327Y-131585816D01*
X109408335Y-131585818D01*
X109410590Y-131586870D01*
X109411885Y-131588010D01*
X109414474Y-131589607D01*
X109414201Y-131590049D01*
X109463033Y-131633038D01*
X109482191Y-131700230D01*
X109461981Y-131767113D01*
X109443996Y-131788779D01*
X109315144Y-131912274D01*
X109315143Y-131912275D01*
X109176423Y-132099836D01*
X109071394Y-132308149D01*
X109071391Y-132308155D01*
X109003077Y-132531225D01*
X108973445Y-132762626D01*
X74559266Y-132762626D01*
X74587324Y-132657913D01*
X74605937Y-132445166D01*
X74587324Y-132232419D01*
X74532051Y-132026136D01*
X74441796Y-131832585D01*
X74319304Y-131657647D01*
X74319302Y-131657644D01*
X74168296Y-131506638D01*
X73993353Y-131384143D01*
X73993354Y-131384143D01*
X73864322Y-131323975D01*
X73799805Y-131293890D01*
X73799801Y-131293889D01*
X73799797Y-131293887D01*
X73593527Y-131238618D01*
X73593523Y-131238617D01*
X73593522Y-131238617D01*
X73593521Y-131238616D01*
X73593516Y-131238616D01*
X73380777Y-131220004D01*
X73380773Y-131220004D01*
X73168033Y-131238616D01*
X73168022Y-131238618D01*
X72961752Y-131293887D01*
X72961743Y-131293891D01*
X72768196Y-131384143D01*
X72593253Y-131506638D01*
X72442247Y-131657644D01*
X72319752Y-131832587D01*
X72229500Y-132026134D01*
X72229496Y-132026143D01*
X72174227Y-132232413D01*
X72174225Y-132232424D01*
X72155613Y-132445164D01*
X72155613Y-132445167D01*
X72174225Y-132657907D01*
X72174227Y-132657918D01*
X72229496Y-132864188D01*
X72229498Y-132864192D01*
X72229499Y-132864196D01*
X72236579Y-132879378D01*
X72319752Y-133057744D01*
X72442247Y-133232687D01*
X72593253Y-133383693D01*
X72593256Y-133383695D01*
X72768194Y-133506187D01*
X72768196Y-133506188D01*
X72768195Y-133506188D01*
X72832710Y-133536272D01*
X72961745Y-133596442D01*
X72961758Y-133596445D01*
X72966839Y-133598296D01*
X72966067Y-133600416D01*
X73017485Y-133631760D01*
X73048012Y-133694608D01*
X73039714Y-133763983D01*
X72995227Y-133817859D01*
X72966460Y-133830996D01*
X72966839Y-133832036D01*
X72961747Y-133833889D01*
X72961745Y-133833890D01*
X72961742Y-133833891D01*
X72961743Y-133833891D01*
X72768196Y-133924143D01*
X72593253Y-134046638D01*
X72442247Y-134197644D01*
X72319752Y-134372587D01*
X72229500Y-134566134D01*
X72229496Y-134566143D01*
X72174227Y-134772413D01*
X72174225Y-134772424D01*
X72155613Y-134985164D01*
X72155613Y-134985167D01*
X67959433Y-134985167D01*
X67951957Y-134809195D01*
X67902807Y-134581137D01*
X67815822Y-134364667D01*
X67693505Y-134166011D01*
X67539374Y-133990884D01*
X67539372Y-133990882D01*
X67539369Y-133990879D01*
X67357869Y-133844328D01*
X67357863Y-133844323D01*
X67154197Y-133730548D01*
X66934234Y-133652831D01*
X66934229Y-133652829D01*
X66934227Y-133652829D01*
X66934223Y-133652828D01*
X66934222Y-133652828D01*
X66704298Y-133613402D01*
X66704290Y-133613402D01*
X66079427Y-133613402D01*
X66079408Y-133613402D01*
X65905196Y-133628230D01*
X65905194Y-133628231D01*
X65679424Y-133687016D01*
X65466840Y-133783110D01*
X65273554Y-133913749D01*
X65273552Y-133913751D01*
X65105126Y-134075174D01*
X65105125Y-134075175D01*
X64966405Y-134262736D01*
X64861376Y-134471049D01*
X64861373Y-134471055D01*
X64793059Y-134694125D01*
X64763427Y-134925526D01*
X64773328Y-135158602D01*
X64773329Y-135158611D01*
X64822479Y-135386668D01*
X64822480Y-135386671D01*
X64885364Y-135543163D01*
X64909464Y-135603137D01*
X65031781Y-135801793D01*
X65139068Y-135923695D01*
X65185913Y-135976921D01*
X65185916Y-135976924D01*
X65367416Y-136123475D01*
X65367418Y-136123476D01*
X65367423Y-136123480D01*
X65407745Y-136146005D01*
X65456671Y-136195885D01*
X65470863Y-136264298D01*
X65445815Y-136329524D01*
X65416708Y-136356994D01*
X65273550Y-136453752D01*
X65105126Y-136615174D01*
X65105125Y-136615175D01*
X64966405Y-136802736D01*
X64861376Y-137011049D01*
X64861373Y-137011055D01*
X64793059Y-137234125D01*
X64763427Y-137465526D01*
X35493143Y-137465526D01*
X35493143Y-131659894D01*
X41025202Y-131659894D01*
X41143873Y-131723325D01*
X41329550Y-131779650D01*
X41522643Y-131798667D01*
X41715735Y-131779650D01*
X41901415Y-131723324D01*
X41901417Y-131723324D01*
X42020081Y-131659894D01*
X42020082Y-131659893D01*
X41522644Y-131162455D01*
X41522643Y-131162455D01*
X41025202Y-131659894D01*
X35493143Y-131659894D01*
X35493143Y-130808902D01*
X40532877Y-130808902D01*
X40551894Y-131001994D01*
X40608219Y-131187671D01*
X40671650Y-131306341D01*
X41144510Y-130833481D01*
X41288793Y-130833481D01*
X41319008Y-130926471D01*
X41384432Y-130999133D01*
X41473755Y-131038902D01*
X41546815Y-131038902D01*
X41618282Y-131023711D01*
X41697385Y-130966240D01*
X41746273Y-130881564D01*
X41753910Y-130808902D01*
X41876196Y-130808902D01*
X42373635Y-131306341D01*
X42373635Y-131306340D01*
X42437065Y-131187676D01*
X42437065Y-131187674D01*
X42493391Y-131001994D01*
X42496443Y-130971002D01*
X100542598Y-130971002D01*
X100563102Y-131139871D01*
X100563103Y-131139876D01*
X100623425Y-131298933D01*
X100672244Y-131369658D01*
X100720060Y-131438931D01*
X100796485Y-131506637D01*
X100847393Y-131551738D01*
X100955268Y-131608355D01*
X100998018Y-131630792D01*
X101163187Y-131671502D01*
X101333299Y-131671502D01*
X101498468Y-131630792D01*
X101579981Y-131588010D01*
X101649092Y-131551738D01*
X101649093Y-131551736D01*
X101649095Y-131551736D01*
X101776426Y-131438931D01*
X101873061Y-131298932D01*
X101933383Y-131139874D01*
X101953888Y-130971002D01*
X101933383Y-130802130D01*
X101873061Y-130643072D01*
X101776426Y-130503073D01*
X101649095Y-130390268D01*
X101649092Y-130390265D01*
X101498469Y-130311212D01*
X101333299Y-130270502D01*
X101163187Y-130270502D01*
X100998016Y-130311212D01*
X100847393Y-130390265D01*
X100720059Y-130503074D01*
X100623425Y-130643070D01*
X100563103Y-130802127D01*
X100563102Y-130802132D01*
X100542598Y-130971002D01*
X42496443Y-130971002D01*
X42512408Y-130808901D01*
X42493391Y-130615809D01*
X42437066Y-130430132D01*
X42373635Y-130311461D01*
X41876196Y-130808901D01*
X41876196Y-130808902D01*
X41753910Y-130808902D01*
X41756493Y-130784323D01*
X41726278Y-130691333D01*
X41660854Y-130618671D01*
X41571531Y-130578902D01*
X41498471Y-130578902D01*
X41427004Y-130594093D01*
X41347901Y-130651564D01*
X41299013Y-130736240D01*
X41288793Y-130833481D01*
X41144510Y-130833481D01*
X41169089Y-130808902D01*
X41169089Y-130808901D01*
X40671649Y-130311461D01*
X40608219Y-130430130D01*
X40551894Y-130615809D01*
X40532877Y-130808902D01*
X35493143Y-130808902D01*
X35493143Y-129957909D01*
X41025203Y-129957909D01*
X41522641Y-130455348D01*
X41522642Y-130455348D01*
X42020081Y-129957908D01*
X41901412Y-129894478D01*
X41715735Y-129838153D01*
X41522643Y-129819136D01*
X41329550Y-129838153D01*
X41143873Y-129894478D01*
X41025203Y-129957909D01*
X35493143Y-129957909D01*
X35493143Y-127688902D01*
X56756984Y-127688902D01*
X56777579Y-127924305D01*
X56777581Y-127924315D01*
X56838737Y-128152557D01*
X56838739Y-128152561D01*
X56838740Y-128152565D01*
X56918647Y-128323925D01*
X56938608Y-128366732D01*
X56938610Y-128366736D01*
X57046924Y-128521423D01*
X57074148Y-128560303D01*
X57241242Y-128727397D01*
X57338027Y-128795167D01*
X57434808Y-128862934D01*
X57434810Y-128862935D01*
X57434813Y-128862937D01*
X57648980Y-128962805D01*
X57877235Y-129023965D01*
X58053677Y-129039402D01*
X58112642Y-129044561D01*
X58112643Y-129044561D01*
X58112644Y-129044561D01*
X58171609Y-129039402D01*
X58348051Y-129023965D01*
X58576306Y-128962805D01*
X58790473Y-128862937D01*
X58984044Y-128727397D01*
X59151138Y-128560303D01*
X59281067Y-128374744D01*
X59335645Y-128331119D01*
X59405143Y-128323925D01*
X59467498Y-128355448D01*
X59484218Y-128374744D01*
X59614143Y-128560297D01*
X59614148Y-128560303D01*
X59781242Y-128727397D01*
X59878027Y-128795166D01*
X59974808Y-128862934D01*
X59974810Y-128862935D01*
X59974813Y-128862937D01*
X60188980Y-128962805D01*
X60417235Y-129023965D01*
X60593677Y-129039402D01*
X60652642Y-129044561D01*
X60652643Y-129044561D01*
X60652644Y-129044561D01*
X60711609Y-129039402D01*
X60888051Y-129023965D01*
X61116306Y-128962805D01*
X61330473Y-128862937D01*
X61524044Y-128727397D01*
X61645972Y-128605468D01*
X61707291Y-128571986D01*
X61776983Y-128576970D01*
X61832917Y-128618841D01*
X61849832Y-128649819D01*
X61898845Y-128781230D01*
X61898849Y-128781237D01*
X61985095Y-128896446D01*
X61985098Y-128896449D01*
X62100307Y-128982695D01*
X62100314Y-128982699D01*
X62235160Y-129032993D01*
X62235159Y-129032993D01*
X62242087Y-129033737D01*
X62294770Y-129039402D01*
X64090515Y-129039401D01*
X64150126Y-129032993D01*
X64284974Y-128982698D01*
X64400189Y-128896448D01*
X64486439Y-128781233D01*
X64536734Y-128646385D01*
X64543143Y-128586775D01*
X64543142Y-127281002D01*
X80392598Y-127281002D01*
X80413102Y-127449871D01*
X80413103Y-127449876D01*
X80473425Y-127608933D01*
X80525157Y-127683878D01*
X80570060Y-127748931D01*
X80675748Y-127842562D01*
X80697393Y-127861738D01*
X80816624Y-127924315D01*
X80848018Y-127940792D01*
X81013187Y-127981502D01*
X81183299Y-127981502D01*
X81348468Y-127940792D01*
X81427935Y-127899083D01*
X81499092Y-127861738D01*
X81499093Y-127861736D01*
X81499095Y-127861736D01*
X81626426Y-127748931D01*
X81723061Y-127608932D01*
X81783383Y-127449874D01*
X81803888Y-127281002D01*
X81783383Y-127112130D01*
X81723061Y-126953072D01*
X81685671Y-126898903D01*
X247107534Y-126898903D01*
X247127943Y-127184264D01*
X247188752Y-127463797D01*
X247288734Y-127731860D01*
X247425834Y-127982940D01*
X247425835Y-127982941D01*
X247597282Y-128211967D01*
X247597292Y-128211979D01*
X247799565Y-128414252D01*
X247799577Y-128414262D01*
X248028603Y-128585709D01*
X248028604Y-128585710D01*
X248279685Y-128722810D01*
X248279684Y-128722810D01*
X248392939Y-128765051D01*
X249895908Y-127262083D01*
X249983141Y-127400913D01*
X250110632Y-127528404D01*
X250249461Y-127615636D01*
X248971201Y-128893894D01*
X248971202Y-128893895D01*
X249041206Y-128898901D01*
X249041209Y-128898902D01*
X252184077Y-128898902D01*
X252184079Y-128898901D01*
X252254082Y-128893895D01*
X252254083Y-128893894D01*
X250975824Y-127615636D01*
X251114654Y-127528404D01*
X251242145Y-127400913D01*
X251329377Y-127262083D01*
X252832344Y-128765051D01*
X252945603Y-128722809D01*
X253196681Y-128585710D01*
X253196682Y-128585709D01*
X253425708Y-128414262D01*
X253425720Y-128414252D01*
X253627993Y-128211979D01*
X253628003Y-128211967D01*
X253799450Y-127982941D01*
X253799451Y-127982940D01*
X253936551Y-127731860D01*
X254036533Y-127463797D01*
X254097342Y-127184264D01*
X254117752Y-126898903D01*
X254117752Y-126898900D01*
X254097342Y-126613539D01*
X254036533Y-126334006D01*
X253936551Y-126065943D01*
X253799451Y-125814863D01*
X253799450Y-125814862D01*
X253628003Y-125585836D01*
X253627993Y-125585824D01*
X253425720Y-125383551D01*
X253425708Y-125383541D01*
X253196682Y-125212094D01*
X253196681Y-125212093D01*
X252945600Y-125074993D01*
X252832345Y-125032750D01*
X251329376Y-126535719D01*
X251242145Y-126396891D01*
X251114654Y-126269400D01*
X250975824Y-126182167D01*
X252254083Y-124903907D01*
X252184081Y-124898902D01*
X249041202Y-124898902D01*
X248971201Y-124903907D01*
X250249461Y-126182167D01*
X250110632Y-126269400D01*
X249983141Y-126396891D01*
X249895909Y-126535719D01*
X248392939Y-125032750D01*
X248392938Y-125032750D01*
X248279697Y-125074988D01*
X248279685Y-125074993D01*
X248028604Y-125212093D01*
X248028603Y-125212094D01*
X247799577Y-125383541D01*
X247799565Y-125383551D01*
X247597292Y-125585824D01*
X247597282Y-125585836D01*
X247425835Y-125814862D01*
X247425834Y-125814863D01*
X247288734Y-126065943D01*
X247188752Y-126334006D01*
X247127943Y-126613539D01*
X247107534Y-126898900D01*
X247107534Y-126898903D01*
X81685671Y-126898903D01*
X81626426Y-126813073D01*
X81499095Y-126700268D01*
X81499092Y-126700265D01*
X81348469Y-126621212D01*
X81183299Y-126580502D01*
X81013187Y-126580502D01*
X80848016Y-126621212D01*
X80697393Y-126700265D01*
X80570059Y-126813074D01*
X80473425Y-126953070D01*
X80413103Y-127112127D01*
X80413102Y-127112132D01*
X80392598Y-127281002D01*
X64543142Y-127281002D01*
X64543142Y-126791030D01*
X64536734Y-126731419D01*
X64535453Y-126727985D01*
X64486440Y-126596573D01*
X64486436Y-126596566D01*
X64400190Y-126481357D01*
X64400187Y-126481354D01*
X64284978Y-126395108D01*
X64284971Y-126395104D01*
X64150125Y-126344810D01*
X64150126Y-126344810D01*
X64090526Y-126338403D01*
X64090524Y-126338402D01*
X64090516Y-126338402D01*
X64090507Y-126338402D01*
X62294772Y-126338402D01*
X62294766Y-126338403D01*
X62235159Y-126344810D01*
X62100314Y-126395104D01*
X62100307Y-126395108D01*
X61985098Y-126481354D01*
X61985095Y-126481357D01*
X61898849Y-126596566D01*
X61898846Y-126596571D01*
X61849832Y-126727985D01*
X61807960Y-126783918D01*
X61742496Y-126808335D01*
X61674223Y-126793483D01*
X61645969Y-126772332D01*
X61524045Y-126650408D01*
X61524038Y-126650403D01*
X61330477Y-126514869D01*
X61330473Y-126514867D01*
X61330473Y-126514866D01*
X61116306Y-126414999D01*
X61116302Y-126414998D01*
X61116298Y-126414996D01*
X60888056Y-126353840D01*
X60888046Y-126353838D01*
X60652644Y-126333243D01*
X60652642Y-126333243D01*
X60417239Y-126353838D01*
X60417229Y-126353840D01*
X60188987Y-126414996D01*
X60188978Y-126415000D01*
X59974814Y-126514866D01*
X59974812Y-126514867D01*
X59781240Y-126650407D01*
X59614148Y-126817499D01*
X59484218Y-127003060D01*
X59429641Y-127046685D01*
X59360143Y-127053879D01*
X59297788Y-127022356D01*
X59281068Y-127003060D01*
X59151137Y-126817499D01*
X58984045Y-126650408D01*
X58984038Y-126650403D01*
X58790477Y-126514869D01*
X58790473Y-126514867D01*
X58790472Y-126514866D01*
X58576306Y-126414999D01*
X58576302Y-126414998D01*
X58576298Y-126414996D01*
X58348056Y-126353840D01*
X58348046Y-126353838D01*
X58112644Y-126333243D01*
X58112642Y-126333243D01*
X57877239Y-126353838D01*
X57877229Y-126353840D01*
X57648987Y-126414996D01*
X57648978Y-126415000D01*
X57434814Y-126514866D01*
X57434812Y-126514867D01*
X57241240Y-126650407D01*
X57074148Y-126817499D01*
X56938608Y-127011071D01*
X56938607Y-127011073D01*
X56838741Y-127225237D01*
X56838737Y-127225246D01*
X56777581Y-127453488D01*
X56777579Y-127453498D01*
X56756984Y-127688901D01*
X56756984Y-127688902D01*
X35493143Y-127688902D01*
X35493143Y-124756002D01*
X84067598Y-124756002D01*
X84088102Y-124924871D01*
X84088103Y-124924876D01*
X84148425Y-125083933D01*
X84210548Y-125173932D01*
X84245060Y-125223931D01*
X84346647Y-125313929D01*
X84372393Y-125336738D01*
X84523016Y-125415791D01*
X84523018Y-125415792D01*
X84688187Y-125456502D01*
X84858299Y-125456502D01*
X85023468Y-125415792D01*
X85102935Y-125374083D01*
X85174092Y-125336738D01*
X85174093Y-125336736D01*
X85174095Y-125336736D01*
X85301426Y-125223931D01*
X85398061Y-125083932D01*
X85458383Y-124924874D01*
X85467960Y-124846002D01*
X96837016Y-124846002D01*
X96857520Y-125014871D01*
X96857521Y-125014876D01*
X96917843Y-125173933D01*
X96952355Y-125223931D01*
X97014478Y-125313931D01*
X97093052Y-125383541D01*
X97141811Y-125426738D01*
X97292434Y-125505791D01*
X97292436Y-125505792D01*
X97457605Y-125546502D01*
X97627717Y-125546502D01*
X97792886Y-125505792D01*
X97886799Y-125456502D01*
X97943510Y-125426738D01*
X97943511Y-125426736D01*
X97943513Y-125426736D01*
X98070844Y-125313931D01*
X98167479Y-125173932D01*
X98227801Y-125014874D01*
X98248306Y-124846002D01*
X98248306Y-124846001D01*
X101162016Y-124846001D01*
X101182520Y-125014871D01*
X101182521Y-125014876D01*
X101242843Y-125173933D01*
X101277355Y-125223931D01*
X101339478Y-125313931D01*
X101418052Y-125383541D01*
X101466811Y-125426738D01*
X101617434Y-125505791D01*
X101617436Y-125505792D01*
X101782605Y-125546502D01*
X101952717Y-125546502D01*
X102117886Y-125505792D01*
X102211799Y-125456502D01*
X102268510Y-125426738D01*
X102268511Y-125426736D01*
X102268513Y-125426736D01*
X102395844Y-125313931D01*
X102492479Y-125173932D01*
X102552801Y-125014874D01*
X102573306Y-124846002D01*
X102552801Y-124677130D01*
X102492479Y-124518072D01*
X102395844Y-124378073D01*
X102268513Y-124265268D01*
X102268510Y-124265265D01*
X102117887Y-124186212D01*
X101952717Y-124145502D01*
X101782605Y-124145502D01*
X101617434Y-124186212D01*
X101466811Y-124265265D01*
X101339477Y-124378074D01*
X101242843Y-124518070D01*
X101182521Y-124677127D01*
X101182520Y-124677132D01*
X101162016Y-124846001D01*
X98248306Y-124846001D01*
X98227801Y-124677130D01*
X98167479Y-124518072D01*
X98070844Y-124378073D01*
X97943513Y-124265268D01*
X97943510Y-124265265D01*
X97792887Y-124186212D01*
X97627717Y-124145502D01*
X97457605Y-124145502D01*
X97292434Y-124186212D01*
X97141811Y-124265265D01*
X97014477Y-124378074D01*
X96917843Y-124518070D01*
X96857521Y-124677127D01*
X96857520Y-124677132D01*
X96837016Y-124846002D01*
X85467960Y-124846002D01*
X85478888Y-124756002D01*
X85458383Y-124587130D01*
X85398061Y-124428072D01*
X85301426Y-124288073D01*
X85206559Y-124204028D01*
X85174092Y-124175265D01*
X85023469Y-124096212D01*
X84858299Y-124055502D01*
X84688187Y-124055502D01*
X84523016Y-124096212D01*
X84372393Y-124175265D01*
X84245059Y-124288074D01*
X84148425Y-124428070D01*
X84088103Y-124587127D01*
X84088102Y-124587132D01*
X84067598Y-124756002D01*
X35493143Y-124756002D01*
X35493143Y-122859896D01*
X76821678Y-122859896D01*
X76841450Y-123022738D01*
X76841451Y-123022741D01*
X76899621Y-123176122D01*
X76992807Y-123311125D01*
X76992809Y-123311127D01*
X76992811Y-123311129D01*
X77115590Y-123419902D01*
X77115591Y-123419902D01*
X77115593Y-123419904D01*
X77260844Y-123496138D01*
X77260846Y-123496138D01*
X77260847Y-123496139D01*
X77420117Y-123535396D01*
X77420118Y-123535396D01*
X77584161Y-123535396D01*
X77743430Y-123496139D01*
X77743430Y-123496138D01*
X77743434Y-123496138D01*
X77888685Y-123419904D01*
X78011471Y-123311125D01*
X78104657Y-123176122D01*
X78162827Y-123022741D01*
X78182600Y-122859896D01*
X78181609Y-122851738D01*
X78162827Y-122697053D01*
X78162827Y-122697051D01*
X78104657Y-122543670D01*
X78011471Y-122408667D01*
X78011468Y-122408664D01*
X78011466Y-122408662D01*
X77888687Y-122299889D01*
X77833646Y-122271001D01*
X90042598Y-122271001D01*
X90063102Y-122439871D01*
X90063103Y-122439876D01*
X90123425Y-122598933D01*
X90139120Y-122621670D01*
X90220060Y-122738931D01*
X90325748Y-122832562D01*
X90347393Y-122851738D01*
X90498016Y-122930791D01*
X90498018Y-122930792D01*
X90663187Y-122971502D01*
X90833299Y-122971502D01*
X90998468Y-122930792D01*
X91133548Y-122859896D01*
X91149092Y-122851738D01*
X91149093Y-122851736D01*
X91149095Y-122851736D01*
X91276426Y-122738931D01*
X91373061Y-122598932D01*
X91433383Y-122439874D01*
X91453888Y-122271002D01*
X91433383Y-122102130D01*
X91373061Y-121943072D01*
X91363850Y-121929728D01*
X91301151Y-121838893D01*
X91276426Y-121803073D01*
X91149095Y-121690268D01*
X91149092Y-121690265D01*
X90998469Y-121611212D01*
X90833299Y-121570502D01*
X90663187Y-121570502D01*
X90498016Y-121611212D01*
X90347393Y-121690265D01*
X90220059Y-121803074D01*
X90123425Y-121943070D01*
X90063103Y-122102127D01*
X90063102Y-122102132D01*
X90042598Y-122271001D01*
X77833646Y-122271001D01*
X77805420Y-122256187D01*
X77743434Y-122223654D01*
X77743433Y-122223653D01*
X77743430Y-122223652D01*
X77584161Y-122184396D01*
X77584160Y-122184396D01*
X77420118Y-122184396D01*
X77420117Y-122184396D01*
X77260847Y-122223652D01*
X77115590Y-122299889D01*
X76992811Y-122408662D01*
X76992805Y-122408669D01*
X76899622Y-122543667D01*
X76841451Y-122697050D01*
X76841450Y-122697053D01*
X76821678Y-122859895D01*
X76821678Y-122859896D01*
X35493143Y-122859896D01*
X35493143Y-120688902D01*
X79062182Y-120688902D01*
X79081954Y-120851744D01*
X79081955Y-120851747D01*
X79140125Y-121005128D01*
X79233311Y-121140131D01*
X79233313Y-121140133D01*
X79233315Y-121140135D01*
X79356094Y-121248908D01*
X79356095Y-121248908D01*
X79356097Y-121248910D01*
X79501348Y-121325144D01*
X79501350Y-121325144D01*
X79501351Y-121325145D01*
X79660621Y-121364402D01*
X79660622Y-121364402D01*
X79824665Y-121364402D01*
X79983934Y-121325145D01*
X79983934Y-121325144D01*
X79983938Y-121325144D01*
X80129189Y-121248910D01*
X80251975Y-121140131D01*
X80345161Y-121005128D01*
X80361280Y-120962626D01*
X113763445Y-120962626D01*
X113773346Y-121195702D01*
X113773347Y-121195711D01*
X113822497Y-121423768D01*
X113822498Y-121423771D01*
X113909480Y-121640233D01*
X113909482Y-121640237D01*
X114031799Y-121838893D01*
X114185930Y-122014020D01*
X114225952Y-122046336D01*
X114265745Y-122103766D01*
X114268172Y-122173594D01*
X114232461Y-122233648D01*
X114200461Y-122255193D01*
X114198329Y-122256187D01*
X114049003Y-122348291D01*
X113924950Y-122472344D01*
X113832848Y-122621665D01*
X113832846Y-122621670D01*
X113807867Y-122697053D01*
X113777662Y-122788205D01*
X113777662Y-122788206D01*
X113777661Y-122788206D01*
X113767161Y-122890985D01*
X113767161Y-124231003D01*
X113767162Y-124231020D01*
X113777661Y-124333798D01*
X113777662Y-124333801D01*
X113832846Y-124500333D01*
X113832848Y-124500338D01*
X113867730Y-124556890D01*
X113924949Y-124649658D01*
X114049005Y-124773714D01*
X114198327Y-124865816D01*
X114364864Y-124921001D01*
X114467652Y-124931502D01*
X116257669Y-124931501D01*
X116360458Y-124921001D01*
X116526995Y-124865816D01*
X116676317Y-124773714D01*
X116800373Y-124649658D01*
X116892475Y-124500336D01*
X116947660Y-124333799D01*
X116958161Y-124231011D01*
X116958160Y-122890994D01*
X116947660Y-122788205D01*
X116892475Y-122621668D01*
X116800373Y-122472346D01*
X116676317Y-122348290D01*
X116526995Y-122256188D01*
X116526987Y-122256183D01*
X116524719Y-122255126D01*
X116523424Y-122253986D01*
X116520848Y-122252397D01*
X116521119Y-122251956D01*
X116472280Y-122208953D01*
X116453129Y-122141759D01*
X116473346Y-122074878D01*
X116491314Y-122053234D01*
X116620177Y-121929730D01*
X116702144Y-121818903D01*
X242027534Y-121818903D01*
X242047943Y-122104264D01*
X242108752Y-122383797D01*
X242208734Y-122651860D01*
X242345834Y-122902940D01*
X242345835Y-122902941D01*
X242517282Y-123131967D01*
X242517292Y-123131979D01*
X242719565Y-123334252D01*
X242719577Y-123334262D01*
X242948603Y-123505709D01*
X242948604Y-123505710D01*
X243199685Y-123642810D01*
X243199684Y-123642810D01*
X243312939Y-123685051D01*
X244815908Y-122182083D01*
X244903141Y-122320913D01*
X245030632Y-122448404D01*
X245169461Y-122535636D01*
X243891201Y-123813894D01*
X243891202Y-123813895D01*
X243961206Y-123818901D01*
X243961209Y-123818902D01*
X247104077Y-123818902D01*
X247104079Y-123818901D01*
X247174082Y-123813895D01*
X247174083Y-123813894D01*
X245895824Y-122535636D01*
X246034654Y-122448404D01*
X246162145Y-122320913D01*
X246249376Y-122182083D01*
X247752344Y-123685051D01*
X247865603Y-123642809D01*
X248116681Y-123505710D01*
X248116682Y-123505709D01*
X248345708Y-123334262D01*
X248345720Y-123334252D01*
X248547993Y-123131979D01*
X248548003Y-123131967D01*
X248719450Y-122902941D01*
X248719451Y-122902940D01*
X248856551Y-122651860D01*
X248956533Y-122383797D01*
X249017342Y-122104264D01*
X249037752Y-121818903D01*
X249037752Y-121818900D01*
X249017342Y-121533539D01*
X248956533Y-121254006D01*
X248856551Y-120985943D01*
X248719451Y-120734863D01*
X248719450Y-120734862D01*
X248548003Y-120505836D01*
X248547993Y-120505824D01*
X248345720Y-120303551D01*
X248345708Y-120303541D01*
X248116682Y-120132094D01*
X248116681Y-120132093D01*
X247865600Y-119994993D01*
X247752345Y-119952750D01*
X246249376Y-121455719D01*
X246162145Y-121316891D01*
X246034654Y-121189400D01*
X245895824Y-121102167D01*
X247174083Y-119823907D01*
X247104081Y-119818902D01*
X243961202Y-119818902D01*
X243891201Y-119823907D01*
X245169461Y-121102167D01*
X245030632Y-121189400D01*
X244903141Y-121316891D01*
X244815909Y-121455720D01*
X243312939Y-119952750D01*
X243312938Y-119952750D01*
X243199697Y-119994988D01*
X243199685Y-119994993D01*
X242948604Y-120132093D01*
X242948603Y-120132094D01*
X242719577Y-120303541D01*
X242719565Y-120303551D01*
X242517292Y-120505824D01*
X242517282Y-120505836D01*
X242345835Y-120734862D01*
X242345834Y-120734863D01*
X242208734Y-120985943D01*
X242108752Y-121254006D01*
X242047943Y-121533539D01*
X242027534Y-121818900D01*
X242027534Y-121818903D01*
X116702144Y-121818903D01*
X116758901Y-121742163D01*
X116863931Y-121533849D01*
X116932244Y-121310782D01*
X116961877Y-121079378D01*
X116951975Y-120846295D01*
X116902825Y-120618237D01*
X116815840Y-120401767D01*
X116693523Y-120203111D01*
X116539392Y-120027984D01*
X116539390Y-120027982D01*
X116539387Y-120027979D01*
X116357887Y-119881428D01*
X116357881Y-119881423D01*
X116154215Y-119767648D01*
X115934252Y-119689931D01*
X115934247Y-119689929D01*
X115934245Y-119689929D01*
X115934241Y-119689928D01*
X115934240Y-119689928D01*
X115704316Y-119650502D01*
X115704308Y-119650502D01*
X115079445Y-119650502D01*
X115079426Y-119650502D01*
X114905214Y-119665330D01*
X114905212Y-119665331D01*
X114679442Y-119724116D01*
X114466858Y-119820210D01*
X114273572Y-119950849D01*
X114273570Y-119950851D01*
X114105144Y-120112274D01*
X114105143Y-120112275D01*
X113966423Y-120299836D01*
X113861394Y-120508149D01*
X113861391Y-120508155D01*
X113793077Y-120731225D01*
X113763445Y-120962626D01*
X80361280Y-120962626D01*
X80403331Y-120851747D01*
X80423104Y-120688902D01*
X80403331Y-120526057D01*
X80345161Y-120372676D01*
X80251975Y-120237673D01*
X80251972Y-120237670D01*
X80251970Y-120237668D01*
X80129191Y-120128895D01*
X79983934Y-120052658D01*
X79824665Y-120013402D01*
X79824664Y-120013402D01*
X79660622Y-120013402D01*
X79660621Y-120013402D01*
X79501351Y-120052658D01*
X79356094Y-120128895D01*
X79233315Y-120237668D01*
X79233309Y-120237675D01*
X79140126Y-120372673D01*
X79081955Y-120526056D01*
X79081954Y-120526059D01*
X79062182Y-120688901D01*
X79062182Y-120688902D01*
X35493143Y-120688902D01*
X35493143Y-116888901D01*
X154537458Y-116888901D01*
X154556146Y-117066707D01*
X154556147Y-117066709D01*
X154611390Y-117236731D01*
X154611393Y-117236737D01*
X154700784Y-117391567D01*
X154742455Y-117437848D01*
X154820407Y-117524423D01*
X154820410Y-117524425D01*
X154820413Y-117524428D01*
X154965050Y-117629514D01*
X155128376Y-117702231D01*
X155303252Y-117739402D01*
X155303253Y-117739402D01*
X155482032Y-117739402D01*
X155482034Y-117739402D01*
X155656910Y-117702231D01*
X155820236Y-117629514D01*
X155964873Y-117524428D01*
X156084502Y-117391567D01*
X156173893Y-117236737D01*
X156229140Y-117066705D01*
X156247828Y-116888902D01*
X156232062Y-116738903D01*
X247107033Y-116738903D01*
X247127447Y-117024335D01*
X247188271Y-117303939D01*
X247188273Y-117303945D01*
X247188274Y-117303948D01*
X247270507Y-117524423D01*
X247288278Y-117572068D01*
X247425413Y-117823211D01*
X247425418Y-117823219D01*
X247596897Y-118052289D01*
X247596913Y-118052307D01*
X247799237Y-118254631D01*
X247799255Y-118254647D01*
X248028325Y-118426126D01*
X248028333Y-118426131D01*
X248279476Y-118563266D01*
X248279475Y-118563266D01*
X248279479Y-118563267D01*
X248279482Y-118563269D01*
X248547597Y-118663271D01*
X248547603Y-118663272D01*
X248547605Y-118663273D01*
X248827209Y-118724097D01*
X248827211Y-118724097D01*
X248827215Y-118724098D01*
X249041195Y-118739402D01*
X252184091Y-118739402D01*
X252398071Y-118724098D01*
X252677689Y-118663271D01*
X252945804Y-118563269D01*
X253196958Y-118426128D01*
X253426038Y-118254641D01*
X253628382Y-118052297D01*
X253799869Y-117823217D01*
X253937010Y-117572063D01*
X254037012Y-117303948D01*
X254088620Y-117066709D01*
X254097838Y-117024335D01*
X254097838Y-117024334D01*
X254097839Y-117024330D01*
X254118253Y-116738902D01*
X254097839Y-116453474D01*
X254054311Y-116253380D01*
X254037014Y-116173864D01*
X254037013Y-116173862D01*
X254037012Y-116173856D01*
X253937010Y-115905741D01*
X253799869Y-115654587D01*
X253799867Y-115654584D01*
X253628388Y-115425514D01*
X253628372Y-115425496D01*
X253426048Y-115223172D01*
X253426030Y-115223156D01*
X253196960Y-115051677D01*
X253196952Y-115051672D01*
X252945809Y-114914537D01*
X252945810Y-114914537D01*
X252838558Y-114874534D01*
X252677689Y-114814533D01*
X252677686Y-114814532D01*
X252677680Y-114814530D01*
X252398076Y-114753706D01*
X252184093Y-114738402D01*
X252184091Y-114738402D01*
X249041195Y-114738402D01*
X249041192Y-114738402D01*
X248827209Y-114753706D01*
X248547605Y-114814530D01*
X248279476Y-114914537D01*
X248028333Y-115051672D01*
X248028325Y-115051677D01*
X247799255Y-115223156D01*
X247799237Y-115223172D01*
X247596913Y-115425496D01*
X247596897Y-115425514D01*
X247425418Y-115654584D01*
X247425413Y-115654592D01*
X247288278Y-115905735D01*
X247188271Y-116173864D01*
X247127447Y-116453468D01*
X247107033Y-116738900D01*
X247107033Y-116738903D01*
X156232062Y-116738903D01*
X156229140Y-116711099D01*
X156173893Y-116541067D01*
X156084502Y-116386237D01*
X156037646Y-116334198D01*
X155964878Y-116253380D01*
X155964875Y-116253378D01*
X155964874Y-116253377D01*
X155964873Y-116253376D01*
X155820236Y-116148290D01*
X155656910Y-116075573D01*
X155656908Y-116075572D01*
X155529237Y-116048435D01*
X155482034Y-116038402D01*
X155303252Y-116038402D01*
X155272597Y-116044917D01*
X155128376Y-116075572D01*
X155128371Y-116075574D01*
X154965051Y-116148289D01*
X154820411Y-116253377D01*
X154700783Y-116386238D01*
X154611393Y-116541066D01*
X154611390Y-116541072D01*
X154556147Y-116711094D01*
X154556146Y-116711096D01*
X154537458Y-116888901D01*
X35493143Y-116888901D01*
X35493143Y-115419894D01*
X41025202Y-115419894D01*
X41143873Y-115483325D01*
X41329550Y-115539650D01*
X41522643Y-115558667D01*
X41715735Y-115539650D01*
X41901415Y-115483324D01*
X41901417Y-115483324D01*
X42020081Y-115419894D01*
X42020082Y-115419893D01*
X41522644Y-114922455D01*
X41522643Y-114922455D01*
X41025202Y-115419894D01*
X35493143Y-115419894D01*
X35493143Y-114568902D01*
X40532877Y-114568902D01*
X40551894Y-114761994D01*
X40608219Y-114947671D01*
X40671650Y-115066341D01*
X41144511Y-114593481D01*
X41288793Y-114593481D01*
X41319008Y-114686471D01*
X41384432Y-114759133D01*
X41473755Y-114798902D01*
X41546815Y-114798902D01*
X41618282Y-114783711D01*
X41697385Y-114726240D01*
X41746273Y-114641564D01*
X41753910Y-114568901D01*
X41876196Y-114568901D01*
X42373634Y-115066341D01*
X42373635Y-115066340D01*
X42437065Y-114947676D01*
X42437065Y-114947674D01*
X42493391Y-114761994D01*
X42512408Y-114568901D01*
X42493391Y-114375809D01*
X42437066Y-114190132D01*
X42373635Y-114071461D01*
X41876196Y-114568900D01*
X41876196Y-114568901D01*
X41753910Y-114568901D01*
X41756493Y-114544323D01*
X41726278Y-114451333D01*
X41660854Y-114378671D01*
X41571531Y-114338902D01*
X41498471Y-114338902D01*
X41427004Y-114354093D01*
X41347901Y-114411564D01*
X41299013Y-114496240D01*
X41288793Y-114593481D01*
X41144511Y-114593481D01*
X41169090Y-114568902D01*
X40671650Y-114071462D01*
X40608219Y-114190132D01*
X40551894Y-114375809D01*
X40532877Y-114568902D01*
X35493143Y-114568902D01*
X35493143Y-113717908D01*
X41025202Y-113717908D01*
X41522643Y-114215348D01*
X41522644Y-114215348D01*
X42020082Y-113717909D01*
X41901412Y-113654478D01*
X41715735Y-113598153D01*
X41522643Y-113579136D01*
X41329550Y-113598153D01*
X41143871Y-113654478D01*
X41025202Y-113717908D01*
X35493143Y-113717908D01*
X35493143Y-111766361D01*
X58230662Y-111766361D01*
X58251166Y-111935231D01*
X58251167Y-111935236D01*
X58311489Y-112094293D01*
X58331121Y-112122734D01*
X58408124Y-112234291D01*
X58501753Y-112317239D01*
X58535457Y-112347098D01*
X58678682Y-112422268D01*
X58686082Y-112426152D01*
X58851251Y-112466862D01*
X59021363Y-112466862D01*
X59186532Y-112426152D01*
X59267394Y-112383712D01*
X59337156Y-112347098D01*
X59337157Y-112347096D01*
X59337159Y-112347096D01*
X59464490Y-112234291D01*
X59561125Y-112094292D01*
X59621447Y-111935234D01*
X59639215Y-111788902D01*
X83336998Y-111788902D01*
X83357502Y-111957771D01*
X83357503Y-111957776D01*
X83417825Y-112116833D01*
X83460404Y-112178518D01*
X83514460Y-112256831D01*
X83616349Y-112347096D01*
X83641793Y-112369638D01*
X83789712Y-112447272D01*
X83792418Y-112448692D01*
X83957587Y-112489402D01*
X84127699Y-112489402D01*
X84292868Y-112448692D01*
X84372335Y-112406983D01*
X84443492Y-112369638D01*
X84443493Y-112369636D01*
X84443495Y-112369636D01*
X84570826Y-112256831D01*
X84667461Y-112116832D01*
X84727783Y-111957774D01*
X84744997Y-111816003D01*
X89047161Y-111816003D01*
X89047162Y-111816020D01*
X89057661Y-111918798D01*
X89057662Y-111918801D01*
X89112846Y-112085333D01*
X89112848Y-112085338D01*
X89135914Y-112122734D01*
X89204949Y-112234658D01*
X89329005Y-112358714D01*
X89478327Y-112450816D01*
X89644864Y-112506001D01*
X89747652Y-112516502D01*
X91087669Y-112516501D01*
X91190458Y-112506001D01*
X91356995Y-112450816D01*
X91506317Y-112358714D01*
X91630373Y-112234658D01*
X91722475Y-112085336D01*
X91722478Y-112085324D01*
X91723527Y-112083077D01*
X91724665Y-112081783D01*
X91726266Y-112079189D01*
X91726708Y-112079462D01*
X91769693Y-112030631D01*
X91836884Y-112011471D01*
X91903768Y-112031678D01*
X91925438Y-112049666D01*
X92048933Y-112178518D01*
X92048934Y-112178519D01*
X92236495Y-112317239D01*
X92236497Y-112317240D01*
X92236500Y-112317242D01*
X92444814Y-112422272D01*
X92667881Y-112490585D01*
X92899285Y-112520218D01*
X93132368Y-112510316D01*
X93360426Y-112461166D01*
X93576896Y-112374181D01*
X93775552Y-112251864D01*
X93950679Y-112097733D01*
X94097239Y-111916222D01*
X94130368Y-111856918D01*
X94211014Y-111712556D01*
X94240458Y-111629221D01*
X94288734Y-111492586D01*
X94328161Y-111262649D01*
X94328161Y-111229236D01*
X104547161Y-111229236D01*
X104561989Y-111403448D01*
X104561990Y-111403450D01*
X104620775Y-111629220D01*
X104682767Y-111766361D01*
X104716869Y-111841804D01*
X104847508Y-112035090D01*
X104919625Y-112110336D01*
X105008933Y-112203518D01*
X105008934Y-112203519D01*
X105196495Y-112342239D01*
X105196497Y-112342240D01*
X105196500Y-112342242D01*
X105404814Y-112447272D01*
X105627881Y-112515585D01*
X105859285Y-112545218D01*
X106092368Y-112535316D01*
X106320426Y-112486166D01*
X106536896Y-112399181D01*
X106735552Y-112276864D01*
X106910679Y-112122733D01*
X106942996Y-112082708D01*
X107000424Y-112042917D01*
X107070251Y-112040490D01*
X107130306Y-112076200D01*
X107151854Y-112108206D01*
X107152846Y-112110333D01*
X107152847Y-112110336D01*
X107244949Y-112259658D01*
X107369005Y-112383714D01*
X107518327Y-112475816D01*
X107684864Y-112531001D01*
X107787652Y-112541502D01*
X109127669Y-112541501D01*
X109230458Y-112531001D01*
X109396995Y-112475816D01*
X109546317Y-112383714D01*
X109670373Y-112259658D01*
X109762475Y-112110336D01*
X109817660Y-111943799D01*
X109828161Y-111841011D01*
X109828161Y-111658903D01*
X242027033Y-111658903D01*
X242047447Y-111944335D01*
X242108271Y-112223939D01*
X242108273Y-112223945D01*
X242108274Y-112223948D01*
X242207725Y-112490585D01*
X242208278Y-112492068D01*
X242345413Y-112743211D01*
X242345418Y-112743219D01*
X242516897Y-112972289D01*
X242516913Y-112972307D01*
X242719237Y-113174631D01*
X242719255Y-113174647D01*
X242948325Y-113346126D01*
X242948333Y-113346131D01*
X243199476Y-113483266D01*
X243199475Y-113483266D01*
X243199479Y-113483267D01*
X243199482Y-113483269D01*
X243467597Y-113583271D01*
X243467603Y-113583272D01*
X243467605Y-113583273D01*
X243747209Y-113644097D01*
X243747211Y-113644097D01*
X243747215Y-113644098D01*
X243961195Y-113659402D01*
X247104091Y-113659402D01*
X247318071Y-113644098D01*
X247529278Y-113598153D01*
X247597680Y-113583273D01*
X247597680Y-113583272D01*
X247597689Y-113583271D01*
X247865804Y-113483269D01*
X248116958Y-113346128D01*
X248346038Y-113174641D01*
X248548382Y-112972297D01*
X248719869Y-112743217D01*
X248857010Y-112492063D01*
X248957012Y-112223948D01*
X248985217Y-112094292D01*
X249017838Y-111944335D01*
X249017838Y-111944334D01*
X249017839Y-111944330D01*
X249038253Y-111658902D01*
X249017839Y-111373474D01*
X249006418Y-111320974D01*
X248957014Y-111093864D01*
X248957013Y-111093862D01*
X248957012Y-111093856D01*
X248857010Y-110825741D01*
X248754378Y-110637786D01*
X248719872Y-110574592D01*
X248719867Y-110574584D01*
X248548388Y-110345514D01*
X248548372Y-110345496D01*
X248346048Y-110143172D01*
X248346030Y-110143156D01*
X248116960Y-109971677D01*
X248116952Y-109971672D01*
X247865809Y-109834537D01*
X247865810Y-109834537D01*
X247724054Y-109781665D01*
X247597689Y-109734533D01*
X247597686Y-109734532D01*
X247597680Y-109734530D01*
X247318076Y-109673706D01*
X247104093Y-109658402D01*
X247104091Y-109658402D01*
X243961195Y-109658402D01*
X243961192Y-109658402D01*
X243747209Y-109673706D01*
X243467605Y-109734530D01*
X243199476Y-109834537D01*
X242948333Y-109971672D01*
X242948325Y-109971677D01*
X242719255Y-110143156D01*
X242719237Y-110143172D01*
X242516913Y-110345496D01*
X242516897Y-110345514D01*
X242345418Y-110574584D01*
X242345413Y-110574592D01*
X242208278Y-110825735D01*
X242108271Y-111093864D01*
X242047447Y-111373468D01*
X242027033Y-111658900D01*
X242027033Y-111658903D01*
X109828161Y-111658903D01*
X109828160Y-110050994D01*
X109817660Y-109948205D01*
X109762475Y-109781668D01*
X109670373Y-109632346D01*
X109546317Y-109508290D01*
X109443277Y-109444735D01*
X109396997Y-109416189D01*
X109396992Y-109416187D01*
X109395523Y-109415700D01*
X109230458Y-109361003D01*
X109230456Y-109361002D01*
X109127671Y-109350502D01*
X107787659Y-109350502D01*
X107787642Y-109350503D01*
X107684864Y-109361002D01*
X107684861Y-109361003D01*
X107518329Y-109416187D01*
X107518324Y-109416189D01*
X107369003Y-109508291D01*
X107244950Y-109632344D01*
X107152847Y-109781668D01*
X107151787Y-109783942D01*
X107150644Y-109785239D01*
X107149056Y-109787815D01*
X107148615Y-109787543D01*
X107105614Y-109836381D01*
X107038420Y-109855532D01*
X106971539Y-109835316D01*
X106949883Y-109817337D01*
X106826388Y-109688485D01*
X106826387Y-109688484D01*
X106638826Y-109549764D01*
X106631783Y-109546213D01*
X106430508Y-109444732D01*
X106207441Y-109376419D01*
X106207439Y-109376418D01*
X106207437Y-109376418D01*
X105976031Y-109346785D01*
X105742960Y-109356687D01*
X105742951Y-109356688D01*
X105514894Y-109405838D01*
X105514891Y-109405839D01*
X105298429Y-109492821D01*
X105099771Y-109615139D01*
X104924641Y-109769272D01*
X104924638Y-109769275D01*
X104778087Y-109950775D01*
X104778082Y-109950781D01*
X104664307Y-110154447D01*
X104586590Y-110374410D01*
X104586587Y-110374422D01*
X104547161Y-110604346D01*
X104547161Y-111229236D01*
X94328161Y-111229236D01*
X94328161Y-110637786D01*
X94328160Y-110637767D01*
X94313332Y-110463555D01*
X94313331Y-110463553D01*
X94313331Y-110463549D01*
X94254546Y-110237783D01*
X94158453Y-110025200D01*
X94027814Y-109831914D01*
X93866389Y-109663486D01*
X93866388Y-109663485D01*
X93866387Y-109663484D01*
X93678826Y-109524764D01*
X93596567Y-109483290D01*
X93470508Y-109419732D01*
X93247441Y-109351419D01*
X93247439Y-109351418D01*
X93247437Y-109351418D01*
X93016031Y-109321785D01*
X92782960Y-109331687D01*
X92782951Y-109331688D01*
X92554894Y-109380838D01*
X92554891Y-109380839D01*
X92338429Y-109467821D01*
X92139771Y-109590139D01*
X91964642Y-109744271D01*
X91932326Y-109784294D01*
X91874894Y-109824087D01*
X91805067Y-109826512D01*
X91745013Y-109790801D01*
X91723464Y-109758791D01*
X91722476Y-109756672D01*
X91722475Y-109756668D01*
X91630373Y-109607346D01*
X91506317Y-109483290D01*
X91403277Y-109419735D01*
X91356997Y-109391189D01*
X91356992Y-109391187D01*
X91355523Y-109390700D01*
X91190458Y-109336003D01*
X91190456Y-109336002D01*
X91087671Y-109325502D01*
X89747659Y-109325502D01*
X89747642Y-109325503D01*
X89644864Y-109336002D01*
X89644861Y-109336003D01*
X89478329Y-109391187D01*
X89478324Y-109391189D01*
X89329003Y-109483291D01*
X89204950Y-109607344D01*
X89112848Y-109756665D01*
X89112846Y-109756670D01*
X89089703Y-109826512D01*
X89057662Y-109923205D01*
X89057662Y-109923206D01*
X89057661Y-109923206D01*
X89047161Y-110025985D01*
X89047161Y-111816003D01*
X84744997Y-111816003D01*
X84748288Y-111788902D01*
X84727783Y-111620030D01*
X84667461Y-111460972D01*
X84570826Y-111320973D01*
X84443495Y-111208168D01*
X84443492Y-111208165D01*
X84292869Y-111129112D01*
X84127699Y-111088402D01*
X83957587Y-111088402D01*
X83792416Y-111129112D01*
X83641793Y-111208165D01*
X83514459Y-111320974D01*
X83417825Y-111460970D01*
X83357503Y-111620027D01*
X83357502Y-111620032D01*
X83336998Y-111788902D01*
X59639215Y-111788902D01*
X59641952Y-111766362D01*
X59621447Y-111597490D01*
X59561125Y-111438432D01*
X59464490Y-111298433D01*
X59369623Y-111214388D01*
X59337156Y-111185625D01*
X59186533Y-111106572D01*
X59021363Y-111065862D01*
X58851251Y-111065862D01*
X58686080Y-111106572D01*
X58535457Y-111185625D01*
X58408123Y-111298434D01*
X58311489Y-111438430D01*
X58251167Y-111597487D01*
X58251166Y-111597492D01*
X58230662Y-111766361D01*
X35493143Y-111766361D01*
X35493143Y-108588901D01*
X130887458Y-108588901D01*
X130906146Y-108766707D01*
X130906147Y-108766709D01*
X130961390Y-108936731D01*
X130961393Y-108936737D01*
X131050784Y-109091567D01*
X131092455Y-109137848D01*
X131170407Y-109224423D01*
X131170410Y-109224425D01*
X131170413Y-109224428D01*
X131315050Y-109329514D01*
X131478376Y-109402231D01*
X131653252Y-109439402D01*
X131653253Y-109439402D01*
X131832032Y-109439402D01*
X131832034Y-109439402D01*
X132006910Y-109402231D01*
X132170236Y-109329514D01*
X132314873Y-109224428D01*
X132434502Y-109091567D01*
X132523893Y-108936737D01*
X132579140Y-108766705D01*
X132597828Y-108588902D01*
X132579140Y-108411099D01*
X132523893Y-108241067D01*
X132434502Y-108086237D01*
X132387646Y-108034198D01*
X132314878Y-107953380D01*
X132314875Y-107953378D01*
X132314874Y-107953377D01*
X132314873Y-107953376D01*
X132170236Y-107848290D01*
X132006910Y-107775573D01*
X132006908Y-107775572D01*
X131879237Y-107748435D01*
X131832034Y-107738402D01*
X131653252Y-107738402D01*
X131622597Y-107744917D01*
X131478376Y-107775572D01*
X131478371Y-107775574D01*
X131315051Y-107848289D01*
X131170411Y-107953377D01*
X131050783Y-108086238D01*
X130961393Y-108241066D01*
X130961390Y-108241072D01*
X130906147Y-108411094D01*
X130906146Y-108411096D01*
X130887458Y-108588901D01*
X35493143Y-108588901D01*
X35493143Y-106659894D01*
X41025202Y-106659894D01*
X41143873Y-106723325D01*
X41329550Y-106779650D01*
X41522643Y-106798667D01*
X41715735Y-106779650D01*
X41901415Y-106723324D01*
X41901417Y-106723324D01*
X41952650Y-106695938D01*
X54433309Y-106695938D01*
X54453813Y-106864807D01*
X54453814Y-106864812D01*
X54514136Y-107023869D01*
X54576429Y-107114115D01*
X54610771Y-107163867D01*
X54716459Y-107257498D01*
X54738104Y-107276674D01*
X54888727Y-107355727D01*
X54888729Y-107355728D01*
X55053898Y-107396438D01*
X55224010Y-107396438D01*
X55389179Y-107355728D01*
X55468646Y-107314019D01*
X55539803Y-107276674D01*
X55539804Y-107276672D01*
X55539806Y-107276672D01*
X55667137Y-107163867D01*
X55763772Y-107023868D01*
X55824094Y-106864810D01*
X55844599Y-106695938D01*
X55830388Y-106578903D01*
X247107033Y-106578903D01*
X247127447Y-106864335D01*
X247188271Y-107143939D01*
X247188273Y-107143945D01*
X247188274Y-107143948D01*
X247267264Y-107355727D01*
X247288278Y-107412068D01*
X247425413Y-107663211D01*
X247425418Y-107663219D01*
X247596897Y-107892289D01*
X247596913Y-107892307D01*
X247799237Y-108094631D01*
X247799255Y-108094647D01*
X248028325Y-108266126D01*
X248028333Y-108266131D01*
X248279476Y-108403266D01*
X248279475Y-108403266D01*
X248279479Y-108403267D01*
X248279482Y-108403269D01*
X248547597Y-108503271D01*
X248547603Y-108503272D01*
X248547605Y-108503273D01*
X248827209Y-108564097D01*
X248827211Y-108564097D01*
X248827215Y-108564098D01*
X249041195Y-108579402D01*
X252184091Y-108579402D01*
X252398071Y-108564098D01*
X252677689Y-108503271D01*
X252945804Y-108403269D01*
X253196958Y-108266128D01*
X253426038Y-108094641D01*
X253628382Y-107892297D01*
X253799869Y-107663217D01*
X253937010Y-107412063D01*
X254037012Y-107143948D01*
X254097839Y-106864330D01*
X254118253Y-106578902D01*
X254097839Y-106293474D01*
X254083598Y-106228010D01*
X254037014Y-106013864D01*
X254037013Y-106013862D01*
X254037012Y-106013856D01*
X253937010Y-105745741D01*
X253885585Y-105651564D01*
X253799872Y-105494592D01*
X253799867Y-105494584D01*
X253628388Y-105265514D01*
X253628372Y-105265496D01*
X253426048Y-105063172D01*
X253426030Y-105063156D01*
X253196960Y-104891677D01*
X253196952Y-104891672D01*
X252945809Y-104754537D01*
X252945810Y-104754537D01*
X252838557Y-104714534D01*
X252677689Y-104654533D01*
X252677686Y-104654532D01*
X252677680Y-104654530D01*
X252398076Y-104593706D01*
X252184093Y-104578402D01*
X252184091Y-104578402D01*
X249041195Y-104578402D01*
X249041192Y-104578402D01*
X248827209Y-104593706D01*
X248547605Y-104654530D01*
X248279476Y-104754537D01*
X248028333Y-104891672D01*
X248028325Y-104891677D01*
X247799255Y-105063156D01*
X247799237Y-105063172D01*
X247596913Y-105265496D01*
X247596897Y-105265514D01*
X247425418Y-105494584D01*
X247425413Y-105494592D01*
X247288278Y-105745735D01*
X247188271Y-106013864D01*
X247127447Y-106293468D01*
X247107033Y-106578900D01*
X247107033Y-106578903D01*
X55830388Y-106578903D01*
X55824094Y-106527066D01*
X55763772Y-106368008D01*
X55667137Y-106228009D01*
X55539806Y-106115204D01*
X55539803Y-106115201D01*
X55389180Y-106036148D01*
X55224010Y-105995438D01*
X55053898Y-105995438D01*
X54888727Y-106036148D01*
X54738104Y-106115201D01*
X54610770Y-106228010D01*
X54514136Y-106368006D01*
X54453814Y-106527063D01*
X54453813Y-106527068D01*
X54433309Y-106695938D01*
X41952650Y-106695938D01*
X42020081Y-106659894D01*
X42020082Y-106659893D01*
X41522644Y-106162455D01*
X41522643Y-106162455D01*
X41025202Y-106659894D01*
X35493143Y-106659894D01*
X35493143Y-105808902D01*
X40532877Y-105808902D01*
X40551894Y-106001994D01*
X40608219Y-106187671D01*
X40671650Y-106306341D01*
X41144511Y-105833481D01*
X41288793Y-105833481D01*
X41319008Y-105926471D01*
X41384432Y-105999133D01*
X41473755Y-106038902D01*
X41546815Y-106038902D01*
X41618282Y-106023711D01*
X41697385Y-105966240D01*
X41746273Y-105881564D01*
X41753910Y-105808902D01*
X41876196Y-105808902D01*
X42373635Y-106306341D01*
X42373635Y-106306340D01*
X42437065Y-106187676D01*
X42437065Y-106187674D01*
X42493391Y-106001994D01*
X42512408Y-105808901D01*
X42493391Y-105615809D01*
X42437066Y-105430132D01*
X42373635Y-105311461D01*
X41876196Y-105808901D01*
X41876196Y-105808902D01*
X41753910Y-105808902D01*
X41756493Y-105784323D01*
X41726278Y-105691333D01*
X41660854Y-105618671D01*
X41571531Y-105578902D01*
X41498471Y-105578902D01*
X41427004Y-105594093D01*
X41347901Y-105651564D01*
X41299013Y-105736240D01*
X41288793Y-105833481D01*
X41144511Y-105833481D01*
X41169090Y-105808902D01*
X40671650Y-105311462D01*
X40608219Y-105430132D01*
X40551894Y-105615809D01*
X40532877Y-105808902D01*
X35493143Y-105808902D01*
X35493143Y-104957909D01*
X41025203Y-104957909D01*
X41522643Y-105455349D01*
X41522644Y-105455349D01*
X42020082Y-104957909D01*
X41901412Y-104894478D01*
X41715735Y-104838153D01*
X41522643Y-104819136D01*
X41329550Y-104838153D01*
X41143873Y-104894478D01*
X41025203Y-104957909D01*
X35493143Y-104957909D01*
X35493143Y-99960526D01*
X68413427Y-99960526D01*
X68423328Y-100193602D01*
X68423329Y-100193611D01*
X68472479Y-100421668D01*
X68472480Y-100421671D01*
X68559462Y-100638133D01*
X68559464Y-100638137D01*
X68681781Y-100836793D01*
X68835912Y-101011920D01*
X68875934Y-101044236D01*
X68915727Y-101101666D01*
X68918154Y-101171494D01*
X68882443Y-101231548D01*
X68850443Y-101253093D01*
X68848311Y-101254087D01*
X68698985Y-101346191D01*
X68574932Y-101470244D01*
X68482830Y-101619565D01*
X68482828Y-101619568D01*
X68482829Y-101619568D01*
X68427644Y-101786105D01*
X68427644Y-101786106D01*
X68427643Y-101786106D01*
X68417143Y-101888885D01*
X68417143Y-103228903D01*
X68417144Y-103228920D01*
X68427643Y-103331698D01*
X68427644Y-103331701D01*
X68482828Y-103498233D01*
X68482830Y-103498238D01*
X68483548Y-103499402D01*
X68574931Y-103647558D01*
X68698987Y-103771614D01*
X68848309Y-103863716D01*
X69014846Y-103918901D01*
X69117634Y-103929402D01*
X70907651Y-103929401D01*
X71010440Y-103918901D01*
X71176977Y-103863716D01*
X71326299Y-103771614D01*
X71450355Y-103647558D01*
X71542457Y-103498236D01*
X71597642Y-103331699D01*
X71608143Y-103228911D01*
X71608142Y-101888894D01*
X71597642Y-101786105D01*
X71542457Y-101619568D01*
X71468031Y-101498903D01*
X242027033Y-101498903D01*
X242047447Y-101784335D01*
X242108271Y-102063939D01*
X242208278Y-102332068D01*
X242345413Y-102583211D01*
X242345418Y-102583219D01*
X242516897Y-102812289D01*
X242516913Y-102812307D01*
X242719237Y-103014631D01*
X242719255Y-103014647D01*
X242948325Y-103186126D01*
X242948333Y-103186131D01*
X243199476Y-103323266D01*
X243199475Y-103323266D01*
X243199479Y-103323267D01*
X243199482Y-103323269D01*
X243467597Y-103423271D01*
X243467603Y-103423272D01*
X243467605Y-103423273D01*
X243747209Y-103484097D01*
X243747211Y-103484097D01*
X243747215Y-103484098D01*
X243961195Y-103499402D01*
X247104091Y-103499402D01*
X247318071Y-103484098D01*
X247597689Y-103423271D01*
X247865804Y-103323269D01*
X248116958Y-103186128D01*
X248346038Y-103014641D01*
X248548382Y-102812297D01*
X248719869Y-102583217D01*
X248857010Y-102332063D01*
X248957012Y-102063948D01*
X249017839Y-101784330D01*
X249038253Y-101498902D01*
X249017839Y-101213474D01*
X249014669Y-101198903D01*
X248957014Y-100933864D01*
X248957013Y-100933862D01*
X248957012Y-100933856D01*
X248857010Y-100665741D01*
X248783847Y-100531754D01*
X248719872Y-100414592D01*
X248719867Y-100414584D01*
X248548388Y-100185514D01*
X248548372Y-100185496D01*
X248346048Y-99983172D01*
X248346030Y-99983156D01*
X248116960Y-99811677D01*
X248116952Y-99811672D01*
X247865809Y-99674537D01*
X247865810Y-99674537D01*
X247709220Y-99616132D01*
X247597689Y-99574533D01*
X247597686Y-99574532D01*
X247597680Y-99574530D01*
X247318076Y-99513706D01*
X247104093Y-99498402D01*
X247104091Y-99498402D01*
X243961195Y-99498402D01*
X243961192Y-99498402D01*
X243747209Y-99513706D01*
X243467605Y-99574530D01*
X243199476Y-99674537D01*
X242948333Y-99811672D01*
X242948325Y-99811677D01*
X242719255Y-99983156D01*
X242719237Y-99983172D01*
X242516913Y-100185496D01*
X242516897Y-100185514D01*
X242345418Y-100414584D01*
X242345413Y-100414592D01*
X242208278Y-100665735D01*
X242108271Y-100933864D01*
X242047447Y-101213468D01*
X242027033Y-101498900D01*
X242027033Y-101498903D01*
X71468031Y-101498903D01*
X71450355Y-101470246D01*
X71326299Y-101346190D01*
X71176977Y-101254088D01*
X71176969Y-101254083D01*
X71174701Y-101253026D01*
X71173406Y-101251886D01*
X71170830Y-101250297D01*
X71171101Y-101249856D01*
X71122262Y-101206853D01*
X71103111Y-101139659D01*
X71123328Y-101072778D01*
X71141296Y-101051134D01*
X71270159Y-100927630D01*
X71408883Y-100740063D01*
X71513913Y-100531749D01*
X71582226Y-100308682D01*
X71611859Y-100077278D01*
X71611030Y-100057774D01*
X71603856Y-99888901D01*
X95186998Y-99888901D01*
X95207502Y-100057771D01*
X95207503Y-100057776D01*
X95267825Y-100216833D01*
X95330118Y-100307079D01*
X95364460Y-100356831D01*
X95437650Y-100421671D01*
X95491793Y-100469638D01*
X95642416Y-100548691D01*
X95642418Y-100548692D01*
X95807587Y-100589402D01*
X95977699Y-100589402D01*
X96142868Y-100548692D01*
X96222335Y-100506983D01*
X96293492Y-100469638D01*
X96293493Y-100469636D01*
X96293495Y-100469636D01*
X96420826Y-100356831D01*
X96517461Y-100216832D01*
X96577783Y-100057774D01*
X96598288Y-99888902D01*
X96577783Y-99720030D01*
X96517461Y-99560972D01*
X96420826Y-99420973D01*
X96293495Y-99308168D01*
X96293492Y-99308165D01*
X96142869Y-99229112D01*
X95977699Y-99188402D01*
X95807587Y-99188402D01*
X95642416Y-99229112D01*
X95491793Y-99308165D01*
X95364459Y-99420974D01*
X95267825Y-99560970D01*
X95207503Y-99720027D01*
X95207502Y-99720032D01*
X95186998Y-99888901D01*
X71603856Y-99888901D01*
X71601957Y-99844201D01*
X71601957Y-99844195D01*
X71552807Y-99616137D01*
X71465822Y-99399667D01*
X71343505Y-99201011D01*
X71189374Y-99025884D01*
X71189372Y-99025882D01*
X71189369Y-99025879D01*
X71007869Y-98879328D01*
X71007863Y-98879323D01*
X70804197Y-98765548D01*
X70584234Y-98687831D01*
X70584229Y-98687829D01*
X70584227Y-98687829D01*
X70584223Y-98687828D01*
X70584222Y-98687828D01*
X70354298Y-98648402D01*
X70354290Y-98648402D01*
X69729427Y-98648402D01*
X69729408Y-98648402D01*
X69555196Y-98663230D01*
X69555194Y-98663231D01*
X69329424Y-98722016D01*
X69116840Y-98818110D01*
X68923554Y-98948749D01*
X68923552Y-98948751D01*
X68755126Y-99110174D01*
X68755125Y-99110175D01*
X68616405Y-99297736D01*
X68511376Y-99506049D01*
X68511373Y-99506055D01*
X68443059Y-99729125D01*
X68413427Y-99960526D01*
X35493143Y-99960526D01*
X35493143Y-98143903D01*
X101952481Y-98143903D01*
X101971093Y-98356643D01*
X101971095Y-98356654D01*
X102026364Y-98562924D01*
X102026366Y-98562928D01*
X102026367Y-98562932D01*
X102066223Y-98648402D01*
X102116620Y-98756480D01*
X102239115Y-98931423D01*
X102390121Y-99082429D01*
X102390124Y-99082431D01*
X102565062Y-99204923D01*
X102565064Y-99204924D01*
X102565063Y-99204924D01*
X102616935Y-99229112D01*
X102758613Y-99295178D01*
X102758619Y-99295179D01*
X102758620Y-99295180D01*
X102768178Y-99297741D01*
X102964896Y-99350451D01*
X103116858Y-99363745D01*
X103177641Y-99369064D01*
X103177643Y-99369064D01*
X103177645Y-99369064D01*
X103230829Y-99364410D01*
X103390390Y-99350451D01*
X103596673Y-99295178D01*
X103790224Y-99204923D01*
X103965162Y-99082431D01*
X104116172Y-98931421D01*
X104238664Y-98756483D01*
X104328919Y-98562932D01*
X104328923Y-98562915D01*
X104330773Y-98557838D01*
X104332896Y-98558611D01*
X104364219Y-98507207D01*
X104427062Y-98476668D01*
X104496439Y-98484952D01*
X104550323Y-98529430D01*
X104563470Y-98558217D01*
X104564513Y-98557838D01*
X104566365Y-98562924D01*
X104566367Y-98562932D01*
X104606223Y-98648402D01*
X104656620Y-98756480D01*
X104779115Y-98931423D01*
X104930121Y-99082429D01*
X104930124Y-99082431D01*
X105105062Y-99204923D01*
X105105064Y-99204924D01*
X105105063Y-99204924D01*
X105156935Y-99229112D01*
X105298613Y-99295178D01*
X105298619Y-99295179D01*
X105298620Y-99295180D01*
X105308178Y-99297741D01*
X105504896Y-99350451D01*
X105656858Y-99363746D01*
X105717641Y-99369064D01*
X105717643Y-99369064D01*
X105717645Y-99369064D01*
X105770829Y-99364410D01*
X105930390Y-99350451D01*
X106136673Y-99295178D01*
X106330224Y-99204923D01*
X106505162Y-99082431D01*
X106656172Y-98931421D01*
X106778664Y-98756483D01*
X106868919Y-98562932D01*
X106868923Y-98562915D01*
X106870773Y-98557838D01*
X106872896Y-98558611D01*
X106904219Y-98507207D01*
X106967062Y-98476668D01*
X107036439Y-98484952D01*
X107090323Y-98529430D01*
X107103470Y-98558217D01*
X107104513Y-98557838D01*
X107106365Y-98562924D01*
X107106367Y-98562932D01*
X107146223Y-98648402D01*
X107196620Y-98756480D01*
X107319115Y-98931423D01*
X107470121Y-99082429D01*
X107470124Y-99082431D01*
X107645062Y-99204923D01*
X107645064Y-99204924D01*
X107645063Y-99204924D01*
X107696935Y-99229112D01*
X107838613Y-99295178D01*
X107838619Y-99295179D01*
X107838620Y-99295180D01*
X107848178Y-99297741D01*
X108044896Y-99350451D01*
X108196858Y-99363745D01*
X108257641Y-99369064D01*
X108257643Y-99369064D01*
X108257645Y-99369064D01*
X108310829Y-99364410D01*
X108470390Y-99350451D01*
X108676673Y-99295178D01*
X108870224Y-99204923D01*
X109045162Y-99082431D01*
X109196172Y-98931421D01*
X109318664Y-98756483D01*
X109408919Y-98562932D01*
X109464192Y-98356649D01*
X109482805Y-98143902D01*
X109464192Y-97931155D01*
X109408919Y-97724872D01*
X109318664Y-97531321D01*
X109196172Y-97356383D01*
X109196170Y-97356380D01*
X109045164Y-97205374D01*
X108870221Y-97082879D01*
X108870222Y-97082879D01*
X108741190Y-97022711D01*
X108676673Y-96992626D01*
X108676669Y-96992625D01*
X108676665Y-96992623D01*
X108470395Y-96937354D01*
X108470391Y-96937353D01*
X108470390Y-96937353D01*
X108470389Y-96937352D01*
X108470384Y-96937352D01*
X108257645Y-96918740D01*
X108257641Y-96918740D01*
X108044901Y-96937352D01*
X108044890Y-96937354D01*
X107838620Y-96992623D01*
X107838611Y-96992627D01*
X107645064Y-97082879D01*
X107470121Y-97205374D01*
X107319115Y-97356380D01*
X107196620Y-97531323D01*
X107106368Y-97724870D01*
X107104513Y-97729966D01*
X107102392Y-97729194D01*
X107071049Y-97780612D01*
X107008201Y-97811139D01*
X106938826Y-97802841D01*
X106884950Y-97758354D01*
X106871812Y-97729587D01*
X106870773Y-97729966D01*
X106868922Y-97724885D01*
X106868919Y-97724872D01*
X106778664Y-97531321D01*
X106656172Y-97356383D01*
X106656170Y-97356380D01*
X106505164Y-97205374D01*
X106330221Y-97082879D01*
X106330222Y-97082879D01*
X106201190Y-97022711D01*
X106136673Y-96992626D01*
X106136669Y-96992625D01*
X106136665Y-96992623D01*
X105930395Y-96937354D01*
X105930391Y-96937353D01*
X105930390Y-96937353D01*
X105930389Y-96937352D01*
X105930384Y-96937352D01*
X105717645Y-96918740D01*
X105717641Y-96918740D01*
X105504901Y-96937352D01*
X105504890Y-96937354D01*
X105298620Y-96992623D01*
X105298611Y-96992627D01*
X105105064Y-97082879D01*
X104930121Y-97205374D01*
X104779115Y-97356380D01*
X104656620Y-97531323D01*
X104566368Y-97724870D01*
X104564513Y-97729966D01*
X104562392Y-97729194D01*
X104531049Y-97780612D01*
X104468201Y-97811139D01*
X104398826Y-97802841D01*
X104344950Y-97758354D01*
X104331812Y-97729587D01*
X104330773Y-97729966D01*
X104328922Y-97724885D01*
X104328919Y-97724872D01*
X104238664Y-97531321D01*
X104116172Y-97356383D01*
X104116170Y-97356380D01*
X103965164Y-97205374D01*
X103790221Y-97082879D01*
X103790222Y-97082879D01*
X103661190Y-97022711D01*
X103596673Y-96992626D01*
X103596669Y-96992625D01*
X103596665Y-96992623D01*
X103390395Y-96937354D01*
X103390391Y-96937353D01*
X103390390Y-96937353D01*
X103390389Y-96937352D01*
X103390384Y-96937352D01*
X103177645Y-96918740D01*
X103177641Y-96918740D01*
X102964901Y-96937352D01*
X102964890Y-96937354D01*
X102758620Y-96992623D01*
X102758611Y-96992627D01*
X102565064Y-97082879D01*
X102390121Y-97205374D01*
X102239115Y-97356380D01*
X102116620Y-97531323D01*
X102026368Y-97724870D01*
X102026364Y-97724879D01*
X101971095Y-97931149D01*
X101971093Y-97931160D01*
X101952481Y-98143900D01*
X101952481Y-98143903D01*
X35493143Y-98143903D01*
X35493143Y-96418903D01*
X247107534Y-96418903D01*
X247127943Y-96704264D01*
X247188752Y-96983797D01*
X247288734Y-97251860D01*
X247425834Y-97502940D01*
X247425835Y-97502941D01*
X247597282Y-97731967D01*
X247597292Y-97731979D01*
X247799565Y-97934252D01*
X247799577Y-97934262D01*
X248028603Y-98105709D01*
X248028604Y-98105710D01*
X248279685Y-98242810D01*
X248279684Y-98242810D01*
X248392939Y-98285051D01*
X249895908Y-96782083D01*
X249983141Y-96920913D01*
X250110632Y-97048404D01*
X250249461Y-97135636D01*
X248971201Y-98413894D01*
X248971202Y-98413895D01*
X249041206Y-98418901D01*
X249041209Y-98418902D01*
X252184077Y-98418902D01*
X252184079Y-98418901D01*
X252254082Y-98413895D01*
X252254083Y-98413894D01*
X250975824Y-97135636D01*
X251114654Y-97048404D01*
X251242145Y-96920913D01*
X251329377Y-96782083D01*
X252832344Y-98285051D01*
X252945603Y-98242809D01*
X253196681Y-98105710D01*
X253196682Y-98105709D01*
X253425708Y-97934262D01*
X253425720Y-97934252D01*
X253627993Y-97731979D01*
X253628003Y-97731967D01*
X253799450Y-97502941D01*
X253799451Y-97502940D01*
X253936551Y-97251860D01*
X254036533Y-96983797D01*
X254097342Y-96704264D01*
X254117752Y-96418903D01*
X254117752Y-96418900D01*
X254097342Y-96133539D01*
X254036533Y-95854006D01*
X253936551Y-95585943D01*
X253799451Y-95334863D01*
X253799450Y-95334862D01*
X253628003Y-95105836D01*
X253627993Y-95105824D01*
X253425720Y-94903551D01*
X253425708Y-94903541D01*
X253196682Y-94732094D01*
X253196681Y-94732093D01*
X252945600Y-94594993D01*
X252832345Y-94552750D01*
X251329376Y-96055719D01*
X251242145Y-95916891D01*
X251114654Y-95789400D01*
X250975824Y-95702167D01*
X252254083Y-94423907D01*
X252184081Y-94418902D01*
X249041202Y-94418902D01*
X248971201Y-94423907D01*
X250249461Y-95702167D01*
X250110632Y-95789400D01*
X249983141Y-95916891D01*
X249895909Y-96055720D01*
X248392939Y-94552750D01*
X248392938Y-94552750D01*
X248279697Y-94594988D01*
X248279685Y-94594993D01*
X248028604Y-94732093D01*
X248028603Y-94732094D01*
X247799577Y-94903541D01*
X247799565Y-94903551D01*
X247597292Y-95105824D01*
X247597282Y-95105836D01*
X247425835Y-95334862D01*
X247425834Y-95334863D01*
X247288734Y-95585943D01*
X247188752Y-95854006D01*
X247127943Y-96133539D01*
X247107534Y-96418900D01*
X247107534Y-96418903D01*
X35493143Y-96418903D01*
X35493143Y-95688902D01*
X71912182Y-95688902D01*
X71931954Y-95851744D01*
X71931955Y-95851747D01*
X71990126Y-96005130D01*
X72034596Y-96069555D01*
X72083311Y-96140131D01*
X72083313Y-96140133D01*
X72083315Y-96140135D01*
X72206094Y-96248908D01*
X72206095Y-96248908D01*
X72206097Y-96248910D01*
X72351348Y-96325144D01*
X72351350Y-96325144D01*
X72351351Y-96325145D01*
X72510621Y-96364402D01*
X72510622Y-96364402D01*
X72674665Y-96364402D01*
X72833934Y-96325145D01*
X72833934Y-96325144D01*
X72833938Y-96325144D01*
X72979189Y-96248910D01*
X73101975Y-96140131D01*
X73195161Y-96005128D01*
X73253331Y-95851747D01*
X73273104Y-95688902D01*
X73253331Y-95526057D01*
X73195161Y-95372676D01*
X73101975Y-95237673D01*
X73101972Y-95237670D01*
X73101970Y-95237668D01*
X72979191Y-95128895D01*
X72833934Y-95052658D01*
X72674665Y-95013402D01*
X72674664Y-95013402D01*
X72510622Y-95013402D01*
X72510621Y-95013402D01*
X72351351Y-95052658D01*
X72206094Y-95128895D01*
X72083315Y-95237668D01*
X72083309Y-95237675D01*
X71990126Y-95372673D01*
X71931955Y-95526056D01*
X71931954Y-95526059D01*
X71912182Y-95688901D01*
X71912182Y-95688902D01*
X35493143Y-95688902D01*
X35493143Y-93442457D01*
X51277983Y-93442457D01*
X51296587Y-93655109D01*
X51296588Y-93655117D01*
X51351837Y-93861308D01*
X51351840Y-93861314D01*
X51442055Y-94054783D01*
X51442056Y-94054785D01*
X51481058Y-94110485D01*
X51481058Y-94110486D01*
X52104689Y-93486855D01*
X52117478Y-93567603D01*
X52175002Y-93680500D01*
X52264598Y-93770096D01*
X52377495Y-93827620D01*
X52458242Y-93840408D01*
X51834610Y-94464038D01*
X51890313Y-94503041D01*
X52083783Y-94593257D01*
X52083789Y-94593260D01*
X52289980Y-94648509D01*
X52289988Y-94648510D01*
X52502641Y-94667115D01*
X52502645Y-94667115D01*
X52715297Y-94648510D01*
X52715305Y-94648509D01*
X52921496Y-94593260D01*
X52921502Y-94593257D01*
X53114973Y-94503041D01*
X53114979Y-94503037D01*
X53170674Y-94464039D01*
X52547044Y-93840408D01*
X52627791Y-93827620D01*
X52740688Y-93770096D01*
X52830284Y-93680500D01*
X52887808Y-93567603D01*
X52900596Y-93486855D01*
X53524227Y-94110486D01*
X53563225Y-94054791D01*
X53563229Y-94054785D01*
X53653445Y-93861314D01*
X53655301Y-93856219D01*
X53657210Y-93856913D01*
X53688934Y-93804817D01*
X53751768Y-93774261D01*
X53821147Y-93782526D01*
X53875044Y-93826988D01*
X53888632Y-93856711D01*
X53889513Y-93856391D01*
X53891365Y-93861477D01*
X53891367Y-93861485D01*
X53933814Y-93952513D01*
X53981620Y-94055033D01*
X54104115Y-94229976D01*
X54255121Y-94380982D01*
X54255124Y-94380984D01*
X54430062Y-94503476D01*
X54430064Y-94503477D01*
X54430063Y-94503477D01*
X54494578Y-94533561D01*
X54623613Y-94593731D01*
X54623619Y-94593732D01*
X54623620Y-94593733D01*
X54673270Y-94607036D01*
X54829896Y-94649004D01*
X54981858Y-94662299D01*
X55042641Y-94667617D01*
X55042643Y-94667617D01*
X55042645Y-94667617D01*
X55095829Y-94662963D01*
X55255390Y-94649004D01*
X55461673Y-94593731D01*
X55655224Y-94503476D01*
X55830162Y-94380984D01*
X55981172Y-94229974D01*
X56103664Y-94055036D01*
X56193919Y-93861485D01*
X56193923Y-93861468D01*
X56195773Y-93856391D01*
X56197896Y-93857164D01*
X56229219Y-93805760D01*
X56292062Y-93775221D01*
X56361439Y-93783505D01*
X56415323Y-93827983D01*
X56428470Y-93856770D01*
X56429513Y-93856391D01*
X56431365Y-93861477D01*
X56431367Y-93861485D01*
X56473814Y-93952513D01*
X56521620Y-94055033D01*
X56644115Y-94229976D01*
X56795121Y-94380982D01*
X56795124Y-94380984D01*
X56970062Y-94503476D01*
X56970064Y-94503477D01*
X56970063Y-94503477D01*
X57034579Y-94533560D01*
X57163613Y-94593731D01*
X57163619Y-94593732D01*
X57163620Y-94593733D01*
X57213270Y-94607036D01*
X57369896Y-94649004D01*
X57521858Y-94662298D01*
X57582641Y-94667617D01*
X57582643Y-94667617D01*
X57582645Y-94667617D01*
X57635829Y-94662963D01*
X57795390Y-94649004D01*
X58001673Y-94593731D01*
X58195224Y-94503476D01*
X58370162Y-94380984D01*
X58521172Y-94229974D01*
X58643664Y-94055036D01*
X58733919Y-93861485D01*
X58789192Y-93655202D01*
X58807805Y-93442455D01*
X58789192Y-93229708D01*
X58735182Y-93028140D01*
X58733921Y-93023432D01*
X58733920Y-93023431D01*
X58733919Y-93023425D01*
X58643664Y-92829874D01*
X58579964Y-92738901D01*
X83536998Y-92738901D01*
X83557502Y-92907771D01*
X83557503Y-92907776D01*
X83617825Y-93066833D01*
X83680118Y-93157079D01*
X83714460Y-93206831D01*
X83820148Y-93300462D01*
X83841793Y-93319638D01*
X83992416Y-93398691D01*
X83992418Y-93398692D01*
X84157587Y-93439402D01*
X84327699Y-93439402D01*
X84492868Y-93398692D01*
X84606789Y-93338901D01*
X84643492Y-93319638D01*
X84643493Y-93319636D01*
X84643495Y-93319636D01*
X84770826Y-93206831D01*
X84867461Y-93066832D01*
X84927783Y-92907774D01*
X84948288Y-92738902D01*
X84927783Y-92570030D01*
X84867461Y-92410972D01*
X84770826Y-92270973D01*
X84643495Y-92158168D01*
X84643492Y-92158165D01*
X84492869Y-92079112D01*
X84327699Y-92038402D01*
X84157587Y-92038402D01*
X83992416Y-92079112D01*
X83841793Y-92158165D01*
X83714459Y-92270974D01*
X83617825Y-92410970D01*
X83557503Y-92570027D01*
X83557502Y-92570032D01*
X83536998Y-92738901D01*
X58579964Y-92738901D01*
X58521172Y-92654936D01*
X58521170Y-92654933D01*
X58370164Y-92503927D01*
X58195221Y-92381432D01*
X58195222Y-92381432D01*
X58066190Y-92321264D01*
X58001673Y-92291179D01*
X58001669Y-92291178D01*
X58001665Y-92291176D01*
X57795395Y-92235907D01*
X57795391Y-92235906D01*
X57795390Y-92235906D01*
X57795389Y-92235905D01*
X57795384Y-92235905D01*
X57582645Y-92217293D01*
X57582641Y-92217293D01*
X57369901Y-92235905D01*
X57369890Y-92235907D01*
X57163620Y-92291176D01*
X57163611Y-92291180D01*
X56970064Y-92381432D01*
X56795121Y-92503927D01*
X56644115Y-92654933D01*
X56521620Y-92829876D01*
X56431368Y-93023423D01*
X56429513Y-93028519D01*
X56427392Y-93027747D01*
X56396049Y-93079165D01*
X56333201Y-93109692D01*
X56263826Y-93101394D01*
X56209950Y-93056907D01*
X56196812Y-93028140D01*
X56195773Y-93028519D01*
X56193922Y-93023438D01*
X56193919Y-93023425D01*
X56103664Y-92829874D01*
X55981172Y-92654936D01*
X55981170Y-92654933D01*
X55830164Y-92503927D01*
X55655221Y-92381432D01*
X55655222Y-92381432D01*
X55526190Y-92321264D01*
X55461673Y-92291179D01*
X55461669Y-92291178D01*
X55461665Y-92291176D01*
X55255395Y-92235907D01*
X55255391Y-92235906D01*
X55255390Y-92235906D01*
X55255389Y-92235905D01*
X55255384Y-92235905D01*
X55042645Y-92217293D01*
X55042641Y-92217293D01*
X54829901Y-92235905D01*
X54829890Y-92235907D01*
X54623620Y-92291176D01*
X54623611Y-92291180D01*
X54430064Y-92381432D01*
X54255121Y-92503927D01*
X54104115Y-92654933D01*
X53981620Y-92829876D01*
X53891368Y-93023423D01*
X53889513Y-93028519D01*
X53887674Y-93027849D01*
X53855747Y-93080170D01*
X53792885Y-93110667D01*
X53723513Y-93102338D01*
X53669658Y-93057826D01*
X53656214Y-93028358D01*
X53655301Y-93028691D01*
X53653445Y-93023595D01*
X53563229Y-92830125D01*
X53524226Y-92774422D01*
X52900596Y-93398053D01*
X52887808Y-93317307D01*
X52830284Y-93204410D01*
X52740688Y-93114814D01*
X52627791Y-93057290D01*
X52547042Y-93044500D01*
X53170674Y-92420870D01*
X53114971Y-92381867D01*
X52921502Y-92291652D01*
X52921496Y-92291649D01*
X52715305Y-92236400D01*
X52715297Y-92236399D01*
X52502645Y-92217795D01*
X52502641Y-92217795D01*
X52289988Y-92236399D01*
X52289980Y-92236400D01*
X52083789Y-92291649D01*
X52083783Y-92291652D01*
X51890310Y-92381869D01*
X51834610Y-92420869D01*
X51834610Y-92420870D01*
X52458241Y-93044501D01*
X52377495Y-93057290D01*
X52264598Y-93114814D01*
X52175002Y-93204410D01*
X52117478Y-93317307D01*
X52104689Y-93398054D01*
X51481058Y-92774422D01*
X51481057Y-92774423D01*
X51442057Y-92830122D01*
X51351840Y-93023595D01*
X51351837Y-93023601D01*
X51296588Y-93229792D01*
X51296587Y-93229800D01*
X51277983Y-93442452D01*
X51277983Y-93442457D01*
X35493143Y-93442457D01*
X35493143Y-91910729D01*
X96810891Y-91910729D01*
X96831395Y-92079598D01*
X96831396Y-92079603D01*
X96891718Y-92238660D01*
X96954011Y-92328906D01*
X96988353Y-92378658D01*
X97094041Y-92472289D01*
X97115686Y-92491465D01*
X97265379Y-92570030D01*
X97266311Y-92570519D01*
X97431480Y-92611229D01*
X97601592Y-92611229D01*
X97766761Y-92570519D01*
X97846228Y-92528810D01*
X97917385Y-92491465D01*
X97917386Y-92491463D01*
X97917388Y-92491463D01*
X98044719Y-92378658D01*
X98141354Y-92238659D01*
X98201676Y-92079601D01*
X98222181Y-91910729D01*
X98201676Y-91741857D01*
X98141354Y-91582799D01*
X98044719Y-91442800D01*
X97927443Y-91338903D01*
X242027534Y-91338903D01*
X242047943Y-91624264D01*
X242108752Y-91903797D01*
X242208734Y-92171860D01*
X242345834Y-92422940D01*
X242345835Y-92422941D01*
X242517282Y-92651967D01*
X242517292Y-92651979D01*
X242719565Y-92854252D01*
X242719577Y-92854262D01*
X242948603Y-93025709D01*
X242948604Y-93025710D01*
X243199685Y-93162810D01*
X243199684Y-93162810D01*
X243312939Y-93205051D01*
X244815908Y-91702083D01*
X244903141Y-91840913D01*
X245030632Y-91968404D01*
X245169461Y-92055636D01*
X243891201Y-93333894D01*
X243891202Y-93333895D01*
X243961206Y-93338901D01*
X243961209Y-93338902D01*
X247104077Y-93338902D01*
X247104079Y-93338901D01*
X247174082Y-93333895D01*
X247174083Y-93333894D01*
X245895824Y-92055636D01*
X246034654Y-91968404D01*
X246162145Y-91840913D01*
X246249376Y-91702083D01*
X247752344Y-93205051D01*
X247865603Y-93162809D01*
X248116681Y-93025710D01*
X248116682Y-93025709D01*
X248345708Y-92854262D01*
X248345720Y-92854252D01*
X248547993Y-92651979D01*
X248548003Y-92651967D01*
X248719450Y-92422941D01*
X248719451Y-92422940D01*
X248856551Y-92171860D01*
X248956533Y-91903797D01*
X249017342Y-91624264D01*
X249037752Y-91338903D01*
X249037752Y-91338900D01*
X249017342Y-91053539D01*
X248956533Y-90774006D01*
X248856551Y-90505943D01*
X248719451Y-90254863D01*
X248719450Y-90254862D01*
X248548003Y-90025836D01*
X248547993Y-90025824D01*
X248345720Y-89823551D01*
X248345708Y-89823541D01*
X248116682Y-89652094D01*
X248116681Y-89652093D01*
X247865600Y-89514993D01*
X247752345Y-89472750D01*
X246249376Y-90975719D01*
X246162145Y-90836891D01*
X246034654Y-90709400D01*
X245895824Y-90622167D01*
X247174083Y-89343907D01*
X247104081Y-89338902D01*
X243961202Y-89338902D01*
X243891201Y-89343907D01*
X245169461Y-90622167D01*
X245030632Y-90709400D01*
X244903141Y-90836891D01*
X244815909Y-90975720D01*
X243312939Y-89472750D01*
X243312938Y-89472750D01*
X243199697Y-89514988D01*
X243199685Y-89514993D01*
X242948604Y-89652093D01*
X242948603Y-89652094D01*
X242719577Y-89823541D01*
X242719565Y-89823551D01*
X242517292Y-90025824D01*
X242517282Y-90025836D01*
X242345835Y-90254862D01*
X242345834Y-90254863D01*
X242208734Y-90505943D01*
X242108752Y-90774006D01*
X242047943Y-91053539D01*
X242027534Y-91338900D01*
X242027534Y-91338903D01*
X97927443Y-91338903D01*
X97917388Y-91329995D01*
X97917385Y-91329992D01*
X97766762Y-91250939D01*
X97601592Y-91210229D01*
X97431480Y-91210229D01*
X97266309Y-91250939D01*
X97115686Y-91329992D01*
X96988352Y-91442801D01*
X96891718Y-91582797D01*
X96831396Y-91741854D01*
X96831395Y-91741859D01*
X96810891Y-91910729D01*
X35493143Y-91910729D01*
X35493143Y-90419894D01*
X41025202Y-90419894D01*
X41143873Y-90483325D01*
X41329550Y-90539650D01*
X41522643Y-90558667D01*
X41715735Y-90539650D01*
X41901415Y-90483324D01*
X41901417Y-90483324D01*
X42020081Y-90419894D01*
X42020082Y-90419893D01*
X41522644Y-89922455D01*
X41522643Y-89922455D01*
X41025202Y-90419894D01*
X35493143Y-90419894D01*
X35493143Y-89568902D01*
X40532877Y-89568902D01*
X40551894Y-89761994D01*
X40608219Y-89947671D01*
X40671650Y-90066341D01*
X41144511Y-89593481D01*
X41288793Y-89593481D01*
X41319008Y-89686471D01*
X41384432Y-89759133D01*
X41473755Y-89798902D01*
X41546815Y-89798902D01*
X41618282Y-89783711D01*
X41697385Y-89726240D01*
X41746273Y-89641564D01*
X41753910Y-89568902D01*
X41876196Y-89568902D01*
X42373635Y-90066340D01*
X42437065Y-89947676D01*
X42437065Y-89947674D01*
X42493391Y-89761994D01*
X42512408Y-89568901D01*
X42493391Y-89375809D01*
X42437066Y-89190132D01*
X42373635Y-89071461D01*
X41876196Y-89568901D01*
X41876196Y-89568902D01*
X41753910Y-89568902D01*
X41756493Y-89544323D01*
X41726278Y-89451333D01*
X41660854Y-89378671D01*
X41571531Y-89338902D01*
X41498471Y-89338902D01*
X41427004Y-89354093D01*
X41347901Y-89411564D01*
X41299013Y-89496240D01*
X41288793Y-89593481D01*
X41144511Y-89593481D01*
X41169090Y-89568902D01*
X41169090Y-89568901D01*
X40671650Y-89071462D01*
X40608219Y-89190132D01*
X40551894Y-89375809D01*
X40532877Y-89568902D01*
X35493143Y-89568902D01*
X35493143Y-88717909D01*
X41025203Y-88717909D01*
X41522643Y-89215349D01*
X41522644Y-89215349D01*
X41842771Y-88895221D01*
X90080140Y-88895221D01*
X90100644Y-89064090D01*
X90100645Y-89064095D01*
X90160967Y-89223152D01*
X90201281Y-89281556D01*
X90257602Y-89363150D01*
X90324544Y-89422455D01*
X90384935Y-89475957D01*
X90515196Y-89544323D01*
X90535560Y-89555011D01*
X90700729Y-89595721D01*
X90870841Y-89595721D01*
X91036010Y-89555011D01*
X91164143Y-89487761D01*
X91186634Y-89475957D01*
X91186635Y-89475955D01*
X91186637Y-89475955D01*
X91313968Y-89363150D01*
X91410603Y-89223151D01*
X91470925Y-89064093D01*
X91491430Y-88895221D01*
X91470925Y-88726349D01*
X91410603Y-88567291D01*
X91313968Y-88427292D01*
X91186637Y-88314487D01*
X91186634Y-88314484D01*
X91036011Y-88235431D01*
X90870841Y-88194721D01*
X90700729Y-88194721D01*
X90535558Y-88235431D01*
X90384935Y-88314484D01*
X90257601Y-88427293D01*
X90160967Y-88567289D01*
X90100645Y-88726346D01*
X90100644Y-88726351D01*
X90080140Y-88895221D01*
X41842771Y-88895221D01*
X42020082Y-88717909D01*
X41901412Y-88654478D01*
X41715735Y-88598153D01*
X41522643Y-88579136D01*
X41329550Y-88598153D01*
X41143873Y-88654478D01*
X41025203Y-88717909D01*
X35493143Y-88717909D01*
X35493143Y-86088901D01*
X61773270Y-86088901D01*
X61793042Y-86251743D01*
X61793043Y-86251746D01*
X61841545Y-86379636D01*
X61851214Y-86405129D01*
X61888186Y-86458692D01*
X61944399Y-86540130D01*
X61944401Y-86540132D01*
X61944403Y-86540134D01*
X62067182Y-86648907D01*
X62067183Y-86648907D01*
X62067185Y-86648909D01*
X62212436Y-86725143D01*
X62212438Y-86725143D01*
X62212439Y-86725144D01*
X62371709Y-86764401D01*
X62371710Y-86764401D01*
X62535753Y-86764401D01*
X62695022Y-86725144D01*
X62695022Y-86725143D01*
X62695026Y-86725143D01*
X62840277Y-86648909D01*
X62963063Y-86540130D01*
X62970812Y-86528903D01*
X104167481Y-86528903D01*
X104186093Y-86741643D01*
X104186095Y-86741654D01*
X104241364Y-86947924D01*
X104241366Y-86947928D01*
X104241367Y-86947932D01*
X104283814Y-87038960D01*
X104331620Y-87141480D01*
X104454115Y-87316423D01*
X104605121Y-87467429D01*
X104605124Y-87467431D01*
X104780062Y-87589923D01*
X104780064Y-87589924D01*
X104780063Y-87589924D01*
X104844578Y-87620008D01*
X104973613Y-87680178D01*
X104973626Y-87680181D01*
X104978707Y-87682032D01*
X104978033Y-87683880D01*
X105030323Y-87715759D01*
X105060847Y-87778609D01*
X105052546Y-87847984D01*
X105008056Y-87901858D01*
X104978547Y-87915334D01*
X104978879Y-87916244D01*
X104973783Y-87918099D01*
X104780310Y-88008316D01*
X104724610Y-88047316D01*
X105348242Y-88670948D01*
X105267495Y-88683737D01*
X105154598Y-88741261D01*
X105065002Y-88830857D01*
X105007478Y-88943754D01*
X104994689Y-89024501D01*
X104371057Y-88400869D01*
X104332057Y-88456569D01*
X104241840Y-88650042D01*
X104241837Y-88650048D01*
X104186588Y-88856239D01*
X104186587Y-88856247D01*
X104167983Y-89068899D01*
X104167983Y-89068904D01*
X104186587Y-89281556D01*
X104186588Y-89281564D01*
X104241837Y-89487755D01*
X104241840Y-89487761D01*
X104332055Y-89681230D01*
X104332056Y-89681232D01*
X104371058Y-89736932D01*
X104371059Y-89736933D01*
X104994689Y-89113302D01*
X105007478Y-89194050D01*
X105065002Y-89306947D01*
X105154598Y-89396543D01*
X105267495Y-89454067D01*
X105348242Y-89466855D01*
X104724610Y-90090485D01*
X104780313Y-90129488D01*
X104973783Y-90219704D01*
X104973789Y-90219707D01*
X105179980Y-90274956D01*
X105179988Y-90274957D01*
X105392641Y-90293562D01*
X105392645Y-90293562D01*
X105605297Y-90274957D01*
X105605305Y-90274956D01*
X105811496Y-90219707D01*
X105811502Y-90219704D01*
X106004973Y-90129488D01*
X106004979Y-90129484D01*
X106060674Y-90090486D01*
X105437044Y-89466855D01*
X105517791Y-89454067D01*
X105630688Y-89396543D01*
X105720284Y-89306947D01*
X105777808Y-89194050D01*
X105790596Y-89113303D01*
X106414226Y-89736933D01*
X106414227Y-89736933D01*
X106453225Y-89681238D01*
X106453229Y-89681232D01*
X106543445Y-89487761D01*
X106543448Y-89487755D01*
X106598697Y-89281564D01*
X106598698Y-89281556D01*
X106617303Y-89068904D01*
X106617303Y-89068899D01*
X106598698Y-88856247D01*
X106598697Y-88856239D01*
X106543448Y-88650048D01*
X106543445Y-88650042D01*
X106453229Y-88456572D01*
X106414226Y-88400869D01*
X105790596Y-89024499D01*
X105777808Y-88943754D01*
X105720284Y-88830857D01*
X105630688Y-88741261D01*
X105517791Y-88683737D01*
X105437044Y-88670948D01*
X106060674Y-88047318D01*
X106060673Y-88047317D01*
X106004973Y-88008315D01*
X106004971Y-88008314D01*
X105811502Y-87918099D01*
X105806407Y-87916244D01*
X105807098Y-87914345D01*
X105754968Y-87882569D01*
X105724440Y-87819722D01*
X105732736Y-87750346D01*
X105777222Y-87696469D01*
X105806900Y-87682916D01*
X105806579Y-87682032D01*
X105811656Y-87680182D01*
X105811673Y-87680178D01*
X106005224Y-87589923D01*
X106180162Y-87467431D01*
X106331172Y-87316421D01*
X106453664Y-87141483D01*
X106543919Y-86947932D01*
X106599192Y-86741649D01*
X106617805Y-86528902D01*
X106599192Y-86316155D01*
X106583851Y-86258903D01*
X247107033Y-86258903D01*
X247127447Y-86544335D01*
X247188271Y-86823939D01*
X247288278Y-87092068D01*
X247425413Y-87343211D01*
X247425418Y-87343219D01*
X247596897Y-87572289D01*
X247596913Y-87572307D01*
X247799237Y-87774631D01*
X247799255Y-87774647D01*
X248028325Y-87946126D01*
X248028333Y-87946131D01*
X248279476Y-88083266D01*
X248279475Y-88083266D01*
X248279479Y-88083267D01*
X248279482Y-88083269D01*
X248547597Y-88183271D01*
X248547603Y-88183272D01*
X248547605Y-88183273D01*
X248827209Y-88244097D01*
X248827211Y-88244097D01*
X248827215Y-88244098D01*
X249041195Y-88259402D01*
X252184091Y-88259402D01*
X252398071Y-88244098D01*
X252677689Y-88183271D01*
X252945804Y-88083269D01*
X253196958Y-87946128D01*
X253426038Y-87774641D01*
X253628382Y-87572297D01*
X253799869Y-87343217D01*
X253937010Y-87092063D01*
X254037012Y-86823948D01*
X254097839Y-86544330D01*
X254118253Y-86258902D01*
X254097839Y-85973474D01*
X254096599Y-85967776D01*
X254037014Y-85693864D01*
X254037013Y-85693862D01*
X254037012Y-85693856D01*
X253937010Y-85425741D01*
X253901983Y-85361595D01*
X253799872Y-85174592D01*
X253799867Y-85174584D01*
X253628388Y-84945514D01*
X253628372Y-84945496D01*
X253426048Y-84743172D01*
X253426030Y-84743156D01*
X253196960Y-84571677D01*
X253196952Y-84571672D01*
X252945809Y-84434537D01*
X252945810Y-84434537D01*
X252838557Y-84394534D01*
X252677689Y-84334533D01*
X252677686Y-84334532D01*
X252677680Y-84334530D01*
X252398076Y-84273706D01*
X252184093Y-84258402D01*
X252184091Y-84258402D01*
X249041195Y-84258402D01*
X249041192Y-84258402D01*
X248827209Y-84273706D01*
X248547605Y-84334530D01*
X248279476Y-84434537D01*
X248028333Y-84571672D01*
X248028325Y-84571677D01*
X247799255Y-84743156D01*
X247799237Y-84743172D01*
X247596913Y-84945496D01*
X247596897Y-84945514D01*
X247425418Y-85174584D01*
X247425413Y-85174592D01*
X247288278Y-85425735D01*
X247188271Y-85693864D01*
X247127447Y-85973468D01*
X247107033Y-86258900D01*
X247107033Y-86258903D01*
X106583851Y-86258903D01*
X106543919Y-86109872D01*
X106453664Y-85916321D01*
X106331172Y-85741383D01*
X106331170Y-85741380D01*
X106180164Y-85590374D01*
X106009638Y-85470972D01*
X106005224Y-85467881D01*
X106005223Y-85467880D01*
X106005221Y-85467879D01*
X106005222Y-85467879D01*
X105876190Y-85407711D01*
X105811673Y-85377626D01*
X105811666Y-85377624D01*
X105806579Y-85375772D01*
X105807352Y-85373648D01*
X105755948Y-85342326D01*
X105725409Y-85279483D01*
X105733693Y-85210106D01*
X105778171Y-85156222D01*
X105806958Y-85143074D01*
X105806579Y-85142032D01*
X105811656Y-85140182D01*
X105811673Y-85140178D01*
X106005224Y-85049923D01*
X106180162Y-84927431D01*
X106331172Y-84776421D01*
X106400501Y-84677408D01*
X124005320Y-84677408D01*
X124025824Y-84846277D01*
X124025825Y-84846282D01*
X124086147Y-85005339D01*
X124148440Y-85095585D01*
X124182782Y-85145337D01*
X124260359Y-85214064D01*
X124310115Y-85258144D01*
X124448879Y-85330973D01*
X124460740Y-85337198D01*
X124625909Y-85377908D01*
X124796021Y-85377908D01*
X124961190Y-85337198D01*
X125071156Y-85279483D01*
X125111814Y-85258144D01*
X125111815Y-85258142D01*
X125111817Y-85258142D01*
X125239148Y-85145337D01*
X125335783Y-85005338D01*
X125396105Y-84846280D01*
X125416610Y-84677408D01*
X125396105Y-84508536D01*
X125335783Y-84349478D01*
X125239148Y-84209479D01*
X125117417Y-84101635D01*
X125111814Y-84096671D01*
X124961191Y-84017618D01*
X124796021Y-83976908D01*
X124625909Y-83976908D01*
X124460738Y-84017618D01*
X124310115Y-84096671D01*
X124182781Y-84209480D01*
X124086147Y-84349476D01*
X124025825Y-84508533D01*
X124025824Y-84508538D01*
X124005320Y-84677408D01*
X106400501Y-84677408D01*
X106453664Y-84601483D01*
X106543919Y-84407932D01*
X106599192Y-84201649D01*
X106617805Y-83988902D01*
X106615856Y-83966630D01*
X106608000Y-83876829D01*
X106599192Y-83776155D01*
X106543919Y-83569872D01*
X106453664Y-83376321D01*
X106331172Y-83201383D01*
X106331170Y-83201380D01*
X106180164Y-83050374D01*
X106005221Y-82927879D01*
X106005222Y-82927879D01*
X105872791Y-82866126D01*
X105811673Y-82837626D01*
X105811669Y-82837625D01*
X105811665Y-82837623D01*
X105605395Y-82782354D01*
X105605391Y-82782353D01*
X105605390Y-82782353D01*
X105605389Y-82782352D01*
X105605384Y-82782352D01*
X105392645Y-82763740D01*
X105392641Y-82763740D01*
X105179901Y-82782352D01*
X105179890Y-82782354D01*
X104973620Y-82837623D01*
X104973611Y-82837627D01*
X104780064Y-82927879D01*
X104605121Y-83050374D01*
X104454115Y-83201380D01*
X104331620Y-83376323D01*
X104241368Y-83569870D01*
X104241364Y-83569879D01*
X104186095Y-83776149D01*
X104186093Y-83776160D01*
X104167481Y-83988900D01*
X104167481Y-83988903D01*
X104186093Y-84201643D01*
X104186095Y-84201654D01*
X104241364Y-84407924D01*
X104241366Y-84407928D01*
X104241367Y-84407932D01*
X104283814Y-84498960D01*
X104331620Y-84601480D01*
X104454115Y-84776423D01*
X104605121Y-84927429D01*
X104605124Y-84927431D01*
X104780062Y-85049923D01*
X104780064Y-85049924D01*
X104780063Y-85049924D01*
X104844579Y-85080008D01*
X104973613Y-85140178D01*
X104973626Y-85140181D01*
X104978707Y-85142032D01*
X104977935Y-85144152D01*
X105029353Y-85175496D01*
X105059880Y-85238344D01*
X105051582Y-85307719D01*
X105007095Y-85361595D01*
X104978328Y-85374732D01*
X104978707Y-85375772D01*
X104973615Y-85377625D01*
X104973613Y-85377626D01*
X104973610Y-85377627D01*
X104973611Y-85377627D01*
X104780064Y-85467879D01*
X104605121Y-85590374D01*
X104454115Y-85741380D01*
X104331620Y-85916323D01*
X104241368Y-86109870D01*
X104241364Y-86109879D01*
X104186095Y-86316149D01*
X104186093Y-86316160D01*
X104167481Y-86528900D01*
X104167481Y-86528903D01*
X62970812Y-86528903D01*
X63056249Y-86405127D01*
X63114419Y-86251746D01*
X63134192Y-86088901D01*
X63114419Y-85926056D01*
X63066196Y-85798902D01*
X65651998Y-85798902D01*
X65672502Y-85967771D01*
X65672503Y-85967776D01*
X65732825Y-86126833D01*
X65795118Y-86217079D01*
X65829460Y-86266831D01*
X65935148Y-86360462D01*
X65956793Y-86379638D01*
X66107416Y-86458691D01*
X66107418Y-86458692D01*
X66272587Y-86499402D01*
X66442699Y-86499402D01*
X66607868Y-86458692D01*
X66709923Y-86405129D01*
X66758492Y-86379638D01*
X66758493Y-86379636D01*
X66758495Y-86379636D01*
X66885826Y-86266831D01*
X66982461Y-86126832D01*
X67042783Y-85967774D01*
X67063288Y-85798902D01*
X67042783Y-85630030D01*
X66989261Y-85488902D01*
X76712182Y-85488902D01*
X76731954Y-85651744D01*
X76731955Y-85651747D01*
X76790125Y-85805128D01*
X76883311Y-85940131D01*
X76883313Y-85940133D01*
X76883315Y-85940135D01*
X77006094Y-86048908D01*
X77006095Y-86048908D01*
X77006097Y-86048910D01*
X77151348Y-86125144D01*
X77151350Y-86125144D01*
X77151351Y-86125145D01*
X77310621Y-86164402D01*
X77310622Y-86164402D01*
X77474665Y-86164402D01*
X77633934Y-86125145D01*
X77633934Y-86125144D01*
X77633938Y-86125144D01*
X77779189Y-86048910D01*
X77901975Y-85940131D01*
X77995161Y-85805128D01*
X78053331Y-85651747D01*
X78073104Y-85488902D01*
X78053331Y-85326057D01*
X77995161Y-85172676D01*
X77901975Y-85037673D01*
X77901972Y-85037670D01*
X77901970Y-85037668D01*
X77779191Y-84928895D01*
X77633934Y-84852658D01*
X77474665Y-84813402D01*
X77474664Y-84813402D01*
X77310622Y-84813402D01*
X77310621Y-84813402D01*
X77151351Y-84852658D01*
X77006094Y-84928895D01*
X76883315Y-85037668D01*
X76883309Y-85037675D01*
X76790126Y-85172673D01*
X76731955Y-85326056D01*
X76731954Y-85326059D01*
X76712182Y-85488901D01*
X76712182Y-85488902D01*
X66989261Y-85488902D01*
X66982461Y-85470972D01*
X66980327Y-85467881D01*
X66918028Y-85377626D01*
X66885826Y-85330973D01*
X66758495Y-85218168D01*
X66758492Y-85218165D01*
X66607869Y-85139112D01*
X66442699Y-85098402D01*
X66272587Y-85098402D01*
X66107416Y-85139112D01*
X65956793Y-85218165D01*
X65829459Y-85330974D01*
X65732825Y-85470970D01*
X65672503Y-85630027D01*
X65672502Y-85630032D01*
X65651998Y-85798902D01*
X63066196Y-85798902D01*
X63056249Y-85772675D01*
X62963063Y-85637672D01*
X62963060Y-85637669D01*
X62963058Y-85637667D01*
X62840279Y-85528894D01*
X62729918Y-85470972D01*
X62695026Y-85452659D01*
X62695025Y-85452658D01*
X62695022Y-85452657D01*
X62535753Y-85413401D01*
X62535752Y-85413401D01*
X62371710Y-85413401D01*
X62371709Y-85413401D01*
X62212439Y-85452657D01*
X62067182Y-85528894D01*
X61944403Y-85637667D01*
X61944397Y-85637674D01*
X61851214Y-85772672D01*
X61793043Y-85926055D01*
X61793042Y-85926058D01*
X61773270Y-86088900D01*
X61773270Y-86088901D01*
X35493143Y-86088901D01*
X35493143Y-84588902D01*
X54509103Y-84588902D01*
X54528410Y-84772600D01*
X54528411Y-84772603D01*
X54585486Y-84948263D01*
X54585489Y-84948270D01*
X54677843Y-85108233D01*
X54801433Y-85245495D01*
X54801440Y-85245501D01*
X54950871Y-85354069D01*
X54950872Y-85354070D01*
X55004414Y-85377908D01*
X55119614Y-85429198D01*
X55300288Y-85467602D01*
X55484998Y-85467602D01*
X55665672Y-85429198D01*
X55834413Y-85354070D01*
X55983847Y-85245500D01*
X55990291Y-85238344D01*
X56075101Y-85144152D01*
X56107442Y-85108234D01*
X56199797Y-84948270D01*
X56256876Y-84772600D01*
X56276183Y-84588902D01*
X56256876Y-84405204D01*
X56199797Y-84229534D01*
X56107442Y-84069570D01*
X56106651Y-84068691D01*
X55983852Y-83932308D01*
X55983845Y-83932302D01*
X55834414Y-83823734D01*
X55834413Y-83823733D01*
X55665671Y-83748605D01*
X55484998Y-83710202D01*
X55300288Y-83710202D01*
X55119614Y-83748605D01*
X55119613Y-83748605D01*
X54950872Y-83823733D01*
X54950871Y-83823734D01*
X54801440Y-83932302D01*
X54801433Y-83932308D01*
X54677843Y-84069570D01*
X54585489Y-84229533D01*
X54585486Y-84229540D01*
X54528411Y-84405200D01*
X54528410Y-84405204D01*
X54509103Y-84588902D01*
X35493143Y-84588902D01*
X35493143Y-83408901D01*
X63106758Y-83408901D01*
X63127262Y-83577771D01*
X63127263Y-83577776D01*
X63187585Y-83736833D01*
X63214728Y-83776155D01*
X63284220Y-83876831D01*
X63389908Y-83970462D01*
X63411553Y-83989638D01*
X63562176Y-84068691D01*
X63562178Y-84068692D01*
X63727347Y-84109402D01*
X63897459Y-84109402D01*
X64062628Y-84068692D01*
X64142095Y-84026983D01*
X64213252Y-83989638D01*
X64213253Y-83989636D01*
X64213255Y-83989636D01*
X64340586Y-83876831D01*
X64437221Y-83736832D01*
X64469999Y-83650402D01*
X64944942Y-83650402D01*
X64964714Y-83813244D01*
X64964715Y-83813247D01*
X65022886Y-83966630D01*
X65058081Y-84017618D01*
X65116071Y-84101631D01*
X65116073Y-84101633D01*
X65116075Y-84101635D01*
X65238854Y-84210408D01*
X65238855Y-84210408D01*
X65238857Y-84210410D01*
X65384108Y-84286644D01*
X65384110Y-84286644D01*
X65384111Y-84286645D01*
X65543381Y-84325902D01*
X65543382Y-84325902D01*
X65707425Y-84325902D01*
X65866694Y-84286645D01*
X65866694Y-84286644D01*
X65866698Y-84286644D01*
X66011949Y-84210410D01*
X66134735Y-84101631D01*
X66227921Y-83966628D01*
X66286091Y-83813247D01*
X66305864Y-83650402D01*
X66286091Y-83487557D01*
X66227921Y-83334176D01*
X66134735Y-83199173D01*
X66134732Y-83199170D01*
X66134730Y-83199168D01*
X66011951Y-83090395D01*
X65866694Y-83014158D01*
X65707425Y-82974902D01*
X65707424Y-82974902D01*
X65543382Y-82974902D01*
X65543381Y-82974902D01*
X65384111Y-83014158D01*
X65238854Y-83090395D01*
X65116075Y-83199168D01*
X65116069Y-83199175D01*
X65022886Y-83334173D01*
X64964715Y-83487556D01*
X64964714Y-83487559D01*
X64944942Y-83650401D01*
X64944942Y-83650402D01*
X64469999Y-83650402D01*
X64497543Y-83577774D01*
X64518048Y-83408902D01*
X64497543Y-83240030D01*
X64437221Y-83080972D01*
X64340586Y-82940973D01*
X64213255Y-82828168D01*
X64213252Y-82828165D01*
X64062629Y-82749112D01*
X63897459Y-82708402D01*
X63727347Y-82708402D01*
X63562176Y-82749112D01*
X63411553Y-82828165D01*
X63284219Y-82940974D01*
X63187585Y-83080970D01*
X63127263Y-83240027D01*
X63127262Y-83240032D01*
X63106758Y-83408901D01*
X35493143Y-83408901D01*
X35493143Y-82488902D01*
X54309103Y-82488902D01*
X54328410Y-82672600D01*
X54328411Y-82672603D01*
X54385486Y-82848263D01*
X54385489Y-82848270D01*
X54477843Y-83008233D01*
X54601433Y-83145495D01*
X54601440Y-83145501D01*
X54750871Y-83254069D01*
X54750872Y-83254070D01*
X54919613Y-83329197D01*
X54919614Y-83329198D01*
X55100288Y-83367602D01*
X55284998Y-83367602D01*
X55465672Y-83329198D01*
X55634413Y-83254070D01*
X55783847Y-83145500D01*
X55907442Y-83008234D01*
X55999797Y-82848270D01*
X56056876Y-82672600D01*
X56076183Y-82488902D01*
X56056876Y-82305204D01*
X55999797Y-82129534D01*
X55907442Y-81969570D01*
X55888500Y-81948533D01*
X55783852Y-81832308D01*
X55783845Y-81832302D01*
X55634414Y-81723734D01*
X55634413Y-81723733D01*
X55593800Y-81705651D01*
X62528206Y-81705651D01*
X62665044Y-81766576D01*
X62665049Y-81766578D01*
X62840644Y-81803902D01*
X63020162Y-81803902D01*
X63195756Y-81766578D01*
X63195761Y-81766576D01*
X63332598Y-81705651D01*
X64179206Y-81705651D01*
X64316044Y-81766576D01*
X64316049Y-81766578D01*
X64491644Y-81803902D01*
X64671162Y-81803902D01*
X64846756Y-81766578D01*
X64846761Y-81766576D01*
X64983598Y-81705651D01*
X65830206Y-81705651D01*
X65967044Y-81766576D01*
X65967049Y-81766578D01*
X66142644Y-81803902D01*
X66322162Y-81803902D01*
X66497756Y-81766578D01*
X66497761Y-81766576D01*
X66634598Y-81705651D01*
X66634598Y-81705650D01*
X66617850Y-81688902D01*
X68046758Y-81688902D01*
X68067262Y-81857771D01*
X68067263Y-81857776D01*
X68127585Y-82016833D01*
X68189878Y-82107079D01*
X68224220Y-82156831D01*
X68329908Y-82250462D01*
X68351553Y-82269638D01*
X68502176Y-82348691D01*
X68502178Y-82348692D01*
X68667347Y-82389402D01*
X68837459Y-82389402D01*
X69002628Y-82348692D01*
X69121549Y-82286277D01*
X69153252Y-82269638D01*
X69153253Y-82269636D01*
X69153255Y-82269636D01*
X69280586Y-82156831D01*
X69307799Y-82117407D01*
X129015320Y-82117407D01*
X129035824Y-82286277D01*
X129035825Y-82286282D01*
X129096147Y-82445339D01*
X129158440Y-82535585D01*
X129192782Y-82585337D01*
X129291282Y-82672600D01*
X129320115Y-82698144D01*
X129445098Y-82763740D01*
X129470740Y-82777198D01*
X129635909Y-82817908D01*
X129806021Y-82817908D01*
X129971190Y-82777198D01*
X130050657Y-82735489D01*
X130121814Y-82698144D01*
X130121815Y-82698142D01*
X130121817Y-82698142D01*
X130249148Y-82585337D01*
X130345783Y-82445338D01*
X130406105Y-82286280D01*
X130426610Y-82117408D01*
X130406105Y-81948536D01*
X130345783Y-81789478D01*
X130314349Y-81743939D01*
X130300402Y-81723733D01*
X130249148Y-81649479D01*
X130121817Y-81536674D01*
X130121814Y-81536671D01*
X129971191Y-81457618D01*
X129806021Y-81416908D01*
X129635909Y-81416908D01*
X129470738Y-81457618D01*
X129320115Y-81536671D01*
X129203603Y-81639892D01*
X129193768Y-81648606D01*
X129192781Y-81649480D01*
X129096147Y-81789476D01*
X129035825Y-81948533D01*
X129035824Y-81948538D01*
X129015320Y-82117407D01*
X69307799Y-82117407D01*
X69377221Y-82016832D01*
X69437543Y-81857774D01*
X69458048Y-81688902D01*
X69437543Y-81520030D01*
X69377221Y-81360972D01*
X69280586Y-81220973D01*
X69233099Y-81178903D01*
X242027033Y-81178903D01*
X242047447Y-81464335D01*
X242108271Y-81743939D01*
X242108273Y-81743945D01*
X242108274Y-81743948D01*
X242192427Y-81969570D01*
X242208278Y-82012068D01*
X242345413Y-82263211D01*
X242345418Y-82263219D01*
X242516897Y-82492289D01*
X242516913Y-82492307D01*
X242719237Y-82694631D01*
X242719255Y-82694647D01*
X242948325Y-82866126D01*
X242948333Y-82866131D01*
X243199476Y-83003266D01*
X243199475Y-83003266D01*
X243199479Y-83003267D01*
X243199482Y-83003269D01*
X243467597Y-83103271D01*
X243467603Y-83103272D01*
X243467605Y-83103273D01*
X243747209Y-83164097D01*
X243747211Y-83164097D01*
X243747215Y-83164098D01*
X243961195Y-83179402D01*
X247104091Y-83179402D01*
X247318071Y-83164098D01*
X247403561Y-83145501D01*
X247597680Y-83103273D01*
X247597680Y-83103272D01*
X247597689Y-83103271D01*
X247865804Y-83003269D01*
X248116958Y-82866128D01*
X248346038Y-82694641D01*
X248548382Y-82492297D01*
X248719869Y-82263217D01*
X248857010Y-82012063D01*
X248957012Y-81743948D01*
X248961409Y-81723734D01*
X249017838Y-81464335D01*
X249017838Y-81464334D01*
X249017839Y-81464330D01*
X249036207Y-81207497D01*
X249038253Y-81178903D01*
X249038253Y-81178900D01*
X249028240Y-81038902D01*
X249017839Y-80893474D01*
X249011609Y-80864837D01*
X248957014Y-80613864D01*
X248957013Y-80613862D01*
X248957012Y-80613856D01*
X248857010Y-80345741D01*
X248825973Y-80288902D01*
X248719872Y-80094592D01*
X248719867Y-80094584D01*
X248548388Y-79865514D01*
X248548372Y-79865496D01*
X248346048Y-79663172D01*
X248346030Y-79663156D01*
X248116960Y-79491677D01*
X248116952Y-79491672D01*
X247865809Y-79354537D01*
X247865810Y-79354537D01*
X247716649Y-79298903D01*
X247597689Y-79254533D01*
X247597686Y-79254532D01*
X247597680Y-79254530D01*
X247318076Y-79193706D01*
X247104093Y-79178402D01*
X247104091Y-79178402D01*
X243961195Y-79178402D01*
X243961192Y-79178402D01*
X243747209Y-79193706D01*
X243467605Y-79254530D01*
X243199476Y-79354537D01*
X242948333Y-79491672D01*
X242948325Y-79491677D01*
X242719255Y-79663156D01*
X242719237Y-79663172D01*
X242516913Y-79865496D01*
X242516897Y-79865514D01*
X242345418Y-80094584D01*
X242345413Y-80094592D01*
X242208278Y-80345735D01*
X242108271Y-80613864D01*
X242047447Y-80893468D01*
X242027033Y-81178900D01*
X242027033Y-81178903D01*
X69233099Y-81178903D01*
X69153255Y-81108168D01*
X69153252Y-81108165D01*
X69002629Y-81029112D01*
X68837459Y-80988402D01*
X68667347Y-80988402D01*
X68502176Y-81029112D01*
X68351553Y-81108165D01*
X68224219Y-81220974D01*
X68127585Y-81360970D01*
X68067263Y-81520027D01*
X68067262Y-81520032D01*
X68046758Y-81688902D01*
X66617850Y-81688902D01*
X66232404Y-81303455D01*
X66232403Y-81303455D01*
X65830206Y-81705650D01*
X65830206Y-81705651D01*
X64983598Y-81705651D01*
X64983598Y-81705650D01*
X64581404Y-81303455D01*
X64581403Y-81303455D01*
X64179206Y-81705650D01*
X64179206Y-81705651D01*
X63332598Y-81705651D01*
X63332598Y-81705650D01*
X62930404Y-81303455D01*
X62930403Y-81303455D01*
X62528206Y-81705650D01*
X62528206Y-81705651D01*
X55593800Y-81705651D01*
X55465671Y-81648605D01*
X55284998Y-81610202D01*
X55100288Y-81610202D01*
X54919614Y-81648605D01*
X54919613Y-81648605D01*
X54750872Y-81723733D01*
X54750871Y-81723734D01*
X54601440Y-81832302D01*
X54601433Y-81832308D01*
X54477843Y-81969570D01*
X54385489Y-82129533D01*
X54385486Y-82129540D01*
X54334558Y-82286282D01*
X54328410Y-82305204D01*
X54309103Y-82488902D01*
X35493143Y-82488902D01*
X35493143Y-81659894D01*
X41025202Y-81659894D01*
X41143873Y-81723325D01*
X41329550Y-81779650D01*
X41522643Y-81798667D01*
X41715735Y-81779650D01*
X41901415Y-81723324D01*
X41901417Y-81723324D01*
X42020081Y-81659894D01*
X42020082Y-81659893D01*
X41522644Y-81162455D01*
X41522643Y-81162455D01*
X41025202Y-81659894D01*
X35493143Y-81659894D01*
X35493143Y-80808902D01*
X40532877Y-80808902D01*
X40551894Y-81001994D01*
X40608219Y-81187671D01*
X40671650Y-81306341D01*
X41144511Y-80833481D01*
X41288793Y-80833481D01*
X41319008Y-80926471D01*
X41384432Y-80999133D01*
X41473755Y-81038902D01*
X41546815Y-81038902D01*
X41618282Y-81023711D01*
X41697385Y-80966240D01*
X41746273Y-80881564D01*
X41753910Y-80808901D01*
X41876196Y-80808901D01*
X42373635Y-81306341D01*
X42373635Y-81306340D01*
X42437065Y-81187676D01*
X42437065Y-81187674D01*
X42493391Y-81001994D01*
X42512408Y-80808901D01*
X42495665Y-80638902D01*
X55198863Y-80638902D01*
X55218170Y-80822600D01*
X55218171Y-80822603D01*
X55275246Y-80998263D01*
X55275249Y-80998270D01*
X55367603Y-81158233D01*
X55491193Y-81295495D01*
X55491200Y-81295501D01*
X55640631Y-81404069D01*
X55640632Y-81404070D01*
X55760904Y-81457618D01*
X55809374Y-81479198D01*
X55990048Y-81517602D01*
X56174758Y-81517602D01*
X56355432Y-81479198D01*
X56524173Y-81404070D01*
X56673607Y-81295500D01*
X56797202Y-81158234D01*
X56889557Y-80998270D01*
X56946636Y-80822600D01*
X56965943Y-80638902D01*
X56946636Y-80455204D01*
X56892601Y-80288902D01*
X59312182Y-80288902D01*
X59331954Y-80451744D01*
X59331955Y-80451747D01*
X59388423Y-80600641D01*
X59390126Y-80605130D01*
X59423958Y-80654144D01*
X59483311Y-80740131D01*
X59483313Y-80740133D01*
X59483315Y-80740135D01*
X59606094Y-80848908D01*
X59606095Y-80848908D01*
X59606097Y-80848910D01*
X59751348Y-80925144D01*
X59751350Y-80925144D01*
X59751351Y-80925145D01*
X59910621Y-80964402D01*
X59910622Y-80964402D01*
X60074665Y-80964402D01*
X60133493Y-80949902D01*
X62071699Y-80949902D01*
X62090464Y-81128439D01*
X62090465Y-81128441D01*
X62145937Y-81299166D01*
X62175822Y-81350928D01*
X62544358Y-80982394D01*
X62830403Y-80982394D01*
X62868600Y-81034967D01*
X62914565Y-81049902D01*
X62946241Y-81049902D01*
X62992206Y-81034967D01*
X63030403Y-80982394D01*
X63030403Y-80949901D01*
X63283955Y-80949901D01*
X63684982Y-81350929D01*
X63739720Y-81343723D01*
X63772091Y-81343723D01*
X63826823Y-81350928D01*
X64195358Y-80982394D01*
X64481403Y-80982394D01*
X64519600Y-81034967D01*
X64565565Y-81049902D01*
X64597241Y-81049902D01*
X64643206Y-81034967D01*
X64681403Y-80982394D01*
X64681403Y-80949902D01*
X64934955Y-80949902D01*
X65335982Y-81350929D01*
X65390720Y-81343723D01*
X65423091Y-81343723D01*
X65477822Y-81350928D01*
X65846356Y-80982394D01*
X66132403Y-80982394D01*
X66170600Y-81034967D01*
X66216565Y-81049902D01*
X66248241Y-81049902D01*
X66294206Y-81034967D01*
X66332403Y-80982394D01*
X66332403Y-80949902D01*
X66585956Y-80949902D01*
X66986982Y-81350929D01*
X66986983Y-81350929D01*
X67016867Y-81299169D01*
X67072340Y-81128441D01*
X67072341Y-81128439D01*
X67091106Y-80949901D01*
X67072341Y-80771364D01*
X67072340Y-80771362D01*
X67016870Y-80600641D01*
X67016867Y-80600635D01*
X66986982Y-80548873D01*
X66585956Y-80949901D01*
X66585956Y-80949902D01*
X66332403Y-80949902D01*
X66332403Y-80917410D01*
X66294206Y-80864837D01*
X66248241Y-80849902D01*
X66216565Y-80849902D01*
X66170600Y-80864837D01*
X66132403Y-80917410D01*
X66132403Y-80982394D01*
X65846356Y-80982394D01*
X65878848Y-80949902D01*
X65878848Y-80949901D01*
X65862279Y-80933331D01*
X65842172Y-80933331D01*
X65825131Y-80942635D01*
X65755440Y-80937648D01*
X65711097Y-80909149D01*
X65343403Y-80541455D01*
X64934955Y-80949902D01*
X64681403Y-80949902D01*
X64681403Y-80917410D01*
X64643206Y-80864837D01*
X64597241Y-80849902D01*
X64565565Y-80849902D01*
X64519600Y-80864837D01*
X64481403Y-80917410D01*
X64481403Y-80982394D01*
X64195358Y-80982394D01*
X64227849Y-80949903D01*
X64227849Y-80949902D01*
X64147779Y-80869831D01*
X64147778Y-80869831D01*
X64108460Y-80909149D01*
X64047137Y-80942634D01*
X63977445Y-80937650D01*
X63933098Y-80909149D01*
X63628904Y-80604954D01*
X63628903Y-80604954D01*
X63283956Y-80949900D01*
X63283955Y-80949901D01*
X63030403Y-80949901D01*
X63030403Y-80917410D01*
X62992206Y-80864837D01*
X62946241Y-80849902D01*
X62914565Y-80849902D01*
X62868600Y-80864837D01*
X62830403Y-80917410D01*
X62830403Y-80982394D01*
X62544358Y-80982394D01*
X62576850Y-80949902D01*
X62175822Y-80548874D01*
X62145937Y-80600637D01*
X62090465Y-80771362D01*
X62090464Y-80771364D01*
X62071699Y-80949902D01*
X60133493Y-80949902D01*
X60233934Y-80925145D01*
X60233934Y-80925144D01*
X60233938Y-80925144D01*
X60379189Y-80848910D01*
X60501975Y-80740131D01*
X60595161Y-80605128D01*
X60653331Y-80451747D01*
X60673104Y-80288902D01*
X60661599Y-80194152D01*
X62528205Y-80194152D01*
X62866903Y-80532849D01*
X63179358Y-80220394D01*
X63465403Y-80220394D01*
X63503600Y-80272967D01*
X63549565Y-80287902D01*
X63581241Y-80287902D01*
X63627206Y-80272967D01*
X63665403Y-80220394D01*
X63665403Y-80187902D01*
X63918956Y-80187902D01*
X63999025Y-80267970D01*
X64038343Y-80228653D01*
X64099666Y-80195168D01*
X64169358Y-80200152D01*
X64213706Y-80228653D01*
X64581402Y-80596349D01*
X64957358Y-80220394D01*
X65243403Y-80220394D01*
X65281600Y-80272967D01*
X65327565Y-80287902D01*
X65359241Y-80287902D01*
X65405206Y-80272967D01*
X65443403Y-80220394D01*
X65443403Y-80187902D01*
X65696956Y-80187902D01*
X65713526Y-80204472D01*
X65733629Y-80204472D01*
X65750668Y-80195168D01*
X65820360Y-80200152D01*
X65864707Y-80228653D01*
X66232403Y-80596349D01*
X66232404Y-80596349D01*
X66634599Y-80194152D01*
X66625860Y-80146999D01*
X66625859Y-80101804D01*
X66634598Y-80054650D01*
X66597850Y-80017902D01*
X68354942Y-80017902D01*
X68374714Y-80180744D01*
X68374715Y-80180747D01*
X68412182Y-80279540D01*
X68432886Y-80334130D01*
X68471038Y-80389402D01*
X68526071Y-80469131D01*
X68526073Y-80469133D01*
X68526075Y-80469135D01*
X68648854Y-80577908D01*
X68648855Y-80577908D01*
X68648857Y-80577910D01*
X68794108Y-80654144D01*
X68794110Y-80654144D01*
X68794111Y-80654145D01*
X68953381Y-80693402D01*
X68953382Y-80693402D01*
X69117425Y-80693402D01*
X69276694Y-80654145D01*
X69276694Y-80654144D01*
X69276698Y-80654144D01*
X69421949Y-80577910D01*
X69544735Y-80469131D01*
X69637921Y-80334128D01*
X69696091Y-80180747D01*
X69715864Y-80017902D01*
X69696091Y-79855057D01*
X69637921Y-79701676D01*
X69636714Y-79699928D01*
X69611337Y-79663163D01*
X69544735Y-79566673D01*
X69544732Y-79566670D01*
X69544730Y-79566668D01*
X69421951Y-79457895D01*
X69309550Y-79398902D01*
X69276698Y-79381660D01*
X69276697Y-79381659D01*
X69276694Y-79381658D01*
X69117425Y-79342402D01*
X69117424Y-79342402D01*
X68953382Y-79342402D01*
X68953381Y-79342402D01*
X68794111Y-79381658D01*
X68648854Y-79457895D01*
X68526075Y-79566668D01*
X68526069Y-79566675D01*
X68432886Y-79701673D01*
X68374715Y-79855056D01*
X68374714Y-79855059D01*
X68354942Y-80017901D01*
X68354942Y-80017902D01*
X66597850Y-80017902D01*
X66232403Y-79652455D01*
X65696956Y-80187902D01*
X65443403Y-80187902D01*
X65443403Y-80155410D01*
X65405206Y-80102837D01*
X65359241Y-80087902D01*
X65327565Y-80087902D01*
X65281600Y-80102837D01*
X65243403Y-80155410D01*
X65243403Y-80220394D01*
X64957358Y-80220394D01*
X64989850Y-80187902D01*
X64622154Y-79820206D01*
X64588669Y-79758883D01*
X64593653Y-79689191D01*
X64597973Y-79682469D01*
X64597973Y-79669025D01*
X64581403Y-79652455D01*
X64213707Y-80020150D01*
X64152384Y-80053635D01*
X64082692Y-80048651D01*
X64075970Y-80044331D01*
X64062526Y-80044331D01*
X63918956Y-80187902D01*
X63665403Y-80187902D01*
X63665403Y-80155410D01*
X63627206Y-80102837D01*
X63581241Y-80087902D01*
X63549565Y-80087902D01*
X63503600Y-80102837D01*
X63465403Y-80155410D01*
X63465403Y-80220394D01*
X63179358Y-80220394D01*
X63211850Y-80187902D01*
X63211850Y-80187901D01*
X62803404Y-79779454D01*
X62803403Y-79779454D01*
X62528206Y-80054650D01*
X62536945Y-80101804D01*
X62536945Y-80146997D01*
X62528205Y-80194152D01*
X60661599Y-80194152D01*
X60653331Y-80126057D01*
X60595161Y-79972676D01*
X60501975Y-79837673D01*
X60501972Y-79837670D01*
X60501970Y-79837668D01*
X60379191Y-79728895D01*
X60253936Y-79663156D01*
X60233938Y-79652660D01*
X60233937Y-79652659D01*
X60233934Y-79652658D01*
X60074665Y-79613402D01*
X60074664Y-79613402D01*
X59910622Y-79613402D01*
X59910621Y-79613402D01*
X59751351Y-79652658D01*
X59606094Y-79728895D01*
X59483315Y-79837668D01*
X59483309Y-79837675D01*
X59390126Y-79972673D01*
X59331955Y-80126056D01*
X59331954Y-80126059D01*
X59312182Y-80288901D01*
X59312182Y-80288902D01*
X56892601Y-80288902D01*
X56889557Y-80279534D01*
X56797202Y-80119570D01*
X56782136Y-80102837D01*
X56673612Y-79982308D01*
X56673605Y-79982302D01*
X56524174Y-79873734D01*
X56524173Y-79873733D01*
X56355431Y-79798605D01*
X56174758Y-79760202D01*
X55990048Y-79760202D01*
X55809374Y-79798605D01*
X55809373Y-79798605D01*
X55640632Y-79873733D01*
X55640631Y-79873734D01*
X55491200Y-79982302D01*
X55491193Y-79982308D01*
X55367603Y-80119570D01*
X55275249Y-80279533D01*
X55275246Y-80279540D01*
X55239550Y-80389402D01*
X55218170Y-80455204D01*
X55198863Y-80638902D01*
X42495665Y-80638902D01*
X42493391Y-80615809D01*
X42437066Y-80430132D01*
X42373635Y-80311461D01*
X41876196Y-80808901D01*
X41753910Y-80808901D01*
X41756493Y-80784323D01*
X41726278Y-80691333D01*
X41660854Y-80618671D01*
X41571531Y-80578902D01*
X41498471Y-80578902D01*
X41427004Y-80594093D01*
X41347901Y-80651564D01*
X41299013Y-80736240D01*
X41288793Y-80833481D01*
X41144511Y-80833481D01*
X41169090Y-80808902D01*
X40671650Y-80311462D01*
X40608219Y-80430132D01*
X40551894Y-80615809D01*
X40532877Y-80808902D01*
X35493143Y-80808902D01*
X35493143Y-79957909D01*
X41025203Y-79957909D01*
X41522641Y-80455349D01*
X41522642Y-80455349D01*
X42020081Y-79957909D01*
X41901412Y-79894478D01*
X41715735Y-79838153D01*
X41522643Y-79819136D01*
X41329550Y-79838153D01*
X41143873Y-79894478D01*
X41025203Y-79957909D01*
X35493143Y-79957909D01*
X35493143Y-78888902D01*
X56209103Y-78888902D01*
X56228410Y-79072600D01*
X56228411Y-79072603D01*
X56285486Y-79248263D01*
X56285489Y-79248270D01*
X56377843Y-79408233D01*
X56501433Y-79545495D01*
X56501440Y-79545501D01*
X56650871Y-79654069D01*
X56650872Y-79654070D01*
X56757798Y-79701676D01*
X56819614Y-79729198D01*
X57000288Y-79767602D01*
X57184998Y-79767602D01*
X57365672Y-79729198D01*
X57534413Y-79654070D01*
X57683847Y-79545500D01*
X57699584Y-79528023D01*
X57727863Y-79496614D01*
X57807442Y-79408234D01*
X57870565Y-79298902D01*
X62071699Y-79298902D01*
X62090464Y-79477439D01*
X62090465Y-79477441D01*
X62145937Y-79648166D01*
X62175822Y-79699928D01*
X62544358Y-79331394D01*
X62830403Y-79331394D01*
X62868600Y-79383967D01*
X62914565Y-79398902D01*
X62946241Y-79398902D01*
X62992206Y-79383967D01*
X63030403Y-79331394D01*
X63030403Y-79298902D01*
X63283956Y-79298902D01*
X63692402Y-79707348D01*
X63933098Y-79466653D01*
X63994421Y-79433168D01*
X64064112Y-79438152D01*
X64070834Y-79442472D01*
X64084279Y-79442472D01*
X64195357Y-79331394D01*
X64481403Y-79331394D01*
X64519600Y-79383967D01*
X64565565Y-79398902D01*
X64597241Y-79398902D01*
X64643206Y-79383967D01*
X64681403Y-79331394D01*
X64681403Y-79298902D01*
X64934954Y-79298902D01*
X65302650Y-79666596D01*
X65336135Y-79727919D01*
X65331151Y-79797610D01*
X65326832Y-79804330D01*
X65326832Y-79817777D01*
X65343403Y-79834349D01*
X65798781Y-79378972D01*
X65846358Y-79331394D01*
X66132403Y-79331394D01*
X66170600Y-79383967D01*
X66216565Y-79398902D01*
X66248241Y-79398902D01*
X66294206Y-79383967D01*
X66332403Y-79331394D01*
X66332403Y-79298903D01*
X66585956Y-79298903D01*
X66986982Y-79699929D01*
X66986983Y-79699929D01*
X67016867Y-79648169D01*
X67072340Y-79477441D01*
X67072341Y-79477439D01*
X67091106Y-79298902D01*
X67072341Y-79120364D01*
X67072340Y-79120362D01*
X67016870Y-78949641D01*
X67016867Y-78949635D01*
X66986982Y-78897873D01*
X66585956Y-79298901D01*
X66585956Y-79298903D01*
X66332403Y-79298903D01*
X66332403Y-79266410D01*
X66294206Y-79213837D01*
X66248241Y-79198902D01*
X66216565Y-79198902D01*
X66170600Y-79213837D01*
X66132403Y-79266410D01*
X66132403Y-79331394D01*
X65846358Y-79331394D01*
X65878849Y-79298902D01*
X65878849Y-79298901D01*
X65798781Y-79218832D01*
X65343403Y-78763455D01*
X65343402Y-78763454D01*
X65326832Y-78780024D01*
X65326831Y-78800129D01*
X65336135Y-78817167D01*
X65331151Y-78886859D01*
X65302650Y-78931206D01*
X64934954Y-79298901D01*
X64934954Y-79298902D01*
X64681403Y-79298902D01*
X64681403Y-79266410D01*
X64643206Y-79213837D01*
X64597241Y-79198902D01*
X64565565Y-79198902D01*
X64519600Y-79213837D01*
X64481403Y-79266410D01*
X64481403Y-79331394D01*
X64195357Y-79331394D01*
X64227849Y-79298902D01*
X64227849Y-79298901D01*
X64147781Y-79218832D01*
X63692403Y-78763455D01*
X63692402Y-78763454D01*
X63675832Y-78780024D01*
X63675831Y-78800125D01*
X63685135Y-78817162D01*
X63680154Y-78886854D01*
X63651651Y-78931206D01*
X63283956Y-79298901D01*
X63283956Y-79298902D01*
X63030403Y-79298902D01*
X63030403Y-79266410D01*
X62992206Y-79213837D01*
X62946241Y-79198902D01*
X62914565Y-79198902D01*
X62868600Y-79213837D01*
X62830403Y-79266410D01*
X62830403Y-79331394D01*
X62544358Y-79331394D01*
X62576850Y-79298902D01*
X62175822Y-78897874D01*
X62145937Y-78949637D01*
X62090465Y-79120362D01*
X62090464Y-79120364D01*
X62071699Y-79298902D01*
X57870565Y-79298902D01*
X57899797Y-79248270D01*
X57956876Y-79072600D01*
X57976183Y-78888902D01*
X57956876Y-78705204D01*
X57899797Y-78529534D01*
X57807442Y-78369570D01*
X57778722Y-78337673D01*
X57734809Y-78288902D01*
X59812182Y-78288902D01*
X59831954Y-78451744D01*
X59831955Y-78451747D01*
X59868803Y-78548908D01*
X59890126Y-78605130D01*
X59905734Y-78627742D01*
X59983311Y-78740131D01*
X59983313Y-78740133D01*
X59983315Y-78740135D01*
X60106094Y-78848908D01*
X60106095Y-78848908D01*
X60106097Y-78848910D01*
X60251348Y-78925144D01*
X60251350Y-78925144D01*
X60251351Y-78925145D01*
X60410621Y-78964402D01*
X60410622Y-78964402D01*
X60574665Y-78964402D01*
X60733934Y-78925145D01*
X60733934Y-78925144D01*
X60733938Y-78925144D01*
X60879189Y-78848910D01*
X61001975Y-78740131D01*
X61095161Y-78605128D01*
X61118666Y-78543152D01*
X62528205Y-78543152D01*
X62930401Y-78945348D01*
X62946972Y-78928777D01*
X62946972Y-78908676D01*
X62937670Y-78891641D01*
X62942651Y-78821949D01*
X62971154Y-78777597D01*
X63306357Y-78442394D01*
X63592403Y-78442394D01*
X63630600Y-78494967D01*
X63676565Y-78509902D01*
X63708241Y-78509902D01*
X63754206Y-78494967D01*
X63792403Y-78442394D01*
X63792403Y-78409901D01*
X64045955Y-78409901D01*
X64581402Y-78945348D01*
X64597972Y-78928777D01*
X64597972Y-78908676D01*
X64588670Y-78891641D01*
X64593651Y-78821949D01*
X64622154Y-78777597D01*
X64957356Y-78442394D01*
X65243403Y-78442394D01*
X65281600Y-78494967D01*
X65327565Y-78509902D01*
X65359241Y-78509902D01*
X65405206Y-78494967D01*
X65443403Y-78442394D01*
X65443403Y-78409901D01*
X65696955Y-78409901D01*
X66232403Y-78945349D01*
X66232404Y-78945349D01*
X66388850Y-78788902D01*
X79322182Y-78788902D01*
X79341954Y-78951744D01*
X79341955Y-78951747D01*
X79380226Y-79052660D01*
X79400126Y-79105130D01*
X79416530Y-79128895D01*
X79493311Y-79240131D01*
X79493313Y-79240133D01*
X79493315Y-79240135D01*
X79616094Y-79348908D01*
X79616095Y-79348908D01*
X79616097Y-79348910D01*
X79761348Y-79425144D01*
X79761351Y-79425144D01*
X79761352Y-79425145D01*
X79783683Y-79430649D01*
X79844064Y-79465804D01*
X79875853Y-79528023D01*
X79877105Y-79565992D01*
X79862182Y-79688901D01*
X79862182Y-79688902D01*
X79881954Y-79851744D01*
X79881955Y-79851747D01*
X79931470Y-79982308D01*
X79940126Y-80005130D01*
X79997260Y-80087902D01*
X80033311Y-80140131D01*
X80033313Y-80140133D01*
X80033315Y-80140135D01*
X80156094Y-80248908D01*
X80156095Y-80248908D01*
X80156097Y-80248910D01*
X80301348Y-80325144D01*
X80301350Y-80325144D01*
X80301351Y-80325145D01*
X80460621Y-80364402D01*
X80460622Y-80364402D01*
X80624665Y-80364402D01*
X80783934Y-80325145D01*
X80783934Y-80325144D01*
X80783938Y-80325144D01*
X80929189Y-80248910D01*
X81051975Y-80140131D01*
X81145161Y-80005128D01*
X81203331Y-79851747D01*
X81223104Y-79688902D01*
X129086998Y-79688902D01*
X129107502Y-79857771D01*
X129107503Y-79857776D01*
X129167825Y-80016833D01*
X129170115Y-80020150D01*
X129264460Y-80156831D01*
X129318236Y-80204472D01*
X129391793Y-80269638D01*
X129536784Y-80345735D01*
X129542418Y-80348692D01*
X129707587Y-80389402D01*
X129877699Y-80389402D01*
X130042868Y-80348692D01*
X130156789Y-80288901D01*
X130193492Y-80269638D01*
X130193493Y-80269636D01*
X130193495Y-80269636D01*
X130320826Y-80156831D01*
X130417461Y-80016832D01*
X130477783Y-79857774D01*
X130498288Y-79688902D01*
X130477783Y-79520030D01*
X130417461Y-79360972D01*
X130413019Y-79354537D01*
X130383119Y-79311220D01*
X130320826Y-79220973D01*
X130216890Y-79128894D01*
X130193492Y-79108165D01*
X130042869Y-79029112D01*
X129877699Y-78988402D01*
X129707587Y-78988402D01*
X129542416Y-79029112D01*
X129391793Y-79108165D01*
X129264459Y-79220974D01*
X129167825Y-79360970D01*
X129107503Y-79520027D01*
X129107502Y-79520032D01*
X129086998Y-79688902D01*
X81223104Y-79688902D01*
X81220690Y-79669025D01*
X81205691Y-79545495D01*
X81203331Y-79526057D01*
X81145161Y-79372676D01*
X81051975Y-79237673D01*
X81051972Y-79237670D01*
X81051970Y-79237668D01*
X80929191Y-79128895D01*
X80923409Y-79125860D01*
X80783938Y-79052660D01*
X80783933Y-79052658D01*
X80783930Y-79052657D01*
X80783931Y-79052657D01*
X80761600Y-79047153D01*
X80701219Y-79011997D01*
X80669431Y-78949777D01*
X80668180Y-78911810D01*
X80669872Y-78897874D01*
X80683104Y-78788902D01*
X80679969Y-78763085D01*
X80691429Y-78694164D01*
X80738332Y-78642378D01*
X80773393Y-78627742D01*
X80783938Y-78625144D01*
X80929189Y-78548910D01*
X81051975Y-78440131D01*
X81145161Y-78305128D01*
X81203331Y-78151747D01*
X81223104Y-77988902D01*
X81221133Y-77972673D01*
X81205040Y-77840131D01*
X81203331Y-77826057D01*
X81145161Y-77672676D01*
X81139497Y-77664471D01*
X81072017Y-77566709D01*
X81051975Y-77537673D01*
X81051972Y-77537670D01*
X81051970Y-77537668D01*
X80929191Y-77428895D01*
X80852991Y-77388902D01*
X105437458Y-77388902D01*
X105443687Y-77448169D01*
X105456146Y-77566707D01*
X105456147Y-77566709D01*
X105511390Y-77736731D01*
X105511393Y-77736737D01*
X105600784Y-77891567D01*
X105629326Y-77923266D01*
X105720407Y-78024423D01*
X105720410Y-78024425D01*
X105720413Y-78024428D01*
X105865050Y-78129514D01*
X106028376Y-78202231D01*
X106203252Y-78239402D01*
X106203253Y-78239402D01*
X106382032Y-78239402D01*
X106382034Y-78239402D01*
X106556910Y-78202231D01*
X106720236Y-78129514D01*
X106864873Y-78024428D01*
X106873241Y-78015135D01*
X106896862Y-77988901D01*
X106984502Y-77891567D01*
X107073893Y-77736737D01*
X107129140Y-77566705D01*
X107147828Y-77388902D01*
X107129140Y-77211099D01*
X107097158Y-77112668D01*
X107073895Y-77041072D01*
X107073892Y-77041066D01*
X106984502Y-76886237D01*
X106928844Y-76824423D01*
X106864878Y-76753380D01*
X106864875Y-76753378D01*
X106864874Y-76753377D01*
X106864873Y-76753376D01*
X106720236Y-76648290D01*
X106556910Y-76575573D01*
X106556908Y-76575572D01*
X106429237Y-76548435D01*
X106382034Y-76538402D01*
X106203252Y-76538402D01*
X106172597Y-76544917D01*
X106028376Y-76575572D01*
X106028371Y-76575574D01*
X105865051Y-76648289D01*
X105720411Y-76753377D01*
X105600783Y-76886238D01*
X105511393Y-77041066D01*
X105511390Y-77041072D01*
X105456147Y-77211094D01*
X105456146Y-77211096D01*
X105446945Y-77298637D01*
X105437458Y-77388902D01*
X80852991Y-77388902D01*
X80783934Y-77352658D01*
X80624665Y-77313402D01*
X80624664Y-77313402D01*
X80460622Y-77313402D01*
X80460621Y-77313402D01*
X80301351Y-77352658D01*
X80156094Y-77428895D01*
X80033315Y-77537668D01*
X80033309Y-77537675D01*
X79940126Y-77672673D01*
X79881955Y-77826056D01*
X79881954Y-77826059D01*
X79862182Y-77988901D01*
X79862182Y-77988904D01*
X79865316Y-78014719D01*
X79853855Y-78083642D01*
X79806950Y-78135427D01*
X79771902Y-78150058D01*
X79761348Y-78152659D01*
X79761344Y-78152661D01*
X79616098Y-78228892D01*
X79616096Y-78228894D01*
X79493315Y-78337668D01*
X79493309Y-78337675D01*
X79400126Y-78472673D01*
X79341955Y-78626056D01*
X79341954Y-78626059D01*
X79322182Y-78788901D01*
X79322182Y-78788902D01*
X66388850Y-78788902D01*
X66634599Y-78543152D01*
X66625860Y-78495999D01*
X66625859Y-78450804D01*
X66634598Y-78403650D01*
X66232403Y-78001455D01*
X65864707Y-78369150D01*
X65803384Y-78402635D01*
X65733692Y-78397651D01*
X65726969Y-78393330D01*
X65713525Y-78393331D01*
X65696955Y-78409901D01*
X65443403Y-78409901D01*
X65443403Y-78377410D01*
X65405206Y-78324837D01*
X65359241Y-78309902D01*
X65327565Y-78309902D01*
X65281600Y-78324837D01*
X65243403Y-78377410D01*
X65243403Y-78442394D01*
X64957356Y-78442394D01*
X64989849Y-78409901D01*
X64581403Y-78001455D01*
X64213707Y-78369150D01*
X64152384Y-78402635D01*
X64082692Y-78397651D01*
X64075969Y-78393330D01*
X64062525Y-78393331D01*
X64045955Y-78409901D01*
X63792403Y-78409901D01*
X63792403Y-78377410D01*
X63754206Y-78324837D01*
X63708241Y-78309902D01*
X63676565Y-78309902D01*
X63630600Y-78324837D01*
X63592403Y-78377410D01*
X63592403Y-78442394D01*
X63306357Y-78442394D01*
X63338850Y-78409901D01*
X62930404Y-78001455D01*
X62930403Y-78001455D01*
X62528206Y-78403650D01*
X62536945Y-78450804D01*
X62536945Y-78495997D01*
X62528205Y-78543152D01*
X61118666Y-78543152D01*
X61153331Y-78451747D01*
X61173104Y-78288902D01*
X61153331Y-78126057D01*
X61095161Y-77972676D01*
X61001975Y-77837673D01*
X61001972Y-77837670D01*
X61001970Y-77837668D01*
X60879191Y-77728895D01*
X60756442Y-77664471D01*
X60733938Y-77652660D01*
X60733937Y-77652659D01*
X60733934Y-77652658D01*
X60714638Y-77647902D01*
X62071699Y-77647902D01*
X62090464Y-77826439D01*
X62090465Y-77826441D01*
X62145937Y-77997166D01*
X62175822Y-78048928D01*
X62544358Y-77680394D01*
X62830403Y-77680394D01*
X62868600Y-77732967D01*
X62914565Y-77747902D01*
X62946241Y-77747902D01*
X62992206Y-77732967D01*
X63030403Y-77680394D01*
X63030403Y-77647901D01*
X63283955Y-77647901D01*
X63692402Y-78056348D01*
X64060098Y-77688653D01*
X64075223Y-77680394D01*
X64481403Y-77680394D01*
X64519600Y-77732967D01*
X64565565Y-77747902D01*
X64597241Y-77747902D01*
X64643206Y-77732967D01*
X64681403Y-77680394D01*
X64681403Y-77647902D01*
X64934955Y-77647902D01*
X65343403Y-78056349D01*
X65343404Y-78056349D01*
X65711098Y-77688654D01*
X65726225Y-77680394D01*
X66132403Y-77680394D01*
X66170600Y-77732967D01*
X66216565Y-77747902D01*
X66248241Y-77747902D01*
X66294206Y-77732967D01*
X66332403Y-77680394D01*
X66332403Y-77647902D01*
X66585955Y-77647902D01*
X66986982Y-78048929D01*
X66986983Y-78048929D01*
X67016867Y-77997169D01*
X67072340Y-77826441D01*
X67072341Y-77826439D01*
X67091106Y-77647901D01*
X67082277Y-77563902D01*
X76612182Y-77563902D01*
X76631954Y-77726744D01*
X76631955Y-77726747D01*
X76669763Y-77826439D01*
X76690126Y-77880130D01*
X76719901Y-77923266D01*
X76783311Y-78015131D01*
X76783313Y-78015133D01*
X76783315Y-78015135D01*
X76906094Y-78123908D01*
X76906095Y-78123908D01*
X76906097Y-78123910D01*
X77051348Y-78200144D01*
X77051350Y-78200144D01*
X77051351Y-78200145D01*
X77210621Y-78239402D01*
X77210622Y-78239402D01*
X77374665Y-78239402D01*
X77533934Y-78200145D01*
X77533934Y-78200144D01*
X77533938Y-78200144D01*
X77679189Y-78123910D01*
X77801975Y-78015131D01*
X77895161Y-77880128D01*
X77953331Y-77726747D01*
X77973104Y-77563902D01*
X77969919Y-77537675D01*
X77953331Y-77401059D01*
X77953331Y-77401057D01*
X77895161Y-77247676D01*
X77801975Y-77112673D01*
X77801972Y-77112670D01*
X77801970Y-77112668D01*
X77679191Y-77003895D01*
X77553016Y-76937673D01*
X77533938Y-76927660D01*
X77533937Y-76927659D01*
X77533934Y-76927658D01*
X77374665Y-76888402D01*
X77374664Y-76888402D01*
X77210622Y-76888402D01*
X77210621Y-76888402D01*
X77051351Y-76927658D01*
X76906094Y-77003895D01*
X76783315Y-77112668D01*
X76783309Y-77112675D01*
X76690126Y-77247673D01*
X76631955Y-77401056D01*
X76631954Y-77401059D01*
X76612182Y-77563901D01*
X76612182Y-77563902D01*
X67082277Y-77563902D01*
X67072341Y-77469364D01*
X67072340Y-77469362D01*
X67016870Y-77298641D01*
X67016867Y-77298635D01*
X66986982Y-77246873D01*
X66585955Y-77647901D01*
X66585955Y-77647902D01*
X66332403Y-77647902D01*
X66332403Y-77615410D01*
X66294206Y-77562837D01*
X66248241Y-77547902D01*
X66216565Y-77547902D01*
X66170600Y-77562837D01*
X66132403Y-77615410D01*
X66132403Y-77680394D01*
X65726225Y-77680394D01*
X65772421Y-77655169D01*
X65842112Y-77660153D01*
X65848832Y-77664471D01*
X65862278Y-77664471D01*
X65878849Y-77647901D01*
X65477821Y-77246873D01*
X65423090Y-77254079D01*
X65390721Y-77254079D01*
X65335983Y-77246873D01*
X64934955Y-77647901D01*
X64934955Y-77647902D01*
X64681403Y-77647902D01*
X64681403Y-77615410D01*
X64643206Y-77562837D01*
X64597241Y-77547902D01*
X64565565Y-77547902D01*
X64519600Y-77562837D01*
X64481403Y-77615410D01*
X64481403Y-77680394D01*
X64075223Y-77680394D01*
X64121421Y-77655168D01*
X64191112Y-77660152D01*
X64197834Y-77664472D01*
X64211278Y-77664472D01*
X64227848Y-77647901D01*
X63826821Y-77246873D01*
X63772090Y-77254079D01*
X63739721Y-77254079D01*
X63684983Y-77246873D01*
X63283955Y-77647901D01*
X63030403Y-77647901D01*
X63030403Y-77615410D01*
X62992206Y-77562837D01*
X62946241Y-77547902D01*
X62914565Y-77547902D01*
X62868600Y-77562837D01*
X62830403Y-77615410D01*
X62830403Y-77680394D01*
X62544358Y-77680394D01*
X62576850Y-77647902D01*
X62175822Y-77246874D01*
X62145937Y-77298637D01*
X62090465Y-77469362D01*
X62090464Y-77469364D01*
X62071699Y-77647902D01*
X60714638Y-77647902D01*
X60574665Y-77613402D01*
X60574664Y-77613402D01*
X60410622Y-77613402D01*
X60410621Y-77613402D01*
X60251351Y-77652658D01*
X60106094Y-77728895D01*
X59983315Y-77837668D01*
X59983309Y-77837675D01*
X59890126Y-77972673D01*
X59831955Y-78126056D01*
X59831954Y-78126059D01*
X59812182Y-78288901D01*
X59812182Y-78288902D01*
X57734809Y-78288902D01*
X57683852Y-78232308D01*
X57683845Y-78232302D01*
X57534414Y-78123734D01*
X57534413Y-78123733D01*
X57365671Y-78048605D01*
X57184998Y-78010202D01*
X57000288Y-78010202D01*
X56819614Y-78048605D01*
X56819613Y-78048605D01*
X56650872Y-78123733D01*
X56650871Y-78123734D01*
X56501440Y-78232302D01*
X56501433Y-78232308D01*
X56377843Y-78369570D01*
X56285489Y-78529533D01*
X56285486Y-78529540D01*
X56245036Y-78654034D01*
X56228410Y-78705204D01*
X56209103Y-78888902D01*
X35493143Y-78888902D01*
X35493143Y-77388902D01*
X57712182Y-77388902D01*
X57731954Y-77551744D01*
X57731955Y-77551747D01*
X57777816Y-77672673D01*
X57790126Y-77705130D01*
X57806530Y-77728895D01*
X57883311Y-77840131D01*
X57883313Y-77840133D01*
X57883315Y-77840135D01*
X58006094Y-77948908D01*
X58006095Y-77948908D01*
X58006097Y-77948910D01*
X58151348Y-78025144D01*
X58151350Y-78025144D01*
X58151351Y-78025145D01*
X58310621Y-78064402D01*
X58310622Y-78064402D01*
X58474665Y-78064402D01*
X58633934Y-78025145D01*
X58633934Y-78025144D01*
X58633938Y-78025144D01*
X58779189Y-77948910D01*
X58901975Y-77840131D01*
X58995161Y-77705128D01*
X59053331Y-77551747D01*
X59073104Y-77388902D01*
X59053331Y-77226057D01*
X58995161Y-77072676D01*
X58901975Y-76937673D01*
X58901972Y-76937670D01*
X58901970Y-76937668D01*
X58850593Y-76892152D01*
X62528205Y-76892152D01*
X62930403Y-77294349D01*
X62930404Y-77294349D01*
X63332599Y-76892152D01*
X64179205Y-76892152D01*
X64581403Y-77294349D01*
X64581404Y-77294349D01*
X64983599Y-76892152D01*
X65830205Y-76892152D01*
X66232403Y-77294349D01*
X66232404Y-77294349D01*
X66634599Y-76892152D01*
X66497754Y-76831225D01*
X66322162Y-76793902D01*
X66142644Y-76793902D01*
X65967051Y-76831225D01*
X65830205Y-76892151D01*
X65830205Y-76892152D01*
X64983599Y-76892152D01*
X64846754Y-76831225D01*
X64671162Y-76793902D01*
X64491644Y-76793902D01*
X64316051Y-76831225D01*
X64179205Y-76892151D01*
X64179205Y-76892152D01*
X63332599Y-76892152D01*
X63195754Y-76831225D01*
X63020162Y-76793902D01*
X62840644Y-76793902D01*
X62665051Y-76831225D01*
X62528205Y-76892151D01*
X62528205Y-76892152D01*
X58850593Y-76892152D01*
X58779191Y-76828895D01*
X58633934Y-76752658D01*
X58474665Y-76713402D01*
X58474664Y-76713402D01*
X58310622Y-76713402D01*
X58310621Y-76713402D01*
X58151351Y-76752658D01*
X58006094Y-76828895D01*
X57883315Y-76937668D01*
X57883309Y-76937675D01*
X57790126Y-77072673D01*
X57731955Y-77226056D01*
X57731954Y-77226059D01*
X57712182Y-77388901D01*
X57712182Y-77388902D01*
X35493143Y-77388902D01*
X35493143Y-74988902D01*
X58912182Y-74988902D01*
X58931954Y-75151744D01*
X58931955Y-75151747D01*
X58975187Y-75265741D01*
X58990126Y-75305130D01*
X59021769Y-75350972D01*
X59083311Y-75440131D01*
X59083313Y-75440133D01*
X59083315Y-75440135D01*
X59206094Y-75548908D01*
X59206095Y-75548908D01*
X59206097Y-75548910D01*
X59351348Y-75625144D01*
X59351350Y-75625144D01*
X59351351Y-75625145D01*
X59510621Y-75664402D01*
X59510622Y-75664402D01*
X59674665Y-75664402D01*
X59833934Y-75625145D01*
X59833934Y-75625144D01*
X59833938Y-75625144D01*
X59979189Y-75548910D01*
X60101975Y-75440131D01*
X60195161Y-75305128D01*
X60253331Y-75151747D01*
X60273104Y-74988902D01*
X60258108Y-74865402D01*
X61784942Y-74865402D01*
X61804714Y-75028244D01*
X61804715Y-75028247D01*
X61851551Y-75151744D01*
X61862886Y-75181630D01*
X61920940Y-75265735D01*
X61956071Y-75316631D01*
X61956073Y-75316633D01*
X61956075Y-75316635D01*
X62078854Y-75425408D01*
X62078855Y-75425408D01*
X62078857Y-75425410D01*
X62224108Y-75501644D01*
X62224110Y-75501644D01*
X62224111Y-75501645D01*
X62383381Y-75540902D01*
X62383382Y-75540902D01*
X62547425Y-75540902D01*
X62706694Y-75501645D01*
X62706694Y-75501644D01*
X62706698Y-75501644D01*
X62851949Y-75425410D01*
X62974735Y-75316631D01*
X63067921Y-75181628D01*
X63126091Y-75028247D01*
X63141918Y-74897902D01*
X63794942Y-74897902D01*
X63814714Y-75060744D01*
X63814715Y-75060747D01*
X63871688Y-75210973D01*
X63872886Y-75214130D01*
X63935698Y-75305128D01*
X63966071Y-75349131D01*
X63966073Y-75349133D01*
X63966075Y-75349135D01*
X64088854Y-75457908D01*
X64088855Y-75457908D01*
X64088857Y-75457910D01*
X64234108Y-75534144D01*
X64234110Y-75534144D01*
X64234111Y-75534145D01*
X64393381Y-75573402D01*
X64393382Y-75573402D01*
X64557425Y-75573402D01*
X64716694Y-75534145D01*
X64716694Y-75534144D01*
X64716698Y-75534144D01*
X64861949Y-75457910D01*
X64884398Y-75438022D01*
X66924822Y-75438022D01*
X66944594Y-75600864D01*
X66944595Y-75600867D01*
X67002765Y-75754248D01*
X67095951Y-75889251D01*
X67095953Y-75889253D01*
X67095955Y-75889255D01*
X67218734Y-75998028D01*
X67218735Y-75998028D01*
X67218737Y-75998030D01*
X67363988Y-76074264D01*
X67363990Y-76074264D01*
X67363991Y-76074265D01*
X67523261Y-76113522D01*
X67523262Y-76113522D01*
X67687305Y-76113522D01*
X67846574Y-76074265D01*
X67846574Y-76074264D01*
X67846578Y-76074264D01*
X67991829Y-75998030D01*
X68114615Y-75889251D01*
X68207801Y-75754248D01*
X68236376Y-75678902D01*
X68826758Y-75678902D01*
X68847262Y-75847771D01*
X68847263Y-75847776D01*
X68907585Y-76006833D01*
X68964234Y-76088902D01*
X69004220Y-76146831D01*
X69051709Y-76188902D01*
X69131553Y-76259638D01*
X69282176Y-76338691D01*
X69282178Y-76338692D01*
X69447347Y-76379402D01*
X69617459Y-76379402D01*
X69782628Y-76338692D01*
X69862095Y-76296983D01*
X69933252Y-76259638D01*
X69933253Y-76259636D01*
X69933255Y-76259636D01*
X70060586Y-76146831D01*
X70157221Y-76006832D01*
X70217543Y-75847774D01*
X70236834Y-75688902D01*
X72012182Y-75688902D01*
X72031954Y-75851744D01*
X72031955Y-75851747D01*
X72087432Y-75998028D01*
X72090126Y-76005130D01*
X72137846Y-76074264D01*
X72183311Y-76140131D01*
X72183313Y-76140133D01*
X72183315Y-76140135D01*
X72306094Y-76248908D01*
X72306095Y-76248908D01*
X72306097Y-76248910D01*
X72451348Y-76325144D01*
X72451350Y-76325144D01*
X72451351Y-76325145D01*
X72610621Y-76364402D01*
X72610622Y-76364402D01*
X72774665Y-76364402D01*
X72933934Y-76325145D01*
X72933934Y-76325144D01*
X72933938Y-76325144D01*
X73079189Y-76248910D01*
X73146925Y-76188901D01*
X79386998Y-76188901D01*
X79407502Y-76357771D01*
X79407503Y-76357776D01*
X79467825Y-76516833D01*
X79508371Y-76575573D01*
X79564460Y-76656831D01*
X79628316Y-76713402D01*
X79691793Y-76769638D01*
X79842416Y-76848691D01*
X79842418Y-76848692D01*
X80007587Y-76889402D01*
X80177699Y-76889402D01*
X80342868Y-76848692D01*
X80422335Y-76806983D01*
X80493492Y-76769638D01*
X80493493Y-76769636D01*
X80493495Y-76769636D01*
X80620826Y-76656831D01*
X80717461Y-76516832D01*
X80777783Y-76357774D01*
X80798288Y-76188902D01*
X80786146Y-76088902D01*
X94886998Y-76088902D01*
X94907502Y-76257771D01*
X94907503Y-76257776D01*
X94967825Y-76416833D01*
X95030118Y-76507079D01*
X95064460Y-76556831D01*
X95167695Y-76648289D01*
X95191793Y-76669638D01*
X95342416Y-76748691D01*
X95342418Y-76748692D01*
X95507587Y-76789402D01*
X95677699Y-76789402D01*
X95842868Y-76748692D01*
X95922335Y-76706983D01*
X95993492Y-76669638D01*
X95993493Y-76669636D01*
X95993495Y-76669636D01*
X96120826Y-76556831D01*
X96217461Y-76416832D01*
X96277783Y-76257774D01*
X96286146Y-76188902D01*
X154537458Y-76188902D01*
X154556146Y-76366707D01*
X154556147Y-76366709D01*
X154611390Y-76536731D01*
X154611393Y-76536737D01*
X154700784Y-76691567D01*
X154742455Y-76737848D01*
X154820407Y-76824423D01*
X154820410Y-76824425D01*
X154820413Y-76824428D01*
X154965050Y-76929514D01*
X155128376Y-77002231D01*
X155303252Y-77039402D01*
X155303253Y-77039402D01*
X155482032Y-77039402D01*
X155482034Y-77039402D01*
X155656910Y-77002231D01*
X155820236Y-76929514D01*
X155964873Y-76824428D01*
X156084502Y-76691567D01*
X156173893Y-76536737D01*
X156229140Y-76366705D01*
X156247828Y-76188902D01*
X156238369Y-76098903D01*
X247107033Y-76098903D01*
X247127447Y-76384335D01*
X247188271Y-76663939D01*
X247188273Y-76663945D01*
X247188274Y-76663948D01*
X247248128Y-76824423D01*
X247288278Y-76932068D01*
X247425413Y-77183211D01*
X247425418Y-77183219D01*
X247596897Y-77412289D01*
X247596913Y-77412307D01*
X247799237Y-77614631D01*
X247799255Y-77614647D01*
X248028325Y-77786126D01*
X248028333Y-77786131D01*
X248279476Y-77923266D01*
X248279475Y-77923266D01*
X248279479Y-77923267D01*
X248279482Y-77923269D01*
X248547597Y-78023271D01*
X248547603Y-78023272D01*
X248547605Y-78023273D01*
X248827209Y-78084097D01*
X248827211Y-78084097D01*
X248827215Y-78084098D01*
X249041195Y-78099402D01*
X252184091Y-78099402D01*
X252398071Y-78084098D01*
X252400168Y-78083642D01*
X252677680Y-78023273D01*
X252677680Y-78023272D01*
X252677689Y-78023271D01*
X252945804Y-77923269D01*
X253196958Y-77786128D01*
X253426038Y-77614641D01*
X253628382Y-77412297D01*
X253799869Y-77183217D01*
X253937010Y-76932063D01*
X254037012Y-76663948D01*
X254069015Y-76516832D01*
X254097838Y-76384335D01*
X254097838Y-76384334D01*
X254097839Y-76384330D01*
X254118253Y-76098902D01*
X254097839Y-75813474D01*
X254086417Y-75760970D01*
X254037014Y-75533864D01*
X254037013Y-75533862D01*
X254037012Y-75533856D01*
X253937010Y-75265741D01*
X253907104Y-75210973D01*
X253799872Y-75014592D01*
X253799867Y-75014584D01*
X253628388Y-74785514D01*
X253628372Y-74785496D01*
X253426048Y-74583172D01*
X253426030Y-74583156D01*
X253196960Y-74411677D01*
X253196952Y-74411672D01*
X252945809Y-74274537D01*
X252945810Y-74274537D01*
X252806030Y-74222402D01*
X252677689Y-74174533D01*
X252677686Y-74174532D01*
X252677680Y-74174530D01*
X252398076Y-74113706D01*
X252184093Y-74098402D01*
X252184091Y-74098402D01*
X249041195Y-74098402D01*
X249041192Y-74098402D01*
X248827209Y-74113706D01*
X248547605Y-74174530D01*
X248279476Y-74274537D01*
X248028333Y-74411672D01*
X248028325Y-74411677D01*
X247799255Y-74583156D01*
X247799237Y-74583172D01*
X247596913Y-74785496D01*
X247596897Y-74785514D01*
X247425418Y-75014584D01*
X247425413Y-75014592D01*
X247288278Y-75265735D01*
X247188271Y-75533864D01*
X247127447Y-75813468D01*
X247107033Y-76098900D01*
X247107033Y-76098903D01*
X156238369Y-76098903D01*
X156229140Y-76011099D01*
X156177363Y-75851747D01*
X156173895Y-75841072D01*
X156173892Y-75841066D01*
X156157962Y-75813474D01*
X156084502Y-75686237D01*
X156029494Y-75625145D01*
X155964878Y-75553380D01*
X155964875Y-75553378D01*
X155964874Y-75553377D01*
X155964873Y-75553376D01*
X155820236Y-75448290D01*
X155656910Y-75375573D01*
X155656908Y-75375572D01*
X155529237Y-75348435D01*
X155482034Y-75338402D01*
X155303252Y-75338402D01*
X155272597Y-75344917D01*
X155128376Y-75375572D01*
X155128371Y-75375574D01*
X154965051Y-75448289D01*
X154820411Y-75553377D01*
X154700783Y-75686238D01*
X154611393Y-75841066D01*
X154611390Y-75841072D01*
X154556147Y-76011094D01*
X154556146Y-76011096D01*
X154537458Y-76188902D01*
X96286146Y-76188902D01*
X96298288Y-76088902D01*
X96277783Y-75920030D01*
X96217461Y-75760972D01*
X96189851Y-75720973D01*
X96167714Y-75688902D01*
X96120826Y-75620973D01*
X96013688Y-75526057D01*
X95993492Y-75508165D01*
X95842869Y-75429112D01*
X95677699Y-75388402D01*
X95507587Y-75388402D01*
X95342416Y-75429112D01*
X95191793Y-75508165D01*
X95064459Y-75620974D01*
X94967825Y-75760970D01*
X94907503Y-75920027D01*
X94907502Y-75920032D01*
X94886998Y-76088902D01*
X80786146Y-76088902D01*
X80777783Y-76020030D01*
X80772131Y-76005128D01*
X80728186Y-75889251D01*
X80717461Y-75860972D01*
X80711093Y-75851747D01*
X80683119Y-75811220D01*
X80620826Y-75720973D01*
X80493495Y-75608168D01*
X80493492Y-75608165D01*
X80342869Y-75529112D01*
X80177699Y-75488402D01*
X80007587Y-75488402D01*
X79842416Y-75529112D01*
X79691793Y-75608165D01*
X79564459Y-75720974D01*
X79467825Y-75860970D01*
X79407503Y-76020027D01*
X79407502Y-76020032D01*
X79386998Y-76188901D01*
X73146925Y-76188901D01*
X73201975Y-76140131D01*
X73295161Y-76005128D01*
X73353331Y-75851747D01*
X73373104Y-75688902D01*
X73372780Y-75686237D01*
X73359080Y-75573402D01*
X73353331Y-75526057D01*
X73295161Y-75372676D01*
X73201975Y-75237673D01*
X73201972Y-75237670D01*
X73201970Y-75237668D01*
X73079191Y-75128895D01*
X72933934Y-75052658D01*
X72774665Y-75013402D01*
X72774664Y-75013402D01*
X72610622Y-75013402D01*
X72610621Y-75013402D01*
X72451351Y-75052658D01*
X72306094Y-75128895D01*
X72183315Y-75237668D01*
X72183309Y-75237675D01*
X72090126Y-75372673D01*
X72031955Y-75526056D01*
X72031954Y-75526059D01*
X72012182Y-75688901D01*
X72012182Y-75688902D01*
X70236834Y-75688902D01*
X70238048Y-75678902D01*
X70217543Y-75510030D01*
X70157221Y-75350972D01*
X70155950Y-75349131D01*
X70122879Y-75301220D01*
X70060586Y-75210973D01*
X69933255Y-75098168D01*
X69933252Y-75098165D01*
X69782629Y-75019112D01*
X69617459Y-74978402D01*
X69447347Y-74978402D01*
X69282176Y-75019112D01*
X69131553Y-75098165D01*
X69004219Y-75210974D01*
X68907585Y-75350970D01*
X68847263Y-75510027D01*
X68847262Y-75510032D01*
X68826758Y-75678902D01*
X68236376Y-75678902D01*
X68265971Y-75600867D01*
X68285744Y-75438022D01*
X68265971Y-75275177D01*
X68207801Y-75121796D01*
X68114615Y-74986793D01*
X68033598Y-74915018D01*
X67996473Y-74855831D01*
X67997241Y-74785966D01*
X68035658Y-74727606D01*
X68058193Y-74712413D01*
X68179189Y-74648910D01*
X68301975Y-74540131D01*
X68395161Y-74405128D01*
X68453331Y-74251747D01*
X68473104Y-74088902D01*
X68453331Y-73926057D01*
X68395161Y-73772676D01*
X68301975Y-73637673D01*
X68301972Y-73637670D01*
X68301970Y-73637668D01*
X68179191Y-73528895D01*
X68033934Y-73452658D01*
X67874665Y-73413402D01*
X67874664Y-73413402D01*
X67710622Y-73413402D01*
X67710621Y-73413402D01*
X67551351Y-73452658D01*
X67406094Y-73528895D01*
X67283315Y-73637668D01*
X67283309Y-73637675D01*
X67190126Y-73772673D01*
X67131955Y-73926056D01*
X67131954Y-73926059D01*
X67112182Y-74088901D01*
X67112182Y-74088902D01*
X67131954Y-74251744D01*
X67131955Y-74251747D01*
X67170226Y-74352660D01*
X67190126Y-74405130D01*
X67206530Y-74428895D01*
X67283311Y-74540131D01*
X67364326Y-74611904D01*
X67401452Y-74671092D01*
X67400684Y-74740957D01*
X67362267Y-74799317D01*
X67339724Y-74814514D01*
X67218738Y-74878012D01*
X67218736Y-74878014D01*
X67095955Y-74986788D01*
X67095949Y-74986795D01*
X67002766Y-75121793D01*
X66944595Y-75275176D01*
X66944594Y-75275179D01*
X66924822Y-75438021D01*
X66924822Y-75438022D01*
X64884398Y-75438022D01*
X64984735Y-75349131D01*
X65077921Y-75214128D01*
X65136091Y-75060747D01*
X65155864Y-74897902D01*
X65136091Y-74735057D01*
X65077921Y-74581676D01*
X64984735Y-74446673D01*
X64984732Y-74446670D01*
X64984730Y-74446668D01*
X64861951Y-74337895D01*
X64716694Y-74261658D01*
X64557425Y-74222402D01*
X64557424Y-74222402D01*
X64393382Y-74222402D01*
X64393381Y-74222402D01*
X64234111Y-74261658D01*
X64088854Y-74337895D01*
X63966075Y-74446668D01*
X63966069Y-74446675D01*
X63872886Y-74581673D01*
X63814715Y-74735056D01*
X63814714Y-74735059D01*
X63794942Y-74897901D01*
X63794942Y-74897902D01*
X63141918Y-74897902D01*
X63145864Y-74865402D01*
X63126091Y-74702557D01*
X63067921Y-74549176D01*
X62974735Y-74414173D01*
X62974732Y-74414170D01*
X62974730Y-74414168D01*
X62851951Y-74305395D01*
X62706694Y-74229158D01*
X62547425Y-74189902D01*
X62547424Y-74189902D01*
X62383382Y-74189902D01*
X62383381Y-74189902D01*
X62224111Y-74229158D01*
X62078854Y-74305395D01*
X61956075Y-74414168D01*
X61956069Y-74414175D01*
X61862886Y-74549173D01*
X61804715Y-74702556D01*
X61804714Y-74702559D01*
X61784942Y-74865401D01*
X61784942Y-74865402D01*
X60258108Y-74865402D01*
X60253331Y-74826057D01*
X60195161Y-74672676D01*
X60101975Y-74537673D01*
X60101972Y-74537670D01*
X60101970Y-74537668D01*
X59979191Y-74428895D01*
X59833934Y-74352658D01*
X59674665Y-74313402D01*
X59674664Y-74313402D01*
X59510622Y-74313402D01*
X59510621Y-74313402D01*
X59351351Y-74352658D01*
X59206094Y-74428895D01*
X59083315Y-74537668D01*
X59083309Y-74537675D01*
X58990126Y-74672673D01*
X58931955Y-74826056D01*
X58931954Y-74826059D01*
X58912182Y-74988901D01*
X58912182Y-74988902D01*
X35493143Y-74988902D01*
X35493143Y-72688902D01*
X65312182Y-72688902D01*
X65331954Y-72851744D01*
X65331955Y-72851747D01*
X65389734Y-73004098D01*
X65390126Y-73005130D01*
X65468698Y-73118961D01*
X65483311Y-73140131D01*
X65483313Y-73140133D01*
X65483315Y-73140135D01*
X65606094Y-73248908D01*
X65606095Y-73248908D01*
X65606097Y-73248910D01*
X65751348Y-73325144D01*
X65751350Y-73325144D01*
X65751351Y-73325145D01*
X65910621Y-73364402D01*
X65910622Y-73364402D01*
X66074665Y-73364402D01*
X66233934Y-73325145D01*
X66233934Y-73325144D01*
X66233938Y-73325144D01*
X66379189Y-73248910D01*
X66501975Y-73140131D01*
X66595161Y-73005128D01*
X66653331Y-72851747D01*
X66673104Y-72688902D01*
X66653331Y-72526057D01*
X66595161Y-72372676D01*
X66501975Y-72237673D01*
X66501972Y-72237670D01*
X66501970Y-72237668D01*
X66379191Y-72128895D01*
X66233934Y-72052658D01*
X66074665Y-72013402D01*
X66074664Y-72013402D01*
X65910622Y-72013402D01*
X65910621Y-72013402D01*
X65751351Y-72052658D01*
X65606094Y-72128895D01*
X65483315Y-72237668D01*
X65483309Y-72237675D01*
X65390126Y-72372673D01*
X65331955Y-72526056D01*
X65331954Y-72526059D01*
X65312182Y-72688901D01*
X65312182Y-72688902D01*
X35493143Y-72688902D01*
X35493143Y-71488902D01*
X68412182Y-71488902D01*
X68431954Y-71651744D01*
X68431955Y-71651747D01*
X68490125Y-71805128D01*
X68583311Y-71940131D01*
X68583313Y-71940133D01*
X68583315Y-71940135D01*
X68706094Y-72048908D01*
X68706095Y-72048908D01*
X68706097Y-72048910D01*
X68851348Y-72125144D01*
X68851350Y-72125144D01*
X68851351Y-72125145D01*
X69010621Y-72164402D01*
X69010622Y-72164402D01*
X69174665Y-72164402D01*
X69333934Y-72125145D01*
X69333934Y-72125144D01*
X69333938Y-72125144D01*
X69479189Y-72048910D01*
X69601975Y-71940131D01*
X69695161Y-71805128D01*
X69753331Y-71651747D01*
X69773104Y-71488902D01*
X69756408Y-71351401D01*
X99937458Y-71351401D01*
X99956146Y-71529207D01*
X99956147Y-71529209D01*
X100011390Y-71699231D01*
X100011393Y-71699237D01*
X100100784Y-71854067D01*
X100142455Y-71900348D01*
X100220407Y-71986923D01*
X100220410Y-71986925D01*
X100220413Y-71986928D01*
X100365050Y-72092014D01*
X100528376Y-72164731D01*
X100703252Y-72201902D01*
X100703253Y-72201902D01*
X100882032Y-72201902D01*
X100882034Y-72201902D01*
X101056910Y-72164731D01*
X101220236Y-72092014D01*
X101364873Y-71986928D01*
X101484502Y-71854067D01*
X101573893Y-71699237D01*
X101629140Y-71529205D01*
X101647828Y-71351402D01*
X101629140Y-71173599D01*
X101601516Y-71088583D01*
X101578876Y-71018903D01*
X242027033Y-71018903D01*
X242047447Y-71304335D01*
X242108271Y-71583939D01*
X242108273Y-71583945D01*
X242108274Y-71583948D01*
X242151275Y-71699237D01*
X242208278Y-71852068D01*
X242345413Y-72103211D01*
X242345418Y-72103219D01*
X242516897Y-72332289D01*
X242516913Y-72332307D01*
X242719237Y-72534631D01*
X242719255Y-72534647D01*
X242948325Y-72706126D01*
X242948333Y-72706131D01*
X243199476Y-72843266D01*
X243199475Y-72843266D01*
X243199479Y-72843267D01*
X243199482Y-72843269D01*
X243467597Y-72943271D01*
X243467603Y-72943272D01*
X243467605Y-72943273D01*
X243747209Y-73004097D01*
X243747211Y-73004097D01*
X243747215Y-73004098D01*
X243961195Y-73019402D01*
X247104091Y-73019402D01*
X247318071Y-73004098D01*
X247597689Y-72943271D01*
X247865804Y-72843269D01*
X248116958Y-72706128D01*
X248346038Y-72534641D01*
X248548382Y-72332297D01*
X248719869Y-72103217D01*
X248857010Y-71852063D01*
X248957012Y-71583948D01*
X249017839Y-71304330D01*
X249036910Y-71037675D01*
X249038253Y-71018903D01*
X249038253Y-71018900D01*
X249031816Y-70928895D01*
X249017839Y-70733474D01*
X249014011Y-70715878D01*
X248957014Y-70453864D01*
X248957013Y-70453862D01*
X248957012Y-70453856D01*
X248857010Y-70185741D01*
X248719869Y-69934587D01*
X248719867Y-69934584D01*
X248548388Y-69705514D01*
X248548372Y-69705496D01*
X248346048Y-69503172D01*
X248346030Y-69503156D01*
X248116960Y-69331677D01*
X248116952Y-69331672D01*
X247865809Y-69194537D01*
X247865810Y-69194537D01*
X247758557Y-69154534D01*
X247597689Y-69094533D01*
X247597686Y-69094532D01*
X247597680Y-69094530D01*
X247318076Y-69033706D01*
X247104093Y-69018402D01*
X247104091Y-69018402D01*
X243961195Y-69018402D01*
X243961192Y-69018402D01*
X243747209Y-69033706D01*
X243467605Y-69094530D01*
X243199476Y-69194537D01*
X242948333Y-69331672D01*
X242948325Y-69331677D01*
X242719255Y-69503156D01*
X242719237Y-69503172D01*
X242516913Y-69705496D01*
X242516897Y-69705514D01*
X242345418Y-69934584D01*
X242345413Y-69934592D01*
X242208278Y-70185735D01*
X242108271Y-70453864D01*
X242047447Y-70733468D01*
X242027033Y-71018900D01*
X242027033Y-71018903D01*
X101578876Y-71018903D01*
X101573895Y-71003572D01*
X101573892Y-71003566D01*
X101530781Y-70928895D01*
X101484502Y-70848737D01*
X101437646Y-70796698D01*
X101364878Y-70715880D01*
X101364875Y-70715878D01*
X101364874Y-70715877D01*
X101364873Y-70715876D01*
X101220236Y-70610790D01*
X101056910Y-70538073D01*
X101056908Y-70538072D01*
X100929237Y-70510935D01*
X100882034Y-70500902D01*
X100703252Y-70500902D01*
X100672597Y-70507417D01*
X100528376Y-70538072D01*
X100528371Y-70538074D01*
X100365051Y-70610789D01*
X100220411Y-70715877D01*
X100100783Y-70848738D01*
X100011393Y-71003566D01*
X100011390Y-71003572D01*
X99956147Y-71173594D01*
X99956146Y-71173596D01*
X99937458Y-71351401D01*
X69756408Y-71351401D01*
X69753331Y-71326057D01*
X69695161Y-71172676D01*
X69601975Y-71037673D01*
X69601972Y-71037670D01*
X69601970Y-71037668D01*
X69479191Y-70928895D01*
X69333934Y-70852658D01*
X69174665Y-70813402D01*
X69174664Y-70813402D01*
X69010622Y-70813402D01*
X69010621Y-70813402D01*
X68851351Y-70852658D01*
X68706094Y-70928895D01*
X68583315Y-71037668D01*
X68583309Y-71037675D01*
X68490126Y-71172673D01*
X68431955Y-71326056D01*
X68431954Y-71326059D01*
X68412182Y-71488901D01*
X68412182Y-71488902D01*
X35493143Y-71488902D01*
X35493143Y-65938903D01*
X247107033Y-65938903D01*
X247127447Y-66224335D01*
X247188271Y-66503939D01*
X247288278Y-66772068D01*
X247425413Y-67023211D01*
X247425418Y-67023219D01*
X247596897Y-67252289D01*
X247596913Y-67252307D01*
X247799237Y-67454631D01*
X247799255Y-67454647D01*
X248028325Y-67626126D01*
X248028333Y-67626131D01*
X248279476Y-67763266D01*
X248279475Y-67763266D01*
X248279479Y-67763267D01*
X248279482Y-67763269D01*
X248547597Y-67863271D01*
X248547603Y-67863272D01*
X248547605Y-67863273D01*
X248827209Y-67924097D01*
X248827211Y-67924097D01*
X248827215Y-67924098D01*
X249041195Y-67939402D01*
X252184091Y-67939402D01*
X252398071Y-67924098D01*
X252677689Y-67863271D01*
X252945804Y-67763269D01*
X253196958Y-67626128D01*
X253426038Y-67454641D01*
X253628382Y-67252297D01*
X253799869Y-67023217D01*
X253937010Y-66772063D01*
X254037012Y-66503948D01*
X254097839Y-66224330D01*
X254118253Y-65938902D01*
X254097839Y-65653474D01*
X254075184Y-65549332D01*
X254037014Y-65373864D01*
X254037013Y-65373862D01*
X254037012Y-65373856D01*
X253937010Y-65105741D01*
X253915495Y-65066340D01*
X253799872Y-64854592D01*
X253799867Y-64854584D01*
X253628388Y-64625514D01*
X253628372Y-64625496D01*
X253426048Y-64423172D01*
X253426030Y-64423156D01*
X253196960Y-64251677D01*
X253196952Y-64251672D01*
X252945809Y-64114537D01*
X252945810Y-64114537D01*
X252830318Y-64071461D01*
X252677689Y-64014533D01*
X252677686Y-64014532D01*
X252677680Y-64014530D01*
X252398076Y-63953706D01*
X252184093Y-63938402D01*
X252184091Y-63938402D01*
X249041195Y-63938402D01*
X249041192Y-63938402D01*
X248827209Y-63953706D01*
X248547605Y-64014530D01*
X248279476Y-64114537D01*
X248028333Y-64251672D01*
X248028325Y-64251677D01*
X247799255Y-64423156D01*
X247799237Y-64423172D01*
X247596913Y-64625496D01*
X247596897Y-64625514D01*
X247425418Y-64854584D01*
X247425413Y-64854592D01*
X247288278Y-65105735D01*
X247188271Y-65373864D01*
X247127447Y-65653468D01*
X247107033Y-65938900D01*
X247107033Y-65938903D01*
X35493143Y-65938903D01*
X35493143Y-65419894D01*
X41025202Y-65419894D01*
X41143873Y-65483325D01*
X41329550Y-65539650D01*
X41522643Y-65558667D01*
X41715735Y-65539650D01*
X41901415Y-65483324D01*
X41901417Y-65483324D01*
X42020081Y-65419894D01*
X42020082Y-65419893D01*
X41811591Y-65211402D01*
X55466758Y-65211402D01*
X55487262Y-65380271D01*
X55487263Y-65380276D01*
X55547585Y-65539333D01*
X55554488Y-65549333D01*
X55644220Y-65679331D01*
X55749908Y-65772962D01*
X55771553Y-65792138D01*
X55912649Y-65866191D01*
X55922178Y-65871192D01*
X56087347Y-65911902D01*
X56257459Y-65911902D01*
X56422628Y-65871192D01*
X56502095Y-65829483D01*
X56573252Y-65792138D01*
X56573253Y-65792136D01*
X56573255Y-65792136D01*
X56700586Y-65679331D01*
X56797221Y-65539332D01*
X56857543Y-65380274D01*
X56878048Y-65211402D01*
X56877441Y-65206401D01*
X58036758Y-65206401D01*
X58057262Y-65375271D01*
X58057263Y-65375276D01*
X58117585Y-65534333D01*
X58134382Y-65558667D01*
X58214220Y-65674331D01*
X58319908Y-65767962D01*
X58341553Y-65787138D01*
X58482649Y-65861191D01*
X58492178Y-65866192D01*
X58657347Y-65906902D01*
X58827459Y-65906902D01*
X58992628Y-65866192D01*
X59072095Y-65824483D01*
X59143252Y-65787138D01*
X59143253Y-65787136D01*
X59143255Y-65787136D01*
X59270586Y-65674331D01*
X59367221Y-65534332D01*
X59427543Y-65375274D01*
X59447441Y-65211402D01*
X60556758Y-65211402D01*
X60577262Y-65380271D01*
X60577263Y-65380276D01*
X60637585Y-65539333D01*
X60644488Y-65549333D01*
X60734220Y-65679331D01*
X60839908Y-65772962D01*
X60861553Y-65792138D01*
X61002649Y-65866191D01*
X61012178Y-65871192D01*
X61177347Y-65911902D01*
X61347459Y-65911902D01*
X61512628Y-65871192D01*
X61592095Y-65829483D01*
X61663252Y-65792138D01*
X61663253Y-65792136D01*
X61663255Y-65792136D01*
X61790586Y-65679331D01*
X61887221Y-65539332D01*
X61947543Y-65380274D01*
X61968048Y-65211402D01*
X63116758Y-65211402D01*
X63137262Y-65380271D01*
X63137263Y-65380276D01*
X63197585Y-65539333D01*
X63204488Y-65549333D01*
X63294220Y-65679331D01*
X63399908Y-65772962D01*
X63421553Y-65792138D01*
X63562649Y-65866191D01*
X63572178Y-65871192D01*
X63737347Y-65911902D01*
X63907459Y-65911902D01*
X64072628Y-65871192D01*
X64152095Y-65829483D01*
X64223252Y-65792138D01*
X64223253Y-65792136D01*
X64223255Y-65792136D01*
X64350586Y-65679331D01*
X64447221Y-65539332D01*
X64507543Y-65380274D01*
X64528048Y-65211402D01*
X65656758Y-65211402D01*
X65677262Y-65380271D01*
X65677263Y-65380276D01*
X65737585Y-65539333D01*
X65744488Y-65549333D01*
X65834220Y-65679331D01*
X65939908Y-65772962D01*
X65961553Y-65792138D01*
X66102649Y-65866191D01*
X66112178Y-65871192D01*
X66277347Y-65911902D01*
X66447459Y-65911902D01*
X66612628Y-65871192D01*
X66692095Y-65829483D01*
X66763252Y-65792138D01*
X66763253Y-65792136D01*
X66763255Y-65792136D01*
X66890586Y-65679331D01*
X66987221Y-65539332D01*
X67047543Y-65380274D01*
X67068048Y-65211402D01*
X68096758Y-65211402D01*
X68117262Y-65380271D01*
X68117263Y-65380276D01*
X68177585Y-65539333D01*
X68184488Y-65549333D01*
X68274220Y-65679331D01*
X68379908Y-65772962D01*
X68401553Y-65792138D01*
X68542649Y-65866191D01*
X68552178Y-65871192D01*
X68717347Y-65911902D01*
X68887459Y-65911902D01*
X69052628Y-65871192D01*
X69132095Y-65829483D01*
X69203252Y-65792138D01*
X69203253Y-65792136D01*
X69203255Y-65792136D01*
X69330586Y-65679331D01*
X69427221Y-65539332D01*
X69487543Y-65380274D01*
X69506834Y-65221401D01*
X70706758Y-65221401D01*
X70727262Y-65390271D01*
X70727263Y-65390276D01*
X70787585Y-65549333D01*
X70849878Y-65639579D01*
X70884220Y-65689331D01*
X70988976Y-65782136D01*
X71011553Y-65802138D01*
X71162176Y-65881191D01*
X71162178Y-65881192D01*
X71327347Y-65921902D01*
X71497459Y-65921902D01*
X71662628Y-65881192D01*
X71742095Y-65839483D01*
X71813252Y-65802138D01*
X71813253Y-65802136D01*
X71813255Y-65802136D01*
X71940586Y-65689331D01*
X72037221Y-65549332D01*
X72097543Y-65390274D01*
X72118048Y-65221402D01*
X72115620Y-65201402D01*
X73226758Y-65201402D01*
X73247262Y-65370271D01*
X73247263Y-65370276D01*
X73307585Y-65529333D01*
X73369878Y-65619579D01*
X73404220Y-65669331D01*
X73509908Y-65762962D01*
X73531553Y-65782138D01*
X73682176Y-65861191D01*
X73682178Y-65861192D01*
X73847347Y-65901902D01*
X74017459Y-65901902D01*
X74182628Y-65861192D01*
X74295149Y-65802136D01*
X74333252Y-65782138D01*
X74333253Y-65782136D01*
X74333255Y-65782136D01*
X74460586Y-65669331D01*
X74557221Y-65529332D01*
X74617543Y-65370274D01*
X74638048Y-65201402D01*
X74617543Y-65032530D01*
X74557221Y-64873472D01*
X74544183Y-64854584D01*
X74495263Y-64783711D01*
X74460586Y-64733473D01*
X74356842Y-64641564D01*
X74333252Y-64620665D01*
X74182629Y-64541612D01*
X74017459Y-64500902D01*
X73847347Y-64500902D01*
X73682176Y-64541612D01*
X73531553Y-64620665D01*
X73404219Y-64733474D01*
X73307585Y-64873470D01*
X73247263Y-65032527D01*
X73247262Y-65032532D01*
X73226758Y-65201402D01*
X72115620Y-65201402D01*
X72097543Y-65052530D01*
X72093749Y-65042527D01*
X72057776Y-64947671D01*
X72037221Y-64893472D01*
X72030318Y-64883472D01*
X72002879Y-64843720D01*
X71940586Y-64753473D01*
X71845719Y-64669428D01*
X71813252Y-64640665D01*
X71662629Y-64561612D01*
X71497459Y-64520902D01*
X71327347Y-64520902D01*
X71162176Y-64561612D01*
X71011553Y-64640665D01*
X70884219Y-64753474D01*
X70787585Y-64893470D01*
X70727263Y-65052527D01*
X70727262Y-65052532D01*
X70706758Y-65221401D01*
X69506834Y-65221401D01*
X69508048Y-65211402D01*
X69487543Y-65042530D01*
X69483749Y-65032527D01*
X69431013Y-64893472D01*
X69427221Y-64883472D01*
X69423768Y-64878470D01*
X69337489Y-64753474D01*
X69330586Y-64743473D01*
X69214543Y-64640668D01*
X69203252Y-64630665D01*
X69052629Y-64551612D01*
X68887459Y-64510902D01*
X68717347Y-64510902D01*
X68552176Y-64551612D01*
X68401553Y-64630665D01*
X68274219Y-64743474D01*
X68177585Y-64883470D01*
X68117263Y-65042527D01*
X68117262Y-65042532D01*
X68096758Y-65211402D01*
X67068048Y-65211402D01*
X67047543Y-65042530D01*
X67043749Y-65032527D01*
X66991013Y-64893472D01*
X66987221Y-64883472D01*
X66983768Y-64878470D01*
X66897489Y-64753474D01*
X66890586Y-64743473D01*
X66774543Y-64640668D01*
X66763252Y-64630665D01*
X66612629Y-64551612D01*
X66447459Y-64510902D01*
X66277347Y-64510902D01*
X66112176Y-64551612D01*
X65961553Y-64630665D01*
X65834219Y-64743474D01*
X65737585Y-64883470D01*
X65677263Y-65042527D01*
X65677262Y-65042532D01*
X65656758Y-65211402D01*
X64528048Y-65211402D01*
X64507543Y-65042530D01*
X64503749Y-65032527D01*
X64451013Y-64893472D01*
X64447221Y-64883472D01*
X64443768Y-64878470D01*
X64357489Y-64753474D01*
X64350586Y-64743473D01*
X64234543Y-64640668D01*
X64223252Y-64630665D01*
X64072629Y-64551612D01*
X63907459Y-64510902D01*
X63737347Y-64510902D01*
X63572176Y-64551612D01*
X63421553Y-64630665D01*
X63294219Y-64743474D01*
X63197585Y-64883470D01*
X63137263Y-65042527D01*
X63137262Y-65042532D01*
X63116758Y-65211402D01*
X61968048Y-65211402D01*
X61947543Y-65042530D01*
X61943749Y-65032527D01*
X61891013Y-64893472D01*
X61887221Y-64883472D01*
X61883768Y-64878470D01*
X61797489Y-64753474D01*
X61790586Y-64743473D01*
X61674543Y-64640668D01*
X61663252Y-64630665D01*
X61512629Y-64551612D01*
X61347459Y-64510902D01*
X61177347Y-64510902D01*
X61012176Y-64551612D01*
X60861553Y-64630665D01*
X60734219Y-64743474D01*
X60637585Y-64883470D01*
X60577263Y-65042527D01*
X60577262Y-65042532D01*
X60556758Y-65211402D01*
X59447441Y-65211402D01*
X59448048Y-65206402D01*
X59427543Y-65037530D01*
X59367221Y-64878472D01*
X59363768Y-64873470D01*
X59312297Y-64798902D01*
X59270586Y-64738473D01*
X59148899Y-64630668D01*
X59143252Y-64625665D01*
X58992629Y-64546612D01*
X58827459Y-64505902D01*
X58657347Y-64505902D01*
X58492176Y-64546612D01*
X58341553Y-64625665D01*
X58214219Y-64738474D01*
X58117585Y-64878470D01*
X58057263Y-65037527D01*
X58057262Y-65037532D01*
X58036758Y-65206401D01*
X56877441Y-65206401D01*
X56857543Y-65042530D01*
X56853749Y-65032527D01*
X56801013Y-64893472D01*
X56797221Y-64883472D01*
X56793768Y-64878470D01*
X56707489Y-64753474D01*
X56700586Y-64743473D01*
X56584543Y-64640668D01*
X56573252Y-64630665D01*
X56422629Y-64551612D01*
X56257459Y-64510902D01*
X56087347Y-64510902D01*
X55922176Y-64551612D01*
X55771553Y-64630665D01*
X55644219Y-64743474D01*
X55547585Y-64883470D01*
X55487263Y-65042527D01*
X55487262Y-65042532D01*
X55466758Y-65211402D01*
X41811591Y-65211402D01*
X41522644Y-64922455D01*
X41522643Y-64922455D01*
X41025202Y-65419894D01*
X35493143Y-65419894D01*
X35493143Y-64568902D01*
X40532877Y-64568902D01*
X40551894Y-64761994D01*
X40608219Y-64947671D01*
X40671650Y-65066341D01*
X41144511Y-64593481D01*
X41288793Y-64593481D01*
X41319008Y-64686471D01*
X41384432Y-64759133D01*
X41473755Y-64798902D01*
X41546815Y-64798902D01*
X41618282Y-64783711D01*
X41697385Y-64726240D01*
X41746273Y-64641564D01*
X41753910Y-64568902D01*
X41876196Y-64568902D01*
X42373635Y-65066341D01*
X42373635Y-65066340D01*
X42437065Y-64947676D01*
X42437065Y-64947674D01*
X42493391Y-64761994D01*
X42512408Y-64568901D01*
X42493391Y-64375809D01*
X42437066Y-64190132D01*
X42373635Y-64071461D01*
X41876196Y-64568901D01*
X41876196Y-64568902D01*
X41753910Y-64568902D01*
X41756493Y-64544323D01*
X41726278Y-64451333D01*
X41660854Y-64378671D01*
X41571531Y-64338902D01*
X41498471Y-64338902D01*
X41427004Y-64354093D01*
X41347901Y-64411564D01*
X41299013Y-64496240D01*
X41288793Y-64593481D01*
X41144511Y-64593481D01*
X41169090Y-64568902D01*
X40671650Y-64071462D01*
X40608219Y-64190132D01*
X40551894Y-64375809D01*
X40532877Y-64568902D01*
X35493143Y-64568902D01*
X35493143Y-63717909D01*
X41025203Y-63717909D01*
X41522643Y-64215349D01*
X41522644Y-64215349D01*
X42020082Y-63717909D01*
X41901412Y-63654478D01*
X41715735Y-63598153D01*
X41522643Y-63579136D01*
X41329550Y-63598153D01*
X41143873Y-63654478D01*
X41025203Y-63717909D01*
X35493143Y-63717909D01*
X35493143Y-56659894D01*
X41025202Y-56659894D01*
X41143873Y-56723325D01*
X41329550Y-56779650D01*
X41522642Y-56798667D01*
X41715735Y-56779650D01*
X41901415Y-56723324D01*
X41901417Y-56723324D01*
X42020081Y-56659894D01*
X42020082Y-56659893D01*
X41522644Y-56162455D01*
X41522643Y-56162455D01*
X41025202Y-56659894D01*
X35493143Y-56659894D01*
X35493143Y-55808902D01*
X40532877Y-55808902D01*
X40551894Y-56001994D01*
X40608219Y-56187671D01*
X40671650Y-56306341D01*
X41144511Y-55833481D01*
X41288793Y-55833481D01*
X41319008Y-55926471D01*
X41384432Y-55999133D01*
X41473755Y-56038902D01*
X41546815Y-56038902D01*
X41618282Y-56023711D01*
X41697385Y-55966240D01*
X41746273Y-55881564D01*
X41753910Y-55808901D01*
X41876196Y-55808901D01*
X42373635Y-56306341D01*
X42373635Y-56306340D01*
X42437065Y-56187676D01*
X42437065Y-56187674D01*
X42493391Y-56001994D01*
X42503790Y-55896402D01*
X83253410Y-55896402D01*
X83274005Y-56131805D01*
X83274007Y-56131815D01*
X83335163Y-56360057D01*
X83335165Y-56360061D01*
X83335166Y-56360065D01*
X83339069Y-56368434D01*
X83435034Y-56574232D01*
X83435036Y-56574236D01*
X83495015Y-56659894D01*
X83570574Y-56767803D01*
X83737668Y-56934897D01*
X83834453Y-57002666D01*
X83931234Y-57070434D01*
X83931236Y-57070435D01*
X83931239Y-57070437D01*
X84145406Y-57170305D01*
X84373661Y-57231465D01*
X84561987Y-57247941D01*
X84609068Y-57252061D01*
X84609069Y-57252061D01*
X84609070Y-57252061D01*
X84648303Y-57248628D01*
X84844477Y-57231465D01*
X85072732Y-57170305D01*
X85286899Y-57070437D01*
X85480470Y-56934897D01*
X85647564Y-56767803D01*
X85777493Y-56582244D01*
X85832071Y-56538619D01*
X85901569Y-56531425D01*
X85963924Y-56562948D01*
X85980644Y-56582244D01*
X86110569Y-56767797D01*
X86110574Y-56767803D01*
X86277668Y-56934897D01*
X86374453Y-57002666D01*
X86471234Y-57070434D01*
X86471236Y-57070435D01*
X86471239Y-57070437D01*
X86685406Y-57170305D01*
X86913661Y-57231465D01*
X87101987Y-57247941D01*
X87149068Y-57252061D01*
X87149069Y-57252061D01*
X87149070Y-57252061D01*
X87188303Y-57248628D01*
X87384477Y-57231465D01*
X87612732Y-57170305D01*
X87826899Y-57070437D01*
X88020470Y-56934897D01*
X88187564Y-56767803D01*
X88317493Y-56582244D01*
X88372071Y-56538619D01*
X88441569Y-56531425D01*
X88503924Y-56562948D01*
X88520644Y-56582244D01*
X88650569Y-56767797D01*
X88650574Y-56767803D01*
X88817668Y-56934897D01*
X88914453Y-57002666D01*
X89011234Y-57070434D01*
X89011236Y-57070435D01*
X89011239Y-57070437D01*
X89225406Y-57170305D01*
X89453661Y-57231465D01*
X89641987Y-57247941D01*
X89689068Y-57252061D01*
X89689069Y-57252061D01*
X89689070Y-57252061D01*
X89728303Y-57248628D01*
X89924477Y-57231465D01*
X90152732Y-57170305D01*
X90366899Y-57070437D01*
X90560470Y-56934897D01*
X90727564Y-56767803D01*
X90857493Y-56582244D01*
X90912071Y-56538619D01*
X90981569Y-56531425D01*
X91043924Y-56562948D01*
X91060644Y-56582244D01*
X91190569Y-56767797D01*
X91190574Y-56767803D01*
X91357668Y-56934897D01*
X91454453Y-57002666D01*
X91551234Y-57070434D01*
X91551236Y-57070435D01*
X91551239Y-57070437D01*
X91765406Y-57170305D01*
X91993661Y-57231465D01*
X92181987Y-57247941D01*
X92229068Y-57252061D01*
X92229069Y-57252061D01*
X92229070Y-57252061D01*
X92268303Y-57248628D01*
X92464477Y-57231465D01*
X92692732Y-57170305D01*
X92906899Y-57070437D01*
X93100470Y-56934897D01*
X93267564Y-56767803D01*
X93397493Y-56582244D01*
X93452071Y-56538619D01*
X93521569Y-56531425D01*
X93583924Y-56562948D01*
X93600644Y-56582244D01*
X93730569Y-56767797D01*
X93730574Y-56767803D01*
X93897668Y-56934897D01*
X93994453Y-57002666D01*
X94091234Y-57070434D01*
X94091236Y-57070435D01*
X94091239Y-57070437D01*
X94305406Y-57170305D01*
X94533661Y-57231465D01*
X94721987Y-57247941D01*
X94769068Y-57252061D01*
X94769069Y-57252061D01*
X94769070Y-57252061D01*
X94808303Y-57248628D01*
X95004477Y-57231465D01*
X95232732Y-57170305D01*
X95446899Y-57070437D01*
X95640470Y-56934897D01*
X95807564Y-56767803D01*
X95937493Y-56582244D01*
X95992071Y-56538619D01*
X96061569Y-56531425D01*
X96123924Y-56562948D01*
X96140644Y-56582244D01*
X96270569Y-56767797D01*
X96270574Y-56767803D01*
X96437668Y-56934897D01*
X96534453Y-57002666D01*
X96631234Y-57070434D01*
X96631236Y-57070435D01*
X96631239Y-57070437D01*
X96845406Y-57170305D01*
X97073661Y-57231465D01*
X97261987Y-57247941D01*
X97309068Y-57252061D01*
X97309069Y-57252061D01*
X97309070Y-57252061D01*
X97348303Y-57248628D01*
X97544477Y-57231465D01*
X97772732Y-57170305D01*
X97986899Y-57070437D01*
X98180470Y-56934897D01*
X98347564Y-56767803D01*
X98477493Y-56582244D01*
X98532071Y-56538619D01*
X98601569Y-56531425D01*
X98663924Y-56562948D01*
X98680644Y-56582244D01*
X98810569Y-56767797D01*
X98810574Y-56767803D01*
X98977668Y-56934897D01*
X99074453Y-57002666D01*
X99171234Y-57070434D01*
X99171236Y-57070435D01*
X99171239Y-57070437D01*
X99385406Y-57170305D01*
X99613661Y-57231465D01*
X99801987Y-57247941D01*
X99849068Y-57252061D01*
X99849069Y-57252061D01*
X99849070Y-57252061D01*
X99888303Y-57248628D01*
X100084477Y-57231465D01*
X100312732Y-57170305D01*
X100526899Y-57070437D01*
X100720470Y-56934897D01*
X100887564Y-56767803D01*
X101017493Y-56582244D01*
X101072071Y-56538619D01*
X101141569Y-56531425D01*
X101203924Y-56562948D01*
X101220644Y-56582244D01*
X101350569Y-56767797D01*
X101350574Y-56767803D01*
X101517668Y-56934897D01*
X101614453Y-57002666D01*
X101711234Y-57070434D01*
X101711236Y-57070435D01*
X101711239Y-57070437D01*
X101925406Y-57170305D01*
X102153661Y-57231465D01*
X102341987Y-57247941D01*
X102389068Y-57252061D01*
X102389069Y-57252061D01*
X102389070Y-57252061D01*
X102428303Y-57248628D01*
X102624477Y-57231465D01*
X102852732Y-57170305D01*
X103066899Y-57070437D01*
X103260470Y-56934897D01*
X103427564Y-56767803D01*
X103563104Y-56574232D01*
X103662972Y-56360065D01*
X103724132Y-56131810D01*
X103744728Y-55896402D01*
X103724132Y-55660994D01*
X103662972Y-55432739D01*
X103563104Y-55218573D01*
X103557493Y-55210560D01*
X103427565Y-55025002D01*
X103427559Y-55024996D01*
X103305248Y-54902685D01*
X103271765Y-54841365D01*
X103276749Y-54771673D01*
X103318620Y-54715739D01*
X103349598Y-54698824D01*
X103481155Y-54649756D01*
X103481162Y-54649752D01*
X103596256Y-54563592D01*
X103596259Y-54563589D01*
X103682419Y-54448495D01*
X103682423Y-54448488D01*
X103732665Y-54313781D01*
X103732667Y-54313774D01*
X103739068Y-54254246D01*
X103739069Y-54254229D01*
X103739069Y-53606402D01*
X102822755Y-53606402D01*
X102848562Y-53566246D01*
X102889069Y-53428291D01*
X102889069Y-53284513D01*
X102875676Y-53238902D01*
X254040049Y-53238902D01*
X254060394Y-53497420D01*
X254120934Y-53749586D01*
X254220168Y-53989160D01*
X254220170Y-53989163D01*
X254355662Y-54210267D01*
X254355663Y-54210268D01*
X254355664Y-54210270D01*
X254355666Y-54210272D01*
X254524083Y-54407462D01*
X254721273Y-54575879D01*
X254721275Y-54575880D01*
X254721276Y-54575881D01*
X254721277Y-54575882D01*
X254942381Y-54711374D01*
X254942384Y-54711376D01*
X255171210Y-54806158D01*
X255181963Y-54810612D01*
X255434120Y-54871150D01*
X255627917Y-54886402D01*
X255627925Y-54886402D01*
X255757361Y-54886402D01*
X255757369Y-54886402D01*
X255951166Y-54871150D01*
X256203323Y-54810612D01*
X256323114Y-54760993D01*
X256442901Y-54711376D01*
X256442902Y-54711375D01*
X256442905Y-54711374D01*
X256664013Y-54575879D01*
X256861203Y-54407462D01*
X257029620Y-54210272D01*
X257165115Y-53989164D01*
X257264353Y-53749582D01*
X257324891Y-53497425D01*
X257345237Y-53238902D01*
X257324891Y-52980379D01*
X257264353Y-52728222D01*
X257258900Y-52715057D01*
X257165117Y-52488643D01*
X257165115Y-52488640D01*
X257029623Y-52267536D01*
X257029622Y-52267535D01*
X257029621Y-52267534D01*
X257029620Y-52267532D01*
X256861203Y-52070342D01*
X256664013Y-51901925D01*
X256664011Y-51901923D01*
X256664009Y-51901922D01*
X256664008Y-51901921D01*
X256442904Y-51766429D01*
X256442901Y-51766427D01*
X256203327Y-51667193D01*
X256203323Y-51667192D01*
X255951166Y-51606654D01*
X255951164Y-51606653D01*
X255951161Y-51606653D01*
X255757374Y-51591402D01*
X255757369Y-51591402D01*
X255627917Y-51591402D01*
X255627911Y-51591402D01*
X255434124Y-51606653D01*
X255181958Y-51667193D01*
X254942384Y-51766427D01*
X254942381Y-51766429D01*
X254721277Y-51901921D01*
X254721276Y-51901922D01*
X254524083Y-52070342D01*
X254355663Y-52267535D01*
X254355662Y-52267536D01*
X254220170Y-52488640D01*
X254220168Y-52488643D01*
X254120934Y-52728217D01*
X254060394Y-52980383D01*
X254040049Y-53238902D01*
X102875676Y-53238902D01*
X102848562Y-53146558D01*
X102822755Y-53106402D01*
X103739068Y-53106402D01*
X103739069Y-52458574D01*
X103739068Y-52458557D01*
X103732667Y-52399029D01*
X103732665Y-52399022D01*
X103682423Y-52264315D01*
X103682419Y-52264308D01*
X103596259Y-52149214D01*
X103596256Y-52149211D01*
X103481162Y-52063051D01*
X103481155Y-52063047D01*
X103346448Y-52012805D01*
X103346441Y-52012803D01*
X103286913Y-52006402D01*
X102639069Y-52006402D01*
X102639069Y-52920900D01*
X102531384Y-52871722D01*
X102424832Y-52856402D01*
X102353306Y-52856402D01*
X102246754Y-52871722D01*
X102139069Y-52920900D01*
X102139069Y-52006402D01*
X101491224Y-52006402D01*
X101431696Y-52012803D01*
X101431689Y-52012805D01*
X101296982Y-52063047D01*
X101296975Y-52063051D01*
X101181881Y-52149211D01*
X101181878Y-52149214D01*
X101095718Y-52264308D01*
X101095715Y-52264313D01*
X101046454Y-52396389D01*
X101004582Y-52452322D01*
X100939118Y-52476739D01*
X100870845Y-52461887D01*
X100842591Y-52440736D01*
X100720151Y-52318296D01*
X100526647Y-52182801D01*
X100312561Y-52082972D01*
X100312555Y-52082969D01*
X100099069Y-52025766D01*
X100099069Y-52920900D01*
X99991384Y-52871722D01*
X99884832Y-52856402D01*
X99813306Y-52856402D01*
X99706754Y-52871722D01*
X99599069Y-52920900D01*
X99599069Y-52025766D01*
X99599068Y-52025766D01*
X99385582Y-52082969D01*
X99385576Y-52082972D01*
X99171491Y-52182801D01*
X99171489Y-52182802D01*
X98977995Y-52318288D01*
X98977989Y-52318293D01*
X98810960Y-52485322D01*
X98810959Y-52485324D01*
X98680644Y-52671433D01*
X98626067Y-52715057D01*
X98556568Y-52722250D01*
X98494214Y-52690728D01*
X98477494Y-52671433D01*
X98347178Y-52485324D01*
X98347177Y-52485322D01*
X98180151Y-52318296D01*
X97986647Y-52182801D01*
X97772561Y-52082972D01*
X97772555Y-52082969D01*
X97559069Y-52025766D01*
X97559069Y-52920900D01*
X97451384Y-52871722D01*
X97344832Y-52856402D01*
X97273306Y-52856402D01*
X97166754Y-52871722D01*
X97059069Y-52920900D01*
X97059069Y-52025766D01*
X97059068Y-52025766D01*
X96845582Y-52082969D01*
X96845576Y-52082972D01*
X96631491Y-52182801D01*
X96631489Y-52182802D01*
X96437995Y-52318288D01*
X96437989Y-52318293D01*
X96270960Y-52485322D01*
X96270959Y-52485324D01*
X96140644Y-52671433D01*
X96086067Y-52715057D01*
X96016568Y-52722250D01*
X95954214Y-52690728D01*
X95937494Y-52671433D01*
X95807178Y-52485324D01*
X95807177Y-52485322D01*
X95640151Y-52318296D01*
X95446647Y-52182801D01*
X95232561Y-52082972D01*
X95232555Y-52082969D01*
X95019069Y-52025766D01*
X95019069Y-52920900D01*
X94911384Y-52871722D01*
X94804832Y-52856402D01*
X94733306Y-52856402D01*
X94626754Y-52871722D01*
X94519068Y-52920900D01*
X94519068Y-52025766D01*
X94305582Y-52082969D01*
X94305576Y-52082972D01*
X94091491Y-52182801D01*
X94091489Y-52182802D01*
X93897995Y-52318288D01*
X93897989Y-52318293D01*
X93730960Y-52485322D01*
X93730959Y-52485324D01*
X93600644Y-52671433D01*
X93546067Y-52715057D01*
X93476568Y-52722250D01*
X93414214Y-52690728D01*
X93397494Y-52671433D01*
X93267178Y-52485324D01*
X93267177Y-52485322D01*
X93100151Y-52318296D01*
X92906647Y-52182801D01*
X92692561Y-52082972D01*
X92692555Y-52082969D01*
X92479069Y-52025766D01*
X92479069Y-52920900D01*
X92371384Y-52871722D01*
X92264832Y-52856402D01*
X92193306Y-52856402D01*
X92086754Y-52871722D01*
X91979069Y-52920900D01*
X91979069Y-52025766D01*
X91979068Y-52025766D01*
X91765582Y-52082969D01*
X91765576Y-52082972D01*
X91551491Y-52182801D01*
X91551489Y-52182802D01*
X91357995Y-52318288D01*
X91357989Y-52318293D01*
X91190960Y-52485322D01*
X91190959Y-52485324D01*
X91060643Y-52671433D01*
X91006065Y-52715058D01*
X90936567Y-52722250D01*
X90874212Y-52690728D01*
X90857493Y-52671432D01*
X90727182Y-52485328D01*
X90727177Y-52485322D01*
X90560151Y-52318296D01*
X90366647Y-52182801D01*
X90152561Y-52082972D01*
X90152555Y-52082969D01*
X89939069Y-52025766D01*
X89939068Y-52025766D01*
X89939068Y-52920900D01*
X89831384Y-52871722D01*
X89724832Y-52856402D01*
X89653306Y-52856402D01*
X89546754Y-52871722D01*
X89439069Y-52920900D01*
X89439069Y-52025766D01*
X89439068Y-52025766D01*
X89225582Y-52082969D01*
X89225576Y-52082972D01*
X89011491Y-52182801D01*
X89011489Y-52182802D01*
X88817995Y-52318288D01*
X88817989Y-52318293D01*
X88650960Y-52485322D01*
X88650959Y-52485324D01*
X88520643Y-52671433D01*
X88466065Y-52715058D01*
X88396567Y-52722250D01*
X88334212Y-52690728D01*
X88317493Y-52671432D01*
X88187182Y-52485328D01*
X88187177Y-52485322D01*
X88020151Y-52318296D01*
X87826647Y-52182801D01*
X87612561Y-52082972D01*
X87612555Y-52082969D01*
X87399069Y-52025766D01*
X87399069Y-52920900D01*
X87291384Y-52871722D01*
X87184832Y-52856402D01*
X87113306Y-52856402D01*
X87006754Y-52871722D01*
X86899069Y-52920900D01*
X86899069Y-52025766D01*
X86899068Y-52025766D01*
X86685582Y-52082969D01*
X86685576Y-52082972D01*
X86471491Y-52182801D01*
X86471489Y-52182802D01*
X86277995Y-52318288D01*
X86277989Y-52318293D01*
X86110960Y-52485322D01*
X86110959Y-52485324D01*
X85980644Y-52671433D01*
X85926067Y-52715057D01*
X85856568Y-52722250D01*
X85794214Y-52690728D01*
X85777494Y-52671433D01*
X85647178Y-52485324D01*
X85647177Y-52485322D01*
X85480151Y-52318296D01*
X85286647Y-52182801D01*
X85072561Y-52082972D01*
X85072555Y-52082969D01*
X84859069Y-52025766D01*
X84859069Y-52920900D01*
X84751384Y-52871722D01*
X84644832Y-52856402D01*
X84573306Y-52856402D01*
X84466754Y-52871722D01*
X84359069Y-52920900D01*
X84359069Y-52025766D01*
X84359068Y-52025766D01*
X84145582Y-52082969D01*
X84145576Y-52082972D01*
X83931491Y-52182801D01*
X83931489Y-52182802D01*
X83737995Y-52318288D01*
X83737989Y-52318293D01*
X83570960Y-52485322D01*
X83570955Y-52485328D01*
X83435469Y-52678822D01*
X83435468Y-52678824D01*
X83335639Y-52892909D01*
X83335636Y-52892915D01*
X83278433Y-53106401D01*
X83278433Y-53106402D01*
X84175383Y-53106402D01*
X84149576Y-53146558D01*
X84109069Y-53284513D01*
X84109069Y-53428291D01*
X84149576Y-53566246D01*
X84175383Y-53606402D01*
X83278433Y-53606402D01*
X83335636Y-53819888D01*
X83335639Y-53819894D01*
X83435468Y-54033980D01*
X83570963Y-54227484D01*
X83737986Y-54394507D01*
X83923664Y-54524521D01*
X83967288Y-54579098D01*
X83974481Y-54648597D01*
X83942959Y-54710951D01*
X83923664Y-54727671D01*
X83737663Y-54857910D01*
X83570574Y-55024999D01*
X83435034Y-55218571D01*
X83435033Y-55218573D01*
X83335167Y-55432737D01*
X83335163Y-55432746D01*
X83274007Y-55660988D01*
X83274005Y-55660998D01*
X83253410Y-55896401D01*
X83253410Y-55896402D01*
X42503790Y-55896402D01*
X42512408Y-55808901D01*
X42493391Y-55615809D01*
X42437066Y-55430132D01*
X42373635Y-55311461D01*
X41876196Y-55808901D01*
X41753910Y-55808901D01*
X41756493Y-55784323D01*
X41726278Y-55691333D01*
X41660854Y-55618671D01*
X41571531Y-55578902D01*
X41498471Y-55578902D01*
X41427004Y-55594093D01*
X41347901Y-55651564D01*
X41299013Y-55736240D01*
X41288793Y-55833481D01*
X41144511Y-55833481D01*
X41169090Y-55808902D01*
X40671650Y-55311462D01*
X40608219Y-55430132D01*
X40551894Y-55615809D01*
X40532877Y-55808902D01*
X35493143Y-55808902D01*
X35493143Y-54957909D01*
X41025203Y-54957909D01*
X41522643Y-55455349D01*
X41522644Y-55455349D01*
X42020082Y-54957909D01*
X41901412Y-54894478D01*
X41715735Y-54838153D01*
X41522643Y-54819136D01*
X41329550Y-54838153D01*
X41143873Y-54894478D01*
X41025203Y-54957909D01*
X35493143Y-54957909D01*
X35493143Y-47813402D01*
X35512828Y-47746363D01*
X35565632Y-47700608D01*
X35617143Y-47689402D01*
X258368143Y-47689402D01*
X258435182Y-47709087D01*
G37*
%TD.AperFunction*%
%TD*%
M02*
