%TF.GenerationSoftware,KiCad,Pcbnew,7.0.5-0*%
%TF.CreationDate,2023-07-19T11:22:42-03:00*%
%TF.ProjectId,F2V,4632562e-6b69-4636-9164-5f7063625858,rev?*%
%TF.SameCoordinates,Original*%
%TF.FileFunction,Legend,Top*%
%TF.FilePolarity,Positive*%
%FSLAX46Y46*%
G04 Gerber Fmt 4.6, Leading zero omitted, Abs format (unit mm)*
G04 Created by KiCad (PCBNEW 7.0.5-0) date 2023-07-19 11:22:42*
%MOMM*%
%LPD*%
G01*
G04 APERTURE LIST*
%ADD10C,0.150000*%
%ADD11C,0.100000*%
%ADD12C,0.127000*%
%ADD13C,0.120000*%
%ADD14C,0.300000*%
%ADD15C,0.200000*%
%ADD16C,0.152400*%
%ADD17C,0.254000*%
%ADD18C,0.177800*%
G04 APERTURE END LIST*
D10*
%TO.C,C6*%
X88507823Y-115737668D02*
X88555443Y-115785287D01*
X88555443Y-115785287D02*
X88603062Y-115928144D01*
X88603062Y-115928144D02*
X88603062Y-116023382D01*
X88603062Y-116023382D02*
X88555443Y-116166239D01*
X88555443Y-116166239D02*
X88460204Y-116261477D01*
X88460204Y-116261477D02*
X88364966Y-116309096D01*
X88364966Y-116309096D02*
X88174490Y-116356715D01*
X88174490Y-116356715D02*
X88031633Y-116356715D01*
X88031633Y-116356715D02*
X87841157Y-116309096D01*
X87841157Y-116309096D02*
X87745919Y-116261477D01*
X87745919Y-116261477D02*
X87650681Y-116166239D01*
X87650681Y-116166239D02*
X87603062Y-116023382D01*
X87603062Y-116023382D02*
X87603062Y-115928144D01*
X87603062Y-115928144D02*
X87650681Y-115785287D01*
X87650681Y-115785287D02*
X87698300Y-115737668D01*
X87603062Y-114880525D02*
X87603062Y-115071001D01*
X87603062Y-115071001D02*
X87650681Y-115166239D01*
X87650681Y-115166239D02*
X87698300Y-115213858D01*
X87698300Y-115213858D02*
X87841157Y-115309096D01*
X87841157Y-115309096D02*
X88031633Y-115356715D01*
X88031633Y-115356715D02*
X88412585Y-115356715D01*
X88412585Y-115356715D02*
X88507823Y-115309096D01*
X88507823Y-115309096D02*
X88555443Y-115261477D01*
X88555443Y-115261477D02*
X88603062Y-115166239D01*
X88603062Y-115166239D02*
X88603062Y-114975763D01*
X88603062Y-114975763D02*
X88555443Y-114880525D01*
X88555443Y-114880525D02*
X88507823Y-114832906D01*
X88507823Y-114832906D02*
X88412585Y-114785287D01*
X88412585Y-114785287D02*
X88174490Y-114785287D01*
X88174490Y-114785287D02*
X88079252Y-114832906D01*
X88079252Y-114832906D02*
X88031633Y-114880525D01*
X88031633Y-114880525D02*
X87984014Y-114975763D01*
X87984014Y-114975763D02*
X87984014Y-115166239D01*
X87984014Y-115166239D02*
X88031633Y-115261477D01*
X88031633Y-115261477D02*
X88079252Y-115309096D01*
X88079252Y-115309096D02*
X88174490Y-115356715D01*
%TO.C,C49*%
X94059782Y-75197743D02*
X94107402Y-75245362D01*
X94107402Y-75245362D02*
X94155021Y-75388219D01*
X94155021Y-75388219D02*
X94155021Y-75483457D01*
X94155021Y-75483457D02*
X94107402Y-75626314D01*
X94107402Y-75626314D02*
X94012163Y-75721552D01*
X94012163Y-75721552D02*
X93916925Y-75769171D01*
X93916925Y-75769171D02*
X93726449Y-75816790D01*
X93726449Y-75816790D02*
X93583592Y-75816790D01*
X93583592Y-75816790D02*
X93393116Y-75769171D01*
X93393116Y-75769171D02*
X93297878Y-75721552D01*
X93297878Y-75721552D02*
X93202640Y-75626314D01*
X93202640Y-75626314D02*
X93155021Y-75483457D01*
X93155021Y-75483457D02*
X93155021Y-75388219D01*
X93155021Y-75388219D02*
X93202640Y-75245362D01*
X93202640Y-75245362D02*
X93250259Y-75197743D01*
X93488354Y-74340600D02*
X94155021Y-74340600D01*
X93107402Y-74578695D02*
X93821687Y-74816790D01*
X93821687Y-74816790D02*
X93821687Y-74197743D01*
X94155021Y-73769171D02*
X94155021Y-73578695D01*
X94155021Y-73578695D02*
X94107402Y-73483457D01*
X94107402Y-73483457D02*
X94059782Y-73435838D01*
X94059782Y-73435838D02*
X93916925Y-73340600D01*
X93916925Y-73340600D02*
X93726449Y-73292981D01*
X93726449Y-73292981D02*
X93345497Y-73292981D01*
X93345497Y-73292981D02*
X93250259Y-73340600D01*
X93250259Y-73340600D02*
X93202640Y-73388219D01*
X93202640Y-73388219D02*
X93155021Y-73483457D01*
X93155021Y-73483457D02*
X93155021Y-73673933D01*
X93155021Y-73673933D02*
X93202640Y-73769171D01*
X93202640Y-73769171D02*
X93250259Y-73816790D01*
X93250259Y-73816790D02*
X93345497Y-73864409D01*
X93345497Y-73864409D02*
X93583592Y-73864409D01*
X93583592Y-73864409D02*
X93678830Y-73816790D01*
X93678830Y-73816790D02*
X93726449Y-73769171D01*
X93726449Y-73769171D02*
X93774068Y-73673933D01*
X93774068Y-73673933D02*
X93774068Y-73483457D01*
X93774068Y-73483457D02*
X93726449Y-73388219D01*
X93726449Y-73388219D02*
X93678830Y-73340600D01*
X93678830Y-73340600D02*
X93583592Y-73292981D01*
%TO.C,FB8*%
X73659309Y-83819911D02*
X73325976Y-83819911D01*
X73325976Y-84343721D02*
X73325976Y-83343721D01*
X73325976Y-83343721D02*
X73802166Y-83343721D01*
X74516452Y-83819911D02*
X74659309Y-83867530D01*
X74659309Y-83867530D02*
X74706928Y-83915149D01*
X74706928Y-83915149D02*
X74754547Y-84010387D01*
X74754547Y-84010387D02*
X74754547Y-84153244D01*
X74754547Y-84153244D02*
X74706928Y-84248482D01*
X74706928Y-84248482D02*
X74659309Y-84296102D01*
X74659309Y-84296102D02*
X74564071Y-84343721D01*
X74564071Y-84343721D02*
X74183119Y-84343721D01*
X74183119Y-84343721D02*
X74183119Y-83343721D01*
X74183119Y-83343721D02*
X74516452Y-83343721D01*
X74516452Y-83343721D02*
X74611690Y-83391340D01*
X74611690Y-83391340D02*
X74659309Y-83438959D01*
X74659309Y-83438959D02*
X74706928Y-83534197D01*
X74706928Y-83534197D02*
X74706928Y-83629435D01*
X74706928Y-83629435D02*
X74659309Y-83724673D01*
X74659309Y-83724673D02*
X74611690Y-83772292D01*
X74611690Y-83772292D02*
X74516452Y-83819911D01*
X74516452Y-83819911D02*
X74183119Y-83819911D01*
X75325976Y-83772292D02*
X75230738Y-83724673D01*
X75230738Y-83724673D02*
X75183119Y-83677054D01*
X75183119Y-83677054D02*
X75135500Y-83581816D01*
X75135500Y-83581816D02*
X75135500Y-83534197D01*
X75135500Y-83534197D02*
X75183119Y-83438959D01*
X75183119Y-83438959D02*
X75230738Y-83391340D01*
X75230738Y-83391340D02*
X75325976Y-83343721D01*
X75325976Y-83343721D02*
X75516452Y-83343721D01*
X75516452Y-83343721D02*
X75611690Y-83391340D01*
X75611690Y-83391340D02*
X75659309Y-83438959D01*
X75659309Y-83438959D02*
X75706928Y-83534197D01*
X75706928Y-83534197D02*
X75706928Y-83581816D01*
X75706928Y-83581816D02*
X75659309Y-83677054D01*
X75659309Y-83677054D02*
X75611690Y-83724673D01*
X75611690Y-83724673D02*
X75516452Y-83772292D01*
X75516452Y-83772292D02*
X75325976Y-83772292D01*
X75325976Y-83772292D02*
X75230738Y-83819911D01*
X75230738Y-83819911D02*
X75183119Y-83867530D01*
X75183119Y-83867530D02*
X75135500Y-83962768D01*
X75135500Y-83962768D02*
X75135500Y-84153244D01*
X75135500Y-84153244D02*
X75183119Y-84248482D01*
X75183119Y-84248482D02*
X75230738Y-84296102D01*
X75230738Y-84296102D02*
X75325976Y-84343721D01*
X75325976Y-84343721D02*
X75516452Y-84343721D01*
X75516452Y-84343721D02*
X75611690Y-84296102D01*
X75611690Y-84296102D02*
X75659309Y-84248482D01*
X75659309Y-84248482D02*
X75706928Y-84153244D01*
X75706928Y-84153244D02*
X75706928Y-83962768D01*
X75706928Y-83962768D02*
X75659309Y-83867530D01*
X75659309Y-83867530D02*
X75611690Y-83819911D01*
X75611690Y-83819911D02*
X75516452Y-83772292D01*
%TO.C,R51*%
X89703062Y-127013859D02*
X89226871Y-127347192D01*
X89703062Y-127585287D02*
X88703062Y-127585287D01*
X88703062Y-127585287D02*
X88703062Y-127204335D01*
X88703062Y-127204335D02*
X88750681Y-127109097D01*
X88750681Y-127109097D02*
X88798300Y-127061478D01*
X88798300Y-127061478D02*
X88893538Y-127013859D01*
X88893538Y-127013859D02*
X89036395Y-127013859D01*
X89036395Y-127013859D02*
X89131633Y-127061478D01*
X89131633Y-127061478D02*
X89179252Y-127109097D01*
X89179252Y-127109097D02*
X89226871Y-127204335D01*
X89226871Y-127204335D02*
X89226871Y-127585287D01*
X88703062Y-126109097D02*
X88703062Y-126585287D01*
X88703062Y-126585287D02*
X89179252Y-126632906D01*
X89179252Y-126632906D02*
X89131633Y-126585287D01*
X89131633Y-126585287D02*
X89084014Y-126490049D01*
X89084014Y-126490049D02*
X89084014Y-126251954D01*
X89084014Y-126251954D02*
X89131633Y-126156716D01*
X89131633Y-126156716D02*
X89179252Y-126109097D01*
X89179252Y-126109097D02*
X89274490Y-126061478D01*
X89274490Y-126061478D02*
X89512585Y-126061478D01*
X89512585Y-126061478D02*
X89607823Y-126109097D01*
X89607823Y-126109097D02*
X89655443Y-126156716D01*
X89655443Y-126156716D02*
X89703062Y-126251954D01*
X89703062Y-126251954D02*
X89703062Y-126490049D01*
X89703062Y-126490049D02*
X89655443Y-126585287D01*
X89655443Y-126585287D02*
X89607823Y-126632906D01*
X89703062Y-125109097D02*
X89703062Y-125680525D01*
X89703062Y-125394811D02*
X88703062Y-125394811D01*
X88703062Y-125394811D02*
X88845919Y-125490049D01*
X88845919Y-125490049D02*
X88941157Y-125585287D01*
X88941157Y-125585287D02*
X88988776Y-125680525D01*
%TO.C,C28*%
X116752223Y-83981759D02*
X116799843Y-84029378D01*
X116799843Y-84029378D02*
X116847462Y-84172235D01*
X116847462Y-84172235D02*
X116847462Y-84267473D01*
X116847462Y-84267473D02*
X116799843Y-84410330D01*
X116799843Y-84410330D02*
X116704604Y-84505568D01*
X116704604Y-84505568D02*
X116609366Y-84553187D01*
X116609366Y-84553187D02*
X116418890Y-84600806D01*
X116418890Y-84600806D02*
X116276033Y-84600806D01*
X116276033Y-84600806D02*
X116085557Y-84553187D01*
X116085557Y-84553187D02*
X115990319Y-84505568D01*
X115990319Y-84505568D02*
X115895081Y-84410330D01*
X115895081Y-84410330D02*
X115847462Y-84267473D01*
X115847462Y-84267473D02*
X115847462Y-84172235D01*
X115847462Y-84172235D02*
X115895081Y-84029378D01*
X115895081Y-84029378D02*
X115942700Y-83981759D01*
X115942700Y-83600806D02*
X115895081Y-83553187D01*
X115895081Y-83553187D02*
X115847462Y-83457949D01*
X115847462Y-83457949D02*
X115847462Y-83219854D01*
X115847462Y-83219854D02*
X115895081Y-83124616D01*
X115895081Y-83124616D02*
X115942700Y-83076997D01*
X115942700Y-83076997D02*
X116037938Y-83029378D01*
X116037938Y-83029378D02*
X116133176Y-83029378D01*
X116133176Y-83029378D02*
X116276033Y-83076997D01*
X116276033Y-83076997D02*
X116847462Y-83648425D01*
X116847462Y-83648425D02*
X116847462Y-83029378D01*
X116276033Y-82457949D02*
X116228414Y-82553187D01*
X116228414Y-82553187D02*
X116180795Y-82600806D01*
X116180795Y-82600806D02*
X116085557Y-82648425D01*
X116085557Y-82648425D02*
X116037938Y-82648425D01*
X116037938Y-82648425D02*
X115942700Y-82600806D01*
X115942700Y-82600806D02*
X115895081Y-82553187D01*
X115895081Y-82553187D02*
X115847462Y-82457949D01*
X115847462Y-82457949D02*
X115847462Y-82267473D01*
X115847462Y-82267473D02*
X115895081Y-82172235D01*
X115895081Y-82172235D02*
X115942700Y-82124616D01*
X115942700Y-82124616D02*
X116037938Y-82076997D01*
X116037938Y-82076997D02*
X116085557Y-82076997D01*
X116085557Y-82076997D02*
X116180795Y-82124616D01*
X116180795Y-82124616D02*
X116228414Y-82172235D01*
X116228414Y-82172235D02*
X116276033Y-82267473D01*
X116276033Y-82267473D02*
X116276033Y-82457949D01*
X116276033Y-82457949D02*
X116323652Y-82553187D01*
X116323652Y-82553187D02*
X116371271Y-82600806D01*
X116371271Y-82600806D02*
X116466509Y-82648425D01*
X116466509Y-82648425D02*
X116656985Y-82648425D01*
X116656985Y-82648425D02*
X116752223Y-82600806D01*
X116752223Y-82600806D02*
X116799843Y-82553187D01*
X116799843Y-82553187D02*
X116847462Y-82457949D01*
X116847462Y-82457949D02*
X116847462Y-82267473D01*
X116847462Y-82267473D02*
X116799843Y-82172235D01*
X116799843Y-82172235D02*
X116752223Y-82124616D01*
X116752223Y-82124616D02*
X116656985Y-82076997D01*
X116656985Y-82076997D02*
X116466509Y-82076997D01*
X116466509Y-82076997D02*
X116371271Y-82124616D01*
X116371271Y-82124616D02*
X116323652Y-82172235D01*
X116323652Y-82172235D02*
X116276033Y-82267473D01*
%TO.C,C24*%
X80045701Y-95861806D02*
X80093321Y-95909425D01*
X80093321Y-95909425D02*
X80140940Y-96052282D01*
X80140940Y-96052282D02*
X80140940Y-96147520D01*
X80140940Y-96147520D02*
X80093321Y-96290377D01*
X80093321Y-96290377D02*
X79998082Y-96385615D01*
X79998082Y-96385615D02*
X79902844Y-96433234D01*
X79902844Y-96433234D02*
X79712368Y-96480853D01*
X79712368Y-96480853D02*
X79569511Y-96480853D01*
X79569511Y-96480853D02*
X79379035Y-96433234D01*
X79379035Y-96433234D02*
X79283797Y-96385615D01*
X79283797Y-96385615D02*
X79188559Y-96290377D01*
X79188559Y-96290377D02*
X79140940Y-96147520D01*
X79140940Y-96147520D02*
X79140940Y-96052282D01*
X79140940Y-96052282D02*
X79188559Y-95909425D01*
X79188559Y-95909425D02*
X79236178Y-95861806D01*
X79236178Y-95480853D02*
X79188559Y-95433234D01*
X79188559Y-95433234D02*
X79140940Y-95337996D01*
X79140940Y-95337996D02*
X79140940Y-95099901D01*
X79140940Y-95099901D02*
X79188559Y-95004663D01*
X79188559Y-95004663D02*
X79236178Y-94957044D01*
X79236178Y-94957044D02*
X79331416Y-94909425D01*
X79331416Y-94909425D02*
X79426654Y-94909425D01*
X79426654Y-94909425D02*
X79569511Y-94957044D01*
X79569511Y-94957044D02*
X80140940Y-95528472D01*
X80140940Y-95528472D02*
X80140940Y-94909425D01*
X79474273Y-94052282D02*
X80140940Y-94052282D01*
X79093321Y-94290377D02*
X79807606Y-94528472D01*
X79807606Y-94528472D02*
X79807606Y-93909425D01*
%TO.C,R12*%
X96249803Y-114305821D02*
X95916470Y-113829630D01*
X95678375Y-114305821D02*
X95678375Y-113305821D01*
X95678375Y-113305821D02*
X96059327Y-113305821D01*
X96059327Y-113305821D02*
X96154565Y-113353440D01*
X96154565Y-113353440D02*
X96202184Y-113401059D01*
X96202184Y-113401059D02*
X96249803Y-113496297D01*
X96249803Y-113496297D02*
X96249803Y-113639154D01*
X96249803Y-113639154D02*
X96202184Y-113734392D01*
X96202184Y-113734392D02*
X96154565Y-113782011D01*
X96154565Y-113782011D02*
X96059327Y-113829630D01*
X96059327Y-113829630D02*
X95678375Y-113829630D01*
X97202184Y-114305821D02*
X96630756Y-114305821D01*
X96916470Y-114305821D02*
X96916470Y-113305821D01*
X96916470Y-113305821D02*
X96821232Y-113448678D01*
X96821232Y-113448678D02*
X96725994Y-113543916D01*
X96725994Y-113543916D02*
X96630756Y-113591535D01*
X97583137Y-113401059D02*
X97630756Y-113353440D01*
X97630756Y-113353440D02*
X97725994Y-113305821D01*
X97725994Y-113305821D02*
X97964089Y-113305821D01*
X97964089Y-113305821D02*
X98059327Y-113353440D01*
X98059327Y-113353440D02*
X98106946Y-113401059D01*
X98106946Y-113401059D02*
X98154565Y-113496297D01*
X98154565Y-113496297D02*
X98154565Y-113591535D01*
X98154565Y-113591535D02*
X98106946Y-113734392D01*
X98106946Y-113734392D02*
X97535518Y-114305821D01*
X97535518Y-114305821D02*
X98154565Y-114305821D01*
%TO.C,R50*%
X78291883Y-90403696D02*
X77815692Y-90737029D01*
X78291883Y-90975124D02*
X77291883Y-90975124D01*
X77291883Y-90975124D02*
X77291883Y-90594172D01*
X77291883Y-90594172D02*
X77339502Y-90498934D01*
X77339502Y-90498934D02*
X77387121Y-90451315D01*
X77387121Y-90451315D02*
X77482359Y-90403696D01*
X77482359Y-90403696D02*
X77625216Y-90403696D01*
X77625216Y-90403696D02*
X77720454Y-90451315D01*
X77720454Y-90451315D02*
X77768073Y-90498934D01*
X77768073Y-90498934D02*
X77815692Y-90594172D01*
X77815692Y-90594172D02*
X77815692Y-90975124D01*
X77291883Y-89498934D02*
X77291883Y-89975124D01*
X77291883Y-89975124D02*
X77768073Y-90022743D01*
X77768073Y-90022743D02*
X77720454Y-89975124D01*
X77720454Y-89975124D02*
X77672835Y-89879886D01*
X77672835Y-89879886D02*
X77672835Y-89641791D01*
X77672835Y-89641791D02*
X77720454Y-89546553D01*
X77720454Y-89546553D02*
X77768073Y-89498934D01*
X77768073Y-89498934D02*
X77863311Y-89451315D01*
X77863311Y-89451315D02*
X78101406Y-89451315D01*
X78101406Y-89451315D02*
X78196644Y-89498934D01*
X78196644Y-89498934D02*
X78244264Y-89546553D01*
X78244264Y-89546553D02*
X78291883Y-89641791D01*
X78291883Y-89641791D02*
X78291883Y-89879886D01*
X78291883Y-89879886D02*
X78244264Y-89975124D01*
X78244264Y-89975124D02*
X78196644Y-90022743D01*
X77291883Y-88832267D02*
X77291883Y-88737029D01*
X77291883Y-88737029D02*
X77339502Y-88641791D01*
X77339502Y-88641791D02*
X77387121Y-88594172D01*
X77387121Y-88594172D02*
X77482359Y-88546553D01*
X77482359Y-88546553D02*
X77672835Y-88498934D01*
X77672835Y-88498934D02*
X77910930Y-88498934D01*
X77910930Y-88498934D02*
X78101406Y-88546553D01*
X78101406Y-88546553D02*
X78196644Y-88594172D01*
X78196644Y-88594172D02*
X78244264Y-88641791D01*
X78244264Y-88641791D02*
X78291883Y-88737029D01*
X78291883Y-88737029D02*
X78291883Y-88832267D01*
X78291883Y-88832267D02*
X78244264Y-88927505D01*
X78244264Y-88927505D02*
X78196644Y-88975124D01*
X78196644Y-88975124D02*
X78101406Y-89022743D01*
X78101406Y-89022743D02*
X77910930Y-89070362D01*
X77910930Y-89070362D02*
X77672835Y-89070362D01*
X77672835Y-89070362D02*
X77482359Y-89022743D01*
X77482359Y-89022743D02*
X77387121Y-88975124D01*
X77387121Y-88975124D02*
X77339502Y-88927505D01*
X77339502Y-88927505D02*
X77291883Y-88832267D01*
%TO.C,C44*%
X132668706Y-92054903D02*
X132621087Y-92102523D01*
X132621087Y-92102523D02*
X132478230Y-92150142D01*
X132478230Y-92150142D02*
X132382992Y-92150142D01*
X132382992Y-92150142D02*
X132240135Y-92102523D01*
X132240135Y-92102523D02*
X132144897Y-92007284D01*
X132144897Y-92007284D02*
X132097278Y-91912046D01*
X132097278Y-91912046D02*
X132049659Y-91721570D01*
X132049659Y-91721570D02*
X132049659Y-91578713D01*
X132049659Y-91578713D02*
X132097278Y-91388237D01*
X132097278Y-91388237D02*
X132144897Y-91292999D01*
X132144897Y-91292999D02*
X132240135Y-91197761D01*
X132240135Y-91197761D02*
X132382992Y-91150142D01*
X132382992Y-91150142D02*
X132478230Y-91150142D01*
X132478230Y-91150142D02*
X132621087Y-91197761D01*
X132621087Y-91197761D02*
X132668706Y-91245380D01*
X133525849Y-91483475D02*
X133525849Y-92150142D01*
X133287754Y-91102523D02*
X133049659Y-91816808D01*
X133049659Y-91816808D02*
X133668706Y-91816808D01*
X134478230Y-91483475D02*
X134478230Y-92150142D01*
X134240135Y-91102523D02*
X134002040Y-91816808D01*
X134002040Y-91816808D02*
X134621087Y-91816808D01*
%TO.C,P8*%
X66347462Y-102026996D02*
X65347462Y-102026996D01*
X65347462Y-102026996D02*
X65347462Y-101646044D01*
X65347462Y-101646044D02*
X65395081Y-101550806D01*
X65395081Y-101550806D02*
X65442700Y-101503187D01*
X65442700Y-101503187D02*
X65537938Y-101455568D01*
X65537938Y-101455568D02*
X65680795Y-101455568D01*
X65680795Y-101455568D02*
X65776033Y-101503187D01*
X65776033Y-101503187D02*
X65823652Y-101550806D01*
X65823652Y-101550806D02*
X65871271Y-101646044D01*
X65871271Y-101646044D02*
X65871271Y-102026996D01*
X65776033Y-100884139D02*
X65728414Y-100979377D01*
X65728414Y-100979377D02*
X65680795Y-101026996D01*
X65680795Y-101026996D02*
X65585557Y-101074615D01*
X65585557Y-101074615D02*
X65537938Y-101074615D01*
X65537938Y-101074615D02*
X65442700Y-101026996D01*
X65442700Y-101026996D02*
X65395081Y-100979377D01*
X65395081Y-100979377D02*
X65347462Y-100884139D01*
X65347462Y-100884139D02*
X65347462Y-100693663D01*
X65347462Y-100693663D02*
X65395081Y-100598425D01*
X65395081Y-100598425D02*
X65442700Y-100550806D01*
X65442700Y-100550806D02*
X65537938Y-100503187D01*
X65537938Y-100503187D02*
X65585557Y-100503187D01*
X65585557Y-100503187D02*
X65680795Y-100550806D01*
X65680795Y-100550806D02*
X65728414Y-100598425D01*
X65728414Y-100598425D02*
X65776033Y-100693663D01*
X65776033Y-100693663D02*
X65776033Y-100884139D01*
X65776033Y-100884139D02*
X65823652Y-100979377D01*
X65823652Y-100979377D02*
X65871271Y-101026996D01*
X65871271Y-101026996D02*
X65966509Y-101074615D01*
X65966509Y-101074615D02*
X66156985Y-101074615D01*
X66156985Y-101074615D02*
X66252223Y-101026996D01*
X66252223Y-101026996D02*
X66299843Y-100979377D01*
X66299843Y-100979377D02*
X66347462Y-100884139D01*
X66347462Y-100884139D02*
X66347462Y-100693663D01*
X66347462Y-100693663D02*
X66299843Y-100598425D01*
X66299843Y-100598425D02*
X66252223Y-100550806D01*
X66252223Y-100550806D02*
X66156985Y-100503187D01*
X66156985Y-100503187D02*
X65966509Y-100503187D01*
X65966509Y-100503187D02*
X65871271Y-100550806D01*
X65871271Y-100550806D02*
X65823652Y-100598425D01*
X65823652Y-100598425D02*
X65776033Y-100693663D01*
%TO.C,R18*%
X89849803Y-134145821D02*
X89516470Y-133669630D01*
X89278375Y-134145821D02*
X89278375Y-133145821D01*
X89278375Y-133145821D02*
X89659327Y-133145821D01*
X89659327Y-133145821D02*
X89754565Y-133193440D01*
X89754565Y-133193440D02*
X89802184Y-133241059D01*
X89802184Y-133241059D02*
X89849803Y-133336297D01*
X89849803Y-133336297D02*
X89849803Y-133479154D01*
X89849803Y-133479154D02*
X89802184Y-133574392D01*
X89802184Y-133574392D02*
X89754565Y-133622011D01*
X89754565Y-133622011D02*
X89659327Y-133669630D01*
X89659327Y-133669630D02*
X89278375Y-133669630D01*
X90802184Y-134145821D02*
X90230756Y-134145821D01*
X90516470Y-134145821D02*
X90516470Y-133145821D01*
X90516470Y-133145821D02*
X90421232Y-133288678D01*
X90421232Y-133288678D02*
X90325994Y-133383916D01*
X90325994Y-133383916D02*
X90230756Y-133431535D01*
X91373613Y-133574392D02*
X91278375Y-133526773D01*
X91278375Y-133526773D02*
X91230756Y-133479154D01*
X91230756Y-133479154D02*
X91183137Y-133383916D01*
X91183137Y-133383916D02*
X91183137Y-133336297D01*
X91183137Y-133336297D02*
X91230756Y-133241059D01*
X91230756Y-133241059D02*
X91278375Y-133193440D01*
X91278375Y-133193440D02*
X91373613Y-133145821D01*
X91373613Y-133145821D02*
X91564089Y-133145821D01*
X91564089Y-133145821D02*
X91659327Y-133193440D01*
X91659327Y-133193440D02*
X91706946Y-133241059D01*
X91706946Y-133241059D02*
X91754565Y-133336297D01*
X91754565Y-133336297D02*
X91754565Y-133383916D01*
X91754565Y-133383916D02*
X91706946Y-133479154D01*
X91706946Y-133479154D02*
X91659327Y-133526773D01*
X91659327Y-133526773D02*
X91564089Y-133574392D01*
X91564089Y-133574392D02*
X91373613Y-133574392D01*
X91373613Y-133574392D02*
X91278375Y-133622011D01*
X91278375Y-133622011D02*
X91230756Y-133669630D01*
X91230756Y-133669630D02*
X91183137Y-133764868D01*
X91183137Y-133764868D02*
X91183137Y-133955344D01*
X91183137Y-133955344D02*
X91230756Y-134050582D01*
X91230756Y-134050582D02*
X91278375Y-134098202D01*
X91278375Y-134098202D02*
X91373613Y-134145821D01*
X91373613Y-134145821D02*
X91564089Y-134145821D01*
X91564089Y-134145821D02*
X91659327Y-134098202D01*
X91659327Y-134098202D02*
X91706946Y-134050582D01*
X91706946Y-134050582D02*
X91754565Y-133955344D01*
X91754565Y-133955344D02*
X91754565Y-133764868D01*
X91754565Y-133764868D02*
X91706946Y-133669630D01*
X91706946Y-133669630D02*
X91659327Y-133622011D01*
X91659327Y-133622011D02*
X91564089Y-133574392D01*
%TO.C,R33*%
X117242509Y-80963634D02*
X116766318Y-81296967D01*
X117242509Y-81535062D02*
X116242509Y-81535062D01*
X116242509Y-81535062D02*
X116242509Y-81154110D01*
X116242509Y-81154110D02*
X116290128Y-81058872D01*
X116290128Y-81058872D02*
X116337747Y-81011253D01*
X116337747Y-81011253D02*
X116432985Y-80963634D01*
X116432985Y-80963634D02*
X116575842Y-80963634D01*
X116575842Y-80963634D02*
X116671080Y-81011253D01*
X116671080Y-81011253D02*
X116718699Y-81058872D01*
X116718699Y-81058872D02*
X116766318Y-81154110D01*
X116766318Y-81154110D02*
X116766318Y-81535062D01*
X116242509Y-80630300D02*
X116242509Y-80011253D01*
X116242509Y-80011253D02*
X116623461Y-80344586D01*
X116623461Y-80344586D02*
X116623461Y-80201729D01*
X116623461Y-80201729D02*
X116671080Y-80106491D01*
X116671080Y-80106491D02*
X116718699Y-80058872D01*
X116718699Y-80058872D02*
X116813937Y-80011253D01*
X116813937Y-80011253D02*
X117052032Y-80011253D01*
X117052032Y-80011253D02*
X117147270Y-80058872D01*
X117147270Y-80058872D02*
X117194890Y-80106491D01*
X117194890Y-80106491D02*
X117242509Y-80201729D01*
X117242509Y-80201729D02*
X117242509Y-80487443D01*
X117242509Y-80487443D02*
X117194890Y-80582681D01*
X117194890Y-80582681D02*
X117147270Y-80630300D01*
X116242509Y-79677919D02*
X116242509Y-79058872D01*
X116242509Y-79058872D02*
X116623461Y-79392205D01*
X116623461Y-79392205D02*
X116623461Y-79249348D01*
X116623461Y-79249348D02*
X116671080Y-79154110D01*
X116671080Y-79154110D02*
X116718699Y-79106491D01*
X116718699Y-79106491D02*
X116813937Y-79058872D01*
X116813937Y-79058872D02*
X117052032Y-79058872D01*
X117052032Y-79058872D02*
X117147270Y-79106491D01*
X117147270Y-79106491D02*
X117194890Y-79154110D01*
X117194890Y-79154110D02*
X117242509Y-79249348D01*
X117242509Y-79249348D02*
X117242509Y-79535062D01*
X117242509Y-79535062D02*
X117194890Y-79630300D01*
X117194890Y-79630300D02*
X117147270Y-79677919D01*
%TO.C,P4*%
X106410148Y-107325821D02*
X106410148Y-106325821D01*
X106410148Y-106325821D02*
X106791100Y-106325821D01*
X106791100Y-106325821D02*
X106886338Y-106373440D01*
X106886338Y-106373440D02*
X106933957Y-106421059D01*
X106933957Y-106421059D02*
X106981576Y-106516297D01*
X106981576Y-106516297D02*
X106981576Y-106659154D01*
X106981576Y-106659154D02*
X106933957Y-106754392D01*
X106933957Y-106754392D02*
X106886338Y-106802011D01*
X106886338Y-106802011D02*
X106791100Y-106849630D01*
X106791100Y-106849630D02*
X106410148Y-106849630D01*
X107838719Y-106659154D02*
X107838719Y-107325821D01*
X107600624Y-106278202D02*
X107362529Y-106992487D01*
X107362529Y-106992487D02*
X107981576Y-106992487D01*
%TO.C,C48*%
X76204938Y-77343833D02*
X76252558Y-77391452D01*
X76252558Y-77391452D02*
X76300177Y-77534309D01*
X76300177Y-77534309D02*
X76300177Y-77629547D01*
X76300177Y-77629547D02*
X76252558Y-77772404D01*
X76252558Y-77772404D02*
X76157319Y-77867642D01*
X76157319Y-77867642D02*
X76062081Y-77915261D01*
X76062081Y-77915261D02*
X75871605Y-77962880D01*
X75871605Y-77962880D02*
X75728748Y-77962880D01*
X75728748Y-77962880D02*
X75538272Y-77915261D01*
X75538272Y-77915261D02*
X75443034Y-77867642D01*
X75443034Y-77867642D02*
X75347796Y-77772404D01*
X75347796Y-77772404D02*
X75300177Y-77629547D01*
X75300177Y-77629547D02*
X75300177Y-77534309D01*
X75300177Y-77534309D02*
X75347796Y-77391452D01*
X75347796Y-77391452D02*
X75395415Y-77343833D01*
X75633510Y-76486690D02*
X76300177Y-76486690D01*
X75252558Y-76724785D02*
X75966843Y-76962880D01*
X75966843Y-76962880D02*
X75966843Y-76343833D01*
X75728748Y-75820023D02*
X75681129Y-75915261D01*
X75681129Y-75915261D02*
X75633510Y-75962880D01*
X75633510Y-75962880D02*
X75538272Y-76010499D01*
X75538272Y-76010499D02*
X75490653Y-76010499D01*
X75490653Y-76010499D02*
X75395415Y-75962880D01*
X75395415Y-75962880D02*
X75347796Y-75915261D01*
X75347796Y-75915261D02*
X75300177Y-75820023D01*
X75300177Y-75820023D02*
X75300177Y-75629547D01*
X75300177Y-75629547D02*
X75347796Y-75534309D01*
X75347796Y-75534309D02*
X75395415Y-75486690D01*
X75395415Y-75486690D02*
X75490653Y-75439071D01*
X75490653Y-75439071D02*
X75538272Y-75439071D01*
X75538272Y-75439071D02*
X75633510Y-75486690D01*
X75633510Y-75486690D02*
X75681129Y-75534309D01*
X75681129Y-75534309D02*
X75728748Y-75629547D01*
X75728748Y-75629547D02*
X75728748Y-75820023D01*
X75728748Y-75820023D02*
X75776367Y-75915261D01*
X75776367Y-75915261D02*
X75823986Y-75962880D01*
X75823986Y-75962880D02*
X75919224Y-76010499D01*
X75919224Y-76010499D02*
X76109700Y-76010499D01*
X76109700Y-76010499D02*
X76204938Y-75962880D01*
X76204938Y-75962880D02*
X76252558Y-75915261D01*
X76252558Y-75915261D02*
X76300177Y-75820023D01*
X76300177Y-75820023D02*
X76300177Y-75629547D01*
X76300177Y-75629547D02*
X76252558Y-75534309D01*
X76252558Y-75534309D02*
X76204938Y-75486690D01*
X76204938Y-75486690D02*
X76109700Y-75439071D01*
X76109700Y-75439071D02*
X75919224Y-75439071D01*
X75919224Y-75439071D02*
X75823986Y-75486690D01*
X75823986Y-75486690D02*
X75776367Y-75534309D01*
X75776367Y-75534309D02*
X75728748Y-75629547D01*
%TO.C,C27*%
X115946232Y-91832035D02*
X115898613Y-91879655D01*
X115898613Y-91879655D02*
X115755756Y-91927274D01*
X115755756Y-91927274D02*
X115660518Y-91927274D01*
X115660518Y-91927274D02*
X115517661Y-91879655D01*
X115517661Y-91879655D02*
X115422423Y-91784416D01*
X115422423Y-91784416D02*
X115374804Y-91689178D01*
X115374804Y-91689178D02*
X115327185Y-91498702D01*
X115327185Y-91498702D02*
X115327185Y-91355845D01*
X115327185Y-91355845D02*
X115374804Y-91165369D01*
X115374804Y-91165369D02*
X115422423Y-91070131D01*
X115422423Y-91070131D02*
X115517661Y-90974893D01*
X115517661Y-90974893D02*
X115660518Y-90927274D01*
X115660518Y-90927274D02*
X115755756Y-90927274D01*
X115755756Y-90927274D02*
X115898613Y-90974893D01*
X115898613Y-90974893D02*
X115946232Y-91022512D01*
X116327185Y-91022512D02*
X116374804Y-90974893D01*
X116374804Y-90974893D02*
X116470042Y-90927274D01*
X116470042Y-90927274D02*
X116708137Y-90927274D01*
X116708137Y-90927274D02*
X116803375Y-90974893D01*
X116803375Y-90974893D02*
X116850994Y-91022512D01*
X116850994Y-91022512D02*
X116898613Y-91117750D01*
X116898613Y-91117750D02*
X116898613Y-91212988D01*
X116898613Y-91212988D02*
X116850994Y-91355845D01*
X116850994Y-91355845D02*
X116279566Y-91927274D01*
X116279566Y-91927274D02*
X116898613Y-91927274D01*
X117231947Y-90927274D02*
X117898613Y-90927274D01*
X117898613Y-90927274D02*
X117470042Y-91927274D01*
%TO.C,Q1*%
X55502404Y-140268959D02*
X55407166Y-140221340D01*
X55407166Y-140221340D02*
X55311928Y-140126102D01*
X55311928Y-140126102D02*
X55169071Y-139983244D01*
X55169071Y-139983244D02*
X55073833Y-139935625D01*
X55073833Y-139935625D02*
X54978595Y-139935625D01*
X55026214Y-140173721D02*
X54930976Y-140126102D01*
X54930976Y-140126102D02*
X54835738Y-140030863D01*
X54835738Y-140030863D02*
X54788119Y-139840387D01*
X54788119Y-139840387D02*
X54788119Y-139507054D01*
X54788119Y-139507054D02*
X54835738Y-139316578D01*
X54835738Y-139316578D02*
X54930976Y-139221340D01*
X54930976Y-139221340D02*
X55026214Y-139173721D01*
X55026214Y-139173721D02*
X55216690Y-139173721D01*
X55216690Y-139173721D02*
X55311928Y-139221340D01*
X55311928Y-139221340D02*
X55407166Y-139316578D01*
X55407166Y-139316578D02*
X55454785Y-139507054D01*
X55454785Y-139507054D02*
X55454785Y-139840387D01*
X55454785Y-139840387D02*
X55407166Y-140030863D01*
X55407166Y-140030863D02*
X55311928Y-140126102D01*
X55311928Y-140126102D02*
X55216690Y-140173721D01*
X55216690Y-140173721D02*
X55026214Y-140173721D01*
X56407166Y-140173721D02*
X55835738Y-140173721D01*
X56121452Y-140173721D02*
X56121452Y-139173721D01*
X56121452Y-139173721D02*
X56026214Y-139316578D01*
X56026214Y-139316578D02*
X55930976Y-139411816D01*
X55930976Y-139411816D02*
X55835738Y-139459435D01*
%TO.C,R19*%
X45749785Y-133543721D02*
X45416452Y-133067530D01*
X45178357Y-133543721D02*
X45178357Y-132543721D01*
X45178357Y-132543721D02*
X45559309Y-132543721D01*
X45559309Y-132543721D02*
X45654547Y-132591340D01*
X45654547Y-132591340D02*
X45702166Y-132638959D01*
X45702166Y-132638959D02*
X45749785Y-132734197D01*
X45749785Y-132734197D02*
X45749785Y-132877054D01*
X45749785Y-132877054D02*
X45702166Y-132972292D01*
X45702166Y-132972292D02*
X45654547Y-133019911D01*
X45654547Y-133019911D02*
X45559309Y-133067530D01*
X45559309Y-133067530D02*
X45178357Y-133067530D01*
X46702166Y-133543721D02*
X46130738Y-133543721D01*
X46416452Y-133543721D02*
X46416452Y-132543721D01*
X46416452Y-132543721D02*
X46321214Y-132686578D01*
X46321214Y-132686578D02*
X46225976Y-132781816D01*
X46225976Y-132781816D02*
X46130738Y-132829435D01*
X47178357Y-133543721D02*
X47368833Y-133543721D01*
X47368833Y-133543721D02*
X47464071Y-133496102D01*
X47464071Y-133496102D02*
X47511690Y-133448482D01*
X47511690Y-133448482D02*
X47606928Y-133305625D01*
X47606928Y-133305625D02*
X47654547Y-133115149D01*
X47654547Y-133115149D02*
X47654547Y-132734197D01*
X47654547Y-132734197D02*
X47606928Y-132638959D01*
X47606928Y-132638959D02*
X47559309Y-132591340D01*
X47559309Y-132591340D02*
X47464071Y-132543721D01*
X47464071Y-132543721D02*
X47273595Y-132543721D01*
X47273595Y-132543721D02*
X47178357Y-132591340D01*
X47178357Y-132591340D02*
X47130738Y-132638959D01*
X47130738Y-132638959D02*
X47083119Y-132734197D01*
X47083119Y-132734197D02*
X47083119Y-132972292D01*
X47083119Y-132972292D02*
X47130738Y-133067530D01*
X47130738Y-133067530D02*
X47178357Y-133115149D01*
X47178357Y-133115149D02*
X47273595Y-133162768D01*
X47273595Y-133162768D02*
X47464071Y-133162768D01*
X47464071Y-133162768D02*
X47559309Y-133115149D01*
X47559309Y-133115149D02*
X47606928Y-133067530D01*
X47606928Y-133067530D02*
X47654547Y-132972292D01*
%TO.C,FB7*%
X72659309Y-97619911D02*
X72325976Y-97619911D01*
X72325976Y-98143721D02*
X72325976Y-97143721D01*
X72325976Y-97143721D02*
X72802166Y-97143721D01*
X73516452Y-97619911D02*
X73659309Y-97667530D01*
X73659309Y-97667530D02*
X73706928Y-97715149D01*
X73706928Y-97715149D02*
X73754547Y-97810387D01*
X73754547Y-97810387D02*
X73754547Y-97953244D01*
X73754547Y-97953244D02*
X73706928Y-98048482D01*
X73706928Y-98048482D02*
X73659309Y-98096102D01*
X73659309Y-98096102D02*
X73564071Y-98143721D01*
X73564071Y-98143721D02*
X73183119Y-98143721D01*
X73183119Y-98143721D02*
X73183119Y-97143721D01*
X73183119Y-97143721D02*
X73516452Y-97143721D01*
X73516452Y-97143721D02*
X73611690Y-97191340D01*
X73611690Y-97191340D02*
X73659309Y-97238959D01*
X73659309Y-97238959D02*
X73706928Y-97334197D01*
X73706928Y-97334197D02*
X73706928Y-97429435D01*
X73706928Y-97429435D02*
X73659309Y-97524673D01*
X73659309Y-97524673D02*
X73611690Y-97572292D01*
X73611690Y-97572292D02*
X73516452Y-97619911D01*
X73516452Y-97619911D02*
X73183119Y-97619911D01*
X74087881Y-97143721D02*
X74754547Y-97143721D01*
X74754547Y-97143721D02*
X74325976Y-98143721D01*
%TO.C,R7*%
X115903062Y-128537668D02*
X115426871Y-128871001D01*
X115903062Y-129109096D02*
X114903062Y-129109096D01*
X114903062Y-129109096D02*
X114903062Y-128728144D01*
X114903062Y-128728144D02*
X114950681Y-128632906D01*
X114950681Y-128632906D02*
X114998300Y-128585287D01*
X114998300Y-128585287D02*
X115093538Y-128537668D01*
X115093538Y-128537668D02*
X115236395Y-128537668D01*
X115236395Y-128537668D02*
X115331633Y-128585287D01*
X115331633Y-128585287D02*
X115379252Y-128632906D01*
X115379252Y-128632906D02*
X115426871Y-128728144D01*
X115426871Y-128728144D02*
X115426871Y-129109096D01*
X114903062Y-128204334D02*
X114903062Y-127537668D01*
X114903062Y-127537668D02*
X115903062Y-127966239D01*
%TO.C,R37*%
X60249785Y-84723721D02*
X59916452Y-84247530D01*
X59678357Y-84723721D02*
X59678357Y-83723721D01*
X59678357Y-83723721D02*
X60059309Y-83723721D01*
X60059309Y-83723721D02*
X60154547Y-83771340D01*
X60154547Y-83771340D02*
X60202166Y-83818959D01*
X60202166Y-83818959D02*
X60249785Y-83914197D01*
X60249785Y-83914197D02*
X60249785Y-84057054D01*
X60249785Y-84057054D02*
X60202166Y-84152292D01*
X60202166Y-84152292D02*
X60154547Y-84199911D01*
X60154547Y-84199911D02*
X60059309Y-84247530D01*
X60059309Y-84247530D02*
X59678357Y-84247530D01*
X60583119Y-83723721D02*
X61202166Y-83723721D01*
X61202166Y-83723721D02*
X60868833Y-84104673D01*
X60868833Y-84104673D02*
X61011690Y-84104673D01*
X61011690Y-84104673D02*
X61106928Y-84152292D01*
X61106928Y-84152292D02*
X61154547Y-84199911D01*
X61154547Y-84199911D02*
X61202166Y-84295149D01*
X61202166Y-84295149D02*
X61202166Y-84533244D01*
X61202166Y-84533244D02*
X61154547Y-84628482D01*
X61154547Y-84628482D02*
X61106928Y-84676102D01*
X61106928Y-84676102D02*
X61011690Y-84723721D01*
X61011690Y-84723721D02*
X60725976Y-84723721D01*
X60725976Y-84723721D02*
X60630738Y-84676102D01*
X60630738Y-84676102D02*
X60583119Y-84628482D01*
X61535500Y-83723721D02*
X62202166Y-83723721D01*
X62202166Y-83723721D02*
X61773595Y-84723721D01*
%TO.C,R21*%
X82999785Y-98093721D02*
X82666452Y-97617530D01*
X82428357Y-98093721D02*
X82428357Y-97093721D01*
X82428357Y-97093721D02*
X82809309Y-97093721D01*
X82809309Y-97093721D02*
X82904547Y-97141340D01*
X82904547Y-97141340D02*
X82952166Y-97188959D01*
X82952166Y-97188959D02*
X82999785Y-97284197D01*
X82999785Y-97284197D02*
X82999785Y-97427054D01*
X82999785Y-97427054D02*
X82952166Y-97522292D01*
X82952166Y-97522292D02*
X82904547Y-97569911D01*
X82904547Y-97569911D02*
X82809309Y-97617530D01*
X82809309Y-97617530D02*
X82428357Y-97617530D01*
X83380738Y-97188959D02*
X83428357Y-97141340D01*
X83428357Y-97141340D02*
X83523595Y-97093721D01*
X83523595Y-97093721D02*
X83761690Y-97093721D01*
X83761690Y-97093721D02*
X83856928Y-97141340D01*
X83856928Y-97141340D02*
X83904547Y-97188959D01*
X83904547Y-97188959D02*
X83952166Y-97284197D01*
X83952166Y-97284197D02*
X83952166Y-97379435D01*
X83952166Y-97379435D02*
X83904547Y-97522292D01*
X83904547Y-97522292D02*
X83333119Y-98093721D01*
X83333119Y-98093721D02*
X83952166Y-98093721D01*
X84904547Y-98093721D02*
X84333119Y-98093721D01*
X84618833Y-98093721D02*
X84618833Y-97093721D01*
X84618833Y-97093721D02*
X84523595Y-97236578D01*
X84523595Y-97236578D02*
X84428357Y-97331816D01*
X84428357Y-97331816D02*
X84333119Y-97379435D01*
%TO.C,C39*%
X69789134Y-94562908D02*
X69836754Y-94610527D01*
X69836754Y-94610527D02*
X69884373Y-94753384D01*
X69884373Y-94753384D02*
X69884373Y-94848622D01*
X69884373Y-94848622D02*
X69836754Y-94991479D01*
X69836754Y-94991479D02*
X69741515Y-95086717D01*
X69741515Y-95086717D02*
X69646277Y-95134336D01*
X69646277Y-95134336D02*
X69455801Y-95181955D01*
X69455801Y-95181955D02*
X69312944Y-95181955D01*
X69312944Y-95181955D02*
X69122468Y-95134336D01*
X69122468Y-95134336D02*
X69027230Y-95086717D01*
X69027230Y-95086717D02*
X68931992Y-94991479D01*
X68931992Y-94991479D02*
X68884373Y-94848622D01*
X68884373Y-94848622D02*
X68884373Y-94753384D01*
X68884373Y-94753384D02*
X68931992Y-94610527D01*
X68931992Y-94610527D02*
X68979611Y-94562908D01*
X68884373Y-94229574D02*
X68884373Y-93610527D01*
X68884373Y-93610527D02*
X69265325Y-93943860D01*
X69265325Y-93943860D02*
X69265325Y-93801003D01*
X69265325Y-93801003D02*
X69312944Y-93705765D01*
X69312944Y-93705765D02*
X69360563Y-93658146D01*
X69360563Y-93658146D02*
X69455801Y-93610527D01*
X69455801Y-93610527D02*
X69693896Y-93610527D01*
X69693896Y-93610527D02*
X69789134Y-93658146D01*
X69789134Y-93658146D02*
X69836754Y-93705765D01*
X69836754Y-93705765D02*
X69884373Y-93801003D01*
X69884373Y-93801003D02*
X69884373Y-94086717D01*
X69884373Y-94086717D02*
X69836754Y-94181955D01*
X69836754Y-94181955D02*
X69789134Y-94229574D01*
X69884373Y-93134336D02*
X69884373Y-92943860D01*
X69884373Y-92943860D02*
X69836754Y-92848622D01*
X69836754Y-92848622D02*
X69789134Y-92801003D01*
X69789134Y-92801003D02*
X69646277Y-92705765D01*
X69646277Y-92705765D02*
X69455801Y-92658146D01*
X69455801Y-92658146D02*
X69074849Y-92658146D01*
X69074849Y-92658146D02*
X68979611Y-92705765D01*
X68979611Y-92705765D02*
X68931992Y-92753384D01*
X68931992Y-92753384D02*
X68884373Y-92848622D01*
X68884373Y-92848622D02*
X68884373Y-93039098D01*
X68884373Y-93039098D02*
X68931992Y-93134336D01*
X68931992Y-93134336D02*
X68979611Y-93181955D01*
X68979611Y-93181955D02*
X69074849Y-93229574D01*
X69074849Y-93229574D02*
X69312944Y-93229574D01*
X69312944Y-93229574D02*
X69408182Y-93181955D01*
X69408182Y-93181955D02*
X69455801Y-93134336D01*
X69455801Y-93134336D02*
X69503420Y-93039098D01*
X69503420Y-93039098D02*
X69503420Y-92848622D01*
X69503420Y-92848622D02*
X69455801Y-92753384D01*
X69455801Y-92753384D02*
X69408182Y-92705765D01*
X69408182Y-92705765D02*
X69312944Y-92658146D01*
%TO.C,R23*%
X77245594Y-135628023D02*
X76769403Y-135961356D01*
X77245594Y-136199451D02*
X76245594Y-136199451D01*
X76245594Y-136199451D02*
X76245594Y-135818499D01*
X76245594Y-135818499D02*
X76293213Y-135723261D01*
X76293213Y-135723261D02*
X76340832Y-135675642D01*
X76340832Y-135675642D02*
X76436070Y-135628023D01*
X76436070Y-135628023D02*
X76578927Y-135628023D01*
X76578927Y-135628023D02*
X76674165Y-135675642D01*
X76674165Y-135675642D02*
X76721784Y-135723261D01*
X76721784Y-135723261D02*
X76769403Y-135818499D01*
X76769403Y-135818499D02*
X76769403Y-136199451D01*
X76340832Y-135247070D02*
X76293213Y-135199451D01*
X76293213Y-135199451D02*
X76245594Y-135104213D01*
X76245594Y-135104213D02*
X76245594Y-134866118D01*
X76245594Y-134866118D02*
X76293213Y-134770880D01*
X76293213Y-134770880D02*
X76340832Y-134723261D01*
X76340832Y-134723261D02*
X76436070Y-134675642D01*
X76436070Y-134675642D02*
X76531308Y-134675642D01*
X76531308Y-134675642D02*
X76674165Y-134723261D01*
X76674165Y-134723261D02*
X77245594Y-135294689D01*
X77245594Y-135294689D02*
X77245594Y-134675642D01*
X76245594Y-134342308D02*
X76245594Y-133723261D01*
X76245594Y-133723261D02*
X76626546Y-134056594D01*
X76626546Y-134056594D02*
X76626546Y-133913737D01*
X76626546Y-133913737D02*
X76674165Y-133818499D01*
X76674165Y-133818499D02*
X76721784Y-133770880D01*
X76721784Y-133770880D02*
X76817022Y-133723261D01*
X76817022Y-133723261D02*
X77055117Y-133723261D01*
X77055117Y-133723261D02*
X77150355Y-133770880D01*
X77150355Y-133770880D02*
X77197975Y-133818499D01*
X77197975Y-133818499D02*
X77245594Y-133913737D01*
X77245594Y-133913737D02*
X77245594Y-134199451D01*
X77245594Y-134199451D02*
X77197975Y-134294689D01*
X77197975Y-134294689D02*
X77150355Y-134342308D01*
D11*
%TO.C,FL1*%
X48708145Y-61248813D02*
X48472443Y-61013111D01*
X48102054Y-61383500D02*
X48809161Y-60676393D01*
X48809161Y-60676393D02*
X49145878Y-61013111D01*
X49044863Y-62326309D02*
X48708145Y-61989592D01*
X48708145Y-61989592D02*
X49415252Y-61282485D01*
X49650955Y-62932401D02*
X49246894Y-62528340D01*
X49448924Y-62730370D02*
X50156031Y-62023264D01*
X50156031Y-62023264D02*
X49987672Y-62056935D01*
X49987672Y-62056935D02*
X49852985Y-62056935D01*
X49852985Y-62056935D02*
X49751970Y-62023264D01*
D10*
%TO.C,C2*%
X92563982Y-85148428D02*
X92611602Y-85196047D01*
X92611602Y-85196047D02*
X92659221Y-85338904D01*
X92659221Y-85338904D02*
X92659221Y-85434142D01*
X92659221Y-85434142D02*
X92611602Y-85576999D01*
X92611602Y-85576999D02*
X92516363Y-85672237D01*
X92516363Y-85672237D02*
X92421125Y-85719856D01*
X92421125Y-85719856D02*
X92230649Y-85767475D01*
X92230649Y-85767475D02*
X92087792Y-85767475D01*
X92087792Y-85767475D02*
X91897316Y-85719856D01*
X91897316Y-85719856D02*
X91802078Y-85672237D01*
X91802078Y-85672237D02*
X91706840Y-85576999D01*
X91706840Y-85576999D02*
X91659221Y-85434142D01*
X91659221Y-85434142D02*
X91659221Y-85338904D01*
X91659221Y-85338904D02*
X91706840Y-85196047D01*
X91706840Y-85196047D02*
X91754459Y-85148428D01*
X91754459Y-84767475D02*
X91706840Y-84719856D01*
X91706840Y-84719856D02*
X91659221Y-84624618D01*
X91659221Y-84624618D02*
X91659221Y-84386523D01*
X91659221Y-84386523D02*
X91706840Y-84291285D01*
X91706840Y-84291285D02*
X91754459Y-84243666D01*
X91754459Y-84243666D02*
X91849697Y-84196047D01*
X91849697Y-84196047D02*
X91944935Y-84196047D01*
X91944935Y-84196047D02*
X92087792Y-84243666D01*
X92087792Y-84243666D02*
X92659221Y-84815094D01*
X92659221Y-84815094D02*
X92659221Y-84196047D01*
%TO.C,R43*%
X63867462Y-103450312D02*
X63391271Y-103783645D01*
X63867462Y-104021740D02*
X62867462Y-104021740D01*
X62867462Y-104021740D02*
X62867462Y-103640788D01*
X62867462Y-103640788D02*
X62915081Y-103545550D01*
X62915081Y-103545550D02*
X62962700Y-103497931D01*
X62962700Y-103497931D02*
X63057938Y-103450312D01*
X63057938Y-103450312D02*
X63200795Y-103450312D01*
X63200795Y-103450312D02*
X63296033Y-103497931D01*
X63296033Y-103497931D02*
X63343652Y-103545550D01*
X63343652Y-103545550D02*
X63391271Y-103640788D01*
X63391271Y-103640788D02*
X63391271Y-104021740D01*
X63200795Y-102593169D02*
X63867462Y-102593169D01*
X62819843Y-102831264D02*
X63534128Y-103069359D01*
X63534128Y-103069359D02*
X63534128Y-102450312D01*
X62867462Y-102164597D02*
X62867462Y-101545550D01*
X62867462Y-101545550D02*
X63248414Y-101878883D01*
X63248414Y-101878883D02*
X63248414Y-101736026D01*
X63248414Y-101736026D02*
X63296033Y-101640788D01*
X63296033Y-101640788D02*
X63343652Y-101593169D01*
X63343652Y-101593169D02*
X63438890Y-101545550D01*
X63438890Y-101545550D02*
X63676985Y-101545550D01*
X63676985Y-101545550D02*
X63772223Y-101593169D01*
X63772223Y-101593169D02*
X63819843Y-101640788D01*
X63819843Y-101640788D02*
X63867462Y-101736026D01*
X63867462Y-101736026D02*
X63867462Y-102021740D01*
X63867462Y-102021740D02*
X63819843Y-102116978D01*
X63819843Y-102116978D02*
X63772223Y-102164597D01*
%TO.C,IC1*%
X93897369Y-94423664D02*
X92627369Y-94423664D01*
X93776416Y-93093187D02*
X93836893Y-93153663D01*
X93836893Y-93153663D02*
X93897369Y-93335092D01*
X93897369Y-93335092D02*
X93897369Y-93456044D01*
X93897369Y-93456044D02*
X93836893Y-93637473D01*
X93836893Y-93637473D02*
X93715940Y-93758425D01*
X93715940Y-93758425D02*
X93594988Y-93818902D01*
X93594988Y-93818902D02*
X93353083Y-93879378D01*
X93353083Y-93879378D02*
X93171654Y-93879378D01*
X93171654Y-93879378D02*
X92929750Y-93818902D01*
X92929750Y-93818902D02*
X92808797Y-93758425D01*
X92808797Y-93758425D02*
X92687845Y-93637473D01*
X92687845Y-93637473D02*
X92627369Y-93456044D01*
X92627369Y-93456044D02*
X92627369Y-93335092D01*
X92627369Y-93335092D02*
X92687845Y-93153663D01*
X92687845Y-93153663D02*
X92748321Y-93093187D01*
X93897369Y-91883663D02*
X93897369Y-92609378D01*
X93897369Y-92246521D02*
X92627369Y-92246521D01*
X92627369Y-92246521D02*
X92808797Y-92367473D01*
X92808797Y-92367473D02*
X92929750Y-92488425D01*
X92929750Y-92488425D02*
X92990226Y-92609378D01*
%TO.C,R36*%
X125749785Y-76223721D02*
X125416452Y-75747530D01*
X125178357Y-76223721D02*
X125178357Y-75223721D01*
X125178357Y-75223721D02*
X125559309Y-75223721D01*
X125559309Y-75223721D02*
X125654547Y-75271340D01*
X125654547Y-75271340D02*
X125702166Y-75318959D01*
X125702166Y-75318959D02*
X125749785Y-75414197D01*
X125749785Y-75414197D02*
X125749785Y-75557054D01*
X125749785Y-75557054D02*
X125702166Y-75652292D01*
X125702166Y-75652292D02*
X125654547Y-75699911D01*
X125654547Y-75699911D02*
X125559309Y-75747530D01*
X125559309Y-75747530D02*
X125178357Y-75747530D01*
X126083119Y-75223721D02*
X126702166Y-75223721D01*
X126702166Y-75223721D02*
X126368833Y-75604673D01*
X126368833Y-75604673D02*
X126511690Y-75604673D01*
X126511690Y-75604673D02*
X126606928Y-75652292D01*
X126606928Y-75652292D02*
X126654547Y-75699911D01*
X126654547Y-75699911D02*
X126702166Y-75795149D01*
X126702166Y-75795149D02*
X126702166Y-76033244D01*
X126702166Y-76033244D02*
X126654547Y-76128482D01*
X126654547Y-76128482D02*
X126606928Y-76176102D01*
X126606928Y-76176102D02*
X126511690Y-76223721D01*
X126511690Y-76223721D02*
X126225976Y-76223721D01*
X126225976Y-76223721D02*
X126130738Y-76176102D01*
X126130738Y-76176102D02*
X126083119Y-76128482D01*
X127559309Y-75223721D02*
X127368833Y-75223721D01*
X127368833Y-75223721D02*
X127273595Y-75271340D01*
X127273595Y-75271340D02*
X127225976Y-75318959D01*
X127225976Y-75318959D02*
X127130738Y-75461816D01*
X127130738Y-75461816D02*
X127083119Y-75652292D01*
X127083119Y-75652292D02*
X127083119Y-76033244D01*
X127083119Y-76033244D02*
X127130738Y-76128482D01*
X127130738Y-76128482D02*
X127178357Y-76176102D01*
X127178357Y-76176102D02*
X127273595Y-76223721D01*
X127273595Y-76223721D02*
X127464071Y-76223721D01*
X127464071Y-76223721D02*
X127559309Y-76176102D01*
X127559309Y-76176102D02*
X127606928Y-76128482D01*
X127606928Y-76128482D02*
X127654547Y-76033244D01*
X127654547Y-76033244D02*
X127654547Y-75795149D01*
X127654547Y-75795149D02*
X127606928Y-75699911D01*
X127606928Y-75699911D02*
X127559309Y-75652292D01*
X127559309Y-75652292D02*
X127464071Y-75604673D01*
X127464071Y-75604673D02*
X127273595Y-75604673D01*
X127273595Y-75604673D02*
X127178357Y-75652292D01*
X127178357Y-75652292D02*
X127130738Y-75699911D01*
X127130738Y-75699911D02*
X127083119Y-75795149D01*
%TO.C,C38*%
X82074938Y-76083833D02*
X82122558Y-76131452D01*
X82122558Y-76131452D02*
X82170177Y-76274309D01*
X82170177Y-76274309D02*
X82170177Y-76369547D01*
X82170177Y-76369547D02*
X82122558Y-76512404D01*
X82122558Y-76512404D02*
X82027319Y-76607642D01*
X82027319Y-76607642D02*
X81932081Y-76655261D01*
X81932081Y-76655261D02*
X81741605Y-76702880D01*
X81741605Y-76702880D02*
X81598748Y-76702880D01*
X81598748Y-76702880D02*
X81408272Y-76655261D01*
X81408272Y-76655261D02*
X81313034Y-76607642D01*
X81313034Y-76607642D02*
X81217796Y-76512404D01*
X81217796Y-76512404D02*
X81170177Y-76369547D01*
X81170177Y-76369547D02*
X81170177Y-76274309D01*
X81170177Y-76274309D02*
X81217796Y-76131452D01*
X81217796Y-76131452D02*
X81265415Y-76083833D01*
X81170177Y-75750499D02*
X81170177Y-75131452D01*
X81170177Y-75131452D02*
X81551129Y-75464785D01*
X81551129Y-75464785D02*
X81551129Y-75321928D01*
X81551129Y-75321928D02*
X81598748Y-75226690D01*
X81598748Y-75226690D02*
X81646367Y-75179071D01*
X81646367Y-75179071D02*
X81741605Y-75131452D01*
X81741605Y-75131452D02*
X81979700Y-75131452D01*
X81979700Y-75131452D02*
X82074938Y-75179071D01*
X82074938Y-75179071D02*
X82122558Y-75226690D01*
X82122558Y-75226690D02*
X82170177Y-75321928D01*
X82170177Y-75321928D02*
X82170177Y-75607642D01*
X82170177Y-75607642D02*
X82122558Y-75702880D01*
X82122558Y-75702880D02*
X82074938Y-75750499D01*
X81598748Y-74560023D02*
X81551129Y-74655261D01*
X81551129Y-74655261D02*
X81503510Y-74702880D01*
X81503510Y-74702880D02*
X81408272Y-74750499D01*
X81408272Y-74750499D02*
X81360653Y-74750499D01*
X81360653Y-74750499D02*
X81265415Y-74702880D01*
X81265415Y-74702880D02*
X81217796Y-74655261D01*
X81217796Y-74655261D02*
X81170177Y-74560023D01*
X81170177Y-74560023D02*
X81170177Y-74369547D01*
X81170177Y-74369547D02*
X81217796Y-74274309D01*
X81217796Y-74274309D02*
X81265415Y-74226690D01*
X81265415Y-74226690D02*
X81360653Y-74179071D01*
X81360653Y-74179071D02*
X81408272Y-74179071D01*
X81408272Y-74179071D02*
X81503510Y-74226690D01*
X81503510Y-74226690D02*
X81551129Y-74274309D01*
X81551129Y-74274309D02*
X81598748Y-74369547D01*
X81598748Y-74369547D02*
X81598748Y-74560023D01*
X81598748Y-74560023D02*
X81646367Y-74655261D01*
X81646367Y-74655261D02*
X81693986Y-74702880D01*
X81693986Y-74702880D02*
X81789224Y-74750499D01*
X81789224Y-74750499D02*
X81979700Y-74750499D01*
X81979700Y-74750499D02*
X82074938Y-74702880D01*
X82074938Y-74702880D02*
X82122558Y-74655261D01*
X82122558Y-74655261D02*
X82170177Y-74560023D01*
X82170177Y-74560023D02*
X82170177Y-74369547D01*
X82170177Y-74369547D02*
X82122558Y-74274309D01*
X82122558Y-74274309D02*
X82074938Y-74226690D01*
X82074938Y-74226690D02*
X81979700Y-74179071D01*
X81979700Y-74179071D02*
X81789224Y-74179071D01*
X81789224Y-74179071D02*
X81693986Y-74226690D01*
X81693986Y-74226690D02*
X81646367Y-74274309D01*
X81646367Y-74274309D02*
X81598748Y-74369547D01*
%TO.C,R13*%
X101549803Y-117970821D02*
X101216470Y-117494630D01*
X100978375Y-117970821D02*
X100978375Y-116970821D01*
X100978375Y-116970821D02*
X101359327Y-116970821D01*
X101359327Y-116970821D02*
X101454565Y-117018440D01*
X101454565Y-117018440D02*
X101502184Y-117066059D01*
X101502184Y-117066059D02*
X101549803Y-117161297D01*
X101549803Y-117161297D02*
X101549803Y-117304154D01*
X101549803Y-117304154D02*
X101502184Y-117399392D01*
X101502184Y-117399392D02*
X101454565Y-117447011D01*
X101454565Y-117447011D02*
X101359327Y-117494630D01*
X101359327Y-117494630D02*
X100978375Y-117494630D01*
X102502184Y-117970821D02*
X101930756Y-117970821D01*
X102216470Y-117970821D02*
X102216470Y-116970821D01*
X102216470Y-116970821D02*
X102121232Y-117113678D01*
X102121232Y-117113678D02*
X102025994Y-117208916D01*
X102025994Y-117208916D02*
X101930756Y-117256535D01*
X102835518Y-116970821D02*
X103454565Y-116970821D01*
X103454565Y-116970821D02*
X103121232Y-117351773D01*
X103121232Y-117351773D02*
X103264089Y-117351773D01*
X103264089Y-117351773D02*
X103359327Y-117399392D01*
X103359327Y-117399392D02*
X103406946Y-117447011D01*
X103406946Y-117447011D02*
X103454565Y-117542249D01*
X103454565Y-117542249D02*
X103454565Y-117780344D01*
X103454565Y-117780344D02*
X103406946Y-117875582D01*
X103406946Y-117875582D02*
X103359327Y-117923202D01*
X103359327Y-117923202D02*
X103264089Y-117970821D01*
X103264089Y-117970821D02*
X102978375Y-117970821D01*
X102978375Y-117970821D02*
X102883137Y-117923202D01*
X102883137Y-117923202D02*
X102835518Y-117875582D01*
%TO.C,R40*%
X75399785Y-102063721D02*
X75066452Y-101587530D01*
X74828357Y-102063721D02*
X74828357Y-101063721D01*
X74828357Y-101063721D02*
X75209309Y-101063721D01*
X75209309Y-101063721D02*
X75304547Y-101111340D01*
X75304547Y-101111340D02*
X75352166Y-101158959D01*
X75352166Y-101158959D02*
X75399785Y-101254197D01*
X75399785Y-101254197D02*
X75399785Y-101397054D01*
X75399785Y-101397054D02*
X75352166Y-101492292D01*
X75352166Y-101492292D02*
X75304547Y-101539911D01*
X75304547Y-101539911D02*
X75209309Y-101587530D01*
X75209309Y-101587530D02*
X74828357Y-101587530D01*
X76256928Y-101397054D02*
X76256928Y-102063721D01*
X76018833Y-101016102D02*
X75780738Y-101730387D01*
X75780738Y-101730387D02*
X76399785Y-101730387D01*
X76971214Y-101063721D02*
X77066452Y-101063721D01*
X77066452Y-101063721D02*
X77161690Y-101111340D01*
X77161690Y-101111340D02*
X77209309Y-101158959D01*
X77209309Y-101158959D02*
X77256928Y-101254197D01*
X77256928Y-101254197D02*
X77304547Y-101444673D01*
X77304547Y-101444673D02*
X77304547Y-101682768D01*
X77304547Y-101682768D02*
X77256928Y-101873244D01*
X77256928Y-101873244D02*
X77209309Y-101968482D01*
X77209309Y-101968482D02*
X77161690Y-102016102D01*
X77161690Y-102016102D02*
X77066452Y-102063721D01*
X77066452Y-102063721D02*
X76971214Y-102063721D01*
X76971214Y-102063721D02*
X76875976Y-102016102D01*
X76875976Y-102016102D02*
X76828357Y-101968482D01*
X76828357Y-101968482D02*
X76780738Y-101873244D01*
X76780738Y-101873244D02*
X76733119Y-101682768D01*
X76733119Y-101682768D02*
X76733119Y-101444673D01*
X76733119Y-101444673D02*
X76780738Y-101254197D01*
X76780738Y-101254197D02*
X76828357Y-101158959D01*
X76828357Y-101158959D02*
X76875976Y-101111340D01*
X76875976Y-101111340D02*
X76971214Y-101063721D01*
%TO.C,R24*%
X112103820Y-85193917D02*
X111770487Y-84717726D01*
X111532392Y-85193917D02*
X111532392Y-84193917D01*
X111532392Y-84193917D02*
X111913344Y-84193917D01*
X111913344Y-84193917D02*
X112008582Y-84241536D01*
X112008582Y-84241536D02*
X112056201Y-84289155D01*
X112056201Y-84289155D02*
X112103820Y-84384393D01*
X112103820Y-84384393D02*
X112103820Y-84527250D01*
X112103820Y-84527250D02*
X112056201Y-84622488D01*
X112056201Y-84622488D02*
X112008582Y-84670107D01*
X112008582Y-84670107D02*
X111913344Y-84717726D01*
X111913344Y-84717726D02*
X111532392Y-84717726D01*
X112484773Y-84289155D02*
X112532392Y-84241536D01*
X112532392Y-84241536D02*
X112627630Y-84193917D01*
X112627630Y-84193917D02*
X112865725Y-84193917D01*
X112865725Y-84193917D02*
X112960963Y-84241536D01*
X112960963Y-84241536D02*
X113008582Y-84289155D01*
X113008582Y-84289155D02*
X113056201Y-84384393D01*
X113056201Y-84384393D02*
X113056201Y-84479631D01*
X113056201Y-84479631D02*
X113008582Y-84622488D01*
X113008582Y-84622488D02*
X112437154Y-85193917D01*
X112437154Y-85193917D02*
X113056201Y-85193917D01*
X113913344Y-84527250D02*
X113913344Y-85193917D01*
X113675249Y-84146298D02*
X113437154Y-84860583D01*
X113437154Y-84860583D02*
X114056201Y-84860583D01*
%TO.C,U1*%
X98905756Y-129630821D02*
X98905756Y-130440344D01*
X98905756Y-130440344D02*
X98953375Y-130535582D01*
X98953375Y-130535582D02*
X99000994Y-130583202D01*
X99000994Y-130583202D02*
X99096232Y-130630821D01*
X99096232Y-130630821D02*
X99286708Y-130630821D01*
X99286708Y-130630821D02*
X99381946Y-130583202D01*
X99381946Y-130583202D02*
X99429565Y-130535582D01*
X99429565Y-130535582D02*
X99477184Y-130440344D01*
X99477184Y-130440344D02*
X99477184Y-129630821D01*
X100477184Y-130630821D02*
X99905756Y-130630821D01*
X100191470Y-130630821D02*
X100191470Y-129630821D01*
X100191470Y-129630821D02*
X100096232Y-129773678D01*
X100096232Y-129773678D02*
X100000994Y-129868916D01*
X100000994Y-129868916D02*
X99905756Y-129916535D01*
%TO.C,R11*%
X101249803Y-136645821D02*
X100916470Y-136169630D01*
X100678375Y-136645821D02*
X100678375Y-135645821D01*
X100678375Y-135645821D02*
X101059327Y-135645821D01*
X101059327Y-135645821D02*
X101154565Y-135693440D01*
X101154565Y-135693440D02*
X101202184Y-135741059D01*
X101202184Y-135741059D02*
X101249803Y-135836297D01*
X101249803Y-135836297D02*
X101249803Y-135979154D01*
X101249803Y-135979154D02*
X101202184Y-136074392D01*
X101202184Y-136074392D02*
X101154565Y-136122011D01*
X101154565Y-136122011D02*
X101059327Y-136169630D01*
X101059327Y-136169630D02*
X100678375Y-136169630D01*
X102202184Y-136645821D02*
X101630756Y-136645821D01*
X101916470Y-136645821D02*
X101916470Y-135645821D01*
X101916470Y-135645821D02*
X101821232Y-135788678D01*
X101821232Y-135788678D02*
X101725994Y-135883916D01*
X101725994Y-135883916D02*
X101630756Y-135931535D01*
X103154565Y-136645821D02*
X102583137Y-136645821D01*
X102868851Y-136645821D02*
X102868851Y-135645821D01*
X102868851Y-135645821D02*
X102773613Y-135788678D01*
X102773613Y-135788678D02*
X102678375Y-135883916D01*
X102678375Y-135883916D02*
X102583137Y-135931535D01*
%TO.C,C4*%
X101907223Y-89910568D02*
X101954843Y-89958187D01*
X101954843Y-89958187D02*
X102002462Y-90101044D01*
X102002462Y-90101044D02*
X102002462Y-90196282D01*
X102002462Y-90196282D02*
X101954843Y-90339139D01*
X101954843Y-90339139D02*
X101859604Y-90434377D01*
X101859604Y-90434377D02*
X101764366Y-90481996D01*
X101764366Y-90481996D02*
X101573890Y-90529615D01*
X101573890Y-90529615D02*
X101431033Y-90529615D01*
X101431033Y-90529615D02*
X101240557Y-90481996D01*
X101240557Y-90481996D02*
X101145319Y-90434377D01*
X101145319Y-90434377D02*
X101050081Y-90339139D01*
X101050081Y-90339139D02*
X101002462Y-90196282D01*
X101002462Y-90196282D02*
X101002462Y-90101044D01*
X101002462Y-90101044D02*
X101050081Y-89958187D01*
X101050081Y-89958187D02*
X101097700Y-89910568D01*
X101335795Y-89053425D02*
X102002462Y-89053425D01*
X100954843Y-89291520D02*
X101669128Y-89529615D01*
X101669128Y-89529615D02*
X101669128Y-88910568D01*
%TO.C,R9*%
X107188494Y-120420821D02*
X106855161Y-119944630D01*
X106617066Y-120420821D02*
X106617066Y-119420821D01*
X106617066Y-119420821D02*
X106998018Y-119420821D01*
X106998018Y-119420821D02*
X107093256Y-119468440D01*
X107093256Y-119468440D02*
X107140875Y-119516059D01*
X107140875Y-119516059D02*
X107188494Y-119611297D01*
X107188494Y-119611297D02*
X107188494Y-119754154D01*
X107188494Y-119754154D02*
X107140875Y-119849392D01*
X107140875Y-119849392D02*
X107093256Y-119897011D01*
X107093256Y-119897011D02*
X106998018Y-119944630D01*
X106998018Y-119944630D02*
X106617066Y-119944630D01*
X107664685Y-120420821D02*
X107855161Y-120420821D01*
X107855161Y-120420821D02*
X107950399Y-120373202D01*
X107950399Y-120373202D02*
X107998018Y-120325582D01*
X107998018Y-120325582D02*
X108093256Y-120182725D01*
X108093256Y-120182725D02*
X108140875Y-119992249D01*
X108140875Y-119992249D02*
X108140875Y-119611297D01*
X108140875Y-119611297D02*
X108093256Y-119516059D01*
X108093256Y-119516059D02*
X108045637Y-119468440D01*
X108045637Y-119468440D02*
X107950399Y-119420821D01*
X107950399Y-119420821D02*
X107759923Y-119420821D01*
X107759923Y-119420821D02*
X107664685Y-119468440D01*
X107664685Y-119468440D02*
X107617066Y-119516059D01*
X107617066Y-119516059D02*
X107569447Y-119611297D01*
X107569447Y-119611297D02*
X107569447Y-119849392D01*
X107569447Y-119849392D02*
X107617066Y-119944630D01*
X107617066Y-119944630D02*
X107664685Y-119992249D01*
X107664685Y-119992249D02*
X107759923Y-120039868D01*
X107759923Y-120039868D02*
X107950399Y-120039868D01*
X107950399Y-120039868D02*
X108045637Y-119992249D01*
X108045637Y-119992249D02*
X108093256Y-119944630D01*
X108093256Y-119944630D02*
X108140875Y-119849392D01*
%TO.C,C41*%
X81152223Y-86231759D02*
X81199843Y-86279378D01*
X81199843Y-86279378D02*
X81247462Y-86422235D01*
X81247462Y-86422235D02*
X81247462Y-86517473D01*
X81247462Y-86517473D02*
X81199843Y-86660330D01*
X81199843Y-86660330D02*
X81104604Y-86755568D01*
X81104604Y-86755568D02*
X81009366Y-86803187D01*
X81009366Y-86803187D02*
X80818890Y-86850806D01*
X80818890Y-86850806D02*
X80676033Y-86850806D01*
X80676033Y-86850806D02*
X80485557Y-86803187D01*
X80485557Y-86803187D02*
X80390319Y-86755568D01*
X80390319Y-86755568D02*
X80295081Y-86660330D01*
X80295081Y-86660330D02*
X80247462Y-86517473D01*
X80247462Y-86517473D02*
X80247462Y-86422235D01*
X80247462Y-86422235D02*
X80295081Y-86279378D01*
X80295081Y-86279378D02*
X80342700Y-86231759D01*
X80580795Y-85374616D02*
X81247462Y-85374616D01*
X80199843Y-85612711D02*
X80914128Y-85850806D01*
X80914128Y-85850806D02*
X80914128Y-85231759D01*
X81247462Y-84326997D02*
X81247462Y-84898425D01*
X81247462Y-84612711D02*
X80247462Y-84612711D01*
X80247462Y-84612711D02*
X80390319Y-84707949D01*
X80390319Y-84707949D02*
X80485557Y-84803187D01*
X80485557Y-84803187D02*
X80533176Y-84898425D01*
%TO.C,O3*%
X35926452Y-117819911D02*
X36259785Y-117819911D01*
X36402642Y-118343721D02*
X35926452Y-118343721D01*
X35926452Y-118343721D02*
X35926452Y-117343721D01*
X35926452Y-117343721D02*
X36402642Y-117343721D01*
X36831214Y-118343721D02*
X36831214Y-117677054D01*
X36831214Y-117867530D02*
X36878833Y-117772292D01*
X36878833Y-117772292D02*
X36926452Y-117724673D01*
X36926452Y-117724673D02*
X37021690Y-117677054D01*
X37021690Y-117677054D02*
X37116928Y-117677054D01*
X37450262Y-118343721D02*
X37450262Y-117677054D01*
X37450262Y-117867530D02*
X37497881Y-117772292D01*
X37497881Y-117772292D02*
X37545500Y-117724673D01*
X37545500Y-117724673D02*
X37640738Y-117677054D01*
X37640738Y-117677054D02*
X37735976Y-117677054D01*
X39021691Y-117343721D02*
X39212167Y-117343721D01*
X39212167Y-117343721D02*
X39307405Y-117391340D01*
X39307405Y-117391340D02*
X39402643Y-117486578D01*
X39402643Y-117486578D02*
X39450262Y-117677054D01*
X39450262Y-117677054D02*
X39450262Y-118010387D01*
X39450262Y-118010387D02*
X39402643Y-118200863D01*
X39402643Y-118200863D02*
X39307405Y-118296102D01*
X39307405Y-118296102D02*
X39212167Y-118343721D01*
X39212167Y-118343721D02*
X39021691Y-118343721D01*
X39021691Y-118343721D02*
X38926453Y-118296102D01*
X38926453Y-118296102D02*
X38831215Y-118200863D01*
X38831215Y-118200863D02*
X38783596Y-118010387D01*
X38783596Y-118010387D02*
X38783596Y-117677054D01*
X38783596Y-117677054D02*
X38831215Y-117486578D01*
X38831215Y-117486578D02*
X38926453Y-117391340D01*
X38926453Y-117391340D02*
X39021691Y-117343721D01*
X40307405Y-117677054D02*
X40307405Y-118343721D01*
X39878834Y-117677054D02*
X39878834Y-118200863D01*
X39878834Y-118200863D02*
X39926453Y-118296102D01*
X39926453Y-118296102D02*
X40021691Y-118343721D01*
X40021691Y-118343721D02*
X40164548Y-118343721D01*
X40164548Y-118343721D02*
X40259786Y-118296102D01*
X40259786Y-118296102D02*
X40307405Y-118248482D01*
X40640739Y-117677054D02*
X41021691Y-117677054D01*
X40783596Y-117343721D02*
X40783596Y-118200863D01*
X40783596Y-118200863D02*
X40831215Y-118296102D01*
X40831215Y-118296102D02*
X40926453Y-118343721D01*
X40926453Y-118343721D02*
X41021691Y-118343721D01*
%TO.C,R2*%
X94884691Y-85601169D02*
X94408500Y-85934502D01*
X94884691Y-86172597D02*
X93884691Y-86172597D01*
X93884691Y-86172597D02*
X93884691Y-85791645D01*
X93884691Y-85791645D02*
X93932310Y-85696407D01*
X93932310Y-85696407D02*
X93979929Y-85648788D01*
X93979929Y-85648788D02*
X94075167Y-85601169D01*
X94075167Y-85601169D02*
X94218024Y-85601169D01*
X94218024Y-85601169D02*
X94313262Y-85648788D01*
X94313262Y-85648788D02*
X94360881Y-85696407D01*
X94360881Y-85696407D02*
X94408500Y-85791645D01*
X94408500Y-85791645D02*
X94408500Y-86172597D01*
X93979929Y-85220216D02*
X93932310Y-85172597D01*
X93932310Y-85172597D02*
X93884691Y-85077359D01*
X93884691Y-85077359D02*
X93884691Y-84839264D01*
X93884691Y-84839264D02*
X93932310Y-84744026D01*
X93932310Y-84744026D02*
X93979929Y-84696407D01*
X93979929Y-84696407D02*
X94075167Y-84648788D01*
X94075167Y-84648788D02*
X94170405Y-84648788D01*
X94170405Y-84648788D02*
X94313262Y-84696407D01*
X94313262Y-84696407D02*
X94884691Y-85267835D01*
X94884691Y-85267835D02*
X94884691Y-84648788D01*
%TO.C,R1*%
X109257462Y-86695568D02*
X108781271Y-87028901D01*
X109257462Y-87266996D02*
X108257462Y-87266996D01*
X108257462Y-87266996D02*
X108257462Y-86886044D01*
X108257462Y-86886044D02*
X108305081Y-86790806D01*
X108305081Y-86790806D02*
X108352700Y-86743187D01*
X108352700Y-86743187D02*
X108447938Y-86695568D01*
X108447938Y-86695568D02*
X108590795Y-86695568D01*
X108590795Y-86695568D02*
X108686033Y-86743187D01*
X108686033Y-86743187D02*
X108733652Y-86790806D01*
X108733652Y-86790806D02*
X108781271Y-86886044D01*
X108781271Y-86886044D02*
X108781271Y-87266996D01*
X109257462Y-85743187D02*
X109257462Y-86314615D01*
X109257462Y-86028901D02*
X108257462Y-86028901D01*
X108257462Y-86028901D02*
X108400319Y-86124139D01*
X108400319Y-86124139D02*
X108495557Y-86219377D01*
X108495557Y-86219377D02*
X108543176Y-86314615D01*
%TO.C,P2*%
X115147480Y-132289096D02*
X114147480Y-132289096D01*
X114147480Y-132289096D02*
X114147480Y-131908144D01*
X114147480Y-131908144D02*
X114195099Y-131812906D01*
X114195099Y-131812906D02*
X114242718Y-131765287D01*
X114242718Y-131765287D02*
X114337956Y-131717668D01*
X114337956Y-131717668D02*
X114480813Y-131717668D01*
X114480813Y-131717668D02*
X114576051Y-131765287D01*
X114576051Y-131765287D02*
X114623670Y-131812906D01*
X114623670Y-131812906D02*
X114671289Y-131908144D01*
X114671289Y-131908144D02*
X114671289Y-132289096D01*
X114242718Y-131336715D02*
X114195099Y-131289096D01*
X114195099Y-131289096D02*
X114147480Y-131193858D01*
X114147480Y-131193858D02*
X114147480Y-130955763D01*
X114147480Y-130955763D02*
X114195099Y-130860525D01*
X114195099Y-130860525D02*
X114242718Y-130812906D01*
X114242718Y-130812906D02*
X114337956Y-130765287D01*
X114337956Y-130765287D02*
X114433194Y-130765287D01*
X114433194Y-130765287D02*
X114576051Y-130812906D01*
X114576051Y-130812906D02*
X115147480Y-131384334D01*
X115147480Y-131384334D02*
X115147480Y-130765287D01*
%TO.C,C22*%
X94776279Y-103040683D02*
X94823899Y-103088302D01*
X94823899Y-103088302D02*
X94871518Y-103231159D01*
X94871518Y-103231159D02*
X94871518Y-103326397D01*
X94871518Y-103326397D02*
X94823899Y-103469254D01*
X94823899Y-103469254D02*
X94728660Y-103564492D01*
X94728660Y-103564492D02*
X94633422Y-103612111D01*
X94633422Y-103612111D02*
X94442946Y-103659730D01*
X94442946Y-103659730D02*
X94300089Y-103659730D01*
X94300089Y-103659730D02*
X94109613Y-103612111D01*
X94109613Y-103612111D02*
X94014375Y-103564492D01*
X94014375Y-103564492D02*
X93919137Y-103469254D01*
X93919137Y-103469254D02*
X93871518Y-103326397D01*
X93871518Y-103326397D02*
X93871518Y-103231159D01*
X93871518Y-103231159D02*
X93919137Y-103088302D01*
X93919137Y-103088302D02*
X93966756Y-103040683D01*
X93966756Y-102659730D02*
X93919137Y-102612111D01*
X93919137Y-102612111D02*
X93871518Y-102516873D01*
X93871518Y-102516873D02*
X93871518Y-102278778D01*
X93871518Y-102278778D02*
X93919137Y-102183540D01*
X93919137Y-102183540D02*
X93966756Y-102135921D01*
X93966756Y-102135921D02*
X94061994Y-102088302D01*
X94061994Y-102088302D02*
X94157232Y-102088302D01*
X94157232Y-102088302D02*
X94300089Y-102135921D01*
X94300089Y-102135921D02*
X94871518Y-102707349D01*
X94871518Y-102707349D02*
X94871518Y-102088302D01*
X93966756Y-101707349D02*
X93919137Y-101659730D01*
X93919137Y-101659730D02*
X93871518Y-101564492D01*
X93871518Y-101564492D02*
X93871518Y-101326397D01*
X93871518Y-101326397D02*
X93919137Y-101231159D01*
X93919137Y-101231159D02*
X93966756Y-101183540D01*
X93966756Y-101183540D02*
X94061994Y-101135921D01*
X94061994Y-101135921D02*
X94157232Y-101135921D01*
X94157232Y-101135921D02*
X94300089Y-101183540D01*
X94300089Y-101183540D02*
X94871518Y-101754968D01*
X94871518Y-101754968D02*
X94871518Y-101135921D01*
%TO.C,R14*%
X96592480Y-130963859D02*
X96116289Y-131297192D01*
X96592480Y-131535287D02*
X95592480Y-131535287D01*
X95592480Y-131535287D02*
X95592480Y-131154335D01*
X95592480Y-131154335D02*
X95640099Y-131059097D01*
X95640099Y-131059097D02*
X95687718Y-131011478D01*
X95687718Y-131011478D02*
X95782956Y-130963859D01*
X95782956Y-130963859D02*
X95925813Y-130963859D01*
X95925813Y-130963859D02*
X96021051Y-131011478D01*
X96021051Y-131011478D02*
X96068670Y-131059097D01*
X96068670Y-131059097D02*
X96116289Y-131154335D01*
X96116289Y-131154335D02*
X96116289Y-131535287D01*
X96592480Y-130011478D02*
X96592480Y-130582906D01*
X96592480Y-130297192D02*
X95592480Y-130297192D01*
X95592480Y-130297192D02*
X95735337Y-130392430D01*
X95735337Y-130392430D02*
X95830575Y-130487668D01*
X95830575Y-130487668D02*
X95878194Y-130582906D01*
X95925813Y-129154335D02*
X96592480Y-129154335D01*
X95544861Y-129392430D02*
X96259146Y-129630525D01*
X96259146Y-129630525D02*
X96259146Y-129011478D01*
%TO.C,R16*%
X99449785Y-100443721D02*
X99116452Y-99967530D01*
X98878357Y-100443721D02*
X98878357Y-99443721D01*
X98878357Y-99443721D02*
X99259309Y-99443721D01*
X99259309Y-99443721D02*
X99354547Y-99491340D01*
X99354547Y-99491340D02*
X99402166Y-99538959D01*
X99402166Y-99538959D02*
X99449785Y-99634197D01*
X99449785Y-99634197D02*
X99449785Y-99777054D01*
X99449785Y-99777054D02*
X99402166Y-99872292D01*
X99402166Y-99872292D02*
X99354547Y-99919911D01*
X99354547Y-99919911D02*
X99259309Y-99967530D01*
X99259309Y-99967530D02*
X98878357Y-99967530D01*
X100402166Y-100443721D02*
X99830738Y-100443721D01*
X100116452Y-100443721D02*
X100116452Y-99443721D01*
X100116452Y-99443721D02*
X100021214Y-99586578D01*
X100021214Y-99586578D02*
X99925976Y-99681816D01*
X99925976Y-99681816D02*
X99830738Y-99729435D01*
X101259309Y-99443721D02*
X101068833Y-99443721D01*
X101068833Y-99443721D02*
X100973595Y-99491340D01*
X100973595Y-99491340D02*
X100925976Y-99538959D01*
X100925976Y-99538959D02*
X100830738Y-99681816D01*
X100830738Y-99681816D02*
X100783119Y-99872292D01*
X100783119Y-99872292D02*
X100783119Y-100253244D01*
X100783119Y-100253244D02*
X100830738Y-100348482D01*
X100830738Y-100348482D02*
X100878357Y-100396102D01*
X100878357Y-100396102D02*
X100973595Y-100443721D01*
X100973595Y-100443721D02*
X101164071Y-100443721D01*
X101164071Y-100443721D02*
X101259309Y-100396102D01*
X101259309Y-100396102D02*
X101306928Y-100348482D01*
X101306928Y-100348482D02*
X101354547Y-100253244D01*
X101354547Y-100253244D02*
X101354547Y-100015149D01*
X101354547Y-100015149D02*
X101306928Y-99919911D01*
X101306928Y-99919911D02*
X101259309Y-99872292D01*
X101259309Y-99872292D02*
X101164071Y-99824673D01*
X101164071Y-99824673D02*
X100973595Y-99824673D01*
X100973595Y-99824673D02*
X100878357Y-99872292D01*
X100878357Y-99872292D02*
X100830738Y-99919911D01*
X100830738Y-99919911D02*
X100783119Y-100015149D01*
%TO.C,R20*%
X83549785Y-94893721D02*
X83216452Y-94417530D01*
X82978357Y-94893721D02*
X82978357Y-93893721D01*
X82978357Y-93893721D02*
X83359309Y-93893721D01*
X83359309Y-93893721D02*
X83454547Y-93941340D01*
X83454547Y-93941340D02*
X83502166Y-93988959D01*
X83502166Y-93988959D02*
X83549785Y-94084197D01*
X83549785Y-94084197D02*
X83549785Y-94227054D01*
X83549785Y-94227054D02*
X83502166Y-94322292D01*
X83502166Y-94322292D02*
X83454547Y-94369911D01*
X83454547Y-94369911D02*
X83359309Y-94417530D01*
X83359309Y-94417530D02*
X82978357Y-94417530D01*
X83930738Y-93988959D02*
X83978357Y-93941340D01*
X83978357Y-93941340D02*
X84073595Y-93893721D01*
X84073595Y-93893721D02*
X84311690Y-93893721D01*
X84311690Y-93893721D02*
X84406928Y-93941340D01*
X84406928Y-93941340D02*
X84454547Y-93988959D01*
X84454547Y-93988959D02*
X84502166Y-94084197D01*
X84502166Y-94084197D02*
X84502166Y-94179435D01*
X84502166Y-94179435D02*
X84454547Y-94322292D01*
X84454547Y-94322292D02*
X83883119Y-94893721D01*
X83883119Y-94893721D02*
X84502166Y-94893721D01*
X85121214Y-93893721D02*
X85216452Y-93893721D01*
X85216452Y-93893721D02*
X85311690Y-93941340D01*
X85311690Y-93941340D02*
X85359309Y-93988959D01*
X85359309Y-93988959D02*
X85406928Y-94084197D01*
X85406928Y-94084197D02*
X85454547Y-94274673D01*
X85454547Y-94274673D02*
X85454547Y-94512768D01*
X85454547Y-94512768D02*
X85406928Y-94703244D01*
X85406928Y-94703244D02*
X85359309Y-94798482D01*
X85359309Y-94798482D02*
X85311690Y-94846102D01*
X85311690Y-94846102D02*
X85216452Y-94893721D01*
X85216452Y-94893721D02*
X85121214Y-94893721D01*
X85121214Y-94893721D02*
X85025976Y-94846102D01*
X85025976Y-94846102D02*
X84978357Y-94798482D01*
X84978357Y-94798482D02*
X84930738Y-94703244D01*
X84930738Y-94703244D02*
X84883119Y-94512768D01*
X84883119Y-94512768D02*
X84883119Y-94274673D01*
X84883119Y-94274673D02*
X84930738Y-94084197D01*
X84930738Y-94084197D02*
X84978357Y-93988959D01*
X84978357Y-93988959D02*
X85025976Y-93941340D01*
X85025976Y-93941340D02*
X85121214Y-93893721D01*
%TO.C,R22*%
X84549785Y-91383721D02*
X84216452Y-90907530D01*
X83978357Y-91383721D02*
X83978357Y-90383721D01*
X83978357Y-90383721D02*
X84359309Y-90383721D01*
X84359309Y-90383721D02*
X84454547Y-90431340D01*
X84454547Y-90431340D02*
X84502166Y-90478959D01*
X84502166Y-90478959D02*
X84549785Y-90574197D01*
X84549785Y-90574197D02*
X84549785Y-90717054D01*
X84549785Y-90717054D02*
X84502166Y-90812292D01*
X84502166Y-90812292D02*
X84454547Y-90859911D01*
X84454547Y-90859911D02*
X84359309Y-90907530D01*
X84359309Y-90907530D02*
X83978357Y-90907530D01*
X84930738Y-90478959D02*
X84978357Y-90431340D01*
X84978357Y-90431340D02*
X85073595Y-90383721D01*
X85073595Y-90383721D02*
X85311690Y-90383721D01*
X85311690Y-90383721D02*
X85406928Y-90431340D01*
X85406928Y-90431340D02*
X85454547Y-90478959D01*
X85454547Y-90478959D02*
X85502166Y-90574197D01*
X85502166Y-90574197D02*
X85502166Y-90669435D01*
X85502166Y-90669435D02*
X85454547Y-90812292D01*
X85454547Y-90812292D02*
X84883119Y-91383721D01*
X84883119Y-91383721D02*
X85502166Y-91383721D01*
X85883119Y-90478959D02*
X85930738Y-90431340D01*
X85930738Y-90431340D02*
X86025976Y-90383721D01*
X86025976Y-90383721D02*
X86264071Y-90383721D01*
X86264071Y-90383721D02*
X86359309Y-90431340D01*
X86359309Y-90431340D02*
X86406928Y-90478959D01*
X86406928Y-90478959D02*
X86454547Y-90574197D01*
X86454547Y-90574197D02*
X86454547Y-90669435D01*
X86454547Y-90669435D02*
X86406928Y-90812292D01*
X86406928Y-90812292D02*
X85835500Y-91383721D01*
X85835500Y-91383721D02*
X86454547Y-91383721D01*
%TO.C,R45*%
X61039785Y-110432274D02*
X60706452Y-109956083D01*
X60468357Y-110432274D02*
X60468357Y-109432274D01*
X60468357Y-109432274D02*
X60849309Y-109432274D01*
X60849309Y-109432274D02*
X60944547Y-109479893D01*
X60944547Y-109479893D02*
X60992166Y-109527512D01*
X60992166Y-109527512D02*
X61039785Y-109622750D01*
X61039785Y-109622750D02*
X61039785Y-109765607D01*
X61039785Y-109765607D02*
X60992166Y-109860845D01*
X60992166Y-109860845D02*
X60944547Y-109908464D01*
X60944547Y-109908464D02*
X60849309Y-109956083D01*
X60849309Y-109956083D02*
X60468357Y-109956083D01*
X61896928Y-109765607D02*
X61896928Y-110432274D01*
X61658833Y-109384655D02*
X61420738Y-110098940D01*
X61420738Y-110098940D02*
X62039785Y-110098940D01*
X62896928Y-109432274D02*
X62420738Y-109432274D01*
X62420738Y-109432274D02*
X62373119Y-109908464D01*
X62373119Y-109908464D02*
X62420738Y-109860845D01*
X62420738Y-109860845D02*
X62515976Y-109813226D01*
X62515976Y-109813226D02*
X62754071Y-109813226D01*
X62754071Y-109813226D02*
X62849309Y-109860845D01*
X62849309Y-109860845D02*
X62896928Y-109908464D01*
X62896928Y-109908464D02*
X62944547Y-110003702D01*
X62944547Y-110003702D02*
X62944547Y-110241797D01*
X62944547Y-110241797D02*
X62896928Y-110337035D01*
X62896928Y-110337035D02*
X62849309Y-110384655D01*
X62849309Y-110384655D02*
X62754071Y-110432274D01*
X62754071Y-110432274D02*
X62515976Y-110432274D01*
X62515976Y-110432274D02*
X62420738Y-110384655D01*
X62420738Y-110384655D02*
X62373119Y-110337035D01*
D12*
%TO.C,X3*%
X264563157Y-136812064D02*
X265706157Y-136050064D01*
X264563157Y-136050064D02*
X265706157Y-136812064D01*
X264563157Y-135723493D02*
X264563157Y-135015921D01*
X264563157Y-135015921D02*
X264998586Y-135396921D01*
X264998586Y-135396921D02*
X264998586Y-135233636D01*
X264998586Y-135233636D02*
X265053014Y-135124779D01*
X265053014Y-135124779D02*
X265107443Y-135070350D01*
X265107443Y-135070350D02*
X265216300Y-135015921D01*
X265216300Y-135015921D02*
X265488443Y-135015921D01*
X265488443Y-135015921D02*
X265597300Y-135070350D01*
X265597300Y-135070350D02*
X265651729Y-135124779D01*
X265651729Y-135124779D02*
X265706157Y-135233636D01*
X265706157Y-135233636D02*
X265706157Y-135560207D01*
X265706157Y-135560207D02*
X265651729Y-135669064D01*
X265651729Y-135669064D02*
X265597300Y-135723493D01*
X268246157Y-70663207D02*
X267103157Y-70663207D01*
X267103157Y-70663207D02*
X267103157Y-70391064D01*
X267103157Y-70391064D02*
X267157586Y-70227778D01*
X267157586Y-70227778D02*
X267266443Y-70118921D01*
X267266443Y-70118921D02*
X267375300Y-70064492D01*
X267375300Y-70064492D02*
X267593014Y-70010064D01*
X267593014Y-70010064D02*
X267756300Y-70010064D01*
X267756300Y-70010064D02*
X267974014Y-70064492D01*
X267974014Y-70064492D02*
X268082871Y-70118921D01*
X268082871Y-70118921D02*
X268191729Y-70227778D01*
X268191729Y-70227778D02*
X268246157Y-70391064D01*
X268246157Y-70391064D02*
X268246157Y-70663207D01*
X268246157Y-69520207D02*
X267103157Y-69520207D01*
X268246157Y-68975921D02*
X267103157Y-68975921D01*
X267103157Y-68975921D02*
X268246157Y-68322778D01*
X268246157Y-68322778D02*
X267103157Y-68322778D01*
X267484157Y-66417778D02*
X268246157Y-66417778D01*
X267048729Y-66689920D02*
X267865157Y-66962063D01*
X267865157Y-66962063D02*
X267865157Y-66254492D01*
X268246157Y-65220349D02*
X268246157Y-65873492D01*
X268246157Y-65546921D02*
X267103157Y-65546921D01*
X267103157Y-65546921D02*
X267266443Y-65655778D01*
X267266443Y-65655778D02*
X267375300Y-65764635D01*
X267375300Y-65764635D02*
X267429729Y-65873492D01*
X267103157Y-64240636D02*
X267103157Y-64458350D01*
X267103157Y-64458350D02*
X267157586Y-64567207D01*
X267157586Y-64567207D02*
X267212014Y-64621636D01*
X267212014Y-64621636D02*
X267375300Y-64730493D01*
X267375300Y-64730493D02*
X267593014Y-64784921D01*
X267593014Y-64784921D02*
X268028443Y-64784921D01*
X268028443Y-64784921D02*
X268137300Y-64730493D01*
X268137300Y-64730493D02*
X268191729Y-64676064D01*
X268191729Y-64676064D02*
X268246157Y-64567207D01*
X268246157Y-64567207D02*
X268246157Y-64349493D01*
X268246157Y-64349493D02*
X268191729Y-64240636D01*
X268191729Y-64240636D02*
X268137300Y-64186207D01*
X268137300Y-64186207D02*
X268028443Y-64131778D01*
X268028443Y-64131778D02*
X267756300Y-64131778D01*
X267756300Y-64131778D02*
X267647443Y-64186207D01*
X267647443Y-64186207D02*
X267593014Y-64240636D01*
X267593014Y-64240636D02*
X267538586Y-64349493D01*
X267538586Y-64349493D02*
X267538586Y-64567207D01*
X267538586Y-64567207D02*
X267593014Y-64676064D01*
X267593014Y-64676064D02*
X267647443Y-64730493D01*
X267647443Y-64730493D02*
X267756300Y-64784921D01*
X268246157Y-63043207D02*
X268246157Y-63696350D01*
X268246157Y-63369779D02*
X267103157Y-63369779D01*
X267103157Y-63369779D02*
X267266443Y-63478636D01*
X267266443Y-63478636D02*
X267375300Y-63587493D01*
X267375300Y-63587493D02*
X267429729Y-63696350D01*
X267212014Y-62607779D02*
X267157586Y-62553351D01*
X267157586Y-62553351D02*
X267103157Y-62444494D01*
X267103157Y-62444494D02*
X267103157Y-62172351D01*
X267103157Y-62172351D02*
X267157586Y-62063494D01*
X267157586Y-62063494D02*
X267212014Y-62009065D01*
X267212014Y-62009065D02*
X267320871Y-61954636D01*
X267320871Y-61954636D02*
X267429729Y-61954636D01*
X267429729Y-61954636D02*
X267593014Y-62009065D01*
X267593014Y-62009065D02*
X268246157Y-62662208D01*
X268246157Y-62662208D02*
X268246157Y-61954636D01*
X246378195Y-61982416D02*
X246378195Y-60839416D01*
X246378195Y-61927988D02*
X246269337Y-61982416D01*
X246269337Y-61982416D02*
X246051623Y-61982416D01*
X246051623Y-61982416D02*
X245942766Y-61927988D01*
X245942766Y-61927988D02*
X245888337Y-61873559D01*
X245888337Y-61873559D02*
X245833909Y-61764702D01*
X245833909Y-61764702D02*
X245833909Y-61438130D01*
X245833909Y-61438130D02*
X245888337Y-61329273D01*
X245888337Y-61329273D02*
X245942766Y-61274845D01*
X245942766Y-61274845D02*
X246051623Y-61220416D01*
X246051623Y-61220416D02*
X246269337Y-61220416D01*
X246269337Y-61220416D02*
X246378195Y-61274845D01*
X250224480Y-61220416D02*
X250823195Y-61220416D01*
X250823195Y-61220416D02*
X250224480Y-61982416D01*
X250224480Y-61982416D02*
X250823195Y-61982416D01*
X253998195Y-65665416D02*
X253998195Y-66427416D01*
X253726052Y-65229988D02*
X253453909Y-66046416D01*
X253453909Y-66046416D02*
X254161480Y-66046416D01*
X265071157Y-70663207D02*
X263928157Y-70663207D01*
X264472443Y-70663207D02*
X264472443Y-70010064D01*
X265071157Y-70010064D02*
X263928157Y-70010064D01*
X265071157Y-68867063D02*
X265071157Y-69520206D01*
X265071157Y-69193635D02*
X263928157Y-69193635D01*
X263928157Y-69193635D02*
X264091443Y-69302492D01*
X264091443Y-69302492D02*
X264200300Y-69411349D01*
X264200300Y-69411349D02*
X264254729Y-69520206D01*
X263928157Y-67832921D02*
X263928157Y-68377207D01*
X263928157Y-68377207D02*
X264472443Y-68431635D01*
X264472443Y-68431635D02*
X264418014Y-68377207D01*
X264418014Y-68377207D02*
X264363586Y-68268350D01*
X264363586Y-68268350D02*
X264363586Y-67996207D01*
X264363586Y-67996207D02*
X264418014Y-67887350D01*
X264418014Y-67887350D02*
X264472443Y-67832921D01*
X264472443Y-67832921D02*
X264581300Y-67778492D01*
X264581300Y-67778492D02*
X264853443Y-67778492D01*
X264853443Y-67778492D02*
X264962300Y-67832921D01*
X264962300Y-67832921D02*
X265016729Y-67887350D01*
X265016729Y-67887350D02*
X265071157Y-67996207D01*
X265071157Y-67996207D02*
X265071157Y-68268350D01*
X265071157Y-68268350D02*
X265016729Y-68377207D01*
X265016729Y-68377207D02*
X264962300Y-68431635D01*
X265071157Y-67288636D02*
X263928157Y-67288636D01*
X263928157Y-67288636D02*
X264744586Y-66907636D01*
X264744586Y-66907636D02*
X263928157Y-66526636D01*
X263928157Y-66526636D02*
X265071157Y-66526636D01*
D10*
%TO.C,C_A1*%
X73822031Y-80397166D02*
X73869651Y-80444785D01*
X73869651Y-80444785D02*
X73917270Y-80587642D01*
X73917270Y-80587642D02*
X73917270Y-80682880D01*
X73917270Y-80682880D02*
X73869651Y-80825737D01*
X73869651Y-80825737D02*
X73774412Y-80920975D01*
X73774412Y-80920975D02*
X73679174Y-80968594D01*
X73679174Y-80968594D02*
X73488698Y-81016213D01*
X73488698Y-81016213D02*
X73345841Y-81016213D01*
X73345841Y-81016213D02*
X73155365Y-80968594D01*
X73155365Y-80968594D02*
X73060127Y-80920975D01*
X73060127Y-80920975D02*
X72964889Y-80825737D01*
X72964889Y-80825737D02*
X72917270Y-80682880D01*
X72917270Y-80682880D02*
X72917270Y-80587642D01*
X72917270Y-80587642D02*
X72964889Y-80444785D01*
X72964889Y-80444785D02*
X73012508Y-80397166D01*
X74012508Y-80206690D02*
X74012508Y-79444785D01*
X73631555Y-79254308D02*
X73631555Y-78778118D01*
X73917270Y-79349546D02*
X72917270Y-79016213D01*
X72917270Y-79016213D02*
X73917270Y-78682880D01*
X73917270Y-77825737D02*
X73917270Y-78397165D01*
X73917270Y-78111451D02*
X72917270Y-78111451D01*
X72917270Y-78111451D02*
X73060127Y-78206689D01*
X73060127Y-78206689D02*
X73155365Y-78301927D01*
X73155365Y-78301927D02*
X73202984Y-78397165D01*
%TO.C,C5*%
X88407223Y-89110568D02*
X88454843Y-89158187D01*
X88454843Y-89158187D02*
X88502462Y-89301044D01*
X88502462Y-89301044D02*
X88502462Y-89396282D01*
X88502462Y-89396282D02*
X88454843Y-89539139D01*
X88454843Y-89539139D02*
X88359604Y-89634377D01*
X88359604Y-89634377D02*
X88264366Y-89681996D01*
X88264366Y-89681996D02*
X88073890Y-89729615D01*
X88073890Y-89729615D02*
X87931033Y-89729615D01*
X87931033Y-89729615D02*
X87740557Y-89681996D01*
X87740557Y-89681996D02*
X87645319Y-89634377D01*
X87645319Y-89634377D02*
X87550081Y-89539139D01*
X87550081Y-89539139D02*
X87502462Y-89396282D01*
X87502462Y-89396282D02*
X87502462Y-89301044D01*
X87502462Y-89301044D02*
X87550081Y-89158187D01*
X87550081Y-89158187D02*
X87597700Y-89110568D01*
X87502462Y-88205806D02*
X87502462Y-88681996D01*
X87502462Y-88681996D02*
X87978652Y-88729615D01*
X87978652Y-88729615D02*
X87931033Y-88681996D01*
X87931033Y-88681996D02*
X87883414Y-88586758D01*
X87883414Y-88586758D02*
X87883414Y-88348663D01*
X87883414Y-88348663D02*
X87931033Y-88253425D01*
X87931033Y-88253425D02*
X87978652Y-88205806D01*
X87978652Y-88205806D02*
X88073890Y-88158187D01*
X88073890Y-88158187D02*
X88311985Y-88158187D01*
X88311985Y-88158187D02*
X88407223Y-88205806D01*
X88407223Y-88205806D02*
X88454843Y-88253425D01*
X88454843Y-88253425D02*
X88502462Y-88348663D01*
X88502462Y-88348663D02*
X88502462Y-88586758D01*
X88502462Y-88586758D02*
X88454843Y-88681996D01*
X88454843Y-88681996D02*
X88407223Y-88729615D01*
%TO.C,C42*%
X105649785Y-72748482D02*
X105602166Y-72796102D01*
X105602166Y-72796102D02*
X105459309Y-72843721D01*
X105459309Y-72843721D02*
X105364071Y-72843721D01*
X105364071Y-72843721D02*
X105221214Y-72796102D01*
X105221214Y-72796102D02*
X105125976Y-72700863D01*
X105125976Y-72700863D02*
X105078357Y-72605625D01*
X105078357Y-72605625D02*
X105030738Y-72415149D01*
X105030738Y-72415149D02*
X105030738Y-72272292D01*
X105030738Y-72272292D02*
X105078357Y-72081816D01*
X105078357Y-72081816D02*
X105125976Y-71986578D01*
X105125976Y-71986578D02*
X105221214Y-71891340D01*
X105221214Y-71891340D02*
X105364071Y-71843721D01*
X105364071Y-71843721D02*
X105459309Y-71843721D01*
X105459309Y-71843721D02*
X105602166Y-71891340D01*
X105602166Y-71891340D02*
X105649785Y-71938959D01*
X106506928Y-72177054D02*
X106506928Y-72843721D01*
X106268833Y-71796102D02*
X106030738Y-72510387D01*
X106030738Y-72510387D02*
X106649785Y-72510387D01*
X106983119Y-71938959D02*
X107030738Y-71891340D01*
X107030738Y-71891340D02*
X107125976Y-71843721D01*
X107125976Y-71843721D02*
X107364071Y-71843721D01*
X107364071Y-71843721D02*
X107459309Y-71891340D01*
X107459309Y-71891340D02*
X107506928Y-71938959D01*
X107506928Y-71938959D02*
X107554547Y-72034197D01*
X107554547Y-72034197D02*
X107554547Y-72129435D01*
X107554547Y-72129435D02*
X107506928Y-72272292D01*
X107506928Y-72272292D02*
X106935500Y-72843721D01*
X106935500Y-72843721D02*
X107554547Y-72843721D01*
%TO.C,R8*%
X88603062Y-118337668D02*
X88126871Y-118671001D01*
X88603062Y-118909096D02*
X87603062Y-118909096D01*
X87603062Y-118909096D02*
X87603062Y-118528144D01*
X87603062Y-118528144D02*
X87650681Y-118432906D01*
X87650681Y-118432906D02*
X87698300Y-118385287D01*
X87698300Y-118385287D02*
X87793538Y-118337668D01*
X87793538Y-118337668D02*
X87936395Y-118337668D01*
X87936395Y-118337668D02*
X88031633Y-118385287D01*
X88031633Y-118385287D02*
X88079252Y-118432906D01*
X88079252Y-118432906D02*
X88126871Y-118528144D01*
X88126871Y-118528144D02*
X88126871Y-118909096D01*
X88031633Y-117766239D02*
X87984014Y-117861477D01*
X87984014Y-117861477D02*
X87936395Y-117909096D01*
X87936395Y-117909096D02*
X87841157Y-117956715D01*
X87841157Y-117956715D02*
X87793538Y-117956715D01*
X87793538Y-117956715D02*
X87698300Y-117909096D01*
X87698300Y-117909096D02*
X87650681Y-117861477D01*
X87650681Y-117861477D02*
X87603062Y-117766239D01*
X87603062Y-117766239D02*
X87603062Y-117575763D01*
X87603062Y-117575763D02*
X87650681Y-117480525D01*
X87650681Y-117480525D02*
X87698300Y-117432906D01*
X87698300Y-117432906D02*
X87793538Y-117385287D01*
X87793538Y-117385287D02*
X87841157Y-117385287D01*
X87841157Y-117385287D02*
X87936395Y-117432906D01*
X87936395Y-117432906D02*
X87984014Y-117480525D01*
X87984014Y-117480525D02*
X88031633Y-117575763D01*
X88031633Y-117575763D02*
X88031633Y-117766239D01*
X88031633Y-117766239D02*
X88079252Y-117861477D01*
X88079252Y-117861477D02*
X88126871Y-117909096D01*
X88126871Y-117909096D02*
X88222109Y-117956715D01*
X88222109Y-117956715D02*
X88412585Y-117956715D01*
X88412585Y-117956715D02*
X88507823Y-117909096D01*
X88507823Y-117909096D02*
X88555443Y-117861477D01*
X88555443Y-117861477D02*
X88603062Y-117766239D01*
X88603062Y-117766239D02*
X88603062Y-117575763D01*
X88603062Y-117575763D02*
X88555443Y-117480525D01*
X88555443Y-117480525D02*
X88507823Y-117432906D01*
X88507823Y-117432906D02*
X88412585Y-117385287D01*
X88412585Y-117385287D02*
X88222109Y-117385287D01*
X88222109Y-117385287D02*
X88126871Y-117432906D01*
X88126871Y-117432906D02*
X88079252Y-117480525D01*
X88079252Y-117480525D02*
X88031633Y-117575763D01*
%TO.C,R49*%
X69526701Y-91015264D02*
X69193368Y-90539073D01*
X68955273Y-91015264D02*
X68955273Y-90015264D01*
X68955273Y-90015264D02*
X69336225Y-90015264D01*
X69336225Y-90015264D02*
X69431463Y-90062883D01*
X69431463Y-90062883D02*
X69479082Y-90110502D01*
X69479082Y-90110502D02*
X69526701Y-90205740D01*
X69526701Y-90205740D02*
X69526701Y-90348597D01*
X69526701Y-90348597D02*
X69479082Y-90443835D01*
X69479082Y-90443835D02*
X69431463Y-90491454D01*
X69431463Y-90491454D02*
X69336225Y-90539073D01*
X69336225Y-90539073D02*
X68955273Y-90539073D01*
X70383844Y-90348597D02*
X70383844Y-91015264D01*
X70145749Y-89967645D02*
X69907654Y-90681930D01*
X69907654Y-90681930D02*
X70526701Y-90681930D01*
X70955273Y-91015264D02*
X71145749Y-91015264D01*
X71145749Y-91015264D02*
X71240987Y-90967645D01*
X71240987Y-90967645D02*
X71288606Y-90920025D01*
X71288606Y-90920025D02*
X71383844Y-90777168D01*
X71383844Y-90777168D02*
X71431463Y-90586692D01*
X71431463Y-90586692D02*
X71431463Y-90205740D01*
X71431463Y-90205740D02*
X71383844Y-90110502D01*
X71383844Y-90110502D02*
X71336225Y-90062883D01*
X71336225Y-90062883D02*
X71240987Y-90015264D01*
X71240987Y-90015264D02*
X71050511Y-90015264D01*
X71050511Y-90015264D02*
X70955273Y-90062883D01*
X70955273Y-90062883D02*
X70907654Y-90110502D01*
X70907654Y-90110502D02*
X70860035Y-90205740D01*
X70860035Y-90205740D02*
X70860035Y-90443835D01*
X70860035Y-90443835D02*
X70907654Y-90539073D01*
X70907654Y-90539073D02*
X70955273Y-90586692D01*
X70955273Y-90586692D02*
X71050511Y-90634311D01*
X71050511Y-90634311D02*
X71240987Y-90634311D01*
X71240987Y-90634311D02*
X71336225Y-90586692D01*
X71336225Y-90586692D02*
X71383844Y-90539073D01*
X71383844Y-90539073D02*
X71431463Y-90443835D01*
%TO.C,C50*%
X132549785Y-111048482D02*
X132502166Y-111096102D01*
X132502166Y-111096102D02*
X132359309Y-111143721D01*
X132359309Y-111143721D02*
X132264071Y-111143721D01*
X132264071Y-111143721D02*
X132121214Y-111096102D01*
X132121214Y-111096102D02*
X132025976Y-111000863D01*
X132025976Y-111000863D02*
X131978357Y-110905625D01*
X131978357Y-110905625D02*
X131930738Y-110715149D01*
X131930738Y-110715149D02*
X131930738Y-110572292D01*
X131930738Y-110572292D02*
X131978357Y-110381816D01*
X131978357Y-110381816D02*
X132025976Y-110286578D01*
X132025976Y-110286578D02*
X132121214Y-110191340D01*
X132121214Y-110191340D02*
X132264071Y-110143721D01*
X132264071Y-110143721D02*
X132359309Y-110143721D01*
X132359309Y-110143721D02*
X132502166Y-110191340D01*
X132502166Y-110191340D02*
X132549785Y-110238959D01*
X133454547Y-110143721D02*
X132978357Y-110143721D01*
X132978357Y-110143721D02*
X132930738Y-110619911D01*
X132930738Y-110619911D02*
X132978357Y-110572292D01*
X132978357Y-110572292D02*
X133073595Y-110524673D01*
X133073595Y-110524673D02*
X133311690Y-110524673D01*
X133311690Y-110524673D02*
X133406928Y-110572292D01*
X133406928Y-110572292D02*
X133454547Y-110619911D01*
X133454547Y-110619911D02*
X133502166Y-110715149D01*
X133502166Y-110715149D02*
X133502166Y-110953244D01*
X133502166Y-110953244D02*
X133454547Y-111048482D01*
X133454547Y-111048482D02*
X133406928Y-111096102D01*
X133406928Y-111096102D02*
X133311690Y-111143721D01*
X133311690Y-111143721D02*
X133073595Y-111143721D01*
X133073595Y-111143721D02*
X132978357Y-111096102D01*
X132978357Y-111096102D02*
X132930738Y-111048482D01*
X134121214Y-110143721D02*
X134216452Y-110143721D01*
X134216452Y-110143721D02*
X134311690Y-110191340D01*
X134311690Y-110191340D02*
X134359309Y-110238959D01*
X134359309Y-110238959D02*
X134406928Y-110334197D01*
X134406928Y-110334197D02*
X134454547Y-110524673D01*
X134454547Y-110524673D02*
X134454547Y-110762768D01*
X134454547Y-110762768D02*
X134406928Y-110953244D01*
X134406928Y-110953244D02*
X134359309Y-111048482D01*
X134359309Y-111048482D02*
X134311690Y-111096102D01*
X134311690Y-111096102D02*
X134216452Y-111143721D01*
X134216452Y-111143721D02*
X134121214Y-111143721D01*
X134121214Y-111143721D02*
X134025976Y-111096102D01*
X134025976Y-111096102D02*
X133978357Y-111048482D01*
X133978357Y-111048482D02*
X133930738Y-110953244D01*
X133930738Y-110953244D02*
X133883119Y-110762768D01*
X133883119Y-110762768D02*
X133883119Y-110524673D01*
X133883119Y-110524673D02*
X133930738Y-110334197D01*
X133930738Y-110334197D02*
X133978357Y-110238959D01*
X133978357Y-110238959D02*
X134025976Y-110191340D01*
X134025976Y-110191340D02*
X134121214Y-110143721D01*
%TO.C,S1*%
X77489603Y-56100806D02*
X77537222Y-55957949D01*
X77537222Y-55957949D02*
X77537222Y-55719854D01*
X77537222Y-55719854D02*
X77489603Y-55624616D01*
X77489603Y-55624616D02*
X77441983Y-55576997D01*
X77441983Y-55576997D02*
X77346745Y-55529378D01*
X77346745Y-55529378D02*
X77251507Y-55529378D01*
X77251507Y-55529378D02*
X77156269Y-55576997D01*
X77156269Y-55576997D02*
X77108650Y-55624616D01*
X77108650Y-55624616D02*
X77061031Y-55719854D01*
X77061031Y-55719854D02*
X77013412Y-55910330D01*
X77013412Y-55910330D02*
X76965793Y-56005568D01*
X76965793Y-56005568D02*
X76918174Y-56053187D01*
X76918174Y-56053187D02*
X76822936Y-56100806D01*
X76822936Y-56100806D02*
X76727698Y-56100806D01*
X76727698Y-56100806D02*
X76632460Y-56053187D01*
X76632460Y-56053187D02*
X76584841Y-56005568D01*
X76584841Y-56005568D02*
X76537222Y-55910330D01*
X76537222Y-55910330D02*
X76537222Y-55672235D01*
X76537222Y-55672235D02*
X76584841Y-55529378D01*
X77537222Y-54576997D02*
X77537222Y-55148425D01*
X77537222Y-54862711D02*
X76537222Y-54862711D01*
X76537222Y-54862711D02*
X76680079Y-54957949D01*
X76680079Y-54957949D02*
X76775317Y-55053187D01*
X76775317Y-55053187D02*
X76822936Y-55148425D01*
%TO.C,R39*%
X82214785Y-51416221D02*
X81881452Y-50940030D01*
X81643357Y-51416221D02*
X81643357Y-50416221D01*
X81643357Y-50416221D02*
X82024309Y-50416221D01*
X82024309Y-50416221D02*
X82119547Y-50463840D01*
X82119547Y-50463840D02*
X82167166Y-50511459D01*
X82167166Y-50511459D02*
X82214785Y-50606697D01*
X82214785Y-50606697D02*
X82214785Y-50749554D01*
X82214785Y-50749554D02*
X82167166Y-50844792D01*
X82167166Y-50844792D02*
X82119547Y-50892411D01*
X82119547Y-50892411D02*
X82024309Y-50940030D01*
X82024309Y-50940030D02*
X81643357Y-50940030D01*
X82548119Y-50416221D02*
X83167166Y-50416221D01*
X83167166Y-50416221D02*
X82833833Y-50797173D01*
X82833833Y-50797173D02*
X82976690Y-50797173D01*
X82976690Y-50797173D02*
X83071928Y-50844792D01*
X83071928Y-50844792D02*
X83119547Y-50892411D01*
X83119547Y-50892411D02*
X83167166Y-50987649D01*
X83167166Y-50987649D02*
X83167166Y-51225744D01*
X83167166Y-51225744D02*
X83119547Y-51320982D01*
X83119547Y-51320982D02*
X83071928Y-51368602D01*
X83071928Y-51368602D02*
X82976690Y-51416221D01*
X82976690Y-51416221D02*
X82690976Y-51416221D01*
X82690976Y-51416221D02*
X82595738Y-51368602D01*
X82595738Y-51368602D02*
X82548119Y-51320982D01*
X83643357Y-51416221D02*
X83833833Y-51416221D01*
X83833833Y-51416221D02*
X83929071Y-51368602D01*
X83929071Y-51368602D02*
X83976690Y-51320982D01*
X83976690Y-51320982D02*
X84071928Y-51178125D01*
X84071928Y-51178125D02*
X84119547Y-50987649D01*
X84119547Y-50987649D02*
X84119547Y-50606697D01*
X84119547Y-50606697D02*
X84071928Y-50511459D01*
X84071928Y-50511459D02*
X84024309Y-50463840D01*
X84024309Y-50463840D02*
X83929071Y-50416221D01*
X83929071Y-50416221D02*
X83738595Y-50416221D01*
X83738595Y-50416221D02*
X83643357Y-50463840D01*
X83643357Y-50463840D02*
X83595738Y-50511459D01*
X83595738Y-50511459D02*
X83548119Y-50606697D01*
X83548119Y-50606697D02*
X83548119Y-50844792D01*
X83548119Y-50844792D02*
X83595738Y-50940030D01*
X83595738Y-50940030D02*
X83643357Y-50987649D01*
X83643357Y-50987649D02*
X83738595Y-51035268D01*
X83738595Y-51035268D02*
X83929071Y-51035268D01*
X83929071Y-51035268D02*
X84024309Y-50987649D01*
X84024309Y-50987649D02*
X84071928Y-50940030D01*
X84071928Y-50940030D02*
X84119547Y-50844792D01*
%TO.C,R5*%
X108225994Y-124270821D02*
X107892661Y-123794630D01*
X107654566Y-124270821D02*
X107654566Y-123270821D01*
X107654566Y-123270821D02*
X108035518Y-123270821D01*
X108035518Y-123270821D02*
X108130756Y-123318440D01*
X108130756Y-123318440D02*
X108178375Y-123366059D01*
X108178375Y-123366059D02*
X108225994Y-123461297D01*
X108225994Y-123461297D02*
X108225994Y-123604154D01*
X108225994Y-123604154D02*
X108178375Y-123699392D01*
X108178375Y-123699392D02*
X108130756Y-123747011D01*
X108130756Y-123747011D02*
X108035518Y-123794630D01*
X108035518Y-123794630D02*
X107654566Y-123794630D01*
X109130756Y-123270821D02*
X108654566Y-123270821D01*
X108654566Y-123270821D02*
X108606947Y-123747011D01*
X108606947Y-123747011D02*
X108654566Y-123699392D01*
X108654566Y-123699392D02*
X108749804Y-123651773D01*
X108749804Y-123651773D02*
X108987899Y-123651773D01*
X108987899Y-123651773D02*
X109083137Y-123699392D01*
X109083137Y-123699392D02*
X109130756Y-123747011D01*
X109130756Y-123747011D02*
X109178375Y-123842249D01*
X109178375Y-123842249D02*
X109178375Y-124080344D01*
X109178375Y-124080344D02*
X109130756Y-124175582D01*
X109130756Y-124175582D02*
X109083137Y-124223202D01*
X109083137Y-124223202D02*
X108987899Y-124270821D01*
X108987899Y-124270821D02*
X108749804Y-124270821D01*
X108749804Y-124270821D02*
X108654566Y-124223202D01*
X108654566Y-124223202D02*
X108606947Y-124175582D01*
%TO.C,R38*%
X50817462Y-94090312D02*
X50341271Y-94423645D01*
X50817462Y-94661740D02*
X49817462Y-94661740D01*
X49817462Y-94661740D02*
X49817462Y-94280788D01*
X49817462Y-94280788D02*
X49865081Y-94185550D01*
X49865081Y-94185550D02*
X49912700Y-94137931D01*
X49912700Y-94137931D02*
X50007938Y-94090312D01*
X50007938Y-94090312D02*
X50150795Y-94090312D01*
X50150795Y-94090312D02*
X50246033Y-94137931D01*
X50246033Y-94137931D02*
X50293652Y-94185550D01*
X50293652Y-94185550D02*
X50341271Y-94280788D01*
X50341271Y-94280788D02*
X50341271Y-94661740D01*
X49817462Y-93756978D02*
X49817462Y-93137931D01*
X49817462Y-93137931D02*
X50198414Y-93471264D01*
X50198414Y-93471264D02*
X50198414Y-93328407D01*
X50198414Y-93328407D02*
X50246033Y-93233169D01*
X50246033Y-93233169D02*
X50293652Y-93185550D01*
X50293652Y-93185550D02*
X50388890Y-93137931D01*
X50388890Y-93137931D02*
X50626985Y-93137931D01*
X50626985Y-93137931D02*
X50722223Y-93185550D01*
X50722223Y-93185550D02*
X50769843Y-93233169D01*
X50769843Y-93233169D02*
X50817462Y-93328407D01*
X50817462Y-93328407D02*
X50817462Y-93614121D01*
X50817462Y-93614121D02*
X50769843Y-93709359D01*
X50769843Y-93709359D02*
X50722223Y-93756978D01*
X50246033Y-92566502D02*
X50198414Y-92661740D01*
X50198414Y-92661740D02*
X50150795Y-92709359D01*
X50150795Y-92709359D02*
X50055557Y-92756978D01*
X50055557Y-92756978D02*
X50007938Y-92756978D01*
X50007938Y-92756978D02*
X49912700Y-92709359D01*
X49912700Y-92709359D02*
X49865081Y-92661740D01*
X49865081Y-92661740D02*
X49817462Y-92566502D01*
X49817462Y-92566502D02*
X49817462Y-92376026D01*
X49817462Y-92376026D02*
X49865081Y-92280788D01*
X49865081Y-92280788D02*
X49912700Y-92233169D01*
X49912700Y-92233169D02*
X50007938Y-92185550D01*
X50007938Y-92185550D02*
X50055557Y-92185550D01*
X50055557Y-92185550D02*
X50150795Y-92233169D01*
X50150795Y-92233169D02*
X50198414Y-92280788D01*
X50198414Y-92280788D02*
X50246033Y-92376026D01*
X50246033Y-92376026D02*
X50246033Y-92566502D01*
X50246033Y-92566502D02*
X50293652Y-92661740D01*
X50293652Y-92661740D02*
X50341271Y-92709359D01*
X50341271Y-92709359D02*
X50436509Y-92756978D01*
X50436509Y-92756978D02*
X50626985Y-92756978D01*
X50626985Y-92756978D02*
X50722223Y-92709359D01*
X50722223Y-92709359D02*
X50769843Y-92661740D01*
X50769843Y-92661740D02*
X50817462Y-92566502D01*
X50817462Y-92566502D02*
X50817462Y-92376026D01*
X50817462Y-92376026D02*
X50769843Y-92280788D01*
X50769843Y-92280788D02*
X50722223Y-92233169D01*
X50722223Y-92233169D02*
X50626985Y-92185550D01*
X50626985Y-92185550D02*
X50436509Y-92185550D01*
X50436509Y-92185550D02*
X50341271Y-92233169D01*
X50341271Y-92233169D02*
X50293652Y-92280788D01*
X50293652Y-92280788D02*
X50246033Y-92376026D01*
%TO.C,P3*%
X111697480Y-123029096D02*
X110697480Y-123029096D01*
X110697480Y-123029096D02*
X110697480Y-122648144D01*
X110697480Y-122648144D02*
X110745099Y-122552906D01*
X110745099Y-122552906D02*
X110792718Y-122505287D01*
X110792718Y-122505287D02*
X110887956Y-122457668D01*
X110887956Y-122457668D02*
X111030813Y-122457668D01*
X111030813Y-122457668D02*
X111126051Y-122505287D01*
X111126051Y-122505287D02*
X111173670Y-122552906D01*
X111173670Y-122552906D02*
X111221289Y-122648144D01*
X111221289Y-122648144D02*
X111221289Y-123029096D01*
X110697480Y-122124334D02*
X110697480Y-121505287D01*
X110697480Y-121505287D02*
X111078432Y-121838620D01*
X111078432Y-121838620D02*
X111078432Y-121695763D01*
X111078432Y-121695763D02*
X111126051Y-121600525D01*
X111126051Y-121600525D02*
X111173670Y-121552906D01*
X111173670Y-121552906D02*
X111268908Y-121505287D01*
X111268908Y-121505287D02*
X111507003Y-121505287D01*
X111507003Y-121505287D02*
X111602241Y-121552906D01*
X111602241Y-121552906D02*
X111649861Y-121600525D01*
X111649861Y-121600525D02*
X111697480Y-121695763D01*
X111697480Y-121695763D02*
X111697480Y-121981477D01*
X111697480Y-121981477D02*
X111649861Y-122076715D01*
X111649861Y-122076715D02*
X111602241Y-122124334D01*
%TO.C,R4*%
X92150994Y-120980821D02*
X91817661Y-120504630D01*
X91579566Y-120980821D02*
X91579566Y-119980821D01*
X91579566Y-119980821D02*
X91960518Y-119980821D01*
X91960518Y-119980821D02*
X92055756Y-120028440D01*
X92055756Y-120028440D02*
X92103375Y-120076059D01*
X92103375Y-120076059D02*
X92150994Y-120171297D01*
X92150994Y-120171297D02*
X92150994Y-120314154D01*
X92150994Y-120314154D02*
X92103375Y-120409392D01*
X92103375Y-120409392D02*
X92055756Y-120457011D01*
X92055756Y-120457011D02*
X91960518Y-120504630D01*
X91960518Y-120504630D02*
X91579566Y-120504630D01*
X93008137Y-120314154D02*
X93008137Y-120980821D01*
X92770042Y-119933202D02*
X92531947Y-120647487D01*
X92531947Y-120647487D02*
X93150994Y-120647487D01*
%TO.C,Neg_Reg1*%
X76787881Y-72943721D02*
X76787881Y-71943721D01*
X76787881Y-71943721D02*
X77359309Y-72943721D01*
X77359309Y-72943721D02*
X77359309Y-71943721D01*
X78216452Y-72896102D02*
X78121214Y-72943721D01*
X78121214Y-72943721D02*
X77930738Y-72943721D01*
X77930738Y-72943721D02*
X77835500Y-72896102D01*
X77835500Y-72896102D02*
X77787881Y-72800863D01*
X77787881Y-72800863D02*
X77787881Y-72419911D01*
X77787881Y-72419911D02*
X77835500Y-72324673D01*
X77835500Y-72324673D02*
X77930738Y-72277054D01*
X77930738Y-72277054D02*
X78121214Y-72277054D01*
X78121214Y-72277054D02*
X78216452Y-72324673D01*
X78216452Y-72324673D02*
X78264071Y-72419911D01*
X78264071Y-72419911D02*
X78264071Y-72515149D01*
X78264071Y-72515149D02*
X77787881Y-72610387D01*
X79121214Y-72277054D02*
X79121214Y-73086578D01*
X79121214Y-73086578D02*
X79073595Y-73181816D01*
X79073595Y-73181816D02*
X79025976Y-73229435D01*
X79025976Y-73229435D02*
X78930738Y-73277054D01*
X78930738Y-73277054D02*
X78787881Y-73277054D01*
X78787881Y-73277054D02*
X78692643Y-73229435D01*
X79121214Y-72896102D02*
X79025976Y-72943721D01*
X79025976Y-72943721D02*
X78835500Y-72943721D01*
X78835500Y-72943721D02*
X78740262Y-72896102D01*
X78740262Y-72896102D02*
X78692643Y-72848482D01*
X78692643Y-72848482D02*
X78645024Y-72753244D01*
X78645024Y-72753244D02*
X78645024Y-72467530D01*
X78645024Y-72467530D02*
X78692643Y-72372292D01*
X78692643Y-72372292D02*
X78740262Y-72324673D01*
X78740262Y-72324673D02*
X78835500Y-72277054D01*
X78835500Y-72277054D02*
X79025976Y-72277054D01*
X79025976Y-72277054D02*
X79121214Y-72324673D01*
X79359310Y-73038959D02*
X80121214Y-73038959D01*
X80930738Y-72943721D02*
X80597405Y-72467530D01*
X80359310Y-72943721D02*
X80359310Y-71943721D01*
X80359310Y-71943721D02*
X80740262Y-71943721D01*
X80740262Y-71943721D02*
X80835500Y-71991340D01*
X80835500Y-71991340D02*
X80883119Y-72038959D01*
X80883119Y-72038959D02*
X80930738Y-72134197D01*
X80930738Y-72134197D02*
X80930738Y-72277054D01*
X80930738Y-72277054D02*
X80883119Y-72372292D01*
X80883119Y-72372292D02*
X80835500Y-72419911D01*
X80835500Y-72419911D02*
X80740262Y-72467530D01*
X80740262Y-72467530D02*
X80359310Y-72467530D01*
X81740262Y-72896102D02*
X81645024Y-72943721D01*
X81645024Y-72943721D02*
X81454548Y-72943721D01*
X81454548Y-72943721D02*
X81359310Y-72896102D01*
X81359310Y-72896102D02*
X81311691Y-72800863D01*
X81311691Y-72800863D02*
X81311691Y-72419911D01*
X81311691Y-72419911D02*
X81359310Y-72324673D01*
X81359310Y-72324673D02*
X81454548Y-72277054D01*
X81454548Y-72277054D02*
X81645024Y-72277054D01*
X81645024Y-72277054D02*
X81740262Y-72324673D01*
X81740262Y-72324673D02*
X81787881Y-72419911D01*
X81787881Y-72419911D02*
X81787881Y-72515149D01*
X81787881Y-72515149D02*
X81311691Y-72610387D01*
X82645024Y-72277054D02*
X82645024Y-73086578D01*
X82645024Y-73086578D02*
X82597405Y-73181816D01*
X82597405Y-73181816D02*
X82549786Y-73229435D01*
X82549786Y-73229435D02*
X82454548Y-73277054D01*
X82454548Y-73277054D02*
X82311691Y-73277054D01*
X82311691Y-73277054D02*
X82216453Y-73229435D01*
X82645024Y-72896102D02*
X82549786Y-72943721D01*
X82549786Y-72943721D02*
X82359310Y-72943721D01*
X82359310Y-72943721D02*
X82264072Y-72896102D01*
X82264072Y-72896102D02*
X82216453Y-72848482D01*
X82216453Y-72848482D02*
X82168834Y-72753244D01*
X82168834Y-72753244D02*
X82168834Y-72467530D01*
X82168834Y-72467530D02*
X82216453Y-72372292D01*
X82216453Y-72372292D02*
X82264072Y-72324673D01*
X82264072Y-72324673D02*
X82359310Y-72277054D01*
X82359310Y-72277054D02*
X82549786Y-72277054D01*
X82549786Y-72277054D02*
X82645024Y-72324673D01*
X83645024Y-72943721D02*
X83073596Y-72943721D01*
X83359310Y-72943721D02*
X83359310Y-71943721D01*
X83359310Y-71943721D02*
X83264072Y-72086578D01*
X83264072Y-72086578D02*
X83168834Y-72181816D01*
X83168834Y-72181816D02*
X83073596Y-72229435D01*
%TO.C,O4*%
X35959786Y-128343721D02*
X35959786Y-127343721D01*
X35959786Y-127343721D02*
X36340738Y-127343721D01*
X36340738Y-127343721D02*
X36435976Y-127391340D01*
X36435976Y-127391340D02*
X36483595Y-127438959D01*
X36483595Y-127438959D02*
X36531214Y-127534197D01*
X36531214Y-127534197D02*
X36531214Y-127677054D01*
X36531214Y-127677054D02*
X36483595Y-127772292D01*
X36483595Y-127772292D02*
X36435976Y-127819911D01*
X36435976Y-127819911D02*
X36340738Y-127867530D01*
X36340738Y-127867530D02*
X35959786Y-127867530D01*
X36959786Y-128343721D02*
X36959786Y-127343721D01*
X38388357Y-127343721D02*
X38578833Y-127343721D01*
X38578833Y-127343721D02*
X38674071Y-127391340D01*
X38674071Y-127391340D02*
X38769309Y-127486578D01*
X38769309Y-127486578D02*
X38816928Y-127677054D01*
X38816928Y-127677054D02*
X38816928Y-128010387D01*
X38816928Y-128010387D02*
X38769309Y-128200863D01*
X38769309Y-128200863D02*
X38674071Y-128296102D01*
X38674071Y-128296102D02*
X38578833Y-128343721D01*
X38578833Y-128343721D02*
X38388357Y-128343721D01*
X38388357Y-128343721D02*
X38293119Y-128296102D01*
X38293119Y-128296102D02*
X38197881Y-128200863D01*
X38197881Y-128200863D02*
X38150262Y-128010387D01*
X38150262Y-128010387D02*
X38150262Y-127677054D01*
X38150262Y-127677054D02*
X38197881Y-127486578D01*
X38197881Y-127486578D02*
X38293119Y-127391340D01*
X38293119Y-127391340D02*
X38388357Y-127343721D01*
X39674071Y-127677054D02*
X39674071Y-128343721D01*
X39245500Y-127677054D02*
X39245500Y-128200863D01*
X39245500Y-128200863D02*
X39293119Y-128296102D01*
X39293119Y-128296102D02*
X39388357Y-128343721D01*
X39388357Y-128343721D02*
X39531214Y-128343721D01*
X39531214Y-128343721D02*
X39626452Y-128296102D01*
X39626452Y-128296102D02*
X39674071Y-128248482D01*
X40007405Y-127677054D02*
X40388357Y-127677054D01*
X40150262Y-127343721D02*
X40150262Y-128200863D01*
X40150262Y-128200863D02*
X40197881Y-128296102D01*
X40197881Y-128296102D02*
X40293119Y-128343721D01*
X40293119Y-128343721D02*
X40388357Y-128343721D01*
%TO.C,O1*%
X36412166Y-67943721D02*
X36078833Y-67467530D01*
X35840738Y-67943721D02*
X35840738Y-66943721D01*
X35840738Y-66943721D02*
X36221690Y-66943721D01*
X36221690Y-66943721D02*
X36316928Y-66991340D01*
X36316928Y-66991340D02*
X36364547Y-67038959D01*
X36364547Y-67038959D02*
X36412166Y-67134197D01*
X36412166Y-67134197D02*
X36412166Y-67277054D01*
X36412166Y-67277054D02*
X36364547Y-67372292D01*
X36364547Y-67372292D02*
X36316928Y-67419911D01*
X36316928Y-67419911D02*
X36221690Y-67467530D01*
X36221690Y-67467530D02*
X35840738Y-67467530D01*
X37174071Y-67419911D02*
X36840738Y-67419911D01*
X36840738Y-67943721D02*
X36840738Y-66943721D01*
X36840738Y-66943721D02*
X37316928Y-66943721D01*
X38459786Y-67943721D02*
X38459786Y-66943721D01*
X38935976Y-67277054D02*
X38935976Y-67943721D01*
X38935976Y-67372292D02*
X38983595Y-67324673D01*
X38983595Y-67324673D02*
X39078833Y-67277054D01*
X39078833Y-67277054D02*
X39221690Y-67277054D01*
X39221690Y-67277054D02*
X39316928Y-67324673D01*
X39316928Y-67324673D02*
X39364547Y-67419911D01*
X39364547Y-67419911D02*
X39364547Y-67943721D01*
%TO.C,D1*%
X88747462Y-101026996D02*
X87747462Y-101026996D01*
X87747462Y-101026996D02*
X87747462Y-100788901D01*
X87747462Y-100788901D02*
X87795081Y-100646044D01*
X87795081Y-100646044D02*
X87890319Y-100550806D01*
X87890319Y-100550806D02*
X87985557Y-100503187D01*
X87985557Y-100503187D02*
X88176033Y-100455568D01*
X88176033Y-100455568D02*
X88318890Y-100455568D01*
X88318890Y-100455568D02*
X88509366Y-100503187D01*
X88509366Y-100503187D02*
X88604604Y-100550806D01*
X88604604Y-100550806D02*
X88699843Y-100646044D01*
X88699843Y-100646044D02*
X88747462Y-100788901D01*
X88747462Y-100788901D02*
X88747462Y-101026996D01*
X88747462Y-99503187D02*
X88747462Y-100074615D01*
X88747462Y-99788901D02*
X87747462Y-99788901D01*
X87747462Y-99788901D02*
X87890319Y-99884139D01*
X87890319Y-99884139D02*
X87985557Y-99979377D01*
X87985557Y-99979377D02*
X88033176Y-100074615D01*
%TO.C,C23*%
X66549785Y-87648483D02*
X66502166Y-87696103D01*
X66502166Y-87696103D02*
X66359309Y-87743722D01*
X66359309Y-87743722D02*
X66264071Y-87743722D01*
X66264071Y-87743722D02*
X66121214Y-87696103D01*
X66121214Y-87696103D02*
X66025976Y-87600864D01*
X66025976Y-87600864D02*
X65978357Y-87505626D01*
X65978357Y-87505626D02*
X65930738Y-87315150D01*
X65930738Y-87315150D02*
X65930738Y-87172293D01*
X65930738Y-87172293D02*
X65978357Y-86981817D01*
X65978357Y-86981817D02*
X66025976Y-86886579D01*
X66025976Y-86886579D02*
X66121214Y-86791341D01*
X66121214Y-86791341D02*
X66264071Y-86743722D01*
X66264071Y-86743722D02*
X66359309Y-86743722D01*
X66359309Y-86743722D02*
X66502166Y-86791341D01*
X66502166Y-86791341D02*
X66549785Y-86838960D01*
X66930738Y-86838960D02*
X66978357Y-86791341D01*
X66978357Y-86791341D02*
X67073595Y-86743722D01*
X67073595Y-86743722D02*
X67311690Y-86743722D01*
X67311690Y-86743722D02*
X67406928Y-86791341D01*
X67406928Y-86791341D02*
X67454547Y-86838960D01*
X67454547Y-86838960D02*
X67502166Y-86934198D01*
X67502166Y-86934198D02*
X67502166Y-87029436D01*
X67502166Y-87029436D02*
X67454547Y-87172293D01*
X67454547Y-87172293D02*
X66883119Y-87743722D01*
X66883119Y-87743722D02*
X67502166Y-87743722D01*
X67835500Y-86743722D02*
X68454547Y-86743722D01*
X68454547Y-86743722D02*
X68121214Y-87124674D01*
X68121214Y-87124674D02*
X68264071Y-87124674D01*
X68264071Y-87124674D02*
X68359309Y-87172293D01*
X68359309Y-87172293D02*
X68406928Y-87219912D01*
X68406928Y-87219912D02*
X68454547Y-87315150D01*
X68454547Y-87315150D02*
X68454547Y-87553245D01*
X68454547Y-87553245D02*
X68406928Y-87648483D01*
X68406928Y-87648483D02*
X68359309Y-87696103D01*
X68359309Y-87696103D02*
X68264071Y-87743722D01*
X68264071Y-87743722D02*
X67978357Y-87743722D01*
X67978357Y-87743722D02*
X67883119Y-87696103D01*
X67883119Y-87696103D02*
X67835500Y-87648483D01*
%TO.C,R27*%
X119336232Y-89137274D02*
X119002899Y-88661083D01*
X118764804Y-89137274D02*
X118764804Y-88137274D01*
X118764804Y-88137274D02*
X119145756Y-88137274D01*
X119145756Y-88137274D02*
X119240994Y-88184893D01*
X119240994Y-88184893D02*
X119288613Y-88232512D01*
X119288613Y-88232512D02*
X119336232Y-88327750D01*
X119336232Y-88327750D02*
X119336232Y-88470607D01*
X119336232Y-88470607D02*
X119288613Y-88565845D01*
X119288613Y-88565845D02*
X119240994Y-88613464D01*
X119240994Y-88613464D02*
X119145756Y-88661083D01*
X119145756Y-88661083D02*
X118764804Y-88661083D01*
X119717185Y-88232512D02*
X119764804Y-88184893D01*
X119764804Y-88184893D02*
X119860042Y-88137274D01*
X119860042Y-88137274D02*
X120098137Y-88137274D01*
X120098137Y-88137274D02*
X120193375Y-88184893D01*
X120193375Y-88184893D02*
X120240994Y-88232512D01*
X120240994Y-88232512D02*
X120288613Y-88327750D01*
X120288613Y-88327750D02*
X120288613Y-88422988D01*
X120288613Y-88422988D02*
X120240994Y-88565845D01*
X120240994Y-88565845D02*
X119669566Y-89137274D01*
X119669566Y-89137274D02*
X120288613Y-89137274D01*
X120621947Y-88137274D02*
X121288613Y-88137274D01*
X121288613Y-88137274D02*
X120860042Y-89137274D01*
%TO.C,C46*%
X70776644Y-87763696D02*
X70824264Y-87811315D01*
X70824264Y-87811315D02*
X70871883Y-87954172D01*
X70871883Y-87954172D02*
X70871883Y-88049410D01*
X70871883Y-88049410D02*
X70824264Y-88192267D01*
X70824264Y-88192267D02*
X70729025Y-88287505D01*
X70729025Y-88287505D02*
X70633787Y-88335124D01*
X70633787Y-88335124D02*
X70443311Y-88382743D01*
X70443311Y-88382743D02*
X70300454Y-88382743D01*
X70300454Y-88382743D02*
X70109978Y-88335124D01*
X70109978Y-88335124D02*
X70014740Y-88287505D01*
X70014740Y-88287505D02*
X69919502Y-88192267D01*
X69919502Y-88192267D02*
X69871883Y-88049410D01*
X69871883Y-88049410D02*
X69871883Y-87954172D01*
X69871883Y-87954172D02*
X69919502Y-87811315D01*
X69919502Y-87811315D02*
X69967121Y-87763696D01*
X70205216Y-86906553D02*
X70871883Y-86906553D01*
X69824264Y-87144648D02*
X70538549Y-87382743D01*
X70538549Y-87382743D02*
X70538549Y-86763696D01*
X69871883Y-85954172D02*
X69871883Y-86144648D01*
X69871883Y-86144648D02*
X69919502Y-86239886D01*
X69919502Y-86239886D02*
X69967121Y-86287505D01*
X69967121Y-86287505D02*
X70109978Y-86382743D01*
X70109978Y-86382743D02*
X70300454Y-86430362D01*
X70300454Y-86430362D02*
X70681406Y-86430362D01*
X70681406Y-86430362D02*
X70776644Y-86382743D01*
X70776644Y-86382743D02*
X70824264Y-86335124D01*
X70824264Y-86335124D02*
X70871883Y-86239886D01*
X70871883Y-86239886D02*
X70871883Y-86049410D01*
X70871883Y-86049410D02*
X70824264Y-85954172D01*
X70824264Y-85954172D02*
X70776644Y-85906553D01*
X70776644Y-85906553D02*
X70681406Y-85858934D01*
X70681406Y-85858934D02*
X70443311Y-85858934D01*
X70443311Y-85858934D02*
X70348073Y-85906553D01*
X70348073Y-85906553D02*
X70300454Y-85954172D01*
X70300454Y-85954172D02*
X70252835Y-86049410D01*
X70252835Y-86049410D02*
X70252835Y-86239886D01*
X70252835Y-86239886D02*
X70300454Y-86335124D01*
X70300454Y-86335124D02*
X70348073Y-86382743D01*
X70348073Y-86382743D02*
X70443311Y-86430362D01*
%TO.C,P6*%
X65977462Y-128426996D02*
X64977462Y-128426996D01*
X64977462Y-128426996D02*
X64977462Y-128046044D01*
X64977462Y-128046044D02*
X65025081Y-127950806D01*
X65025081Y-127950806D02*
X65072700Y-127903187D01*
X65072700Y-127903187D02*
X65167938Y-127855568D01*
X65167938Y-127855568D02*
X65310795Y-127855568D01*
X65310795Y-127855568D02*
X65406033Y-127903187D01*
X65406033Y-127903187D02*
X65453652Y-127950806D01*
X65453652Y-127950806D02*
X65501271Y-128046044D01*
X65501271Y-128046044D02*
X65501271Y-128426996D01*
X64977462Y-126998425D02*
X64977462Y-127188901D01*
X64977462Y-127188901D02*
X65025081Y-127284139D01*
X65025081Y-127284139D02*
X65072700Y-127331758D01*
X65072700Y-127331758D02*
X65215557Y-127426996D01*
X65215557Y-127426996D02*
X65406033Y-127474615D01*
X65406033Y-127474615D02*
X65786985Y-127474615D01*
X65786985Y-127474615D02*
X65882223Y-127426996D01*
X65882223Y-127426996D02*
X65929843Y-127379377D01*
X65929843Y-127379377D02*
X65977462Y-127284139D01*
X65977462Y-127284139D02*
X65977462Y-127093663D01*
X65977462Y-127093663D02*
X65929843Y-126998425D01*
X65929843Y-126998425D02*
X65882223Y-126950806D01*
X65882223Y-126950806D02*
X65786985Y-126903187D01*
X65786985Y-126903187D02*
X65548890Y-126903187D01*
X65548890Y-126903187D02*
X65453652Y-126950806D01*
X65453652Y-126950806D02*
X65406033Y-126998425D01*
X65406033Y-126998425D02*
X65358414Y-127093663D01*
X65358414Y-127093663D02*
X65358414Y-127284139D01*
X65358414Y-127284139D02*
X65406033Y-127379377D01*
X65406033Y-127379377D02*
X65453652Y-127426996D01*
X65453652Y-127426996D02*
X65548890Y-127474615D01*
%TO.C,C47*%
X78176644Y-94603696D02*
X78224264Y-94651315D01*
X78224264Y-94651315D02*
X78271883Y-94794172D01*
X78271883Y-94794172D02*
X78271883Y-94889410D01*
X78271883Y-94889410D02*
X78224264Y-95032267D01*
X78224264Y-95032267D02*
X78129025Y-95127505D01*
X78129025Y-95127505D02*
X78033787Y-95175124D01*
X78033787Y-95175124D02*
X77843311Y-95222743D01*
X77843311Y-95222743D02*
X77700454Y-95222743D01*
X77700454Y-95222743D02*
X77509978Y-95175124D01*
X77509978Y-95175124D02*
X77414740Y-95127505D01*
X77414740Y-95127505D02*
X77319502Y-95032267D01*
X77319502Y-95032267D02*
X77271883Y-94889410D01*
X77271883Y-94889410D02*
X77271883Y-94794172D01*
X77271883Y-94794172D02*
X77319502Y-94651315D01*
X77319502Y-94651315D02*
X77367121Y-94603696D01*
X77605216Y-93746553D02*
X78271883Y-93746553D01*
X77224264Y-93984648D02*
X77938549Y-94222743D01*
X77938549Y-94222743D02*
X77938549Y-93603696D01*
X77271883Y-93317981D02*
X77271883Y-92651315D01*
X77271883Y-92651315D02*
X78271883Y-93079886D01*
%TO.C,R42*%
X61667462Y-98250312D02*
X61191271Y-98583645D01*
X61667462Y-98821740D02*
X60667462Y-98821740D01*
X60667462Y-98821740D02*
X60667462Y-98440788D01*
X60667462Y-98440788D02*
X60715081Y-98345550D01*
X60715081Y-98345550D02*
X60762700Y-98297931D01*
X60762700Y-98297931D02*
X60857938Y-98250312D01*
X60857938Y-98250312D02*
X61000795Y-98250312D01*
X61000795Y-98250312D02*
X61096033Y-98297931D01*
X61096033Y-98297931D02*
X61143652Y-98345550D01*
X61143652Y-98345550D02*
X61191271Y-98440788D01*
X61191271Y-98440788D02*
X61191271Y-98821740D01*
X61000795Y-97393169D02*
X61667462Y-97393169D01*
X60619843Y-97631264D02*
X61334128Y-97869359D01*
X61334128Y-97869359D02*
X61334128Y-97250312D01*
X60762700Y-96916978D02*
X60715081Y-96869359D01*
X60715081Y-96869359D02*
X60667462Y-96774121D01*
X60667462Y-96774121D02*
X60667462Y-96536026D01*
X60667462Y-96536026D02*
X60715081Y-96440788D01*
X60715081Y-96440788D02*
X60762700Y-96393169D01*
X60762700Y-96393169D02*
X60857938Y-96345550D01*
X60857938Y-96345550D02*
X60953176Y-96345550D01*
X60953176Y-96345550D02*
X61096033Y-96393169D01*
X61096033Y-96393169D02*
X61667462Y-96964597D01*
X61667462Y-96964597D02*
X61667462Y-96345550D01*
%TO.C,U2*%
X82086338Y-129525821D02*
X82086338Y-130335344D01*
X82086338Y-130335344D02*
X82133957Y-130430582D01*
X82133957Y-130430582D02*
X82181576Y-130478202D01*
X82181576Y-130478202D02*
X82276814Y-130525821D01*
X82276814Y-130525821D02*
X82467290Y-130525821D01*
X82467290Y-130525821D02*
X82562528Y-130478202D01*
X82562528Y-130478202D02*
X82610147Y-130430582D01*
X82610147Y-130430582D02*
X82657766Y-130335344D01*
X82657766Y-130335344D02*
X82657766Y-129525821D01*
X83086338Y-129621059D02*
X83133957Y-129573440D01*
X83133957Y-129573440D02*
X83229195Y-129525821D01*
X83229195Y-129525821D02*
X83467290Y-129525821D01*
X83467290Y-129525821D02*
X83562528Y-129573440D01*
X83562528Y-129573440D02*
X83610147Y-129621059D01*
X83610147Y-129621059D02*
X83657766Y-129716297D01*
X83657766Y-129716297D02*
X83657766Y-129811535D01*
X83657766Y-129811535D02*
X83610147Y-129954392D01*
X83610147Y-129954392D02*
X83038719Y-130525821D01*
X83038719Y-130525821D02*
X83657766Y-130525821D01*
%TO.C,R30*%
X84736199Y-134126635D02*
X84402866Y-133650444D01*
X84164771Y-134126635D02*
X84164771Y-133126635D01*
X84164771Y-133126635D02*
X84545723Y-133126635D01*
X84545723Y-133126635D02*
X84640961Y-133174254D01*
X84640961Y-133174254D02*
X84688580Y-133221873D01*
X84688580Y-133221873D02*
X84736199Y-133317111D01*
X84736199Y-133317111D02*
X84736199Y-133459968D01*
X84736199Y-133459968D02*
X84688580Y-133555206D01*
X84688580Y-133555206D02*
X84640961Y-133602825D01*
X84640961Y-133602825D02*
X84545723Y-133650444D01*
X84545723Y-133650444D02*
X84164771Y-133650444D01*
X85069533Y-133126635D02*
X85688580Y-133126635D01*
X85688580Y-133126635D02*
X85355247Y-133507587D01*
X85355247Y-133507587D02*
X85498104Y-133507587D01*
X85498104Y-133507587D02*
X85593342Y-133555206D01*
X85593342Y-133555206D02*
X85640961Y-133602825D01*
X85640961Y-133602825D02*
X85688580Y-133698063D01*
X85688580Y-133698063D02*
X85688580Y-133936158D01*
X85688580Y-133936158D02*
X85640961Y-134031396D01*
X85640961Y-134031396D02*
X85593342Y-134079016D01*
X85593342Y-134079016D02*
X85498104Y-134126635D01*
X85498104Y-134126635D02*
X85212390Y-134126635D01*
X85212390Y-134126635D02*
X85117152Y-134079016D01*
X85117152Y-134079016D02*
X85069533Y-134031396D01*
X86307628Y-133126635D02*
X86402866Y-133126635D01*
X86402866Y-133126635D02*
X86498104Y-133174254D01*
X86498104Y-133174254D02*
X86545723Y-133221873D01*
X86545723Y-133221873D02*
X86593342Y-133317111D01*
X86593342Y-133317111D02*
X86640961Y-133507587D01*
X86640961Y-133507587D02*
X86640961Y-133745682D01*
X86640961Y-133745682D02*
X86593342Y-133936158D01*
X86593342Y-133936158D02*
X86545723Y-134031396D01*
X86545723Y-134031396D02*
X86498104Y-134079016D01*
X86498104Y-134079016D02*
X86402866Y-134126635D01*
X86402866Y-134126635D02*
X86307628Y-134126635D01*
X86307628Y-134126635D02*
X86212390Y-134079016D01*
X86212390Y-134079016D02*
X86164771Y-134031396D01*
X86164771Y-134031396D02*
X86117152Y-133936158D01*
X86117152Y-133936158D02*
X86069533Y-133745682D01*
X86069533Y-133745682D02*
X86069533Y-133507587D01*
X86069533Y-133507587D02*
X86117152Y-133317111D01*
X86117152Y-133317111D02*
X86164771Y-133221873D01*
X86164771Y-133221873D02*
X86212390Y-133174254D01*
X86212390Y-133174254D02*
X86307628Y-133126635D01*
%TO.C,R44*%
X68427462Y-107810312D02*
X67951271Y-108143645D01*
X68427462Y-108381740D02*
X67427462Y-108381740D01*
X67427462Y-108381740D02*
X67427462Y-108000788D01*
X67427462Y-108000788D02*
X67475081Y-107905550D01*
X67475081Y-107905550D02*
X67522700Y-107857931D01*
X67522700Y-107857931D02*
X67617938Y-107810312D01*
X67617938Y-107810312D02*
X67760795Y-107810312D01*
X67760795Y-107810312D02*
X67856033Y-107857931D01*
X67856033Y-107857931D02*
X67903652Y-107905550D01*
X67903652Y-107905550D02*
X67951271Y-108000788D01*
X67951271Y-108000788D02*
X67951271Y-108381740D01*
X67760795Y-106953169D02*
X68427462Y-106953169D01*
X67379843Y-107191264D02*
X68094128Y-107429359D01*
X68094128Y-107429359D02*
X68094128Y-106810312D01*
X67760795Y-106000788D02*
X68427462Y-106000788D01*
X67379843Y-106238883D02*
X68094128Y-106476978D01*
X68094128Y-106476978D02*
X68094128Y-105857931D01*
%TO.C,R41*%
X58097462Y-103710312D02*
X57621271Y-104043645D01*
X58097462Y-104281740D02*
X57097462Y-104281740D01*
X57097462Y-104281740D02*
X57097462Y-103900788D01*
X57097462Y-103900788D02*
X57145081Y-103805550D01*
X57145081Y-103805550D02*
X57192700Y-103757931D01*
X57192700Y-103757931D02*
X57287938Y-103710312D01*
X57287938Y-103710312D02*
X57430795Y-103710312D01*
X57430795Y-103710312D02*
X57526033Y-103757931D01*
X57526033Y-103757931D02*
X57573652Y-103805550D01*
X57573652Y-103805550D02*
X57621271Y-103900788D01*
X57621271Y-103900788D02*
X57621271Y-104281740D01*
X57430795Y-102853169D02*
X58097462Y-102853169D01*
X57049843Y-103091264D02*
X57764128Y-103329359D01*
X57764128Y-103329359D02*
X57764128Y-102710312D01*
X58097462Y-101805550D02*
X58097462Y-102376978D01*
X58097462Y-102091264D02*
X57097462Y-102091264D01*
X57097462Y-102091264D02*
X57240319Y-102186502D01*
X57240319Y-102186502D02*
X57335557Y-102281740D01*
X57335557Y-102281740D02*
X57383176Y-102376978D01*
%TO.C,C_Reg1*%
X85152223Y-80217473D02*
X85199843Y-80265092D01*
X85199843Y-80265092D02*
X85247462Y-80407949D01*
X85247462Y-80407949D02*
X85247462Y-80503187D01*
X85247462Y-80503187D02*
X85199843Y-80646044D01*
X85199843Y-80646044D02*
X85104604Y-80741282D01*
X85104604Y-80741282D02*
X85009366Y-80788901D01*
X85009366Y-80788901D02*
X84818890Y-80836520D01*
X84818890Y-80836520D02*
X84676033Y-80836520D01*
X84676033Y-80836520D02*
X84485557Y-80788901D01*
X84485557Y-80788901D02*
X84390319Y-80741282D01*
X84390319Y-80741282D02*
X84295081Y-80646044D01*
X84295081Y-80646044D02*
X84247462Y-80503187D01*
X84247462Y-80503187D02*
X84247462Y-80407949D01*
X84247462Y-80407949D02*
X84295081Y-80265092D01*
X84295081Y-80265092D02*
X84342700Y-80217473D01*
X85342700Y-80026997D02*
X85342700Y-79265092D01*
X85247462Y-78455568D02*
X84771271Y-78788901D01*
X85247462Y-79026996D02*
X84247462Y-79026996D01*
X84247462Y-79026996D02*
X84247462Y-78646044D01*
X84247462Y-78646044D02*
X84295081Y-78550806D01*
X84295081Y-78550806D02*
X84342700Y-78503187D01*
X84342700Y-78503187D02*
X84437938Y-78455568D01*
X84437938Y-78455568D02*
X84580795Y-78455568D01*
X84580795Y-78455568D02*
X84676033Y-78503187D01*
X84676033Y-78503187D02*
X84723652Y-78550806D01*
X84723652Y-78550806D02*
X84771271Y-78646044D01*
X84771271Y-78646044D02*
X84771271Y-79026996D01*
X85199843Y-77646044D02*
X85247462Y-77741282D01*
X85247462Y-77741282D02*
X85247462Y-77931758D01*
X85247462Y-77931758D02*
X85199843Y-78026996D01*
X85199843Y-78026996D02*
X85104604Y-78074615D01*
X85104604Y-78074615D02*
X84723652Y-78074615D01*
X84723652Y-78074615D02*
X84628414Y-78026996D01*
X84628414Y-78026996D02*
X84580795Y-77931758D01*
X84580795Y-77931758D02*
X84580795Y-77741282D01*
X84580795Y-77741282D02*
X84628414Y-77646044D01*
X84628414Y-77646044D02*
X84723652Y-77598425D01*
X84723652Y-77598425D02*
X84818890Y-77598425D01*
X84818890Y-77598425D02*
X84914128Y-78074615D01*
X84580795Y-76741282D02*
X85390319Y-76741282D01*
X85390319Y-76741282D02*
X85485557Y-76788901D01*
X85485557Y-76788901D02*
X85533176Y-76836520D01*
X85533176Y-76836520D02*
X85580795Y-76931758D01*
X85580795Y-76931758D02*
X85580795Y-77074615D01*
X85580795Y-77074615D02*
X85533176Y-77169853D01*
X85199843Y-76741282D02*
X85247462Y-76836520D01*
X85247462Y-76836520D02*
X85247462Y-77026996D01*
X85247462Y-77026996D02*
X85199843Y-77122234D01*
X85199843Y-77122234D02*
X85152223Y-77169853D01*
X85152223Y-77169853D02*
X85056985Y-77217472D01*
X85056985Y-77217472D02*
X84771271Y-77217472D01*
X84771271Y-77217472D02*
X84676033Y-77169853D01*
X84676033Y-77169853D02*
X84628414Y-77122234D01*
X84628414Y-77122234D02*
X84580795Y-77026996D01*
X84580795Y-77026996D02*
X84580795Y-76836520D01*
X84580795Y-76836520D02*
X84628414Y-76741282D01*
X85247462Y-75741282D02*
X85247462Y-76312710D01*
X85247462Y-76026996D02*
X84247462Y-76026996D01*
X84247462Y-76026996D02*
X84390319Y-76122234D01*
X84390319Y-76122234D02*
X84485557Y-76217472D01*
X84485557Y-76217472D02*
X84533176Y-76312710D01*
%TO.C,C7*%
X111107823Y-115737668D02*
X111155443Y-115785287D01*
X111155443Y-115785287D02*
X111203062Y-115928144D01*
X111203062Y-115928144D02*
X111203062Y-116023382D01*
X111203062Y-116023382D02*
X111155443Y-116166239D01*
X111155443Y-116166239D02*
X111060204Y-116261477D01*
X111060204Y-116261477D02*
X110964966Y-116309096D01*
X110964966Y-116309096D02*
X110774490Y-116356715D01*
X110774490Y-116356715D02*
X110631633Y-116356715D01*
X110631633Y-116356715D02*
X110441157Y-116309096D01*
X110441157Y-116309096D02*
X110345919Y-116261477D01*
X110345919Y-116261477D02*
X110250681Y-116166239D01*
X110250681Y-116166239D02*
X110203062Y-116023382D01*
X110203062Y-116023382D02*
X110203062Y-115928144D01*
X110203062Y-115928144D02*
X110250681Y-115785287D01*
X110250681Y-115785287D02*
X110298300Y-115737668D01*
X110203062Y-115404334D02*
X110203062Y-114737668D01*
X110203062Y-114737668D02*
X111203062Y-115166239D01*
%TO.C,C33*%
X72024836Y-69198585D02*
X71977217Y-69246205D01*
X71977217Y-69246205D02*
X71834360Y-69293824D01*
X71834360Y-69293824D02*
X71739122Y-69293824D01*
X71739122Y-69293824D02*
X71596265Y-69246205D01*
X71596265Y-69246205D02*
X71501027Y-69150966D01*
X71501027Y-69150966D02*
X71453408Y-69055728D01*
X71453408Y-69055728D02*
X71405789Y-68865252D01*
X71405789Y-68865252D02*
X71405789Y-68722395D01*
X71405789Y-68722395D02*
X71453408Y-68531919D01*
X71453408Y-68531919D02*
X71501027Y-68436681D01*
X71501027Y-68436681D02*
X71596265Y-68341443D01*
X71596265Y-68341443D02*
X71739122Y-68293824D01*
X71739122Y-68293824D02*
X71834360Y-68293824D01*
X71834360Y-68293824D02*
X71977217Y-68341443D01*
X71977217Y-68341443D02*
X72024836Y-68389062D01*
X72358170Y-68293824D02*
X72977217Y-68293824D01*
X72977217Y-68293824D02*
X72643884Y-68674776D01*
X72643884Y-68674776D02*
X72786741Y-68674776D01*
X72786741Y-68674776D02*
X72881979Y-68722395D01*
X72881979Y-68722395D02*
X72929598Y-68770014D01*
X72929598Y-68770014D02*
X72977217Y-68865252D01*
X72977217Y-68865252D02*
X72977217Y-69103347D01*
X72977217Y-69103347D02*
X72929598Y-69198585D01*
X72929598Y-69198585D02*
X72881979Y-69246205D01*
X72881979Y-69246205D02*
X72786741Y-69293824D01*
X72786741Y-69293824D02*
X72501027Y-69293824D01*
X72501027Y-69293824D02*
X72405789Y-69246205D01*
X72405789Y-69246205D02*
X72358170Y-69198585D01*
X73310551Y-68293824D02*
X73929598Y-68293824D01*
X73929598Y-68293824D02*
X73596265Y-68674776D01*
X73596265Y-68674776D02*
X73739122Y-68674776D01*
X73739122Y-68674776D02*
X73834360Y-68722395D01*
X73834360Y-68722395D02*
X73881979Y-68770014D01*
X73881979Y-68770014D02*
X73929598Y-68865252D01*
X73929598Y-68865252D02*
X73929598Y-69103347D01*
X73929598Y-69103347D02*
X73881979Y-69198585D01*
X73881979Y-69198585D02*
X73834360Y-69246205D01*
X73834360Y-69246205D02*
X73739122Y-69293824D01*
X73739122Y-69293824D02*
X73453408Y-69293824D01*
X73453408Y-69293824D02*
X73358170Y-69246205D01*
X73358170Y-69246205D02*
X73310551Y-69198585D01*
%TO.C,R47*%
X56059785Y-119052274D02*
X55726452Y-118576083D01*
X55488357Y-119052274D02*
X55488357Y-118052274D01*
X55488357Y-118052274D02*
X55869309Y-118052274D01*
X55869309Y-118052274D02*
X55964547Y-118099893D01*
X55964547Y-118099893D02*
X56012166Y-118147512D01*
X56012166Y-118147512D02*
X56059785Y-118242750D01*
X56059785Y-118242750D02*
X56059785Y-118385607D01*
X56059785Y-118385607D02*
X56012166Y-118480845D01*
X56012166Y-118480845D02*
X55964547Y-118528464D01*
X55964547Y-118528464D02*
X55869309Y-118576083D01*
X55869309Y-118576083D02*
X55488357Y-118576083D01*
X56916928Y-118385607D02*
X56916928Y-119052274D01*
X56678833Y-118004655D02*
X56440738Y-118718940D01*
X56440738Y-118718940D02*
X57059785Y-118718940D01*
X57345500Y-118052274D02*
X58012166Y-118052274D01*
X58012166Y-118052274D02*
X57583595Y-119052274D01*
%TO.C,C_AFB1*%
X76250595Y-83324358D02*
X76202976Y-83371978D01*
X76202976Y-83371978D02*
X76060119Y-83419597D01*
X76060119Y-83419597D02*
X75964881Y-83419597D01*
X75964881Y-83419597D02*
X75822024Y-83371978D01*
X75822024Y-83371978D02*
X75726786Y-83276739D01*
X75726786Y-83276739D02*
X75679167Y-83181501D01*
X75679167Y-83181501D02*
X75631548Y-82991025D01*
X75631548Y-82991025D02*
X75631548Y-82848168D01*
X75631548Y-82848168D02*
X75679167Y-82657692D01*
X75679167Y-82657692D02*
X75726786Y-82562454D01*
X75726786Y-82562454D02*
X75822024Y-82467216D01*
X75822024Y-82467216D02*
X75964881Y-82419597D01*
X75964881Y-82419597D02*
X76060119Y-82419597D01*
X76060119Y-82419597D02*
X76202976Y-82467216D01*
X76202976Y-82467216D02*
X76250595Y-82514835D01*
X76441072Y-83514835D02*
X77202976Y-83514835D01*
X77393453Y-83133882D02*
X77869643Y-83133882D01*
X77298215Y-83419597D02*
X77631548Y-82419597D01*
X77631548Y-82419597D02*
X77964881Y-83419597D01*
X78631548Y-82895787D02*
X78298215Y-82895787D01*
X78298215Y-83419597D02*
X78298215Y-82419597D01*
X78298215Y-82419597D02*
X78774405Y-82419597D01*
X79488691Y-82895787D02*
X79631548Y-82943406D01*
X79631548Y-82943406D02*
X79679167Y-82991025D01*
X79679167Y-82991025D02*
X79726786Y-83086263D01*
X79726786Y-83086263D02*
X79726786Y-83229120D01*
X79726786Y-83229120D02*
X79679167Y-83324358D01*
X79679167Y-83324358D02*
X79631548Y-83371978D01*
X79631548Y-83371978D02*
X79536310Y-83419597D01*
X79536310Y-83419597D02*
X79155358Y-83419597D01*
X79155358Y-83419597D02*
X79155358Y-82419597D01*
X79155358Y-82419597D02*
X79488691Y-82419597D01*
X79488691Y-82419597D02*
X79583929Y-82467216D01*
X79583929Y-82467216D02*
X79631548Y-82514835D01*
X79631548Y-82514835D02*
X79679167Y-82610073D01*
X79679167Y-82610073D02*
X79679167Y-82705311D01*
X79679167Y-82705311D02*
X79631548Y-82800549D01*
X79631548Y-82800549D02*
X79583929Y-82848168D01*
X79583929Y-82848168D02*
X79488691Y-82895787D01*
X79488691Y-82895787D02*
X79155358Y-82895787D01*
X80679167Y-83419597D02*
X80107739Y-83419597D01*
X80393453Y-83419597D02*
X80393453Y-82419597D01*
X80393453Y-82419597D02*
X80298215Y-82562454D01*
X80298215Y-82562454D02*
X80202977Y-82657692D01*
X80202977Y-82657692D02*
X80107739Y-82705311D01*
%TO.C,O2*%
X35893119Y-92943721D02*
X35893119Y-91943721D01*
X35893119Y-91943721D02*
X36226452Y-92658006D01*
X36226452Y-92658006D02*
X36559785Y-91943721D01*
X36559785Y-91943721D02*
X36559785Y-92943721D01*
X37178833Y-92943721D02*
X37083595Y-92896102D01*
X37083595Y-92896102D02*
X37035976Y-92848482D01*
X37035976Y-92848482D02*
X36988357Y-92753244D01*
X36988357Y-92753244D02*
X36988357Y-92467530D01*
X36988357Y-92467530D02*
X37035976Y-92372292D01*
X37035976Y-92372292D02*
X37083595Y-92324673D01*
X37083595Y-92324673D02*
X37178833Y-92277054D01*
X37178833Y-92277054D02*
X37321690Y-92277054D01*
X37321690Y-92277054D02*
X37416928Y-92324673D01*
X37416928Y-92324673D02*
X37464547Y-92372292D01*
X37464547Y-92372292D02*
X37512166Y-92467530D01*
X37512166Y-92467530D02*
X37512166Y-92753244D01*
X37512166Y-92753244D02*
X37464547Y-92848482D01*
X37464547Y-92848482D02*
X37416928Y-92896102D01*
X37416928Y-92896102D02*
X37321690Y-92943721D01*
X37321690Y-92943721D02*
X37178833Y-92943721D01*
X38369309Y-92943721D02*
X38369309Y-91943721D01*
X38369309Y-92896102D02*
X38274071Y-92943721D01*
X38274071Y-92943721D02*
X38083595Y-92943721D01*
X38083595Y-92943721D02*
X37988357Y-92896102D01*
X37988357Y-92896102D02*
X37940738Y-92848482D01*
X37940738Y-92848482D02*
X37893119Y-92753244D01*
X37893119Y-92753244D02*
X37893119Y-92467530D01*
X37893119Y-92467530D02*
X37940738Y-92372292D01*
X37940738Y-92372292D02*
X37988357Y-92324673D01*
X37988357Y-92324673D02*
X38083595Y-92277054D01*
X38083595Y-92277054D02*
X38274071Y-92277054D01*
X38274071Y-92277054D02*
X38369309Y-92324673D01*
X39607405Y-92943721D02*
X39607405Y-91943721D01*
X40083595Y-92277054D02*
X40083595Y-92943721D01*
X40083595Y-92372292D02*
X40131214Y-92324673D01*
X40131214Y-92324673D02*
X40226452Y-92277054D01*
X40226452Y-92277054D02*
X40369309Y-92277054D01*
X40369309Y-92277054D02*
X40464547Y-92324673D01*
X40464547Y-92324673D02*
X40512166Y-92419911D01*
X40512166Y-92419911D02*
X40512166Y-92943721D01*
%TO.C,P1*%
X105173888Y-55364496D02*
X104173888Y-55364496D01*
X104173888Y-55364496D02*
X104173888Y-54983544D01*
X104173888Y-54983544D02*
X104221507Y-54888306D01*
X104221507Y-54888306D02*
X104269126Y-54840687D01*
X104269126Y-54840687D02*
X104364364Y-54793068D01*
X104364364Y-54793068D02*
X104507221Y-54793068D01*
X104507221Y-54793068D02*
X104602459Y-54840687D01*
X104602459Y-54840687D02*
X104650078Y-54888306D01*
X104650078Y-54888306D02*
X104697697Y-54983544D01*
X104697697Y-54983544D02*
X104697697Y-55364496D01*
X105173888Y-53840687D02*
X105173888Y-54412115D01*
X105173888Y-54126401D02*
X104173888Y-54126401D01*
X104173888Y-54126401D02*
X104316745Y-54221639D01*
X104316745Y-54221639D02*
X104411983Y-54316877D01*
X104411983Y-54316877D02*
X104459602Y-54412115D01*
%TO.C,R52*%
X70479545Y-77933721D02*
X70146212Y-77457530D01*
X69908117Y-77933721D02*
X69908117Y-76933721D01*
X69908117Y-76933721D02*
X70289069Y-76933721D01*
X70289069Y-76933721D02*
X70384307Y-76981340D01*
X70384307Y-76981340D02*
X70431926Y-77028959D01*
X70431926Y-77028959D02*
X70479545Y-77124197D01*
X70479545Y-77124197D02*
X70479545Y-77267054D01*
X70479545Y-77267054D02*
X70431926Y-77362292D01*
X70431926Y-77362292D02*
X70384307Y-77409911D01*
X70384307Y-77409911D02*
X70289069Y-77457530D01*
X70289069Y-77457530D02*
X69908117Y-77457530D01*
X71384307Y-76933721D02*
X70908117Y-76933721D01*
X70908117Y-76933721D02*
X70860498Y-77409911D01*
X70860498Y-77409911D02*
X70908117Y-77362292D01*
X70908117Y-77362292D02*
X71003355Y-77314673D01*
X71003355Y-77314673D02*
X71241450Y-77314673D01*
X71241450Y-77314673D02*
X71336688Y-77362292D01*
X71336688Y-77362292D02*
X71384307Y-77409911D01*
X71384307Y-77409911D02*
X71431926Y-77505149D01*
X71431926Y-77505149D02*
X71431926Y-77743244D01*
X71431926Y-77743244D02*
X71384307Y-77838482D01*
X71384307Y-77838482D02*
X71336688Y-77886102D01*
X71336688Y-77886102D02*
X71241450Y-77933721D01*
X71241450Y-77933721D02*
X71003355Y-77933721D01*
X71003355Y-77933721D02*
X70908117Y-77886102D01*
X70908117Y-77886102D02*
X70860498Y-77838482D01*
X71812879Y-77028959D02*
X71860498Y-76981340D01*
X71860498Y-76981340D02*
X71955736Y-76933721D01*
X71955736Y-76933721D02*
X72193831Y-76933721D01*
X72193831Y-76933721D02*
X72289069Y-76981340D01*
X72289069Y-76981340D02*
X72336688Y-77028959D01*
X72336688Y-77028959D02*
X72384307Y-77124197D01*
X72384307Y-77124197D02*
X72384307Y-77219435D01*
X72384307Y-77219435D02*
X72336688Y-77362292D01*
X72336688Y-77362292D02*
X71765260Y-77933721D01*
X71765260Y-77933721D02*
X72384307Y-77933721D01*
%TO.C,R15*%
X105074785Y-95188721D02*
X104741452Y-94712530D01*
X104503357Y-95188721D02*
X104503357Y-94188721D01*
X104503357Y-94188721D02*
X104884309Y-94188721D01*
X104884309Y-94188721D02*
X104979547Y-94236340D01*
X104979547Y-94236340D02*
X105027166Y-94283959D01*
X105027166Y-94283959D02*
X105074785Y-94379197D01*
X105074785Y-94379197D02*
X105074785Y-94522054D01*
X105074785Y-94522054D02*
X105027166Y-94617292D01*
X105027166Y-94617292D02*
X104979547Y-94664911D01*
X104979547Y-94664911D02*
X104884309Y-94712530D01*
X104884309Y-94712530D02*
X104503357Y-94712530D01*
X106027166Y-95188721D02*
X105455738Y-95188721D01*
X105741452Y-95188721D02*
X105741452Y-94188721D01*
X105741452Y-94188721D02*
X105646214Y-94331578D01*
X105646214Y-94331578D02*
X105550976Y-94426816D01*
X105550976Y-94426816D02*
X105455738Y-94474435D01*
X106931928Y-94188721D02*
X106455738Y-94188721D01*
X106455738Y-94188721D02*
X106408119Y-94664911D01*
X106408119Y-94664911D02*
X106455738Y-94617292D01*
X106455738Y-94617292D02*
X106550976Y-94569673D01*
X106550976Y-94569673D02*
X106789071Y-94569673D01*
X106789071Y-94569673D02*
X106884309Y-94617292D01*
X106884309Y-94617292D02*
X106931928Y-94664911D01*
X106931928Y-94664911D02*
X106979547Y-94760149D01*
X106979547Y-94760149D02*
X106979547Y-94998244D01*
X106979547Y-94998244D02*
X106931928Y-95093482D01*
X106931928Y-95093482D02*
X106884309Y-95141102D01*
X106884309Y-95141102D02*
X106789071Y-95188721D01*
X106789071Y-95188721D02*
X106550976Y-95188721D01*
X106550976Y-95188721D02*
X106455738Y-95141102D01*
X106455738Y-95141102D02*
X106408119Y-95093482D01*
%TO.C,P5*%
X90949566Y-107255821D02*
X90949566Y-106255821D01*
X90949566Y-106255821D02*
X91330518Y-106255821D01*
X91330518Y-106255821D02*
X91425756Y-106303440D01*
X91425756Y-106303440D02*
X91473375Y-106351059D01*
X91473375Y-106351059D02*
X91520994Y-106446297D01*
X91520994Y-106446297D02*
X91520994Y-106589154D01*
X91520994Y-106589154D02*
X91473375Y-106684392D01*
X91473375Y-106684392D02*
X91425756Y-106732011D01*
X91425756Y-106732011D02*
X91330518Y-106779630D01*
X91330518Y-106779630D02*
X90949566Y-106779630D01*
X92425756Y-106255821D02*
X91949566Y-106255821D01*
X91949566Y-106255821D02*
X91901947Y-106732011D01*
X91901947Y-106732011D02*
X91949566Y-106684392D01*
X91949566Y-106684392D02*
X92044804Y-106636773D01*
X92044804Y-106636773D02*
X92282899Y-106636773D01*
X92282899Y-106636773D02*
X92378137Y-106684392D01*
X92378137Y-106684392D02*
X92425756Y-106732011D01*
X92425756Y-106732011D02*
X92473375Y-106827249D01*
X92473375Y-106827249D02*
X92473375Y-107065344D01*
X92473375Y-107065344D02*
X92425756Y-107160582D01*
X92425756Y-107160582D02*
X92378137Y-107208202D01*
X92378137Y-107208202D02*
X92282899Y-107255821D01*
X92282899Y-107255821D02*
X92044804Y-107255821D01*
X92044804Y-107255821D02*
X91949566Y-107208202D01*
X91949566Y-107208202D02*
X91901947Y-107160582D01*
D13*
%TO.C,C6*%
X92478913Y-116581002D02*
X91056409Y-116581002D01*
X92478913Y-114761002D02*
X91056409Y-114761002D01*
%TO.C,C49*%
X94640202Y-75266138D02*
X94640202Y-73843634D01*
X96460202Y-75266138D02*
X96460202Y-73843634D01*
%TO.C,FB8*%
X74998895Y-86208902D02*
X74476391Y-86208902D01*
X74998895Y-84788902D02*
X74476391Y-84788902D01*
%TO.C,R51*%
X93394725Y-127081002D02*
X91940597Y-127081002D01*
X93394725Y-125261002D02*
X91940597Y-125261002D01*
%TO.C,C28*%
X120682217Y-84277408D02*
X119259713Y-84277408D01*
X120682217Y-82457408D02*
X119259713Y-82457408D01*
%TO.C,C24*%
X80606121Y-95365216D02*
X80606121Y-95072682D01*
X81626121Y-95365216D02*
X81626121Y-95072682D01*
%TO.C,R12*%
X96165597Y-114761002D02*
X97619725Y-114761002D01*
X96165597Y-116581002D02*
X97619725Y-116581002D01*
%TO.C,R50*%
X75959564Y-90018063D02*
X75959564Y-89508615D01*
X77004564Y-90018063D02*
X77004564Y-89508615D01*
%TO.C,C44*%
X132600312Y-92635323D02*
X134022816Y-92635323D01*
X132600312Y-94455323D02*
X134022816Y-94455323D01*
%TO.C,P8*%
X68012643Y-104228902D02*
X72012643Y-104228902D01*
X66982643Y-103938902D02*
X73002643Y-103938902D01*
X73002643Y-103938902D02*
X73002643Y-98638902D01*
X66982643Y-103358902D02*
X67582643Y-103358902D01*
X67582643Y-103358902D02*
X67582643Y-101758902D01*
X72002643Y-102558902D02*
X71472643Y-102308902D01*
X72002643Y-102558902D02*
X72002643Y-100018902D01*
X73002643Y-102558902D02*
X72002643Y-102558902D01*
X71472643Y-102308902D02*
X71472643Y-100268902D01*
X73002643Y-102308902D02*
X72002643Y-102308902D01*
X67582643Y-101758902D02*
X66982643Y-101758902D01*
X66982643Y-100818902D02*
X67582643Y-100818902D01*
X67582643Y-100818902D02*
X67582643Y-99218902D01*
X71472643Y-100268902D02*
X72002643Y-100018902D01*
X73002643Y-100268902D02*
X72002643Y-100268902D01*
X72002643Y-100018902D02*
X73002643Y-100018902D01*
X67582643Y-99218902D02*
X66982643Y-99218902D01*
X66982643Y-98638902D02*
X66982643Y-103938902D01*
X73002643Y-98638902D02*
X66982643Y-98638902D01*
%TO.C,R18*%
X91219725Y-132781002D02*
X89765597Y-132781002D01*
X91219725Y-130961002D02*
X89765597Y-130961002D01*
%TO.C,D2*%
X101234069Y-62708902D02*
X103504069Y-62708902D01*
X103504069Y-62708902D02*
X103504069Y-58648902D01*
X101234069Y-58648902D02*
X101234069Y-62708902D01*
%TO.C,R33*%
X119415579Y-79428902D02*
X120869707Y-79428902D01*
X119415579Y-81248902D02*
X120869707Y-81248902D01*
%TO.C,D16*%
X70297403Y-66181402D02*
X72567403Y-66181402D01*
X72567403Y-66181402D02*
X72567403Y-62121402D01*
X70297403Y-62121402D02*
X70297403Y-66181402D01*
%TO.C,P4*%
X110127661Y-112946002D02*
X110127661Y-108946002D01*
X109837661Y-113976002D02*
X109837661Y-107956002D01*
X109837661Y-107956002D02*
X104537661Y-107956002D01*
X109257661Y-113976002D02*
X109257661Y-113376002D01*
X109257661Y-113376002D02*
X107657661Y-113376002D01*
X108457661Y-108956002D02*
X108207661Y-109486002D01*
X108457661Y-108956002D02*
X105917661Y-108956002D01*
X108457661Y-107956002D02*
X108457661Y-108956002D01*
X108207661Y-109486002D02*
X106167661Y-109486002D01*
X108207661Y-107956002D02*
X108207661Y-108956002D01*
X107657661Y-113376002D02*
X107657661Y-113976002D01*
X106717661Y-113976002D02*
X106717661Y-113376002D01*
X106717661Y-113376002D02*
X105117661Y-113376002D01*
X106167661Y-109486002D02*
X105917661Y-108956002D01*
X106167661Y-107956002D02*
X106167661Y-108956002D01*
X105917661Y-108956002D02*
X105917661Y-107956002D01*
X105117661Y-113376002D02*
X105117661Y-113976002D01*
X104537661Y-113976002D02*
X109837661Y-113976002D01*
X104537661Y-107956002D02*
X104537661Y-113976002D01*
%TO.C,C48*%
X77802643Y-76542635D02*
X77802643Y-76835169D01*
X76782643Y-76542635D02*
X76782643Y-76835169D01*
%TO.C,P7*%
X64362643Y-141733902D02*
X68362643Y-141733902D01*
X63332643Y-141443902D02*
X69352643Y-141443902D01*
X69352643Y-141443902D02*
X69352643Y-133603902D01*
X63332643Y-140863902D02*
X63932643Y-140863902D01*
X63932643Y-140863902D02*
X63932643Y-139263902D01*
X68352643Y-140063902D02*
X67822643Y-139813902D01*
X68352643Y-140063902D02*
X68352643Y-134983902D01*
X69352643Y-140063902D02*
X68352643Y-140063902D01*
X67822643Y-139813902D02*
X67822643Y-135233902D01*
X69352643Y-139813902D02*
X68352643Y-139813902D01*
X63932643Y-139263902D02*
X63332643Y-139263902D01*
X63332643Y-138323902D02*
X63932643Y-138323902D01*
X63932643Y-138323902D02*
X63932643Y-136723902D01*
X63932643Y-136723902D02*
X63332643Y-136723902D01*
X63332643Y-135783902D02*
X63932643Y-135783902D01*
X63932643Y-135783902D02*
X63932643Y-134183902D01*
X67822643Y-135233902D02*
X68352643Y-134983902D01*
X69352643Y-135233902D02*
X68352643Y-135233902D01*
X68352643Y-134983902D02*
X69352643Y-134983902D01*
X63932643Y-134183902D02*
X63332643Y-134183902D01*
X63332643Y-133603902D02*
X63332643Y-141443902D01*
X69352643Y-133603902D02*
X63332643Y-133603902D01*
%TO.C,C27*%
X115452862Y-88788660D02*
X115452862Y-87366156D01*
X117272862Y-88788660D02*
X117272862Y-87366156D01*
%TO.C,Q1*%
X58907643Y-138668902D02*
X58907643Y-138398902D01*
X58907643Y-138398902D02*
X61737643Y-138398902D01*
X58907643Y-132038902D02*
X60007643Y-132038902D01*
X58907643Y-131768902D02*
X58907643Y-132038902D01*
X52487643Y-138668902D02*
X58907643Y-138668902D01*
X52487643Y-131768902D02*
X58907643Y-131768902D01*
%TO.C,R19*%
X45482643Y-137515966D02*
X45482643Y-136061838D01*
X47302643Y-137515966D02*
X47302643Y-136061838D01*
%TO.C,FB7*%
X73358307Y-94930445D02*
X73880811Y-94930445D01*
X73358307Y-96350445D02*
X73880811Y-96350445D01*
D14*
%TO.C,U$1*%
X67981403Y-76073902D02*
G75*
G03*
X67981403Y-76073902I-125000J0D01*
G01*
D13*
%TO.C,R7*%
X112819725Y-128031002D02*
X111365597Y-128031002D01*
X112819725Y-126211002D02*
X111365597Y-126211002D01*
%TO.C,R37*%
X60165579Y-85178902D02*
X61619707Y-85178902D01*
X60165579Y-86998902D02*
X61619707Y-86998902D01*
%TO.C,R21*%
X83897367Y-96611402D02*
X83387919Y-96611402D01*
X83897367Y-95566402D02*
X83387919Y-95566402D01*
%TO.C,U4*%
X59587643Y-109282455D02*
X59587643Y-105832455D01*
X59587643Y-109282455D02*
X59587643Y-111232455D01*
X54467643Y-109282455D02*
X54467643Y-107332455D01*
X54467643Y-109282455D02*
X54467643Y-111232455D01*
%TO.C,C39*%
X71875826Y-94450445D02*
X71583292Y-94450445D01*
X71875826Y-93430445D02*
X71583292Y-93430445D01*
%TO.C,R23*%
X75660775Y-131510166D02*
X73874775Y-131510166D01*
X75660775Y-131510166D02*
X75660775Y-138460166D01*
X72884775Y-131510166D02*
X70920775Y-131510166D01*
X70920775Y-131510166D02*
X70920775Y-138460166D01*
X75660775Y-138460166D02*
X73874775Y-138460166D01*
X72884775Y-138460166D02*
X70920775Y-138460166D01*
D11*
%TO.C,FL1*%
X46414790Y-63030359D02*
X46215033Y-62830601D01*
X46414790Y-63030359D02*
X46146090Y-63299059D01*
X47171394Y-62287897D02*
X46902694Y-62556597D01*
X46902694Y-62556597D02*
X46701168Y-62355072D01*
X46255691Y-63408661D02*
X46149625Y-63302595D01*
X47277461Y-62393963D02*
X47171394Y-62287897D01*
X47691118Y-64844088D02*
X47585052Y-64738022D01*
X48716423Y-63832925D02*
X48610357Y-63726859D01*
X48719958Y-63836461D02*
X48451258Y-64105161D01*
X47970425Y-64585994D02*
X47701725Y-64854694D01*
X48651015Y-64304919D02*
X48451258Y-64105161D01*
X48177254Y-64778680D02*
X47977496Y-64578923D01*
D15*
X47203214Y-63196529D02*
X47344636Y-63337950D01*
X47344636Y-63337950D02*
X47203214Y-63479372D01*
X47203214Y-63479372D02*
X47061793Y-63337950D01*
X47061793Y-63337950D02*
X47203214Y-63196529D01*
D13*
%TO.C,C2*%
X91284402Y-84835495D02*
X91284402Y-85128029D01*
X90264402Y-84835495D02*
X90264402Y-85128029D01*
%TO.C,R43*%
X64375804Y-106136664D02*
X64375804Y-107590792D01*
X62555804Y-106136664D02*
X62555804Y-107590792D01*
%TO.C,D14*%
X65217403Y-66181402D02*
X67487403Y-66181402D01*
X67487403Y-66181402D02*
X67487403Y-62121402D01*
X65217403Y-62121402D02*
X65217403Y-66181402D01*
D16*
%TO.C,IC1*%
X97817643Y-88683902D02*
X96317643Y-88683902D01*
X96317643Y-88683902D02*
X97817643Y-90183902D01*
X97817643Y-90183902D02*
X97817643Y-88683902D01*
D14*
X95967643Y-93183902D02*
G75*
G03*
X95967643Y-93183902I-150000J0D01*
G01*
D13*
%TO.C,D11*%
X57597403Y-66181402D02*
X59867403Y-66181402D01*
X59867403Y-66181402D02*
X59867403Y-62121402D01*
X57597403Y-62121402D02*
X57597403Y-66181402D01*
%TO.C,R36*%
X125665579Y-76678902D02*
X127119707Y-76678902D01*
X125665579Y-78498902D02*
X127119707Y-78498902D01*
%TO.C,C38*%
X80602643Y-75042635D02*
X80602643Y-75335169D01*
X79582643Y-75042635D02*
X79582643Y-75335169D01*
%TO.C,R13*%
X102919725Y-116606002D02*
X101465597Y-116606002D01*
X102919725Y-114786002D02*
X101465597Y-114786002D01*
%TO.C,R40*%
X76769707Y-100698902D02*
X75315579Y-100698902D01*
X76769707Y-98878902D02*
X75315579Y-98878902D01*
%TO.C,R24*%
X112019614Y-85649098D02*
X113473742Y-85649098D01*
X112019614Y-87469098D02*
X113473742Y-87469098D01*
%TO.C,U1*%
X99667661Y-129331002D02*
X103117661Y-129331002D01*
X99667661Y-129331002D02*
X97717661Y-129331002D01*
X99667661Y-120461002D02*
X101617661Y-120461002D01*
X99667661Y-120461002D02*
X97717661Y-120461002D01*
%TO.C,R11*%
X102619725Y-135281002D02*
X101165597Y-135281002D01*
X102619725Y-133461002D02*
X101165597Y-133461002D01*
%TO.C,C4*%
X100627643Y-89597635D02*
X100627643Y-89890169D01*
X99607643Y-89597635D02*
X99607643Y-89890169D01*
%TO.C,R9*%
X108082225Y-119056002D02*
X106628097Y-119056002D01*
X108082225Y-117236002D02*
X106628097Y-117236002D01*
%TO.C,C41*%
X78108876Y-84978902D02*
X78401410Y-84978902D01*
X78108876Y-85998902D02*
X78401410Y-85998902D01*
%TO.C,O3*%
X41802643Y-110188902D02*
X42302643Y-109938902D01*
X42302643Y-109938902D02*
X42302643Y-110438902D01*
X42302643Y-110438902D02*
X41802643Y-110188902D01*
%TO.C,D7*%
X88548359Y-62708902D02*
X90818359Y-62708902D01*
X90818359Y-62708902D02*
X90818359Y-58648902D01*
X88548359Y-58648902D02*
X88548359Y-62708902D01*
%TO.C,D12*%
X60137403Y-66181402D02*
X62407403Y-66181402D01*
X62407403Y-66181402D02*
X62407403Y-62121402D01*
X60137403Y-62121402D02*
X60137403Y-66181402D01*
%TO.C,R2*%
X95337372Y-85689227D02*
X95337372Y-85179779D01*
X96382372Y-85689227D02*
X96382372Y-85179779D01*
%TO.C,R1*%
X107672643Y-83053902D02*
X105886643Y-83053902D01*
X107672643Y-83053902D02*
X107672643Y-90003902D01*
X104896643Y-83053902D02*
X102932643Y-83053902D01*
X102932643Y-83053902D02*
X102932643Y-90003902D01*
X107672643Y-90003902D02*
X105886643Y-90003902D01*
X104896643Y-90003902D02*
X102932643Y-90003902D01*
%TO.C,P2*%
X112572661Y-128611002D02*
X108572661Y-128611002D01*
X113602661Y-128901002D02*
X107582661Y-128901002D01*
X107582661Y-128901002D02*
X107582661Y-134201002D01*
X113602661Y-129481002D02*
X113002661Y-129481002D01*
X113002661Y-129481002D02*
X113002661Y-131081002D01*
X108582661Y-130281002D02*
X109112661Y-130531002D01*
X108582661Y-130281002D02*
X108582661Y-132821002D01*
X107582661Y-130281002D02*
X108582661Y-130281002D01*
X109112661Y-130531002D02*
X109112661Y-132571002D01*
X107582661Y-130531002D02*
X108582661Y-130531002D01*
X113002661Y-131081002D02*
X113602661Y-131081002D01*
X113602661Y-132021002D02*
X113002661Y-132021002D01*
X113002661Y-132021002D02*
X113002661Y-133621002D01*
X109112661Y-132571002D02*
X108582661Y-132821002D01*
X107582661Y-132571002D02*
X108582661Y-132571002D01*
X108582661Y-132821002D02*
X107582661Y-132821002D01*
X113002661Y-133621002D02*
X113602661Y-133621002D01*
X113602661Y-134201002D02*
X113602661Y-128901002D01*
X107582661Y-134201002D02*
X113602661Y-134201002D01*
%TO.C,C22*%
X95336699Y-102544093D02*
X95336699Y-102251559D01*
X96356699Y-102544093D02*
X96356699Y-102251559D01*
%TO.C,D9*%
X83474069Y-62708902D02*
X85744069Y-62708902D01*
X85744069Y-62708902D02*
X85744069Y-58648902D01*
X83474069Y-58648902D02*
X83474069Y-62708902D01*
%TO.C,R14*%
X95227661Y-129593938D02*
X95227661Y-131048066D01*
X93407661Y-129593938D02*
X93407661Y-131048066D01*
%TO.C,R16*%
X97030077Y-100424111D02*
X96520629Y-100424111D01*
X97030077Y-99379111D02*
X96520629Y-99379111D01*
%TO.C,R20*%
X85620143Y-95443626D02*
X85620143Y-94934178D01*
X86665143Y-95443626D02*
X86665143Y-94934178D01*
%TO.C,R22*%
X85347367Y-93261402D02*
X84837919Y-93261402D01*
X85347367Y-92216402D02*
X84837919Y-92216402D01*
%TO.C,R45*%
X61967643Y-106135391D02*
X61967643Y-107589519D01*
X60147643Y-106135391D02*
X60147643Y-107589519D01*
D17*
%TO.C,X3*%
X244897643Y-56413902D02*
X244897643Y-55778902D01*
X244897643Y-67589902D02*
X244897643Y-56413902D01*
X244897643Y-67589902D02*
X248199643Y-67589902D01*
X244897643Y-74447902D02*
X248199643Y-74447902D01*
X244897643Y-75463902D02*
X244897643Y-74447902D01*
X244897643Y-75463902D02*
X247317643Y-75463902D01*
X244897643Y-76733902D02*
X244897643Y-75463902D01*
X244897643Y-76733902D02*
X247392643Y-76738902D01*
X244897643Y-77749902D02*
X244897643Y-76733902D01*
X244897643Y-77749902D02*
X248199643Y-77749902D01*
X244897643Y-84607902D02*
X248199643Y-84607902D01*
X244897643Y-85623902D02*
X244897643Y-84607902D01*
X244897643Y-85623902D02*
X247392643Y-85623902D01*
X244897643Y-86893902D02*
X244897643Y-85623902D01*
X244897643Y-86893902D02*
X247417643Y-86893902D01*
X244897643Y-87909902D02*
X244897643Y-86893902D01*
X244897643Y-87909902D02*
X244897643Y-89306902D01*
X244897643Y-87909902D02*
X248199643Y-87909902D01*
X244897643Y-94767902D02*
X248199643Y-94767902D01*
X244897643Y-95783902D02*
X244897643Y-94767902D01*
X244897643Y-95783902D02*
X247417643Y-95783902D01*
X244897643Y-97053902D02*
X244897643Y-95783902D01*
X244897643Y-97053902D02*
X247442643Y-97053902D01*
X244897643Y-98069902D02*
X244897643Y-97053902D01*
X244897643Y-98069902D02*
X248199643Y-98069902D01*
X244897643Y-104927902D02*
X248199643Y-104927902D01*
X244897643Y-105943902D02*
X244897643Y-104927902D01*
X244897643Y-105943902D02*
X247417643Y-105943902D01*
X244897643Y-107213902D02*
X244897643Y-105943902D01*
X244897643Y-107213902D02*
X247417643Y-107213902D01*
X244897643Y-108229902D02*
X244897643Y-107213902D01*
X244897643Y-108229902D02*
X248199643Y-108229902D01*
X244897643Y-115087902D02*
X248199643Y-115087902D01*
X244897643Y-116103902D02*
X244897643Y-115087902D01*
X244897643Y-116103902D02*
X247392643Y-116103902D01*
X244897643Y-117373902D02*
X244897643Y-116103902D01*
X244897643Y-117373902D02*
X247392643Y-117373902D01*
X244897643Y-118389902D02*
X244897643Y-117373902D01*
X244897643Y-118389902D02*
X248199643Y-118389902D01*
X244897643Y-125374902D02*
X248199643Y-125374902D01*
X244897643Y-128549902D02*
X244897643Y-125374902D01*
X244897643Y-139598902D02*
X244897643Y-135534902D01*
X244897643Y-139598902D02*
X258317643Y-139598902D01*
X244897643Y-140233902D02*
X244897643Y-139598902D01*
X253152643Y-50698902D02*
X253152643Y-55778902D01*
X253152643Y-55778902D02*
X244897643Y-55778902D01*
X253152643Y-140233902D02*
X244897643Y-140233902D01*
X253152643Y-140233902D02*
X253152643Y-144678902D01*
X253767643Y-95788902D02*
X258342643Y-95783902D01*
X253792643Y-97053902D02*
X258342643Y-97053902D01*
X253817643Y-86893902D02*
X258317643Y-86893902D01*
X253817643Y-116103902D02*
X258292643Y-116103902D01*
X253842643Y-75463902D02*
X258317643Y-75463902D01*
X253842643Y-85623902D02*
X258317643Y-85623902D01*
X253842643Y-105938902D02*
X258317643Y-105943902D01*
X253842643Y-107213902D02*
X258317643Y-107213902D01*
X253867643Y-117373902D02*
X258292643Y-117373902D01*
X253892643Y-76733902D02*
X258317643Y-76733902D01*
X258292643Y-56408902D02*
X244897643Y-56413902D01*
X258292643Y-56408902D02*
X258292643Y-53868902D01*
X258292643Y-116103902D02*
X258292643Y-117373902D01*
X258317643Y-75463902D02*
X258317643Y-76733902D01*
X258317643Y-85623902D02*
X258317643Y-86893902D01*
X258317643Y-105943902D02*
X258317643Y-107213902D01*
X258317643Y-139598902D02*
X258317643Y-141503902D01*
X258342643Y-95783902D02*
X258342643Y-97053902D01*
X256962643Y-53238902D02*
G75*
G03*
X256962643Y-53238902I-1270000J0D01*
G01*
X256962643Y-142138902D02*
G75*
G03*
X256962643Y-142138902I-1270000J0D01*
G01*
D13*
%TO.C,C_A1*%
X76238910Y-79998502D02*
X75946376Y-79998502D01*
X76238910Y-78978502D02*
X75946376Y-78978502D01*
%TO.C,C5*%
X87127643Y-88797635D02*
X87127643Y-89090169D01*
X86107643Y-88797635D02*
X86107643Y-89090169D01*
%TO.C,C42*%
X105382643Y-76537654D02*
X105382643Y-75115150D01*
X107202643Y-76537654D02*
X107202643Y-75115150D01*
%TO.C,R8*%
X91040597Y-117231002D02*
X92494725Y-117231002D01*
X91040597Y-119051002D02*
X92494725Y-119051002D01*
%TO.C,R49*%
X69914835Y-91467945D02*
X70424283Y-91467945D01*
X69914835Y-92512945D02*
X70424283Y-92512945D01*
%TO.C,C50*%
X132600312Y-107635323D02*
X134022816Y-107635323D01*
X132600312Y-109455323D02*
X134022816Y-109455323D01*
%TO.C,D13*%
X62677403Y-66181402D02*
X64947403Y-66181402D01*
X64947403Y-66181402D02*
X64947403Y-62121402D01*
X62677403Y-62121402D02*
X62677403Y-66181402D01*
%TO.C,S1*%
X76322403Y-51688902D02*
X74939403Y-51688902D01*
X76322403Y-51688902D02*
X76322403Y-53071902D01*
X76082403Y-51928902D02*
X74772403Y-51928902D01*
X76082403Y-51928902D02*
X76082403Y-58748902D01*
X73172403Y-51928902D02*
X72232403Y-51928902D01*
X70632403Y-51928902D02*
X69692403Y-51928902D01*
X68092403Y-51928902D02*
X67152403Y-51928902D01*
X65552403Y-51928902D02*
X64612403Y-51928902D01*
X63012403Y-51928902D02*
X62072403Y-51928902D01*
X60472403Y-51928902D02*
X59532403Y-51928902D01*
X57932403Y-51928902D02*
X56992403Y-51928902D01*
X55392403Y-51928902D02*
X54081403Y-51928902D01*
X54081403Y-51928902D02*
X54081403Y-58748902D01*
X74607403Y-53528902D02*
X73337403Y-53528902D01*
X74487403Y-53528902D02*
X74487403Y-54735569D01*
X74367403Y-53528902D02*
X74367403Y-54735569D01*
X74247403Y-53528902D02*
X74247403Y-54735569D01*
X74127403Y-53528902D02*
X74127403Y-54735569D01*
X74007403Y-53528902D02*
X74007403Y-54735569D01*
X73887403Y-53528902D02*
X73887403Y-54735569D01*
X73767403Y-53528902D02*
X73767403Y-54735569D01*
X73647403Y-53528902D02*
X73647403Y-54735569D01*
X73527403Y-53528902D02*
X73527403Y-54735569D01*
X73407403Y-53528902D02*
X73407403Y-54735569D01*
X73337403Y-53528902D02*
X73337403Y-57148902D01*
X72067403Y-53528902D02*
X70797403Y-53528902D01*
X71947403Y-53528902D02*
X71947403Y-54735569D01*
X71827403Y-53528902D02*
X71827403Y-54735569D01*
X71707403Y-53528902D02*
X71707403Y-54735569D01*
X71587403Y-53528902D02*
X71587403Y-54735569D01*
X71467403Y-53528902D02*
X71467403Y-54735569D01*
X71347403Y-53528902D02*
X71347403Y-54735569D01*
X71227403Y-53528902D02*
X71227403Y-54735569D01*
X71107403Y-53528902D02*
X71107403Y-54735569D01*
X70987403Y-53528902D02*
X70987403Y-54735569D01*
X70867403Y-53528902D02*
X70867403Y-54735569D01*
X70797403Y-53528902D02*
X70797403Y-57148902D01*
X69527403Y-53528902D02*
X68257403Y-53528902D01*
X69407403Y-53528902D02*
X69407403Y-54735569D01*
X69287403Y-53528902D02*
X69287403Y-54735569D01*
X69167403Y-53528902D02*
X69167403Y-54735569D01*
X69047403Y-53528902D02*
X69047403Y-54735569D01*
X68927403Y-53528902D02*
X68927403Y-54735569D01*
X68807403Y-53528902D02*
X68807403Y-54735569D01*
X68687403Y-53528902D02*
X68687403Y-54735569D01*
X68567403Y-53528902D02*
X68567403Y-54735569D01*
X68447403Y-53528902D02*
X68447403Y-54735569D01*
X68327403Y-53528902D02*
X68327403Y-54735569D01*
X68257403Y-53528902D02*
X68257403Y-57148902D01*
X66987403Y-53528902D02*
X65717403Y-53528902D01*
X66867403Y-53528902D02*
X66867403Y-54735569D01*
X66747403Y-53528902D02*
X66747403Y-54735569D01*
X66627403Y-53528902D02*
X66627403Y-54735569D01*
X66507403Y-53528902D02*
X66507403Y-54735569D01*
X66387403Y-53528902D02*
X66387403Y-54735569D01*
X66267403Y-53528902D02*
X66267403Y-54735569D01*
X66147403Y-53528902D02*
X66147403Y-54735569D01*
X66027403Y-53528902D02*
X66027403Y-54735569D01*
X65907403Y-53528902D02*
X65907403Y-54735569D01*
X65787403Y-53528902D02*
X65787403Y-54735569D01*
X65717403Y-53528902D02*
X65717403Y-57148902D01*
X64447403Y-53528902D02*
X63177403Y-53528902D01*
X64327403Y-53528902D02*
X64327403Y-54735569D01*
X64207403Y-53528902D02*
X64207403Y-54735569D01*
X64087403Y-53528902D02*
X64087403Y-54735569D01*
X63967403Y-53528902D02*
X63967403Y-54735569D01*
X63847403Y-53528902D02*
X63847403Y-54735569D01*
X63727403Y-53528902D02*
X63727403Y-54735569D01*
X63607403Y-53528902D02*
X63607403Y-54735569D01*
X63487403Y-53528902D02*
X63487403Y-54735569D01*
X63367403Y-53528902D02*
X63367403Y-54735569D01*
X63247403Y-53528902D02*
X63247403Y-54735569D01*
X63177403Y-53528902D02*
X63177403Y-57148902D01*
X61907403Y-53528902D02*
X60637403Y-53528902D01*
X61787403Y-53528902D02*
X61787403Y-54735569D01*
X61667403Y-53528902D02*
X61667403Y-54735569D01*
X61547403Y-53528902D02*
X61547403Y-54735569D01*
X61427403Y-53528902D02*
X61427403Y-54735569D01*
X61307403Y-53528902D02*
X61307403Y-54735569D01*
X61187403Y-53528902D02*
X61187403Y-54735569D01*
X61067403Y-53528902D02*
X61067403Y-54735569D01*
X60947403Y-53528902D02*
X60947403Y-54735569D01*
X60827403Y-53528902D02*
X60827403Y-54735569D01*
X60707403Y-53528902D02*
X60707403Y-54735569D01*
X60637403Y-53528902D02*
X60637403Y-57148902D01*
X59367403Y-53528902D02*
X58097403Y-53528902D01*
X59247403Y-53528902D02*
X59247403Y-54735569D01*
X59127403Y-53528902D02*
X59127403Y-54735569D01*
X59007403Y-53528902D02*
X59007403Y-54735569D01*
X58887403Y-53528902D02*
X58887403Y-54735569D01*
X58767403Y-53528902D02*
X58767403Y-54735569D01*
X58647403Y-53528902D02*
X58647403Y-54735569D01*
X58527403Y-53528902D02*
X58527403Y-54735569D01*
X58407403Y-53528902D02*
X58407403Y-54735569D01*
X58287403Y-53528902D02*
X58287403Y-54735569D01*
X58167403Y-53528902D02*
X58167403Y-54735569D01*
X58097403Y-53528902D02*
X58097403Y-57148902D01*
X56827403Y-53528902D02*
X55557403Y-53528902D01*
X56707403Y-53528902D02*
X56707403Y-54735569D01*
X56587403Y-53528902D02*
X56587403Y-54735569D01*
X56467403Y-53528902D02*
X56467403Y-54735569D01*
X56347403Y-53528902D02*
X56347403Y-54735569D01*
X56227403Y-53528902D02*
X56227403Y-54735569D01*
X56107403Y-53528902D02*
X56107403Y-54735569D01*
X55987403Y-53528902D02*
X55987403Y-54735569D01*
X55867403Y-53528902D02*
X55867403Y-54735569D01*
X55747403Y-53528902D02*
X55747403Y-54735569D01*
X55627403Y-53528902D02*
X55627403Y-54735569D01*
X55557403Y-53528902D02*
X55557403Y-57148902D01*
X74607403Y-54735569D02*
X73337403Y-54735569D01*
X72067403Y-54735569D02*
X70797403Y-54735569D01*
X69527403Y-54735569D02*
X68257403Y-54735569D01*
X66987403Y-54735569D02*
X65717403Y-54735569D01*
X64447403Y-54735569D02*
X63177403Y-54735569D01*
X61907403Y-54735569D02*
X60637403Y-54735569D01*
X59367403Y-54735569D02*
X58097403Y-54735569D01*
X56827403Y-54735569D02*
X55557403Y-54735569D01*
X74607403Y-57148902D02*
X74607403Y-53528902D01*
X73337403Y-57148902D02*
X74607403Y-57148902D01*
X72067403Y-57148902D02*
X72067403Y-53528902D01*
X70797403Y-57148902D02*
X72067403Y-57148902D01*
X69527403Y-57148902D02*
X69527403Y-53528902D01*
X68257403Y-57148902D02*
X69527403Y-57148902D01*
X66987403Y-57148902D02*
X66987403Y-53528902D01*
X65717403Y-57148902D02*
X66987403Y-57148902D01*
X64447403Y-57148902D02*
X64447403Y-53528902D01*
X63177403Y-57148902D02*
X64447403Y-57148902D01*
X61907403Y-57148902D02*
X61907403Y-53528902D01*
X60637403Y-57148902D02*
X61907403Y-57148902D01*
X59367403Y-57148902D02*
X59367403Y-53528902D01*
X58097403Y-57148902D02*
X59367403Y-57148902D01*
X56827403Y-57148902D02*
X56827403Y-53528902D01*
X55557403Y-57148902D02*
X56827403Y-57148902D01*
X76082403Y-58748902D02*
X74772403Y-58748902D01*
X73171403Y-58748902D02*
X72231403Y-58748902D01*
X70631403Y-58748902D02*
X69691403Y-58748902D01*
X68091403Y-58748902D02*
X67151403Y-58748902D01*
X65551403Y-58748902D02*
X64611403Y-58748902D01*
X63011403Y-58748902D02*
X62071403Y-58748902D01*
X60471403Y-58748902D02*
X59531403Y-58748902D01*
X57931403Y-58748902D02*
X56992403Y-58748902D01*
X55392403Y-58748902D02*
X54081403Y-58748902D01*
%TO.C,U3*%
X127220965Y-80177408D02*
X123770965Y-80177408D01*
X127220965Y-80177408D02*
X129170965Y-80177408D01*
X127220965Y-85297408D02*
X125270965Y-85297408D01*
X127220965Y-85297408D02*
X129170965Y-85297408D01*
%TO.C,D10*%
X55057403Y-66181402D02*
X57327403Y-66181402D01*
X57327403Y-66181402D02*
X57327403Y-62121402D01*
X55057403Y-62121402D02*
X55057403Y-66181402D01*
%TO.C,R39*%
X78339265Y-50125342D02*
X79793393Y-50125342D01*
X78339265Y-51945342D02*
X79793393Y-51945342D01*
%TO.C,D17*%
X72837403Y-66181402D02*
X75107403Y-66181402D01*
X75107403Y-66181402D02*
X75107403Y-62121402D01*
X72837403Y-62121402D02*
X72837403Y-66181402D01*
%TO.C,R5*%
X109119725Y-122906002D02*
X107665597Y-122906002D01*
X109119725Y-121086002D02*
X107665597Y-121086002D01*
%TO.C,R38*%
X58517643Y-95722455D02*
X58517643Y-93936455D01*
X58517643Y-95722455D02*
X51567643Y-95722455D01*
X58517643Y-92946455D02*
X58517643Y-90982455D01*
X58517643Y-90982455D02*
X51567643Y-90982455D01*
X51567643Y-95722455D02*
X51567643Y-93936455D01*
X51567643Y-92946455D02*
X51567643Y-90982455D01*
%TO.C,U5*%
X72102064Y-89690839D02*
X72102064Y-91490839D01*
X75322064Y-91490839D02*
X75322064Y-89040839D01*
%TO.C,P3*%
X113362661Y-125231002D02*
X117362661Y-125231002D01*
X112332661Y-124941002D02*
X118352661Y-124941002D01*
X118352661Y-124941002D02*
X118352661Y-119641002D01*
X112332661Y-124361002D02*
X112932661Y-124361002D01*
X112932661Y-124361002D02*
X112932661Y-122761002D01*
X117352661Y-123561002D02*
X116822661Y-123311002D01*
X117352661Y-123561002D02*
X117352661Y-121021002D01*
X118352661Y-123561002D02*
X117352661Y-123561002D01*
X116822661Y-123311002D02*
X116822661Y-121271002D01*
X118352661Y-123311002D02*
X117352661Y-123311002D01*
X112932661Y-122761002D02*
X112332661Y-122761002D01*
X112332661Y-121821002D02*
X112932661Y-121821002D01*
X112932661Y-121821002D02*
X112932661Y-120221002D01*
X116822661Y-121271002D02*
X117352661Y-121021002D01*
X118352661Y-121271002D02*
X117352661Y-121271002D01*
X117352661Y-121021002D02*
X118352661Y-121021002D01*
X112932661Y-120221002D02*
X112332661Y-120221002D01*
X112332661Y-119641002D02*
X112332661Y-124941002D01*
X118352661Y-119641002D02*
X112332661Y-119641002D01*
D18*
%TO.C,IC4*%
X133621564Y-106000323D02*
X133621564Y-96205323D01*
G36*
X133621564Y-99197823D02*
G01*
X132669064Y-99197823D01*
X132669064Y-97927823D01*
X133621564Y-97927823D01*
X133621564Y-99197823D01*
G37*
G36*
X133621664Y-101737823D02*
G01*
X132669064Y-101737823D01*
X132669064Y-100467823D01*
X133621664Y-100467823D01*
X133621664Y-101737823D01*
G37*
G36*
X133621564Y-104277823D02*
G01*
X132669064Y-104277823D01*
X132669064Y-103007823D01*
X133621564Y-103007823D01*
X133621564Y-104277823D01*
G37*
D13*
%TO.C,R4*%
X91590597Y-121436002D02*
X93044725Y-121436002D01*
X91590597Y-123256002D02*
X93044725Y-123256002D01*
%TO.C,Neg_Reg1*%
X78502643Y-80398902D02*
X81502643Y-80398902D01*
X80002643Y-77178902D02*
X81502643Y-77178902D01*
%TO.C,O4*%
X41802643Y-135188902D02*
X42302643Y-134938902D01*
X42302643Y-134938902D02*
X42302643Y-135438902D01*
X42302643Y-135438902D02*
X41802643Y-135188902D01*
%TO.C,O1*%
X41802643Y-60188902D02*
X42302643Y-59938902D01*
X42302643Y-59938902D02*
X42302643Y-60438902D01*
X42302643Y-60438902D02*
X41802643Y-60188902D01*
%TO.C,D3*%
X98696927Y-62708902D02*
X100966927Y-62708902D01*
X100966927Y-62708902D02*
X100966927Y-58648902D01*
X98696927Y-58648902D02*
X98696927Y-62708902D01*
%TO.C,D1*%
X85317643Y-102303902D02*
X87317643Y-102303902D01*
X85317643Y-102303902D02*
X85317643Y-98293902D01*
X87317643Y-102303902D02*
X87317643Y-98293902D01*
%TO.C,C23*%
X67051480Y-85278902D02*
X67344014Y-85278902D01*
X67051480Y-86298902D02*
X67344014Y-86298902D01*
%TO.C,R27*%
X119253901Y-85667408D02*
X120708029Y-85667408D01*
X119253901Y-87487408D02*
X120708029Y-87487408D01*
%TO.C,D4*%
X96159785Y-62708902D02*
X98429785Y-62708902D01*
X98429785Y-62708902D02*
X98429785Y-58648902D01*
X96159785Y-58648902D02*
X96159785Y-62708902D01*
%TO.C,C46*%
X73000915Y-87697698D02*
X72708381Y-87697698D01*
X73000915Y-86677698D02*
X72708381Y-86677698D01*
%TO.C,D5*%
X93622643Y-62708902D02*
X95892643Y-62708902D01*
X95892643Y-62708902D02*
X95892643Y-58648902D01*
X93622643Y-58648902D02*
X93622643Y-62708902D01*
%TO.C,P6*%
X64522643Y-126358902D02*
X64522643Y-127688902D01*
X63192643Y-126358902D02*
X64522643Y-126358902D01*
X61922643Y-126358902D02*
X56782643Y-126358902D01*
X61922643Y-126358902D02*
X61922643Y-129018902D01*
X56782643Y-126358902D02*
X56782643Y-129018902D01*
X61922643Y-129018902D02*
X56782643Y-129018902D01*
%TO.C,IC3*%
X100994000Y-79314028D02*
X104444000Y-79314028D01*
X100994000Y-79314028D02*
X99044000Y-79314028D01*
X100994000Y-74194028D02*
X102944000Y-74194028D01*
X100994000Y-74194028D02*
X99044000Y-74194028D01*
%TO.C,D8*%
X86011217Y-62708902D02*
X88281217Y-62708902D01*
X88281217Y-62708902D02*
X88281217Y-58648902D01*
X86011217Y-58648902D02*
X86011217Y-62708902D01*
%TO.C,C47*%
X75374544Y-93441391D02*
X75667078Y-93441391D01*
X75374544Y-94461391D02*
X75667078Y-94461391D01*
%TO.C,R42*%
X61967643Y-101035391D02*
X61967643Y-102489519D01*
X60147643Y-101035391D02*
X60147643Y-102489519D01*
%TO.C,U2*%
X82848243Y-129231002D02*
X86298243Y-129231002D01*
X82848243Y-129231002D02*
X80898243Y-129231002D01*
X82848243Y-124111002D02*
X84798243Y-124111002D01*
X82848243Y-124111002D02*
X80898243Y-124111002D01*
%TO.C,D15*%
X67757403Y-66181402D02*
X70027403Y-66181402D01*
X70027403Y-66181402D02*
X70027403Y-62121402D01*
X67757403Y-62121402D02*
X67757403Y-66181402D01*
%TO.C,R30*%
X86106121Y-132761816D02*
X84651993Y-132761816D01*
X86106121Y-130941816D02*
X84651993Y-130941816D01*
%TO.C,R44*%
X65055804Y-107590792D02*
X65055804Y-106136664D01*
X66875804Y-107590792D02*
X66875804Y-106136664D01*
%TO.C,R41*%
X58552643Y-98115391D02*
X58552643Y-99569519D01*
X56732643Y-98115391D02*
X56732643Y-99569519D01*
%TO.C,C_Reg1*%
X83402643Y-78217635D02*
X83402643Y-78510169D01*
X82382643Y-78217635D02*
X82382643Y-78510169D01*
%TO.C,C7*%
X106643909Y-114786002D02*
X108066413Y-114786002D01*
X106643909Y-116606002D02*
X108066413Y-116606002D01*
%TO.C,C33*%
X73577694Y-71327753D02*
X73577694Y-72750257D01*
X71757694Y-71327753D02*
X71757694Y-72750257D01*
%TO.C,R47*%
X56130579Y-115652455D02*
X57584707Y-115652455D01*
X56130579Y-117472455D02*
X57584707Y-117472455D01*
%TO.C,C_AFB1*%
X78000209Y-80978902D02*
X78292743Y-80978902D01*
X78000209Y-81998902D02*
X78292743Y-81998902D01*
%TO.C,O2*%
X41802643Y-85188902D02*
X42302643Y-84938902D01*
X42302643Y-84938902D02*
X42302643Y-85438902D01*
X42302643Y-85438902D02*
X41802643Y-85188902D01*
%TO.C,D6*%
X91085501Y-62708902D02*
X93355501Y-62708902D01*
X93355501Y-62708902D02*
X93355501Y-58648902D01*
X91085501Y-58648902D02*
X91085501Y-62708902D01*
%TO.C,P1*%
X103719069Y-52026402D02*
X103719069Y-53356402D01*
X102389069Y-52026402D02*
X103719069Y-52026402D01*
X101119069Y-52026402D02*
X83279069Y-52026402D01*
X101119069Y-52026402D02*
X101119069Y-54626402D01*
X83279069Y-52026402D02*
X83279069Y-57226402D01*
X103719069Y-54626402D02*
X103719069Y-57226402D01*
X101119069Y-54626402D02*
X103719069Y-54626402D01*
X103719069Y-57226402D02*
X83279069Y-57226402D01*
%TO.C,R52*%
X71849467Y-76568902D02*
X70395339Y-76568902D01*
X71849467Y-74748902D02*
X70395339Y-74748902D01*
%TO.C,R15*%
X102242643Y-95863902D02*
X102242643Y-97649902D01*
X102242643Y-95863902D02*
X109192643Y-95863902D01*
X102242643Y-98639902D02*
X102242643Y-100603902D01*
X102242643Y-100603902D02*
X109192643Y-100603902D01*
X109192643Y-95863902D02*
X109192643Y-97649902D01*
X109192643Y-98639902D02*
X109192643Y-100603902D01*
%TO.C,P5*%
X88747661Y-108921002D02*
X88747661Y-112921002D01*
X89037661Y-107891002D02*
X89037661Y-113911002D01*
X89037661Y-113911002D02*
X94337661Y-113911002D01*
X89617661Y-107891002D02*
X89617661Y-108491002D01*
X89617661Y-108491002D02*
X91217661Y-108491002D01*
X90417661Y-112911002D02*
X90667661Y-112381002D01*
X90417661Y-112911002D02*
X92957661Y-112911002D01*
X90417661Y-113911002D02*
X90417661Y-112911002D01*
X90667661Y-112381002D02*
X92707661Y-112381002D01*
X90667661Y-113911002D02*
X90667661Y-112911002D01*
X91217661Y-108491002D02*
X91217661Y-107891002D01*
X92157661Y-107891002D02*
X92157661Y-108491002D01*
X92157661Y-108491002D02*
X93757661Y-108491002D01*
X92707661Y-112381002D02*
X92957661Y-112911002D01*
X92707661Y-113911002D02*
X92707661Y-112911002D01*
X92957661Y-112911002D02*
X92957661Y-113911002D01*
X93757661Y-108491002D02*
X93757661Y-107891002D01*
X94337661Y-107891002D02*
X89037661Y-107891002D01*
X94337661Y-113911002D02*
X94337661Y-107891002D01*
%TD*%
M02*
