%TF.GenerationSoftware,KiCad,Pcbnew,7.0.5-0*%
%TF.CreationDate,2023-07-19T11:22:42-03:00*%
%TF.ProjectId,F2V,4632562e-6b69-4636-9164-5f7063625858,rev?*%
%TF.SameCoordinates,Original*%
%TF.FileFunction,Soldermask,Top*%
%TF.FilePolarity,Negative*%
%FSLAX46Y46*%
G04 Gerber Fmt 4.6, Leading zero omitted, Abs format (unit mm)*
G04 Created by KiCad (PCBNEW 7.0.5-0) date 2023-07-19 11:22:42*
%MOMM*%
%LPD*%
G01*
G04 APERTURE LIST*
G04 Aperture macros list*
%AMRoundRect*
0 Rectangle with rounded corners*
0 $1 Rounding radius*
0 $2 $3 $4 $5 $6 $7 $8 $9 X,Y pos of 4 corners*
0 Add a 4 corners polygon primitive as box body*
4,1,4,$2,$3,$4,$5,$6,$7,$8,$9,$2,$3,0*
0 Add four circle primitives for the rounded corners*
1,1,$1+$1,$2,$3*
1,1,$1+$1,$4,$5*
1,1,$1+$1,$6,$7*
1,1,$1+$1,$8,$9*
0 Add four rect primitives between the rounded corners*
20,1,$1+$1,$2,$3,$4,$5,0*
20,1,$1+$1,$4,$5,$6,$7,0*
20,1,$1+$1,$6,$7,$8,$9,0*
20,1,$1+$1,$8,$9,$2,$3,0*%
G04 Aperture macros list end*
%ADD10RoundRect,0.250000X0.412500X0.650000X-0.412500X0.650000X-0.412500X-0.650000X0.412500X-0.650000X0*%
%ADD11RoundRect,0.250000X0.650000X-0.412500X0.650000X0.412500X-0.650000X0.412500X-0.650000X-0.412500X0*%
%ADD12RoundRect,0.250000X0.325000X0.450000X-0.325000X0.450000X-0.325000X-0.450000X0.325000X-0.450000X0*%
%ADD13RoundRect,0.250000X0.400000X0.625000X-0.400000X0.625000X-0.400000X-0.625000X0.400000X-0.625000X0*%
%ADD14RoundRect,0.237500X0.237500X-0.300000X0.237500X0.300000X-0.237500X0.300000X-0.237500X-0.300000X0*%
%ADD15RoundRect,0.250000X-0.400000X-0.625000X0.400000X-0.625000X0.400000X0.625000X-0.400000X0.625000X0*%
%ADD16RoundRect,0.237500X0.237500X-0.250000X0.237500X0.250000X-0.237500X0.250000X-0.237500X-0.250000X0*%
%ADD17RoundRect,0.250000X-0.412500X-0.650000X0.412500X-0.650000X0.412500X0.650000X-0.412500X0.650000X0*%
%ADD18RoundRect,0.250000X0.845000X-0.620000X0.845000X0.620000X-0.845000X0.620000X-0.845000X-0.620000X0*%
%ADD19O,2.190000X1.740000*%
%ADD20RoundRect,0.250001X0.624999X-0.462499X0.624999X0.462499X-0.624999X0.462499X-0.624999X-0.462499X0*%
%ADD21RoundRect,0.250000X0.620000X0.845000X-0.620000X0.845000X-0.620000X-0.845000X0.620000X-0.845000X0*%
%ADD22O,1.740000X2.190000*%
%ADD23RoundRect,0.237500X-0.237500X0.300000X-0.237500X-0.300000X0.237500X-0.300000X0.237500X0.300000X0*%
%ADD24RoundRect,0.250000X0.850000X0.350000X-0.850000X0.350000X-0.850000X-0.350000X0.850000X-0.350000X0*%
%ADD25RoundRect,0.249997X2.950003X2.650003X-2.950003X2.650003X-2.950003X-2.650003X2.950003X-2.650003X0*%
%ADD26RoundRect,0.250000X0.625000X-0.400000X0.625000X0.400000X-0.625000X0.400000X-0.625000X-0.400000X0*%
%ADD27RoundRect,0.250000X-0.325000X-0.450000X0.325000X-0.450000X0.325000X0.450000X-0.325000X0.450000X0*%
%ADD28RoundRect,0.101600X-0.125000X-0.350000X0.125000X-0.350000X0.125000X0.350000X-0.125000X0.350000X0*%
%ADD29RoundRect,0.101600X-0.350000X0.125000X-0.350000X-0.125000X0.350000X-0.125000X0.350000X0.125000X0*%
%ADD30RoundRect,0.101600X-2.210000X2.210000X-2.210000X-2.210000X2.210000X-2.210000X2.210000X2.210000X0*%
%ADD31C,0.911200*%
%ADD32RoundRect,0.237500X0.250000X0.237500X-0.250000X0.237500X-0.250000X-0.237500X0.250000X-0.237500X0*%
%ADD33RoundRect,0.150000X-0.150000X0.825000X-0.150000X-0.825000X0.150000X-0.825000X0.150000X0.825000X0*%
%ADD34RoundRect,0.237500X0.300000X0.237500X-0.300000X0.237500X-0.300000X-0.237500X0.300000X-0.237500X0*%
%ADD35C,1.440000*%
%ADD36RoundRect,0.077500X-0.353553X-0.243952X-0.243952X-0.353553X0.353553X0.243952X0.243952X0.353553X0*%
%ADD37RoundRect,0.077500X0.243952X-0.353553X0.353553X-0.243952X-0.243952X0.353553X-0.353553X0.243952X0*%
%ADD38RoundRect,0.250000X-0.625000X0.400000X-0.625000X-0.400000X0.625000X-0.400000X0.625000X0.400000X0*%
%ADD39RoundRect,0.127000X-1.100000X-0.300000X1.100000X-0.300000X1.100000X0.300000X-1.100000X0.300000X0*%
%ADD40RoundRect,0.127000X0.300000X-1.100000X0.300000X1.100000X-0.300000X1.100000X-0.300000X-1.100000X0*%
%ADD41RoundRect,0.127000X1.100000X0.300000X-1.100000X0.300000X-1.100000X-0.300000X1.100000X-0.300000X0*%
%ADD42RoundRect,0.150000X0.825000X0.150000X-0.825000X0.150000X-0.825000X-0.150000X0.825000X-0.150000X0*%
%ADD43RoundRect,0.237500X-0.300000X-0.237500X0.300000X-0.237500X0.300000X0.237500X-0.300000X0.237500X0*%
%ADD44R,5.080000X2.290000*%
%ADD45R,5.080000X2.420000*%
%ADD46RoundRect,0.250000X-0.845000X0.620000X-0.845000X-0.620000X0.845000X-0.620000X0.845000X0.620000X0*%
%ADD47C,2.794000*%
%ADD48O,6.254000X3.254000*%
%ADD49RoundRect,0.237500X-0.250000X-0.237500X0.250000X-0.237500X0.250000X0.237500X-0.250000X0.237500X0*%
%ADD50R,1.120000X2.440000*%
%ADD51RoundRect,0.150000X-0.825000X-0.150000X0.825000X-0.150000X0.825000X0.150000X-0.825000X0.150000X0*%
%ADD52R,0.650000X1.560000*%
%ADD53RoundRect,0.127000X-1.905000X-0.965200X1.905000X-0.965200X1.905000X0.965200X-1.905000X0.965200X0*%
%ADD54RoundRect,0.127000X4.450000X-5.150000X4.450000X5.150000X-4.450000X5.150000X-4.450000X-5.150000X0*%
%ADD55RoundRect,0.087500X-0.200000X-0.087500X0.200000X-0.087500X0.200000X0.087500X-0.200000X0.087500X0*%
%ADD56R,1.450000X1.740000*%
%ADD57RoundRect,0.225000X0.375000X-0.225000X0.375000X0.225000X-0.375000X0.225000X-0.375000X-0.225000X0*%
%ADD58R,1.700000X1.700000*%
%ADD59O,1.700000X1.700000*%
%ADD60RoundRect,0.150000X0.725000X0.150000X-0.725000X0.150000X-0.725000X-0.150000X0.725000X-0.150000X0*%
%ADD61RoundRect,0.250000X-0.650000X0.412500X-0.650000X-0.412500X0.650000X-0.412500X0.650000X0.412500X0*%
%ADD62RoundRect,0.250000X-0.620000X-0.845000X0.620000X-0.845000X0.620000X0.845000X-0.620000X0.845000X0*%
G04 APERTURE END LIST*
D10*
%TO.C,C6*%
X93330161Y-115671002D03*
X90205161Y-115671002D03*
%TD*%
D11*
%TO.C,C49*%
X95550202Y-76117386D03*
X95550202Y-72992386D03*
%TD*%
D12*
%TO.C,FB8*%
X75762643Y-85498902D03*
X73712643Y-85498902D03*
%TD*%
D13*
%TO.C,R51*%
X94217661Y-126171002D03*
X91117661Y-126171002D03*
%TD*%
D10*
%TO.C,C28*%
X121533465Y-83367408D03*
X118408465Y-83367408D03*
%TD*%
D14*
%TO.C,C24*%
X81116121Y-96081449D03*
X81116121Y-94356449D03*
%TD*%
D15*
%TO.C,R12*%
X95342661Y-115671002D03*
X98442661Y-115671002D03*
%TD*%
D16*
%TO.C,R50*%
X76482064Y-90675839D03*
X76482064Y-88850839D03*
%TD*%
D17*
%TO.C,C44*%
X131749064Y-93545323D03*
X134874064Y-93545323D03*
%TD*%
D18*
%TO.C,P8*%
X70012643Y-102558902D03*
D19*
X70012643Y-100018902D03*
%TD*%
D13*
%TO.C,R18*%
X92042661Y-131871002D03*
X88942661Y-131871002D03*
%TD*%
D20*
%TO.C,D2*%
X102369069Y-61736402D03*
X102369069Y-58761402D03*
%TD*%
D15*
%TO.C,R33*%
X118592643Y-80338902D03*
X121692643Y-80338902D03*
%TD*%
D20*
%TO.C,D16*%
X71432403Y-65208902D03*
X71432403Y-62233902D03*
%TD*%
D21*
%TO.C,P4*%
X108457661Y-110946002D03*
D22*
X105917661Y-110946002D03*
%TD*%
D23*
%TO.C,C48*%
X77292643Y-75826402D03*
X77292643Y-77551402D03*
%TD*%
D18*
%TO.C,P7*%
X66362643Y-140063902D03*
D19*
X66362643Y-137523902D03*
X66362643Y-134983902D03*
%TD*%
D11*
%TO.C,C27*%
X116362862Y-89639908D03*
X116362862Y-86514908D03*
%TD*%
D24*
%TO.C,Q1*%
X60637643Y-137498902D03*
D25*
X54337643Y-135218902D03*
D24*
X60637643Y-132938902D03*
%TD*%
D26*
%TO.C,R19*%
X46392643Y-138338902D03*
X46392643Y-135238902D03*
%TD*%
D27*
%TO.C,FB7*%
X72594559Y-95640445D03*
X74644559Y-95640445D03*
%TD*%
D28*
%TO.C,U$1*%
X66831403Y-76298902D03*
X66331403Y-76298902D03*
X65831403Y-76298902D03*
X65331403Y-76298902D03*
X64831403Y-76298902D03*
X64331403Y-76298902D03*
X63831403Y-76298902D03*
X63331403Y-76298902D03*
X62831403Y-76298902D03*
X62331403Y-76298902D03*
D29*
X61581403Y-77048902D03*
X61581403Y-77548902D03*
X61581403Y-78048902D03*
X61581403Y-78548902D03*
X61581403Y-79048902D03*
X61581403Y-79548902D03*
X61581403Y-80048902D03*
X61581403Y-80548902D03*
X61581403Y-81048902D03*
X61581403Y-81548902D03*
D28*
X62331403Y-82298902D03*
X62831403Y-82298902D03*
X63331403Y-82298902D03*
X63831403Y-82298902D03*
X64331403Y-82298902D03*
X64831403Y-82298902D03*
X65331403Y-82298902D03*
X65831403Y-82298902D03*
X66331403Y-82298902D03*
X66831403Y-82298902D03*
D29*
X67581403Y-81548902D03*
X67581403Y-81048902D03*
X67581403Y-80548902D03*
X67581403Y-80048902D03*
X67581403Y-79548902D03*
X67581403Y-79048902D03*
X67581403Y-78548902D03*
X67581403Y-78048902D03*
X67581403Y-77548902D03*
X67581403Y-77048902D03*
D30*
X64581403Y-79298902D03*
D31*
X66232403Y-77647902D03*
X66232403Y-80949902D03*
X66232403Y-79298902D03*
X62930403Y-79298902D03*
X62930403Y-77647902D03*
X62930403Y-80949902D03*
X64581403Y-80949902D03*
X64581403Y-79298902D03*
X64581403Y-77647902D03*
X65343403Y-78409902D03*
X65343403Y-80187902D03*
X63565403Y-80187902D03*
X63692403Y-78409902D03*
%TD*%
D13*
%TO.C,R7*%
X113642661Y-127121002D03*
X110542661Y-127121002D03*
%TD*%
D15*
%TO.C,R37*%
X59342643Y-86088902D03*
X62442643Y-86088902D03*
%TD*%
D32*
%TO.C,R21*%
X84555143Y-96088902D03*
X82730143Y-96088902D03*
%TD*%
D33*
%TO.C,U4*%
X58932643Y-106807455D03*
X57662643Y-106807455D03*
X56392643Y-106807455D03*
X55122643Y-106807455D03*
X55122643Y-111757455D03*
X56392643Y-111757455D03*
X57662643Y-111757455D03*
X58932643Y-111757455D03*
%TD*%
D34*
%TO.C,C39*%
X72592059Y-93940445D03*
X70867059Y-93940445D03*
%TD*%
D35*
%TO.C,R23*%
X73380775Y-137525166D03*
X73380775Y-134985166D03*
X73380775Y-132445166D03*
%TD*%
D36*
%TO.C,FL1*%
X46351151Y-63730395D03*
X46810770Y-64190014D03*
X47270389Y-64649633D03*
D37*
X48224984Y-64359720D03*
D36*
X48514897Y-63405125D03*
X48055278Y-62945506D03*
X47595659Y-62485887D03*
D37*
X46641064Y-62775800D03*
%TD*%
D23*
%TO.C,C2*%
X90774402Y-84119262D03*
X90774402Y-85844262D03*
%TD*%
D38*
%TO.C,R43*%
X63465804Y-105313728D03*
X63465804Y-108413728D03*
%TD*%
D20*
%TO.C,D14*%
X66352403Y-65208902D03*
X66352403Y-62233902D03*
%TD*%
D39*
%TO.C,IC1*%
X97617643Y-93183902D03*
X97617643Y-91913902D03*
X97617643Y-90643902D03*
D40*
X95857643Y-88883902D03*
X94587643Y-88883902D03*
X93317643Y-88883902D03*
X92047643Y-88883902D03*
X90777643Y-88883902D03*
D41*
X89017643Y-90643902D03*
X89017643Y-91913902D03*
X89017643Y-93183902D03*
X89017643Y-94453902D03*
X89017643Y-95723902D03*
D40*
X90777643Y-97483902D03*
X92047643Y-97483902D03*
X93317643Y-97483902D03*
X94587643Y-97483902D03*
X95857643Y-97483902D03*
D41*
X97617643Y-95723902D03*
X97617643Y-94453902D03*
%TD*%
D20*
%TO.C,D11*%
X58732403Y-65208902D03*
X58732403Y-62233902D03*
%TD*%
D15*
%TO.C,R36*%
X124842643Y-77588902D03*
X127942643Y-77588902D03*
%TD*%
D23*
%TO.C,C38*%
X80092643Y-74326402D03*
X80092643Y-76051402D03*
%TD*%
D13*
%TO.C,R13*%
X103742661Y-115696002D03*
X100642661Y-115696002D03*
%TD*%
%TO.C,R40*%
X77592643Y-99788902D03*
X74492643Y-99788902D03*
%TD*%
D15*
%TO.C,R24*%
X111196678Y-86559098D03*
X114296678Y-86559098D03*
%TD*%
D42*
%TO.C,U1*%
X102142661Y-128706002D03*
X102142661Y-127436002D03*
X102142661Y-126166002D03*
X102142661Y-124896002D03*
X102142661Y-123626002D03*
X102142661Y-122356002D03*
X102142661Y-121086002D03*
X97192661Y-121086002D03*
X97192661Y-122356002D03*
X97192661Y-123626002D03*
X97192661Y-124896002D03*
X97192661Y-126166002D03*
X97192661Y-127436002D03*
X97192661Y-128706002D03*
%TD*%
D13*
%TO.C,R11*%
X103442661Y-134371002D03*
X100342661Y-134371002D03*
%TD*%
D23*
%TO.C,C4*%
X100117643Y-88881402D03*
X100117643Y-90606402D03*
%TD*%
D13*
%TO.C,R9*%
X108905161Y-118146002D03*
X105805161Y-118146002D03*
%TD*%
D43*
%TO.C,C41*%
X77392643Y-85488902D03*
X79117643Y-85488902D03*
%TD*%
D44*
%TO.C,O3*%
X38082643Y-110188902D03*
D45*
X38082643Y-105808902D03*
X38082643Y-114568902D03*
%TD*%
D20*
%TO.C,D7*%
X89683359Y-61736402D03*
X89683359Y-58761402D03*
%TD*%
%TO.C,D12*%
X61272403Y-65208902D03*
X61272403Y-62233902D03*
%TD*%
D16*
%TO.C,R2*%
X95859872Y-86347003D03*
X95859872Y-84522003D03*
%TD*%
D35*
%TO.C,R1*%
X105392643Y-89068902D03*
X105392643Y-86528902D03*
X105392643Y-83988902D03*
%TD*%
D46*
%TO.C,P2*%
X110572661Y-130281002D03*
D19*
X110572661Y-132821002D03*
%TD*%
D14*
%TO.C,C22*%
X95846699Y-103260326D03*
X95846699Y-101535326D03*
%TD*%
D20*
%TO.C,D9*%
X84609069Y-61736402D03*
X84609069Y-58761402D03*
%TD*%
D38*
%TO.C,R14*%
X94317661Y-128771002D03*
X94317661Y-131871002D03*
%TD*%
D32*
%TO.C,R16*%
X97687853Y-99901611D03*
X95862853Y-99901611D03*
%TD*%
D16*
%TO.C,R20*%
X86142643Y-96101402D03*
X86142643Y-94276402D03*
%TD*%
D32*
%TO.C,R22*%
X86005143Y-92738902D03*
X84180143Y-92738902D03*
%TD*%
D38*
%TO.C,R45*%
X61057643Y-105312455D03*
X61057643Y-108412455D03*
%TD*%
D47*
%TO.C,X3*%
X255692643Y-53238902D03*
X255692643Y-142138902D03*
D48*
X245532643Y-71018902D03*
X245532643Y-81178902D03*
X245532643Y-91338902D03*
X245532643Y-101498902D03*
X245532643Y-111658902D03*
X245532643Y-121818902D03*
X245532643Y-131978902D03*
X250612643Y-65938902D03*
X250612643Y-76098902D03*
X250612643Y-86258902D03*
X250612643Y-96418902D03*
X250612643Y-106578902D03*
X250612643Y-116738902D03*
X250612643Y-126898902D03*
X250612643Y-137058902D03*
%TD*%
D34*
%TO.C,C_A1*%
X76955143Y-79488502D03*
X75230143Y-79488502D03*
%TD*%
D23*
%TO.C,C5*%
X86617643Y-88081402D03*
X86617643Y-89806402D03*
%TD*%
D11*
%TO.C,C42*%
X106292643Y-77388902D03*
X106292643Y-74263902D03*
%TD*%
D15*
%TO.C,R8*%
X90217661Y-118141002D03*
X93317661Y-118141002D03*
%TD*%
D49*
%TO.C,R49*%
X69257059Y-91990445D03*
X71082059Y-91990445D03*
%TD*%
D17*
%TO.C,C50*%
X131749064Y-108545323D03*
X134874064Y-108545323D03*
%TD*%
D20*
%TO.C,D13*%
X63812403Y-65208902D03*
X63812403Y-62233902D03*
%TD*%
D50*
%TO.C,S1*%
X73972403Y-51033902D03*
X71432403Y-51033902D03*
X68892403Y-51033902D03*
X66352403Y-51033902D03*
X63812403Y-51033902D03*
X61272403Y-51033902D03*
X58732403Y-51033902D03*
X56192403Y-51033902D03*
X56192403Y-59643902D03*
X58732403Y-59643902D03*
X61272403Y-59643902D03*
X63812403Y-59643902D03*
X66352403Y-59643902D03*
X68892403Y-59643902D03*
X71432403Y-59643902D03*
X73972403Y-59643902D03*
%TD*%
D51*
%TO.C,U3*%
X124745965Y-80832408D03*
X124745965Y-82102408D03*
X124745965Y-83372408D03*
X124745965Y-84642408D03*
X129695965Y-84642408D03*
X129695965Y-83372408D03*
X129695965Y-82102408D03*
X129695965Y-80832408D03*
%TD*%
D20*
%TO.C,D10*%
X56192403Y-65208902D03*
X56192403Y-62233902D03*
%TD*%
D15*
%TO.C,R39*%
X77516329Y-51035342D03*
X80616329Y-51035342D03*
%TD*%
D20*
%TO.C,D17*%
X73972403Y-65208902D03*
X73972403Y-62233902D03*
%TD*%
D13*
%TO.C,R5*%
X109942661Y-121996002D03*
X106842661Y-121996002D03*
%TD*%
D35*
%TO.C,R38*%
X52502643Y-93442455D03*
X55042643Y-93442455D03*
X57582643Y-93442455D03*
%TD*%
D52*
%TO.C,U5*%
X74662064Y-89240839D03*
X73712064Y-89240839D03*
X72762064Y-89240839D03*
X72762064Y-91940839D03*
X74662064Y-91940839D03*
%TD*%
D18*
%TO.C,P3*%
X115362661Y-123561002D03*
D19*
X115362661Y-121021002D03*
%TD*%
D53*
%TO.C,IC4*%
X130134064Y-98552823D03*
D54*
X140884064Y-101102823D03*
D53*
X130134064Y-103652823D03*
%TD*%
D15*
%TO.C,R4*%
X90767661Y-122346002D03*
X93867661Y-122346002D03*
%TD*%
D55*
%TO.C,Neg_Reg1*%
X78715143Y-78038902D03*
X78715143Y-78538902D03*
X78715143Y-79038902D03*
X78715143Y-79538902D03*
X81290143Y-79538902D03*
X81290143Y-79038902D03*
X81290143Y-78538902D03*
X81290143Y-78038902D03*
D56*
X80002643Y-78788902D03*
%TD*%
D44*
%TO.C,O4*%
X38082643Y-135188902D03*
D45*
X38082643Y-130808902D03*
X38082643Y-139568902D03*
%TD*%
D44*
%TO.C,O1*%
X38082643Y-60188902D03*
D45*
X38082643Y-55808902D03*
X38082643Y-64568902D03*
%TD*%
D20*
%TO.C,D3*%
X99831927Y-61736402D03*
X99831927Y-58761402D03*
%TD*%
D57*
%TO.C,D1*%
X86317643Y-101593902D03*
X86317643Y-98293902D03*
%TD*%
D43*
%TO.C,C23*%
X66335247Y-85788902D03*
X68060247Y-85788902D03*
%TD*%
D15*
%TO.C,R27*%
X118430965Y-86577408D03*
X121530965Y-86577408D03*
%TD*%
D20*
%TO.C,D4*%
X97294785Y-61736402D03*
X97294785Y-58761402D03*
%TD*%
D34*
%TO.C,C46*%
X73717148Y-87187698D03*
X71992148Y-87187698D03*
%TD*%
D20*
%TO.C,D5*%
X94757643Y-61736402D03*
X94757643Y-58761402D03*
%TD*%
D58*
%TO.C,P6*%
X63192643Y-127688902D03*
D59*
X60652643Y-127688902D03*
X58112643Y-127688902D03*
%TD*%
D60*
%TO.C,IC3*%
X103569000Y-78659028D03*
X103569000Y-77389028D03*
X103569000Y-76119028D03*
X103569000Y-74849028D03*
X98419000Y-74849028D03*
X98419000Y-76119028D03*
X98419000Y-77389028D03*
X98419000Y-78659028D03*
%TD*%
D20*
%TO.C,D8*%
X87146217Y-61736402D03*
X87146217Y-58761402D03*
%TD*%
D43*
%TO.C,C47*%
X74658311Y-93951391D03*
X76383311Y-93951391D03*
%TD*%
D38*
%TO.C,R42*%
X61057643Y-100212455D03*
X61057643Y-103312455D03*
%TD*%
D42*
%TO.C,U2*%
X85323243Y-128576002D03*
X85323243Y-127306002D03*
X85323243Y-126036002D03*
X85323243Y-124766002D03*
X80373243Y-124766002D03*
X80373243Y-126036002D03*
X80373243Y-127306002D03*
X80373243Y-128576002D03*
%TD*%
D20*
%TO.C,D15*%
X68892403Y-65208902D03*
X68892403Y-62233902D03*
%TD*%
D13*
%TO.C,R30*%
X86929057Y-131851816D03*
X83829057Y-131851816D03*
%TD*%
D26*
%TO.C,R44*%
X65965804Y-108413728D03*
X65965804Y-105313728D03*
%TD*%
D38*
%TO.C,R41*%
X57642643Y-97292455D03*
X57642643Y-100392455D03*
%TD*%
D23*
%TO.C,C_Reg1*%
X82892643Y-77501402D03*
X82892643Y-79226402D03*
%TD*%
D17*
%TO.C,C7*%
X105792661Y-115696002D03*
X108917661Y-115696002D03*
%TD*%
D61*
%TO.C,C33*%
X72667694Y-70476505D03*
X72667694Y-73601505D03*
%TD*%
D15*
%TO.C,R47*%
X55307643Y-116562455D03*
X58407643Y-116562455D03*
%TD*%
D43*
%TO.C,C_AFB1*%
X77283976Y-81488902D03*
X79008976Y-81488902D03*
%TD*%
D44*
%TO.C,O2*%
X38082643Y-85188902D03*
D45*
X38082643Y-80808902D03*
X38082643Y-89568902D03*
%TD*%
D20*
%TO.C,D6*%
X92220501Y-61736402D03*
X92220501Y-58761402D03*
%TD*%
D58*
%TO.C,P1*%
X102389069Y-53356402D03*
D59*
X102389069Y-55896402D03*
X99849069Y-53356402D03*
X99849069Y-55896402D03*
X97309069Y-53356402D03*
X97309069Y-55896402D03*
X94769069Y-53356402D03*
X94769069Y-55896402D03*
X92229069Y-53356402D03*
X92229069Y-55896402D03*
X89689069Y-53356402D03*
X89689069Y-55896402D03*
X87149069Y-53356402D03*
X87149069Y-55896402D03*
X84609069Y-53356402D03*
X84609069Y-55896402D03*
%TD*%
D13*
%TO.C,R52*%
X72672403Y-75658902D03*
X69572403Y-75658902D03*
%TD*%
D35*
%TO.C,R15*%
X108257643Y-98143902D03*
X105717643Y-98143902D03*
X103177643Y-98143902D03*
%TD*%
D62*
%TO.C,P5*%
X90417661Y-110921002D03*
D22*
X92957661Y-110921002D03*
%TD*%
M02*
