%TF.GenerationSoftware,KiCad,Pcbnew,7.0.5-0*%
%TF.CreationDate,2023-07-19T11:22:42-03:00*%
%TF.ProjectId,F2V,4632562e-6b69-4636-9164-5f7063625858,rev?*%
%TF.SameCoordinates,Original*%
%TF.FileFunction,Paste,Bot*%
%TF.FilePolarity,Positive*%
%FSLAX46Y46*%
G04 Gerber Fmt 4.6, Leading zero omitted, Abs format (unit mm)*
G04 Created by KiCad (PCBNEW 7.0.5-0) date 2023-07-19 11:22:42*
%MOMM*%
%LPD*%
G01*
G04 APERTURE LIST*
G04 Aperture macros list*
%AMRoundRect*
0 Rectangle with rounded corners*
0 $1 Rounding radius*
0 $2 $3 $4 $5 $6 $7 $8 $9 X,Y pos of 4 corners*
0 Add a 4 corners polygon primitive as box body*
4,1,4,$2,$3,$4,$5,$6,$7,$8,$9,$2,$3,0*
0 Add four circle primitives for the rounded corners*
1,1,$1+$1,$2,$3*
1,1,$1+$1,$4,$5*
1,1,$1+$1,$6,$7*
1,1,$1+$1,$8,$9*
0 Add four rect primitives between the rounded corners*
20,1,$1+$1,$2,$3,$4,$5,0*
20,1,$1+$1,$4,$5,$6,$7,0*
20,1,$1+$1,$6,$7,$8,$9,0*
20,1,$1+$1,$8,$9,$2,$3,0*%
G04 Aperture macros list end*
%ADD10R,4.420000X4.420000*%
%ADD11R,5.080000X2.420000*%
%ADD12RoundRect,0.237500X-0.300000X-0.237500X0.300000X-0.237500X0.300000X0.237500X-0.300000X0.237500X0*%
%ADD13RoundRect,0.237500X0.300000X0.237500X-0.300000X0.237500X-0.300000X-0.237500X0.300000X-0.237500X0*%
%ADD14RoundRect,0.237500X0.250000X0.237500X-0.250000X0.237500X-0.250000X-0.237500X0.250000X-0.237500X0*%
%ADD15RoundRect,0.237500X0.044194X0.380070X-0.380070X-0.044194X-0.044194X-0.380070X0.380070X0.044194X0*%
%ADD16RoundRect,0.250000X0.548008X0.088388X0.088388X0.548008X-0.548008X-0.088388X-0.088388X-0.548008X0*%
%ADD17RoundRect,0.250000X0.412500X0.650000X-0.412500X0.650000X-0.412500X-0.650000X0.412500X-0.650000X0*%
%ADD18RoundRect,0.250000X0.450000X-0.325000X0.450000X0.325000X-0.450000X0.325000X-0.450000X-0.325000X0*%
%ADD19RoundRect,0.155000X0.212500X0.155000X-0.212500X0.155000X-0.212500X-0.155000X0.212500X-0.155000X0*%
%ADD20RoundRect,0.250000X-0.625000X0.400000X-0.625000X-0.400000X0.625000X-0.400000X0.625000X0.400000X0*%
%ADD21RoundRect,0.160000X-0.197500X-0.160000X0.197500X-0.160000X0.197500X0.160000X-0.197500X0.160000X0*%
%ADD22RoundRect,0.250000X-0.325000X-0.450000X0.325000X-0.450000X0.325000X0.450000X-0.325000X0.450000X0*%
%ADD23RoundRect,0.155000X-0.155000X0.212500X-0.155000X-0.212500X0.155000X-0.212500X0.155000X0.212500X0*%
%ADD24RoundRect,0.250000X0.650000X-0.412500X0.650000X0.412500X-0.650000X0.412500X-0.650000X-0.412500X0*%
%ADD25RoundRect,0.250000X-0.650000X0.412500X-0.650000X-0.412500X0.650000X-0.412500X0.650000X0.412500X0*%
%ADD26R,1.500000X2.400000*%
%ADD27RoundRect,0.250000X0.625000X-0.400000X0.625000X0.400000X-0.625000X0.400000X-0.625000X-0.400000X0*%
%ADD28RoundRect,0.237500X-0.237500X0.300000X-0.237500X-0.300000X0.237500X-0.300000X0.237500X0.300000X0*%
%ADD29RoundRect,0.250000X-0.450000X0.325000X-0.450000X-0.325000X0.450000X-0.325000X0.450000X0.325000X0*%
%ADD30RoundRect,0.155000X-0.212500X-0.155000X0.212500X-0.155000X0.212500X0.155000X-0.212500X0.155000X0*%
%ADD31RoundRect,0.250000X0.167938X-0.751301X0.751301X-0.167938X-0.167938X0.751301X-0.751301X0.167938X0*%
%ADD32RoundRect,0.155000X0.155000X-0.212500X0.155000X0.212500X-0.155000X0.212500X-0.155000X-0.212500X0*%
%ADD33RoundRect,0.155000X0.040659X0.259862X-0.259862X-0.040659X-0.040659X-0.259862X0.259862X0.040659X0*%
%ADD34RoundRect,0.237500X0.237500X-0.300000X0.237500X0.300000X-0.237500X0.300000X-0.237500X-0.300000X0*%
G04 APERTURE END LIST*
D10*
%TO.C,U$1*%
X64581403Y-79298902D03*
%TD*%
D11*
%TO.C,O3*%
X38082643Y-105808902D03*
X38082643Y-114568902D03*
%TD*%
%TO.C,O4*%
X38082643Y-130808902D03*
X38082643Y-139568902D03*
%TD*%
%TO.C,O1*%
X38082643Y-55808902D03*
X38082643Y-64568902D03*
%TD*%
%TO.C,O2*%
X38082643Y-80808902D03*
X38082643Y-89568902D03*
%TD*%
D12*
%TO.C,C12*%
X60312903Y-79887902D03*
X62037903Y-79887902D03*
%TD*%
D13*
%TO.C,C13*%
X69007903Y-80047902D03*
X67282903Y-80047902D03*
%TD*%
D14*
%TO.C,R6*%
X94332105Y-91888902D03*
X92507105Y-91888902D03*
%TD*%
D12*
%TO.C,C17*%
X60312903Y-77697902D03*
X62037903Y-77697902D03*
%TD*%
D15*
%TO.C,C8*%
X67605283Y-75438022D03*
X66385523Y-76657782D03*
%TD*%
D16*
%TO.C,FB2*%
X80348243Y-125706002D03*
X78898675Y-124256434D03*
%TD*%
D17*
%TO.C,C3*%
X101292661Y-124896002D03*
X98167661Y-124896002D03*
%TD*%
D18*
%TO.C,FB4*%
X124718465Y-86805880D03*
X124718465Y-84755880D03*
%TD*%
D19*
%TO.C,C15*%
X68272903Y-79287902D03*
X67137903Y-79287902D03*
%TD*%
D20*
%TO.C,R28*%
X58887403Y-50661402D03*
X58887403Y-53761402D03*
%TD*%
D13*
%TO.C,C29*%
X133292643Y-82188902D03*
X131567643Y-82188902D03*
%TD*%
D21*
%TO.C,R17*%
X66367643Y-85788902D03*
X67562643Y-85788902D03*
%TD*%
D18*
%TO.C,FB6*%
X52825968Y-110629701D03*
X52825968Y-108579701D03*
%TD*%
D22*
%TO.C,FB5*%
X63457643Y-111762455D03*
X65507643Y-111762455D03*
%TD*%
D23*
%TO.C,C11*%
X65255403Y-75600402D03*
X65255403Y-76735402D03*
%TD*%
D24*
%TO.C,C34*%
X67792643Y-114901402D03*
X67792643Y-111776402D03*
%TD*%
D16*
%TO.C,FB10*%
X82568511Y-123521088D03*
X81118943Y-122071520D03*
%TD*%
D25*
%TO.C,C52*%
X155350068Y-76200360D03*
X155350068Y-79325360D03*
%TD*%
D26*
%TO.C,L1*%
X69192643Y-85788902D03*
X74692643Y-85788902D03*
%TD*%
D27*
%TO.C,R35*%
X66507403Y-53761402D03*
X66507403Y-50661402D03*
%TD*%
D28*
%TO.C,C18*%
X62465403Y-74865402D03*
X62465403Y-76590402D03*
%TD*%
D25*
%TO.C,C54*%
X154342643Y-133076402D03*
X154342643Y-136201402D03*
%TD*%
D24*
%TO.C,C55*%
X100792643Y-71351402D03*
X100792643Y-68226402D03*
%TD*%
D27*
%TO.C,R26*%
X74127403Y-53761402D03*
X74127403Y-50661402D03*
%TD*%
D13*
%TO.C,C31*%
X131492147Y-78467408D03*
X129767147Y-78467408D03*
%TD*%
D23*
%TO.C,C21*%
X61615403Y-75460402D03*
X61615403Y-76595402D03*
%TD*%
D24*
%TO.C,C35*%
X61192643Y-114851402D03*
X61192643Y-111726402D03*
%TD*%
D17*
%TO.C,C40*%
X50879717Y-110629256D03*
X47754717Y-110629256D03*
%TD*%
D13*
%TO.C,C32*%
X124705965Y-88390880D03*
X122980965Y-88390880D03*
%TD*%
D29*
%TO.C,FB3*%
X129769698Y-80078041D03*
X129769698Y-82128041D03*
%TD*%
D28*
%TO.C,C10*%
X64485403Y-74875402D03*
X64485403Y-76600402D03*
%TD*%
D30*
%TO.C,C20*%
X61005403Y-78507902D03*
X62140403Y-78507902D03*
%TD*%
D17*
%TO.C,C1*%
X101292661Y-130946002D03*
X98167661Y-130946002D03*
%TD*%
D20*
%TO.C,R31*%
X61427403Y-50661402D03*
X61427403Y-53761402D03*
%TD*%
D24*
%TO.C,C53*%
X155350068Y-119956977D03*
X155350068Y-116831977D03*
%TD*%
D31*
%TO.C,C25*%
X77502139Y-122859896D03*
X79711847Y-120650188D03*
%TD*%
D32*
%TO.C,C19*%
X66385403Y-82975402D03*
X66385403Y-81840402D03*
%TD*%
D31*
%TO.C,C26*%
X81771296Y-127146732D03*
X83981004Y-124937024D03*
%TD*%
D29*
%TO.C,FB9*%
X98166825Y-126896003D03*
X98166825Y-128946003D03*
%TD*%
D33*
%TO.C,C9*%
X67846686Y-76446619D03*
X67044120Y-77249185D03*
%TD*%
D29*
%TO.C,FB1*%
X101280161Y-126896002D03*
X101280161Y-128946002D03*
%TD*%
D34*
%TO.C,C16*%
X65625403Y-83650402D03*
X65625403Y-81925402D03*
%TD*%
D20*
%TO.C,R25*%
X56347403Y-50661402D03*
X56347403Y-53761402D03*
%TD*%
%TO.C,R34*%
X63967403Y-50661402D03*
X63967403Y-53761402D03*
%TD*%
D27*
%TO.C,R29*%
X71587403Y-53761402D03*
X71587403Y-50661402D03*
%TD*%
D17*
%TO.C,C36*%
X80920143Y-57961402D03*
X77795143Y-57961402D03*
%TD*%
D30*
%TO.C,C14*%
X60977903Y-80757902D03*
X62112903Y-80757902D03*
%TD*%
D28*
%TO.C,C30*%
X122923355Y-84754798D03*
X122923355Y-86479798D03*
%TD*%
D27*
%TO.C,R32*%
X69047403Y-53761402D03*
X69047403Y-50661402D03*
%TD*%
D17*
%TO.C,C37*%
X52855143Y-106588902D03*
X49730143Y-106588902D03*
%TD*%
M02*
