M48
; DRILL file {KiCad 7.0.10} date Fri 16 Feb 2024 07:11:35 PM UTC
; FORMAT={-:-/ absolute / inch / decimal}
; #@! TF.CreationDate,2024-02-16T19:11:35+00:00
; #@! TF.GenerationSoftware,Kicad,Pcbnew,7.0.10
; #@! TF.FileFunction,Plated,1,4,PTH
FMAT,2
INCH
; #@! TA.AperFunction,Plated,PTH,ViaDrill
T1C0.0079
; #@! TA.AperFunction,Plated,PTH,ViaDrill
T2C0.0118
; #@! TA.AperFunction,Plated,PTH,ComponentDrill
T3C0.0157
; #@! TA.AperFunction,Plated,PTH,ComponentDrill
T4C0.0866
%
G90
G05
T1
X5.524Y-4.6303
X5.5618Y-4.5969
X5.6051Y-4.6287
X5.6445Y-4.6287
X5.6799Y-4.6287
X5.689Y-4.1669
X5.7079Y-4.6299
X5.7098Y-4.1661
X5.7362Y-4.4252
X5.7402Y-4.2677
X5.7402Y-4.3354
X5.7406Y-4.2913
X5.7425Y-4.2449
X5.7433Y-4.5713
X5.7457Y-4.1146
X5.7457Y-4.6303
X5.7602Y-4.5087
X5.7602Y-4.5299
X5.7803Y-4.6307
X5.7866Y-4.4512
X5.7957Y-4.4756
X5.8177Y-4.6307
X5.8189Y-4.4902
X5.8622Y-4.6303
X5.8748Y-4.022
X5.8752Y-4.552
X5.876Y-4.576
X5.8917Y-4.6311
X5.8949Y-4.0224
X5.9028Y-4.4886
X5.9201Y-4.5035
X5.9213Y-4.1087
X5.935Y-4.6295
X5.9413Y-4.1091
X5.9504Y-4.1917
X5.9685Y-4.6311
X5.974Y-4.5421
X5.9846Y-4.5028
X5.9961Y-4.5415
X6.0079Y-4.6303
X6.0083Y-4.5008
X6.0217Y-4.226
X6.0236Y-4.4831
X6.0311Y-3.9606
X6.0421Y-4.6303
X6.0433Y-4.4488
X6.0465Y-4.3528
X6.0598Y-4.3776
X6.0685Y-3.9606
X6.0795Y-4.3969
X6.0835Y-4.6299
X6.1043Y-3.9614
X6.113Y-4.6303
X6.1197Y-4.3693
X6.1409Y-4.3654
X6.1496Y-3.9614
X6.1567Y-4.6303
X6.1799Y-3.9614
X6.1949Y-4.6327
X6.211Y-4.5988
X6.25Y-4.6331
X6.2807Y-4.5984
T2
X5.3346Y-4.2028
X5.3346Y-4.2323
X5.3346Y-4.2717
X5.3346Y-4.3898
X5.3346Y-4.4193
X5.3346Y-4.4488
X5.3445Y-3.8504
X5.3445Y-3.8911
X5.3445Y-3.9317
X5.3445Y-3.9724
X5.3445Y-4.0131
X5.3445Y-4.0538
X5.3445Y-4.627
X5.3445Y-4.6669
X5.3445Y-4.7067
X5.3445Y-4.7466
X5.3445Y-4.7865
X5.3642Y-4.2028
X5.3642Y-4.2717
X5.3642Y-4.3898
X5.3642Y-4.4488
X5.3839Y-3.8091
X5.3839Y-3.9722
X5.3839Y-4.0129
X5.3839Y-4.0537
X5.3839Y-4.6344
X5.3839Y-4.678
X5.3839Y-4.8524
X5.3882Y-4.502
X5.3937Y-4.2028
X5.3937Y-4.2717
X5.3937Y-4.3898
X5.3937Y-4.4488
X5.3953Y-4.5929
X5.4232Y-4.2028
X5.4232Y-4.2717
X5.4232Y-4.3898
X5.4232Y-4.4488
X5.435Y-3.7697
X5.4398Y-4.5008
X5.447Y-4.8917
X5.4516Y-4.5929
X5.4528Y-4.2028
X5.4528Y-4.2717
X5.4528Y-4.3898
X5.4528Y-4.4488
X5.4757Y-3.7697
X5.4823Y-4.2028
X5.4823Y-4.2717
X5.4823Y-4.3898
X5.4869Y-4.8917
X5.4941Y-4.5902
X5.4953Y-4.5
X5.5118Y-4.2028
X5.5118Y-4.2717
X5.5268Y-4.8917
X5.5294Y-3.7697
X5.5394Y-4.0268
X5.5402Y-3.9941
X5.5413Y-4.2717
X5.5417Y-4.3791
X5.5425Y-4.0776
X5.5444Y-4.8524
X5.5517Y-3.8091
X5.5581Y-4.4291
X5.56Y-4.4921
X5.5666Y-4.8917
X5.5696Y-3.7697
X5.5845Y-4.8524
X5.5862Y-4.3315
X5.5915Y-3.8091
X5.5925Y-4.3957
X5.5945Y-4.1504
X5.5953Y-4.2551
X5.5969Y-4.2016
X5.6065Y-4.8917
X5.6097Y-3.7697
X5.6213Y-4.0878
X5.6246Y-4.8524
X5.6299Y-3.8583
X5.6314Y-3.8091
X5.6464Y-4.8917
X5.6579Y-4.1228
X5.6587Y-4.2134
X5.6681Y-4.8516
X5.6693Y-4.252
X5.6752Y-4.4144
X5.6772Y-4.4665
X5.6909Y-4.8917
X5.6988Y-4.3209
X5.6988Y-4.439
X5.7087Y-4.4882
X5.7087Y-4.5374
X5.7088Y-4.8524
X5.7308Y-4.8917
X5.7489Y-4.8524
X5.751Y-3.8091
X5.7702Y-3.7697
X5.7707Y-4.8917
X5.7874Y-3.8583
X5.7874Y-4.2028
X5.7909Y-3.8091
X5.7924Y-4.8516
X5.8071Y-4.5669
X5.8103Y-3.7697
X5.815Y-3.9094
X5.8157Y-4.8917
X5.8268Y-4.2618
X5.8268Y-4.3012
X5.8268Y-4.3406
X5.8268Y-4.3799
X5.8268Y-4.4193
X5.8308Y-3.8091
X5.8336Y-4.8524
X5.8504Y-3.7697
X5.8556Y-4.8917
X5.8661Y-4.2618
X5.8661Y-4.3012
X5.8661Y-4.3406
X5.8661Y-4.3799
X5.8661Y-4.4193
X5.8706Y-3.8091
X5.8737Y-4.8524
X5.8906Y-3.7697
X5.8955Y-4.8917
X5.9004Y-3.9059
X5.9055Y-4.2618
X5.9055Y-4.3012
X5.9055Y-4.3406
X5.9055Y-4.3799
X5.9055Y-4.4193
X5.9105Y-3.8091
X5.9172Y-4.8516
X5.9307Y-3.7697
X5.9386Y-4.8902
X5.9449Y-4.2618
X5.9449Y-4.3012
X5.9449Y-4.3406
X5.9449Y-4.3799
X5.9449Y-4.4193
X5.9504Y-3.8091
X5.9547Y-4.0453
X5.9565Y-4.8508
X5.9681Y-3.9748
X5.9708Y-3.7697
X5.9785Y-4.8902
X5.9843Y-4.2618
X5.9843Y-4.3012
X5.9843Y-4.3406
X5.9843Y-4.3799
X5.9843Y-4.4193
X5.9902Y-3.8091
X5.9953Y-3.9339
X5.9966Y-4.8508
X6.0047Y-3.8441
X6.011Y-3.7697
X6.0183Y-4.8902
X6.0301Y-3.8091
X6.0401Y-4.85
X6.0423Y-4.1309
X6.0433Y-4.0699
X6.0511Y-3.7697
X6.0626Y-4.8913
X6.07Y-3.8091
X6.0738Y-4.5738
X6.0764Y-4.2402
X6.0805Y-4.852
X6.0896Y-4.502
X6.0912Y-3.7697
X6.1004Y-4.1053
X6.1025Y-4.8913
X6.1075Y-4.1638
X6.1099Y-3.8091
X6.1114Y-4.063
X6.1206Y-4.852
X6.1232Y-4.0079
X6.1289Y-4.5187
X6.1313Y-3.7697
X6.1382Y-4.2236
X6.1423Y-4.8913
X6.1457Y-4.125
X6.1461Y-4.4354
X6.1497Y-3.8091
X6.1715Y-3.7697
X6.1862Y-4.2874
X6.1864Y-4.8524
X6.1896Y-3.8091
X6.1909Y-3.8484
X6.1969Y-4.0226
X6.2045Y-4.8917
X6.2057Y-4.4321
X6.2067Y-4.3504
X6.211Y-3.9543
X6.2116Y-3.7697
X6.2207Y-4.8014
X6.2217Y-4.0795
X6.2265Y-4.8524
X6.2295Y-3.8091
X6.2346Y-4.226
X6.2444Y-4.8917
X6.251Y-4.439
X6.2517Y-3.7697
X6.2667Y-4.8524
X6.2693Y-3.8091
X6.2697Y-4.1929
X6.2717Y-4.5177
X6.2843Y-4.8917
X6.2914Y-3.7697
X6.2992Y-4.2028
X6.2992Y-4.4488
X6.3189Y-4.2717
X6.3189Y-4.3898
X6.3241Y-4.8917
X6.3283Y-4.5953
X6.3287Y-4.2028
X6.3287Y-4.4488
X6.3353Y-3.7697
X6.3484Y-4.2717
X6.3484Y-4.3898
X6.3583Y-4.2028
X6.3583Y-4.4488
X6.364Y-4.8917
X6.376Y-3.7697
X6.378Y-4.2717
X6.378Y-4.3898
X6.3878Y-4.2028
X6.3878Y-4.4488
X6.4075Y-4.2717
X6.4075Y-4.3898
X6.4173Y-4.2028
X6.4173Y-4.4488
X6.4272Y-3.8091
X6.4272Y-3.9722
X6.4272Y-4.0129
X6.4272Y-4.0537
X6.4272Y-4.5908
X6.4272Y-4.6344
X6.4272Y-4.678
X6.4272Y-4.8524
X6.437Y-4.2717
X6.437Y-4.3898
X6.4469Y-4.2028
X6.4469Y-4.4488
X6.4665Y-3.8504
X6.4665Y-3.8911
X6.4665Y-3.9317
X6.4665Y-3.9724
X6.4665Y-4.0131
X6.4665Y-4.0538
X6.4665Y-4.2717
X6.4665Y-4.3898
X6.4665Y-4.5871
X6.4665Y-4.627
X6.4665Y-4.6669
X6.4665Y-4.7067
X6.4665Y-4.7466
X6.4665Y-4.7865
X6.4764Y-4.2028
X6.4764Y-4.2421
X6.4764Y-4.4193
X6.4764Y-4.4488
T3
X5.4075Y-3.8976
X5.4075Y-4.7638
X5.4265Y-3.8517
X5.4265Y-3.9436
X5.4265Y-4.7178
X5.4265Y-4.8097
X5.4724Y-3.8327
X5.4724Y-3.9626
X5.4724Y-4.6988
X5.4724Y-4.8287
X5.5184Y-3.8517
X5.5184Y-3.9436
X5.5184Y-4.7178
X5.5184Y-4.8097
X5.5374Y-3.8976
X5.5374Y-4.7638
X6.2736Y-3.8976
X6.2736Y-4.7638
X6.2926Y-3.8517
X6.2926Y-3.9436
X6.2926Y-4.7178
X6.2926Y-4.8097
X6.3386Y-3.8327
X6.3386Y-3.9626
X6.3386Y-4.6988
X6.3386Y-4.8287
X6.3845Y-3.8517
X6.3845Y-3.9436
X6.3845Y-4.7178
X6.3845Y-4.8097
X6.4035Y-3.8976
X6.4035Y-4.7638
T4
X5.4724Y-3.8976
X5.4724Y-4.7638
X6.3386Y-3.8976
X6.3386Y-4.7638
M30
