%TF.GenerationSoftware,KiCad,Pcbnew,7.0.10*%
%TF.CreationDate,2024-02-16T19:11:30+00:00*%
%TF.ProjectId,Microsemi-MX1DS10P,4d696372-6f73-4656-9d69-2d4d58314453,rev?*%
%TF.SameCoordinates,Original*%
%TF.FileFunction,Copper,L2,Inr*%
%TF.FilePolarity,Positive*%
%FSLAX46Y46*%
G04 Gerber Fmt 4.6, Leading zero omitted, Abs format (unit mm)*
G04 Created by KiCad (PCBNEW 7.0.10) date 2024-02-16 19:11:30*
%MOMM*%
%LPD*%
G01*
G04 APERTURE LIST*
%TA.AperFunction,ComponentPad*%
%ADD10C,0.700000*%
%TD*%
%TA.AperFunction,ComponentPad*%
%ADD11C,4.400000*%
%TD*%
%TA.AperFunction,ViaPad*%
%ADD12C,0.600000*%
%TD*%
%TA.AperFunction,ViaPad*%
%ADD13C,0.450000*%
%TD*%
G04 APERTURE END LIST*
D10*
%TO.N,GND*%
%TO.C,MH1*%
X137350000Y-99000000D03*
X137833274Y-97833274D03*
X137833274Y-100166726D03*
X139000000Y-97350000D03*
D11*
X139000000Y-99000000D03*
D10*
X139000000Y-100650000D03*
X140166726Y-97833274D03*
X140166726Y-100166726D03*
X140650000Y-99000000D03*
%TD*%
%TO.N,GND*%
%TO.C,MH4*%
X159350000Y-121000000D03*
X159833274Y-119833274D03*
X159833274Y-122166726D03*
X161000000Y-119350000D03*
D11*
X161000000Y-121000000D03*
D10*
X161000000Y-122650000D03*
X162166726Y-119833274D03*
X162166726Y-122166726D03*
X162650000Y-121000000D03*
%TD*%
%TO.N,GND*%
%TO.C,MH3*%
X137350000Y-121000000D03*
X137833274Y-119833274D03*
X137833274Y-122166726D03*
X139000000Y-119350000D03*
D11*
X139000000Y-121000000D03*
D10*
X139000000Y-122650000D03*
X140166726Y-119833274D03*
X140166726Y-122166726D03*
X140650000Y-121000000D03*
%TD*%
%TO.N,GND*%
%TO.C,MH2*%
X159350000Y-99000000D03*
X159833274Y-97833274D03*
X159833274Y-100166726D03*
X161000000Y-97350000D03*
D11*
X161000000Y-99000000D03*
D10*
X161000000Y-100650000D03*
X162166726Y-97833274D03*
X162166726Y-100166726D03*
X162650000Y-99000000D03*
%TD*%
D12*
%TO.N,GND*%
X142050000Y-111650000D03*
X144150000Y-112125000D03*
X144200000Y-113450000D03*
X157760000Y-100440000D03*
X164250000Y-117525368D03*
X153697425Y-95750000D03*
X150000000Y-111250000D03*
X160750000Y-106750000D03*
X158153846Y-123250000D03*
X142865384Y-123250000D03*
X162750000Y-108500000D03*
X140700000Y-102280000D03*
X150000000Y-109250000D03*
X160750000Y-113000000D03*
X140447425Y-95750000D03*
X146575369Y-124250000D03*
X159620501Y-124250000D03*
X148000000Y-109250000D03*
X157215635Y-96750000D03*
X151852685Y-124210000D03*
X151000000Y-111250000D03*
X155230000Y-103200000D03*
X137000000Y-108500000D03*
X136750000Y-100892857D03*
X141466655Y-95750000D03*
X135500000Y-106750000D03*
X163250000Y-102964285D03*
X164500000Y-113000000D03*
X139250000Y-108500000D03*
X158228319Y-96750000D03*
X164250000Y-116512684D03*
X152313202Y-123210000D03*
X135750000Y-120563421D03*
X148601271Y-95750000D03*
X135750000Y-97799225D03*
X135750000Y-101933075D03*
X150840000Y-124210000D03*
X163250000Y-123250000D03*
X138500000Y-108500000D03*
X148000000Y-108250000D03*
X164250000Y-118538053D03*
X154340000Y-107700000D03*
X143038053Y-96750000D03*
X150639732Y-95750000D03*
X163250000Y-116607142D03*
X139250000Y-111500000D03*
X151658963Y-95750000D03*
X138500000Y-111500000D03*
X135750000Y-98832687D03*
X155190266Y-96750000D03*
X155463202Y-123240000D03*
X163750000Y-113000000D03*
X158793578Y-95750000D03*
X153417818Y-123190000D03*
X152520000Y-97640000D03*
X157129620Y-108899620D03*
X141012684Y-96750000D03*
X136750000Y-102964285D03*
X139580000Y-114300000D03*
X146023202Y-123250000D03*
X144750000Y-112750000D03*
X137000000Y-111500000D03*
X137750000Y-106750000D03*
X164250000Y-102966537D03*
X154716655Y-95750000D03*
X152000000Y-109250000D03*
X143417551Y-124250000D03*
X163000000Y-106750000D03*
X135500000Y-107500000D03*
X155530000Y-101800000D03*
X137040000Y-116660000D03*
X154177581Y-96750000D03*
X164250000Y-99866150D03*
X154443971Y-123240000D03*
X140826923Y-123250000D03*
X137000000Y-113000000D03*
X153500000Y-103375000D03*
X153475000Y-104925000D03*
X157250000Y-97750000D03*
X135750000Y-100899612D03*
X145003971Y-123250000D03*
X157595132Y-124250000D03*
X147127818Y-123230000D03*
X141846153Y-123250000D03*
X164250000Y-121576106D03*
X142120000Y-108080000D03*
X156202950Y-96750000D03*
X144750000Y-109750000D03*
X136750000Y-117714285D03*
X163250000Y-118821428D03*
X150126844Y-96750000D03*
X140760000Y-111230000D03*
X135750000Y-118538053D03*
X148000000Y-112250000D03*
X152865369Y-124210000D03*
X142160000Y-106720000D03*
X146076106Y-96750000D03*
X163500000Y-111500000D03*
X152000000Y-110250000D03*
X164250000Y-101933075D03*
X155130000Y-105760000D03*
X159241003Y-96750000D03*
X157650000Y-110500000D03*
X163250000Y-96750000D03*
X161500000Y-113000000D03*
X160633185Y-124250000D03*
X164250000Y-100899612D03*
X149870000Y-99210000D03*
X149620502Y-95750000D03*
X145562685Y-124250000D03*
X148732685Y-124250000D03*
X142025369Y-96750000D03*
X137000000Y-106750000D03*
X135750000Y-99866150D03*
X155735886Y-95750000D03*
X135500000Y-108500000D03*
X160917312Y-95750000D03*
X155675000Y-114775000D03*
X136250000Y-106750000D03*
X155910000Y-107280000D03*
X159173076Y-123250000D03*
X157134615Y-123250000D03*
X159300000Y-114750000D03*
X163750000Y-106750000D03*
X135750000Y-117525368D03*
X143710000Y-104720000D03*
X152000000Y-112250000D03*
X143730000Y-107020000D03*
X157774348Y-95750000D03*
X163250000Y-100892857D03*
X149000000Y-109250000D03*
X157400000Y-102175000D03*
X147500000Y-116000000D03*
X139250000Y-106750000D03*
X149193202Y-123250000D03*
X137750000Y-113000000D03*
X149000000Y-112250000D03*
X164250000Y-97799225D03*
X137750000Y-108500000D03*
X135750000Y-121576106D03*
X136250000Y-111500000D03*
X164250000Y-111500000D03*
X160500000Y-108500000D03*
X147088791Y-96750000D03*
X162000000Y-111500000D03*
X145000000Y-114000000D03*
X151000000Y-109250000D03*
X151250000Y-102750000D03*
X140720000Y-101450000D03*
X163000000Y-113000000D03*
X152678194Y-95750000D03*
X139366814Y-124250000D03*
X142485886Y-95750000D03*
X136750000Y-118821428D03*
X158607817Y-124250000D03*
X148000000Y-111250000D03*
X136250000Y-113000000D03*
X148101475Y-96750000D03*
X154675000Y-114350000D03*
X150297818Y-123230000D03*
X154950000Y-104275000D03*
X142404867Y-124250000D03*
X162250000Y-113000000D03*
X139082687Y-95750000D03*
X162750000Y-111500000D03*
X140000000Y-108500000D03*
X149745369Y-124250000D03*
X143970000Y-123230000D03*
X151139528Y-96750000D03*
X138470000Y-116660000D03*
X152000000Y-108250000D03*
X150000000Y-112250000D03*
X158030000Y-103620000D03*
X153164897Y-96750000D03*
X160000000Y-106750000D03*
X151590000Y-100960000D03*
X161645870Y-124250000D03*
X161500000Y-106750000D03*
X151000000Y-108250000D03*
X149000000Y-108250000D03*
X136750000Y-96750000D03*
X151293971Y-123210000D03*
X164250000Y-120563421D03*
X140780000Y-103570000D03*
X163250000Y-101928571D03*
X164250000Y-119550737D03*
X137750000Y-111500000D03*
X136860000Y-114350000D03*
X135500000Y-113000000D03*
X152000000Y-111250000D03*
X164500000Y-112250000D03*
X157625000Y-112575000D03*
X158775000Y-112750000D03*
X135500000Y-111500000D03*
X149114160Y-96750000D03*
X160740000Y-116720000D03*
X148173971Y-123250000D03*
X158360000Y-107340000D03*
X156110000Y-112660000D03*
X156755117Y-95750000D03*
X146562809Y-95750000D03*
X138170000Y-114320000D03*
X159250000Y-106500000D03*
X140379498Y-124250000D03*
X142100000Y-105420000D03*
X163500000Y-108500000D03*
X140750000Y-108500000D03*
X158004999Y-121954999D03*
X136750000Y-123250000D03*
X164500000Y-106750000D03*
X161250000Y-108500000D03*
X151000000Y-110250000D03*
X152280000Y-99920000D03*
X151000000Y-112250000D03*
X164250000Y-98832687D03*
X162250000Y-106750000D03*
X161250000Y-111500000D03*
X141175000Y-112500000D03*
X150000000Y-108250000D03*
X162000000Y-108500000D03*
X147000000Y-106750000D03*
X149000000Y-111250000D03*
X160500000Y-111500000D03*
X140000000Y-106750000D03*
X163250000Y-117714285D03*
X138500000Y-113000000D03*
X136250000Y-108500000D03*
X145000000Y-115250000D03*
X138500000Y-106750000D03*
X139550000Y-116590000D03*
X144550000Y-124250000D03*
X149000000Y-110250000D03*
X160000000Y-113000000D03*
X153990000Y-124240000D03*
X150000000Y-110250000D03*
X135750000Y-119550737D03*
X144000000Y-108000000D03*
X155002685Y-124240000D03*
X147720000Y-124250000D03*
X156100000Y-104775000D03*
X164500000Y-107750000D03*
X147582040Y-95750000D03*
X159802575Y-95750000D03*
X138354129Y-124250000D03*
X136750000Y-101928571D03*
X141890000Y-110020000D03*
X138049225Y-95750000D03*
X148000000Y-110250000D03*
X143000000Y-98000000D03*
X154275000Y-116175000D03*
X142780000Y-103830000D03*
X156015369Y-124240000D03*
X141225000Y-114100000D03*
X141392182Y-124250000D03*
X164250000Y-108500000D03*
X135500000Y-112250000D03*
X161950774Y-95750000D03*
X152152213Y-96750000D03*
X135750000Y-102966537D03*
X147000000Y-98000000D03*
X147700000Y-99300000D03*
D13*
%TO.N,/A18*%
X153580000Y-110560000D03*
X155050000Y-100620000D03*
%TD*%
%TA.AperFunction,Conductor*%
%TO.N,GND*%
G36*
X160943188Y-95000508D02*
G01*
X160944941Y-95000529D01*
X160998685Y-95001189D01*
X161001317Y-95001254D01*
X161074575Y-95003952D01*
X161075507Y-95003990D01*
X161172897Y-95008493D01*
X161194723Y-95009566D01*
X161197307Y-95009724D01*
X161388891Y-95023856D01*
X161394310Y-95024390D01*
X161583521Y-95047727D01*
X161588884Y-95048523D01*
X161776717Y-95081115D01*
X161782079Y-95082182D01*
X161808910Y-95088207D01*
X161968105Y-95123955D01*
X161973367Y-95125273D01*
X162157107Y-95176121D01*
X162162322Y-95177702D01*
X162343336Y-95237501D01*
X162348469Y-95239337D01*
X162526378Y-95307964D01*
X162531362Y-95310028D01*
X162705670Y-95387294D01*
X162710551Y-95389602D01*
X162880895Y-95475345D01*
X162885696Y-95477912D01*
X163051532Y-95571857D01*
X163056214Y-95574663D01*
X163217328Y-95676686D01*
X163221809Y-95679681D01*
X163377698Y-95789470D01*
X163382083Y-95792722D01*
X163532386Y-95910021D01*
X163536554Y-95913441D01*
X163680942Y-96037990D01*
X163684973Y-96041644D01*
X163823037Y-96173093D01*
X163826906Y-96176962D01*
X163958355Y-96315026D01*
X163962011Y-96319059D01*
X164086554Y-96463441D01*
X164089982Y-96467617D01*
X164207269Y-96617906D01*
X164210529Y-96622301D01*
X164320304Y-96778169D01*
X164323319Y-96782681D01*
X164425329Y-96943773D01*
X164428142Y-96948467D01*
X164522082Y-97114295D01*
X164524661Y-97119121D01*
X164610380Y-97289415D01*
X164612718Y-97294359D01*
X164689962Y-97468617D01*
X164692047Y-97473650D01*
X164760657Y-97651518D01*
X164762501Y-97656671D01*
X164822293Y-97837667D01*
X164823881Y-97842903D01*
X164874721Y-98026613D01*
X164876051Y-98031923D01*
X164917817Y-98217920D01*
X164918884Y-98223286D01*
X164951472Y-98411089D01*
X164952275Y-98416503D01*
X164975607Y-98605675D01*
X164976144Y-98611122D01*
X164990267Y-98802591D01*
X164990435Y-98805318D01*
X164991518Y-98827348D01*
X164991533Y-98827675D01*
X164996005Y-98924433D01*
X164996048Y-98925476D01*
X164998743Y-98998629D01*
X164998811Y-99001365D01*
X164999492Y-99056810D01*
X164999500Y-99058179D01*
X164999500Y-120941819D01*
X164999492Y-120943188D01*
X164998811Y-120998634D01*
X164998743Y-121001370D01*
X164996048Y-121074522D01*
X164996005Y-121075565D01*
X164991533Y-121172324D01*
X164991518Y-121172651D01*
X164990435Y-121194681D01*
X164990267Y-121197408D01*
X164976144Y-121388877D01*
X164975607Y-121394324D01*
X164952275Y-121583496D01*
X164951472Y-121588910D01*
X164918884Y-121776713D01*
X164917817Y-121782079D01*
X164876051Y-121968076D01*
X164874721Y-121973386D01*
X164823876Y-122157115D01*
X164822287Y-122162351D01*
X164762502Y-122343324D01*
X164760659Y-122348477D01*
X164692047Y-122526349D01*
X164689952Y-122531406D01*
X164612702Y-122705676D01*
X164610362Y-122710623D01*
X164524670Y-122880862D01*
X164522091Y-122885688D01*
X164428142Y-123051532D01*
X164425329Y-123056226D01*
X164378296Y-123130500D01*
X164323331Y-123217299D01*
X164320304Y-123221830D01*
X164210529Y-123377698D01*
X164207269Y-123382093D01*
X164089998Y-123532362D01*
X164086538Y-123536578D01*
X163967479Y-123674601D01*
X163962024Y-123680926D01*
X163958348Y-123684981D01*
X163826917Y-123823027D01*
X163823048Y-123826896D01*
X163684973Y-123958355D01*
X163680926Y-123962024D01*
X163536578Y-124086538D01*
X163532362Y-124089998D01*
X163382093Y-124207269D01*
X163377698Y-124210529D01*
X163221830Y-124320304D01*
X163217299Y-124323331D01*
X163130500Y-124378296D01*
X163056226Y-124425329D01*
X163051532Y-124428142D01*
X162885696Y-124522087D01*
X162880870Y-124524667D01*
X162710575Y-124610386D01*
X162705627Y-124612725D01*
X162531405Y-124689952D01*
X162526349Y-124692047D01*
X162348477Y-124760659D01*
X162343324Y-124762503D01*
X162162332Y-124822293D01*
X162157096Y-124823881D01*
X161973386Y-124874721D01*
X161968076Y-124876051D01*
X161782079Y-124917817D01*
X161776713Y-124918884D01*
X161588910Y-124951472D01*
X161583496Y-124952275D01*
X161394324Y-124975607D01*
X161388877Y-124976144D01*
X161197408Y-124990267D01*
X161194677Y-124990435D01*
X161172671Y-124991516D01*
X161172349Y-124991531D01*
X161075566Y-124996005D01*
X161074522Y-124996048D01*
X161001370Y-124998743D01*
X160998634Y-124998811D01*
X160943190Y-124999492D01*
X160941821Y-124999500D01*
X139058179Y-124999500D01*
X139056810Y-124999492D01*
X139001365Y-124998811D01*
X138998629Y-124998743D01*
X138925476Y-124996048D01*
X138924432Y-124996005D01*
X138827650Y-124991531D01*
X138827328Y-124991516D01*
X138805322Y-124990435D01*
X138802591Y-124990267D01*
X138611122Y-124976144D01*
X138605675Y-124975607D01*
X138416503Y-124952275D01*
X138411089Y-124951472D01*
X138223286Y-124918884D01*
X138217920Y-124917817D01*
X138031923Y-124876051D01*
X138026613Y-124874721D01*
X137842903Y-124823881D01*
X137837667Y-124822293D01*
X137656671Y-124762501D01*
X137651518Y-124760657D01*
X137550392Y-124721649D01*
X137473642Y-124692043D01*
X137468617Y-124689962D01*
X137294359Y-124612718D01*
X137289415Y-124610380D01*
X137119121Y-124524661D01*
X137114295Y-124522082D01*
X136948467Y-124428142D01*
X136943773Y-124425329D01*
X136782681Y-124323319D01*
X136778180Y-124320311D01*
X136622301Y-124210529D01*
X136617906Y-124207269D01*
X136467617Y-124089982D01*
X136463441Y-124086554D01*
X136319054Y-123962006D01*
X136315018Y-123958348D01*
X136176972Y-123826917D01*
X136173103Y-123823048D01*
X136041644Y-123684973D01*
X136037990Y-123680942D01*
X135913441Y-123536554D01*
X135910021Y-123532386D01*
X135792722Y-123382083D01*
X135789470Y-123377698D01*
X135679681Y-123221809D01*
X135676686Y-123217328D01*
X135574663Y-123056214D01*
X135571857Y-123051532D01*
X135477917Y-122885704D01*
X135475337Y-122880878D01*
X135389628Y-122710603D01*
X135387289Y-122705656D01*
X135310048Y-122531406D01*
X135310033Y-122531372D01*
X135307959Y-122526367D01*
X135239330Y-122348449D01*
X135237507Y-122343352D01*
X135177705Y-122162330D01*
X135176129Y-122157135D01*
X135125273Y-121973367D01*
X135123955Y-121968105D01*
X135082182Y-121782079D01*
X135081115Y-121776713D01*
X135048523Y-121588884D01*
X135047727Y-121583521D01*
X135024390Y-121394310D01*
X135023855Y-121388877D01*
X135009724Y-121197307D01*
X135009564Y-121194681D01*
X135008493Y-121172896D01*
X135003990Y-121075507D01*
X135003952Y-121074575D01*
X135001254Y-121001317D01*
X135001189Y-120998685D01*
X135000508Y-120943186D01*
X135000500Y-120941819D01*
X135000500Y-117610000D01*
X139955131Y-117610000D01*
X139972500Y-117719661D01*
X140022905Y-117818587D01*
X140101413Y-117897095D01*
X140200339Y-117947500D01*
X140310000Y-117964869D01*
X140419661Y-117947500D01*
X140518587Y-117897095D01*
X140597095Y-117818587D01*
X140647500Y-117719661D01*
X140664869Y-117610000D01*
X140658533Y-117570000D01*
X142015131Y-117570000D01*
X142032500Y-117679661D01*
X142082905Y-117778587D01*
X142161413Y-117857095D01*
X142260339Y-117907500D01*
X142370000Y-117924869D01*
X142479661Y-117907500D01*
X142578587Y-117857095D01*
X142657095Y-117778587D01*
X142707500Y-117679661D01*
X142724869Y-117570000D01*
X143015131Y-117570000D01*
X143032500Y-117679661D01*
X143082905Y-117778587D01*
X143161413Y-117857095D01*
X143260339Y-117907500D01*
X143370000Y-117924869D01*
X143479661Y-117907500D01*
X143578587Y-117857095D01*
X143657095Y-117778587D01*
X143707500Y-117679661D01*
X143709873Y-117664676D01*
X143741158Y-117603277D01*
X143802558Y-117571993D01*
X143870620Y-117582773D01*
X143919347Y-117631500D01*
X143930126Y-117664675D01*
X143932500Y-117679661D01*
X143982905Y-117778587D01*
X144061413Y-117857095D01*
X144160339Y-117907500D01*
X144270000Y-117924869D01*
X144379661Y-117907500D01*
X144478587Y-117857095D01*
X144531158Y-117804524D01*
X144592558Y-117773239D01*
X144660620Y-117784019D01*
X144688842Y-117804524D01*
X144692905Y-117808587D01*
X144771413Y-117887095D01*
X144870339Y-117937500D01*
X144980000Y-117954869D01*
X145089661Y-117937500D01*
X145188587Y-117887095D01*
X145267095Y-117808587D01*
X145317500Y-117709661D01*
X145333285Y-117610000D01*
X145585131Y-117610000D01*
X145602500Y-117719661D01*
X145652905Y-117818587D01*
X145731413Y-117897095D01*
X145830339Y-117947500D01*
X145940000Y-117964869D01*
X146049661Y-117947500D01*
X146148587Y-117897095D01*
X146227095Y-117818587D01*
X146277500Y-117719661D01*
X146277499Y-117719661D01*
X146278485Y-117717728D01*
X146327212Y-117669000D01*
X146395274Y-117658220D01*
X146456674Y-117689504D01*
X146476972Y-117722628D01*
X146478516Y-117721842D01*
X146482500Y-117729661D01*
X146532905Y-117828587D01*
X146611413Y-117907095D01*
X146710339Y-117957500D01*
X146820000Y-117974869D01*
X146929661Y-117957500D01*
X147028587Y-117907095D01*
X147107095Y-117828587D01*
X147157500Y-117729661D01*
X147174869Y-117620000D01*
X147415131Y-117620000D01*
X147432500Y-117729661D01*
X147482905Y-117828587D01*
X147561413Y-117907095D01*
X147660339Y-117957500D01*
X147770000Y-117974869D01*
X147879661Y-117957500D01*
X147978587Y-117907095D01*
X148057095Y-117828587D01*
X148107500Y-117729661D01*
X148124869Y-117620000D01*
X148123285Y-117610000D01*
X148545131Y-117610000D01*
X148562500Y-117719661D01*
X148612905Y-117818587D01*
X148691413Y-117897095D01*
X148790339Y-117947500D01*
X148900000Y-117964869D01*
X149009661Y-117947500D01*
X149108587Y-117897095D01*
X149187095Y-117818587D01*
X149187097Y-117818582D01*
X149188293Y-117817387D01*
X149249693Y-117786102D01*
X149317755Y-117796881D01*
X149354626Y-117833752D01*
X149357746Y-117831486D01*
X149362903Y-117838584D01*
X149362905Y-117838587D01*
X149441413Y-117917095D01*
X149540339Y-117967500D01*
X149650000Y-117984869D01*
X149759661Y-117967500D01*
X149858587Y-117917095D01*
X149937095Y-117838587D01*
X149987500Y-117739661D01*
X150004869Y-117630000D01*
X149998533Y-117590000D01*
X150395131Y-117590000D01*
X150412500Y-117699661D01*
X150462905Y-117798587D01*
X150541413Y-117877095D01*
X150640339Y-117927500D01*
X150750000Y-117944869D01*
X150859661Y-117927500D01*
X150958587Y-117877095D01*
X151037095Y-117798587D01*
X151065463Y-117742910D01*
X151114188Y-117694185D01*
X151182250Y-117683405D01*
X151243651Y-117714689D01*
X151264156Y-117742912D01*
X151309286Y-117831486D01*
X151312905Y-117838587D01*
X151391413Y-117917095D01*
X151490339Y-117967500D01*
X151600000Y-117984869D01*
X151709661Y-117967500D01*
X151808587Y-117917095D01*
X151887095Y-117838587D01*
X151937500Y-117739661D01*
X151954869Y-117630000D01*
X151951701Y-117610000D01*
X152245131Y-117610000D01*
X152262500Y-117719661D01*
X152312905Y-117818587D01*
X152391413Y-117897095D01*
X152490339Y-117947500D01*
X152600000Y-117964869D01*
X152709661Y-117947500D01*
X152808587Y-117897095D01*
X152887095Y-117818587D01*
X152935653Y-117723286D01*
X152984380Y-117674559D01*
X153052442Y-117663779D01*
X153113842Y-117695063D01*
X153134347Y-117723286D01*
X153182905Y-117818587D01*
X153261413Y-117897095D01*
X153360339Y-117947500D01*
X153470000Y-117964869D01*
X153579661Y-117947500D01*
X153678587Y-117897095D01*
X153757095Y-117818587D01*
X153807500Y-117719661D01*
X153824869Y-117610000D01*
X153823285Y-117600000D01*
X154165131Y-117600000D01*
X154182500Y-117709661D01*
X154232905Y-117808587D01*
X154311413Y-117887095D01*
X154410339Y-117937500D01*
X154520000Y-117954869D01*
X154629661Y-117937500D01*
X154728587Y-117887095D01*
X154807095Y-117808587D01*
X154807097Y-117808582D01*
X154812401Y-117803279D01*
X154873801Y-117771994D01*
X154941863Y-117782773D01*
X154976622Y-117812459D01*
X154976700Y-117812382D01*
X154977686Y-117813368D01*
X154981448Y-117816581D01*
X154982902Y-117818582D01*
X154982905Y-117818587D01*
X155061413Y-117897095D01*
X155160339Y-117947500D01*
X155270000Y-117964869D01*
X155379661Y-117947500D01*
X155478587Y-117897095D01*
X155557095Y-117818587D01*
X155607500Y-117719661D01*
X155624869Y-117610000D01*
X156025131Y-117610000D01*
X156042500Y-117719661D01*
X156092905Y-117818587D01*
X156171413Y-117897095D01*
X156270339Y-117947500D01*
X156380000Y-117964869D01*
X156489661Y-117947500D01*
X156588587Y-117897095D01*
X156667095Y-117818587D01*
X156717500Y-117719661D01*
X156725366Y-117670000D01*
X156995131Y-117670000D01*
X157012500Y-117779661D01*
X157062905Y-117878587D01*
X157141413Y-117957095D01*
X157240339Y-118007500D01*
X157350000Y-118024869D01*
X157459661Y-118007500D01*
X157558587Y-117957095D01*
X157637095Y-117878587D01*
X157687500Y-117779661D01*
X157703285Y-117680000D01*
X158395131Y-117680000D01*
X158412500Y-117789661D01*
X158462905Y-117888587D01*
X158541413Y-117967095D01*
X158640339Y-118017500D01*
X158750000Y-118034869D01*
X158859661Y-118017500D01*
X158958587Y-117967095D01*
X159037095Y-117888587D01*
X159087500Y-117789661D01*
X159104869Y-117680000D01*
X159087500Y-117570339D01*
X159037095Y-117471413D01*
X158958587Y-117392905D01*
X158859661Y-117342500D01*
X158859662Y-117342500D01*
X158750000Y-117325131D01*
X158640338Y-117342500D01*
X158541414Y-117392904D01*
X158541411Y-117392906D01*
X158462906Y-117471411D01*
X158462904Y-117471414D01*
X158412500Y-117570338D01*
X158403051Y-117629999D01*
X158395131Y-117680000D01*
X157703285Y-117680000D01*
X157704869Y-117670000D01*
X157687500Y-117560339D01*
X157637095Y-117461413D01*
X157558587Y-117382905D01*
X157459661Y-117332500D01*
X157459662Y-117332500D01*
X157350000Y-117315131D01*
X157240338Y-117332500D01*
X157141414Y-117382904D01*
X157141411Y-117382906D01*
X157062906Y-117461411D01*
X157062904Y-117461414D01*
X157012500Y-117560338D01*
X157001467Y-117630000D01*
X156995131Y-117670000D01*
X156725366Y-117670000D01*
X156734869Y-117610000D01*
X156717500Y-117500339D01*
X156667095Y-117401413D01*
X156588587Y-117322905D01*
X156489661Y-117272500D01*
X156489662Y-117272500D01*
X156380000Y-117255131D01*
X156270338Y-117272500D01*
X156171414Y-117322904D01*
X156171411Y-117322906D01*
X156092906Y-117401411D01*
X156092904Y-117401414D01*
X156042500Y-117500338D01*
X156031467Y-117570000D01*
X156025131Y-117610000D01*
X155624869Y-117610000D01*
X155607500Y-117500339D01*
X155557095Y-117401413D01*
X155478587Y-117322905D01*
X155379661Y-117272500D01*
X155379662Y-117272500D01*
X155270000Y-117255131D01*
X155160338Y-117272500D01*
X155061414Y-117322904D01*
X154977597Y-117406721D01*
X154916197Y-117438005D01*
X154848135Y-117427225D01*
X154813378Y-117397539D01*
X154813300Y-117397618D01*
X154812305Y-117396623D01*
X154808550Y-117393416D01*
X154807095Y-117391414D01*
X154807095Y-117391413D01*
X154728587Y-117312905D01*
X154629661Y-117262500D01*
X154629662Y-117262500D01*
X154520000Y-117245131D01*
X154410338Y-117262500D01*
X154311414Y-117312904D01*
X154311411Y-117312906D01*
X154232906Y-117391411D01*
X154232904Y-117391414D01*
X154182500Y-117490338D01*
X154167860Y-117582773D01*
X154165131Y-117600000D01*
X153823285Y-117600000D01*
X153807500Y-117500339D01*
X153757095Y-117401413D01*
X153678587Y-117322905D01*
X153579661Y-117272500D01*
X153579662Y-117272500D01*
X153470000Y-117255131D01*
X153360338Y-117272500D01*
X153261414Y-117322904D01*
X153261411Y-117322906D01*
X153182906Y-117401411D01*
X153182903Y-117401415D01*
X153134347Y-117496713D01*
X153085620Y-117545440D01*
X153017557Y-117556220D01*
X152956157Y-117524935D01*
X152935653Y-117496713D01*
X152887096Y-117401415D01*
X152887095Y-117401413D01*
X152808587Y-117322905D01*
X152709661Y-117272500D01*
X152709662Y-117272500D01*
X152600000Y-117255131D01*
X152490338Y-117272500D01*
X152391414Y-117322904D01*
X152391411Y-117322906D01*
X152312906Y-117401411D01*
X152312904Y-117401414D01*
X152262500Y-117500338D01*
X152251467Y-117570000D01*
X152245131Y-117610000D01*
X151951701Y-117610000D01*
X151937500Y-117520339D01*
X151887095Y-117421413D01*
X151808587Y-117342905D01*
X151709661Y-117292500D01*
X151709662Y-117292500D01*
X151600000Y-117275131D01*
X151490338Y-117292500D01*
X151391414Y-117342904D01*
X151391411Y-117342906D01*
X151312906Y-117421411D01*
X151312905Y-117421413D01*
X151284537Y-117477088D01*
X151235809Y-117525815D01*
X151167747Y-117536594D01*
X151106347Y-117505309D01*
X151085843Y-117477087D01*
X151084944Y-117475322D01*
X151037095Y-117381413D01*
X150958587Y-117302905D01*
X150859661Y-117252500D01*
X150859662Y-117252500D01*
X150750000Y-117235131D01*
X150640338Y-117252500D01*
X150541414Y-117302904D01*
X150541411Y-117302906D01*
X150462906Y-117381411D01*
X150462904Y-117381414D01*
X150412500Y-117480338D01*
X150398615Y-117568006D01*
X150395131Y-117590000D01*
X149998533Y-117590000D01*
X149987500Y-117520339D01*
X149937095Y-117421413D01*
X149858587Y-117342905D01*
X149759661Y-117292500D01*
X149759662Y-117292500D01*
X149650000Y-117275131D01*
X149540338Y-117292500D01*
X149441414Y-117342904D01*
X149361705Y-117422613D01*
X149300305Y-117453897D01*
X149232242Y-117443117D01*
X149195373Y-117406247D01*
X149192254Y-117408514D01*
X149187096Y-117401415D01*
X149187095Y-117401413D01*
X149108587Y-117322905D01*
X149009661Y-117272500D01*
X149009662Y-117272500D01*
X148900000Y-117255131D01*
X148790338Y-117272500D01*
X148691414Y-117322904D01*
X148691411Y-117322906D01*
X148612906Y-117401411D01*
X148612904Y-117401414D01*
X148562500Y-117500338D01*
X148551467Y-117570000D01*
X148545131Y-117610000D01*
X148123285Y-117610000D01*
X148107500Y-117510339D01*
X148057095Y-117411413D01*
X147978587Y-117332905D01*
X147879661Y-117282500D01*
X147879662Y-117282500D01*
X147770000Y-117265131D01*
X147660338Y-117282500D01*
X147561414Y-117332904D01*
X147561411Y-117332906D01*
X147482906Y-117411411D01*
X147482904Y-117411414D01*
X147432500Y-117510338D01*
X147419883Y-117590000D01*
X147415131Y-117620000D01*
X147174869Y-117620000D01*
X147157500Y-117510339D01*
X147107095Y-117411413D01*
X147028587Y-117332905D01*
X146929661Y-117282500D01*
X146929662Y-117282500D01*
X146820000Y-117265131D01*
X146710338Y-117282500D01*
X146611414Y-117332904D01*
X146611411Y-117332906D01*
X146532905Y-117411412D01*
X146481514Y-117512273D01*
X146432786Y-117561000D01*
X146364724Y-117571779D01*
X146303324Y-117540494D01*
X146283029Y-117507370D01*
X146281484Y-117508158D01*
X146272404Y-117490338D01*
X146227095Y-117401413D01*
X146148587Y-117322905D01*
X146049661Y-117272500D01*
X146049662Y-117272500D01*
X145940000Y-117255131D01*
X145830338Y-117272500D01*
X145731414Y-117322904D01*
X145731411Y-117322906D01*
X145652906Y-117401411D01*
X145652904Y-117401414D01*
X145602500Y-117500338D01*
X145591467Y-117570000D01*
X145585131Y-117610000D01*
X145333285Y-117610000D01*
X145334869Y-117600000D01*
X145317500Y-117490339D01*
X145267095Y-117391413D01*
X145188587Y-117312905D01*
X145089661Y-117262500D01*
X145089662Y-117262500D01*
X144980000Y-117245131D01*
X144870338Y-117262500D01*
X144771414Y-117312904D01*
X144771411Y-117312906D01*
X144718842Y-117365476D01*
X144657442Y-117396761D01*
X144589380Y-117385981D01*
X144561158Y-117365476D01*
X144478588Y-117282906D01*
X144478587Y-117282905D01*
X144379661Y-117232500D01*
X144379662Y-117232500D01*
X144270000Y-117215131D01*
X144160338Y-117232500D01*
X144061414Y-117282904D01*
X144061411Y-117282906D01*
X143982906Y-117361411D01*
X143982904Y-117361414D01*
X143932500Y-117460338D01*
X143930127Y-117475322D01*
X143898842Y-117536722D01*
X143837441Y-117568006D01*
X143769379Y-117557226D01*
X143720652Y-117508498D01*
X143709873Y-117475322D01*
X143709254Y-117471413D01*
X143707500Y-117460339D01*
X143657095Y-117361413D01*
X143578587Y-117282905D01*
X143479661Y-117232500D01*
X143479662Y-117232500D01*
X143370000Y-117215131D01*
X143260338Y-117232500D01*
X143161414Y-117282904D01*
X143161411Y-117282906D01*
X143082906Y-117361411D01*
X143082904Y-117361414D01*
X143032500Y-117460338D01*
X143017314Y-117556220D01*
X143015131Y-117570000D01*
X142724869Y-117570000D01*
X142707500Y-117460339D01*
X142657095Y-117361413D01*
X142578587Y-117282905D01*
X142479661Y-117232500D01*
X142479662Y-117232500D01*
X142370000Y-117215131D01*
X142260338Y-117232500D01*
X142161414Y-117282904D01*
X142161411Y-117282906D01*
X142082906Y-117361411D01*
X142082904Y-117361414D01*
X142032500Y-117460338D01*
X142017314Y-117556220D01*
X142015131Y-117570000D01*
X140658533Y-117570000D01*
X140647500Y-117500339D01*
X140597095Y-117401413D01*
X140518587Y-117322905D01*
X140419661Y-117272500D01*
X140419662Y-117272500D01*
X140310000Y-117255131D01*
X140200338Y-117272500D01*
X140101414Y-117322904D01*
X140101411Y-117322906D01*
X140022906Y-117401411D01*
X140022904Y-117401414D01*
X139972500Y-117500338D01*
X139961467Y-117570000D01*
X139955131Y-117610000D01*
X135000500Y-117610000D01*
X135000500Y-116760000D01*
X140915131Y-116760000D01*
X140932500Y-116869661D01*
X140982905Y-116968587D01*
X141061413Y-117047095D01*
X141160339Y-117097500D01*
X141270000Y-117114869D01*
X141379661Y-117097500D01*
X141478587Y-117047095D01*
X141557095Y-116968587D01*
X141607500Y-116869661D01*
X141616950Y-116810000D01*
X157405131Y-116810000D01*
X157422500Y-116919661D01*
X157472905Y-117018587D01*
X157551413Y-117097095D01*
X157650339Y-117147500D01*
X157760000Y-117164869D01*
X157869661Y-117147500D01*
X157968587Y-117097095D01*
X158047095Y-117018587D01*
X158097500Y-116919661D01*
X158114869Y-116810000D01*
X158113285Y-116800000D01*
X159175131Y-116800000D01*
X159192500Y-116909661D01*
X159242905Y-117008587D01*
X159321413Y-117087095D01*
X159420339Y-117137500D01*
X159530000Y-117154869D01*
X159639661Y-117137500D01*
X159738587Y-117087095D01*
X159817095Y-117008587D01*
X159867500Y-116909661D01*
X159884869Y-116800000D01*
X159867500Y-116690339D01*
X159817095Y-116591413D01*
X159738587Y-116512905D01*
X159639661Y-116462500D01*
X159639662Y-116462500D01*
X159530000Y-116445131D01*
X159420338Y-116462500D01*
X159321414Y-116512904D01*
X159321411Y-116512906D01*
X159242906Y-116591411D01*
X159242904Y-116591414D01*
X159192500Y-116690338D01*
X159181467Y-116760000D01*
X159175131Y-116800000D01*
X158113285Y-116800000D01*
X158097500Y-116700339D01*
X158047095Y-116601413D01*
X157968587Y-116522905D01*
X157869661Y-116472500D01*
X157869662Y-116472500D01*
X157760000Y-116455131D01*
X157650338Y-116472500D01*
X157551414Y-116522904D01*
X157551411Y-116522906D01*
X157472906Y-116601411D01*
X157472904Y-116601414D01*
X157422500Y-116700338D01*
X157413051Y-116759999D01*
X157405131Y-116810000D01*
X141616950Y-116810000D01*
X141624869Y-116760000D01*
X141607500Y-116650339D01*
X141557095Y-116551413D01*
X141478587Y-116472905D01*
X141379661Y-116422500D01*
X141379662Y-116422500D01*
X141270000Y-116405131D01*
X141160338Y-116422500D01*
X141061414Y-116472904D01*
X141061411Y-116472906D01*
X140982906Y-116551411D01*
X140982904Y-116551414D01*
X140932500Y-116650338D01*
X140924581Y-116700339D01*
X140915131Y-116760000D01*
X135000500Y-116760000D01*
X135000500Y-116110000D01*
X145525131Y-116110000D01*
X145542500Y-116219661D01*
X145592905Y-116318587D01*
X145671413Y-116397095D01*
X145770339Y-116447500D01*
X145880000Y-116464869D01*
X145989661Y-116447500D01*
X146088587Y-116397095D01*
X146167095Y-116318587D01*
X146217500Y-116219661D01*
X146234869Y-116110000D01*
X146217500Y-116000339D01*
X146167095Y-115901413D01*
X146088587Y-115822905D01*
X145989661Y-115772500D01*
X145989662Y-115772500D01*
X145880000Y-115755131D01*
X145770338Y-115772500D01*
X145671414Y-115822904D01*
X145671411Y-115822906D01*
X145592906Y-115901411D01*
X145592904Y-115901414D01*
X145542500Y-116000338D01*
X145542500Y-116000339D01*
X145525131Y-116110000D01*
X135000500Y-116110000D01*
X135000500Y-115620000D01*
X148875131Y-115620000D01*
X148892500Y-115729661D01*
X148942904Y-115828585D01*
X148942906Y-115828588D01*
X148970475Y-115856157D01*
X149001760Y-115917557D01*
X148990980Y-115985619D01*
X148970481Y-116013836D01*
X148962906Y-116021411D01*
X148962904Y-116021414D01*
X148912500Y-116120338D01*
X148896769Y-116219661D01*
X148895131Y-116230000D01*
X148912500Y-116339661D01*
X148962905Y-116438587D01*
X149041413Y-116517095D01*
X149140339Y-116567500D01*
X149250000Y-116584869D01*
X149359661Y-116567500D01*
X149458587Y-116517095D01*
X149537095Y-116438587D01*
X149587500Y-116339661D01*
X149604869Y-116230000D01*
X149587500Y-116120339D01*
X149537095Y-116021413D01*
X149509522Y-115993840D01*
X149478238Y-115932440D01*
X149489020Y-115864378D01*
X149509520Y-115836161D01*
X149517095Y-115828587D01*
X149567500Y-115729661D01*
X149584869Y-115620000D01*
X149567500Y-115510339D01*
X149517095Y-115411413D01*
X149475682Y-115370000D01*
X151385131Y-115370000D01*
X151402500Y-115479661D01*
X151452905Y-115578587D01*
X151531413Y-115657095D01*
X151630339Y-115707500D01*
X151740000Y-115724869D01*
X151849661Y-115707500D01*
X151948587Y-115657095D01*
X151950037Y-115655644D01*
X151951862Y-115654714D01*
X151955684Y-115651938D01*
X151956123Y-115652543D01*
X152011431Y-115624358D01*
X152079494Y-115635133D01*
X152088104Y-115640409D01*
X152091412Y-115642094D01*
X152091413Y-115642095D01*
X152190339Y-115692500D01*
X152300000Y-115709869D01*
X152409661Y-115692500D01*
X152508587Y-115642095D01*
X152587095Y-115563587D01*
X152637500Y-115464661D01*
X152654869Y-115355000D01*
X152637500Y-115245339D01*
X152587095Y-115146413D01*
X152508587Y-115067905D01*
X152409661Y-115017500D01*
X152409662Y-115017500D01*
X152300000Y-115000131D01*
X152190338Y-115017500D01*
X152091414Y-115067904D01*
X152089955Y-115069363D01*
X152088121Y-115070297D01*
X152084316Y-115073062D01*
X152083877Y-115072458D01*
X152028553Y-115100643D01*
X151960492Y-115089859D01*
X151951892Y-115084589D01*
X151849661Y-115032500D01*
X151849662Y-115032500D01*
X151740000Y-115015131D01*
X151630338Y-115032500D01*
X151531414Y-115082904D01*
X151531411Y-115082906D01*
X151452906Y-115161411D01*
X151452904Y-115161414D01*
X151402500Y-115260338D01*
X151391007Y-115332904D01*
X151385131Y-115370000D01*
X149475682Y-115370000D01*
X149438587Y-115332905D01*
X149339661Y-115282500D01*
X149339662Y-115282500D01*
X149230000Y-115265131D01*
X149120338Y-115282500D01*
X149021414Y-115332904D01*
X149021411Y-115332906D01*
X148942906Y-115411411D01*
X148942904Y-115411414D01*
X148892500Y-115510338D01*
X148875131Y-115619999D01*
X148875131Y-115620000D01*
X135000500Y-115620000D01*
X135000500Y-115060000D01*
X145955131Y-115060000D01*
X145972500Y-115169661D01*
X146022905Y-115268587D01*
X146101413Y-115347095D01*
X146200339Y-115397500D01*
X146310000Y-115414869D01*
X146419661Y-115397500D01*
X146518587Y-115347095D01*
X146597095Y-115268587D01*
X146647500Y-115169661D01*
X146664869Y-115060000D01*
X146647500Y-114950339D01*
X146597095Y-114851413D01*
X146597094Y-114851412D01*
X146593111Y-114843594D01*
X146595771Y-114842238D01*
X146578797Y-114790006D01*
X146595769Y-114737760D01*
X146593111Y-114736406D01*
X146623332Y-114677093D01*
X146647500Y-114629661D01*
X146664869Y-114520000D01*
X146647500Y-114410339D01*
X146597095Y-114311413D01*
X146518587Y-114232905D01*
X146419661Y-114182500D01*
X146419662Y-114182500D01*
X146310000Y-114165131D01*
X146200338Y-114182500D01*
X146101414Y-114232904D01*
X146101411Y-114232906D01*
X146022906Y-114311411D01*
X146022904Y-114311414D01*
X145972500Y-114410338D01*
X145969440Y-114429661D01*
X145955131Y-114520000D01*
X145972500Y-114629661D01*
X145995534Y-114674869D01*
X146026889Y-114736406D01*
X146024231Y-114737760D01*
X146041202Y-114790018D01*
X146024233Y-114842241D01*
X146026889Y-114843594D01*
X145972500Y-114950338D01*
X145964614Y-115000131D01*
X145955131Y-115060000D01*
X135000500Y-115060000D01*
X135000500Y-113060000D01*
X146625131Y-113060000D01*
X146642500Y-113169661D01*
X146692905Y-113268587D01*
X146771413Y-113347095D01*
X146842623Y-113383378D01*
X146891349Y-113432103D01*
X146902129Y-113500166D01*
X146891350Y-113533342D01*
X146872500Y-113570337D01*
X146859227Y-113654141D01*
X146855131Y-113680000D01*
X146872500Y-113789661D01*
X146922905Y-113888587D01*
X147001413Y-113967095D01*
X147100339Y-114017500D01*
X147210000Y-114034869D01*
X147319661Y-114017500D01*
X147319663Y-114017498D01*
X147326910Y-114016351D01*
X147394973Y-114027130D01*
X147443701Y-114075857D01*
X147454481Y-114109034D01*
X147462500Y-114159661D01*
X147512905Y-114258587D01*
X147591413Y-114337095D01*
X147690339Y-114387500D01*
X147800000Y-114404869D01*
X147909661Y-114387500D01*
X148008587Y-114337095D01*
X148087095Y-114258587D01*
X148137500Y-114159661D01*
X148154869Y-114050000D01*
X148148533Y-114010000D01*
X149575131Y-114010000D01*
X149592500Y-114119661D01*
X149642905Y-114218587D01*
X149721413Y-114297095D01*
X149820339Y-114347500D01*
X149930000Y-114364869D01*
X149930000Y-114364868D01*
X149933227Y-114365380D01*
X149994627Y-114396665D01*
X150025911Y-114458062D01*
X150032500Y-114499662D01*
X150072715Y-114578588D01*
X150082905Y-114598587D01*
X150161413Y-114677095D01*
X150260339Y-114727500D01*
X150370000Y-114744869D01*
X150479661Y-114727500D01*
X150578587Y-114677095D01*
X150657095Y-114598587D01*
X150707500Y-114499661D01*
X150724869Y-114390000D01*
X150721701Y-114370000D01*
X151655131Y-114370000D01*
X151672500Y-114479661D01*
X151722905Y-114578587D01*
X151801413Y-114657095D01*
X151900339Y-114707500D01*
X152010000Y-114724869D01*
X152119661Y-114707500D01*
X152218587Y-114657095D01*
X152257146Y-114618535D01*
X152318541Y-114587253D01*
X152386604Y-114598032D01*
X152401292Y-114607033D01*
X152401412Y-114607094D01*
X152401413Y-114607095D01*
X152500339Y-114657500D01*
X152610000Y-114674869D01*
X152719661Y-114657500D01*
X152818587Y-114607095D01*
X152897095Y-114528587D01*
X152947500Y-114429661D01*
X152964869Y-114320000D01*
X152966242Y-114311332D01*
X152969364Y-114311826D01*
X152986164Y-114260124D01*
X153041914Y-114219619D01*
X153058918Y-114215536D01*
X153109661Y-114207500D01*
X153208587Y-114157095D01*
X153287095Y-114078587D01*
X153337500Y-113979661D01*
X153354869Y-113870000D01*
X153337500Y-113760339D01*
X153287095Y-113661413D01*
X153208587Y-113582905D01*
X153109661Y-113532500D01*
X153109662Y-113532500D01*
X153000000Y-113515131D01*
X152890338Y-113532500D01*
X152791414Y-113582904D01*
X152791411Y-113582906D01*
X152712906Y-113661411D01*
X152712904Y-113661414D01*
X152662500Y-113760338D01*
X152643758Y-113878667D01*
X152640635Y-113878172D01*
X152623836Y-113929875D01*
X152568086Y-113970380D01*
X152551075Y-113974464D01*
X152500337Y-113982500D01*
X152401414Y-114032904D01*
X152362856Y-114071462D01*
X152301455Y-114102746D01*
X152233393Y-114091966D01*
X152218709Y-114082967D01*
X152119661Y-114032500D01*
X152119662Y-114032500D01*
X152010000Y-114015131D01*
X151900338Y-114032500D01*
X151801414Y-114082904D01*
X151801411Y-114082906D01*
X151722906Y-114161411D01*
X151722904Y-114161414D01*
X151672500Y-114260338D01*
X151666679Y-114297093D01*
X151655131Y-114370000D01*
X150721701Y-114370000D01*
X150707500Y-114280339D01*
X150657095Y-114181413D01*
X150578587Y-114102905D01*
X150479661Y-114052500D01*
X150479662Y-114052500D01*
X150366771Y-114034619D01*
X150305372Y-114003334D01*
X150274088Y-113941935D01*
X150267500Y-113900339D01*
X150217095Y-113801413D01*
X150138587Y-113722905D01*
X150039661Y-113672500D01*
X150039662Y-113672500D01*
X149930000Y-113655131D01*
X149820338Y-113672500D01*
X149721414Y-113722904D01*
X149721411Y-113722906D01*
X149642906Y-113801411D01*
X149642904Y-113801414D01*
X149592500Y-113900338D01*
X149581927Y-113967095D01*
X149575131Y-114010000D01*
X148148533Y-114010000D01*
X148137500Y-113940339D01*
X148087095Y-113841413D01*
X148008587Y-113762905D01*
X147909661Y-113712500D01*
X147909662Y-113712500D01*
X147800000Y-113695131D01*
X147799999Y-113695131D01*
X147683088Y-113713648D01*
X147615025Y-113702868D01*
X147566298Y-113654141D01*
X147555518Y-113620964D01*
X147549490Y-113582905D01*
X147547500Y-113570339D01*
X147497095Y-113471413D01*
X147418587Y-113392905D01*
X147347376Y-113356621D01*
X147298650Y-113307895D01*
X147287870Y-113239833D01*
X147298647Y-113206660D01*
X147317500Y-113169661D01*
X147334869Y-113060000D01*
X147325366Y-113000000D01*
X153145131Y-113000000D01*
X153162500Y-113109661D01*
X153212905Y-113208587D01*
X153291413Y-113287095D01*
X153390339Y-113337500D01*
X153500000Y-113354869D01*
X153609661Y-113337500D01*
X153708587Y-113287095D01*
X153787095Y-113208587D01*
X153837500Y-113109661D01*
X153854869Y-113000000D01*
X153837500Y-112890339D01*
X153787095Y-112791413D01*
X153708587Y-112712905D01*
X153609661Y-112662500D01*
X153609662Y-112662500D01*
X153500000Y-112645131D01*
X153390338Y-112662500D01*
X153291414Y-112712904D01*
X153291411Y-112712906D01*
X153212906Y-112791411D01*
X153212904Y-112791414D01*
X153162500Y-112890338D01*
X153162500Y-112890339D01*
X153145131Y-113000000D01*
X147325366Y-113000000D01*
X147317500Y-112950339D01*
X147267095Y-112851413D01*
X147188587Y-112772905D01*
X147089661Y-112722500D01*
X147089662Y-112722500D01*
X146980000Y-112705131D01*
X146870338Y-112722500D01*
X146771414Y-112772904D01*
X146771411Y-112772906D01*
X146692906Y-112851411D01*
X146692904Y-112851414D01*
X146642500Y-112950338D01*
X146642500Y-112950339D01*
X146625131Y-113060000D01*
X135000500Y-113060000D01*
X135000500Y-112400000D01*
X145345131Y-112400000D01*
X145362500Y-112509661D01*
X145412905Y-112608587D01*
X145491413Y-112687095D01*
X145590339Y-112737500D01*
X145700000Y-112754869D01*
X145809661Y-112737500D01*
X145908587Y-112687095D01*
X145987095Y-112608587D01*
X146037500Y-112509661D01*
X146054869Y-112400000D01*
X146037500Y-112290339D01*
X145987095Y-112191413D01*
X145908587Y-112112905D01*
X145809661Y-112062500D01*
X145809662Y-112062500D01*
X145700000Y-112045131D01*
X145590338Y-112062500D01*
X145491414Y-112112904D01*
X145491411Y-112112906D01*
X145412906Y-112191411D01*
X145412904Y-112191414D01*
X145362500Y-112290338D01*
X145362500Y-112290339D01*
X145345131Y-112400000D01*
X135000500Y-112400000D01*
X135000500Y-110560000D01*
X153164383Y-110560000D01*
X153184725Y-110688433D01*
X153243759Y-110804294D01*
X153335706Y-110896241D01*
X153451567Y-110955275D01*
X153488491Y-110961123D01*
X153549891Y-110992407D01*
X153581176Y-111053807D01*
X153581176Y-111088692D01*
X153565131Y-111189998D01*
X153565131Y-111190000D01*
X153582500Y-111299661D01*
X153632905Y-111398587D01*
X153711413Y-111477095D01*
X153810339Y-111527500D01*
X153920000Y-111544869D01*
X153939241Y-111541821D01*
X154007302Y-111552600D01*
X154056030Y-111601326D01*
X154066812Y-111669388D01*
X154066811Y-111669389D01*
X154065131Y-111679996D01*
X154065131Y-111679999D01*
X154065131Y-111680000D01*
X154082500Y-111789661D01*
X154132905Y-111888587D01*
X154211413Y-111967095D01*
X154310339Y-112017500D01*
X154420000Y-112034869D01*
X154529661Y-112017500D01*
X154628587Y-111967095D01*
X154707095Y-111888587D01*
X154757500Y-111789661D01*
X154774869Y-111680000D01*
X154774868Y-111679996D01*
X154772117Y-111662630D01*
X154757500Y-111570339D01*
X154707095Y-111471413D01*
X154628587Y-111392905D01*
X154529661Y-111342500D01*
X154529662Y-111342500D01*
X154420000Y-111325131D01*
X154400755Y-111328179D01*
X154332693Y-111317397D01*
X154283967Y-111268669D01*
X154273188Y-111200610D01*
X154274869Y-111190000D01*
X154274645Y-111188588D01*
X154258976Y-111089661D01*
X154257500Y-111080339D01*
X154207095Y-110981413D01*
X154205682Y-110980000D01*
X155085131Y-110980000D01*
X155102500Y-111089661D01*
X155152905Y-111188587D01*
X155231413Y-111267095D01*
X155330339Y-111317500D01*
X155440000Y-111334869D01*
X155549661Y-111317500D01*
X155648587Y-111267095D01*
X155699012Y-111216669D01*
X155760408Y-111185387D01*
X155828467Y-111196165D01*
X155870339Y-111217500D01*
X155980000Y-111234869D01*
X156089661Y-111217500D01*
X156188587Y-111167095D01*
X156267095Y-111088587D01*
X156317500Y-110989661D01*
X156334869Y-110880000D01*
X156317500Y-110770339D01*
X156267095Y-110671413D01*
X156188587Y-110592905D01*
X156089661Y-110542500D01*
X156089662Y-110542500D01*
X155980000Y-110525131D01*
X155870338Y-110542500D01*
X155771414Y-110592904D01*
X155720990Y-110643328D01*
X155659589Y-110674612D01*
X155591529Y-110663832D01*
X155549664Y-110642501D01*
X155549662Y-110642500D01*
X155440000Y-110625131D01*
X155330338Y-110642500D01*
X155231414Y-110692904D01*
X155231411Y-110692906D01*
X155152906Y-110771411D01*
X155152904Y-110771414D01*
X155102500Y-110870338D01*
X155102500Y-110870339D01*
X155085131Y-110980000D01*
X154205682Y-110980000D01*
X154128587Y-110902905D01*
X154029661Y-110852500D01*
X154021842Y-110848516D01*
X154023335Y-110845584D01*
X153979688Y-110813873D01*
X153958392Y-110748336D01*
X153970545Y-110697715D01*
X153975275Y-110688433D01*
X153995617Y-110560000D01*
X153975275Y-110431567D01*
X153916241Y-110315706D01*
X153824294Y-110223759D01*
X153708433Y-110164725D01*
X153708434Y-110164725D01*
X153580001Y-110144383D01*
X153579999Y-110144383D01*
X153451566Y-110164725D01*
X153335707Y-110223758D01*
X153335704Y-110223760D01*
X153243760Y-110315704D01*
X153243758Y-110315707D01*
X153184725Y-110431566D01*
X153177867Y-110474869D01*
X153164383Y-110560000D01*
X135000500Y-110560000D01*
X135000500Y-110120000D01*
X145445131Y-110120000D01*
X145462500Y-110229661D01*
X145512905Y-110328587D01*
X145591413Y-110407095D01*
X145690339Y-110457500D01*
X145800000Y-110474869D01*
X145909661Y-110457500D01*
X146008587Y-110407095D01*
X146087095Y-110328587D01*
X146137500Y-110229661D01*
X146154869Y-110120000D01*
X146137500Y-110010339D01*
X146087095Y-109911413D01*
X146008587Y-109832905D01*
X145909661Y-109782500D01*
X145909662Y-109782500D01*
X145800000Y-109765131D01*
X145690338Y-109782500D01*
X145591414Y-109832904D01*
X145591411Y-109832906D01*
X145512906Y-109911411D01*
X145512904Y-109911414D01*
X145462500Y-110010338D01*
X145462500Y-110010339D01*
X145445131Y-110120000D01*
X135000500Y-110120000D01*
X135000500Y-108400000D01*
X145445131Y-108400000D01*
X145462500Y-108509661D01*
X145512905Y-108608587D01*
X145530477Y-108626159D01*
X145561761Y-108687560D01*
X145550979Y-108755622D01*
X145530478Y-108783840D01*
X145522904Y-108791414D01*
X145472500Y-108890338D01*
X145472500Y-108890339D01*
X145455131Y-109000000D01*
X145472500Y-109109661D01*
X145522905Y-109208587D01*
X145601413Y-109287095D01*
X145700339Y-109337500D01*
X145810000Y-109354869D01*
X145919661Y-109337500D01*
X146018587Y-109287095D01*
X146097095Y-109208587D01*
X146147500Y-109109661D01*
X146164869Y-109000000D01*
X146147500Y-108890339D01*
X146097095Y-108791413D01*
X146079524Y-108773842D01*
X146048239Y-108712442D01*
X146059019Y-108644380D01*
X146079524Y-108616158D01*
X146087095Y-108608587D01*
X146137500Y-108509661D01*
X146154869Y-108400000D01*
X146137500Y-108290339D01*
X146089163Y-108195473D01*
X146078384Y-108127411D01*
X146109667Y-108066014D01*
X146147095Y-108028587D01*
X146197500Y-107929661D01*
X146214869Y-107820000D01*
X146197500Y-107710339D01*
X146147095Y-107611413D01*
X146068587Y-107532905D01*
X145969661Y-107482500D01*
X145969662Y-107482500D01*
X145860000Y-107465131D01*
X145750338Y-107482500D01*
X145651414Y-107532904D01*
X145651411Y-107532906D01*
X145572906Y-107611411D01*
X145572904Y-107611414D01*
X145522500Y-107710338D01*
X145505131Y-107819999D01*
X145505131Y-107820000D01*
X145522500Y-107929662D01*
X145522501Y-107929664D01*
X145570835Y-108024526D01*
X145581615Y-108092588D01*
X145550331Y-108153987D01*
X145512904Y-108191414D01*
X145462500Y-108290338D01*
X145462500Y-108290339D01*
X145445131Y-108400000D01*
X135000500Y-108400000D01*
X135000500Y-107340000D01*
X152595131Y-107340000D01*
X152612500Y-107449661D01*
X152662905Y-107548587D01*
X152741413Y-107627095D01*
X152840339Y-107677500D01*
X152950000Y-107694869D01*
X153059661Y-107677500D01*
X153158587Y-107627095D01*
X153237095Y-107548587D01*
X153287500Y-107449661D01*
X153304869Y-107340000D01*
X153287500Y-107230339D01*
X153237095Y-107131413D01*
X153158587Y-107052905D01*
X153059661Y-107002500D01*
X153059662Y-107002500D01*
X152950000Y-106985131D01*
X152840338Y-107002500D01*
X152741414Y-107052904D01*
X152741411Y-107052906D01*
X152662906Y-107131411D01*
X152662904Y-107131414D01*
X152612500Y-107230338D01*
X152612500Y-107230339D01*
X152595131Y-107340000D01*
X135000500Y-107340000D01*
X135000500Y-106470000D01*
X150785131Y-106470000D01*
X150802500Y-106579661D01*
X150852905Y-106678587D01*
X150931413Y-106757095D01*
X151030339Y-106807500D01*
X151140000Y-106824869D01*
X151249661Y-106807500D01*
X151348587Y-106757095D01*
X151427095Y-106678587D01*
X151477500Y-106579661D01*
X151494869Y-106470000D01*
X151477500Y-106360339D01*
X151427095Y-106261413D01*
X151348587Y-106182905D01*
X151249661Y-106132500D01*
X151249662Y-106132500D01*
X151140000Y-106115131D01*
X151030338Y-106132500D01*
X150931414Y-106182904D01*
X150931411Y-106182906D01*
X150852906Y-106261411D01*
X150852904Y-106261414D01*
X150802500Y-106360338D01*
X150802500Y-106360339D01*
X150785131Y-106470000D01*
X135000500Y-106470000D01*
X135000500Y-105840000D01*
X144145131Y-105840000D01*
X144162500Y-105949661D01*
X144212905Y-106048587D01*
X144291413Y-106127095D01*
X144390339Y-106177500D01*
X144500000Y-106194869D01*
X144609661Y-106177500D01*
X144708587Y-106127095D01*
X144708592Y-106127089D01*
X144715684Y-106121938D01*
X144718067Y-106125218D01*
X144763821Y-106101793D01*
X144831902Y-106112439D01*
X144920339Y-106157500D01*
X145030000Y-106174869D01*
X145139661Y-106157500D01*
X145238587Y-106107095D01*
X145317095Y-106028587D01*
X145367500Y-105929661D01*
X145384869Y-105820000D01*
X145367500Y-105710339D01*
X145317095Y-105611413D01*
X145238587Y-105532905D01*
X145139661Y-105482500D01*
X145139662Y-105482500D01*
X145030000Y-105465131D01*
X144920338Y-105482500D01*
X144821414Y-105532904D01*
X144814316Y-105538062D01*
X144811971Y-105534835D01*
X144765747Y-105558274D01*
X144697900Y-105547460D01*
X144609661Y-105502500D01*
X144609662Y-105502500D01*
X144500000Y-105485131D01*
X144390338Y-105502500D01*
X144291414Y-105552904D01*
X144291411Y-105552906D01*
X144212906Y-105631411D01*
X144212904Y-105631414D01*
X144162500Y-105730338D01*
X144162500Y-105730339D01*
X144145131Y-105840000D01*
X135000500Y-105840000D01*
X135000500Y-104510000D01*
X145585131Y-104510000D01*
X145602500Y-104619661D01*
X145652905Y-104718587D01*
X145731413Y-104797095D01*
X145830339Y-104847500D01*
X145940000Y-104864869D01*
X146049661Y-104847500D01*
X146148587Y-104797095D01*
X146227095Y-104718587D01*
X146277500Y-104619661D01*
X146294869Y-104510000D01*
X146277500Y-104400339D01*
X146256946Y-104360000D01*
X150045131Y-104360000D01*
X150062500Y-104469661D01*
X150112905Y-104568587D01*
X150191413Y-104647095D01*
X150290339Y-104697500D01*
X150400000Y-104714869D01*
X150509661Y-104697500D01*
X150594569Y-104654237D01*
X150662628Y-104643458D01*
X150695806Y-104654238D01*
X150701412Y-104657094D01*
X150701413Y-104657095D01*
X150800339Y-104707500D01*
X150910000Y-104724869D01*
X151019661Y-104707500D01*
X151118587Y-104657095D01*
X151197095Y-104578587D01*
X151247500Y-104479661D01*
X151264869Y-104370000D01*
X151247500Y-104260339D01*
X151197095Y-104161413D01*
X151118587Y-104082905D01*
X151019661Y-104032500D01*
X151019662Y-104032500D01*
X150910000Y-104015131D01*
X150800339Y-104032500D01*
X150715432Y-104075762D01*
X150647370Y-104086541D01*
X150614194Y-104075761D01*
X150509664Y-104022501D01*
X150509662Y-104022500D01*
X150400000Y-104005131D01*
X150290338Y-104022500D01*
X150191414Y-104072904D01*
X150191411Y-104072906D01*
X150112906Y-104151411D01*
X150112904Y-104151414D01*
X150062500Y-104250338D01*
X150062500Y-104250339D01*
X150045131Y-104360000D01*
X146256946Y-104360000D01*
X146227095Y-104301413D01*
X146148587Y-104222905D01*
X146049661Y-104172500D01*
X146049662Y-104172500D01*
X145940000Y-104155131D01*
X145830338Y-104172500D01*
X145731414Y-104222904D01*
X145731411Y-104222906D01*
X145652906Y-104301411D01*
X145652904Y-104301414D01*
X145602500Y-104400338D01*
X145602500Y-104400339D01*
X145585131Y-104510000D01*
X135000500Y-104510000D01*
X135000500Y-102160000D01*
X148865131Y-102160000D01*
X148882500Y-102269661D01*
X148932905Y-102368587D01*
X149011413Y-102447095D01*
X149110339Y-102497500D01*
X149220000Y-102514869D01*
X149329661Y-102497500D01*
X149414569Y-102454237D01*
X149482628Y-102443458D01*
X149515806Y-102454238D01*
X149521412Y-102457094D01*
X149521413Y-102457095D01*
X149620339Y-102507500D01*
X149730000Y-102524869D01*
X149839661Y-102507500D01*
X149938587Y-102457095D01*
X150017095Y-102378587D01*
X150067500Y-102279661D01*
X150084869Y-102170000D01*
X150067500Y-102060339D01*
X150017095Y-101961413D01*
X149938587Y-101882905D01*
X149839661Y-101832500D01*
X149839662Y-101832500D01*
X149730000Y-101815131D01*
X149620339Y-101832500D01*
X149535432Y-101875762D01*
X149467370Y-101886541D01*
X149434194Y-101875761D01*
X149329664Y-101822501D01*
X149329662Y-101822500D01*
X149220000Y-101805131D01*
X149110338Y-101822500D01*
X149011414Y-101872904D01*
X149011411Y-101872906D01*
X148932906Y-101951411D01*
X148932904Y-101951414D01*
X148882500Y-102050338D01*
X148882500Y-102050339D01*
X148865131Y-102160000D01*
X135000500Y-102160000D01*
X135000500Y-100600000D01*
X152835131Y-100600000D01*
X152852500Y-100709661D01*
X152902905Y-100808587D01*
X152981413Y-100887095D01*
X153080339Y-100937500D01*
X153190000Y-100954869D01*
X153299661Y-100937500D01*
X153398587Y-100887095D01*
X153477095Y-100808587D01*
X153527500Y-100709661D01*
X153544869Y-100600000D01*
X153785131Y-100600000D01*
X153802500Y-100709661D01*
X153852905Y-100808587D01*
X153931413Y-100887095D01*
X154030339Y-100937500D01*
X154140000Y-100954869D01*
X154249661Y-100937500D01*
X154348587Y-100887095D01*
X154427095Y-100808587D01*
X154456888Y-100750113D01*
X154505612Y-100701388D01*
X154573675Y-100690606D01*
X154635075Y-100721890D01*
X154655581Y-100750114D01*
X154713757Y-100864291D01*
X154713759Y-100864294D01*
X154805706Y-100956241D01*
X154921567Y-101015275D01*
X155025828Y-101031788D01*
X155049999Y-101035617D01*
X155050000Y-101035617D01*
X155050001Y-101035617D01*
X155067561Y-101032835D01*
X155178433Y-101015275D01*
X155294294Y-100956241D01*
X155386241Y-100864294D01*
X155445275Y-100748433D01*
X155465617Y-100620000D01*
X155845131Y-100620000D01*
X155862500Y-100729661D01*
X155912905Y-100828587D01*
X155991413Y-100907095D01*
X156090339Y-100957500D01*
X156200000Y-100974869D01*
X156309661Y-100957500D01*
X156408587Y-100907095D01*
X156487095Y-100828587D01*
X156487097Y-100828581D01*
X156492254Y-100821486D01*
X156494182Y-100822887D01*
X156534380Y-100782690D01*
X156602442Y-100771910D01*
X156663842Y-100803194D01*
X156677343Y-100821778D01*
X156677746Y-100821486D01*
X156682904Y-100828585D01*
X156682905Y-100828587D01*
X156761413Y-100907095D01*
X156860339Y-100957500D01*
X156970000Y-100974869D01*
X157079661Y-100957500D01*
X157178587Y-100907095D01*
X157257095Y-100828587D01*
X157307500Y-100729661D01*
X157324869Y-100620000D01*
X157307500Y-100510339D01*
X157257095Y-100411413D01*
X157178587Y-100332905D01*
X157079661Y-100282500D01*
X157079662Y-100282500D01*
X156970000Y-100265131D01*
X156860338Y-100282500D01*
X156761414Y-100332904D01*
X156761411Y-100332906D01*
X156682906Y-100411411D01*
X156677746Y-100418514D01*
X156675818Y-100417113D01*
X156635612Y-100457313D01*
X156567549Y-100468088D01*
X156506151Y-100436798D01*
X156492655Y-100418222D01*
X156492254Y-100418514D01*
X156487096Y-100411415D01*
X156487095Y-100411413D01*
X156408587Y-100332905D01*
X156309661Y-100282500D01*
X156309662Y-100282500D01*
X156200000Y-100265131D01*
X156090338Y-100282500D01*
X155991414Y-100332904D01*
X155991411Y-100332906D01*
X155912906Y-100411411D01*
X155912904Y-100411414D01*
X155862500Y-100510338D01*
X155861190Y-100518612D01*
X155845131Y-100620000D01*
X155465617Y-100620000D01*
X155445275Y-100491567D01*
X155386241Y-100375706D01*
X155294294Y-100283759D01*
X155178433Y-100224725D01*
X155178434Y-100224725D01*
X155050001Y-100204383D01*
X155049999Y-100204383D01*
X154921566Y-100224725D01*
X154805707Y-100283758D01*
X154805704Y-100283760D01*
X154713760Y-100375704D01*
X154713757Y-100375708D01*
X154665772Y-100469885D01*
X154617045Y-100518612D01*
X154548982Y-100529392D01*
X154487582Y-100498107D01*
X154467078Y-100469885D01*
X154427095Y-100391413D01*
X154348587Y-100312905D01*
X154249661Y-100262500D01*
X154249662Y-100262500D01*
X154140000Y-100245131D01*
X154030338Y-100262500D01*
X153931414Y-100312904D01*
X153931411Y-100312906D01*
X153852906Y-100391411D01*
X153852904Y-100391414D01*
X153802500Y-100490338D01*
X153801270Y-100498107D01*
X153785131Y-100600000D01*
X153544869Y-100600000D01*
X153527500Y-100490339D01*
X153477095Y-100391413D01*
X153398587Y-100312905D01*
X153299661Y-100262500D01*
X153299662Y-100262500D01*
X153190000Y-100245131D01*
X153080338Y-100262500D01*
X152981414Y-100312904D01*
X152981411Y-100312906D01*
X152902906Y-100391411D01*
X152902904Y-100391414D01*
X152852500Y-100490338D01*
X152851270Y-100498107D01*
X152835131Y-100600000D01*
X135000500Y-100600000D01*
X135000500Y-99058179D01*
X135000508Y-99056812D01*
X135000529Y-99055091D01*
X135001189Y-99001312D01*
X135001254Y-98998684D01*
X135003953Y-98925404D01*
X135003993Y-98924439D01*
X135008483Y-98827327D01*
X135009569Y-98805212D01*
X135009724Y-98802698D01*
X135023856Y-98611104D01*
X135024392Y-98605675D01*
X135047728Y-98416472D01*
X135048522Y-98411121D01*
X135081117Y-98223274D01*
X135082182Y-98217920D01*
X135123957Y-98031885D01*
X135125270Y-98026642D01*
X135176132Y-97842852D01*
X135177701Y-97837680D01*
X135237511Y-97656634D01*
X135239325Y-97651563D01*
X135307969Y-97473607D01*
X135310022Y-97468651D01*
X135387292Y-97294334D01*
X135389604Y-97289444D01*
X135475345Y-97119104D01*
X135477898Y-97114328D01*
X135571872Y-96948441D01*
X135574651Y-96943803D01*
X135676698Y-96782652D01*
X135679668Y-96778208D01*
X135789487Y-96622277D01*
X135792707Y-96617935D01*
X135910037Y-96467592D01*
X135913424Y-96463465D01*
X136038007Y-96319036D01*
X136041616Y-96315056D01*
X136173093Y-96176962D01*
X136176962Y-96173093D01*
X136178613Y-96171520D01*
X136315056Y-96041616D01*
X136319036Y-96038007D01*
X136463465Y-95913424D01*
X136467592Y-95910037D01*
X136617935Y-95792707D01*
X136622277Y-95789487D01*
X136778208Y-95679668D01*
X136782652Y-95676698D01*
X136943803Y-95574651D01*
X136948441Y-95571872D01*
X137114328Y-95477898D01*
X137119104Y-95475345D01*
X137289413Y-95389620D01*
X137294319Y-95387299D01*
X137468641Y-95310027D01*
X137473618Y-95307965D01*
X137651535Y-95239335D01*
X137656637Y-95237510D01*
X137837687Y-95177699D01*
X137842857Y-95176131D01*
X138026642Y-95125270D01*
X138031885Y-95123957D01*
X138217923Y-95082181D01*
X138223274Y-95081117D01*
X138411121Y-95048522D01*
X138416472Y-95047728D01*
X138605693Y-95024390D01*
X138611104Y-95023856D01*
X138802697Y-95009724D01*
X138805266Y-95009567D01*
X138827282Y-95008485D01*
X138924506Y-95003990D01*
X138925405Y-95003953D01*
X138998684Y-95001254D01*
X139001312Y-95001189D01*
X139055091Y-95000529D01*
X139056812Y-95000508D01*
X139058179Y-95000500D01*
X160941821Y-95000500D01*
X160943188Y-95000508D01*
G37*
%TD.AperFunction*%
%TD*%
M02*
