%TF.GenerationSoftware,KiCad,Pcbnew,7.0.10*%
%TF.CreationDate,2024-02-16T19:11:31+00:00*%
%TF.ProjectId,Microsemi-MX1DS10P,4d696372-6f73-4656-9d69-2d4d58314453,rev?*%
%TF.SameCoordinates,Original*%
%TF.FileFunction,Paste,Top*%
%TF.FilePolarity,Positive*%
%FSLAX46Y46*%
G04 Gerber Fmt 4.6, Leading zero omitted, Abs format (unit mm)*
G04 Created by KiCad (PCBNEW 7.0.10) date 2024-02-16 19:11:31*
%MOMM*%
%LPD*%
G01*
G04 APERTURE LIST*
G04 Aperture macros list*
%AMRoundRect*
0 Rectangle with rounded corners*
0 $1 Rounding radius*
0 $2 $3 $4 $5 $6 $7 $8 $9 X,Y pos of 4 corners*
0 Add a 4 corners polygon primitive as box body*
4,1,4,$2,$3,$4,$5,$6,$7,$8,$9,$2,$3,0*
0 Add four circle primitives for the rounded corners*
1,1,$1+$1,$2,$3*
1,1,$1+$1,$4,$5*
1,1,$1+$1,$6,$7*
1,1,$1+$1,$8,$9*
0 Add four rect primitives between the rounded corners*
20,1,$1+$1,$2,$3,$4,$5,0*
20,1,$1+$1,$4,$5,$6,$7,0*
20,1,$1+$1,$6,$7,$8,$9,0*
20,1,$1+$1,$8,$9,$2,$3,0*%
%AMFreePoly0*
4,1,93,0.006530,2.344911,0.071157,2.344911,0.077575,2.343026,0.084259,2.342849,0.145712,2.323019,0.207708,2.304816,0.213335,2.301199,0.219699,2.299146,0.273087,2.262799,0.327430,2.227875,0.331809,2.222820,0.337338,2.219057,0.378328,2.169135,0.420627,2.120320,0.423405,2.114236,0.427649,2.109068,0.452917,2.049612,0.479746,1.990866,0.480697,1.984248,0.483314,1.978092,
0.490807,1.913930,0.500000,1.850000,0.500000,-1.850000,0.494911,-1.885393,0.494911,-1.921157,0.484834,-1.955473,0.479746,-1.990866,0.464892,-2.023391,0.454816,-2.057708,0.435481,-2.087793,0.420627,-2.120320,0.397209,-2.147345,0.377875,-2.177430,0.350848,-2.200848,0.327430,-2.227875,0.297345,-2.247209,0.270320,-2.270627,0.237793,-2.285481,0.207708,-2.304816,0.173391,-2.314892,
0.140866,-2.329746,0.105473,-2.334834,0.071157,-2.344911,0.035394,-2.344911,0.000000,-2.350000,-2.000000,-2.350000,-2.035394,-2.344911,-2.071157,-2.344911,-2.105473,-2.334834,-2.140866,-2.329746,-2.173391,-2.314892,-2.207708,-2.304816,-2.237793,-2.285481,-2.270320,-2.270627,-2.297345,-2.247209,-2.327430,-2.227875,-2.350848,-2.200848,-2.377875,-2.177430,-2.397209,-2.147345,-2.420627,-2.120320,
-2.435481,-2.087793,-2.454816,-2.057708,-2.464892,-2.023391,-2.479746,-1.990866,-2.484834,-1.955473,-2.494911,-1.921157,-2.494911,-1.885393,-2.500000,-1.850000,-2.500000,1.000000,-2.499048,1.006620,-2.499824,1.013263,-2.488937,1.076938,-2.479746,1.140866,-2.476968,1.146948,-2.475841,1.153542,-2.447458,1.211566,-2.420627,1.270320,-2.416246,1.275375,-2.413308,1.281383,-2.369734,1.329053,
-2.327430,1.377875,-2.321801,1.381491,-2.317291,1.386427,-2.262067,1.419881,-2.207708,1.454816,-2.201287,1.456701,-2.195570,1.460165,-0.195571,2.310165,-0.133159,2.326705,-0.071157,2.344911,-0.064465,2.344911,-0.058005,2.346623,0.006530,2.344911,0.006530,2.344911,$1*%
%AMFreePoly1*
4,1,93,0.064465,2.344911,0.071157,2.344911,0.133164,2.326703,0.195570,2.310165,2.195570,1.460166,2.201290,1.456700,2.207708,1.454816,2.262054,1.419889,2.317291,1.386427,2.321801,1.381491,2.327430,1.377875,2.369734,1.329053,2.413308,1.281383,2.416246,1.275375,2.420627,1.270320,2.447458,1.211566,2.475841,1.153542,2.476968,1.146948,2.479746,1.140866,2.488937,1.076938,
2.499824,1.013263,2.499048,1.006620,2.500000,1.000000,2.500000,-1.850000,2.494911,-1.885393,2.494911,-1.921157,2.484834,-1.955473,2.479746,-1.990866,2.464892,-2.023391,2.454816,-2.057708,2.435481,-2.087793,2.420627,-2.120320,2.397209,-2.147345,2.377875,-2.177430,2.350848,-2.200848,2.327430,-2.227875,2.297345,-2.247209,2.270320,-2.270627,2.237793,-2.285481,2.207708,-2.304816,
2.173391,-2.314892,2.140866,-2.329746,2.105473,-2.334834,2.071157,-2.344911,2.035394,-2.344911,2.000000,-2.350000,0.000000,-2.350000,-0.035394,-2.344911,-0.071157,-2.344911,-0.105473,-2.334834,-0.140866,-2.329746,-0.173391,-2.314892,-0.207708,-2.304816,-0.237793,-2.285481,-0.270320,-2.270627,-0.297345,-2.247209,-0.327430,-2.227875,-0.350848,-2.200848,-0.377875,-2.177430,-0.397209,-2.147345,
-0.420627,-2.120320,-0.435481,-2.087793,-0.454816,-2.057708,-0.464892,-2.023391,-0.479746,-1.990866,-0.484834,-1.955473,-0.494911,-1.921157,-0.494911,-1.885393,-0.500000,-1.850000,-0.500000,1.850000,-0.490807,1.913930,-0.483314,1.978092,-0.480697,1.984248,-0.479746,1.990866,-0.452925,2.049595,-0.427650,2.109068,-0.423404,2.114239,-0.420627,2.120320,-0.378336,2.169125,-0.337338,2.219057,
-0.331809,2.222820,-0.327430,2.227875,-0.273087,2.262799,-0.219699,2.299146,-0.213335,2.301199,-0.207708,2.304816,-0.145719,2.323017,-0.084260,2.342849,-0.077575,2.343026,-0.071157,2.344911,-0.006531,2.344911,0.058005,2.346623,0.064465,2.344911,0.064465,2.344911,$1*%
G04 Aperture macros list end*
%ADD10RoundRect,0.250000X2.290000X-0.250000X2.290000X0.250000X-2.290000X0.250000X-2.290000X-0.250000X0*%
%ADD11FreePoly0,90.000000*%
%ADD12FreePoly1,90.000000*%
%ADD13RoundRect,0.135000X0.135000X0.185000X-0.135000X0.185000X-0.135000X-0.185000X0.135000X-0.185000X0*%
%ADD14RoundRect,0.250000X-2.290000X0.250000X-2.290000X-0.250000X2.290000X-0.250000X2.290000X0.250000X0*%
%ADD15FreePoly0,270.000000*%
%ADD16FreePoly1,270.000000*%
%ADD17RoundRect,0.147500X0.017678X-0.226274X0.226274X-0.017678X-0.017678X0.226274X-0.226274X0.017678X0*%
%ADD18RoundRect,0.135000X0.185000X-0.135000X0.185000X0.135000X-0.185000X0.135000X-0.185000X-0.135000X0*%
%ADD19RoundRect,0.077500X0.077500X0.422500X-0.077500X0.422500X-0.077500X-0.422500X0.077500X-0.422500X0*%
%ADD20RoundRect,0.077500X0.422500X-0.077500X0.422500X0.077500X-0.422500X0.077500X-0.422500X-0.077500X0*%
%ADD21RoundRect,0.135000X-0.185000X0.135000X-0.185000X-0.135000X0.185000X-0.135000X0.185000X0.135000X0*%
%ADD22R,1.000000X2.580000*%
%ADD23RoundRect,0.200000X-0.200000X-0.275000X0.200000X-0.275000X0.200000X0.275000X-0.200000X0.275000X0*%
%ADD24RoundRect,0.135000X-0.135000X-0.185000X0.135000X-0.185000X0.135000X0.185000X-0.135000X0.185000X0*%
%ADD25RoundRect,0.250000X0.250000X2.290000X-0.250000X2.290000X-0.250000X-2.290000X0.250000X-2.290000X0*%
%ADD26FreePoly0,180.000000*%
%ADD27FreePoly1,180.000000*%
%ADD28RoundRect,0.200000X-0.275000X0.200000X-0.275000X-0.200000X0.275000X-0.200000X0.275000X0.200000X0*%
%ADD29RoundRect,0.062500X-0.062500X-0.350000X0.062500X-0.350000X0.062500X0.350000X-0.062500X0.350000X0*%
%ADD30RoundRect,0.062500X-0.350000X-0.062500X0.350000X-0.062500X0.350000X0.062500X-0.350000X0.062500X0*%
%ADD31RoundRect,0.232500X-0.232500X-0.232500X0.232500X-0.232500X0.232500X0.232500X-0.232500X0.232500X0*%
%ADD32RoundRect,0.200000X0.200000X0.275000X-0.200000X0.275000X-0.200000X-0.275000X0.200000X-0.275000X0*%
%ADD33RoundRect,0.250000X0.312500X0.625000X-0.312500X0.625000X-0.312500X-0.625000X0.312500X-0.625000X0*%
%ADD34RoundRect,0.200000X0.275000X-0.200000X0.275000X0.200000X-0.275000X0.200000X-0.275000X-0.200000X0*%
%ADD35RoundRect,0.147500X-0.226274X-0.017678X-0.017678X-0.226274X0.226274X0.017678X0.017678X0.226274X0*%
%ADD36RoundRect,0.218750X0.218750X0.381250X-0.218750X0.381250X-0.218750X-0.381250X0.218750X-0.381250X0*%
G04 APERTURE END LIST*
D10*
%TO.C,J6*%
X162250000Y-115500000D03*
D11*
X162250000Y-111250000D03*
D12*
X162250000Y-119750000D03*
%TD*%
D13*
%TO.C,C13*%
X158700000Y-115500000D03*
X157680000Y-115500000D03*
%TD*%
D14*
%TO.C,J3*%
X137750000Y-104500000D03*
D15*
X137750000Y-108750000D03*
D16*
X137750000Y-100250000D03*
%TD*%
D17*
%TO.C,L1*%
X157707053Y-113792947D03*
X158392947Y-113107053D03*
%TD*%
D18*
%TO.C,R1*%
X156790000Y-115500000D03*
X156790000Y-114480000D03*
%TD*%
D13*
%TO.C,C4*%
X141790000Y-104500000D03*
X140770000Y-104500000D03*
%TD*%
D19*
%TO.C,FL1*%
X142700000Y-114895000D03*
D20*
X141820000Y-114425000D03*
X141820000Y-113775000D03*
X141820000Y-113125000D03*
D19*
X142700000Y-112655000D03*
D20*
X143580000Y-113125000D03*
X143580000Y-113775000D03*
X143580000Y-114425000D03*
%TD*%
D21*
%TO.C,R2*%
X157320000Y-104500000D03*
X157320000Y-105520000D03*
%TD*%
D22*
%TO.C,J1*%
X158000000Y-119330000D03*
X158000000Y-123500000D03*
X156000000Y-119330000D03*
X156000000Y-123500000D03*
X154000000Y-119330000D03*
X154000000Y-123500000D03*
X152000000Y-119330000D03*
X152000000Y-123500000D03*
X150000000Y-119330000D03*
X150000000Y-123500000D03*
X148000000Y-119330000D03*
X148000000Y-123500000D03*
X146000000Y-119330000D03*
X146000000Y-123500000D03*
X144000000Y-119330000D03*
X144000000Y-123500000D03*
X142000000Y-119330000D03*
X142000000Y-123500000D03*
%TD*%
D18*
%TO.C,R12*%
X156950000Y-99180000D03*
X156950000Y-100200000D03*
%TD*%
D13*
%TO.C,R18*%
X156140000Y-117190000D03*
X155120000Y-117190000D03*
%TD*%
D23*
%TO.C,C17*%
X149485000Y-101510000D03*
X151135000Y-101510000D03*
%TD*%
D13*
%TO.C,R14*%
X159860000Y-117190000D03*
X158840000Y-117190000D03*
%TD*%
D21*
%TO.C,C16*%
X154290000Y-109565000D03*
X154290000Y-110585000D03*
%TD*%
D24*
%TO.C,C5*%
X140770001Y-115500000D03*
X141790001Y-115500000D03*
%TD*%
D25*
%TO.C,J20*%
X144500000Y-97750000D03*
D26*
X140250000Y-97750000D03*
D27*
X148750000Y-97750000D03*
%TD*%
D13*
%TO.C,C2*%
X145890000Y-112230000D03*
X144870000Y-112230000D03*
%TD*%
D16*
%TO.C,J5*%
X137750000Y-111250000D03*
D15*
X137750000Y-119750000D03*
D14*
X137750000Y-115500000D03*
%TD*%
D18*
%TO.C,R40*%
X148190000Y-104860000D03*
X148190000Y-103840000D03*
%TD*%
D13*
%TO.C,R26*%
X148700000Y-117190000D03*
X147680000Y-117190000D03*
%TD*%
%TO.C,C18*%
X150430000Y-106030000D03*
X149410000Y-106030000D03*
%TD*%
D28*
%TO.C,C7*%
X155490000Y-110455000D03*
X155490000Y-112105000D03*
%TD*%
D13*
%TO.C,R16*%
X158000000Y-117190000D03*
X156980000Y-117190000D03*
%TD*%
%TO.C,R22*%
X152420000Y-117190000D03*
X151400000Y-117190000D03*
%TD*%
%TO.C,R32*%
X143120000Y-117190000D03*
X142100000Y-117190000D03*
%TD*%
%TO.C,R3*%
X146260000Y-102950000D03*
X147280000Y-102950000D03*
%TD*%
D18*
%TO.C,R8*%
X155060000Y-100200000D03*
X155060000Y-99180000D03*
%TD*%
D29*
%TO.C,U1*%
X147750000Y-107312500D03*
X148250000Y-107312500D03*
X148750000Y-107312500D03*
X149250000Y-107312500D03*
X149750000Y-107312500D03*
X150250000Y-107312500D03*
X150750000Y-107312500D03*
X151250000Y-107312500D03*
X151750000Y-107312500D03*
X152250000Y-107312500D03*
D30*
X152937500Y-108000000D03*
X152937500Y-108500000D03*
X152937500Y-109000000D03*
X152937500Y-109500000D03*
X152937500Y-110000000D03*
X152937500Y-110500000D03*
X152937500Y-111000000D03*
X152937500Y-111500000D03*
X152937500Y-112000000D03*
X152937500Y-112500000D03*
D29*
X152250000Y-113187500D03*
X151750000Y-113187500D03*
X151250000Y-113187500D03*
X150750000Y-113187500D03*
X150250000Y-113187500D03*
X149750000Y-113187500D03*
X149250000Y-113187500D03*
X148750000Y-113187500D03*
X148250000Y-113187500D03*
X147750000Y-113187500D03*
D30*
X147062500Y-112500000D03*
X147062500Y-112000000D03*
X147062500Y-111500000D03*
X147062500Y-111000000D03*
X147062500Y-110500000D03*
X147062500Y-110000000D03*
X147062500Y-109500000D03*
X147062500Y-109000000D03*
X147062500Y-108500000D03*
X147062500Y-108000000D03*
D31*
X151725000Y-111975000D03*
X151725000Y-110825000D03*
X151725000Y-109675000D03*
X151725000Y-108525000D03*
X150575000Y-111975000D03*
X150575000Y-110825000D03*
X150575000Y-109675000D03*
X150575000Y-108525000D03*
X149425000Y-111975000D03*
X149425000Y-110825000D03*
X149425000Y-109675000D03*
X149425000Y-108525000D03*
X148275000Y-111975000D03*
X148275000Y-110825000D03*
X148275000Y-109675000D03*
X148275000Y-108525000D03*
%TD*%
D13*
%TO.C,R34*%
X141260000Y-117190000D03*
X140240000Y-117190000D03*
%TD*%
D10*
%TO.C,J4*%
X162250000Y-104500000D03*
D11*
X162250000Y-100250000D03*
D12*
X162250000Y-108750000D03*
%TD*%
D13*
%TO.C,C6*%
X145720000Y-110230000D03*
X144700000Y-110230000D03*
%TD*%
D18*
%TO.C,R38*%
X147250000Y-104860000D03*
X147250000Y-103840000D03*
%TD*%
D23*
%TO.C,C9*%
X152040000Y-115990000D03*
X153690000Y-115990000D03*
%TD*%
D32*
%TO.C,C15*%
X146760000Y-114580000D03*
X145110000Y-114580000D03*
%TD*%
D13*
%TO.C,R30*%
X144980000Y-117190000D03*
X143960000Y-117190000D03*
%TD*%
D21*
%TO.C,C10*%
X150910000Y-114980000D03*
X150910000Y-116000000D03*
%TD*%
D18*
%TO.C,R42*%
X149130000Y-104860000D03*
X149130000Y-103840000D03*
%TD*%
%TO.C,R219*%
X154110000Y-100200000D03*
X154110000Y-99180000D03*
%TD*%
D24*
%TO.C,R5*%
X155550000Y-98270000D03*
X156570000Y-98270000D03*
%TD*%
D18*
%TO.C,R220*%
X153160000Y-100200000D03*
X153160000Y-99180000D03*
%TD*%
D33*
%TO.C,C20*%
X144512500Y-101900000D03*
X141587500Y-101900000D03*
%TD*%
D13*
%TO.C,R19*%
X149140000Y-102950000D03*
X148120000Y-102950000D03*
%TD*%
D34*
%TO.C,C3*%
X150720000Y-104905000D03*
X150720000Y-103255000D03*
%TD*%
%TO.C,C1*%
X144750000Y-105325000D03*
X144750000Y-103675000D03*
%TD*%
D13*
%TO.C,R28*%
X146840000Y-117190000D03*
X145820000Y-117190000D03*
%TD*%
D32*
%TO.C,C11*%
X149720000Y-115900000D03*
X148070000Y-115900000D03*
%TD*%
D24*
%TO.C,C12*%
X148330000Y-114700000D03*
X149350000Y-114700000D03*
%TD*%
%TO.C,C8*%
X145960000Y-106180000D03*
X146980000Y-106180000D03*
%TD*%
D13*
%TO.C,R7*%
X144360000Y-116250000D03*
X143340000Y-116250000D03*
%TD*%
%TO.C,R20*%
X154280000Y-117190000D03*
X153260000Y-117190000D03*
%TD*%
D35*
%TO.C,L2*%
X158132053Y-106232053D03*
X158817947Y-106917947D03*
%TD*%
D13*
%TO.C,R24*%
X150560000Y-117190000D03*
X149540000Y-117190000D03*
%TD*%
D18*
%TO.C,R10*%
X156010000Y-100200000D03*
X156010000Y-99180000D03*
%TD*%
D13*
%TO.C,C21*%
X145940000Y-113280000D03*
X144920000Y-113280000D03*
%TD*%
%TO.C,R6*%
X146240000Y-116250000D03*
X145220000Y-116250000D03*
%TD*%
D18*
%TO.C,R36*%
X146310000Y-104860000D03*
X146310000Y-103840000D03*
%TD*%
D24*
%TO.C,C14*%
X158210000Y-104500000D03*
X159230000Y-104500000D03*
%TD*%
%TO.C,R4*%
X153690000Y-98270000D03*
X154710000Y-98270000D03*
%TD*%
D36*
%TO.C,L20*%
X148142500Y-101630000D03*
X146017500Y-101630000D03*
%TD*%
M02*
