M48
; DRILL file {KiCad 7.0.5-0} date 2024 February 16, Friday 15:30:05
; FORMAT={-:-/ absolute / inch / decimal}
; #@! TF.CreationDate,2024-02-16T15:30:05-04:00
; #@! TF.GenerationSoftware,Kicad,Pcbnew,7.0.5-0
; #@! TF.FileFunction,Plated,1,4,PTH
FMAT,2
INCH
; #@! TA.AperFunction,Plated,PTH,ViaDrill
T1C0.0118
; #@! TA.AperFunction,Plated,PTH,ComponentDrill
T2C0.0197
; #@! TA.AperFunction,Plated,PTH,ComponentDrill
T3C0.0469
; #@! TA.AperFunction,Plated,PTH,ComponentDrill
T4C0.1063
%
G90
G05
T1
X5.3346Y-4.0591
X5.3346Y-4.1772
X5.3346Y-4.2028
X5.3346Y-4.2323
X5.3346Y-4.2717
X5.3346Y-4.3898
X5.3346Y-4.4193
X5.3346Y-4.4488
X5.3346Y-4.4882
X5.3346Y-4.6063
X5.3445Y-3.8504
X5.3445Y-3.8911
X5.3445Y-3.9317
X5.3445Y-3.9724
X5.3445Y-4.0131
X5.3445Y-4.6669
X5.3445Y-4.7067
X5.3445Y-4.7466
X5.3445Y-4.7865
X5.3642Y-4.0591
X5.3642Y-4.1772
X5.3642Y-4.2717
X5.3642Y-4.3898
X5.3642Y-4.4882
X5.3642Y-4.6063
X5.3839Y-3.8091
X5.3839Y-4.0129
X5.3839Y-4.678
X5.3839Y-4.8524
X5.3937Y-4.0591
X5.3937Y-4.1772
X5.3937Y-4.2717
X5.3937Y-4.3898
X5.3937Y-4.4882
X5.3937Y-4.6063
X5.4232Y-4.0591
X5.4232Y-4.1772
X5.4232Y-4.2717
X5.4232Y-4.3898
X5.4232Y-4.4882
X5.4232Y-4.6063
X5.435Y-3.7697
X5.447Y-4.8917
X5.4528Y-4.0591
X5.4528Y-4.1772
X5.4528Y-4.2717
X5.4528Y-4.3898
X5.4528Y-4.4882
X5.4528Y-4.6063
X5.4757Y-3.7697
X5.4823Y-4.0591
X5.4823Y-4.1772
X5.4823Y-4.2717
X5.4823Y-4.3898
X5.4823Y-4.4882
X5.4823Y-4.6063
X5.4869Y-4.8917
X5.5118Y-4.0591
X5.5118Y-4.1772
X5.5118Y-4.2717
X5.5118Y-4.3898
X5.5118Y-4.4882
X5.5118Y-4.6063
X5.5268Y-4.8917
X5.5294Y-3.7697
X5.5413Y-4.0591
X5.5413Y-4.1772
X5.5413Y-4.2717
X5.5413Y-4.3898
X5.5413Y-4.4882
X5.5413Y-4.6063
X5.5517Y-3.8091
X5.561Y-4.2982
X5.564Y-4.3583
X5.5659Y-4.0787
X5.5659Y-4.1575
X5.5659Y-4.5079
X5.5659Y-4.5866
X5.5666Y-4.8917
X5.5696Y-3.7697
X5.5845Y-4.8524
X5.5915Y-3.8091
X5.6045Y-3.9257
X5.6065Y-4.8917
X5.6097Y-3.7697
X5.6161Y-4.4311
X5.6171Y-4.1171
X5.6171Y-4.2067
X5.6191Y-4.3563
X5.6211Y-4.2982
X5.6246Y-4.8524
X5.6265Y-4.5277
X5.6314Y-3.8091
X5.6464Y-4.8917
X5.6498Y-3.7697
X5.6623Y-4.8539
X5.6713Y-3.8091
X5.6795Y-4.6287
X5.6815Y-3.8607
X5.6815Y-3.9247
X5.6838Y-4.8933
X5.6899Y-3.7697
X5.7018Y-4.3809
X5.7024Y-4.8539
X5.7028Y-4.0404
X5.7037Y-4.4626
X5.7112Y-3.8091
X5.7236Y-4.8933
X5.7275Y-4.5507
X5.7301Y-3.7697
X5.7352Y-4.2234
X5.7405Y-4.1047
X5.7425Y-4.8539
X5.751Y-3.8091
X5.7635Y-4.8933
X5.7702Y-3.7697
X5.7827Y-4.8539
X5.7909Y-3.8091
X5.8015Y-4.6307
X5.8034Y-4.8933
X5.8095Y-4.1057
X5.8103Y-3.7697
X5.8228Y-4.8539
X5.8308Y-3.8091
X5.8432Y-4.8933
X5.8504Y-3.7697
X5.8525Y-4.5817
X5.8533Y-4.1978
X5.8629Y-4.8539
X5.8655Y-4.4367
X5.8655Y-4.5087
X5.8701Y-4.3622
X5.8705Y-4.1057
X5.8706Y-3.8091
X5.8831Y-4.8933
X5.8906Y-3.7697
X5.8976Y-4.2913
X5.9031Y-4.8539
X5.9065Y-4.2224
X5.9105Y-3.8091
X5.9195Y-4.3917
X5.923Y-4.8933
X5.9307Y-3.7697
X5.9409Y-4.3583
X5.9425Y-4.1047
X5.9432Y-4.8539
X5.9504Y-3.8091
X5.9629Y-4.8933
X5.9685Y-4.1969
X5.9708Y-3.7697
X5.9775Y-4.4377
X5.9833Y-4.8539
X5.9902Y-3.8091
X6.0027Y-4.8933
X6.0095Y-4.1167
X6.011Y-3.7697
X6.0234Y-4.8539
X6.0301Y-3.8091
X6.0426Y-4.8933
X6.0511Y-3.7697
X6.0636Y-4.8539
X6.0669Y-3.878
X6.07Y-3.8091
X6.0709Y-4.3701
X6.0709Y-4.4173
X6.0787Y-4.1654
X6.0825Y-4.8933
X6.0866Y-3.9646
X6.0866Y-4.063
X6.0912Y-3.7697
X6.0947Y-4.2985
X6.1037Y-4.8539
X6.1099Y-3.8091
X6.1102Y-4.122
X6.1223Y-4.8933
X6.1295Y-3.8607
X6.1299Y-4.3701
X6.1313Y-3.7697
X6.1438Y-4.8539
X6.1497Y-3.8091
X6.1622Y-4.8933
X6.1715Y-3.7697
X6.1745Y-4.0227
X6.1772Y-4.063
X6.1835Y-3.9747
X6.1864Y-4.8524
X6.1896Y-3.8091
X6.1955Y-4.3697
X6.1975Y-3.9027
X6.2045Y-4.8917
X6.2047Y-4.1299
X6.2116Y-3.7697
X6.2165Y-4.2205
X6.2265Y-4.8524
X6.2295Y-3.8091
X6.2444Y-4.8917
X6.2517Y-3.7697
X6.2598Y-4.0787
X6.2598Y-4.1575
X6.2598Y-4.3701
X6.2598Y-4.5079
X6.2598Y-4.5866
X6.2667Y-4.8524
X6.2843Y-4.8917
X6.2914Y-3.7697
X6.3189Y-4.0591
X6.3189Y-4.1772
X6.3189Y-4.2717
X6.3189Y-4.3898
X6.3189Y-4.4882
X6.3189Y-4.6063
X6.3241Y-4.8917
X6.3353Y-3.7697
X6.3484Y-4.0591
X6.3484Y-4.1772
X6.3484Y-4.2717
X6.3484Y-4.3898
X6.3484Y-4.4882
X6.3484Y-4.6063
X6.364Y-4.8917
X6.376Y-3.7697
X6.378Y-4.0591
X6.378Y-4.1772
X6.378Y-4.2717
X6.378Y-4.3898
X6.378Y-4.4882
X6.378Y-4.6063
X6.4075Y-4.0591
X6.4075Y-4.1772
X6.4075Y-4.2717
X6.4075Y-4.3898
X6.4075Y-4.4882
X6.4075Y-4.6063
X6.4272Y-3.8091
X6.4272Y-4.0129
X6.4272Y-4.8524
X6.437Y-4.0591
X6.437Y-4.1772
X6.437Y-4.2717
X6.437Y-4.3898
X6.437Y-4.4882
X6.437Y-4.6063
X6.4665Y-3.8504
X6.4665Y-3.8911
X6.4665Y-3.9317
X6.4665Y-3.9724
X6.4665Y-4.0131
X6.4665Y-4.0591
X6.4665Y-4.1772
X6.4665Y-4.2717
X6.4665Y-4.3898
X6.4665Y-4.4882
X6.4665Y-4.6063
X6.4665Y-4.6669
X6.4665Y-4.7067
X6.4665Y-4.7466
X6.4665Y-4.7865
X6.4685Y-4.2244
X6.4685Y-4.4409
T2
X5.3927Y-3.8976
X5.3927Y-4.7638
X5.4161Y-3.8413
X5.4161Y-3.954
X5.4161Y-4.7074
X5.4161Y-4.8202
X5.4724Y-3.8179
X5.4724Y-3.9774
X5.4724Y-4.6841
X5.4724Y-4.8435
X5.5288Y-3.8413
X5.5288Y-3.954
X5.5288Y-4.7074
X5.5288Y-4.8202
X5.5522Y-3.8976
X5.5522Y-4.7638
X6.2589Y-3.8976
X6.2589Y-4.7638
X6.2822Y-3.8413
X6.2822Y-3.954
X6.2822Y-4.7074
X6.2822Y-4.8202
X6.3386Y-3.8179
X6.3386Y-3.9774
X6.3386Y-4.6841
X6.3386Y-4.8435
X6.395Y-3.8413
X6.395Y-3.954
X6.395Y-4.7074
X6.395Y-4.8202
X6.4183Y-3.8976
X6.4183Y-4.7638
T3
X5.8055Y-3.9219
X5.9055Y-3.9219
X6.0055Y-3.9219
T4
X5.4724Y-3.8976
X5.4724Y-4.7638
X6.3386Y-3.8976
X6.3386Y-4.7638
T0
M30
