%TF.GenerationSoftware,KiCad,Pcbnew,7.0.5-0*%
%TF.CreationDate,2024-02-16T15:29:59-04:00*%
%TF.ProjectId,HighFreqAmp,48696768-4672-4657-9141-6d702e6b6963,rev?*%
%TF.SameCoordinates,Original*%
%TF.FileFunction,Copper,L2,Inr*%
%TF.FilePolarity,Positive*%
%FSLAX46Y46*%
G04 Gerber Fmt 4.6, Leading zero omitted, Abs format (unit mm)*
G04 Created by KiCad (PCBNEW 7.0.5-0) date 2024-02-16 15:29:59*
%MOMM*%
%LPD*%
G01*
G04 APERTURE LIST*
G04 Aperture macros list*
%AMRoundRect*
0 Rectangle with rounded corners*
0 $1 Rounding radius*
0 $2 $3 $4 $5 $6 $7 $8 $9 X,Y pos of 4 corners*
0 Add a 4 corners polygon primitive as box body*
4,1,4,$2,$3,$4,$5,$6,$7,$8,$9,$2,$3,0*
0 Add four circle primitives for the rounded corners*
1,1,$1+$1,$2,$3*
1,1,$1+$1,$4,$5*
1,1,$1+$1,$6,$7*
1,1,$1+$1,$8,$9*
0 Add four rect primitives between the rounded corners*
20,1,$1+$1,$2,$3,$4,$5,0*
20,1,$1+$1,$4,$5,$6,$7,0*
20,1,$1+$1,$6,$7,$8,$9,0*
20,1,$1+$1,$8,$9,$2,$3,0*%
G04 Aperture macros list end*
%TA.AperFunction,ComponentPad*%
%ADD10C,0.800000*%
%TD*%
%TA.AperFunction,ComponentPad*%
%ADD11C,5.400000*%
%TD*%
%TA.AperFunction,ComponentPad*%
%ADD12RoundRect,0.250000X0.620000X0.845000X-0.620000X0.845000X-0.620000X-0.845000X0.620000X-0.845000X0*%
%TD*%
%TA.AperFunction,ComponentPad*%
%ADD13O,1.740000X2.190000*%
%TD*%
%TA.AperFunction,ViaPad*%
%ADD14C,0.600000*%
%TD*%
G04 APERTURE END LIST*
D10*
%TO.N,GND*%
%TO.C,MH1*%
X136975000Y-99000000D03*
X137568109Y-97568109D03*
X137568109Y-100431891D03*
X139000000Y-96975000D03*
D11*
X139000000Y-99000000D03*
D10*
X139000000Y-101025000D03*
X140431891Y-97568109D03*
X140431891Y-100431891D03*
X141025000Y-99000000D03*
%TD*%
%TO.N,GND*%
%TO.C,MH4*%
X158975000Y-121000000D03*
X159568109Y-119568109D03*
X159568109Y-122431891D03*
X161000000Y-118975000D03*
D11*
X161000000Y-121000000D03*
D10*
X161000000Y-123025000D03*
X162431891Y-119568109D03*
X162431891Y-122431891D03*
X163025000Y-121000000D03*
%TD*%
%TO.N,GND*%
%TO.C,MH3*%
X136975000Y-121000000D03*
X137568109Y-119568109D03*
X137568109Y-122431891D03*
X139000000Y-118975000D03*
D11*
X139000000Y-121000000D03*
D10*
X139000000Y-123025000D03*
X140431891Y-119568109D03*
X140431891Y-122431891D03*
X141025000Y-121000000D03*
%TD*%
%TO.N,GND*%
%TO.C,MH2*%
X158975000Y-99000000D03*
X159568109Y-97568109D03*
X159568109Y-100431891D03*
X161000000Y-96975000D03*
D11*
X161000000Y-99000000D03*
D10*
X161000000Y-101025000D03*
X162431891Y-97568109D03*
X162431891Y-100431891D03*
X163025000Y-99000000D03*
%TD*%
D12*
%TO.N,/+Vin*%
%TO.C,J3*%
X152540000Y-99616800D03*
D13*
%TO.N,GND*%
X150000000Y-99616800D03*
%TO.N,/-Vin*%
X147460000Y-99616800D03*
%TD*%
D14*
%TO.N,GND*%
X150025000Y-107250000D03*
X148675000Y-106625000D03*
X144850000Y-102625000D03*
X142675000Y-106850000D03*
X142675000Y-104575000D03*
X141325000Y-110700000D03*
X141250000Y-109175000D03*
X142775000Y-109175000D03*
X142725000Y-110650000D03*
X144825000Y-111275000D03*
X142650000Y-112550000D03*
X144875000Y-113350000D03*
X164250000Y-114000000D03*
X153697425Y-95750000D03*
X140750000Y-111500000D03*
X158153846Y-123250000D03*
X162000000Y-114000000D03*
X142865384Y-123250000D03*
X162750000Y-108500000D03*
X137750000Y-114000000D03*
X140447425Y-95750000D03*
X159620501Y-124250000D03*
X140000000Y-117000000D03*
X157215635Y-96750000D03*
X137000000Y-108500000D03*
X157061200Y-100957600D03*
X141466655Y-95750000D03*
X135500000Y-106750000D03*
X162750000Y-114000000D03*
X143822167Y-123290000D03*
X164300000Y-112800000D03*
X150443894Y-124290000D03*
X145380472Y-124290000D03*
X139250000Y-108500000D03*
X158228319Y-96750000D03*
X161250000Y-103100000D03*
X143505117Y-95750000D03*
X135750000Y-120563421D03*
X148601271Y-95750000D03*
X135750000Y-97799225D03*
X138500000Y-103100000D03*
X154400000Y-105800000D03*
X135750000Y-101933075D03*
X163250000Y-123250000D03*
X138500000Y-108500000D03*
X154200000Y-112200000D03*
X164250000Y-118538053D03*
X143038053Y-96750000D03*
X150639732Y-95750000D03*
X139250000Y-111500000D03*
X164250000Y-103100000D03*
X151658963Y-95750000D03*
X138500000Y-111500000D03*
X151600000Y-106600000D03*
X136250000Y-114000000D03*
X135750000Y-98832687D03*
X155190266Y-96750000D03*
X140000000Y-103100000D03*
X158793578Y-95750000D03*
X137000000Y-103100000D03*
X157366000Y-110990600D03*
X162000000Y-106100000D03*
X136250000Y-106100000D03*
X141012684Y-96750000D03*
X153481947Y-124290000D03*
X148984000Y-112692400D03*
X136250000Y-103100000D03*
X137000000Y-111500000D03*
X154716655Y-95750000D03*
X143417551Y-124250000D03*
X135500000Y-107500000D03*
X140750000Y-106100000D03*
X154177581Y-96750000D03*
X164250000Y-99866150D03*
X135750000Y-100899612D03*
X162000000Y-117000000D03*
X157595132Y-124250000D03*
X146393156Y-124290000D03*
X141846153Y-123250000D03*
X164250000Y-121576106D03*
X156202950Y-96750000D03*
X140750000Y-117000000D03*
X154200000Y-111000000D03*
X150126844Y-96750000D03*
X162750000Y-103100000D03*
X135750000Y-118538053D03*
X146076106Y-96750000D03*
X150355600Y-111549400D03*
X163500000Y-111500000D03*
X164250000Y-101933075D03*
X161250000Y-106100000D03*
X139250000Y-106100000D03*
X160500000Y-117000000D03*
X149800000Y-109000000D03*
X163250000Y-96750000D03*
X142913400Y-115003800D03*
X160633185Y-124250000D03*
X155689600Y-98062000D03*
X164250000Y-100899612D03*
X149620502Y-95750000D03*
X151976013Y-123290000D03*
X142025369Y-96750000D03*
X144367788Y-124290000D03*
X135750000Y-99866150D03*
X155735886Y-95750000D03*
X135500000Y-108500000D03*
X137750000Y-106100000D03*
X154805884Y-109181355D03*
X160917312Y-95750000D03*
X159000000Y-114500000D03*
X159000000Y-105600000D03*
X156900000Y-103200000D03*
X154014475Y-123290000D03*
X159173076Y-123250000D03*
X147358400Y-117620000D03*
X154494631Y-124290000D03*
X157134615Y-123250000D03*
X146879859Y-123290000D03*
X157774348Y-95750000D03*
X137000000Y-117000000D03*
X157600000Y-104900000D03*
X138500000Y-117000000D03*
X157900000Y-107200000D03*
X148918321Y-123290000D03*
X152641600Y-104564400D03*
X162000000Y-103100000D03*
X139250000Y-117000000D03*
X164250000Y-97799225D03*
X160500000Y-106100000D03*
X141375000Y-105600000D03*
X137750000Y-108500000D03*
X156520000Y-124290000D03*
X163500000Y-117000000D03*
X135750000Y-121576106D03*
X152995244Y-123290000D03*
X136250000Y-111500000D03*
X164250000Y-111500000D03*
X160500000Y-108500000D03*
X147088791Y-96750000D03*
X150900000Y-110700000D03*
X162000000Y-111500000D03*
X135500000Y-114000000D03*
X152678194Y-95750000D03*
X160500000Y-103100000D03*
X145675000Y-107275000D03*
X156052936Y-123290000D03*
X139366814Y-124250000D03*
X142485886Y-95750000D03*
X136750000Y-118821428D03*
X158607817Y-124250000D03*
X148101475Y-96750000D03*
X149937552Y-123290000D03*
X142404867Y-124250000D03*
X138500000Y-114000000D03*
X139082687Y-95750000D03*
X162750000Y-111500000D03*
X140000000Y-108500000D03*
X163500000Y-106100000D03*
X155700000Y-111000000D03*
X137000000Y-114000000D03*
X151139528Y-96750000D03*
X154100000Y-98500000D03*
X155200000Y-104700000D03*
X138500000Y-106100000D03*
X148418525Y-124290000D03*
X154600000Y-100700000D03*
X153164897Y-96750000D03*
X161645870Y-124250000D03*
X151456578Y-124290000D03*
X162750000Y-117000000D03*
X141375000Y-103600000D03*
X145809000Y-104259600D03*
X136750000Y-96750000D03*
X147561600Y-104285000D03*
X155507316Y-124290000D03*
X164250000Y-120563421D03*
X163250000Y-101928571D03*
X135500000Y-117000000D03*
X164250000Y-119550737D03*
X137750000Y-111500000D03*
X135500000Y-113000000D03*
X135500000Y-111500000D03*
X159000000Y-111000000D03*
X147899090Y-123290000D03*
X150956782Y-123290000D03*
X149114160Y-96750000D03*
X144841398Y-123290000D03*
X156755117Y-95750000D03*
X146562809Y-95750000D03*
X141375000Y-114500000D03*
X163500000Y-114000000D03*
X140379498Y-124250000D03*
X144050738Y-96750000D03*
X140750000Y-103100000D03*
X163500000Y-108500000D03*
X140750000Y-108500000D03*
X139250000Y-103100000D03*
X148984000Y-114521200D03*
X136750000Y-123250000D03*
X140000000Y-106100000D03*
X135500000Y-103100000D03*
X161250000Y-108500000D03*
X149100000Y-110800000D03*
X144259600Y-117569200D03*
X164250000Y-98832687D03*
X161250000Y-111500000D03*
X160500000Y-114000000D03*
X162750000Y-106100000D03*
X162000000Y-108500000D03*
X160500000Y-111500000D03*
X159000000Y-103600000D03*
X161250000Y-117000000D03*
X149431210Y-124290000D03*
X139250000Y-114000000D03*
X152469263Y-124290000D03*
X136250000Y-108500000D03*
X161250000Y-114000000D03*
X140000000Y-111500000D03*
X155033705Y-123290000D03*
X141375000Y-116500000D03*
X145063422Y-96750000D03*
X164250000Y-106100000D03*
X159000000Y-116500000D03*
X135750000Y-119550737D03*
X148653800Y-116375400D03*
X157416800Y-99128800D03*
X136250000Y-117000000D03*
X137750000Y-117000000D03*
X140000000Y-114000000D03*
X137000000Y-106100000D03*
X163500000Y-103100000D03*
X154600000Y-103200000D03*
X164300000Y-107300000D03*
X147582040Y-95750000D03*
X159802575Y-95750000D03*
X138354129Y-124250000D03*
X151828800Y-112717800D03*
X136750000Y-101928571D03*
X137750000Y-103100000D03*
X138049225Y-95750000D03*
X150939800Y-104259600D03*
X142354600Y-99713000D03*
X156832600Y-102176800D03*
X140750000Y-114000000D03*
X145860628Y-123290000D03*
X141392182Y-124250000D03*
X164250000Y-108500000D03*
X135500000Y-112250000D03*
X145543578Y-95750000D03*
X161950774Y-95750000D03*
X164250000Y-117000000D03*
X144310400Y-98062000D03*
X144524348Y-95750000D03*
X152152213Y-96750000D03*
X147405841Y-124290000D03*
X135500000Y-106100000D03*
X149111000Y-104285000D03*
%TD*%
%TA.AperFunction,Conductor*%
%TO.N,GND*%
G36*
X160995001Y-95001144D02*
G01*
X160999323Y-95001197D01*
X161000572Y-95001227D01*
X161075035Y-95003969D01*
X161172692Y-95008484D01*
X161195443Y-95009601D01*
X161196643Y-95009675D01*
X161390244Y-95023956D01*
X161392931Y-95024220D01*
X161584899Y-95047897D01*
X161587538Y-95048289D01*
X161778061Y-95081349D01*
X161780740Y-95081881D01*
X161969441Y-95124255D01*
X161972049Y-95124908D01*
X162158414Y-95176483D01*
X162161033Y-95177277D01*
X162344627Y-95237928D01*
X162347204Y-95238850D01*
X162417039Y-95265788D01*
X162527641Y-95308451D01*
X162530109Y-95309473D01*
X162706939Y-95387856D01*
X162709348Y-95388996D01*
X162853937Y-95461776D01*
X162882092Y-95475948D01*
X162884506Y-95477238D01*
X163052723Y-95572532D01*
X163055059Y-95573931D01*
X163218456Y-95677401D01*
X163220693Y-95678895D01*
X163313037Y-95743931D01*
X163378816Y-95790258D01*
X163381012Y-95791887D01*
X163533467Y-95910864D01*
X163535529Y-95912557D01*
X163681970Y-96038876D01*
X163683961Y-96040681D01*
X163777968Y-96130183D01*
X163824028Y-96174036D01*
X163825963Y-96175971D01*
X163874378Y-96226823D01*
X163959316Y-96316036D01*
X163961124Y-96318031D01*
X164087438Y-96464466D01*
X164089138Y-96466537D01*
X164191915Y-96598232D01*
X164208110Y-96618984D01*
X164209741Y-96621183D01*
X164321092Y-96779288D01*
X164322612Y-96781564D01*
X164426061Y-96944929D01*
X164427467Y-96947277D01*
X164522756Y-97115486D01*
X164524046Y-97117899D01*
X164610996Y-97290637D01*
X164612156Y-97293090D01*
X164690523Y-97469884D01*
X164691554Y-97472373D01*
X164761149Y-97652795D01*
X164762071Y-97655372D01*
X164822722Y-97838966D01*
X164823516Y-97841585D01*
X164875086Y-98027932D01*
X164875751Y-98030587D01*
X164918117Y-98219255D01*
X164918650Y-98221938D01*
X164951706Y-98412438D01*
X164952106Y-98415134D01*
X164969840Y-98558916D01*
X164975775Y-98607033D01*
X164976043Y-98609757D01*
X164990317Y-98803272D01*
X164990401Y-98804636D01*
X164991517Y-98827331D01*
X164992738Y-98853759D01*
X164996029Y-98924954D01*
X164998049Y-98979779D01*
X164998768Y-98999310D01*
X164998769Y-98999313D01*
X164998802Y-99000681D01*
X164999500Y-99057494D01*
X164999500Y-120942504D01*
X164998802Y-120999318D01*
X164998769Y-121000686D01*
X164996029Y-121075044D01*
X164992608Y-121149066D01*
X164991557Y-121171817D01*
X164991526Y-121172487D01*
X164990401Y-121195363D01*
X164990317Y-121196727D01*
X164976043Y-121390242D01*
X164975775Y-121392966D01*
X164952108Y-121584854D01*
X164951706Y-121587561D01*
X164918650Y-121778061D01*
X164918117Y-121780744D01*
X164875751Y-121969412D01*
X164875086Y-121972067D01*
X164823511Y-122158433D01*
X164822717Y-122161052D01*
X164762073Y-122344624D01*
X164761151Y-122347200D01*
X164691554Y-122527626D01*
X164690517Y-122530129D01*
X164645712Y-122631208D01*
X164612148Y-122706927D01*
X164610978Y-122709401D01*
X164524055Y-122882084D01*
X164522765Y-122884497D01*
X164427467Y-123052722D01*
X164426061Y-123055070D01*
X164322612Y-123218435D01*
X164321092Y-123220711D01*
X164209741Y-123378816D01*
X164208110Y-123381015D01*
X164089156Y-123533441D01*
X164087420Y-123535556D01*
X163961130Y-123681962D01*
X163959292Y-123683990D01*
X163825974Y-123824018D01*
X163824039Y-123825953D01*
X163683982Y-123959299D01*
X163681954Y-123961137D01*
X163535556Y-124087420D01*
X163533441Y-124089156D01*
X163381015Y-124208110D01*
X163378816Y-124209741D01*
X163220711Y-124321092D01*
X163218435Y-124322612D01*
X163055070Y-124426061D01*
X163052723Y-124427467D01*
X162884506Y-124522761D01*
X162882092Y-124524051D01*
X162709352Y-124611001D01*
X162706887Y-124612166D01*
X162530144Y-124690511D01*
X162527626Y-124691554D01*
X162347200Y-124761151D01*
X162344623Y-124762073D01*
X162161033Y-124822722D01*
X162158414Y-124823516D01*
X161972067Y-124875086D01*
X161969412Y-124875751D01*
X161780744Y-124918117D01*
X161778061Y-124918650D01*
X161587561Y-124951706D01*
X161584859Y-124952107D01*
X161493392Y-124963388D01*
X161392966Y-124975775D01*
X161390242Y-124976043D01*
X161196726Y-124990317D01*
X161195360Y-124990401D01*
X161172510Y-124991524D01*
X161075044Y-124996029D01*
X161018030Y-124998129D01*
X161000656Y-124998769D01*
X160999318Y-124998802D01*
X160942506Y-124999500D01*
X139057494Y-124999500D01*
X139000681Y-124998802D01*
X138999344Y-124998769D01*
X138979779Y-124998049D01*
X138924954Y-124996029D01*
X138827489Y-124991524D01*
X138804639Y-124990401D01*
X138803273Y-124990317D01*
X138609757Y-124976043D01*
X138607033Y-124975775D01*
X138589829Y-124973653D01*
X138415134Y-124952106D01*
X138412438Y-124951706D01*
X138221938Y-124918650D01*
X138219255Y-124918117D01*
X138030587Y-124875751D01*
X138027932Y-124875086D01*
X137841585Y-124823516D01*
X137838966Y-124822722D01*
X137655372Y-124762071D01*
X137652795Y-124761149D01*
X137472373Y-124691554D01*
X137469884Y-124690523D01*
X137293090Y-124612156D01*
X137290637Y-124610996D01*
X137117899Y-124524046D01*
X137115486Y-124522756D01*
X136947277Y-124427467D01*
X136944929Y-124426061D01*
X136942679Y-124424636D01*
X136781553Y-124322604D01*
X136779288Y-124321092D01*
X136621183Y-124209741D01*
X136618984Y-124208110D01*
X136598232Y-124191915D01*
X136466537Y-124089138D01*
X136464466Y-124087438D01*
X136318025Y-123961119D01*
X136316017Y-123959299D01*
X136175960Y-123825953D01*
X136174046Y-123824039D01*
X136174026Y-123824018D01*
X136040681Y-123683961D01*
X136038876Y-123681970D01*
X135912557Y-123535529D01*
X135910864Y-123533467D01*
X135791887Y-123381012D01*
X135790258Y-123378816D01*
X135743931Y-123313037D01*
X135678895Y-123220693D01*
X135677401Y-123218456D01*
X135573931Y-123055059D01*
X135572532Y-123052722D01*
X135477243Y-122884513D01*
X135475953Y-122882100D01*
X135389013Y-122709381D01*
X135387843Y-122706907D01*
X135309472Y-122530106D01*
X135308442Y-122527618D01*
X135238848Y-122347200D01*
X135237942Y-122344669D01*
X135177266Y-122160999D01*
X135176488Y-122158433D01*
X135124913Y-121972067D01*
X135124255Y-121969441D01*
X135081881Y-121780740D01*
X135081349Y-121778061D01*
X135048289Y-121587538D01*
X135047897Y-121584899D01*
X135024220Y-121392931D01*
X135023956Y-121390242D01*
X135009675Y-121196643D01*
X135009601Y-121195443D01*
X135008474Y-121172487D01*
X135003969Y-121075035D01*
X135001227Y-121000572D01*
X135001197Y-120999321D01*
X135000500Y-120942503D01*
X135000500Y-115588002D01*
X145073308Y-115588002D01*
X145093152Y-115713301D01*
X145093154Y-115713304D01*
X145150750Y-115826342D01*
X145240458Y-115916050D01*
X145240460Y-115916051D01*
X145353498Y-115973647D01*
X145353497Y-115973647D01*
X145478798Y-115993492D01*
X145478800Y-115993492D01*
X145478802Y-115993492D01*
X145604101Y-115973647D01*
X145604102Y-115973646D01*
X145604104Y-115973646D01*
X145717142Y-115916050D01*
X145806850Y-115826342D01*
X145864446Y-115713304D01*
X145864446Y-115713302D01*
X145864447Y-115713301D01*
X145884292Y-115588002D01*
X145884292Y-115587997D01*
X145864447Y-115462698D01*
X145806851Y-115349660D01*
X145806850Y-115349658D01*
X145717142Y-115259950D01*
X145717140Y-115259949D01*
X145717139Y-115259948D01*
X145604101Y-115202352D01*
X145604102Y-115202352D01*
X145478802Y-115182508D01*
X145478798Y-115182508D01*
X145353498Y-115202352D01*
X145240460Y-115259948D01*
X145240456Y-115259951D01*
X145150751Y-115349656D01*
X145150748Y-115349660D01*
X145093152Y-115462698D01*
X145073308Y-115587997D01*
X145073308Y-115588002D01*
X135000500Y-115588002D01*
X135000500Y-99687602D01*
X143904908Y-99687602D01*
X143924752Y-99812901D01*
X143966275Y-99894393D01*
X143982350Y-99925942D01*
X144072058Y-100015650D01*
X144142722Y-100051655D01*
X144185098Y-100073247D01*
X144185097Y-100073247D01*
X144310398Y-100093092D01*
X144310400Y-100093092D01*
X144310402Y-100093092D01*
X144435701Y-100073247D01*
X144435702Y-100073246D01*
X144435704Y-100073246D01*
X144548742Y-100015650D01*
X144638450Y-99925942D01*
X144654525Y-99894393D01*
X146389500Y-99894393D01*
X146404989Y-100051655D01*
X146466201Y-100253445D01*
X146565605Y-100439416D01*
X146699379Y-100602421D01*
X146862384Y-100736195D01*
X147048355Y-100835599D01*
X147250145Y-100896811D01*
X147441183Y-100915626D01*
X147459999Y-100917480D01*
X147460000Y-100917480D01*
X147460001Y-100917480D01*
X147477268Y-100915779D01*
X147669855Y-100896811D01*
X147871645Y-100835599D01*
X148057616Y-100736195D01*
X148220621Y-100602421D01*
X148291493Y-100516063D01*
X151469500Y-100516063D01*
X151472354Y-100546501D01*
X151517207Y-100674683D01*
X151557528Y-100729315D01*
X151597850Y-100783950D01*
X151667831Y-100835598D01*
X151707116Y-100864592D01*
X151707117Y-100864592D01*
X151707118Y-100864593D01*
X151835301Y-100909446D01*
X151865734Y-100912300D01*
X151865741Y-100912300D01*
X153214259Y-100912300D01*
X153214266Y-100912300D01*
X153244699Y-100909446D01*
X153372882Y-100864593D01*
X153482150Y-100783950D01*
X153562793Y-100674682D01*
X153607646Y-100546499D01*
X153610500Y-100516066D01*
X153610500Y-98717534D01*
X153607646Y-98687101D01*
X153562793Y-98558918D01*
X153482150Y-98449650D01*
X153412168Y-98398001D01*
X153372883Y-98369007D01*
X153244701Y-98324154D01*
X153232525Y-98323012D01*
X153214266Y-98321300D01*
X151865734Y-98321300D01*
X151853560Y-98322441D01*
X151835298Y-98324154D01*
X151707116Y-98369007D01*
X151597850Y-98449650D01*
X151517207Y-98558916D01*
X151472354Y-98687098D01*
X151469500Y-98717536D01*
X151469500Y-100516063D01*
X148291493Y-100516063D01*
X148354395Y-100439416D01*
X148453799Y-100253445D01*
X148515011Y-100051655D01*
X148530500Y-99894393D01*
X148530500Y-99339207D01*
X148515011Y-99181945D01*
X148453799Y-98980155D01*
X148354395Y-98794184D01*
X148220621Y-98631179D01*
X148057616Y-98497405D01*
X148057613Y-98497403D01*
X148057611Y-98497402D01*
X147903698Y-98415134D01*
X147871645Y-98398001D01*
X147669855Y-98336789D01*
X147541570Y-98324154D01*
X147460001Y-98316120D01*
X147459999Y-98316120D01*
X147250145Y-98336789D01*
X147048355Y-98398001D01*
X146862388Y-98497402D01*
X146862385Y-98497404D01*
X146699379Y-98631179D01*
X146565604Y-98794185D01*
X146565602Y-98794188D01*
X146466402Y-98979779D01*
X146466201Y-98980155D01*
X146404989Y-99181945D01*
X146389500Y-99339207D01*
X146389500Y-99894393D01*
X144654525Y-99894393D01*
X144696046Y-99812904D01*
X144696046Y-99812902D01*
X144696047Y-99812901D01*
X144715892Y-99687602D01*
X144715892Y-99687597D01*
X144696047Y-99562298D01*
X144638451Y-99449260D01*
X144638450Y-99449258D01*
X144548742Y-99359550D01*
X144548740Y-99359549D01*
X144548739Y-99359548D01*
X144435701Y-99301952D01*
X144435702Y-99301952D01*
X144310402Y-99282108D01*
X144310398Y-99282108D01*
X144185098Y-99301952D01*
X144072060Y-99359548D01*
X144072056Y-99359551D01*
X143982351Y-99449256D01*
X143982348Y-99449260D01*
X143924752Y-99562298D01*
X143904908Y-99687597D01*
X143904908Y-99687602D01*
X135000500Y-99687602D01*
X135000500Y-99057495D01*
X135001197Y-99000678D01*
X135001227Y-98999429D01*
X135003967Y-98925003D01*
X135008488Y-98827213D01*
X135009598Y-98804635D01*
X135009682Y-98803269D01*
X135023956Y-98609757D01*
X135024220Y-98607072D01*
X135047898Y-98415094D01*
X135048288Y-98412467D01*
X135081350Y-98221930D01*
X135081882Y-98219255D01*
X135124257Y-98030548D01*
X135124905Y-98027960D01*
X135176494Y-97841544D01*
X135177262Y-97839011D01*
X135237946Y-97655317D01*
X135238840Y-97652819D01*
X135308456Y-97472344D01*
X135309461Y-97469918D01*
X135387847Y-97293081D01*
X135388999Y-97290647D01*
X135475962Y-97117879D01*
X135477238Y-97115494D01*
X135477243Y-97115486D01*
X135572541Y-96947259D01*
X135573920Y-96944958D01*
X135677413Y-96781524D01*
X135678882Y-96779324D01*
X135790262Y-96621176D01*
X135791872Y-96619006D01*
X135910880Y-96466512D01*
X135912540Y-96464490D01*
X136038894Y-96318008D01*
X136040662Y-96316058D01*
X136174046Y-96175960D01*
X136175960Y-96174046D01*
X136316058Y-96040662D01*
X136318008Y-96038894D01*
X136464490Y-95912540D01*
X136466512Y-95910880D01*
X136619006Y-95791872D01*
X136621183Y-95790258D01*
X136779324Y-95678882D01*
X136781524Y-95677413D01*
X136944958Y-95573920D01*
X136947259Y-95572541D01*
X137115497Y-95477235D01*
X137117894Y-95475954D01*
X137290635Y-95389005D01*
X137293050Y-95387862D01*
X137469908Y-95309465D01*
X137472355Y-95308452D01*
X137652791Y-95238851D01*
X137655334Y-95237941D01*
X137839007Y-95177263D01*
X137841548Y-95176493D01*
X138027960Y-95124905D01*
X138030548Y-95124257D01*
X138219267Y-95081879D01*
X138221930Y-95081350D01*
X138412467Y-95048288D01*
X138415094Y-95047898D01*
X138607072Y-95024220D01*
X138609751Y-95023956D01*
X138803366Y-95009675D01*
X138804546Y-95009602D01*
X138827154Y-95008491D01*
X138925007Y-95003967D01*
X138999429Y-95001227D01*
X139000674Y-95001197D01*
X139006429Y-95001126D01*
X139057495Y-95000500D01*
X160942505Y-95000500D01*
X160995001Y-95001144D01*
G37*
%TD.AperFunction*%
%TD*%
M02*
