%TF.GenerationSoftware,KiCad,Pcbnew,7.0.5-0*%
%TF.CreationDate,2024-02-16T15:29:59-04:00*%
%TF.ProjectId,HighFreqAmp,48696768-4672-4657-9141-6d702e6b6963,rev?*%
%TF.SameCoordinates,Original*%
%TF.FileFunction,Legend,Top*%
%TF.FilePolarity,Positive*%
%FSLAX46Y46*%
G04 Gerber Fmt 4.6, Leading zero omitted, Abs format (unit mm)*
G04 Created by KiCad (PCBNEW 7.0.5-0) date 2024-02-16 15:29:59*
%MOMM*%
%LPD*%
G01*
G04 APERTURE LIST*
%ADD10C,0.150000*%
%ADD11C,0.175000*%
%ADD12C,0.120000*%
G04 APERTURE END LIST*
D10*
X143959750Y-120187233D02*
X143726417Y-119853900D01*
X143559750Y-120187233D02*
X143559750Y-119487233D01*
X143559750Y-119487233D02*
X143826417Y-119487233D01*
X143826417Y-119487233D02*
X143893084Y-119520566D01*
X143893084Y-119520566D02*
X143926417Y-119553900D01*
X143926417Y-119553900D02*
X143959750Y-119620566D01*
X143959750Y-119620566D02*
X143959750Y-119720566D01*
X143959750Y-119720566D02*
X143926417Y-119787233D01*
X143926417Y-119787233D02*
X143893084Y-119820566D01*
X143893084Y-119820566D02*
X143826417Y-119853900D01*
X143826417Y-119853900D02*
X143559750Y-119853900D01*
X144493084Y-119820566D02*
X144259750Y-119820566D01*
X144259750Y-120187233D02*
X144259750Y-119487233D01*
X144259750Y-119487233D02*
X144593084Y-119487233D01*
X145359750Y-119987233D02*
X145693083Y-119987233D01*
X145293083Y-120187233D02*
X145526417Y-119487233D01*
X145526417Y-119487233D02*
X145759750Y-120187233D01*
X145993083Y-120187233D02*
X145993083Y-119720566D01*
X145993083Y-119787233D02*
X146026417Y-119753900D01*
X146026417Y-119753900D02*
X146093083Y-119720566D01*
X146093083Y-119720566D02*
X146193083Y-119720566D01*
X146193083Y-119720566D02*
X146259750Y-119753900D01*
X146259750Y-119753900D02*
X146293083Y-119820566D01*
X146293083Y-119820566D02*
X146293083Y-120187233D01*
X146293083Y-119820566D02*
X146326417Y-119753900D01*
X146326417Y-119753900D02*
X146393083Y-119720566D01*
X146393083Y-119720566D02*
X146493083Y-119720566D01*
X146493083Y-119720566D02*
X146559750Y-119753900D01*
X146559750Y-119753900D02*
X146593083Y-119820566D01*
X146593083Y-119820566D02*
X146593083Y-120187233D01*
X146926416Y-119720566D02*
X146926416Y-120420566D01*
X146926416Y-119753900D02*
X146993083Y-119720566D01*
X146993083Y-119720566D02*
X147126416Y-119720566D01*
X147126416Y-119720566D02*
X147193083Y-119753900D01*
X147193083Y-119753900D02*
X147226416Y-119787233D01*
X147226416Y-119787233D02*
X147259750Y-119853900D01*
X147259750Y-119853900D02*
X147259750Y-120053900D01*
X147259750Y-120053900D02*
X147226416Y-120120566D01*
X147226416Y-120120566D02*
X147193083Y-120153900D01*
X147193083Y-120153900D02*
X147126416Y-120187233D01*
X147126416Y-120187233D02*
X146993083Y-120187233D01*
X146993083Y-120187233D02*
X146926416Y-120153900D01*
X147559749Y-120120566D02*
X147593083Y-120153900D01*
X147593083Y-120153900D02*
X147559749Y-120187233D01*
X147559749Y-120187233D02*
X147526416Y-120153900D01*
X147526416Y-120153900D02*
X147559749Y-120120566D01*
X147559749Y-120120566D02*
X147559749Y-120187233D01*
X148793082Y-120187233D02*
X148393082Y-120187233D01*
X148593082Y-120187233D02*
X148593082Y-119487233D01*
X148593082Y-119487233D02*
X148526415Y-119587233D01*
X148526415Y-119587233D02*
X148459749Y-119653900D01*
X148459749Y-119653900D02*
X148393082Y-119687233D01*
X149093082Y-120187233D02*
X149093082Y-119487233D01*
X149093082Y-119487233D02*
X149326416Y-119987233D01*
X149326416Y-119987233D02*
X149559749Y-119487233D01*
X149559749Y-119487233D02*
X149559749Y-120187233D01*
X149893082Y-120187233D02*
X149893082Y-119487233D01*
X149893082Y-119820566D02*
X150293082Y-119820566D01*
X150293082Y-120187233D02*
X150293082Y-119487233D01*
X150559749Y-119720566D02*
X150926415Y-119720566D01*
X150926415Y-119720566D02*
X150559749Y-120187233D01*
X150559749Y-120187233D02*
X150926415Y-120187233D01*
X151693082Y-120153900D02*
X151793082Y-120187233D01*
X151793082Y-120187233D02*
X151959749Y-120187233D01*
X151959749Y-120187233D02*
X152026415Y-120153900D01*
X152026415Y-120153900D02*
X152059749Y-120120566D01*
X152059749Y-120120566D02*
X152093082Y-120053900D01*
X152093082Y-120053900D02*
X152093082Y-119987233D01*
X152093082Y-119987233D02*
X152059749Y-119920566D01*
X152059749Y-119920566D02*
X152026415Y-119887233D01*
X152026415Y-119887233D02*
X151959749Y-119853900D01*
X151959749Y-119853900D02*
X151826415Y-119820566D01*
X151826415Y-119820566D02*
X151759749Y-119787233D01*
X151759749Y-119787233D02*
X151726415Y-119753900D01*
X151726415Y-119753900D02*
X151693082Y-119687233D01*
X151693082Y-119687233D02*
X151693082Y-119620566D01*
X151693082Y-119620566D02*
X151726415Y-119553900D01*
X151726415Y-119553900D02*
X151759749Y-119520566D01*
X151759749Y-119520566D02*
X151826415Y-119487233D01*
X151826415Y-119487233D02*
X151993082Y-119487233D01*
X151993082Y-119487233D02*
X152093082Y-119520566D01*
X152693082Y-119720566D02*
X152693082Y-120420566D01*
X152693082Y-120153900D02*
X152626416Y-120187233D01*
X152626416Y-120187233D02*
X152493082Y-120187233D01*
X152493082Y-120187233D02*
X152426416Y-120153900D01*
X152426416Y-120153900D02*
X152393082Y-120120566D01*
X152393082Y-120120566D02*
X152359749Y-120053900D01*
X152359749Y-120053900D02*
X152359749Y-119853900D01*
X152359749Y-119853900D02*
X152393082Y-119787233D01*
X152393082Y-119787233D02*
X152426416Y-119753900D01*
X152426416Y-119753900D02*
X152493082Y-119720566D01*
X152493082Y-119720566D02*
X152626416Y-119720566D01*
X152626416Y-119720566D02*
X152693082Y-119753900D01*
X153026415Y-120120566D02*
X153059749Y-120153900D01*
X153059749Y-120153900D02*
X153026415Y-120187233D01*
X153026415Y-120187233D02*
X152993082Y-120153900D01*
X152993082Y-120153900D02*
X153026415Y-120120566D01*
X153026415Y-120120566D02*
X153026415Y-120187233D01*
X153826415Y-119487233D02*
X153993081Y-120187233D01*
X153993081Y-120187233D02*
X154126415Y-119687233D01*
X154126415Y-119687233D02*
X154259748Y-120187233D01*
X154259748Y-120187233D02*
X154426415Y-119487233D01*
X154993081Y-120187233D02*
X154993081Y-119820566D01*
X154993081Y-119820566D02*
X154959748Y-119753900D01*
X154959748Y-119753900D02*
X154893081Y-119720566D01*
X154893081Y-119720566D02*
X154759748Y-119720566D01*
X154759748Y-119720566D02*
X154693081Y-119753900D01*
X154993081Y-120153900D02*
X154926415Y-120187233D01*
X154926415Y-120187233D02*
X154759748Y-120187233D01*
X154759748Y-120187233D02*
X154693081Y-120153900D01*
X154693081Y-120153900D02*
X154659748Y-120087233D01*
X154659748Y-120087233D02*
X154659748Y-120020566D01*
X154659748Y-120020566D02*
X154693081Y-119953900D01*
X154693081Y-119953900D02*
X154759748Y-119920566D01*
X154759748Y-119920566D02*
X154926415Y-119920566D01*
X154926415Y-119920566D02*
X154993081Y-119887233D01*
X155259748Y-119720566D02*
X155426414Y-120187233D01*
X155426414Y-120187233D02*
X155593081Y-119720566D01*
X156126414Y-120153900D02*
X156059747Y-120187233D01*
X156059747Y-120187233D02*
X155926414Y-120187233D01*
X155926414Y-120187233D02*
X155859747Y-120153900D01*
X155859747Y-120153900D02*
X155826414Y-120087233D01*
X155826414Y-120087233D02*
X155826414Y-119820566D01*
X155826414Y-119820566D02*
X155859747Y-119753900D01*
X155859747Y-119753900D02*
X155926414Y-119720566D01*
X155926414Y-119720566D02*
X156059747Y-119720566D01*
X156059747Y-119720566D02*
X156126414Y-119753900D01*
X156126414Y-119753900D02*
X156159747Y-119820566D01*
X156159747Y-119820566D02*
X156159747Y-119887233D01*
X156159747Y-119887233D02*
X155826414Y-119953900D01*
X143559750Y-121314233D02*
X143559750Y-120614233D01*
X143959750Y-121314233D02*
X143659750Y-120914233D01*
X143959750Y-120614233D02*
X143559750Y-121014233D01*
X144259750Y-121247566D02*
X144293084Y-121280900D01*
X144293084Y-121280900D02*
X144259750Y-121314233D01*
X144259750Y-121314233D02*
X144226417Y-121280900D01*
X144226417Y-121280900D02*
X144259750Y-121247566D01*
X144259750Y-121247566D02*
X144259750Y-121314233D01*
X144559750Y-121280900D02*
X144659750Y-121314233D01*
X144659750Y-121314233D02*
X144826417Y-121314233D01*
X144826417Y-121314233D02*
X144893083Y-121280900D01*
X144893083Y-121280900D02*
X144926417Y-121247566D01*
X144926417Y-121247566D02*
X144959750Y-121180900D01*
X144959750Y-121180900D02*
X144959750Y-121114233D01*
X144959750Y-121114233D02*
X144926417Y-121047566D01*
X144926417Y-121047566D02*
X144893083Y-121014233D01*
X144893083Y-121014233D02*
X144826417Y-120980900D01*
X144826417Y-120980900D02*
X144693083Y-120947566D01*
X144693083Y-120947566D02*
X144626417Y-120914233D01*
X144626417Y-120914233D02*
X144593083Y-120880900D01*
X144593083Y-120880900D02*
X144559750Y-120814233D01*
X144559750Y-120814233D02*
X144559750Y-120747566D01*
X144559750Y-120747566D02*
X144593083Y-120680900D01*
X144593083Y-120680900D02*
X144626417Y-120647566D01*
X144626417Y-120647566D02*
X144693083Y-120614233D01*
X144693083Y-120614233D02*
X144859750Y-120614233D01*
X144859750Y-120614233D02*
X144959750Y-120647566D01*
X145259750Y-121314233D02*
X145259750Y-120614233D01*
X145559750Y-121314233D02*
X145559750Y-120947566D01*
X145559750Y-120947566D02*
X145526417Y-120880900D01*
X145526417Y-120880900D02*
X145459750Y-120847566D01*
X145459750Y-120847566D02*
X145359750Y-120847566D01*
X145359750Y-120847566D02*
X145293084Y-120880900D01*
X145293084Y-120880900D02*
X145259750Y-120914233D01*
X146193083Y-121314233D02*
X146193083Y-120947566D01*
X146193083Y-120947566D02*
X146159750Y-120880900D01*
X146159750Y-120880900D02*
X146093083Y-120847566D01*
X146093083Y-120847566D02*
X145959750Y-120847566D01*
X145959750Y-120847566D02*
X145893083Y-120880900D01*
X146193083Y-121280900D02*
X146126417Y-121314233D01*
X146126417Y-121314233D02*
X145959750Y-121314233D01*
X145959750Y-121314233D02*
X145893083Y-121280900D01*
X145893083Y-121280900D02*
X145859750Y-121214233D01*
X145859750Y-121214233D02*
X145859750Y-121147566D01*
X145859750Y-121147566D02*
X145893083Y-121080900D01*
X145893083Y-121080900D02*
X145959750Y-121047566D01*
X145959750Y-121047566D02*
X146126417Y-121047566D01*
X146126417Y-121047566D02*
X146193083Y-121014233D01*
X146626416Y-121314233D02*
X146559750Y-121280900D01*
X146559750Y-121280900D02*
X146526416Y-121214233D01*
X146526416Y-121214233D02*
X146526416Y-120614233D01*
X147193083Y-121314233D02*
X147193083Y-120947566D01*
X147193083Y-120947566D02*
X147159750Y-120880900D01*
X147159750Y-120880900D02*
X147093083Y-120847566D01*
X147093083Y-120847566D02*
X146959750Y-120847566D01*
X146959750Y-120847566D02*
X146893083Y-120880900D01*
X147193083Y-121280900D02*
X147126417Y-121314233D01*
X147126417Y-121314233D02*
X146959750Y-121314233D01*
X146959750Y-121314233D02*
X146893083Y-121280900D01*
X146893083Y-121280900D02*
X146859750Y-121214233D01*
X146859750Y-121214233D02*
X146859750Y-121147566D01*
X146859750Y-121147566D02*
X146893083Y-121080900D01*
X146893083Y-121080900D02*
X146959750Y-121047566D01*
X146959750Y-121047566D02*
X147126417Y-121047566D01*
X147126417Y-121047566D02*
X147193083Y-121014233D01*
X147526416Y-121314233D02*
X147526416Y-120614233D01*
X147526416Y-120880900D02*
X147593083Y-120847566D01*
X147593083Y-120847566D02*
X147726416Y-120847566D01*
X147726416Y-120847566D02*
X147793083Y-120880900D01*
X147793083Y-120880900D02*
X147826416Y-120914233D01*
X147826416Y-120914233D02*
X147859750Y-120980900D01*
X147859750Y-120980900D02*
X147859750Y-121180900D01*
X147859750Y-121180900D02*
X147826416Y-121247566D01*
X147826416Y-121247566D02*
X147793083Y-121280900D01*
X147793083Y-121280900D02*
X147726416Y-121314233D01*
X147726416Y-121314233D02*
X147593083Y-121314233D01*
X147593083Y-121314233D02*
X147526416Y-121280900D01*
X148093083Y-120847566D02*
X148259749Y-121314233D01*
X148426416Y-120847566D02*
X148259749Y-121314233D01*
X148259749Y-121314233D02*
X148193083Y-121480900D01*
X148193083Y-121480900D02*
X148159749Y-121514233D01*
X148159749Y-121514233D02*
X148093083Y-121547566D01*
X149359749Y-120614233D02*
X149426415Y-120614233D01*
X149426415Y-120614233D02*
X149493082Y-120647566D01*
X149493082Y-120647566D02*
X149526415Y-120680900D01*
X149526415Y-120680900D02*
X149559749Y-120747566D01*
X149559749Y-120747566D02*
X149593082Y-120880900D01*
X149593082Y-120880900D02*
X149593082Y-121047566D01*
X149593082Y-121047566D02*
X149559749Y-121180900D01*
X149559749Y-121180900D02*
X149526415Y-121247566D01*
X149526415Y-121247566D02*
X149493082Y-121280900D01*
X149493082Y-121280900D02*
X149426415Y-121314233D01*
X149426415Y-121314233D02*
X149359749Y-121314233D01*
X149359749Y-121314233D02*
X149293082Y-121280900D01*
X149293082Y-121280900D02*
X149259749Y-121247566D01*
X149259749Y-121247566D02*
X149226415Y-121180900D01*
X149226415Y-121180900D02*
X149193082Y-121047566D01*
X149193082Y-121047566D02*
X149193082Y-120880900D01*
X149193082Y-120880900D02*
X149226415Y-120747566D01*
X149226415Y-120747566D02*
X149259749Y-120680900D01*
X149259749Y-120680900D02*
X149293082Y-120647566D01*
X149293082Y-120647566D02*
X149359749Y-120614233D01*
X150259749Y-121314233D02*
X149859749Y-121314233D01*
X150059749Y-121314233D02*
X150059749Y-120614233D01*
X150059749Y-120614233D02*
X149993082Y-120714233D01*
X149993082Y-120714233D02*
X149926416Y-120780900D01*
X149926416Y-120780900D02*
X149859749Y-120814233D01*
X151059749Y-120580900D02*
X150459749Y-121480900D01*
X151259749Y-120680900D02*
X151293082Y-120647566D01*
X151293082Y-120647566D02*
X151359749Y-120614233D01*
X151359749Y-120614233D02*
X151526416Y-120614233D01*
X151526416Y-120614233D02*
X151593082Y-120647566D01*
X151593082Y-120647566D02*
X151626416Y-120680900D01*
X151626416Y-120680900D02*
X151659749Y-120747566D01*
X151659749Y-120747566D02*
X151659749Y-120814233D01*
X151659749Y-120814233D02*
X151626416Y-120914233D01*
X151626416Y-120914233D02*
X151226416Y-121314233D01*
X151226416Y-121314233D02*
X151659749Y-121314233D01*
X152093083Y-120614233D02*
X152159749Y-120614233D01*
X152159749Y-120614233D02*
X152226416Y-120647566D01*
X152226416Y-120647566D02*
X152259749Y-120680900D01*
X152259749Y-120680900D02*
X152293083Y-120747566D01*
X152293083Y-120747566D02*
X152326416Y-120880900D01*
X152326416Y-120880900D02*
X152326416Y-121047566D01*
X152326416Y-121047566D02*
X152293083Y-121180900D01*
X152293083Y-121180900D02*
X152259749Y-121247566D01*
X152259749Y-121247566D02*
X152226416Y-121280900D01*
X152226416Y-121280900D02*
X152159749Y-121314233D01*
X152159749Y-121314233D02*
X152093083Y-121314233D01*
X152093083Y-121314233D02*
X152026416Y-121280900D01*
X152026416Y-121280900D02*
X151993083Y-121247566D01*
X151993083Y-121247566D02*
X151959749Y-121180900D01*
X151959749Y-121180900D02*
X151926416Y-121047566D01*
X151926416Y-121047566D02*
X151926416Y-120880900D01*
X151926416Y-120880900D02*
X151959749Y-120747566D01*
X151959749Y-120747566D02*
X151993083Y-120680900D01*
X151993083Y-120680900D02*
X152026416Y-120647566D01*
X152026416Y-120647566D02*
X152093083Y-120614233D01*
X152593083Y-120680900D02*
X152626416Y-120647566D01*
X152626416Y-120647566D02*
X152693083Y-120614233D01*
X152693083Y-120614233D02*
X152859750Y-120614233D01*
X152859750Y-120614233D02*
X152926416Y-120647566D01*
X152926416Y-120647566D02*
X152959750Y-120680900D01*
X152959750Y-120680900D02*
X152993083Y-120747566D01*
X152993083Y-120747566D02*
X152993083Y-120814233D01*
X152993083Y-120814233D02*
X152959750Y-120914233D01*
X152959750Y-120914233D02*
X152559750Y-121314233D01*
X152559750Y-121314233D02*
X152993083Y-121314233D01*
X153593083Y-120847566D02*
X153593083Y-121314233D01*
X153426417Y-120580900D02*
X153259750Y-121080900D01*
X153259750Y-121080900D02*
X153693083Y-121080900D01*
X143559750Y-122074566D02*
X143793084Y-122074566D01*
X143893084Y-122441233D02*
X143559750Y-122441233D01*
X143559750Y-122441233D02*
X143559750Y-121741233D01*
X143559750Y-121741233D02*
X143893084Y-121741233D01*
X144193083Y-122441233D02*
X144193083Y-121974566D01*
X144193083Y-122107900D02*
X144226417Y-122041233D01*
X144226417Y-122041233D02*
X144259750Y-122007900D01*
X144259750Y-122007900D02*
X144326417Y-121974566D01*
X144326417Y-121974566D02*
X144393083Y-121974566D01*
X144626416Y-122074566D02*
X145159750Y-122074566D01*
X145159750Y-122274566D02*
X144626416Y-122274566D01*
X145793083Y-121974566D02*
X145793083Y-122441233D01*
X145626417Y-121707900D02*
X145459750Y-122207900D01*
X145459750Y-122207900D02*
X145893083Y-122207900D01*
X146159750Y-122374566D02*
X146193084Y-122407900D01*
X146193084Y-122407900D02*
X146159750Y-122441233D01*
X146159750Y-122441233D02*
X146126417Y-122407900D01*
X146126417Y-122407900D02*
X146159750Y-122374566D01*
X146159750Y-122374566D02*
X146159750Y-122441233D01*
X146859750Y-122441233D02*
X146459750Y-122441233D01*
X146659750Y-122441233D02*
X146659750Y-121741233D01*
X146659750Y-121741233D02*
X146593083Y-121841233D01*
X146593083Y-121841233D02*
X146526417Y-121907900D01*
X146526417Y-121907900D02*
X146459750Y-121941233D01*
X147693083Y-122441233D02*
X147693083Y-121741233D01*
X147693083Y-122074566D02*
X148093083Y-122074566D01*
X148093083Y-122441233D02*
X148093083Y-121741233D01*
X148426416Y-122074566D02*
X148959750Y-122074566D01*
X148959750Y-122274566D02*
X148426416Y-122274566D01*
X149426417Y-121741233D02*
X149493083Y-121741233D01*
X149493083Y-121741233D02*
X149559750Y-121774566D01*
X149559750Y-121774566D02*
X149593083Y-121807900D01*
X149593083Y-121807900D02*
X149626417Y-121874566D01*
X149626417Y-121874566D02*
X149659750Y-122007900D01*
X149659750Y-122007900D02*
X149659750Y-122174566D01*
X149659750Y-122174566D02*
X149626417Y-122307900D01*
X149626417Y-122307900D02*
X149593083Y-122374566D01*
X149593083Y-122374566D02*
X149559750Y-122407900D01*
X149559750Y-122407900D02*
X149493083Y-122441233D01*
X149493083Y-122441233D02*
X149426417Y-122441233D01*
X149426417Y-122441233D02*
X149359750Y-122407900D01*
X149359750Y-122407900D02*
X149326417Y-122374566D01*
X149326417Y-122374566D02*
X149293083Y-122307900D01*
X149293083Y-122307900D02*
X149259750Y-122174566D01*
X149259750Y-122174566D02*
X149259750Y-122007900D01*
X149259750Y-122007900D02*
X149293083Y-121874566D01*
X149293083Y-121874566D02*
X149326417Y-121807900D01*
X149326417Y-121807900D02*
X149359750Y-121774566D01*
X149359750Y-121774566D02*
X149426417Y-121741233D01*
X149959750Y-122374566D02*
X149993084Y-122407900D01*
X149993084Y-122407900D02*
X149959750Y-122441233D01*
X149959750Y-122441233D02*
X149926417Y-122407900D01*
X149926417Y-122407900D02*
X149959750Y-122374566D01*
X149959750Y-122374566D02*
X149959750Y-122441233D01*
X150659750Y-122441233D02*
X150259750Y-122441233D01*
X150459750Y-122441233D02*
X150459750Y-121741233D01*
X150459750Y-121741233D02*
X150393083Y-121841233D01*
X150393083Y-121841233D02*
X150326417Y-121907900D01*
X150326417Y-121907900D02*
X150259750Y-121941233D01*
X150959750Y-122441233D02*
X150959750Y-121974566D01*
X150959750Y-122041233D02*
X150993084Y-122007900D01*
X150993084Y-122007900D02*
X151059750Y-121974566D01*
X151059750Y-121974566D02*
X151159750Y-121974566D01*
X151159750Y-121974566D02*
X151226417Y-122007900D01*
X151226417Y-122007900D02*
X151259750Y-122074566D01*
X151259750Y-122074566D02*
X151259750Y-122441233D01*
X151259750Y-122074566D02*
X151293084Y-122007900D01*
X151293084Y-122007900D02*
X151359750Y-121974566D01*
X151359750Y-121974566D02*
X151459750Y-121974566D01*
X151459750Y-121974566D02*
X151526417Y-122007900D01*
X151526417Y-122007900D02*
X151559750Y-122074566D01*
X151559750Y-122074566D02*
X151559750Y-122441233D01*
X151893083Y-122441233D02*
X151893083Y-121974566D01*
X151893083Y-122041233D02*
X151926417Y-122007900D01*
X151926417Y-122007900D02*
X151993083Y-121974566D01*
X151993083Y-121974566D02*
X152093083Y-121974566D01*
X152093083Y-121974566D02*
X152159750Y-122007900D01*
X152159750Y-122007900D02*
X152193083Y-122074566D01*
X152193083Y-122074566D02*
X152193083Y-122441233D01*
X152193083Y-122074566D02*
X152226417Y-122007900D01*
X152226417Y-122007900D02*
X152293083Y-121974566D01*
X152293083Y-121974566D02*
X152393083Y-121974566D01*
X152393083Y-121974566D02*
X152459750Y-122007900D01*
X152459750Y-122007900D02*
X152493083Y-122074566D01*
X152493083Y-122074566D02*
X152493083Y-122441233D01*
D11*
X142201797Y-101618566D02*
X142735131Y-101618566D01*
X143401798Y-101185233D02*
X143068464Y-101185233D01*
X143068464Y-101185233D02*
X143035131Y-101518566D01*
X143035131Y-101518566D02*
X143068464Y-101485233D01*
X143068464Y-101485233D02*
X143135131Y-101451900D01*
X143135131Y-101451900D02*
X143301798Y-101451900D01*
X143301798Y-101451900D02*
X143368464Y-101485233D01*
X143368464Y-101485233D02*
X143401798Y-101518566D01*
X143401798Y-101518566D02*
X143435131Y-101585233D01*
X143435131Y-101585233D02*
X143435131Y-101751900D01*
X143435131Y-101751900D02*
X143401798Y-101818566D01*
X143401798Y-101818566D02*
X143368464Y-101851900D01*
X143368464Y-101851900D02*
X143301798Y-101885233D01*
X143301798Y-101885233D02*
X143135131Y-101885233D01*
X143135131Y-101885233D02*
X143068464Y-101851900D01*
X143068464Y-101851900D02*
X143035131Y-101818566D01*
X143635131Y-101185233D02*
X143868465Y-101885233D01*
X143868465Y-101885233D02*
X144101798Y-101185233D01*
X154461797Y-101658566D02*
X154995131Y-101658566D01*
X154728464Y-101925233D02*
X154728464Y-101391900D01*
X155661798Y-101225233D02*
X155328464Y-101225233D01*
X155328464Y-101225233D02*
X155295131Y-101558566D01*
X155295131Y-101558566D02*
X155328464Y-101525233D01*
X155328464Y-101525233D02*
X155395131Y-101491900D01*
X155395131Y-101491900D02*
X155561798Y-101491900D01*
X155561798Y-101491900D02*
X155628464Y-101525233D01*
X155628464Y-101525233D02*
X155661798Y-101558566D01*
X155661798Y-101558566D02*
X155695131Y-101625233D01*
X155695131Y-101625233D02*
X155695131Y-101791900D01*
X155695131Y-101791900D02*
X155661798Y-101858566D01*
X155661798Y-101858566D02*
X155628464Y-101891900D01*
X155628464Y-101891900D02*
X155561798Y-101925233D01*
X155561798Y-101925233D02*
X155395131Y-101925233D01*
X155395131Y-101925233D02*
X155328464Y-101891900D01*
X155328464Y-101891900D02*
X155295131Y-101858566D01*
X155895131Y-101225233D02*
X156128465Y-101925233D01*
X156128465Y-101925233D02*
X156361798Y-101225233D01*
D10*
%TO.C,C4*%
X158199333Y-103288166D02*
X158166000Y-103321500D01*
X158166000Y-103321500D02*
X158066000Y-103354833D01*
X158066000Y-103354833D02*
X157999333Y-103354833D01*
X157999333Y-103354833D02*
X157899333Y-103321500D01*
X157899333Y-103321500D02*
X157832667Y-103254833D01*
X157832667Y-103254833D02*
X157799333Y-103188166D01*
X157799333Y-103188166D02*
X157766000Y-103054833D01*
X157766000Y-103054833D02*
X157766000Y-102954833D01*
X157766000Y-102954833D02*
X157799333Y-102821500D01*
X157799333Y-102821500D02*
X157832667Y-102754833D01*
X157832667Y-102754833D02*
X157899333Y-102688166D01*
X157899333Y-102688166D02*
X157999333Y-102654833D01*
X157999333Y-102654833D02*
X158066000Y-102654833D01*
X158066000Y-102654833D02*
X158166000Y-102688166D01*
X158166000Y-102688166D02*
X158199333Y-102721500D01*
X158799333Y-102888166D02*
X158799333Y-103354833D01*
X158632667Y-102621500D02*
X158466000Y-103121500D01*
X158466000Y-103121500D02*
X158899333Y-103121500D01*
%TO.C,C1*%
X157742366Y-98178666D02*
X157775700Y-98211999D01*
X157775700Y-98211999D02*
X157809033Y-98311999D01*
X157809033Y-98311999D02*
X157809033Y-98378666D01*
X157809033Y-98378666D02*
X157775700Y-98478666D01*
X157775700Y-98478666D02*
X157709033Y-98545333D01*
X157709033Y-98545333D02*
X157642366Y-98578666D01*
X157642366Y-98578666D02*
X157509033Y-98611999D01*
X157509033Y-98611999D02*
X157409033Y-98611999D01*
X157409033Y-98611999D02*
X157275700Y-98578666D01*
X157275700Y-98578666D02*
X157209033Y-98545333D01*
X157209033Y-98545333D02*
X157142366Y-98478666D01*
X157142366Y-98478666D02*
X157109033Y-98378666D01*
X157109033Y-98378666D02*
X157109033Y-98311999D01*
X157109033Y-98311999D02*
X157142366Y-98211999D01*
X157142366Y-98211999D02*
X157175700Y-98178666D01*
X157809033Y-97511999D02*
X157809033Y-97911999D01*
X157809033Y-97711999D02*
X157109033Y-97711999D01*
X157109033Y-97711999D02*
X157209033Y-97778666D01*
X157209033Y-97778666D02*
X157275700Y-97845333D01*
X157275700Y-97845333D02*
X157309033Y-97911999D01*
%TO.C,J1*%
X138600133Y-104313366D02*
X138600133Y-103813366D01*
X138600133Y-103813366D02*
X138633466Y-103713366D01*
X138633466Y-103713366D02*
X138700133Y-103646700D01*
X138700133Y-103646700D02*
X138800133Y-103613366D01*
X138800133Y-103613366D02*
X138866800Y-103613366D01*
X137900133Y-103613366D02*
X138300133Y-103613366D01*
X138100133Y-103613366D02*
X138100133Y-104313366D01*
X138100133Y-104313366D02*
X138166800Y-104213366D01*
X138166800Y-104213366D02*
X138233467Y-104146700D01*
X138233467Y-104146700D02*
X138300133Y-104113366D01*
%TO.C,FB2*%
X143066667Y-114165766D02*
X142833333Y-114165766D01*
X142833333Y-114532433D02*
X142833333Y-113832433D01*
X142833333Y-113832433D02*
X143166667Y-113832433D01*
X143666667Y-114165766D02*
X143766667Y-114199100D01*
X143766667Y-114199100D02*
X143800000Y-114232433D01*
X143800000Y-114232433D02*
X143833333Y-114299100D01*
X143833333Y-114299100D02*
X143833333Y-114399100D01*
X143833333Y-114399100D02*
X143800000Y-114465766D01*
X143800000Y-114465766D02*
X143766667Y-114499100D01*
X143766667Y-114499100D02*
X143700000Y-114532433D01*
X143700000Y-114532433D02*
X143433333Y-114532433D01*
X143433333Y-114532433D02*
X143433333Y-113832433D01*
X143433333Y-113832433D02*
X143666667Y-113832433D01*
X143666667Y-113832433D02*
X143733333Y-113865766D01*
X143733333Y-113865766D02*
X143766667Y-113899100D01*
X143766667Y-113899100D02*
X143800000Y-113965766D01*
X143800000Y-113965766D02*
X143800000Y-114032433D01*
X143800000Y-114032433D02*
X143766667Y-114099100D01*
X143766667Y-114099100D02*
X143733333Y-114132433D01*
X143733333Y-114132433D02*
X143666667Y-114165766D01*
X143666667Y-114165766D02*
X143433333Y-114165766D01*
X144100000Y-113899100D02*
X144133333Y-113865766D01*
X144133333Y-113865766D02*
X144200000Y-113832433D01*
X144200000Y-113832433D02*
X144366667Y-113832433D01*
X144366667Y-113832433D02*
X144433333Y-113865766D01*
X144433333Y-113865766D02*
X144466667Y-113899100D01*
X144466667Y-113899100D02*
X144500000Y-113965766D01*
X144500000Y-113965766D02*
X144500000Y-114032433D01*
X144500000Y-114032433D02*
X144466667Y-114132433D01*
X144466667Y-114132433D02*
X144066667Y-114532433D01*
X144066667Y-114532433D02*
X144500000Y-114532433D01*
%TO.C,R3*%
X142529819Y-109266666D02*
X142053628Y-109599999D01*
X142529819Y-109838094D02*
X141529819Y-109838094D01*
X141529819Y-109838094D02*
X141529819Y-109457142D01*
X141529819Y-109457142D02*
X141577438Y-109361904D01*
X141577438Y-109361904D02*
X141625057Y-109314285D01*
X141625057Y-109314285D02*
X141720295Y-109266666D01*
X141720295Y-109266666D02*
X141863152Y-109266666D01*
X141863152Y-109266666D02*
X141958390Y-109314285D01*
X141958390Y-109314285D02*
X142006009Y-109361904D01*
X142006009Y-109361904D02*
X142053628Y-109457142D01*
X142053628Y-109457142D02*
X142053628Y-109838094D01*
X141529819Y-108933332D02*
X141529819Y-108314285D01*
X141529819Y-108314285D02*
X141910771Y-108647618D01*
X141910771Y-108647618D02*
X141910771Y-108504761D01*
X141910771Y-108504761D02*
X141958390Y-108409523D01*
X141958390Y-108409523D02*
X142006009Y-108361904D01*
X142006009Y-108361904D02*
X142101247Y-108314285D01*
X142101247Y-108314285D02*
X142339342Y-108314285D01*
X142339342Y-108314285D02*
X142434580Y-108361904D01*
X142434580Y-108361904D02*
X142482200Y-108409523D01*
X142482200Y-108409523D02*
X142529819Y-108504761D01*
X142529819Y-108504761D02*
X142529819Y-108790475D01*
X142529819Y-108790475D02*
X142482200Y-108885713D01*
X142482200Y-108885713D02*
X142434580Y-108933332D01*
%TO.C,C5*%
X149710866Y-113763833D02*
X149744199Y-113730500D01*
X149744199Y-113730500D02*
X149844199Y-113697166D01*
X149844199Y-113697166D02*
X149910866Y-113697166D01*
X149910866Y-113697166D02*
X150010866Y-113730500D01*
X150010866Y-113730500D02*
X150077533Y-113797166D01*
X150077533Y-113797166D02*
X150110866Y-113863833D01*
X150110866Y-113863833D02*
X150144199Y-113997166D01*
X150144199Y-113997166D02*
X150144199Y-114097166D01*
X150144199Y-114097166D02*
X150110866Y-114230500D01*
X150110866Y-114230500D02*
X150077533Y-114297166D01*
X150077533Y-114297166D02*
X150010866Y-114363833D01*
X150010866Y-114363833D02*
X149910866Y-114397166D01*
X149910866Y-114397166D02*
X149844199Y-114397166D01*
X149844199Y-114397166D02*
X149744199Y-114363833D01*
X149744199Y-114363833D02*
X149710866Y-114330500D01*
X149077533Y-114397166D02*
X149410866Y-114397166D01*
X149410866Y-114397166D02*
X149444199Y-114063833D01*
X149444199Y-114063833D02*
X149410866Y-114097166D01*
X149410866Y-114097166D02*
X149344199Y-114130500D01*
X149344199Y-114130500D02*
X149177533Y-114130500D01*
X149177533Y-114130500D02*
X149110866Y-114097166D01*
X149110866Y-114097166D02*
X149077533Y-114063833D01*
X149077533Y-114063833D02*
X149044199Y-113997166D01*
X149044199Y-113997166D02*
X149044199Y-113830500D01*
X149044199Y-113830500D02*
X149077533Y-113763833D01*
X149077533Y-113763833D02*
X149110866Y-113730500D01*
X149110866Y-113730500D02*
X149177533Y-113697166D01*
X149177533Y-113697166D02*
X149344199Y-113697166D01*
X149344199Y-113697166D02*
X149410866Y-113730500D01*
X149410866Y-113730500D02*
X149444199Y-113763833D01*
%TO.C,C2*%
X142709766Y-98178666D02*
X142743100Y-98211999D01*
X142743100Y-98211999D02*
X142776433Y-98311999D01*
X142776433Y-98311999D02*
X142776433Y-98378666D01*
X142776433Y-98378666D02*
X142743100Y-98478666D01*
X142743100Y-98478666D02*
X142676433Y-98545333D01*
X142676433Y-98545333D02*
X142609766Y-98578666D01*
X142609766Y-98578666D02*
X142476433Y-98611999D01*
X142476433Y-98611999D02*
X142376433Y-98611999D01*
X142376433Y-98611999D02*
X142243100Y-98578666D01*
X142243100Y-98578666D02*
X142176433Y-98545333D01*
X142176433Y-98545333D02*
X142109766Y-98478666D01*
X142109766Y-98478666D02*
X142076433Y-98378666D01*
X142076433Y-98378666D02*
X142076433Y-98311999D01*
X142076433Y-98311999D02*
X142109766Y-98211999D01*
X142109766Y-98211999D02*
X142143100Y-98178666D01*
X142143100Y-97911999D02*
X142109766Y-97878666D01*
X142109766Y-97878666D02*
X142076433Y-97811999D01*
X142076433Y-97811999D02*
X142076433Y-97645333D01*
X142076433Y-97645333D02*
X142109766Y-97578666D01*
X142109766Y-97578666D02*
X142143100Y-97545333D01*
X142143100Y-97545333D02*
X142209766Y-97511999D01*
X142209766Y-97511999D02*
X142276433Y-97511999D01*
X142276433Y-97511999D02*
X142376433Y-97545333D01*
X142376433Y-97545333D02*
X142776433Y-97945333D01*
X142776433Y-97945333D02*
X142776433Y-97511999D01*
%TO.C,C3*%
X154617933Y-105243966D02*
X154584600Y-105277300D01*
X154584600Y-105277300D02*
X154484600Y-105310633D01*
X154484600Y-105310633D02*
X154417933Y-105310633D01*
X154417933Y-105310633D02*
X154317933Y-105277300D01*
X154317933Y-105277300D02*
X154251267Y-105210633D01*
X154251267Y-105210633D02*
X154217933Y-105143966D01*
X154217933Y-105143966D02*
X154184600Y-105010633D01*
X154184600Y-105010633D02*
X154184600Y-104910633D01*
X154184600Y-104910633D02*
X154217933Y-104777300D01*
X154217933Y-104777300D02*
X154251267Y-104710633D01*
X154251267Y-104710633D02*
X154317933Y-104643966D01*
X154317933Y-104643966D02*
X154417933Y-104610633D01*
X154417933Y-104610633D02*
X154484600Y-104610633D01*
X154484600Y-104610633D02*
X154584600Y-104643966D01*
X154584600Y-104643966D02*
X154617933Y-104677300D01*
X154851267Y-104610633D02*
X155284600Y-104610633D01*
X155284600Y-104610633D02*
X155051267Y-104877300D01*
X155051267Y-104877300D02*
X155151267Y-104877300D01*
X155151267Y-104877300D02*
X155217933Y-104910633D01*
X155217933Y-104910633D02*
X155251267Y-104943966D01*
X155251267Y-104943966D02*
X155284600Y-105010633D01*
X155284600Y-105010633D02*
X155284600Y-105177300D01*
X155284600Y-105177300D02*
X155251267Y-105243966D01*
X155251267Y-105243966D02*
X155217933Y-105277300D01*
X155217933Y-105277300D02*
X155151267Y-105310633D01*
X155151267Y-105310633D02*
X154951267Y-105310633D01*
X154951267Y-105310633D02*
X154884600Y-105277300D01*
X154884600Y-105277300D02*
X154851267Y-105243966D01*
%TO.C,J2*%
X161399866Y-115686633D02*
X161399866Y-116186633D01*
X161399866Y-116186633D02*
X161366533Y-116286633D01*
X161366533Y-116286633D02*
X161299866Y-116353300D01*
X161299866Y-116353300D02*
X161199866Y-116386633D01*
X161199866Y-116386633D02*
X161133200Y-116386633D01*
X161699866Y-115753300D02*
X161733199Y-115719966D01*
X161733199Y-115719966D02*
X161799866Y-115686633D01*
X161799866Y-115686633D02*
X161966533Y-115686633D01*
X161966533Y-115686633D02*
X162033199Y-115719966D01*
X162033199Y-115719966D02*
X162066533Y-115753300D01*
X162066533Y-115753300D02*
X162099866Y-115819966D01*
X162099866Y-115819966D02*
X162099866Y-115886633D01*
X162099866Y-115886633D02*
X162066533Y-115986633D01*
X162066533Y-115986633D02*
X161666533Y-116386633D01*
X161666533Y-116386633D02*
X162099866Y-116386633D01*
%TO.C,R1*%
X146581333Y-104415633D02*
X146348000Y-104082300D01*
X146181333Y-104415633D02*
X146181333Y-103715633D01*
X146181333Y-103715633D02*
X146448000Y-103715633D01*
X146448000Y-103715633D02*
X146514667Y-103748966D01*
X146514667Y-103748966D02*
X146548000Y-103782300D01*
X146548000Y-103782300D02*
X146581333Y-103848966D01*
X146581333Y-103848966D02*
X146581333Y-103948966D01*
X146581333Y-103948966D02*
X146548000Y-104015633D01*
X146548000Y-104015633D02*
X146514667Y-104048966D01*
X146514667Y-104048966D02*
X146448000Y-104082300D01*
X146448000Y-104082300D02*
X146181333Y-104082300D01*
X147248000Y-104415633D02*
X146848000Y-104415633D01*
X147048000Y-104415633D02*
X147048000Y-103715633D01*
X147048000Y-103715633D02*
X146981333Y-103815633D01*
X146981333Y-103815633D02*
X146914667Y-103882300D01*
X146914667Y-103882300D02*
X146848000Y-103915633D01*
%TO.C,R4*%
X145508333Y-113554819D02*
X145175000Y-113078628D01*
X144936905Y-113554819D02*
X144936905Y-112554819D01*
X144936905Y-112554819D02*
X145317857Y-112554819D01*
X145317857Y-112554819D02*
X145413095Y-112602438D01*
X145413095Y-112602438D02*
X145460714Y-112650057D01*
X145460714Y-112650057D02*
X145508333Y-112745295D01*
X145508333Y-112745295D02*
X145508333Y-112888152D01*
X145508333Y-112888152D02*
X145460714Y-112983390D01*
X145460714Y-112983390D02*
X145413095Y-113031009D01*
X145413095Y-113031009D02*
X145317857Y-113078628D01*
X145317857Y-113078628D02*
X144936905Y-113078628D01*
X146365476Y-112888152D02*
X146365476Y-113554819D01*
X146127381Y-112507200D02*
X145889286Y-113221485D01*
X145889286Y-113221485D02*
X146508333Y-113221485D01*
%TO.C,J3*%
X152560666Y-103164433D02*
X152560666Y-103664433D01*
X152560666Y-103664433D02*
X152527333Y-103764433D01*
X152527333Y-103764433D02*
X152460666Y-103831100D01*
X152460666Y-103831100D02*
X152360666Y-103864433D01*
X152360666Y-103864433D02*
X152294000Y-103864433D01*
X152827333Y-103164433D02*
X153260666Y-103164433D01*
X153260666Y-103164433D02*
X153027333Y-103431100D01*
X153027333Y-103431100D02*
X153127333Y-103431100D01*
X153127333Y-103431100D02*
X153193999Y-103464433D01*
X153193999Y-103464433D02*
X153227333Y-103497766D01*
X153227333Y-103497766D02*
X153260666Y-103564433D01*
X153260666Y-103564433D02*
X153260666Y-103731100D01*
X153260666Y-103731100D02*
X153227333Y-103797766D01*
X153227333Y-103797766D02*
X153193999Y-103831100D01*
X153193999Y-103831100D02*
X153127333Y-103864433D01*
X153127333Y-103864433D02*
X152927333Y-103864433D01*
X152927333Y-103864433D02*
X152860666Y-103831100D01*
X152860666Y-103831100D02*
X152827333Y-103797766D01*
%TO.C,R2*%
X149883333Y-104415633D02*
X149650000Y-104082300D01*
X149483333Y-104415633D02*
X149483333Y-103715633D01*
X149483333Y-103715633D02*
X149750000Y-103715633D01*
X149750000Y-103715633D02*
X149816667Y-103748966D01*
X149816667Y-103748966D02*
X149850000Y-103782300D01*
X149850000Y-103782300D02*
X149883333Y-103848966D01*
X149883333Y-103848966D02*
X149883333Y-103948966D01*
X149883333Y-103948966D02*
X149850000Y-104015633D01*
X149850000Y-104015633D02*
X149816667Y-104048966D01*
X149816667Y-104048966D02*
X149750000Y-104082300D01*
X149750000Y-104082300D02*
X149483333Y-104082300D01*
X150150000Y-103782300D02*
X150183333Y-103748966D01*
X150183333Y-103748966D02*
X150250000Y-103715633D01*
X150250000Y-103715633D02*
X150416667Y-103715633D01*
X150416667Y-103715633D02*
X150483333Y-103748966D01*
X150483333Y-103748966D02*
X150516667Y-103782300D01*
X150516667Y-103782300D02*
X150550000Y-103848966D01*
X150550000Y-103848966D02*
X150550000Y-103915633D01*
X150550000Y-103915633D02*
X150516667Y-104015633D01*
X150516667Y-104015633D02*
X150116667Y-104415633D01*
X150116667Y-104415633D02*
X150550000Y-104415633D01*
%TO.C,U1*%
X150191666Y-112241033D02*
X150191666Y-112807700D01*
X150191666Y-112807700D02*
X150225000Y-112874366D01*
X150225000Y-112874366D02*
X150258333Y-112907700D01*
X150258333Y-112907700D02*
X150325000Y-112941033D01*
X150325000Y-112941033D02*
X150458333Y-112941033D01*
X150458333Y-112941033D02*
X150525000Y-112907700D01*
X150525000Y-112907700D02*
X150558333Y-112874366D01*
X150558333Y-112874366D02*
X150591666Y-112807700D01*
X150591666Y-112807700D02*
X150591666Y-112241033D01*
X151291666Y-112941033D02*
X150891666Y-112941033D01*
X151091666Y-112941033D02*
X151091666Y-112241033D01*
X151091666Y-112241033D02*
X151024999Y-112341033D01*
X151024999Y-112341033D02*
X150958333Y-112407700D01*
X150958333Y-112407700D02*
X150891666Y-112441033D01*
%TO.C,FB1*%
X158925766Y-107508333D02*
X158925766Y-107741666D01*
X159292433Y-107741666D02*
X158592433Y-107741666D01*
X158592433Y-107741666D02*
X158592433Y-107408333D01*
X158925766Y-106908333D02*
X158959100Y-106808333D01*
X158959100Y-106808333D02*
X158992433Y-106774999D01*
X158992433Y-106774999D02*
X159059100Y-106741666D01*
X159059100Y-106741666D02*
X159159100Y-106741666D01*
X159159100Y-106741666D02*
X159225766Y-106774999D01*
X159225766Y-106774999D02*
X159259100Y-106808333D01*
X159259100Y-106808333D02*
X159292433Y-106874999D01*
X159292433Y-106874999D02*
X159292433Y-107141666D01*
X159292433Y-107141666D02*
X158592433Y-107141666D01*
X158592433Y-107141666D02*
X158592433Y-106908333D01*
X158592433Y-106908333D02*
X158625766Y-106841666D01*
X158625766Y-106841666D02*
X158659100Y-106808333D01*
X158659100Y-106808333D02*
X158725766Y-106774999D01*
X158725766Y-106774999D02*
X158792433Y-106774999D01*
X158792433Y-106774999D02*
X158859100Y-106808333D01*
X158859100Y-106808333D02*
X158892433Y-106841666D01*
X158892433Y-106841666D02*
X158925766Y-106908333D01*
X158925766Y-106908333D02*
X158925766Y-107141666D01*
X159292433Y-106074999D02*
X159292433Y-106474999D01*
X159292433Y-106274999D02*
X158592433Y-106274999D01*
X158592433Y-106274999D02*
X158692433Y-106341666D01*
X158692433Y-106341666D02*
X158759100Y-106408333D01*
X158759100Y-106408333D02*
X158792433Y-106474999D01*
%TO.C,R5*%
X143133333Y-112029819D02*
X142800000Y-111553628D01*
X142561905Y-112029819D02*
X142561905Y-111029819D01*
X142561905Y-111029819D02*
X142942857Y-111029819D01*
X142942857Y-111029819D02*
X143038095Y-111077438D01*
X143038095Y-111077438D02*
X143085714Y-111125057D01*
X143085714Y-111125057D02*
X143133333Y-111220295D01*
X143133333Y-111220295D02*
X143133333Y-111363152D01*
X143133333Y-111363152D02*
X143085714Y-111458390D01*
X143085714Y-111458390D02*
X143038095Y-111506009D01*
X143038095Y-111506009D02*
X142942857Y-111553628D01*
X142942857Y-111553628D02*
X142561905Y-111553628D01*
X144038095Y-111029819D02*
X143561905Y-111029819D01*
X143561905Y-111029819D02*
X143514286Y-111506009D01*
X143514286Y-111506009D02*
X143561905Y-111458390D01*
X143561905Y-111458390D02*
X143657143Y-111410771D01*
X143657143Y-111410771D02*
X143895238Y-111410771D01*
X143895238Y-111410771D02*
X143990476Y-111458390D01*
X143990476Y-111458390D02*
X144038095Y-111506009D01*
X144038095Y-111506009D02*
X144085714Y-111601247D01*
X144085714Y-111601247D02*
X144085714Y-111839342D01*
X144085714Y-111839342D02*
X144038095Y-111934580D01*
X144038095Y-111934580D02*
X143990476Y-111982200D01*
X143990476Y-111982200D02*
X143895238Y-112029819D01*
X143895238Y-112029819D02*
X143657143Y-112029819D01*
X143657143Y-112029819D02*
X143561905Y-111982200D01*
X143561905Y-111982200D02*
X143514286Y-111934580D01*
%TO.C,C6*%
X146124133Y-117793166D02*
X146090800Y-117826500D01*
X146090800Y-117826500D02*
X145990800Y-117859833D01*
X145990800Y-117859833D02*
X145924133Y-117859833D01*
X145924133Y-117859833D02*
X145824133Y-117826500D01*
X145824133Y-117826500D02*
X145757467Y-117759833D01*
X145757467Y-117759833D02*
X145724133Y-117693166D01*
X145724133Y-117693166D02*
X145690800Y-117559833D01*
X145690800Y-117559833D02*
X145690800Y-117459833D01*
X145690800Y-117459833D02*
X145724133Y-117326500D01*
X145724133Y-117326500D02*
X145757467Y-117259833D01*
X145757467Y-117259833D02*
X145824133Y-117193166D01*
X145824133Y-117193166D02*
X145924133Y-117159833D01*
X145924133Y-117159833D02*
X145990800Y-117159833D01*
X145990800Y-117159833D02*
X146090800Y-117193166D01*
X146090800Y-117193166D02*
X146124133Y-117226500D01*
X146724133Y-117159833D02*
X146590800Y-117159833D01*
X146590800Y-117159833D02*
X146524133Y-117193166D01*
X146524133Y-117193166D02*
X146490800Y-117226500D01*
X146490800Y-117226500D02*
X146424133Y-117326500D01*
X146424133Y-117326500D02*
X146390800Y-117459833D01*
X146390800Y-117459833D02*
X146390800Y-117726500D01*
X146390800Y-117726500D02*
X146424133Y-117793166D01*
X146424133Y-117793166D02*
X146457467Y-117826500D01*
X146457467Y-117826500D02*
X146524133Y-117859833D01*
X146524133Y-117859833D02*
X146657467Y-117859833D01*
X146657467Y-117859833D02*
X146724133Y-117826500D01*
X146724133Y-117826500D02*
X146757467Y-117793166D01*
X146757467Y-117793166D02*
X146790800Y-117726500D01*
X146790800Y-117726500D02*
X146790800Y-117559833D01*
X146790800Y-117559833D02*
X146757467Y-117493166D01*
X146757467Y-117493166D02*
X146724133Y-117459833D01*
X146724133Y-117459833D02*
X146657467Y-117426500D01*
X146657467Y-117426500D02*
X146524133Y-117426500D01*
X146524133Y-117426500D02*
X146457467Y-117459833D01*
X146457467Y-117459833D02*
X146424133Y-117493166D01*
X146424133Y-117493166D02*
X146390800Y-117559833D01*
D12*
%TO.C,C4*%
X157153733Y-103824200D02*
X157446267Y-103824200D01*
X157153733Y-104844200D02*
X157446267Y-104844200D01*
%TO.C,C1*%
X154779600Y-98773252D02*
X154779600Y-97350748D01*
X156599600Y-98773252D02*
X156599600Y-97350748D01*
%TO.C,FB2*%
X146756052Y-115282000D02*
X146233548Y-115282000D01*
X146756052Y-113862000D02*
X146233548Y-113862000D01*
%TO.C,R3*%
X144247500Y-108895276D02*
X144247500Y-109404724D01*
X143202500Y-108895276D02*
X143202500Y-109404724D01*
%TO.C,C5*%
X148228733Y-112334800D02*
X148521267Y-112334800D01*
X148228733Y-113354800D02*
X148521267Y-113354800D01*
%TO.C,C2*%
X143400400Y-98773252D02*
X143400400Y-97350748D01*
X145220400Y-98773252D02*
X145220400Y-97350748D01*
%TO.C,C3*%
X154250000Y-107274467D02*
X154250000Y-106981933D01*
X155270000Y-107274467D02*
X155270000Y-106981933D01*
%TO.C,R1*%
X146443276Y-105007100D02*
X146952724Y-105007100D01*
X146443276Y-106052100D02*
X146952724Y-106052100D01*
%TO.C,R4*%
X146072500Y-110745276D02*
X146072500Y-111254724D01*
X145027500Y-110745276D02*
X145027500Y-111254724D01*
%TO.C,J3*%
X154210000Y-101616800D02*
X154210000Y-97616800D01*
X153920000Y-102646800D02*
X153920000Y-96626800D01*
X153920000Y-96626800D02*
X146080000Y-96626800D01*
X153340000Y-102646800D02*
X153340000Y-102046800D01*
X153340000Y-102046800D02*
X151740000Y-102046800D01*
X152540000Y-97626800D02*
X152290000Y-98156800D01*
X152540000Y-97626800D02*
X147460000Y-97626800D01*
X152540000Y-96626800D02*
X152540000Y-97626800D01*
X152290000Y-98156800D02*
X147710000Y-98156800D01*
X152290000Y-96626800D02*
X152290000Y-97626800D01*
X151740000Y-102046800D02*
X151740000Y-102646800D01*
X150800000Y-102646800D02*
X150800000Y-102046800D01*
X150800000Y-102046800D02*
X149200000Y-102046800D01*
X149200000Y-102046800D02*
X149200000Y-102646800D01*
X148260000Y-102646800D02*
X148260000Y-102046800D01*
X148260000Y-102046800D02*
X146660000Y-102046800D01*
X147710000Y-98156800D02*
X147460000Y-97626800D01*
X147710000Y-96626800D02*
X147710000Y-97626800D01*
X147460000Y-97626800D02*
X147460000Y-96626800D01*
X146660000Y-102046800D02*
X146660000Y-102646800D01*
X146080000Y-102646800D02*
X153920000Y-102646800D01*
X146080000Y-96626800D02*
X146080000Y-102646800D01*
%TO.C,R2*%
X149745276Y-105007100D02*
X150254724Y-105007100D01*
X149745276Y-106052100D02*
X150254724Y-106052100D01*
%TO.C,U1*%
X150000000Y-106830400D02*
X146550000Y-106830400D01*
X150000000Y-106830400D02*
X151950000Y-106830400D01*
X150000000Y-111950400D02*
X148050000Y-111950400D01*
X150000000Y-111950400D02*
X151950000Y-111950400D01*
%TO.C,FB1*%
X157197200Y-106663748D02*
X157197200Y-107186252D01*
X155777200Y-106663748D02*
X155777200Y-107186252D01*
%TO.C,R5*%
X144904724Y-110597500D02*
X144395276Y-110597500D01*
X144904724Y-109552500D02*
X144395276Y-109552500D01*
%TO.C,C6*%
X146196133Y-115789200D02*
X146488667Y-115789200D01*
X146196133Y-116809200D02*
X146488667Y-116809200D01*
%TD*%
M02*
