%TF.GenerationSoftware,KiCad,Pcbnew,7.0.5-0*%
%TF.CreationDate,2024-02-16T15:34:04-04:00*%
%TF.ProjectId,F2V Chip,46325620-4368-4697-902e-6b696361645f,rev?*%
%TF.SameCoordinates,Original*%
%TF.FileFunction,Copper,L4,Bot*%
%TF.FilePolarity,Positive*%
%FSLAX46Y46*%
G04 Gerber Fmt 4.6, Leading zero omitted, Abs format (unit mm)*
G04 Created by KiCad (PCBNEW 7.0.5-0) date 2024-02-16 15:34:04*
%MOMM*%
%LPD*%
G01*
G04 APERTURE LIST*
G04 Aperture macros list*
%AMRoundRect*
0 Rectangle with rounded corners*
0 $1 Rounding radius*
0 $2 $3 $4 $5 $6 $7 $8 $9 X,Y pos of 4 corners*
0 Add a 4 corners polygon primitive as box body*
4,1,4,$2,$3,$4,$5,$6,$7,$8,$9,$2,$3,0*
0 Add four circle primitives for the rounded corners*
1,1,$1+$1,$2,$3*
1,1,$1+$1,$4,$5*
1,1,$1+$1,$6,$7*
1,1,$1+$1,$8,$9*
0 Add four rect primitives between the rounded corners*
20,1,$1+$1,$2,$3,$4,$5,0*
20,1,$1+$1,$4,$5,$6,$7,0*
20,1,$1+$1,$6,$7,$8,$9,0*
20,1,$1+$1,$8,$9,$2,$3,0*%
G04 Aperture macros list end*
%TA.AperFunction,ComponentPad*%
%ADD10C,0.800000*%
%TD*%
%TA.AperFunction,ComponentPad*%
%ADD11C,5.400000*%
%TD*%
%TA.AperFunction,ComponentPad*%
%ADD12C,1.440000*%
%TD*%
%TA.AperFunction,ComponentPad*%
%ADD13RoundRect,0.250000X0.620000X0.845000X-0.620000X0.845000X-0.620000X-0.845000X0.620000X-0.845000X0*%
%TD*%
%TA.AperFunction,ComponentPad*%
%ADD14O,1.740000X2.190000*%
%TD*%
%TA.AperFunction,SMDPad,CuDef*%
%ADD15RoundRect,0.237500X-0.300000X-0.237500X0.300000X-0.237500X0.300000X0.237500X-0.300000X0.237500X0*%
%TD*%
%TA.AperFunction,SMDPad,CuDef*%
%ADD16RoundRect,0.237500X0.237500X-0.300000X0.237500X0.300000X-0.237500X0.300000X-0.237500X-0.300000X0*%
%TD*%
%TA.AperFunction,SMDPad,CuDef*%
%ADD17RoundRect,0.250000X-0.412500X-0.650000X0.412500X-0.650000X0.412500X0.650000X-0.412500X0.650000X0*%
%TD*%
%TA.AperFunction,SMDPad,CuDef*%
%ADD18RoundRect,0.250000X0.412500X0.650000X-0.412500X0.650000X-0.412500X-0.650000X0.412500X-0.650000X0*%
%TD*%
%TA.AperFunction,SMDPad,CuDef*%
%ADD19RoundRect,0.237500X-0.237500X0.250000X-0.237500X-0.250000X0.237500X-0.250000X0.237500X0.250000X0*%
%TD*%
%TA.AperFunction,SMDPad,CuDef*%
%ADD20RoundRect,0.237500X0.237500X-0.250000X0.237500X0.250000X-0.237500X0.250000X-0.237500X-0.250000X0*%
%TD*%
%TA.AperFunction,SMDPad,CuDef*%
%ADD21RoundRect,0.237500X0.250000X0.237500X-0.250000X0.237500X-0.250000X-0.237500X0.250000X-0.237500X0*%
%TD*%
%TA.AperFunction,SMDPad,CuDef*%
%ADD22RoundRect,0.150000X0.150000X-0.725000X0.150000X0.725000X-0.150000X0.725000X-0.150000X-0.725000X0*%
%TD*%
%TA.AperFunction,SMDPad,CuDef*%
%ADD23RoundRect,0.237500X-0.237500X0.300000X-0.237500X-0.300000X0.237500X-0.300000X0.237500X0.300000X0*%
%TD*%
%TA.AperFunction,SMDPad,CuDef*%
%ADD24RoundRect,0.250000X-0.450000X0.325000X-0.450000X-0.325000X0.450000X-0.325000X0.450000X0.325000X0*%
%TD*%
%TA.AperFunction,SMDPad,CuDef*%
%ADD25RoundRect,0.250000X0.450000X-0.325000X0.450000X0.325000X-0.450000X0.325000X-0.450000X-0.325000X0*%
%TD*%
%TA.AperFunction,ViaPad*%
%ADD26C,0.600000*%
%TD*%
%TA.AperFunction,ViaPad*%
%ADD27C,0.800000*%
%TD*%
%TA.AperFunction,Conductor*%
%ADD28C,0.250000*%
%TD*%
%TA.AperFunction,Conductor*%
%ADD29C,1.000000*%
%TD*%
%TA.AperFunction,Conductor*%
%ADD30C,0.600000*%
%TD*%
%TA.AperFunction,Conductor*%
%ADD31C,0.900000*%
%TD*%
G04 APERTURE END LIST*
D10*
%TO.P,MH1,1,1*%
%TO.N,GND*%
X136975000Y-99000000D03*
X137568109Y-97568109D03*
X137568109Y-100431891D03*
X139000000Y-96975000D03*
D11*
X139000000Y-99000000D03*
D10*
X139000000Y-101025000D03*
X140431891Y-97568109D03*
X140431891Y-100431891D03*
X141025000Y-99000000D03*
%TD*%
%TO.P,MH4,1,1*%
%TO.N,GND*%
X158975000Y-121000000D03*
X159568109Y-119568109D03*
X159568109Y-122431891D03*
X161000000Y-118975000D03*
D11*
X161000000Y-121000000D03*
D10*
X161000000Y-123025000D03*
X162431891Y-119568109D03*
X162431891Y-122431891D03*
X163025000Y-121000000D03*
%TD*%
%TO.P,MH3,1,1*%
%TO.N,GND*%
X136975000Y-121000000D03*
X137568109Y-119568109D03*
X137568109Y-122431891D03*
X139000000Y-118975000D03*
D11*
X139000000Y-121000000D03*
D10*
X139000000Y-123025000D03*
X140431891Y-119568109D03*
X140431891Y-122431891D03*
X141025000Y-121000000D03*
%TD*%
D12*
%TO.P,R6,1,1*%
%TO.N,Net-(IC1-2_VOUT)*%
X156883400Y-110000000D03*
%TO.P,R6,2,2*%
%TO.N,Net-(R6-Pad2)*%
X156883400Y-107460000D03*
%TO.P,R6,3,3*%
X156883400Y-104920000D03*
%TD*%
D10*
%TO.P,MH2,1,1*%
%TO.N,GND*%
X158975000Y-99000000D03*
X159568109Y-97568109D03*
X159568109Y-100431891D03*
X161000000Y-96975000D03*
D11*
X161000000Y-99000000D03*
D10*
X161000000Y-101025000D03*
X162431891Y-97568109D03*
X162431891Y-100431891D03*
X163025000Y-99000000D03*
%TD*%
D13*
%TO.P,J3,1,Pin_1*%
%TO.N,/+15V*%
X152717800Y-98417600D03*
D14*
%TO.P,J3,2,Pin_2*%
%TO.N,GND*%
X150177800Y-98417600D03*
%TO.P,J3,3,Pin_3*%
%TO.N,/-15V*%
X147637800Y-98417600D03*
%TD*%
D12*
%TO.P,R9,1,1*%
%TO.N,Net-(IC1-20_OFFSET)*%
X151524000Y-121658600D03*
%TO.P,R9,2,2*%
%TO.N,Net-(R10-Pad1)*%
X154064000Y-121658600D03*
%TO.P,R9,3,3*%
%TO.N,Net-(IC1-19_OFFSET)*%
X156604000Y-121658600D03*
%TD*%
D15*
%TO.P,C9,1*%
%TO.N,/+15V*%
X149823300Y-119880600D03*
%TO.P,C9,2*%
%TO.N,GND*%
X151548300Y-119880600D03*
%TD*%
D16*
%TO.P,C5,1*%
%TO.N,GND*%
X151143000Y-117949100D03*
%TO.P,C5,2*%
%TO.N,Net-(IC1-18_+VS)*%
X151143000Y-116224100D03*
%TD*%
D17*
%TO.P,C12,1*%
%TO.N,/+15V*%
X152755500Y-100856000D03*
%TO.P,C12,2*%
%TO.N,GND*%
X155880500Y-100856000D03*
%TD*%
D18*
%TO.P,C13,1*%
%TO.N,/-15V*%
X147650900Y-100906800D03*
%TO.P,C13,2*%
%TO.N,GND*%
X144525900Y-100906800D03*
%TD*%
D19*
%TO.P,R13,1*%
%TO.N,Net-(IC1-12_FOUT)*%
X144208800Y-112567300D03*
%TO.P,R13,2*%
%TO.N,/+5V_REF_f2v*%
X144208800Y-114392300D03*
%TD*%
D20*
%TO.P,R11,1*%
%TO.N,Net-(D1-A)*%
X142100600Y-114368800D03*
%TO.P,R11,2*%
%TO.N,Net-(IC1-12_FOUT)*%
X142100600Y-112543800D03*
%TD*%
D21*
%TO.P,R8,1*%
%TO.N,Net-(IC1-2_VOUT)*%
X152825000Y-110000000D03*
%TO.P,R8,2*%
%TO.N,Net-(IC1-8_-VS)*%
X151000000Y-110000000D03*
%TD*%
D22*
%TO.P,IC2,1*%
%TO.N,unconnected-(IC2-Pad1)*%
X146723400Y-122989000D03*
%TO.P,IC2,2,V+*%
%TO.N,/+15V*%
X145453400Y-122989000D03*
%TO.P,IC2,3,OPT*%
%TO.N,unconnected-(IC2-OPT-Pad3)*%
X144183400Y-122989000D03*
%TO.P,IC2,4,GND*%
%TO.N,GND*%
X142913400Y-122989000D03*
%TO.P,IC2,5,TRM*%
%TO.N,unconnected-(IC2-TRM-Pad5)*%
X142913400Y-117839000D03*
%TO.P,IC2,6,VO*%
%TO.N,/+5V_REF_f2v*%
X144183400Y-117839000D03*
%TO.P,IC2,7*%
%TO.N,unconnected-(IC2-Pad7)*%
X145453400Y-117839000D03*
%TO.P,IC2,8*%
%TO.N,unconnected-(IC2-Pad8)*%
X146723400Y-117839000D03*
%TD*%
D23*
%TO.P,C2,1*%
%TO.N,GND*%
X145885200Y-105429100D03*
%TO.P,C2,2*%
%TO.N,Net-(IC1-8_-VS)*%
X145885200Y-107154100D03*
%TD*%
D24*
%TO.P,FB1,1*%
%TO.N,/-15V*%
X147587000Y-105088800D03*
%TO.P,FB1,2*%
%TO.N,Net-(IC1-8_-VS)*%
X147587000Y-107138800D03*
%TD*%
D25*
%TO.P,FB2,1*%
%TO.N,/+15V*%
X149441200Y-118314800D03*
%TO.P,FB2,2*%
%TO.N,Net-(IC1-18_+VS)*%
X149441200Y-116264800D03*
%TD*%
D23*
%TO.P,C10,1*%
%TO.N,/+15V*%
X148272800Y-119957900D03*
%TO.P,C10,2*%
%TO.N,GND*%
X148272800Y-121682900D03*
%TD*%
%TO.P,C3,1*%
%TO.N,Net-(IC1-4_-IN)*%
X154700000Y-108237500D03*
%TO.P,C3,2*%
%TO.N,Net-(IC1-2_VOUT)*%
X154700000Y-109962500D03*
%TD*%
D15*
%TO.P,C1,1*%
%TO.N,/-15V*%
X147588100Y-103523000D03*
%TO.P,C1,2*%
%TO.N,GND*%
X149313100Y-103523000D03*
%TD*%
D20*
%TO.P,R7,1*%
%TO.N,Net-(IC1-4_-IN)*%
X154700000Y-106712500D03*
%TO.P,R7,2*%
%TO.N,Net-(R6-Pad2)*%
X154700000Y-104887500D03*
%TD*%
D15*
%TO.P,C11,1*%
%TO.N,/+5V_REF_f2v*%
X144188991Y-115909427D03*
%TO.P,C11,2*%
%TO.N,GND*%
X145913991Y-115909427D03*
%TD*%
D20*
%TO.P,R10,1*%
%TO.N,Net-(R10-Pad1)*%
X152616200Y-117999100D03*
%TO.P,R10,2*%
%TO.N,Net-(IC1-18_+VS)*%
X152616200Y-116174100D03*
%TD*%
D26*
%TO.N,GND*%
X153697425Y-95750000D03*
X140447425Y-95750000D03*
X159620501Y-124250000D03*
X157215635Y-96750000D03*
X141466655Y-95750000D03*
X145400000Y-120100000D03*
X150443894Y-124290000D03*
X146378029Y-119264169D03*
X158228319Y-96750000D03*
X161250000Y-103100000D03*
X143505117Y-95750000D03*
X135750000Y-120563421D03*
X148601271Y-95750000D03*
X135750000Y-97799225D03*
X138500000Y-103100000D03*
X135750000Y-101933075D03*
X163250000Y-123250000D03*
X164250000Y-118538053D03*
X143038053Y-96750000D03*
X150639732Y-95750000D03*
X148145800Y-110863600D03*
X164250000Y-103100000D03*
X151658963Y-95750000D03*
X155308600Y-102557800D03*
X135750000Y-98832687D03*
X155190266Y-96750000D03*
X140000000Y-103100000D03*
X154800000Y-118100000D03*
X158793578Y-95750000D03*
X137000000Y-103100000D03*
X143500000Y-119200000D03*
X149949200Y-105047000D03*
X145910600Y-103929400D03*
X141012684Y-96750000D03*
X153481947Y-124290000D03*
X136250000Y-103100000D03*
X155410200Y-119702800D03*
X157162800Y-103192800D03*
X154716655Y-95750000D03*
X149400000Y-121000000D03*
X156500000Y-114000000D03*
X147362061Y-120813684D03*
X164250000Y-99866150D03*
X135750000Y-100899612D03*
X162000000Y-117000000D03*
X157595132Y-124250000D03*
X164250000Y-121576106D03*
X156202950Y-96750000D03*
X147900000Y-118600000D03*
X155200000Y-113000000D03*
X150787400Y-112311400D03*
X162750000Y-103100000D03*
X150838200Y-101364000D03*
X135750000Y-118538053D03*
X154546600Y-114700000D03*
X164250000Y-101933075D03*
X160500000Y-117000000D03*
X149898400Y-110863600D03*
X163250000Y-96750000D03*
X160633185Y-124250000D03*
X164250000Y-100899612D03*
X149620502Y-95750000D03*
X142025369Y-96750000D03*
X135750000Y-99866150D03*
X155735886Y-95750000D03*
X160917312Y-95750000D03*
X159000000Y-114500000D03*
X149898400Y-109111000D03*
X159000000Y-105600000D03*
X159173076Y-123250000D03*
X146402612Y-121589179D03*
X154494631Y-124290000D03*
X141999251Y-111500000D03*
X157774348Y-95750000D03*
X137000000Y-114500000D03*
X157500000Y-115300000D03*
X138500000Y-114500000D03*
X157264400Y-111828800D03*
X152900000Y-119200000D03*
X148918321Y-123290000D03*
X162000000Y-103100000D03*
X139250000Y-114500000D03*
X164250000Y-97799225D03*
X141375000Y-105600000D03*
X142608600Y-105072400D03*
X156520000Y-124290000D03*
X163500000Y-117000000D03*
X135750000Y-121576106D03*
X145400000Y-116400000D03*
X152678194Y-95750000D03*
X160500000Y-103100000D03*
X139366814Y-124250000D03*
X142485886Y-95750000D03*
X136750000Y-118821428D03*
X158607817Y-124250000D03*
X149937552Y-123290000D03*
X152921000Y-104843800D03*
X150050800Y-113352800D03*
X140300000Y-113000000D03*
X146240800Y-111168400D03*
X147079000Y-109898400D03*
X139082687Y-95750000D03*
X159000000Y-109000000D03*
X152336800Y-102634000D03*
X155334000Y-98417600D03*
X148418525Y-124290000D03*
X161645870Y-124250000D03*
X155800000Y-106000000D03*
X151456578Y-124290000D03*
X162750000Y-117000000D03*
X136750000Y-96750000D03*
X155507316Y-124290000D03*
X164250000Y-120563421D03*
X163250000Y-101928571D03*
X135500000Y-114500000D03*
X164250000Y-119550737D03*
X159000000Y-111000000D03*
X143200000Y-122000000D03*
X149593600Y-102253000D03*
X156755117Y-95750000D03*
X146562809Y-95750000D03*
X140379498Y-124250000D03*
X144050738Y-96750000D03*
X148120400Y-108780800D03*
X139250000Y-103100000D03*
X136750000Y-123250000D03*
X135500000Y-103100000D03*
X155600000Y-115900000D03*
X164250000Y-98832687D03*
X152400000Y-106100000D03*
X145326400Y-98570000D03*
X159000000Y-103600000D03*
X161250000Y-117000000D03*
X149431210Y-124290000D03*
X146215400Y-109009400D03*
X152469263Y-124290000D03*
X146215400Y-102684800D03*
X140856000Y-116883400D03*
X151800000Y-108700000D03*
X146240800Y-113302000D03*
X146088400Y-100906800D03*
X155105400Y-111955800D03*
X144488200Y-104945400D03*
X145063422Y-96750000D03*
X152800000Y-107600000D03*
X159000000Y-116500000D03*
X135750000Y-119550737D03*
X136250000Y-114500000D03*
X137750000Y-114500000D03*
X144600000Y-121300000D03*
X163500000Y-103100000D03*
X147582040Y-95750000D03*
X159802575Y-95750000D03*
X138354129Y-124250000D03*
X150965200Y-104107200D03*
X136750000Y-101928571D03*
X137750000Y-103100000D03*
X138049225Y-95750000D03*
X148018800Y-113352800D03*
X142600000Y-120500000D03*
X141392182Y-124250000D03*
X145543578Y-95750000D03*
X161950774Y-95750000D03*
X164250000Y-117000000D03*
X144524348Y-95750000D03*
X141900000Y-109500000D03*
%TO.N,Net-(IC1-8_-VS)*%
X145910600Y-107155200D03*
%TO.N,Net-(IC1-4_-IN)*%
X151041400Y-106875800D03*
%TO.N,Net-(IC1-2_VOUT)*%
X152900000Y-110000000D03*
%TO.N,Net-(IC1-18_+VS)*%
X151016000Y-116223000D03*
D27*
%TO.N,/+15V*%
X152717800Y-100856000D03*
X149034800Y-119855200D03*
D26*
%TO.N,Net-(D1-A)*%
X141694200Y-114724400D03*
%TO.N,Net-(IC1-12_FOUT)*%
X143167400Y-112540000D03*
%TD*%
D28*
%TO.N,Net-(IC1-8_-VS)*%
X147333000Y-108670177D02*
X147333000Y-107682749D01*
X147538026Y-107187774D02*
X147587000Y-107138800D01*
X148309269Y-109853553D02*
X147479446Y-109023730D01*
X151000000Y-110000000D02*
X148662823Y-110000000D01*
X147333017Y-108670177D02*
G75*
G03*
X147479447Y-109023729I499983J-23D01*
G01*
X147538051Y-107187799D02*
G75*
G03*
X147333000Y-107682749I494949J-495001D01*
G01*
X148309258Y-109853564D02*
G75*
G03*
X148662823Y-110000000I353542J353564D01*
G01*
%TO.N,Net-(IC1-4_-IN)*%
X152293053Y-108127453D02*
X151041400Y-106875800D01*
X155080000Y-106721500D02*
X154925700Y-106875800D01*
X155080000Y-108273900D02*
X152646607Y-108273900D01*
X152293050Y-108127456D02*
G75*
G03*
X152646607Y-108273900I353550J353556D01*
G01*
D29*
%TO.N,Net-(R6-Pad2)*%
X156883400Y-104920000D02*
X156883400Y-107460000D01*
X154700000Y-104887500D02*
X154709000Y-104896500D01*
X154709000Y-104896500D02*
X156859900Y-104896500D01*
D30*
%TO.N,/+15V*%
X145658426Y-121148774D02*
X146644275Y-120162925D01*
X145453400Y-122963600D02*
X145453400Y-121643749D01*
X147139249Y-119957900D02*
X148272800Y-119957900D01*
X147139249Y-119957865D02*
G75*
G03*
X146644276Y-120162926I51J-700035D01*
G01*
X145658451Y-121148799D02*
G75*
G03*
X145453400Y-121643749I494949J-495001D01*
G01*
D29*
%TO.N,Net-(IC1-12_FOUT)*%
X142124100Y-112567300D02*
X142100600Y-112543800D01*
X144208800Y-112567300D02*
X142124100Y-112567300D01*
D31*
%TO.N,Net-(R10-Pad1)*%
X153010151Y-117999100D02*
X152616200Y-117999100D01*
X154064000Y-121658600D02*
X154064000Y-119052949D01*
X153858974Y-118557974D02*
X153505125Y-118204125D01*
X154063965Y-119052949D02*
G75*
G03*
X153858974Y-118557974I-699965J49D01*
G01*
X153505150Y-118204100D02*
G75*
G03*
X153010151Y-117999100I-494950J-495000D01*
G01*
%TD*%
%TA.AperFunction,Conductor*%
%TO.N,GND*%
G36*
X160999378Y-95001198D02*
G01*
X161000592Y-95001228D01*
X161007999Y-95001500D01*
X161075065Y-95003970D01*
X161172361Y-95008468D01*
X161172638Y-95008573D01*
X161172641Y-95008481D01*
X161172866Y-95008492D01*
X161195475Y-95009603D01*
X161196635Y-95009675D01*
X161250798Y-95013670D01*
X161390399Y-95023968D01*
X161392797Y-95024204D01*
X161585046Y-95047915D01*
X161587395Y-95048264D01*
X161778252Y-95081382D01*
X161780577Y-95081844D01*
X161969569Y-95124284D01*
X161971899Y-95124867D01*
X162158613Y-95176538D01*
X162160876Y-95177225D01*
X162344799Y-95237984D01*
X162347007Y-95238774D01*
X162527783Y-95308506D01*
X162529977Y-95309415D01*
X162689375Y-95380071D01*
X162707050Y-95387906D01*
X162709208Y-95388926D01*
X162882240Y-95476022D01*
X162884359Y-95477155D01*
X163052861Y-95572610D01*
X163054945Y-95573859D01*
X163218584Y-95677482D01*
X163220577Y-95678813D01*
X163348328Y-95768785D01*
X163378937Y-95790343D01*
X163380869Y-95791775D01*
X163533568Y-95910943D01*
X163535430Y-95912472D01*
X163682065Y-96038959D01*
X163683865Y-96040590D01*
X163824139Y-96174141D01*
X163825858Y-96175860D01*
X163959409Y-96316134D01*
X163961040Y-96317934D01*
X164087527Y-96464569D01*
X164089059Y-96466435D01*
X164208219Y-96619123D01*
X164209656Y-96621062D01*
X164258287Y-96690113D01*
X164321179Y-96779412D01*
X164322517Y-96781415D01*
X164426140Y-96945054D01*
X164427389Y-96947138D01*
X164522844Y-97115640D01*
X164523976Y-97117757D01*
X164611060Y-97290764D01*
X164612088Y-97292938D01*
X164690580Y-97470012D01*
X164691501Y-97472237D01*
X164761217Y-97652969D01*
X164762025Y-97655229D01*
X164822764Y-97839091D01*
X164823468Y-97841412D01*
X164833393Y-97877273D01*
X164875125Y-98028072D01*
X164875715Y-98030430D01*
X164918152Y-98219410D01*
X164918626Y-98221793D01*
X164951732Y-98412589D01*
X164952089Y-98414992D01*
X164975793Y-98607182D01*
X164976031Y-98609601D01*
X164990323Y-98803357D01*
X164990398Y-98804569D01*
X164991518Y-98827369D01*
X164992549Y-98849659D01*
X164996025Y-98924863D01*
X164998771Y-98999408D01*
X164998801Y-99000622D01*
X164999500Y-99057498D01*
X164999500Y-120942500D01*
X164998801Y-120999377D01*
X164998771Y-121000591D01*
X164996025Y-121075135D01*
X164994203Y-121114564D01*
X164991536Y-121172272D01*
X164991525Y-121172504D01*
X164990398Y-121195430D01*
X164990323Y-121196642D01*
X164976031Y-121390398D01*
X164975793Y-121392817D01*
X164952089Y-121585007D01*
X164951732Y-121587410D01*
X164918626Y-121778206D01*
X164918152Y-121780589D01*
X164875715Y-121969569D01*
X164875125Y-121971927D01*
X164823470Y-122158582D01*
X164822764Y-122160907D01*
X164762020Y-122344784D01*
X164761212Y-122347043D01*
X164717576Y-122460168D01*
X164691510Y-122527742D01*
X164690580Y-122529987D01*
X164612088Y-122707061D01*
X164611049Y-122709257D01*
X164523985Y-122882224D01*
X164522839Y-122884367D01*
X164427389Y-123052861D01*
X164426140Y-123054945D01*
X164322517Y-123218584D01*
X164321167Y-123220605D01*
X164209656Y-123378937D01*
X164208209Y-123380889D01*
X164089069Y-123533552D01*
X164087528Y-123535430D01*
X163961026Y-123682082D01*
X163959394Y-123683883D01*
X163825858Y-123824139D01*
X163824140Y-123825857D01*
X163683865Y-123959409D01*
X163682065Y-123961040D01*
X163535430Y-124087527D01*
X163533552Y-124089069D01*
X163380889Y-124208209D01*
X163378937Y-124209656D01*
X163220605Y-124321167D01*
X163218584Y-124322517D01*
X163054945Y-124426140D01*
X163052861Y-124427389D01*
X162884359Y-124522844D01*
X162882215Y-124523990D01*
X162709234Y-124611061D01*
X162707037Y-124612100D01*
X162529987Y-124690580D01*
X162527742Y-124691510D01*
X162347050Y-124761209D01*
X162344763Y-124762027D01*
X162160908Y-124822764D01*
X162158583Y-124823470D01*
X161971927Y-124875125D01*
X161969569Y-124875715D01*
X161780589Y-124918152D01*
X161778212Y-124918624D01*
X161737658Y-124925661D01*
X161587410Y-124951732D01*
X161585007Y-124952089D01*
X161392817Y-124975793D01*
X161390398Y-124976031D01*
X161196642Y-124990323D01*
X161195430Y-124990398D01*
X161172597Y-124991520D01*
X161155959Y-124992289D01*
X161075135Y-124996025D01*
X161000591Y-124998771D01*
X160999377Y-124998801D01*
X160942501Y-124999500D01*
X139057499Y-124999500D01*
X139000622Y-124998801D01*
X138999408Y-124998771D01*
X138924863Y-124996025D01*
X138827638Y-124991531D01*
X138827491Y-124991475D01*
X138827350Y-124991517D01*
X138826398Y-124991471D01*
X138804569Y-124990398D01*
X138803357Y-124990323D01*
X138609601Y-124976031D01*
X138607182Y-124975793D01*
X138461801Y-124957862D01*
X138414986Y-124952088D01*
X138412589Y-124951732D01*
X138302807Y-124932683D01*
X138221779Y-124918623D01*
X138219410Y-124918152D01*
X138030430Y-124875715D01*
X138028072Y-124875125D01*
X137841416Y-124823470D01*
X137839097Y-124822766D01*
X137655223Y-124762023D01*
X137652969Y-124761217D01*
X137472237Y-124691501D01*
X137470012Y-124690580D01*
X137292938Y-124612088D01*
X137290764Y-124611060D01*
X137117757Y-124523976D01*
X137115640Y-124522844D01*
X136947138Y-124427389D01*
X136945054Y-124426140D01*
X136781415Y-124322517D01*
X136779412Y-124321179D01*
X136690113Y-124258287D01*
X136621062Y-124209656D01*
X136619123Y-124208219D01*
X136466435Y-124089059D01*
X136464569Y-124087528D01*
X136366806Y-124003198D01*
X136317917Y-123961026D01*
X136316129Y-123959406D01*
X136175856Y-123825854D01*
X136174142Y-123824140D01*
X136100947Y-123747260D01*
X143682900Y-123747260D01*
X143689518Y-123792682D01*
X143692827Y-123815395D01*
X143744201Y-123920481D01*
X143744202Y-123920483D01*
X143826917Y-124003198D01*
X143880685Y-124029483D01*
X143932004Y-124054572D01*
X143932005Y-124054572D01*
X143932007Y-124054573D01*
X144000140Y-124064500D01*
X144000143Y-124064500D01*
X144366657Y-124064500D01*
X144366660Y-124064500D01*
X144434793Y-124054573D01*
X144539883Y-124003198D01*
X144622598Y-123920483D01*
X144673973Y-123815393D01*
X144683900Y-123747260D01*
X144683900Y-122230740D01*
X144673973Y-122162607D01*
X144673132Y-122160887D01*
X144622598Y-122057518D01*
X144622598Y-122057517D01*
X144539883Y-121974802D01*
X144529179Y-121969569D01*
X144434795Y-121923427D01*
X144407539Y-121919456D01*
X144366660Y-121913500D01*
X144000140Y-121913500D01*
X143966073Y-121918463D01*
X143932004Y-121923427D01*
X143826918Y-121974801D01*
X143744201Y-122057518D01*
X143692827Y-122162604D01*
X143692827Y-122162607D01*
X143682900Y-122230740D01*
X143682900Y-123747260D01*
X136100947Y-123747260D01*
X136040590Y-123683865D01*
X136038959Y-123682065D01*
X135912472Y-123535430D01*
X135910943Y-123533568D01*
X135791775Y-123380869D01*
X135790343Y-123378937D01*
X135768785Y-123348328D01*
X135678813Y-123220577D01*
X135677482Y-123218584D01*
X135573859Y-123054945D01*
X135572610Y-123052861D01*
X135477155Y-122884359D01*
X135476031Y-122882257D01*
X135388943Y-122709242D01*
X135387916Y-122707070D01*
X135309419Y-122529986D01*
X135308500Y-122527768D01*
X135238774Y-122347007D01*
X135237993Y-122344824D01*
X135177229Y-122160887D01*
X135176535Y-122158601D01*
X135124867Y-121971899D01*
X135124284Y-121969569D01*
X135081844Y-121780577D01*
X135081382Y-121778252D01*
X135070045Y-121712919D01*
X144952894Y-121712919D01*
X144952900Y-121713004D01*
X144952900Y-122230740D01*
X144952900Y-123747260D01*
X144959518Y-123792682D01*
X144962827Y-123815395D01*
X145014201Y-123920481D01*
X145014202Y-123920483D01*
X145096917Y-124003198D01*
X145150685Y-124029483D01*
X145202004Y-124054572D01*
X145202005Y-124054572D01*
X145202007Y-124054573D01*
X145270140Y-124064500D01*
X145270143Y-124064500D01*
X145636657Y-124064500D01*
X145636660Y-124064500D01*
X145704793Y-124054573D01*
X145809883Y-124003198D01*
X145892598Y-123920483D01*
X145943973Y-123815393D01*
X145953900Y-123747260D01*
X146222900Y-123747260D01*
X146229518Y-123792682D01*
X146232827Y-123815395D01*
X146284201Y-123920481D01*
X146284202Y-123920483D01*
X146366917Y-124003198D01*
X146420685Y-124029483D01*
X146472004Y-124054572D01*
X146472005Y-124054572D01*
X146472007Y-124054573D01*
X146540140Y-124064500D01*
X146540143Y-124064500D01*
X146906657Y-124064500D01*
X146906660Y-124064500D01*
X146974793Y-124054573D01*
X147079883Y-124003198D01*
X147162598Y-123920483D01*
X147213973Y-123815393D01*
X147223900Y-123747260D01*
X147223900Y-122230740D01*
X147213973Y-122162607D01*
X147213132Y-122160887D01*
X147162598Y-122057518D01*
X147162598Y-122057517D01*
X147079883Y-121974802D01*
X147069179Y-121969569D01*
X146974795Y-121923427D01*
X146947539Y-121919456D01*
X146906660Y-121913500D01*
X146540140Y-121913500D01*
X146506073Y-121918463D01*
X146472004Y-121923427D01*
X146366918Y-121974801D01*
X146284201Y-122057518D01*
X146232827Y-122162604D01*
X146232827Y-122162607D01*
X146222900Y-122230740D01*
X146222900Y-123747260D01*
X145953900Y-123747260D01*
X145953900Y-122230740D01*
X145953900Y-121658600D01*
X150598430Y-121658600D01*
X150611250Y-121780577D01*
X150618657Y-121851042D01*
X150678448Y-122035058D01*
X150678454Y-122035072D01*
X150749763Y-122158582D01*
X150775198Y-122202636D01*
X150904673Y-122346433D01*
X151061215Y-122460167D01*
X151061219Y-122460169D01*
X151061221Y-122460170D01*
X151119722Y-122486216D01*
X151237983Y-122538869D01*
X151427252Y-122579100D01*
X151427254Y-122579100D01*
X151620746Y-122579100D01*
X151620748Y-122579100D01*
X151810017Y-122538869D01*
X151986785Y-122460167D01*
X152143327Y-122346433D01*
X152272802Y-122202636D01*
X152369550Y-122035063D01*
X152429344Y-121851037D01*
X152449570Y-121658600D01*
X152429344Y-121466163D01*
X152369550Y-121282137D01*
X152369547Y-121282132D01*
X152369545Y-121282127D01*
X152319490Y-121195430D01*
X152272802Y-121114564D01*
X152143327Y-120970767D01*
X151986785Y-120857033D01*
X151986781Y-120857031D01*
X151986778Y-120857029D01*
X151810019Y-120778332D01*
X151810017Y-120778331D01*
X151810014Y-120778330D01*
X151810013Y-120778330D01*
X151760707Y-120767849D01*
X151620748Y-120738100D01*
X151427252Y-120738100D01*
X151325072Y-120759819D01*
X151237986Y-120778330D01*
X151237980Y-120778332D01*
X151061221Y-120857029D01*
X151061218Y-120857031D01*
X150904671Y-120970768D01*
X150775196Y-121114566D01*
X150775196Y-121114567D01*
X150678454Y-121282127D01*
X150678448Y-121282141D01*
X150618657Y-121466157D01*
X150618656Y-121466161D01*
X150618656Y-121466163D01*
X150598430Y-121658600D01*
X145953900Y-121658600D01*
X145953900Y-121647032D01*
X145954323Y-121640569D01*
X145958999Y-121605071D01*
X145965688Y-121580115D01*
X145975647Y-121556075D01*
X145988563Y-121533706D01*
X146010537Y-121505073D01*
X146014795Y-121500218D01*
X146058910Y-121456109D01*
X146058910Y-121456107D01*
X146064526Y-121450493D01*
X146064559Y-121450453D01*
X146945954Y-120569058D01*
X146945994Y-120569025D01*
X146951608Y-120563409D01*
X146951610Y-120563409D01*
X146995915Y-120519099D01*
X147000762Y-120514848D01*
X147029188Y-120493033D01*
X147051555Y-120480117D01*
X147075612Y-120470151D01*
X147100557Y-120463466D01*
X147135802Y-120458823D01*
X147142267Y-120458400D01*
X147513921Y-120458400D01*
X147572112Y-120477307D01*
X147605385Y-120519514D01*
X147618355Y-120550828D01*
X147631276Y-120571392D01*
X147654983Y-120609121D01*
X147729571Y-120662044D01*
X147773058Y-120680057D01*
X147851700Y-120695700D01*
X147977104Y-120695700D01*
X147979415Y-120695754D01*
X147982539Y-120695900D01*
X147982544Y-120695900D01*
X148563061Y-120695900D01*
X148566185Y-120695754D01*
X148568496Y-120695700D01*
X148754190Y-120695700D01*
X148766156Y-120695000D01*
X148766161Y-120694999D01*
X148766170Y-120694999D01*
X148792345Y-120691927D01*
X148804176Y-120689831D01*
X149301621Y-120571392D01*
X149324552Y-120568700D01*
X150319499Y-120568700D01*
X150319500Y-120568700D01*
X150398142Y-120553057D01*
X150441629Y-120535044D01*
X150499921Y-120498417D01*
X150552844Y-120423829D01*
X150570857Y-120380342D01*
X150586500Y-120301700D01*
X150586500Y-119411199D01*
X150581924Y-119368072D01*
X150576507Y-119342835D01*
X150562983Y-119301632D01*
X150435315Y-119017925D01*
X150366620Y-118865269D01*
X150357900Y-118824643D01*
X150357900Y-118301866D01*
X151940700Y-118301866D01*
X151943474Y-118331444D01*
X151943476Y-118331452D01*
X151987084Y-118456076D01*
X152065485Y-118562306D01*
X152065489Y-118562311D01*
X152065492Y-118562313D01*
X152065493Y-118562314D01*
X152171723Y-118640715D01*
X152171724Y-118640715D01*
X152171725Y-118640716D01*
X152296351Y-118684325D01*
X152323641Y-118686884D01*
X152325933Y-118687099D01*
X152325938Y-118687100D01*
X152325944Y-118687100D01*
X152906462Y-118687100D01*
X152906465Y-118687099D01*
X152936049Y-118684325D01*
X152973139Y-118671345D01*
X153034306Y-118669972D01*
X153075840Y-118694786D01*
X153384502Y-119003448D01*
X153412279Y-119057965D01*
X153413498Y-119073457D01*
X153413495Y-119129011D01*
X153413500Y-119129093D01*
X153413500Y-120967385D01*
X153394593Y-121025576D01*
X153388072Y-121033628D01*
X153315200Y-121114561D01*
X153315196Y-121114567D01*
X153218454Y-121282127D01*
X153218448Y-121282141D01*
X153158657Y-121466157D01*
X153158656Y-121466161D01*
X153158656Y-121466163D01*
X153138430Y-121658600D01*
X153151250Y-121780577D01*
X153158657Y-121851042D01*
X153218448Y-122035058D01*
X153218454Y-122035072D01*
X153289763Y-122158582D01*
X153315198Y-122202636D01*
X153444673Y-122346433D01*
X153601215Y-122460167D01*
X153601219Y-122460169D01*
X153601221Y-122460170D01*
X153659722Y-122486216D01*
X153777983Y-122538869D01*
X153967252Y-122579100D01*
X153967254Y-122579100D01*
X154160746Y-122579100D01*
X154160748Y-122579100D01*
X154350017Y-122538869D01*
X154526785Y-122460167D01*
X154683327Y-122346433D01*
X154812802Y-122202636D01*
X154909550Y-122035063D01*
X154969344Y-121851037D01*
X154989570Y-121658600D01*
X155678430Y-121658600D01*
X155691250Y-121780577D01*
X155698657Y-121851042D01*
X155758448Y-122035058D01*
X155758454Y-122035072D01*
X155829763Y-122158582D01*
X155855198Y-122202636D01*
X155984673Y-122346433D01*
X156141215Y-122460167D01*
X156141219Y-122460169D01*
X156141221Y-122460170D01*
X156199722Y-122486216D01*
X156317983Y-122538869D01*
X156507252Y-122579100D01*
X156507254Y-122579100D01*
X156700746Y-122579100D01*
X156700748Y-122579100D01*
X156890017Y-122538869D01*
X157066785Y-122460167D01*
X157223327Y-122346433D01*
X157352802Y-122202636D01*
X157449550Y-122035063D01*
X157509344Y-121851037D01*
X157529570Y-121658600D01*
X157509344Y-121466163D01*
X157449550Y-121282137D01*
X157449547Y-121282132D01*
X157449545Y-121282127D01*
X157399490Y-121195430D01*
X157352802Y-121114564D01*
X157223327Y-120970767D01*
X157066785Y-120857033D01*
X157066781Y-120857031D01*
X157066778Y-120857029D01*
X156890019Y-120778332D01*
X156890017Y-120778331D01*
X156890014Y-120778330D01*
X156890013Y-120778330D01*
X156840707Y-120767849D01*
X156700748Y-120738100D01*
X156507252Y-120738100D01*
X156405072Y-120759819D01*
X156317986Y-120778330D01*
X156317980Y-120778332D01*
X156141221Y-120857029D01*
X156141218Y-120857031D01*
X155984671Y-120970768D01*
X155855196Y-121114566D01*
X155855196Y-121114567D01*
X155758454Y-121282127D01*
X155758448Y-121282141D01*
X155698657Y-121466157D01*
X155698656Y-121466161D01*
X155698656Y-121466163D01*
X155678430Y-121658600D01*
X154989570Y-121658600D01*
X154969344Y-121466163D01*
X154909550Y-121282137D01*
X154909547Y-121282132D01*
X154909545Y-121282127D01*
X154859490Y-121195430D01*
X154812802Y-121114564D01*
X154777300Y-121075135D01*
X154739928Y-121033628D01*
X154715042Y-120977733D01*
X154714500Y-120967385D01*
X154714500Y-119010948D01*
X154714467Y-119009929D01*
X154714471Y-118964478D01*
X154691376Y-118788958D01*
X154666149Y-118694786D01*
X154645569Y-118617960D01*
X154645568Y-118617956D01*
X154577830Y-118454394D01*
X154577827Y-118454388D01*
X154489779Y-118301866D01*
X154489321Y-118301072D01*
X154489319Y-118301069D01*
X154381562Y-118160622D01*
X154381552Y-118160612D01*
X154379307Y-118158365D01*
X154379271Y-118158325D01*
X154318968Y-118098021D01*
X154265274Y-118044323D01*
X154265227Y-118044280D01*
X154018891Y-117797944D01*
X154018854Y-117797902D01*
X153993680Y-117772731D01*
X153993631Y-117772635D01*
X153965098Y-117744104D01*
X153965099Y-117744104D01*
X153902504Y-117681515D01*
X153902499Y-117681510D01*
X153762047Y-117573750D01*
X153762042Y-117573747D01*
X153608724Y-117485240D01*
X153445153Y-117417498D01*
X153445149Y-117417497D01*
X153274150Y-117371690D01*
X153274152Y-117371690D01*
X153098625Y-117348594D01*
X153098624Y-117348594D01*
X153098621Y-117348594D01*
X153052102Y-117348596D01*
X153019401Y-117343041D01*
X152980096Y-117329287D01*
X152936049Y-117313875D01*
X152936047Y-117313874D01*
X152936044Y-117313874D01*
X152906466Y-117311100D01*
X152906456Y-117311100D01*
X152325944Y-117311100D01*
X152325933Y-117311100D01*
X152296355Y-117313874D01*
X152296347Y-117313876D01*
X152171723Y-117357484D01*
X152065493Y-117435885D01*
X152065485Y-117435893D01*
X151987084Y-117542123D01*
X151943476Y-117666747D01*
X151943474Y-117666755D01*
X151940700Y-117696333D01*
X151940700Y-118301866D01*
X150357900Y-118301866D01*
X150357900Y-117808501D01*
X150357899Y-117808497D01*
X150355406Y-117795966D01*
X150342257Y-117729858D01*
X150324244Y-117686371D01*
X150287617Y-117628079D01*
X150213029Y-117575156D01*
X150169542Y-117557143D01*
X150169540Y-117557142D01*
X150090902Y-117541500D01*
X150090900Y-117541500D01*
X149971247Y-117541500D01*
X149966623Y-117541284D01*
X149954879Y-117540182D01*
X149945466Y-117539300D01*
X148936934Y-117539300D01*
X148927520Y-117540182D01*
X148915777Y-117541284D01*
X148911153Y-117541500D01*
X148816897Y-117541500D01*
X148738259Y-117557142D01*
X148694771Y-117575156D01*
X148636478Y-117611783D01*
X148583557Y-117686369D01*
X148565542Y-117729859D01*
X148549900Y-117808497D01*
X148549900Y-117870144D01*
X148544346Y-117902837D01*
X148543553Y-117905102D01*
X148540700Y-117935525D01*
X148540700Y-118694071D01*
X148541761Y-118705392D01*
X148528366Y-118765093D01*
X148491078Y-118801279D01*
X147716241Y-119229478D01*
X147704150Y-119237314D01*
X147704146Y-119237317D01*
X147684650Y-119251989D01*
X147671283Y-119262957D01*
X147671277Y-119262964D01*
X147618358Y-119337546D01*
X147600341Y-119381042D01*
X147598930Y-119385694D01*
X147596881Y-119385072D01*
X147571108Y-119431097D01*
X147515544Y-119456714D01*
X147503906Y-119457400D01*
X147208359Y-119457400D01*
X147208283Y-119457395D01*
X147205105Y-119457395D01*
X147180255Y-119457396D01*
X147180148Y-119457362D01*
X147044731Y-119457371D01*
X146858097Y-119486945D01*
X146678382Y-119545350D01*
X146510021Y-119631148D01*
X146357153Y-119742227D01*
X146301486Y-119797899D01*
X145278265Y-120821121D01*
X145277630Y-120821803D01*
X145237754Y-120861674D01*
X145126678Y-121014538D01*
X145126675Y-121014543D01*
X145040884Y-121182893D01*
X145040880Y-121182902D01*
X144982481Y-121362594D01*
X144982480Y-121362598D01*
X144952906Y-121549234D01*
X144952902Y-121606468D01*
X144952900Y-121606553D01*
X144952900Y-121643709D01*
X144952894Y-121712919D01*
X135070045Y-121712919D01*
X135048264Y-121587395D01*
X135047915Y-121585046D01*
X135024204Y-121392797D01*
X135023968Y-121390399D01*
X135009676Y-121196647D01*
X135009603Y-121195475D01*
X135008489Y-121172805D01*
X135003969Y-121075046D01*
X135001228Y-121000591D01*
X135001198Y-120999378D01*
X135000500Y-120942499D01*
X135000500Y-118597260D01*
X142412900Y-118597260D01*
X142415916Y-118617960D01*
X142422827Y-118665395D01*
X142471567Y-118765093D01*
X142474202Y-118770483D01*
X142556917Y-118853198D01*
X142581609Y-118865269D01*
X142662004Y-118904572D01*
X142662005Y-118904572D01*
X142662007Y-118904573D01*
X142730140Y-118914500D01*
X142730143Y-118914500D01*
X143096657Y-118914500D01*
X143096660Y-118914500D01*
X143164793Y-118904573D01*
X143269883Y-118853198D01*
X143352598Y-118770483D01*
X143403973Y-118665393D01*
X143413900Y-118597260D01*
X143413900Y-117080740D01*
X143403973Y-117012607D01*
X143391224Y-116986529D01*
X143358030Y-116918629D01*
X143352598Y-116907517D01*
X143269883Y-116824802D01*
X143269881Y-116824801D01*
X143164795Y-116773427D01*
X143137539Y-116769456D01*
X143096660Y-116763500D01*
X142730140Y-116763500D01*
X142696073Y-116768463D01*
X142662004Y-116773427D01*
X142556918Y-116824801D01*
X142474201Y-116907518D01*
X142422827Y-117012604D01*
X142417863Y-117046673D01*
X142412900Y-117080740D01*
X142412900Y-118597260D01*
X135000500Y-118597260D01*
X135000500Y-116412307D01*
X143444500Y-116412307D01*
X143449551Y-116457589D01*
X143449553Y-116457600D01*
X143455523Y-116484026D01*
X143455525Y-116484031D01*
X143470437Y-116527099D01*
X143470438Y-116527101D01*
X143681977Y-116971331D01*
X143690559Y-117028167D01*
X143682900Y-117080740D01*
X143682900Y-118597260D01*
X143689232Y-118640716D01*
X143692827Y-118665393D01*
X143701671Y-118683484D01*
X143709826Y-118707645D01*
X143714141Y-118729337D01*
X143714142Y-118729340D01*
X143732155Y-118772828D01*
X143742290Y-118788958D01*
X143768783Y-118831121D01*
X143843371Y-118884044D01*
X143886858Y-118902057D01*
X143965500Y-118917700D01*
X143965501Y-118917700D01*
X144452099Y-118917700D01*
X144452100Y-118917700D01*
X144530742Y-118902057D01*
X144574229Y-118884044D01*
X144632521Y-118847417D01*
X144685444Y-118772829D01*
X144703457Y-118729342D01*
X144719100Y-118650700D01*
X144719100Y-118597260D01*
X144952900Y-118597260D01*
X144955916Y-118617960D01*
X144962827Y-118665395D01*
X145011567Y-118765093D01*
X145014202Y-118770483D01*
X145096917Y-118853198D01*
X145121609Y-118865269D01*
X145202004Y-118904572D01*
X145202005Y-118904572D01*
X145202007Y-118904573D01*
X145270140Y-118914500D01*
X145270143Y-118914500D01*
X145636657Y-118914500D01*
X145636660Y-118914500D01*
X145704793Y-118904573D01*
X145809883Y-118853198D01*
X145892598Y-118770483D01*
X145943973Y-118665393D01*
X145953900Y-118597260D01*
X146222900Y-118597260D01*
X146225916Y-118617960D01*
X146232827Y-118665395D01*
X146281567Y-118765093D01*
X146284202Y-118770483D01*
X146366917Y-118853198D01*
X146391609Y-118865269D01*
X146472004Y-118904572D01*
X146472005Y-118904572D01*
X146472007Y-118904573D01*
X146540140Y-118914500D01*
X146540143Y-118914500D01*
X146906657Y-118914500D01*
X146906660Y-118914500D01*
X146974793Y-118904573D01*
X147079883Y-118853198D01*
X147162598Y-118770483D01*
X147213973Y-118665393D01*
X147223900Y-118597260D01*
X147223900Y-117080740D01*
X147213973Y-117012607D01*
X147201224Y-116986529D01*
X147168030Y-116918629D01*
X147162598Y-116907517D01*
X147079883Y-116824802D01*
X147079881Y-116824801D01*
X147021995Y-116796502D01*
X148524500Y-116796502D01*
X148540142Y-116875140D01*
X148540143Y-116875142D01*
X148558156Y-116918629D01*
X148594783Y-116976921D01*
X148669371Y-117029844D01*
X148712858Y-117047857D01*
X148791500Y-117063500D01*
X148791501Y-117063500D01*
X150151643Y-117063500D01*
X150151648Y-117063499D01*
X150159273Y-117063216D01*
X150176025Y-117061967D01*
X150183632Y-117061114D01*
X150668424Y-116988394D01*
X150683110Y-116987300D01*
X151624314Y-116987300D01*
X151624322Y-116987300D01*
X151636886Y-116986530D01*
X151636889Y-116986529D01*
X151636899Y-116986529D01*
X151661155Y-116983542D01*
X151664298Y-116983156D01*
X151676677Y-116980855D01*
X152147073Y-116863255D01*
X152171084Y-116860300D01*
X152304428Y-116860300D01*
X152309051Y-116860516D01*
X152325944Y-116862100D01*
X152906456Y-116862100D01*
X152923349Y-116860516D01*
X152927972Y-116860300D01*
X153037299Y-116860300D01*
X153037300Y-116860300D01*
X153115942Y-116844657D01*
X153159429Y-116826644D01*
X153217721Y-116790017D01*
X153270644Y-116715429D01*
X153288657Y-116671942D01*
X153304300Y-116593300D01*
X153304300Y-115751100D01*
X153288657Y-115672458D01*
X153270644Y-115628971D01*
X153234017Y-115570679D01*
X153159429Y-115517756D01*
X153115942Y-115499743D01*
X153115940Y-115499742D01*
X153037302Y-115484100D01*
X153037300Y-115484100D01*
X148791500Y-115484100D01*
X148791497Y-115484100D01*
X148712859Y-115499742D01*
X148669371Y-115517756D01*
X148611078Y-115554383D01*
X148558157Y-115628969D01*
X148540142Y-115672459D01*
X148524500Y-115751097D01*
X148524500Y-116796502D01*
X147021995Y-116796502D01*
X146974795Y-116773427D01*
X146947539Y-116769456D01*
X146906660Y-116763500D01*
X146540140Y-116763500D01*
X146506073Y-116768463D01*
X146472004Y-116773427D01*
X146366918Y-116824801D01*
X146284201Y-116907518D01*
X146232827Y-117012604D01*
X146227863Y-117046673D01*
X146222900Y-117080740D01*
X146222900Y-118597260D01*
X145953900Y-118597260D01*
X145953900Y-117080740D01*
X145943973Y-117012607D01*
X145931224Y-116986529D01*
X145898030Y-116918629D01*
X145892598Y-116907517D01*
X145809883Y-116824802D01*
X145809881Y-116824801D01*
X145704795Y-116773427D01*
X145677539Y-116769456D01*
X145636660Y-116763500D01*
X145270140Y-116763500D01*
X145236073Y-116768463D01*
X145202004Y-116773427D01*
X145096918Y-116824801D01*
X145014201Y-116907518D01*
X144962827Y-117012604D01*
X144957863Y-117046673D01*
X144952900Y-117080740D01*
X144952900Y-118597260D01*
X144719100Y-118597260D01*
X144719100Y-117022095D01*
X144727105Y-116983098D01*
X144728067Y-116980855D01*
X144926111Y-116518754D01*
X144938530Y-116479125D01*
X144943503Y-116454899D01*
X144943504Y-116454886D01*
X144943506Y-116454875D01*
X144947699Y-116413584D01*
X144947700Y-116413577D01*
X144947700Y-115460102D01*
X144947603Y-115455633D01*
X144947293Y-115448516D01*
X144947004Y-115444083D01*
X144897086Y-114870026D01*
X144896900Y-114865736D01*
X144896900Y-113973103D01*
X144896900Y-113973099D01*
X144881256Y-113894456D01*
X144863243Y-113850970D01*
X144826617Y-113792679D01*
X144752029Y-113739756D01*
X144708542Y-113721743D01*
X144708540Y-113721742D01*
X144629902Y-113706100D01*
X144629900Y-113706100D01*
X144520572Y-113706100D01*
X144515949Y-113705884D01*
X144499056Y-113704300D01*
X143918544Y-113704300D01*
X143901651Y-113705884D01*
X143897028Y-113706100D01*
X143787697Y-113706100D01*
X143709059Y-113721742D01*
X143665571Y-113739756D01*
X143607278Y-113776383D01*
X143554357Y-113850969D01*
X143536342Y-113894459D01*
X143520700Y-113973097D01*
X143520700Y-114860236D01*
X143520284Y-114866645D01*
X143446057Y-115435706D01*
X143445408Y-115442356D01*
X143444719Y-115452945D01*
X143444716Y-115452987D01*
X143444500Y-115459657D01*
X143444500Y-116412307D01*
X135000500Y-116412307D01*
X135000500Y-114724402D01*
X141188553Y-114724402D01*
X141209034Y-114866856D01*
X141268822Y-114997771D01*
X141268823Y-114997773D01*
X141363072Y-115106543D01*
X141363073Y-115106544D01*
X141484142Y-115184350D01*
X141484147Y-115184353D01*
X141590603Y-115215611D01*
X141622235Y-115224899D01*
X141622236Y-115224899D01*
X141622239Y-115224900D01*
X141622241Y-115224900D01*
X141766159Y-115224900D01*
X141766161Y-115224900D01*
X141904253Y-115184353D01*
X142025328Y-115106543D01*
X142038823Y-115090968D01*
X142091221Y-115059373D01*
X142113643Y-115056800D01*
X142390862Y-115056800D01*
X142390865Y-115056799D01*
X142420449Y-115054025D01*
X142545075Y-115010416D01*
X142651311Y-114932011D01*
X142729716Y-114825775D01*
X142773325Y-114701149D01*
X142776100Y-114671556D01*
X142776100Y-114066044D01*
X142776100Y-114066043D01*
X142776100Y-114066038D01*
X142776099Y-114066033D01*
X142773325Y-114036455D01*
X142773325Y-114036451D01*
X142729716Y-113911825D01*
X142716899Y-113894459D01*
X142651314Y-113805593D01*
X142651313Y-113805592D01*
X142651311Y-113805589D01*
X142651306Y-113805585D01*
X142545076Y-113727184D01*
X142420452Y-113683576D01*
X142420451Y-113683575D01*
X142420449Y-113683575D01*
X142420447Y-113683574D01*
X142420444Y-113683574D01*
X142390866Y-113680800D01*
X142390856Y-113680800D01*
X141810344Y-113680800D01*
X141810333Y-113680800D01*
X141780755Y-113683574D01*
X141780747Y-113683576D01*
X141656123Y-113727184D01*
X141549893Y-113805585D01*
X141549885Y-113805593D01*
X141471484Y-113911823D01*
X141427876Y-114036447D01*
X141427874Y-114036455D01*
X141425100Y-114066033D01*
X141425100Y-114248336D01*
X141406193Y-114306527D01*
X141379623Y-114331620D01*
X141363073Y-114342255D01*
X141268822Y-114451028D01*
X141209034Y-114581943D01*
X141188553Y-114724397D01*
X141188553Y-114724402D01*
X135000500Y-114724402D01*
X135000500Y-112586406D01*
X141396241Y-112586406D01*
X141423478Y-112735031D01*
X141425100Y-112752876D01*
X141425100Y-112846566D01*
X141427874Y-112876144D01*
X141427876Y-112876152D01*
X141471484Y-113000776D01*
X141488828Y-113024276D01*
X141549889Y-113107011D01*
X141549892Y-113107013D01*
X141549893Y-113107014D01*
X141656123Y-113185415D01*
X141656124Y-113185415D01*
X141656125Y-113185416D01*
X141780751Y-113229025D01*
X141808041Y-113231584D01*
X141810333Y-113231799D01*
X141810338Y-113231800D01*
X141810344Y-113231800D01*
X141872486Y-113231800D01*
X141908356Y-113239500D01*
X141908446Y-113239212D01*
X141911623Y-113240201D01*
X141913119Y-113240523D01*
X141914168Y-113240995D01*
X141926379Y-113243232D01*
X141943638Y-113248044D01*
X141955228Y-113252440D01*
X142017184Y-113259962D01*
X142020070Y-113260401D01*
X142081494Y-113271658D01*
X142143793Y-113267889D01*
X142146759Y-113267800D01*
X144251168Y-113267800D01*
X144251172Y-113267800D01*
X144251178Y-113267799D01*
X144251181Y-113267799D01*
X144267492Y-113265818D01*
X144351148Y-113255660D01*
X144357113Y-113255300D01*
X144499062Y-113255300D01*
X144499065Y-113255299D01*
X144528649Y-113252525D01*
X144653275Y-113208916D01*
X144759511Y-113130511D01*
X144837916Y-113024275D01*
X144881525Y-112899649D01*
X144884300Y-112870056D01*
X144884300Y-112765804D01*
X144887177Y-112742113D01*
X144888923Y-112735031D01*
X144909300Y-112652356D01*
X144909300Y-112540000D01*
X152337708Y-112540000D01*
X152357554Y-112665303D01*
X152357555Y-112665307D01*
X152393082Y-112735031D01*
X152415150Y-112778342D01*
X152504858Y-112868050D01*
X152617896Y-112925646D01*
X152743200Y-112945492D01*
X152868504Y-112925646D01*
X152981542Y-112868050D01*
X153071250Y-112778342D01*
X153128846Y-112665304D01*
X153148692Y-112540000D01*
X153128846Y-112414696D01*
X153071250Y-112301658D01*
X152981542Y-112211950D01*
X152977606Y-112209944D01*
X152868507Y-112154355D01*
X152868504Y-112154354D01*
X152743200Y-112134508D01*
X152617896Y-112154354D01*
X152617892Y-112154355D01*
X152504859Y-112211949D01*
X152415149Y-112301659D01*
X152357555Y-112414692D01*
X152357554Y-112414696D01*
X152337708Y-112539999D01*
X152337708Y-112540000D01*
X144909300Y-112540000D01*
X144909300Y-112482244D01*
X144887177Y-112392485D01*
X144884300Y-112368793D01*
X144884300Y-112264538D01*
X144884299Y-112264533D01*
X144881525Y-112234955D01*
X144881525Y-112234951D01*
X144837916Y-112110325D01*
X144820572Y-112086825D01*
X144759514Y-112004093D01*
X144759513Y-112004092D01*
X144759511Y-112004089D01*
X144727675Y-111980593D01*
X144653276Y-111925684D01*
X144528652Y-111882076D01*
X144528651Y-111882075D01*
X144528649Y-111882075D01*
X144528647Y-111882074D01*
X144528644Y-111882074D01*
X144499066Y-111879300D01*
X144499056Y-111879300D01*
X144357113Y-111879300D01*
X144351148Y-111878939D01*
X144320815Y-111875256D01*
X144251181Y-111866800D01*
X144251172Y-111866800D01*
X142460775Y-111866800D01*
X142428076Y-111861244D01*
X142420449Y-111858575D01*
X142420444Y-111858574D01*
X142390866Y-111855800D01*
X142390856Y-111855800D01*
X142241465Y-111855800D01*
X142223620Y-111854178D01*
X142143205Y-111839441D01*
X141973407Y-111849713D01*
X141973402Y-111849714D01*
X141968255Y-111851318D01*
X141938805Y-111855800D01*
X141810333Y-111855800D01*
X141780755Y-111858574D01*
X141780747Y-111858576D01*
X141656123Y-111902184D01*
X141549893Y-111980585D01*
X141549885Y-111980593D01*
X141471484Y-112086823D01*
X141427876Y-112211447D01*
X141427874Y-112211455D01*
X141425100Y-112241033D01*
X141425100Y-112341889D01*
X141420618Y-112371340D01*
X141406513Y-112416605D01*
X141406513Y-112416607D01*
X141396241Y-112586406D01*
X135000500Y-112586406D01*
X135000500Y-107506866D01*
X145209700Y-107506866D01*
X145212474Y-107536444D01*
X145212476Y-107536454D01*
X145216943Y-107549218D01*
X145222500Y-107581918D01*
X145222500Y-107627102D01*
X145238142Y-107705740D01*
X145238143Y-107705742D01*
X145256156Y-107749229D01*
X145292783Y-107807521D01*
X145367371Y-107860444D01*
X145410858Y-107878457D01*
X145489500Y-107894100D01*
X146386488Y-107894100D01*
X146389067Y-107894167D01*
X146865525Y-107919243D01*
X146868194Y-107919349D01*
X146872512Y-107919464D01*
X146875243Y-107919500D01*
X146908500Y-107919500D01*
X146966691Y-107938407D01*
X147002655Y-107987907D01*
X147007500Y-108018500D01*
X147007500Y-108700691D01*
X147007514Y-108701044D01*
X147007514Y-108727399D01*
X147007514Y-108735130D01*
X147027835Y-108863467D01*
X147067982Y-108987045D01*
X147067983Y-108987046D01*
X147126965Y-109102819D01*
X147126970Y-109102826D01*
X147169891Y-109161905D01*
X147203338Y-109207944D01*
X147203342Y-109207948D01*
X147227743Y-109232351D01*
X147227774Y-109232384D01*
X147249275Y-109253886D01*
X147249278Y-109253888D01*
X147291354Y-109295968D01*
X147291379Y-109295989D01*
X148040300Y-110044911D01*
X148040307Y-110044919D01*
X148042657Y-110047269D01*
X148042658Y-110047270D01*
X148050989Y-110055601D01*
X148051013Y-110055648D01*
X148079101Y-110083735D01*
X148079102Y-110083735D01*
X148125043Y-110129674D01*
X148230169Y-110206047D01*
X148230171Y-110206048D01*
X148230174Y-110206050D01*
X148345940Y-110265030D01*
X148345947Y-110265033D01*
X148469528Y-110305182D01*
X148597868Y-110325503D01*
X148662832Y-110325500D01*
X148662841Y-110325500D01*
X150246508Y-110325500D01*
X150304699Y-110344407D01*
X150339952Y-110391802D01*
X150358382Y-110444472D01*
X150358385Y-110444478D01*
X150431266Y-110543228D01*
X150436789Y-110550711D01*
X150436792Y-110550713D01*
X150436793Y-110550714D01*
X150543023Y-110629115D01*
X150543024Y-110629115D01*
X150543025Y-110629116D01*
X150667651Y-110672725D01*
X150694941Y-110675284D01*
X150697233Y-110675499D01*
X150697238Y-110675500D01*
X150697244Y-110675500D01*
X151302762Y-110675500D01*
X151302765Y-110675499D01*
X151332349Y-110672725D01*
X151456975Y-110629116D01*
X151563211Y-110550711D01*
X151641616Y-110444475D01*
X151685225Y-110319849D01*
X151688000Y-110290256D01*
X151688000Y-109709744D01*
X151688000Y-109709738D01*
X151687999Y-109709733D01*
X151685225Y-109680155D01*
X151685225Y-109680151D01*
X151641616Y-109555525D01*
X151641613Y-109555521D01*
X151563214Y-109449293D01*
X151563213Y-109449292D01*
X151563211Y-109449289D01*
X151563206Y-109449285D01*
X151456976Y-109370884D01*
X151332352Y-109327276D01*
X151332351Y-109327275D01*
X151332349Y-109327275D01*
X151332347Y-109327274D01*
X151332344Y-109327274D01*
X151302766Y-109324500D01*
X151302756Y-109324500D01*
X150697244Y-109324500D01*
X150697233Y-109324500D01*
X150667655Y-109327274D01*
X150667647Y-109327276D01*
X150543023Y-109370884D01*
X150436793Y-109449285D01*
X150436785Y-109449293D01*
X150358385Y-109555521D01*
X150358382Y-109555527D01*
X150339952Y-109608198D01*
X150302886Y-109656879D01*
X150246508Y-109674500D01*
X148722352Y-109674500D01*
X148722327Y-109674498D01*
X148714362Y-109674498D01*
X148707628Y-109674498D01*
X148666058Y-109674499D01*
X148659592Y-109674076D01*
X148630565Y-109670256D01*
X148605598Y-109663567D01*
X148587596Y-109656111D01*
X148565214Y-109643190D01*
X148542089Y-109625446D01*
X148537215Y-109621172D01*
X147711918Y-108795875D01*
X147707649Y-108791008D01*
X147689821Y-108767773D01*
X147676905Y-108745399D01*
X147669445Y-108727388D01*
X147662759Y-108702430D01*
X147662530Y-108700691D01*
X147658922Y-108673275D01*
X147658500Y-108666812D01*
X147658501Y-108633683D01*
X147658502Y-108618638D01*
X147658500Y-108618634D01*
X147658501Y-108615037D01*
X147658500Y-108615009D01*
X147658500Y-108018500D01*
X147677407Y-107960309D01*
X147726907Y-107924345D01*
X147757500Y-107919500D01*
X148236699Y-107919500D01*
X148236700Y-107919500D01*
X148315342Y-107903857D01*
X148358829Y-107885844D01*
X148417121Y-107849217D01*
X148470044Y-107774629D01*
X148488057Y-107731142D01*
X148503700Y-107652500D01*
X148503700Y-106875802D01*
X150535753Y-106875802D01*
X150556234Y-107018256D01*
X150616022Y-107149171D01*
X150616023Y-107149173D01*
X150710272Y-107257943D01*
X150710273Y-107257944D01*
X150725241Y-107267563D01*
X150831347Y-107335753D01*
X150937803Y-107367011D01*
X150969435Y-107376299D01*
X150969436Y-107376299D01*
X150969439Y-107376300D01*
X151040566Y-107376300D01*
X151098757Y-107395207D01*
X151110570Y-107405296D01*
X152026435Y-108321161D01*
X152026437Y-108321164D01*
X152033892Y-108328619D01*
X152033901Y-108328636D01*
X152062887Y-108357622D01*
X152062888Y-108357622D01*
X152108828Y-108403561D01*
X152213951Y-108479936D01*
X152213957Y-108479939D01*
X152329724Y-108538924D01*
X152329731Y-108538927D01*
X152331590Y-108539531D01*
X152332121Y-108539917D01*
X152333321Y-108540414D01*
X152333201Y-108540701D01*
X152381091Y-108575493D01*
X152400000Y-108633683D01*
X152400000Y-109222755D01*
X152381093Y-109280946D01*
X152331593Y-109316910D01*
X152320316Y-109319852D01*
X152281665Y-109327541D01*
X152281660Y-109327542D01*
X152238171Y-109345556D01*
X152179878Y-109382183D01*
X152126957Y-109456769D01*
X152108942Y-109500259D01*
X152093300Y-109578897D01*
X152093300Y-110421102D01*
X152108942Y-110499740D01*
X152108943Y-110499742D01*
X152126956Y-110543229D01*
X152163583Y-110601521D01*
X152238171Y-110654444D01*
X152281658Y-110672457D01*
X152360300Y-110688100D01*
X152360301Y-110688100D01*
X154062276Y-110688100D01*
X154351322Y-110692953D01*
X154374138Y-110697029D01*
X154374267Y-110696440D01*
X154380149Y-110697724D01*
X154380151Y-110697725D01*
X154402295Y-110699801D01*
X154409733Y-110700499D01*
X154409738Y-110700500D01*
X154800647Y-110700500D01*
X154995898Y-110703779D01*
X155089504Y-110705351D01*
X155092223Y-110705471D01*
X155515522Y-110736033D01*
X155536107Y-110739735D01*
X156106226Y-110906020D01*
X156134704Y-110912175D01*
X156151924Y-110914635D01*
X156151933Y-110914635D01*
X156151943Y-110914637D01*
X156173815Y-110916190D01*
X156180986Y-110916700D01*
X156758371Y-110916700D01*
X156778954Y-110918863D01*
X156786652Y-110920500D01*
X156980148Y-110920500D01*
X156987845Y-110918863D01*
X157008429Y-110916700D01*
X157533099Y-110916700D01*
X157533100Y-110916700D01*
X157611742Y-110901057D01*
X157655229Y-110883044D01*
X157713521Y-110846417D01*
X157766444Y-110771829D01*
X157784457Y-110728342D01*
X157800100Y-110649700D01*
X157800100Y-110086990D01*
X157800371Y-110081813D01*
X157803126Y-110055600D01*
X157808970Y-110000000D01*
X157800370Y-109918184D01*
X157800100Y-109913008D01*
X157800100Y-109350301D01*
X157800099Y-109350297D01*
X157795519Y-109327274D01*
X157784457Y-109271658D01*
X157766444Y-109228171D01*
X157729817Y-109169879D01*
X157655229Y-109116956D01*
X157611742Y-109098943D01*
X157611740Y-109098942D01*
X157533102Y-109083300D01*
X157533100Y-109083300D01*
X157008429Y-109083300D01*
X156987845Y-109081136D01*
X156980148Y-109079500D01*
X156786652Y-109079500D01*
X156778954Y-109081136D01*
X156758371Y-109083300D01*
X156385744Y-109083300D01*
X156378820Y-109084053D01*
X156341559Y-109088107D01*
X156341536Y-109088110D01*
X156315718Y-109093796D01*
X156315697Y-109093802D01*
X156273581Y-109108000D01*
X156189642Y-109146860D01*
X156128892Y-109154148D01*
X156122542Y-109152677D01*
X155458350Y-108975559D01*
X155406996Y-108942297D01*
X155385001Y-108885202D01*
X155389124Y-108851157D01*
X155389852Y-108848753D01*
X155389857Y-108848742D01*
X155405500Y-108770100D01*
X155405500Y-106777383D01*
X155408874Y-106751757D01*
X155409263Y-106750307D01*
X155405687Y-106709434D01*
X155405500Y-106705134D01*
X155405500Y-106302301D01*
X155405499Y-106302297D01*
X155389857Y-106223659D01*
X155389857Y-106223658D01*
X155371844Y-106180171D01*
X155335217Y-106121879D01*
X155260629Y-106068956D01*
X155217142Y-106050943D01*
X155217140Y-106050942D01*
X155138502Y-106035300D01*
X155138500Y-106035300D01*
X155059604Y-106035300D01*
X155026906Y-106029744D01*
X155019853Y-106027276D01*
X155019844Y-106027274D01*
X154990266Y-106024500D01*
X154990256Y-106024500D01*
X154409744Y-106024500D01*
X154409733Y-106024500D01*
X154380155Y-106027274D01*
X154380146Y-106027276D01*
X154373094Y-106029744D01*
X154340396Y-106035300D01*
X154270897Y-106035300D01*
X154192259Y-106050942D01*
X154148771Y-106068956D01*
X154090478Y-106105583D01*
X154037557Y-106180169D01*
X154019542Y-106223659D01*
X154003900Y-106302297D01*
X154003900Y-107849400D01*
X153984993Y-107907591D01*
X153935493Y-107943555D01*
X153904900Y-107948400D01*
X152649846Y-107948400D01*
X152643382Y-107947976D01*
X152620920Y-107945019D01*
X152614361Y-107944156D01*
X152589394Y-107937466D01*
X152571390Y-107930008D01*
X152549014Y-107917090D01*
X152525812Y-107899287D01*
X152520942Y-107895015D01*
X151576043Y-106950117D01*
X151548266Y-106895600D01*
X151547047Y-106880113D01*
X151547047Y-106875797D01*
X151526565Y-106733343D01*
X151503711Y-106683300D01*
X151466777Y-106602427D01*
X151372528Y-106493657D01*
X151372527Y-106493656D01*
X151372526Y-106493655D01*
X151251457Y-106415849D01*
X151251454Y-106415847D01*
X151251453Y-106415847D01*
X151251450Y-106415846D01*
X151113364Y-106375300D01*
X151113361Y-106375300D01*
X150969439Y-106375300D01*
X150969435Y-106375300D01*
X150831349Y-106415846D01*
X150831342Y-106415849D01*
X150710273Y-106493655D01*
X150616022Y-106602428D01*
X150556234Y-106733343D01*
X150535753Y-106875797D01*
X150535753Y-106875802D01*
X148503700Y-106875802D01*
X148503700Y-106632500D01*
X148488057Y-106553858D01*
X148470044Y-106510371D01*
X148433417Y-106452079D01*
X148358829Y-106399156D01*
X148315342Y-106381143D01*
X148315340Y-106381142D01*
X148236702Y-106365500D01*
X148236700Y-106365500D01*
X148117047Y-106365500D01*
X148112423Y-106365284D01*
X148100679Y-106364182D01*
X148091266Y-106363300D01*
X147082734Y-106363300D01*
X147073320Y-106364182D01*
X147061577Y-106365284D01*
X147056953Y-106365500D01*
X146874735Y-106365500D01*
X146874104Y-106365516D01*
X146869364Y-106365640D01*
X146860763Y-106366089D01*
X146855452Y-106366507D01*
X146855351Y-106366516D01*
X146545269Y-106399157D01*
X146384993Y-106416028D01*
X146379812Y-106416300D01*
X146180896Y-106416300D01*
X146178585Y-106416246D01*
X146175461Y-106416100D01*
X146175456Y-106416100D01*
X145594944Y-106416100D01*
X145594939Y-106416100D01*
X145591815Y-106416246D01*
X145589504Y-106416300D01*
X145489497Y-106416300D01*
X145410859Y-106431942D01*
X145367371Y-106449956D01*
X145309078Y-106486583D01*
X145256157Y-106561169D01*
X145238142Y-106604659D01*
X145222500Y-106683297D01*
X145222500Y-106726280D01*
X145216945Y-106758976D01*
X145212474Y-106771753D01*
X145209700Y-106801333D01*
X145209700Y-107506866D01*
X135000500Y-107506866D01*
X135000500Y-99057499D01*
X135001198Y-99000621D01*
X135001228Y-98999407D01*
X135001386Y-98995093D01*
X135003968Y-98924973D01*
X135008487Y-98827235D01*
X135009601Y-98804568D01*
X135009676Y-98803355D01*
X135017654Y-98695193D01*
X146567300Y-98695193D01*
X146568462Y-98706989D01*
X146568700Y-98711837D01*
X146568700Y-99152981D01*
X146569425Y-99165154D01*
X146569426Y-99165161D01*
X146572607Y-99191786D01*
X146572608Y-99191789D01*
X146572611Y-99191814D01*
X146574770Y-99203786D01*
X146574780Y-99203836D01*
X146675535Y-99619447D01*
X146768710Y-100003797D01*
X146769113Y-100005457D01*
X146771900Y-100028781D01*
X146771900Y-101821849D01*
X146771948Y-101824988D01*
X146772105Y-101830095D01*
X146772106Y-101830110D01*
X146772258Y-101833356D01*
X146848004Y-103045292D01*
X146848100Y-103048361D01*
X146848100Y-103953850D01*
X146842542Y-103986555D01*
X146685290Y-104435845D01*
X146676657Y-104469305D01*
X146673207Y-104489602D01*
X146673204Y-104489628D01*
X146670301Y-104524031D01*
X146670300Y-104524055D01*
X146670300Y-105620502D01*
X146685942Y-105699140D01*
X146685943Y-105699142D01*
X146703956Y-105742629D01*
X146740583Y-105800921D01*
X146815171Y-105853844D01*
X146858658Y-105871857D01*
X146937300Y-105887500D01*
X146937301Y-105887500D01*
X148236699Y-105887500D01*
X148236700Y-105887500D01*
X148315342Y-105871857D01*
X148358829Y-105853844D01*
X148417121Y-105817217D01*
X148470044Y-105742629D01*
X148488057Y-105699142D01*
X148503700Y-105620500D01*
X148503700Y-104930106D01*
X153995641Y-104930106D01*
X154022878Y-105078731D01*
X154024500Y-105096576D01*
X154024500Y-105190266D01*
X154027274Y-105219844D01*
X154027276Y-105219852D01*
X154070884Y-105344476D01*
X154149285Y-105450706D01*
X154149289Y-105450711D01*
X154149292Y-105450713D01*
X154149293Y-105450714D01*
X154255523Y-105529115D01*
X154255524Y-105529115D01*
X154255525Y-105529116D01*
X154380151Y-105572725D01*
X154407441Y-105575284D01*
X154409733Y-105575499D01*
X154409738Y-105575500D01*
X154409744Y-105575500D01*
X154505796Y-105575500D01*
X154534189Y-105580702D01*
X154534312Y-105580206D01*
X154540122Y-105581637D01*
X154540128Y-105581640D01*
X154602070Y-105589160D01*
X154604985Y-105589604D01*
X154666394Y-105600858D01*
X154728693Y-105597089D01*
X154731659Y-105597000D01*
X156083900Y-105597000D01*
X156142091Y-105615907D01*
X156178055Y-105665407D01*
X156182900Y-105696000D01*
X156182900Y-106824316D01*
X156163993Y-106882507D01*
X156157472Y-106890559D01*
X156134600Y-106915961D01*
X156134596Y-106915967D01*
X156037854Y-107083527D01*
X156037848Y-107083541D01*
X155978057Y-107267557D01*
X155978056Y-107267561D01*
X155978056Y-107267563D01*
X155957830Y-107460000D01*
X155975393Y-107627102D01*
X155978057Y-107652442D01*
X156037848Y-107836458D01*
X156037854Y-107836472D01*
X156109352Y-107960309D01*
X156134598Y-108004036D01*
X156264073Y-108147833D01*
X156420615Y-108261567D01*
X156420619Y-108261569D01*
X156420621Y-108261570D01*
X156479122Y-108287616D01*
X156597383Y-108340269D01*
X156786652Y-108380500D01*
X156786654Y-108380500D01*
X156980146Y-108380500D01*
X156980148Y-108380500D01*
X157169417Y-108340269D01*
X157346185Y-108261567D01*
X157502727Y-108147833D01*
X157632202Y-108004036D01*
X157721481Y-107849400D01*
X157728945Y-107836472D01*
X157728945Y-107836470D01*
X157728950Y-107836463D01*
X157788744Y-107652437D01*
X157808970Y-107460000D01*
X157788744Y-107267563D01*
X157728950Y-107083537D01*
X157728947Y-107083532D01*
X157728945Y-107083527D01*
X157651920Y-106950117D01*
X157632202Y-106915964D01*
X157625230Y-106908221D01*
X157609328Y-106890559D01*
X157584442Y-106834663D01*
X157583900Y-106824316D01*
X157583900Y-105555683D01*
X157602807Y-105497492D01*
X157609330Y-105489438D01*
X157632200Y-105464038D01*
X157632199Y-105464038D01*
X157632202Y-105464036D01*
X157728950Y-105296463D01*
X157788744Y-105112437D01*
X157808970Y-104920000D01*
X157788744Y-104727563D01*
X157728950Y-104543537D01*
X157728947Y-104543532D01*
X157728945Y-104543527D01*
X157666774Y-104435845D01*
X157632202Y-104375964D01*
X157502727Y-104232167D01*
X157346185Y-104118433D01*
X157346181Y-104118431D01*
X157346178Y-104118429D01*
X157169419Y-104039732D01*
X157169417Y-104039731D01*
X157169414Y-104039730D01*
X157169413Y-104039730D01*
X157120107Y-104029249D01*
X156980148Y-103999500D01*
X156786652Y-103999500D01*
X156684472Y-104021219D01*
X156597386Y-104039730D01*
X156597380Y-104039732D01*
X156420621Y-104118429D01*
X156420613Y-104118434D01*
X156339876Y-104177093D01*
X156281686Y-104196000D01*
X154821765Y-104196000D01*
X154803920Y-104194378D01*
X154791415Y-104192086D01*
X154742604Y-104183141D01*
X154572807Y-104193413D01*
X154572802Y-104193414D01*
X154567655Y-104195018D01*
X154538205Y-104199500D01*
X154409733Y-104199500D01*
X154380155Y-104202274D01*
X154380147Y-104202276D01*
X154255523Y-104245884D01*
X154149293Y-104324285D01*
X154149285Y-104324293D01*
X154070884Y-104430523D01*
X154027276Y-104555147D01*
X154027274Y-104555155D01*
X154024500Y-104584733D01*
X154024500Y-104685589D01*
X154020018Y-104715040D01*
X154005913Y-104760305D01*
X154005913Y-104760307D01*
X153995641Y-104930106D01*
X148503700Y-104930106D01*
X148503700Y-104522625D01*
X148501521Y-104492780D01*
X148498927Y-104475108D01*
X148492439Y-104445903D01*
X148355472Y-103989349D01*
X148351300Y-103960915D01*
X148351300Y-103062483D01*
X148352336Y-103048197D01*
X148352762Y-103045273D01*
X148526842Y-101851590D01*
X148527648Y-101844197D01*
X148528830Y-101827901D01*
X148529100Y-101820462D01*
X148529100Y-100024340D01*
X148531255Y-100003797D01*
X148536544Y-99978863D01*
X148676967Y-99316869D01*
X151647300Y-99316869D01*
X151648483Y-99329480D01*
X151648700Y-99334107D01*
X151648700Y-99494528D01*
X151651642Y-99518584D01*
X151654757Y-99544051D01*
X151654759Y-99544060D01*
X151661901Y-99572821D01*
X151661907Y-99572838D01*
X151679724Y-99619442D01*
X151679726Y-99619447D01*
X151865795Y-99970908D01*
X151877300Y-100017229D01*
X151877300Y-101708902D01*
X151892942Y-101787540D01*
X151892943Y-101787542D01*
X151910956Y-101831029D01*
X151947583Y-101889321D01*
X152022171Y-101942244D01*
X152065658Y-101960257D01*
X152144300Y-101975900D01*
X152144301Y-101975900D01*
X153392899Y-101975900D01*
X153392900Y-101975900D01*
X153471542Y-101960257D01*
X153515029Y-101942244D01*
X153573321Y-101905617D01*
X153626244Y-101831029D01*
X153644257Y-101787542D01*
X153659900Y-101708900D01*
X153659900Y-99996816D01*
X153666203Y-99962055D01*
X153795300Y-99617798D01*
X153805086Y-99582311D01*
X153809002Y-99560717D01*
X153812300Y-99524048D01*
X153812300Y-97386900D01*
X153796657Y-97308258D01*
X153778644Y-97264771D01*
X153742017Y-97206479D01*
X153667429Y-97153556D01*
X153633792Y-97139623D01*
X153623940Y-97135542D01*
X153545302Y-97119900D01*
X153545300Y-97119900D01*
X151915700Y-97119900D01*
X151915697Y-97119900D01*
X151837059Y-97135542D01*
X151793571Y-97153556D01*
X151735278Y-97190183D01*
X151682357Y-97264769D01*
X151664342Y-97308259D01*
X151648700Y-97386897D01*
X151648700Y-97501082D01*
X151648484Y-97505706D01*
X151647300Y-97518333D01*
X151647300Y-99316869D01*
X148676967Y-99316869D01*
X148702202Y-99197902D01*
X148703879Y-99187295D01*
X148706339Y-99163851D01*
X148706900Y-99153122D01*
X148706899Y-98711837D01*
X148707138Y-98706989D01*
X148708300Y-98695191D01*
X148708300Y-98140008D01*
X148708300Y-98140003D01*
X148707136Y-98128192D01*
X148706899Y-98123352D01*
X148706899Y-97987534D01*
X148706633Y-97980148D01*
X148706632Y-97980141D01*
X148706632Y-97980127D01*
X148705726Y-97967587D01*
X148705461Y-97964297D01*
X148705459Y-97964290D01*
X148677337Y-97877274D01*
X148677336Y-97877273D01*
X148650769Y-97832649D01*
X148651584Y-97832163D01*
X148640310Y-97809673D01*
X148631601Y-97780963D01*
X148631599Y-97780955D01*
X148564361Y-97655162D01*
X148532197Y-97594986D01*
X148398425Y-97431984D01*
X148398421Y-97431979D01*
X148337994Y-97382388D01*
X148235413Y-97298202D01*
X148049450Y-97198803D01*
X148049445Y-97198801D01*
X147847655Y-97137588D01*
X147847650Y-97137587D01*
X147637803Y-97116920D01*
X147637797Y-97116920D01*
X147427949Y-97137587D01*
X147427944Y-97137588D01*
X147226154Y-97198801D01*
X147226149Y-97198803D01*
X147040186Y-97298202D01*
X146877184Y-97431974D01*
X146877174Y-97431984D01*
X146743402Y-97594986D01*
X146644005Y-97780946D01*
X146643998Y-97780963D01*
X146632774Y-97817961D01*
X146618780Y-97846506D01*
X146602356Y-97869654D01*
X146584342Y-97913145D01*
X146568700Y-97991781D01*
X146568700Y-98123360D01*
X146568462Y-98128206D01*
X146567300Y-98140007D01*
X146567300Y-98695193D01*
X135017654Y-98695193D01*
X135023968Y-98609600D01*
X135024203Y-98607205D01*
X135047916Y-98414947D01*
X135048263Y-98412610D01*
X135081383Y-98221739D01*
X135081843Y-98219429D01*
X135124286Y-98030420D01*
X135124864Y-98028109D01*
X135176538Y-97841386D01*
X135177225Y-97839123D01*
X135237997Y-97655162D01*
X135238769Y-97653004D01*
X135308511Y-97472202D01*
X135309408Y-97470036D01*
X135387902Y-97292957D01*
X135388922Y-97290800D01*
X135476015Y-97117773D01*
X135477155Y-97115641D01*
X135493378Y-97087001D01*
X135572623Y-96947116D01*
X135573844Y-96945078D01*
X135677495Y-96781394D01*
X135678800Y-96779440D01*
X135790352Y-96621049D01*
X135791760Y-96619149D01*
X135910959Y-96466411D01*
X135912472Y-96464569D01*
X136038959Y-96317934D01*
X136040590Y-96316134D01*
X136174165Y-96175835D01*
X136175835Y-96174165D01*
X136316144Y-96040580D01*
X136317934Y-96038959D01*
X136464569Y-95912472D01*
X136466411Y-95910959D01*
X136619149Y-95791760D01*
X136621049Y-95790352D01*
X136779440Y-95678800D01*
X136781394Y-95677495D01*
X136945078Y-95573844D01*
X136947116Y-95572623D01*
X137115653Y-95477147D01*
X137117741Y-95476031D01*
X137290773Y-95388935D01*
X137292930Y-95387916D01*
X137360924Y-95357775D01*
X137470022Y-95309415D01*
X137472216Y-95308506D01*
X137652949Y-95238790D01*
X137655197Y-95237987D01*
X137701439Y-95222710D01*
X137839130Y-95177223D01*
X137841380Y-95176539D01*
X138028109Y-95124864D01*
X138030420Y-95124286D01*
X138219429Y-95081843D01*
X138221739Y-95081383D01*
X138412610Y-95048263D01*
X138414947Y-95047916D01*
X138607205Y-95024203D01*
X138609600Y-95023968D01*
X138721112Y-95015742D01*
X138803370Y-95009674D01*
X138804519Y-95009603D01*
X138827099Y-95008493D01*
X138827356Y-95008481D01*
X138827358Y-95008541D01*
X138827630Y-95008469D01*
X138924977Y-95003968D01*
X138995093Y-95001386D01*
X138999407Y-95001228D01*
X139000621Y-95001198D01*
X139057500Y-95000500D01*
X160942500Y-95000500D01*
X160999378Y-95001198D01*
G37*
%TD.AperFunction*%
%TD*%
%TA.AperFunction,Conductor*%
%TO.N,Net-(IC1-2_VOUT)*%
G36*
X157576587Y-109306813D02*
G01*
X157594600Y-109350300D01*
X157594600Y-110649700D01*
X157576587Y-110693187D01*
X157533100Y-110711200D01*
X156180986Y-110711200D01*
X156163766Y-110708740D01*
X155562598Y-110533399D01*
X155562592Y-110533398D01*
X155100017Y-110500000D01*
X155100000Y-110499999D01*
X154064019Y-110482600D01*
X154064000Y-110482600D01*
X152360300Y-110482600D01*
X152316813Y-110464587D01*
X152298800Y-110421100D01*
X152298800Y-109578900D01*
X152316813Y-109535413D01*
X152360300Y-109517400D01*
X154064019Y-109517400D01*
X154653362Y-109507501D01*
X155094391Y-109500094D01*
X155105531Y-109500921D01*
X155312478Y-109535413D01*
X155699999Y-109600000D01*
X155699999Y-109599999D01*
X155700000Y-109600000D01*
X156359907Y-109294490D01*
X156385744Y-109288800D01*
X157533100Y-109288800D01*
X157576587Y-109306813D01*
G37*
%TD.AperFunction*%
%TD*%
%TA.AperFunction,Conductor*%
%TO.N,/+15V*%
G36*
X153588787Y-97343413D02*
G01*
X153606800Y-97386900D01*
X153606800Y-99524048D01*
X153602884Y-99545642D01*
X153454400Y-99941598D01*
X153454400Y-101708900D01*
X153436387Y-101752387D01*
X153392900Y-101770400D01*
X152144300Y-101770400D01*
X152100813Y-101752387D01*
X152082800Y-101708900D01*
X152082800Y-99941602D01*
X152082800Y-99941600D01*
X151861345Y-99523297D01*
X151854200Y-99494528D01*
X151854200Y-97386900D01*
X151872213Y-97343413D01*
X151915700Y-97325400D01*
X153545300Y-97325400D01*
X153588787Y-97343413D01*
G37*
%TD.AperFunction*%
%TD*%
%TA.AperFunction,Conductor*%
%TO.N,/+15V*%
G36*
X150134387Y-117765013D02*
G01*
X150152400Y-117808500D01*
X150152400Y-118890000D01*
X150375583Y-119385962D01*
X150381000Y-119411199D01*
X150381000Y-120301700D01*
X150362987Y-120345187D01*
X150319500Y-120363200D01*
X149288800Y-120363200D01*
X148762422Y-120488528D01*
X148748177Y-120490200D01*
X147851700Y-120490200D01*
X147808213Y-120472187D01*
X147790200Y-120428700D01*
X147790200Y-119459679D01*
X147808213Y-119416192D01*
X147821951Y-119405853D01*
X148755400Y-118890000D01*
X148755400Y-117808500D01*
X148773413Y-117765013D01*
X148816900Y-117747000D01*
X150090900Y-117747000D01*
X150134387Y-117765013D01*
G37*
%TD.AperFunction*%
%TD*%
%TA.AperFunction,Conductor*%
%TO.N,Net-(IC1-18_+VS)*%
G36*
X153080787Y-115707613D02*
G01*
X153098800Y-115751100D01*
X153098800Y-116593300D01*
X153080787Y-116636787D01*
X153037300Y-116654800D01*
X152133600Y-116654800D01*
X151632943Y-116779964D01*
X151632944Y-116779964D01*
X151618028Y-116781800D01*
X150660400Y-116781800D01*
X150188400Y-116852600D01*
X150156933Y-116857320D01*
X150147810Y-116858000D01*
X148791500Y-116858000D01*
X148748013Y-116839987D01*
X148730000Y-116796500D01*
X148730000Y-115751100D01*
X148748013Y-115707613D01*
X148791500Y-115689600D01*
X153037300Y-115689600D01*
X153080787Y-115707613D01*
G37*
%TD.AperFunction*%
%TD*%
%TA.AperFunction,Conductor*%
%TO.N,Net-(IC1-4_-IN)*%
G36*
X155181987Y-106258813D02*
G01*
X155200000Y-106302300D01*
X155200000Y-108770100D01*
X155181987Y-108813587D01*
X155138500Y-108831600D01*
X154926557Y-108831600D01*
X154910711Y-108829523D01*
X154799999Y-108799999D01*
X154797572Y-108803718D01*
X154758717Y-108830286D01*
X154746074Y-108831600D01*
X154270900Y-108831600D01*
X154227413Y-108813587D01*
X154209400Y-108770100D01*
X154209400Y-106302300D01*
X154227413Y-106258813D01*
X154270900Y-106240800D01*
X155138500Y-106240800D01*
X155181987Y-106258813D01*
G37*
%TD.AperFunction*%
%TD*%
%TA.AperFunction,Conductor*%
%TO.N,Net-(IC1-8_-VS)*%
G36*
X148280187Y-106589013D02*
G01*
X148298200Y-106632500D01*
X148298200Y-107652500D01*
X148280187Y-107695987D01*
X148236700Y-107714000D01*
X146876609Y-107714000D01*
X146874992Y-107713957D01*
X146634091Y-107701278D01*
X146393200Y-107688600D01*
X146393191Y-107688600D01*
X145489500Y-107688600D01*
X145446013Y-107670587D01*
X145428000Y-107627100D01*
X145428000Y-106683300D01*
X145446013Y-106639813D01*
X145489500Y-106621800D01*
X146393192Y-106621800D01*
X146393200Y-106621800D01*
X146874195Y-106571168D01*
X146877414Y-106571000D01*
X148236700Y-106571000D01*
X148280187Y-106589013D01*
G37*
%TD.AperFunction*%
%TD*%
%TA.AperFunction,Conductor*%
%TO.N,/-15V*%
G36*
X147686746Y-97352449D02*
G01*
X148476681Y-97941953D01*
X148500760Y-97982398D01*
X148501399Y-97991241D01*
X148501400Y-99147750D01*
X148500061Y-99160512D01*
X148323601Y-99992392D01*
X148323600Y-99992403D01*
X148323600Y-101816740D01*
X148322956Y-101825615D01*
X148145800Y-103040396D01*
X148145800Y-104005601D01*
X148295606Y-104504953D01*
X148298200Y-104522625D01*
X148298200Y-105620500D01*
X148280187Y-105663987D01*
X148236700Y-105682000D01*
X146937300Y-105682000D01*
X146893813Y-105663987D01*
X146875800Y-105620500D01*
X146875800Y-104524051D01*
X146879253Y-104503734D01*
X147053600Y-104005600D01*
X147053600Y-103040400D01*
X146977459Y-101822158D01*
X146977400Y-101820243D01*
X146977400Y-99992402D01*
X146775931Y-99161340D01*
X146774200Y-99146851D01*
X146774200Y-97991784D01*
X146792213Y-97948297D01*
X146799606Y-97941989D01*
X147613879Y-97351936D01*
X147659660Y-97341006D01*
X147686746Y-97352449D01*
G37*
%TD.AperFunction*%
%TD*%
%TA.AperFunction,Conductor*%
%TO.N,/+5V_REF_f2v*%
G36*
X144673387Y-113929613D02*
G01*
X144691400Y-113973099D01*
X144691400Y-114876800D01*
X144716741Y-115168232D01*
X144742084Y-115459672D01*
X144742200Y-115462337D01*
X144742200Y-116413577D01*
X144737227Y-116437803D01*
X144513600Y-116959597D01*
X144513600Y-118650700D01*
X144495587Y-118694187D01*
X144452100Y-118712200D01*
X143965500Y-118712200D01*
X143922013Y-118694187D01*
X143904000Y-118650700D01*
X143904000Y-116959599D01*
X143655974Y-116438745D01*
X143650000Y-116412304D01*
X143650000Y-115462995D01*
X143650259Y-115459014D01*
X143726200Y-114876799D01*
X143726200Y-113973100D01*
X143744213Y-113929613D01*
X143787700Y-113911600D01*
X144629900Y-113911600D01*
X144673387Y-113929613D01*
G37*
%TD.AperFunction*%
%TD*%
M02*
