M48
; DRILL file {KiCad 7.0.5-0} date 2024 February 16, Friday 15:34:08
; FORMAT={-:-/ absolute / inch / decimal}
; #@! TF.CreationDate,2024-02-16T15:34:08-04:00
; #@! TF.GenerationSoftware,Kicad,Pcbnew,7.0.5-0
; #@! TF.FileFunction,Plated,1,4,PTH
FMAT,2
INCH
; #@! TA.AperFunction,Plated,PTH,ViaDrill
T1C0.0118
; #@! TA.AperFunction,Plated,PTH,ViaDrill
T2C0.0157
; #@! TA.AperFunction,Plated,PTH,ComponentDrill
T3C0.0197
; #@! TA.AperFunction,Plated,PTH,ComponentDrill
T4C0.0315
; #@! TA.AperFunction,Plated,PTH,ComponentDrill
T5C0.0469
; #@! TA.AperFunction,Plated,PTH,ComponentDrill
T6C0.1063
%
G90
G05
T1
X5.3346Y-4.0591
X5.3346Y-4.5079
X5.3445Y-3.8504
X5.3445Y-3.8911
X5.3445Y-3.9317
X5.3445Y-3.9724
X5.3445Y-4.0131
X5.3445Y-4.6669
X5.3445Y-4.7067
X5.3445Y-4.7466
X5.3445Y-4.7865
X5.3642Y-4.0591
X5.3642Y-4.5079
X5.3839Y-3.8091
X5.3839Y-4.0129
X5.3839Y-4.678
X5.3839Y-4.8524
X5.3937Y-4.0591
X5.3937Y-4.5079
X5.4232Y-4.0591
X5.4232Y-4.5079
X5.435Y-3.7697
X5.447Y-4.8917
X5.4528Y-4.0591
X5.4528Y-4.5079
X5.4757Y-3.7697
X5.4823Y-4.0591
X5.4823Y-4.5079
X5.4869Y-4.8917
X5.5118Y-4.0591
X5.5236Y-4.4488
X5.5268Y-4.8917
X5.5294Y-3.7697
X5.5455Y-4.6017
X5.5517Y-3.8091
X5.5659Y-4.1575
X5.5666Y-4.8917
X5.5696Y-3.7697
X5.5785Y-4.5167
X5.5866Y-4.311
X5.5905Y-4.3898
X5.5915Y-3.8091
X5.6097Y-3.7697
X5.6142Y-4.7441
X5.6145Y-4.1367
X5.6314Y-3.8091
X5.6365Y-4.4307
X5.6378Y-4.8031
X5.6496Y-4.6929
X5.6498Y-3.7697
X5.6713Y-3.8091
X5.6885Y-4.1317
X5.6899Y-3.7697
X5.6929Y-4.7756
X5.7112Y-3.8091
X5.7215Y-3.8807
X5.7244Y-4.5827
X5.7244Y-4.7283
X5.7301Y-3.7697
X5.7445Y-4.0917
X5.7445Y-4.2187
X5.7515Y-3.9727
X5.7565Y-4.0427
X5.7565Y-4.2917
X5.7575Y-4.3767
X5.7575Y-4.4607
X5.7629Y-4.6954
X5.7639Y-4.787
X5.7702Y-3.7697
X5.7905Y-4.3267
X5.8017Y-4.7564
X5.8103Y-3.7697
X5.8228Y-4.6693
X5.8275Y-4.4627
X5.8315Y-4.2827
X5.8325Y-4.3647
X5.8432Y-4.8933
X5.8504Y-3.7697
X5.8629Y-4.8539
X5.8819Y-4.7638
X5.8831Y-4.8933
X5.8895Y-4.0257
X5.8906Y-3.7697
X5.9015Y-4.2957
X5.9015Y-4.3647
X5.9031Y-4.8539
X5.9035Y-4.1357
X5.9075Y-4.4627
X5.923Y-4.8933
X5.9307Y-3.7697
X5.9365Y-4.4217
X5.9385Y-3.9907
X5.9435Y-4.0987
X5.9455Y-4.5757
X5.9465Y-4.2077
X5.9629Y-4.8933
X5.9708Y-3.7697
X5.9764Y-4.2795
X5.9975Y-4.0407
X6.0Y-4.1772
X6.0027Y-4.8933
X6.011Y-3.7697
X6.0135Y-4.4307
X6.0157Y-4.2362
X6.0197Y-4.3307
X6.0197Y-4.6929
X6.0205Y-4.1277
X6.0426Y-4.8933
X6.0511Y-3.7697
X6.0825Y-4.8933
X6.0845Y-4.5157
X6.0912Y-3.7697
X6.0945Y-4.6496
X6.1065Y-4.4077
X6.1099Y-3.8091
X6.1102Y-4.4488
X6.1145Y-4.0377
X6.1155Y-3.8747
X6.1185Y-4.7127
X6.1223Y-4.8933
X6.126Y-4.563
X6.1313Y-3.7697
X6.1339Y-4.1732
X6.1497Y-3.8091
X6.1614Y-4.4882
X6.1622Y-4.8933
X6.1715Y-3.7697
X6.1875Y-4.0627
X6.1896Y-3.8091
X6.1915Y-4.4027
X6.2008Y-4.5394
X6.2045Y-4.8917
X6.2116Y-3.7697
X6.2295Y-3.8091
X6.2444Y-4.8917
X6.2517Y-3.7697
X6.2598Y-4.0787
X6.2598Y-4.1575
X6.2598Y-4.2913
X6.2598Y-4.3701
X6.2598Y-4.5079
X6.2598Y-4.5866
X6.2667Y-4.8524
X6.2843Y-4.8917
X6.2914Y-3.7697
X6.3189Y-4.0591
X6.3189Y-4.6063
X6.3241Y-4.8917
X6.3353Y-3.7697
X6.3484Y-4.0591
X6.3484Y-4.6063
X6.364Y-4.8917
X6.376Y-3.7697
X6.378Y-4.0591
X6.378Y-4.6063
X6.4075Y-4.0591
X6.4075Y-4.6063
X6.4272Y-3.8091
X6.4272Y-4.0129
X6.4272Y-4.8524
X6.437Y-4.0591
X6.437Y-4.6063
X6.4665Y-3.8504
X6.4665Y-3.8911
X6.4665Y-3.9317
X6.4665Y-3.9724
X6.4665Y-4.0131
X6.4665Y-4.0591
X6.4665Y-4.6063
X6.4665Y-4.6669
X6.4665Y-4.7067
X6.4665Y-4.7466
X6.4665Y-4.7865
T2
X5.8675Y-4.7187
X6.0125Y-3.9707
T3
X5.3927Y-3.8976
X5.3927Y-4.7638
X5.4161Y-3.8413
X5.4161Y-3.954
X5.4161Y-4.7074
X5.4161Y-4.8202
X5.4724Y-3.8179
X5.4724Y-3.9774
X5.4724Y-4.6841
X5.4724Y-4.8435
X5.5288Y-3.8413
X5.5288Y-3.954
X5.5288Y-4.7074
X5.5288Y-4.8202
X5.5522Y-3.8976
X5.5522Y-4.7638
X6.2589Y-3.8976
X6.2589Y-4.7638
X6.2822Y-3.8413
X6.2822Y-3.954
X6.2822Y-4.7074
X6.2822Y-4.8202
X6.3386Y-3.8179
X6.3386Y-3.9774
X6.3386Y-4.6841
X6.3386Y-4.8435
X6.395Y-3.8413
X6.395Y-3.954
X6.395Y-4.7074
X6.395Y-4.8202
X6.4183Y-3.8976
X6.4183Y-4.7638
T4
X5.9655Y-4.7897
X6.0655Y-4.7897
X6.1655Y-4.7897
X6.1765Y-4.1307
X6.1765Y-4.2307
X6.1765Y-4.3307
T5
X5.8125Y-3.8747
X5.9125Y-3.8747
X6.0125Y-3.8747
T6
X5.4724Y-3.8976
X5.4724Y-4.7638
X6.3386Y-3.8976
X6.3386Y-4.7638
T0
M30
