%TF.GenerationSoftware,KiCad,Pcbnew,7.0.5-0*%
%TF.CreationDate,2024-02-16T15:34:04-04:00*%
%TF.ProjectId,F2V Chip,46325620-4368-4697-902e-6b696361645f,rev?*%
%TF.SameCoordinates,Original*%
%TF.FileFunction,Copper,L1,Top*%
%TF.FilePolarity,Positive*%
%FSLAX46Y46*%
G04 Gerber Fmt 4.6, Leading zero omitted, Abs format (unit mm)*
G04 Created by KiCad (PCBNEW 7.0.5-0) date 2024-02-16 15:34:04*
%MOMM*%
%LPD*%
G01*
G04 APERTURE LIST*
G04 Aperture macros list*
%AMRoundRect*
0 Rectangle with rounded corners*
0 $1 Rounding radius*
0 $2 $3 $4 $5 $6 $7 $8 $9 X,Y pos of 4 corners*
0 Add a 4 corners polygon primitive as box body*
4,1,4,$2,$3,$4,$5,$6,$7,$8,$9,$2,$3,0*
0 Add four circle primitives for the rounded corners*
1,1,$1+$1,$2,$3*
1,1,$1+$1,$4,$5*
1,1,$1+$1,$6,$7*
1,1,$1+$1,$8,$9*
0 Add four rect primitives between the rounded corners*
20,1,$1+$1,$2,$3,$4,$5,0*
20,1,$1+$1,$4,$5,$6,$7,0*
20,1,$1+$1,$6,$7,$8,$9,0*
20,1,$1+$1,$8,$9,$2,$3,0*%
%AMFreePoly0*
4,1,93,0.006530,2.344911,0.071157,2.344911,0.077575,2.343026,0.084259,2.342849,0.145712,2.323019,0.207708,2.304816,0.213335,2.301199,0.219699,2.299146,0.273087,2.262799,0.327430,2.227875,0.331809,2.222820,0.337338,2.219057,0.378328,2.169135,0.420627,2.120320,0.423405,2.114236,0.427649,2.109068,0.452917,2.049612,0.479746,1.990866,0.480697,1.984248,0.483314,1.978092,
0.490807,1.913930,0.500000,1.850000,0.500000,-1.850000,0.494911,-1.885393,0.494911,-1.921157,0.484834,-1.955473,0.479746,-1.990866,0.464892,-2.023391,0.454816,-2.057708,0.435481,-2.087793,0.420627,-2.120320,0.397209,-2.147345,0.377875,-2.177430,0.350848,-2.200848,0.327430,-2.227875,0.297345,-2.247209,0.270320,-2.270627,0.237793,-2.285481,0.207708,-2.304816,0.173391,-2.314892,
0.140866,-2.329746,0.105473,-2.334834,0.071157,-2.344911,0.035394,-2.344911,0.000000,-2.350000,-2.000000,-2.350000,-2.035394,-2.344911,-2.071157,-2.344911,-2.105473,-2.334834,-2.140866,-2.329746,-2.173391,-2.314892,-2.207708,-2.304816,-2.237793,-2.285481,-2.270320,-2.270627,-2.297345,-2.247209,-2.327430,-2.227875,-2.350848,-2.200848,-2.377875,-2.177430,-2.397209,-2.147345,-2.420627,-2.120320,
-2.435481,-2.087793,-2.454816,-2.057708,-2.464892,-2.023391,-2.479746,-1.990866,-2.484834,-1.955473,-2.494911,-1.921157,-2.494911,-1.885393,-2.500000,-1.850000,-2.500000,1.000000,-2.499048,1.006620,-2.499824,1.013263,-2.488937,1.076938,-2.479746,1.140866,-2.476968,1.146948,-2.475841,1.153542,-2.447458,1.211566,-2.420627,1.270320,-2.416246,1.275375,-2.413308,1.281383,-2.369734,1.329053,
-2.327430,1.377875,-2.321801,1.381491,-2.317291,1.386427,-2.262067,1.419881,-2.207708,1.454816,-2.201287,1.456701,-2.195570,1.460165,-0.195571,2.310165,-0.133159,2.326705,-0.071157,2.344911,-0.064465,2.344911,-0.058005,2.346623,0.006530,2.344911,0.006530,2.344911,$1*%
%AMFreePoly1*
4,1,93,0.064465,2.344911,0.071157,2.344911,0.133164,2.326703,0.195570,2.310165,2.195570,1.460166,2.201290,1.456700,2.207708,1.454816,2.262054,1.419889,2.317291,1.386427,2.321801,1.381491,2.327430,1.377875,2.369734,1.329053,2.413308,1.281383,2.416246,1.275375,2.420627,1.270320,2.447458,1.211566,2.475841,1.153542,2.476968,1.146948,2.479746,1.140866,2.488937,1.076938,
2.499824,1.013263,2.499048,1.006620,2.500000,1.000000,2.500000,-1.850000,2.494911,-1.885393,2.494911,-1.921157,2.484834,-1.955473,2.479746,-1.990866,2.464892,-2.023391,2.454816,-2.057708,2.435481,-2.087793,2.420627,-2.120320,2.397209,-2.147345,2.377875,-2.177430,2.350848,-2.200848,2.327430,-2.227875,2.297345,-2.247209,2.270320,-2.270627,2.237793,-2.285481,2.207708,-2.304816,
2.173391,-2.314892,2.140866,-2.329746,2.105473,-2.334834,2.071157,-2.344911,2.035394,-2.344911,2.000000,-2.350000,0.000000,-2.350000,-0.035394,-2.344911,-0.071157,-2.344911,-0.105473,-2.334834,-0.140866,-2.329746,-0.173391,-2.314892,-0.207708,-2.304816,-0.237793,-2.285481,-0.270320,-2.270627,-0.297345,-2.247209,-0.327430,-2.227875,-0.350848,-2.200848,-0.377875,-2.177430,-0.397209,-2.147345,
-0.420627,-2.120320,-0.435481,-2.087793,-0.454816,-2.057708,-0.464892,-2.023391,-0.479746,-1.990866,-0.484834,-1.955473,-0.494911,-1.921157,-0.494911,-1.885393,-0.500000,-1.850000,-0.500000,1.850000,-0.490807,1.913930,-0.483314,1.978092,-0.480697,1.984248,-0.479746,1.990866,-0.452925,2.049595,-0.427650,2.109068,-0.423404,2.114239,-0.420627,2.120320,-0.378336,2.169125,-0.337338,2.219057,
-0.331809,2.222820,-0.327430,2.227875,-0.273087,2.262799,-0.219699,2.299146,-0.213335,2.301199,-0.207708,2.304816,-0.145719,2.323017,-0.084260,2.342849,-0.077575,2.343026,-0.071157,2.344911,-0.006531,2.344911,0.058005,2.346623,0.064465,2.344911,0.064465,2.344911,$1*%
G04 Aperture macros list end*
%TA.AperFunction,ComponentPad*%
%ADD10C,0.800000*%
%TD*%
%TA.AperFunction,ComponentPad*%
%ADD11C,5.400000*%
%TD*%
%TA.AperFunction,SMDPad,CuDef*%
%ADD12RoundRect,0.250000X-2.290000X0.250000X-2.290000X-0.250000X2.290000X-0.250000X2.290000X0.250000X0*%
%TD*%
%TA.AperFunction,SMDPad,CuDef*%
%ADD13FreePoly0,270.000000*%
%TD*%
%TA.AperFunction,SMDPad,CuDef*%
%ADD14FreePoly1,270.000000*%
%TD*%
%TA.AperFunction,SMDPad,CuDef*%
%ADD15RoundRect,0.237500X0.237500X-0.250000X0.237500X0.250000X-0.237500X0.250000X-0.237500X-0.250000X0*%
%TD*%
%TA.AperFunction,ComponentPad*%
%ADD16C,1.440000*%
%TD*%
%TA.AperFunction,SMDPad,CuDef*%
%ADD17RoundRect,0.250000X2.290000X-0.250000X2.290000X0.250000X-2.290000X0.250000X-2.290000X-0.250000X0*%
%TD*%
%TA.AperFunction,SMDPad,CuDef*%
%ADD18FreePoly0,90.000000*%
%TD*%
%TA.AperFunction,SMDPad,CuDef*%
%ADD19FreePoly1,90.000000*%
%TD*%
%TA.AperFunction,SMDPad,CuDef*%
%ADD20RoundRect,0.237500X-0.237500X0.300000X-0.237500X-0.300000X0.237500X-0.300000X0.237500X0.300000X0*%
%TD*%
%TA.AperFunction,SMDPad,CuDef*%
%ADD21RoundRect,0.225000X0.225000X0.375000X-0.225000X0.375000X-0.225000X-0.375000X0.225000X-0.375000X0*%
%TD*%
%TA.AperFunction,SMDPad,CuDef*%
%ADD22R,2.200000X0.600000*%
%TD*%
%TA.AperFunction,SMDPad,CuDef*%
%ADD23R,0.600000X2.200000*%
%TD*%
%TA.AperFunction,SMDPad,CuDef*%
%ADD24RoundRect,0.200000X0.100000X-0.900000X0.100000X0.900000X-0.100000X0.900000X-0.100000X-0.900000X0*%
%TD*%
%TA.AperFunction,SMDPad,CuDef*%
%ADD25RoundRect,0.150000X0.950000X0.150000X-0.950000X0.150000X-0.950000X-0.150000X0.950000X-0.150000X0*%
%TD*%
%TA.AperFunction,SMDPad,CuDef*%
%ADD26RoundRect,0.150000X0.150000X-0.950000X0.150000X0.950000X-0.150000X0.950000X-0.150000X-0.950000X0*%
%TD*%
%TA.AperFunction,ComponentPad*%
%ADD27RoundRect,0.250000X0.620000X0.845000X-0.620000X0.845000X-0.620000X-0.845000X0.620000X-0.845000X0*%
%TD*%
%TA.AperFunction,ComponentPad*%
%ADD28O,1.740000X2.190000*%
%TD*%
%TA.AperFunction,SMDPad,CuDef*%
%ADD29RoundRect,0.237500X0.237500X-0.300000X0.237500X0.300000X-0.237500X0.300000X-0.237500X-0.300000X0*%
%TD*%
%TA.AperFunction,ViaPad*%
%ADD30C,0.600000*%
%TD*%
%TA.AperFunction,Conductor*%
%ADD31C,0.250000*%
%TD*%
%TA.AperFunction,Conductor*%
%ADD32C,0.600000*%
%TD*%
G04 APERTURE END LIST*
D10*
%TO.P,MH1,1,1*%
%TO.N,GND*%
X136975000Y-99000000D03*
X137568109Y-97568109D03*
X137568109Y-100431891D03*
X139000000Y-96975000D03*
D11*
X139000000Y-99000000D03*
D10*
X139000000Y-101025000D03*
X140431891Y-97568109D03*
X140431891Y-100431891D03*
X141025000Y-99000000D03*
%TD*%
D12*
%TO.P,J1,1,In*%
%TO.N,Net-(J1-In)*%
X137565000Y-110000000D03*
D13*
%TO.P,J1,2,Ext*%
%TO.N,GND*%
X137565000Y-114250000D03*
D14*
X137565000Y-105750000D03*
%TD*%
D10*
%TO.P,MH4,1,1*%
%TO.N,GND*%
X158975000Y-121000000D03*
X159568109Y-119568109D03*
X159568109Y-122431891D03*
X161000000Y-118975000D03*
D11*
X161000000Y-121000000D03*
D10*
X161000000Y-123025000D03*
X162431891Y-119568109D03*
X162431891Y-122431891D03*
X163025000Y-121000000D03*
%TD*%
%TO.P,MH3,1,1*%
%TO.N,GND*%
X136975000Y-121000000D03*
X137568109Y-119568109D03*
X137568109Y-122431891D03*
X139000000Y-118975000D03*
D11*
X139000000Y-121000000D03*
D10*
X139000000Y-123025000D03*
X140431891Y-119568109D03*
X140431891Y-122431891D03*
X141025000Y-121000000D03*
%TD*%
D15*
%TO.P,R12,1*%
%TO.N,Net-(D1-A)*%
X141414800Y-115103500D03*
%TO.P,R12,2*%
%TO.N,Net-(C6-Pad1)*%
X141414800Y-113278500D03*
%TD*%
D16*
%TO.P,R6,1,1*%
%TO.N,Net-(IC1-2_VOUT)*%
X156883400Y-110000000D03*
%TO.P,R6,2,2*%
%TO.N,Net-(R6-Pad2)*%
X156883400Y-107460000D03*
%TO.P,R6,3,3*%
X156883400Y-104920000D03*
%TD*%
D17*
%TO.P,J2,1,In*%
%TO.N,Net-(IC1-2_VOUT)*%
X162435000Y-110000000D03*
D18*
%TO.P,J2,2,Ext*%
%TO.N,GND*%
X162435000Y-105750000D03*
D19*
X162435000Y-114250000D03*
%TD*%
D20*
%TO.P,C4,1*%
%TO.N,GND*%
X142024400Y-106622900D03*
%TO.P,C4,2*%
%TO.N,Net-(IC1-9_COS)*%
X142024400Y-108347900D03*
%TD*%
D10*
%TO.P,MH2,1,1*%
%TO.N,GND*%
X158975000Y-99000000D03*
X159568109Y-97568109D03*
X159568109Y-100431891D03*
X161000000Y-96975000D03*
D11*
X161000000Y-99000000D03*
D10*
X161000000Y-101025000D03*
X162431891Y-97568109D03*
X162431891Y-100431891D03*
X163025000Y-99000000D03*
%TD*%
D21*
%TO.P,D1,1,K*%
%TO.N,GND*%
X145604800Y-118153400D03*
%TO.P,D1,2,A*%
%TO.N,Net-(D1-A)*%
X142304800Y-118153400D03*
%TD*%
D22*
%TO.P,IC1,P$1,1_NC*%
%TO.N,unconnected-(IC1-1_NC-PadP$1)*%
X152758000Y-111270000D03*
%TO.P,IC1,P$2,2_VOUT*%
%TO.N,Net-(IC1-2_VOUT)*%
X152758000Y-110000000D03*
%TO.P,IC1,P$3,3_+IN*%
%TO.N,GND*%
X152758000Y-108730000D03*
D23*
%TO.P,IC1,P$4,4_-IN*%
%TO.N,Net-(IC1-4_-IN)*%
X150998000Y-106970000D03*
%TO.P,IC1,P$5,5_NC*%
%TO.N,unconnected-(IC1-5_NC-PadP$5)*%
X149728000Y-106970000D03*
%TO.P,IC1,P$6,6_IBO*%
%TO.N,unconnected-(IC1-6_IBO-PadP$6)*%
X148458000Y-106970000D03*
%TO.P,IC1,P$7,7_NC*%
%TO.N,unconnected-(IC1-7_NC-PadP$7)*%
X147188000Y-106970000D03*
D24*
%TO.P,IC1,P$8,8_-VS*%
%TO.N,Net-(IC1-8_-VS)*%
X145918000Y-106970000D03*
D25*
%TO.P,IC1,P$9,9_COS*%
%TO.N,Net-(IC1-9_COS)*%
X144158000Y-108730000D03*
D22*
%TO.P,IC1,P$10,10_NC*%
%TO.N,unconnected-(IC1-10_NC-PadP$10)*%
X144158000Y-110000000D03*
%TO.P,IC1,P$11,11_NC*%
%TO.N,unconnected-(IC1-11_NC-PadP$11)*%
X144158000Y-111270000D03*
%TO.P,IC1,P$12,12_FOUT*%
%TO.N,Net-(IC1-12_FOUT)*%
X144158000Y-112540000D03*
%TO.P,IC1,P$13,13_COMP_IN*%
%TO.N,Net-(D1-A)*%
X144158000Y-113810000D03*
D23*
%TO.P,IC1,P$14,14_DGND*%
%TO.N,GND*%
X145918000Y-115570000D03*
%TO.P,IC1,P$15,15_NC*%
%TO.N,unconnected-(IC1-15_NC-PadP$15)*%
X147188000Y-115570000D03*
%TO.P,IC1,P$16,16_AGND*%
%TO.N,GND*%
X148458000Y-115570000D03*
%TO.P,IC1,P$17,17_NC*%
%TO.N,unconnected-(IC1-17_NC-PadP$17)*%
X149728000Y-115570000D03*
D26*
%TO.P,IC1,P$18,18_+VS*%
%TO.N,Net-(IC1-18_+VS)*%
X150998000Y-115570000D03*
D25*
%TO.P,IC1,P$19,19_OFFSET*%
%TO.N,Net-(IC1-19_OFFSET)*%
X152758000Y-113810000D03*
D22*
%TO.P,IC1,P$20,20_OFFSET*%
%TO.N,Net-(IC1-20_OFFSET)*%
X152758000Y-112540000D03*
%TD*%
D27*
%TO.P,J3,1,Pin_1*%
%TO.N,/+15V*%
X152717800Y-98417600D03*
D28*
%TO.P,J3,2,Pin_2*%
%TO.N,GND*%
X150177800Y-98417600D03*
%TO.P,J3,3,Pin_3*%
%TO.N,/-15V*%
X147637800Y-98417600D03*
%TD*%
D29*
%TO.P,C6,1*%
%TO.N,Net-(C6-Pad1)*%
X140906800Y-111751500D03*
%TO.P,C6,2*%
%TO.N,Net-(J1-In)*%
X140906800Y-110026500D03*
%TD*%
D16*
%TO.P,R9,1,1*%
%TO.N,Net-(IC1-20_OFFSET)*%
X151524000Y-121658600D03*
%TO.P,R9,2,2*%
%TO.N,Net-(R10-Pad1)*%
X154064000Y-121658600D03*
%TO.P,R9,3,3*%
%TO.N,Net-(IC1-19_OFFSET)*%
X156604000Y-121658600D03*
%TD*%
D30*
%TO.N,GND*%
X153697425Y-95750000D03*
X140447425Y-95750000D03*
X159620501Y-124250000D03*
X157215635Y-96750000D03*
X141466655Y-95750000D03*
X145400000Y-120100000D03*
X150443894Y-124290000D03*
X146378029Y-119264169D03*
X158228319Y-96750000D03*
X161250000Y-103100000D03*
X143505117Y-95750000D03*
X135750000Y-120563421D03*
X148601271Y-95750000D03*
X135750000Y-97799225D03*
X138500000Y-103100000D03*
X135750000Y-101933075D03*
X163250000Y-123250000D03*
X164250000Y-118538053D03*
X143038053Y-96750000D03*
X150639732Y-95750000D03*
X148145800Y-110863600D03*
X164250000Y-103100000D03*
X151658963Y-95750000D03*
X155308600Y-102557800D03*
X135750000Y-98832687D03*
X155190266Y-96750000D03*
X140000000Y-103100000D03*
X154800000Y-118100000D03*
X158793578Y-95750000D03*
X137000000Y-103100000D03*
X143500000Y-119200000D03*
X149949200Y-105047000D03*
X145910600Y-103929400D03*
X141012684Y-96750000D03*
X153481947Y-124290000D03*
X136250000Y-103100000D03*
X155410200Y-119702800D03*
X157162800Y-103192800D03*
X154716655Y-95750000D03*
X149400000Y-121000000D03*
X156500000Y-114000000D03*
X147362061Y-120813684D03*
X164250000Y-99866150D03*
X135750000Y-100899612D03*
X162000000Y-117000000D03*
X157595132Y-124250000D03*
X164250000Y-121576106D03*
X156202950Y-96750000D03*
X147900000Y-118600000D03*
X155200000Y-113000000D03*
X150787400Y-112311400D03*
X162750000Y-103100000D03*
X150838200Y-101364000D03*
X135750000Y-118538053D03*
X154546600Y-114700000D03*
X164250000Y-101933075D03*
X160500000Y-117000000D03*
X149898400Y-110863600D03*
X163250000Y-96750000D03*
X160633185Y-124250000D03*
X164250000Y-100899612D03*
X149620502Y-95750000D03*
X142025369Y-96750000D03*
X135750000Y-99866150D03*
X155735886Y-95750000D03*
X160917312Y-95750000D03*
X159000000Y-114500000D03*
X149898400Y-109111000D03*
X159000000Y-105600000D03*
X159173076Y-123250000D03*
X146402612Y-121589179D03*
X154494631Y-124290000D03*
X141999251Y-111500000D03*
X157774348Y-95750000D03*
X137000000Y-114500000D03*
X157500000Y-115300000D03*
X138500000Y-114500000D03*
X157264400Y-111828800D03*
X152900000Y-119200000D03*
X148918321Y-123290000D03*
X162000000Y-103100000D03*
X139250000Y-114500000D03*
X164250000Y-97799225D03*
X141375000Y-105600000D03*
X142608600Y-105072400D03*
X156520000Y-124290000D03*
X163500000Y-117000000D03*
X135750000Y-121576106D03*
X145400000Y-116400000D03*
X152678194Y-95750000D03*
X160500000Y-103100000D03*
X139366814Y-124250000D03*
X142485886Y-95750000D03*
X136750000Y-118821428D03*
X158607817Y-124250000D03*
X149937552Y-123290000D03*
X152921000Y-104843800D03*
X150050800Y-113352800D03*
X140300000Y-113000000D03*
X146240800Y-111168400D03*
X147079000Y-109898400D03*
X139082687Y-95750000D03*
X159000000Y-109000000D03*
X152336800Y-102634000D03*
X155334000Y-98417600D03*
X148418525Y-124290000D03*
X161645870Y-124250000D03*
X155800000Y-106000000D03*
X151456578Y-124290000D03*
X162750000Y-117000000D03*
X136750000Y-96750000D03*
X155507316Y-124290000D03*
X164250000Y-120563421D03*
X163250000Y-101928571D03*
X135500000Y-114500000D03*
X164250000Y-119550737D03*
X159000000Y-111000000D03*
X143200000Y-122000000D03*
X149593600Y-102253000D03*
X156755117Y-95750000D03*
X146562809Y-95750000D03*
X140379498Y-124250000D03*
X144050738Y-96750000D03*
X148120400Y-108780800D03*
X139250000Y-103100000D03*
X136750000Y-123250000D03*
X135500000Y-103100000D03*
X155600000Y-115900000D03*
X164250000Y-98832687D03*
X152400000Y-106100000D03*
X145326400Y-98570000D03*
X159000000Y-103600000D03*
X161250000Y-117000000D03*
X149431210Y-124290000D03*
X146215400Y-109009400D03*
X152469263Y-124290000D03*
X146215400Y-102684800D03*
X140856000Y-116883400D03*
X151800000Y-108700000D03*
X146240800Y-113302000D03*
X146088400Y-100906800D03*
X155105400Y-111955800D03*
X144488200Y-104945400D03*
X145063422Y-96750000D03*
X152800000Y-107600000D03*
X159000000Y-116500000D03*
X135750000Y-119550737D03*
X136250000Y-114500000D03*
X137750000Y-114500000D03*
X144600000Y-121300000D03*
X163500000Y-103100000D03*
X147582040Y-95750000D03*
X159802575Y-95750000D03*
X138354129Y-124250000D03*
X150965200Y-104107200D03*
X136750000Y-101928571D03*
X137750000Y-103100000D03*
X138049225Y-95750000D03*
X148018800Y-113352800D03*
X142600000Y-120500000D03*
X141392182Y-124250000D03*
X145543578Y-95750000D03*
X161950774Y-95750000D03*
X164250000Y-117000000D03*
X144524348Y-95750000D03*
X141900000Y-109500000D03*
%TO.N,Net-(IC1-8_-VS)*%
X145910600Y-107155200D03*
%TO.N,Net-(IC1-4_-IN)*%
X151041400Y-106875800D03*
%TO.N,Net-(IC1-2_VOUT)*%
X152900000Y-110000000D03*
%TO.N,Net-(IC1-18_+VS)*%
X151016000Y-116223000D03*
%TO.N,Net-(D1-A)*%
X141694200Y-114724400D03*
%TO.N,Net-(IC1-12_FOUT)*%
X143167400Y-112540000D03*
%TO.N,Net-(IC1-20_OFFSET)*%
X152743200Y-112540000D03*
%TD*%
D31*
%TO.N,Net-(IC1-2_VOUT)*%
X156858000Y-110000000D02*
X162435000Y-110000000D01*
D32*
%TO.N,Net-(IC1-19_OFFSET)*%
X156398974Y-115255974D02*
X155158025Y-114015025D01*
X154663051Y-113810000D02*
X152758000Y-113810000D01*
X156604000Y-121658600D02*
X156604000Y-115750949D01*
X156604035Y-115750949D02*
G75*
G03*
X156398973Y-115255975I-700035J-51D01*
G01*
X155158000Y-114015050D02*
G75*
G03*
X154663051Y-113810000I-495000J-494950D01*
G01*
%TD*%
%TA.AperFunction,Conductor*%
%TO.N,Net-(C6-Pad1)*%
G36*
X141371387Y-111237213D02*
G01*
X141389400Y-111280700D01*
X141389400Y-112286000D01*
X141879387Y-112775987D01*
X141897400Y-112819473D01*
X141897400Y-113697700D01*
X141879387Y-113741187D01*
X141835900Y-113759200D01*
X140993700Y-113759200D01*
X140950213Y-113741187D01*
X140932200Y-113697700D01*
X140932200Y-112794000D01*
X140442213Y-112304013D01*
X140424200Y-112260526D01*
X140424200Y-111280700D01*
X140442213Y-111237213D01*
X140485700Y-111219200D01*
X141327900Y-111219200D01*
X141371387Y-111237213D01*
G37*
%TD.AperFunction*%
%TD*%
%TA.AperFunction,Conductor*%
%TO.N,Net-(IC1-9_COS)*%
G36*
X142522581Y-107833613D02*
G01*
X142525358Y-107836581D01*
X143040400Y-108425200D01*
X145214100Y-108425200D01*
X145257587Y-108443213D01*
X145275600Y-108486700D01*
X145275600Y-108973300D01*
X145257587Y-109016787D01*
X145214100Y-109034800D01*
X143049014Y-109034800D01*
X143032119Y-109032434D01*
X142825150Y-108973300D01*
X142507000Y-108882400D01*
X142506999Y-108882400D01*
X141603300Y-108882400D01*
X141559813Y-108864387D01*
X141541800Y-108820900D01*
X141541800Y-107877100D01*
X141559813Y-107833613D01*
X141603300Y-107815600D01*
X142479094Y-107815600D01*
X142522581Y-107833613D01*
G37*
%TD.AperFunction*%
%TD*%
%TA.AperFunction,Conductor*%
%TO.N,Net-(D1-A)*%
G36*
X145257587Y-113523213D02*
G01*
X145275600Y-113566700D01*
X145275600Y-114094666D01*
X145263694Y-114131035D01*
X142761001Y-117543798D01*
X142761000Y-117543802D01*
X142761000Y-118701500D01*
X142742987Y-118744987D01*
X142699500Y-118763000D01*
X141908100Y-118763000D01*
X141864613Y-118744987D01*
X141846600Y-118701500D01*
X141846600Y-117543800D01*
X140937988Y-115600379D01*
X140932200Y-115574332D01*
X140932200Y-114684300D01*
X140950213Y-114640813D01*
X140993700Y-114622800D01*
X141770400Y-114622800D01*
X141770403Y-114622799D01*
X142659397Y-114140202D01*
X142659398Y-114140201D01*
X142659397Y-114140201D01*
X142659400Y-114140200D01*
X143047657Y-113533547D01*
X143086271Y-113506630D01*
X143099457Y-113505200D01*
X145214100Y-113505200D01*
X145257587Y-113523213D01*
G37*
%TD.AperFunction*%
%TD*%
%TA.AperFunction,Conductor*%
%TO.N,Net-(J1-In)*%
G36*
X140577441Y-109492673D02*
G01*
X140600661Y-109492907D01*
X140603270Y-109492989D01*
X140644266Y-109495162D01*
X140645411Y-109495236D01*
X140943984Y-109517497D01*
X140962598Y-109520296D01*
X141045240Y-109539128D01*
X141080212Y-109552842D01*
X141145347Y-109590425D01*
X141174722Y-109613841D01*
X141192962Y-109633491D01*
X141225878Y-109668953D01*
X141247044Y-109699987D01*
X141279681Y-109767736D01*
X141290758Y-109803636D01*
X141303392Y-109887435D01*
X141304800Y-109906219D01*
X141304800Y-110093780D01*
X141303392Y-110112564D01*
X141290758Y-110196363D01*
X141279681Y-110232263D01*
X141247044Y-110300012D01*
X141225878Y-110331046D01*
X141174725Y-110386156D01*
X141145347Y-110409574D01*
X141080212Y-110447157D01*
X141045236Y-110460872D01*
X140962604Y-110479702D01*
X140943977Y-110482502D01*
X140646444Y-110504686D01*
X140645065Y-110504773D01*
X140603353Y-110506965D01*
X140600591Y-110507049D01*
X140562165Y-110507381D01*
X140558822Y-110507409D01*
X140557449Y-110507407D01*
X140006661Y-110500088D01*
X140006542Y-110500086D01*
X140000000Y-110500000D01*
X139993452Y-110500000D01*
X139712410Y-110500000D01*
X139687829Y-110497579D01*
X139657954Y-110491636D01*
X139609775Y-110482053D01*
X139564356Y-110463240D01*
X139540286Y-110447157D01*
X139508704Y-110426054D01*
X139473945Y-110391295D01*
X139436758Y-110335640D01*
X139417946Y-110290223D01*
X139402421Y-110212171D01*
X139400000Y-110187590D01*
X139400000Y-109762409D01*
X139402421Y-109737829D01*
X139414140Y-109678911D01*
X139432953Y-109633491D01*
X139459300Y-109594059D01*
X139494059Y-109559300D01*
X139533492Y-109532952D01*
X139578909Y-109514140D01*
X139613926Y-109507175D01*
X139637830Y-109502421D01*
X139662410Y-109500000D01*
X139894463Y-109500000D01*
X139900000Y-109500000D01*
X140558465Y-109492496D01*
X140559732Y-109492496D01*
X140577441Y-109492673D01*
G37*
%TD.AperFunction*%
%TD*%
%TA.AperFunction,Conductor*%
%TO.N,Net-(IC1-2_VOUT)*%
G36*
X160312171Y-109502421D02*
G01*
X160390224Y-109517946D01*
X160435640Y-109536758D01*
X160491295Y-109573945D01*
X160526054Y-109608704D01*
X160563240Y-109664356D01*
X160582053Y-109709775D01*
X160597579Y-109787827D01*
X160600000Y-109812409D01*
X160600000Y-110237590D01*
X160597579Y-110262172D01*
X160585859Y-110321090D01*
X160567046Y-110366508D01*
X160540702Y-110405936D01*
X160505936Y-110440702D01*
X160466508Y-110467046D01*
X160421090Y-110485859D01*
X160376927Y-110494643D01*
X160362170Y-110497579D01*
X160337590Y-110500000D01*
X160278921Y-110500000D01*
X160273449Y-110499761D01*
X160148650Y-110488852D01*
X160113645Y-110485792D01*
X160092035Y-110481985D01*
X160071871Y-110476587D01*
X159937089Y-110440503D01*
X159931849Y-110438853D01*
X159093980Y-110134174D01*
X159093977Y-110134173D01*
X159093974Y-110134172D01*
X159093976Y-110134172D01*
X159093969Y-110134170D01*
X159024139Y-110108777D01*
X158983126Y-110083792D01*
X158952089Y-110019938D01*
X158960502Y-109949442D01*
X159001947Y-109899220D01*
X159818408Y-109572635D01*
X159824070Y-109570678D01*
X159830354Y-109568834D01*
X159991953Y-109521424D01*
X160015434Y-109516902D01*
X160189598Y-109500284D01*
X160195579Y-109500000D01*
X160287590Y-109500000D01*
X160312171Y-109502421D01*
G37*
%TD.AperFunction*%
%TD*%
%TA.AperFunction,Conductor*%
%TO.N,GND*%
G36*
X160999378Y-95001198D02*
G01*
X161000592Y-95001228D01*
X161007999Y-95001500D01*
X161075065Y-95003970D01*
X161172361Y-95008468D01*
X161172638Y-95008573D01*
X161172641Y-95008481D01*
X161172866Y-95008492D01*
X161195475Y-95009603D01*
X161196635Y-95009675D01*
X161250798Y-95013670D01*
X161390399Y-95023968D01*
X161392797Y-95024204D01*
X161585046Y-95047915D01*
X161587395Y-95048264D01*
X161778252Y-95081382D01*
X161780577Y-95081844D01*
X161969569Y-95124284D01*
X161971899Y-95124867D01*
X162158613Y-95176538D01*
X162160876Y-95177225D01*
X162344799Y-95237984D01*
X162347007Y-95238774D01*
X162527783Y-95308506D01*
X162529977Y-95309415D01*
X162689375Y-95380071D01*
X162707050Y-95387906D01*
X162709208Y-95388926D01*
X162882240Y-95476022D01*
X162884359Y-95477155D01*
X163052861Y-95572610D01*
X163054945Y-95573859D01*
X163218584Y-95677482D01*
X163220577Y-95678813D01*
X163348328Y-95768785D01*
X163378937Y-95790343D01*
X163380869Y-95791775D01*
X163533568Y-95910943D01*
X163535430Y-95912472D01*
X163682065Y-96038959D01*
X163683865Y-96040590D01*
X163824139Y-96174141D01*
X163825858Y-96175860D01*
X163959409Y-96316134D01*
X163961040Y-96317934D01*
X164087527Y-96464569D01*
X164089059Y-96466435D01*
X164208219Y-96619123D01*
X164209656Y-96621062D01*
X164258287Y-96690113D01*
X164321179Y-96779412D01*
X164322517Y-96781415D01*
X164426140Y-96945054D01*
X164427389Y-96947138D01*
X164522844Y-97115640D01*
X164523976Y-97117757D01*
X164611060Y-97290764D01*
X164612088Y-97292938D01*
X164690580Y-97470012D01*
X164691501Y-97472237D01*
X164761217Y-97652969D01*
X164762025Y-97655229D01*
X164822764Y-97839091D01*
X164823470Y-97841416D01*
X164875125Y-98028072D01*
X164875715Y-98030430D01*
X164918152Y-98219410D01*
X164918626Y-98221793D01*
X164951732Y-98412589D01*
X164952089Y-98414992D01*
X164975793Y-98607182D01*
X164976031Y-98609601D01*
X164990323Y-98803357D01*
X164990398Y-98804569D01*
X164991518Y-98827369D01*
X164992549Y-98849659D01*
X164996025Y-98924863D01*
X164998771Y-98999408D01*
X164998801Y-99000622D01*
X164999500Y-99057498D01*
X164999500Y-109229240D01*
X164980593Y-109287431D01*
X164931093Y-109323395D01*
X164869907Y-109323395D01*
X164867803Y-109322685D01*
X164837133Y-109311953D01*
X164809699Y-109302354D01*
X164809697Y-109302353D01*
X164809694Y-109302353D01*
X164779274Y-109299500D01*
X164779266Y-109299500D01*
X160352017Y-109299500D01*
X160338551Y-109298507D01*
X160338546Y-109298555D01*
X160337569Y-109298434D01*
X160337496Y-109298429D01*
X160337425Y-109298418D01*
X160337342Y-109298406D01*
X160337334Y-109298405D01*
X160337333Y-109298405D01*
X160302712Y-109294995D01*
X160302720Y-109294995D01*
X160295994Y-109294665D01*
X160292635Y-109294500D01*
X160193141Y-109294500D01*
X160192531Y-109294514D01*
X160188253Y-109294616D01*
X160188251Y-109294616D01*
X160177410Y-109295130D01*
X160174377Y-109295347D01*
X160172517Y-109295480D01*
X160172502Y-109295481D01*
X160172480Y-109295483D01*
X160172476Y-109295483D01*
X160140793Y-109298507D01*
X160132731Y-109299276D01*
X160128032Y-109299500D01*
X160090725Y-109299500D01*
X160060304Y-109302353D01*
X160060300Y-109302354D01*
X160056574Y-109303658D01*
X160033281Y-109308765D01*
X159991044Y-109312795D01*
X159981391Y-109314183D01*
X159981369Y-109314186D01*
X159948300Y-109320554D01*
X159948290Y-109320556D01*
X159948292Y-109320556D01*
X159938791Y-109322859D01*
X159938779Y-109322862D01*
X159938777Y-109322863D01*
X159763904Y-109374167D01*
X159759240Y-109375657D01*
X159748954Y-109379211D01*
X159748919Y-109379224D01*
X159744418Y-109380901D01*
X159744373Y-109380918D01*
X159028123Y-109667419D01*
X158991355Y-109674500D01*
X157815532Y-109674500D01*
X157757341Y-109655593D01*
X157729796Y-109625000D01*
X157657337Y-109499500D01*
X157632202Y-109455964D01*
X157512197Y-109322685D01*
X157502728Y-109312168D01*
X157502727Y-109312167D01*
X157346185Y-109198433D01*
X157346181Y-109198431D01*
X157346178Y-109198429D01*
X157169419Y-109119732D01*
X157169417Y-109119731D01*
X157169414Y-109119730D01*
X157169413Y-109119730D01*
X157120107Y-109109249D01*
X156980148Y-109079500D01*
X156786652Y-109079500D01*
X156684472Y-109101219D01*
X156597386Y-109119730D01*
X156597380Y-109119732D01*
X156420621Y-109198429D01*
X156420618Y-109198431D01*
X156420615Y-109198432D01*
X156420615Y-109198433D01*
X156384521Y-109224657D01*
X156264071Y-109312168D01*
X156134596Y-109455966D01*
X156134596Y-109455967D01*
X156037854Y-109623527D01*
X156037848Y-109623541D01*
X155978057Y-109807557D01*
X155957830Y-109999999D01*
X155978057Y-110192442D01*
X156037848Y-110376458D01*
X156037854Y-110376472D01*
X156114715Y-110509597D01*
X156134598Y-110544036D01*
X156218470Y-110637186D01*
X156254602Y-110677315D01*
X156264073Y-110687833D01*
X156420615Y-110801567D01*
X156420619Y-110801569D01*
X156420621Y-110801570D01*
X156474246Y-110825445D01*
X156597383Y-110880269D01*
X156786652Y-110920500D01*
X156786654Y-110920500D01*
X156980146Y-110920500D01*
X156980148Y-110920500D01*
X157169417Y-110880269D01*
X157346185Y-110801567D01*
X157502727Y-110687833D01*
X157632202Y-110544036D01*
X157689641Y-110444548D01*
X157729796Y-110375000D01*
X157775265Y-110334059D01*
X157815532Y-110325500D01*
X159001355Y-110325500D01*
X159035187Y-110331460D01*
X159863732Y-110632748D01*
X159867985Y-110634191D01*
X159877498Y-110637186D01*
X159878855Y-110637581D01*
X159881754Y-110638426D01*
X159881779Y-110638432D01*
X159881787Y-110638435D01*
X159917946Y-110648115D01*
X159924929Y-110650869D01*
X159925114Y-110650342D01*
X159932117Y-110652792D01*
X159932118Y-110652793D01*
X160060301Y-110697646D01*
X160090725Y-110700499D01*
X160090727Y-110700500D01*
X160090734Y-110700500D01*
X160207860Y-110700500D01*
X160212171Y-110700687D01*
X160257782Y-110704675D01*
X160262247Y-110704968D01*
X160272194Y-110705402D01*
X160276678Y-110705500D01*
X160276703Y-110705500D01*
X160342618Y-110705500D01*
X160342635Y-110705500D01*
X160352713Y-110705005D01*
X160387334Y-110701595D01*
X160387445Y-110701578D01*
X160387491Y-110701572D01*
X160387557Y-110701567D01*
X160388539Y-110701446D01*
X160388542Y-110701476D01*
X160388545Y-110701476D01*
X160388546Y-110701494D01*
X160402018Y-110700500D01*
X164779273Y-110700500D01*
X164779273Y-110700499D01*
X164809699Y-110697646D01*
X164867801Y-110677315D01*
X164928972Y-110675942D01*
X164979267Y-110710785D01*
X164999475Y-110768537D01*
X164999500Y-110770759D01*
X164999500Y-120942500D01*
X164998801Y-120999377D01*
X164998771Y-121000591D01*
X164996025Y-121075135D01*
X164994203Y-121114564D01*
X164991536Y-121172272D01*
X164991525Y-121172504D01*
X164990398Y-121195430D01*
X164990323Y-121196642D01*
X164976031Y-121390398D01*
X164975793Y-121392817D01*
X164952089Y-121585007D01*
X164951732Y-121587410D01*
X164918626Y-121778206D01*
X164918152Y-121780589D01*
X164875715Y-121969569D01*
X164875125Y-121971927D01*
X164823470Y-122158582D01*
X164822764Y-122160907D01*
X164762020Y-122344784D01*
X164761212Y-122347043D01*
X164717576Y-122460168D01*
X164691510Y-122527742D01*
X164690580Y-122529987D01*
X164612088Y-122707061D01*
X164611049Y-122709257D01*
X164523985Y-122882224D01*
X164522839Y-122884367D01*
X164427389Y-123052861D01*
X164426140Y-123054945D01*
X164322517Y-123218584D01*
X164321167Y-123220605D01*
X164209656Y-123378937D01*
X164208209Y-123380889D01*
X164089069Y-123533552D01*
X164087528Y-123535430D01*
X163961026Y-123682082D01*
X163959394Y-123683883D01*
X163825858Y-123824139D01*
X163824140Y-123825857D01*
X163683865Y-123959409D01*
X163682065Y-123961040D01*
X163535430Y-124087527D01*
X163533552Y-124089069D01*
X163380889Y-124208209D01*
X163378937Y-124209656D01*
X163220605Y-124321167D01*
X163218584Y-124322517D01*
X163054945Y-124426140D01*
X163052861Y-124427389D01*
X162884359Y-124522844D01*
X162882215Y-124523990D01*
X162709234Y-124611061D01*
X162707037Y-124612100D01*
X162529987Y-124690580D01*
X162527742Y-124691510D01*
X162347050Y-124761209D01*
X162344763Y-124762027D01*
X162160908Y-124822764D01*
X162158583Y-124823470D01*
X161971927Y-124875125D01*
X161969569Y-124875715D01*
X161780589Y-124918152D01*
X161778212Y-124918624D01*
X161737658Y-124925661D01*
X161587410Y-124951732D01*
X161585007Y-124952089D01*
X161392817Y-124975793D01*
X161390398Y-124976031D01*
X161196642Y-124990323D01*
X161195430Y-124990398D01*
X161172597Y-124991520D01*
X161155959Y-124992289D01*
X161075135Y-124996025D01*
X161000591Y-124998771D01*
X160999377Y-124998801D01*
X160942501Y-124999500D01*
X139057499Y-124999500D01*
X139000622Y-124998801D01*
X138999408Y-124998771D01*
X138924863Y-124996025D01*
X138827638Y-124991531D01*
X138827491Y-124991475D01*
X138827350Y-124991517D01*
X138826398Y-124991471D01*
X138804569Y-124990398D01*
X138803357Y-124990323D01*
X138609601Y-124976031D01*
X138607182Y-124975793D01*
X138461801Y-124957862D01*
X138414986Y-124952088D01*
X138412589Y-124951732D01*
X138302807Y-124932683D01*
X138221779Y-124918623D01*
X138219410Y-124918152D01*
X138030430Y-124875715D01*
X138028072Y-124875125D01*
X137841416Y-124823470D01*
X137839097Y-124822766D01*
X137655223Y-124762023D01*
X137652969Y-124761217D01*
X137472237Y-124691501D01*
X137470012Y-124690580D01*
X137292938Y-124612088D01*
X137290764Y-124611060D01*
X137117757Y-124523976D01*
X137115640Y-124522844D01*
X136947138Y-124427389D01*
X136945054Y-124426140D01*
X136781415Y-124322517D01*
X136779412Y-124321179D01*
X136690113Y-124258287D01*
X136621062Y-124209656D01*
X136619123Y-124208219D01*
X136466435Y-124089059D01*
X136464569Y-124087528D01*
X136317917Y-123961026D01*
X136316129Y-123959406D01*
X136175856Y-123825854D01*
X136174142Y-123824140D01*
X136040590Y-123683865D01*
X136038959Y-123682065D01*
X135912472Y-123535430D01*
X135910943Y-123533568D01*
X135791775Y-123380869D01*
X135790343Y-123378937D01*
X135768785Y-123348328D01*
X135678813Y-123220577D01*
X135677482Y-123218584D01*
X135573859Y-123054945D01*
X135572610Y-123052861D01*
X135477155Y-122884359D01*
X135476031Y-122882257D01*
X135388943Y-122709242D01*
X135387916Y-122707070D01*
X135309419Y-122529986D01*
X135308500Y-122527768D01*
X135238774Y-122347007D01*
X135237993Y-122344824D01*
X135177229Y-122160887D01*
X135176535Y-122158601D01*
X135124867Y-121971899D01*
X135124284Y-121969569D01*
X135081847Y-121780589D01*
X135081382Y-121778252D01*
X135060620Y-121658599D01*
X150598429Y-121658599D01*
X150598430Y-121658600D01*
X150618657Y-121851042D01*
X150678448Y-122035058D01*
X150678454Y-122035072D01*
X150749763Y-122158582D01*
X150775198Y-122202636D01*
X150904673Y-122346433D01*
X151061215Y-122460167D01*
X151061219Y-122460169D01*
X151061221Y-122460170D01*
X151119722Y-122486216D01*
X151237983Y-122538869D01*
X151427252Y-122579100D01*
X151427254Y-122579100D01*
X151620746Y-122579100D01*
X151620748Y-122579100D01*
X151810017Y-122538869D01*
X151986785Y-122460167D01*
X152143327Y-122346433D01*
X152272802Y-122202636D01*
X152369550Y-122035063D01*
X152429344Y-121851037D01*
X152449570Y-121658600D01*
X153138430Y-121658600D01*
X153158657Y-121851042D01*
X153218448Y-122035058D01*
X153218454Y-122035072D01*
X153289763Y-122158582D01*
X153315198Y-122202636D01*
X153444673Y-122346433D01*
X153601215Y-122460167D01*
X153601219Y-122460169D01*
X153601221Y-122460170D01*
X153659722Y-122486216D01*
X153777983Y-122538869D01*
X153967252Y-122579100D01*
X153967254Y-122579100D01*
X154160746Y-122579100D01*
X154160748Y-122579100D01*
X154350017Y-122538869D01*
X154526785Y-122460167D01*
X154683327Y-122346433D01*
X154812802Y-122202636D01*
X154909550Y-122035063D01*
X154969344Y-121851037D01*
X154989570Y-121658600D01*
X154969344Y-121466163D01*
X154909550Y-121282137D01*
X154909547Y-121282132D01*
X154909545Y-121282127D01*
X154859490Y-121195430D01*
X154812802Y-121114564D01*
X154683327Y-120970767D01*
X154526785Y-120857033D01*
X154526781Y-120857031D01*
X154526778Y-120857029D01*
X154350019Y-120778332D01*
X154350017Y-120778331D01*
X154350014Y-120778330D01*
X154350013Y-120778330D01*
X154300707Y-120767849D01*
X154160748Y-120738100D01*
X153967252Y-120738100D01*
X153865072Y-120759819D01*
X153777986Y-120778330D01*
X153777980Y-120778332D01*
X153601221Y-120857029D01*
X153601218Y-120857031D01*
X153444671Y-120970768D01*
X153315196Y-121114566D01*
X153315196Y-121114567D01*
X153218454Y-121282127D01*
X153218448Y-121282141D01*
X153158657Y-121466157D01*
X153158656Y-121466161D01*
X153158656Y-121466163D01*
X153138430Y-121658599D01*
X153138430Y-121658600D01*
X152449570Y-121658600D01*
X152429344Y-121466163D01*
X152369550Y-121282137D01*
X152369547Y-121282132D01*
X152369545Y-121282127D01*
X152319490Y-121195430D01*
X152272802Y-121114564D01*
X152143327Y-120970767D01*
X151986785Y-120857033D01*
X151986781Y-120857031D01*
X151986778Y-120857029D01*
X151810019Y-120778332D01*
X151810017Y-120778331D01*
X151810014Y-120778330D01*
X151810013Y-120778330D01*
X151760707Y-120767849D01*
X151620748Y-120738100D01*
X151427252Y-120738100D01*
X151325072Y-120759819D01*
X151237986Y-120778330D01*
X151237980Y-120778332D01*
X151061221Y-120857029D01*
X151061218Y-120857031D01*
X150904671Y-120970768D01*
X150775196Y-121114566D01*
X150775196Y-121114567D01*
X150678454Y-121282127D01*
X150678448Y-121282141D01*
X150618657Y-121466157D01*
X150618656Y-121466161D01*
X150618656Y-121466163D01*
X150598429Y-121658599D01*
X135060620Y-121658599D01*
X135048264Y-121587395D01*
X135047915Y-121585046D01*
X135024204Y-121392797D01*
X135023968Y-121390399D01*
X135009676Y-121196647D01*
X135009603Y-121195475D01*
X135008489Y-121172805D01*
X135003969Y-121075046D01*
X135001228Y-121000591D01*
X135001198Y-120999378D01*
X135000500Y-120942499D01*
X135000500Y-119855202D01*
X148579667Y-119855202D01*
X148598102Y-119983425D01*
X148651917Y-120101261D01*
X148651918Y-120101263D01*
X148736751Y-120199167D01*
X148736752Y-120199168D01*
X148845726Y-120269201D01*
X148845731Y-120269204D01*
X148970028Y-120305700D01*
X148970030Y-120305700D01*
X149099570Y-120305700D01*
X149099572Y-120305700D01*
X149223869Y-120269204D01*
X149332849Y-120199167D01*
X149417682Y-120101263D01*
X149471497Y-119983426D01*
X149489933Y-119855200D01*
X149471497Y-119726974D01*
X149417682Y-119609137D01*
X149332849Y-119511233D01*
X149332848Y-119511232D01*
X149332847Y-119511231D01*
X149223873Y-119441198D01*
X149223870Y-119441196D01*
X149223869Y-119441196D01*
X149223866Y-119441195D01*
X149099574Y-119404700D01*
X149099572Y-119404700D01*
X148970028Y-119404700D01*
X148970025Y-119404700D01*
X148845733Y-119441195D01*
X148845726Y-119441198D01*
X148736752Y-119511231D01*
X148651917Y-119609138D01*
X148598102Y-119726974D01*
X148579667Y-119855197D01*
X148579667Y-119855202D01*
X135000500Y-119855202D01*
X135000500Y-115574335D01*
X140726700Y-115574335D01*
X140731592Y-115618909D01*
X140737380Y-115644956D01*
X140737382Y-115644961D01*
X140751826Y-115687406D01*
X140751834Y-115687427D01*
X141631782Y-117569535D01*
X141641100Y-117611464D01*
X141641100Y-118701502D01*
X141656742Y-118780140D01*
X141656743Y-118780142D01*
X141674756Y-118823629D01*
X141711383Y-118881921D01*
X141785971Y-118934844D01*
X141829458Y-118952857D01*
X141908100Y-118968500D01*
X141908101Y-118968500D01*
X142699499Y-118968500D01*
X142699500Y-118968500D01*
X142778142Y-118952857D01*
X142821629Y-118934844D01*
X142879921Y-118898217D01*
X142932844Y-118823629D01*
X142950857Y-118780142D01*
X142966500Y-118701500D01*
X142966500Y-117643484D01*
X142985407Y-117585294D01*
X142985666Y-117584940D01*
X142996963Y-117569535D01*
X143642141Y-116689746D01*
X146687500Y-116689746D01*
X146687501Y-116689758D01*
X146699132Y-116748227D01*
X146699134Y-116748233D01*
X146743445Y-116814548D01*
X146743448Y-116814552D01*
X146809769Y-116858867D01*
X146854231Y-116867711D01*
X146868241Y-116870498D01*
X146868246Y-116870498D01*
X146868252Y-116870500D01*
X146868253Y-116870500D01*
X147507747Y-116870500D01*
X147507748Y-116870500D01*
X147566231Y-116858867D01*
X147632552Y-116814552D01*
X147676867Y-116748231D01*
X147688500Y-116689748D01*
X147688500Y-116689746D01*
X149227500Y-116689746D01*
X149227501Y-116689758D01*
X149239132Y-116748227D01*
X149239134Y-116748233D01*
X149283445Y-116814548D01*
X149283448Y-116814552D01*
X149349769Y-116858867D01*
X149394231Y-116867711D01*
X149408241Y-116870498D01*
X149408246Y-116870498D01*
X149408252Y-116870500D01*
X149408253Y-116870500D01*
X150047747Y-116870500D01*
X150047748Y-116870500D01*
X150106231Y-116858867D01*
X150172552Y-116814552D01*
X150216867Y-116748231D01*
X150228500Y-116689748D01*
X150228500Y-116553260D01*
X150497500Y-116553260D01*
X150504118Y-116598682D01*
X150507427Y-116621395D01*
X150540843Y-116689748D01*
X150558802Y-116726483D01*
X150641517Y-116809198D01*
X150695285Y-116835483D01*
X150746604Y-116860572D01*
X150746605Y-116860572D01*
X150746607Y-116860573D01*
X150814740Y-116870500D01*
X150814743Y-116870500D01*
X151181257Y-116870500D01*
X151181260Y-116870500D01*
X151249393Y-116860573D01*
X151354483Y-116809198D01*
X151437198Y-116726483D01*
X151488573Y-116621393D01*
X151498500Y-116553260D01*
X151498500Y-116388768D01*
X151500830Y-116372562D01*
X151500158Y-116372466D01*
X151521647Y-116223002D01*
X151521647Y-116222997D01*
X151500158Y-116073535D01*
X151500829Y-116073438D01*
X151498500Y-116057232D01*
X151498500Y-115469786D01*
X151498500Y-114586740D01*
X151488573Y-114518607D01*
X151473406Y-114487583D01*
X151455157Y-114450253D01*
X151437198Y-114413517D01*
X151354483Y-114330802D01*
X151354481Y-114330801D01*
X151249395Y-114279427D01*
X151222139Y-114275456D01*
X151181260Y-114269500D01*
X150814740Y-114269500D01*
X150780673Y-114274463D01*
X150746604Y-114279427D01*
X150641518Y-114330801D01*
X150558801Y-114413518D01*
X150507427Y-114518604D01*
X150507427Y-114518607D01*
X150497500Y-114586740D01*
X150497500Y-116553260D01*
X150228500Y-116553260D01*
X150228500Y-114450252D01*
X150216867Y-114391769D01*
X150172552Y-114325448D01*
X150172548Y-114325445D01*
X150106233Y-114281134D01*
X150106231Y-114281133D01*
X150106228Y-114281132D01*
X150106227Y-114281132D01*
X150047758Y-114269501D01*
X150047748Y-114269500D01*
X149408252Y-114269500D01*
X149408251Y-114269500D01*
X149408241Y-114269501D01*
X149349772Y-114281132D01*
X149349766Y-114281134D01*
X149283451Y-114325445D01*
X149283445Y-114325451D01*
X149239134Y-114391766D01*
X149239132Y-114391772D01*
X149227501Y-114450241D01*
X149227500Y-114450253D01*
X149227500Y-116689746D01*
X147688500Y-116689746D01*
X147688500Y-114450252D01*
X147676867Y-114391769D01*
X147632552Y-114325448D01*
X147632548Y-114325445D01*
X147566233Y-114281134D01*
X147566231Y-114281133D01*
X147566228Y-114281132D01*
X147566227Y-114281132D01*
X147507758Y-114269501D01*
X147507748Y-114269500D01*
X146868252Y-114269500D01*
X146868251Y-114269500D01*
X146868241Y-114269501D01*
X146809772Y-114281132D01*
X146809766Y-114281134D01*
X146743451Y-114325445D01*
X146743445Y-114325451D01*
X146699134Y-114391766D01*
X146699132Y-114391772D01*
X146687501Y-114450241D01*
X146687500Y-114450253D01*
X146687500Y-116689746D01*
X143642141Y-116689746D01*
X145429410Y-114252560D01*
X145458995Y-114194970D01*
X145470901Y-114158601D01*
X145481100Y-114094666D01*
X145481100Y-113993260D01*
X151457500Y-113993260D01*
X151458047Y-113997011D01*
X151467427Y-114061395D01*
X151514947Y-114158597D01*
X151518802Y-114166483D01*
X151601517Y-114249198D01*
X151643046Y-114269500D01*
X151706604Y-114300572D01*
X151706605Y-114300572D01*
X151706607Y-114300573D01*
X151774740Y-114310500D01*
X152722201Y-114310500D01*
X154659767Y-114310500D01*
X154666229Y-114310923D01*
X154701726Y-114315599D01*
X154726686Y-114322288D01*
X154750720Y-114332246D01*
X154773093Y-114345164D01*
X154801717Y-114367130D01*
X154806586Y-114371400D01*
X154855678Y-114420498D01*
X154855721Y-114420535D01*
X155996198Y-115561013D01*
X155996232Y-115561052D01*
X156042782Y-115607596D01*
X156047057Y-115612470D01*
X156068864Y-115640887D01*
X156081783Y-115663260D01*
X156091745Y-115687305D01*
X156098434Y-115712264D01*
X156103076Y-115747505D01*
X156103500Y-115753965D01*
X156103500Y-120833990D01*
X156084593Y-120892181D01*
X156062692Y-120914082D01*
X155984672Y-120970767D01*
X155855196Y-121114566D01*
X155855196Y-121114567D01*
X155758454Y-121282127D01*
X155758448Y-121282141D01*
X155698657Y-121466157D01*
X155678430Y-121658599D01*
X155698657Y-121851042D01*
X155758448Y-122035058D01*
X155758454Y-122035072D01*
X155829763Y-122158582D01*
X155855198Y-122202636D01*
X155984673Y-122346433D01*
X156141215Y-122460167D01*
X156141219Y-122460169D01*
X156141221Y-122460170D01*
X156199722Y-122486216D01*
X156317983Y-122538869D01*
X156507252Y-122579100D01*
X156507254Y-122579100D01*
X156700746Y-122579100D01*
X156700748Y-122579100D01*
X156890017Y-122538869D01*
X157066785Y-122460167D01*
X157223327Y-122346433D01*
X157352802Y-122202636D01*
X157449550Y-122035063D01*
X157509344Y-121851037D01*
X157529570Y-121658600D01*
X157509344Y-121466163D01*
X157449550Y-121282137D01*
X157449547Y-121282132D01*
X157449545Y-121282127D01*
X157399490Y-121195430D01*
X157352802Y-121114564D01*
X157223327Y-120970767D01*
X157184421Y-120942500D01*
X157145308Y-120914082D01*
X157109345Y-120864582D01*
X157104500Y-120833990D01*
X157104500Y-115820204D01*
X157104505Y-115820120D01*
X157104503Y-115791958D01*
X157104537Y-115791850D01*
X157104534Y-115750913D01*
X157104535Y-115750913D01*
X157104528Y-115656431D01*
X157074955Y-115469796D01*
X157016550Y-115290085D01*
X156930752Y-115121722D01*
X156930749Y-115121718D01*
X156930746Y-115121713D01*
X156819680Y-114968862D01*
X156819673Y-114968853D01*
X156762409Y-114911595D01*
X156762406Y-114911591D01*
X156762406Y-114911592D01*
X155486618Y-113635804D01*
X155486613Y-113635800D01*
X155485713Y-113634900D01*
X155485036Y-113634269D01*
X155445117Y-113594347D01*
X155292266Y-113483281D01*
X155292255Y-113483274D01*
X155123905Y-113397484D01*
X155123896Y-113397480D01*
X154944204Y-113339081D01*
X154944200Y-113339080D01*
X154944196Y-113339079D01*
X154944195Y-113339079D01*
X154900678Y-113332183D01*
X154757564Y-113309506D01*
X154757566Y-113309506D01*
X154700386Y-113309502D01*
X154700306Y-113309500D01*
X154698850Y-113309500D01*
X154663092Y-113309500D01*
X154662983Y-113309499D01*
X154597195Y-113309495D01*
X154597194Y-113309495D01*
X154594015Y-113309495D01*
X154593941Y-113309500D01*
X153741260Y-113309500D01*
X151774740Y-113309500D01*
X151740673Y-113314463D01*
X151706604Y-113319427D01*
X151601518Y-113370801D01*
X151518801Y-113453518D01*
X151467427Y-113558604D01*
X151462463Y-113592673D01*
X151457500Y-113626740D01*
X151457500Y-113993260D01*
X145481100Y-113993260D01*
X145481100Y-113566700D01*
X145465457Y-113488058D01*
X145454960Y-113462715D01*
X145449332Y-113444162D01*
X145446867Y-113431769D01*
X145440855Y-113422772D01*
X145402554Y-113365451D01*
X145402553Y-113365450D01*
X145402552Y-113365448D01*
X145363092Y-113339081D01*
X145336233Y-113321134D01*
X145336231Y-113321133D01*
X145336228Y-113321132D01*
X145336227Y-113321132D01*
X145277758Y-113309501D01*
X145277748Y-113309500D01*
X145277747Y-113309500D01*
X145273120Y-113309500D01*
X145253806Y-113307598D01*
X145214102Y-113299700D01*
X145214100Y-113299700D01*
X143093906Y-113299700D01*
X143093905Y-113299700D01*
X143082818Y-113300298D01*
X143082815Y-113300299D01*
X143064175Y-113302321D01*
X143064129Y-113302326D01*
X143064115Y-113302328D01*
X143064104Y-113302329D01*
X143064066Y-113302334D01*
X143053542Y-113303753D01*
X143053530Y-113303756D01*
X143049027Y-113305578D01*
X143031224Y-113310897D01*
X142979772Y-113321132D01*
X142979766Y-113321134D01*
X142913451Y-113365445D01*
X142913446Y-113365450D01*
X142879428Y-113416359D01*
X142877156Y-113419488D01*
X142874571Y-113422768D01*
X142528587Y-113963370D01*
X142492434Y-113997011D01*
X141999477Y-114264616D01*
X141939315Y-114275761D01*
X141911517Y-114265574D01*
X141910690Y-114267387D01*
X141904253Y-114264447D01*
X141766164Y-114223900D01*
X141766161Y-114223900D01*
X141622239Y-114223900D01*
X141622235Y-114223900D01*
X141484149Y-114264446D01*
X141484142Y-114264449D01*
X141363073Y-114342255D01*
X141360551Y-114345166D01*
X141329213Y-114381331D01*
X141276819Y-114412927D01*
X141254395Y-114415500D01*
X141124543Y-114415500D01*
X141107654Y-114417083D01*
X141103033Y-114417299D01*
X140993701Y-114417299D01*
X140993697Y-114417300D01*
X140915059Y-114432942D01*
X140871571Y-114450956D01*
X140813278Y-114487583D01*
X140760357Y-114562169D01*
X140742342Y-114605659D01*
X140726700Y-114684297D01*
X140726700Y-115574335D01*
X135000500Y-115574335D01*
X135000500Y-112260528D01*
X140218700Y-112260528D01*
X140234343Y-112339167D01*
X140234343Y-112339169D01*
X140252354Y-112382652D01*
X140252355Y-112382654D01*
X140252356Y-112382655D01*
X140296903Y-112449323D01*
X140697705Y-112850125D01*
X140725481Y-112904640D01*
X140726700Y-112920127D01*
X140726700Y-113697702D01*
X140742342Y-113776340D01*
X140742343Y-113776342D01*
X140760356Y-113819829D01*
X140796983Y-113878121D01*
X140871571Y-113931044D01*
X140915058Y-113949057D01*
X140993700Y-113964700D01*
X141103028Y-113964700D01*
X141107651Y-113964916D01*
X141124544Y-113966500D01*
X141705056Y-113966500D01*
X141721949Y-113964916D01*
X141726572Y-113964700D01*
X141835899Y-113964700D01*
X141835900Y-113964700D01*
X141914542Y-113949057D01*
X141958029Y-113931044D01*
X142016321Y-113894417D01*
X142069244Y-113819829D01*
X142087257Y-113776342D01*
X142102900Y-113697700D01*
X142102900Y-112819473D01*
X142087256Y-112740830D01*
X142087255Y-112740827D01*
X142087255Y-112740826D01*
X142069243Y-112697345D01*
X142069243Y-112697344D01*
X142024697Y-112630677D01*
X141934022Y-112540002D01*
X142661753Y-112540002D01*
X142682234Y-112682456D01*
X142708893Y-112740829D01*
X142742023Y-112813373D01*
X142782207Y-112859748D01*
X142836273Y-112922144D01*
X142881104Y-112950955D01*
X142909894Y-112979235D01*
X142913442Y-112984545D01*
X142913445Y-112984548D01*
X142913448Y-112984552D01*
X142979769Y-113028867D01*
X143024231Y-113037711D01*
X143038241Y-113040498D01*
X143038246Y-113040498D01*
X143038252Y-113040500D01*
X143038253Y-113040500D01*
X145277747Y-113040500D01*
X145277748Y-113040500D01*
X145336231Y-113028867D01*
X145402552Y-112984552D01*
X145446867Y-112918231D01*
X145458500Y-112859748D01*
X145458500Y-112859746D01*
X151457500Y-112859746D01*
X151457501Y-112859758D01*
X151469132Y-112918227D01*
X151469134Y-112918233D01*
X151490999Y-112950955D01*
X151513448Y-112984552D01*
X151579769Y-113028867D01*
X151624231Y-113037711D01*
X151638241Y-113040498D01*
X151638246Y-113040498D01*
X151638252Y-113040500D01*
X151638253Y-113040500D01*
X153877747Y-113040500D01*
X153877748Y-113040500D01*
X153936231Y-113028867D01*
X154002552Y-112984552D01*
X154046867Y-112918231D01*
X154058500Y-112859748D01*
X154058500Y-112220252D01*
X154046867Y-112161769D01*
X154002552Y-112095448D01*
X154002548Y-112095445D01*
X153936233Y-112051134D01*
X153936231Y-112051133D01*
X153936228Y-112051132D01*
X153936227Y-112051132D01*
X153877758Y-112039501D01*
X153877748Y-112039500D01*
X151638252Y-112039500D01*
X151638251Y-112039500D01*
X151638241Y-112039501D01*
X151579772Y-112051132D01*
X151579766Y-112051134D01*
X151513451Y-112095445D01*
X151513445Y-112095451D01*
X151469134Y-112161766D01*
X151469132Y-112161772D01*
X151457501Y-112220241D01*
X151457500Y-112220253D01*
X151457500Y-112859746D01*
X145458500Y-112859746D01*
X145458500Y-112220252D01*
X145446867Y-112161769D01*
X145402552Y-112095448D01*
X145402548Y-112095445D01*
X145336233Y-112051134D01*
X145336231Y-112051133D01*
X145336228Y-112051132D01*
X145336227Y-112051132D01*
X145277758Y-112039501D01*
X145277748Y-112039500D01*
X143038252Y-112039500D01*
X143038251Y-112039500D01*
X143038241Y-112039501D01*
X142979772Y-112051132D01*
X142979766Y-112051134D01*
X142913451Y-112095445D01*
X142913444Y-112095452D01*
X142909892Y-112100768D01*
X142881107Y-112129041D01*
X142836274Y-112157854D01*
X142742022Y-112266628D01*
X142682234Y-112397543D01*
X142661753Y-112539997D01*
X142661753Y-112540002D01*
X141934022Y-112540002D01*
X141623896Y-112229876D01*
X141596119Y-112175359D01*
X141594900Y-112159872D01*
X141594900Y-111589746D01*
X142857500Y-111589746D01*
X142857501Y-111589758D01*
X142869132Y-111648227D01*
X142869133Y-111648231D01*
X142913448Y-111714552D01*
X142979769Y-111758867D01*
X143024231Y-111767711D01*
X143038241Y-111770498D01*
X143038246Y-111770498D01*
X143038252Y-111770500D01*
X143038253Y-111770500D01*
X145277747Y-111770500D01*
X145277748Y-111770500D01*
X145336231Y-111758867D01*
X145402552Y-111714552D01*
X145446867Y-111648231D01*
X145458500Y-111589748D01*
X145458500Y-111589746D01*
X151457500Y-111589746D01*
X151457501Y-111589758D01*
X151469132Y-111648227D01*
X151469133Y-111648231D01*
X151513448Y-111714552D01*
X151579769Y-111758867D01*
X151624231Y-111767711D01*
X151638241Y-111770498D01*
X151638246Y-111770498D01*
X151638252Y-111770500D01*
X151638253Y-111770500D01*
X153877747Y-111770500D01*
X153877748Y-111770500D01*
X153936231Y-111758867D01*
X154002552Y-111714552D01*
X154046867Y-111648231D01*
X154058500Y-111589748D01*
X154058500Y-110950252D01*
X154046867Y-110891769D01*
X154002552Y-110825448D01*
X153966814Y-110801568D01*
X153936233Y-110781134D01*
X153936231Y-110781133D01*
X153936228Y-110781132D01*
X153936227Y-110781132D01*
X153877758Y-110769501D01*
X153877748Y-110769500D01*
X151638252Y-110769500D01*
X151638251Y-110769500D01*
X151638241Y-110769501D01*
X151579772Y-110781132D01*
X151579766Y-110781134D01*
X151513451Y-110825445D01*
X151513445Y-110825451D01*
X151469134Y-110891766D01*
X151469132Y-110891772D01*
X151457501Y-110950241D01*
X151457500Y-110950253D01*
X151457500Y-111589746D01*
X145458500Y-111589746D01*
X145458500Y-110950252D01*
X145446867Y-110891769D01*
X145402552Y-110825448D01*
X145366814Y-110801568D01*
X145336233Y-110781134D01*
X145336231Y-110781133D01*
X145336228Y-110781132D01*
X145336227Y-110781132D01*
X145277758Y-110769501D01*
X145277748Y-110769500D01*
X143038252Y-110769500D01*
X143038251Y-110769500D01*
X143038241Y-110769501D01*
X142979772Y-110781132D01*
X142979766Y-110781134D01*
X142913451Y-110825445D01*
X142913445Y-110825451D01*
X142869134Y-110891766D01*
X142869132Y-110891772D01*
X142857501Y-110950241D01*
X142857500Y-110950253D01*
X142857500Y-111589746D01*
X141594900Y-111589746D01*
X141594900Y-111280701D01*
X141594899Y-111280697D01*
X141579257Y-111202059D01*
X141579257Y-111202058D01*
X141561244Y-111158571D01*
X141524617Y-111100279D01*
X141450029Y-111047356D01*
X141406542Y-111029343D01*
X141406540Y-111029342D01*
X141327902Y-111013700D01*
X141327900Y-111013700D01*
X141202496Y-111013700D01*
X141200185Y-111013646D01*
X141197061Y-111013500D01*
X141197056Y-111013500D01*
X140616544Y-111013500D01*
X140616539Y-111013500D01*
X140613415Y-111013646D01*
X140611104Y-111013700D01*
X140485697Y-111013700D01*
X140407059Y-111029342D01*
X140363571Y-111047356D01*
X140305278Y-111083983D01*
X140252357Y-111158569D01*
X140234342Y-111202059D01*
X140218700Y-111280697D01*
X140218700Y-112260528D01*
X135000500Y-112260528D01*
X135000500Y-110770759D01*
X135019407Y-110712568D01*
X135068907Y-110676604D01*
X135130093Y-110676604D01*
X135132198Y-110677315D01*
X135190301Y-110697646D01*
X135220725Y-110700499D01*
X135220727Y-110700500D01*
X135220734Y-110700500D01*
X139647983Y-110700500D01*
X139661453Y-110701493D01*
X139661459Y-110701446D01*
X139662422Y-110701564D01*
X139662500Y-110701570D01*
X139662666Y-110701595D01*
X139697288Y-110705005D01*
X139707365Y-110705500D01*
X139707381Y-110705500D01*
X139998625Y-110705500D01*
X140427002Y-110711191D01*
X140458385Y-110716738D01*
X140552371Y-110749624D01*
X140586951Y-110761725D01*
X140614241Y-110764284D01*
X140616533Y-110764499D01*
X140616538Y-110764500D01*
X140616544Y-110764500D01*
X141197062Y-110764500D01*
X141197065Y-110764499D01*
X141226649Y-110761725D01*
X141351275Y-110718116D01*
X141457511Y-110639711D01*
X141535916Y-110533475D01*
X141579525Y-110408849D01*
X141582300Y-110379256D01*
X141582300Y-110319746D01*
X142857500Y-110319746D01*
X142857501Y-110319758D01*
X142869132Y-110378227D01*
X142869134Y-110378233D01*
X142913445Y-110444548D01*
X142913448Y-110444552D01*
X142979769Y-110488867D01*
X143024231Y-110497711D01*
X143038241Y-110500498D01*
X143038246Y-110500498D01*
X143038252Y-110500500D01*
X143038253Y-110500500D01*
X145277747Y-110500500D01*
X145277748Y-110500500D01*
X145336231Y-110488867D01*
X145402552Y-110444552D01*
X145446867Y-110378231D01*
X145458500Y-110319748D01*
X145458500Y-110319746D01*
X151457500Y-110319746D01*
X151457501Y-110319758D01*
X151469132Y-110378227D01*
X151469134Y-110378233D01*
X151513445Y-110444548D01*
X151513448Y-110444552D01*
X151579769Y-110488867D01*
X151624231Y-110497711D01*
X151638241Y-110500498D01*
X151638246Y-110500498D01*
X151638252Y-110500500D01*
X151638253Y-110500500D01*
X153877747Y-110500500D01*
X153877748Y-110500500D01*
X153936231Y-110488867D01*
X154002552Y-110444552D01*
X154046867Y-110378231D01*
X154058500Y-110319748D01*
X154058500Y-109680252D01*
X154057205Y-109673744D01*
X154051318Y-109644147D01*
X154046867Y-109621769D01*
X154002552Y-109555448D01*
X153975120Y-109537118D01*
X153936233Y-109511134D01*
X153936231Y-109511133D01*
X153936228Y-109511132D01*
X153936227Y-109511132D01*
X153877758Y-109499501D01*
X153877748Y-109499500D01*
X151638252Y-109499500D01*
X151638251Y-109499500D01*
X151638241Y-109499501D01*
X151579772Y-109511132D01*
X151579766Y-109511134D01*
X151513451Y-109555445D01*
X151513445Y-109555451D01*
X151469134Y-109621766D01*
X151469132Y-109621772D01*
X151457501Y-109680241D01*
X151457500Y-109680253D01*
X151457500Y-110319746D01*
X145458500Y-110319746D01*
X145458500Y-109680252D01*
X145457205Y-109673744D01*
X145451318Y-109644147D01*
X145446867Y-109621769D01*
X145402552Y-109555448D01*
X145375120Y-109537118D01*
X145336233Y-109511134D01*
X145336231Y-109511133D01*
X145336228Y-109511132D01*
X145336227Y-109511132D01*
X145277758Y-109499501D01*
X145277748Y-109499500D01*
X143038252Y-109499500D01*
X143038251Y-109499500D01*
X143038241Y-109499501D01*
X142979772Y-109511132D01*
X142979766Y-109511134D01*
X142913451Y-109555445D01*
X142913445Y-109555451D01*
X142869134Y-109621766D01*
X142869132Y-109621772D01*
X142857501Y-109680241D01*
X142857500Y-109680253D01*
X142857500Y-110319746D01*
X141582300Y-110319746D01*
X141582300Y-109673744D01*
X141582300Y-109673743D01*
X141582300Y-109673738D01*
X141582299Y-109673733D01*
X141579525Y-109644155D01*
X141579525Y-109644151D01*
X141535916Y-109519525D01*
X141529723Y-109511134D01*
X141457514Y-109413293D01*
X141457513Y-109413292D01*
X141457511Y-109413289D01*
X141457506Y-109413285D01*
X141351276Y-109334884D01*
X141226652Y-109291276D01*
X141226651Y-109291275D01*
X141226649Y-109291275D01*
X141226647Y-109291274D01*
X141226644Y-109291274D01*
X141197066Y-109288500D01*
X141197056Y-109288500D01*
X140629087Y-109288500D01*
X140626491Y-109288431D01*
X140617537Y-109287957D01*
X140613049Y-109287719D01*
X140610884Y-109287627D01*
X140610865Y-109287626D01*
X140610832Y-109287625D01*
X140606021Y-109287474D01*
X140604133Y-109287434D01*
X140603785Y-109287427D01*
X140580728Y-109287195D01*
X140579503Y-109287183D01*
X140579500Y-109287182D01*
X140560766Y-109286996D01*
X140560759Y-109286996D01*
X140557294Y-109286996D01*
X140228046Y-109290748D01*
X139898762Y-109294500D01*
X139657365Y-109294500D01*
X139653585Y-109294685D01*
X139647282Y-109294995D01*
X139612668Y-109298404D01*
X139612505Y-109298429D01*
X139612417Y-109298435D01*
X139611447Y-109298555D01*
X139611441Y-109298507D01*
X139597981Y-109299500D01*
X135220725Y-109299500D01*
X135190305Y-109302353D01*
X135190301Y-109302354D01*
X135132197Y-109322685D01*
X135071027Y-109324057D01*
X135020733Y-109289212D01*
X135000525Y-109231460D01*
X135000500Y-109229240D01*
X135000500Y-108820902D01*
X141336300Y-108820902D01*
X141351942Y-108899540D01*
X141351943Y-108899542D01*
X141369956Y-108943029D01*
X141406583Y-109001321D01*
X141481171Y-109054244D01*
X141524658Y-109072257D01*
X141603300Y-109087900D01*
X142464354Y-109087900D01*
X142491550Y-109091708D01*
X142982541Y-109231992D01*
X142996535Y-109234956D01*
X143027596Y-109239306D01*
X143041863Y-109240300D01*
X143041871Y-109240300D01*
X145214099Y-109240300D01*
X145214100Y-109240300D01*
X145292742Y-109224657D01*
X145336229Y-109206644D01*
X145394521Y-109170017D01*
X145447444Y-109095429D01*
X145465457Y-109051942D01*
X145481100Y-108973300D01*
X145481100Y-108486700D01*
X145465457Y-108408058D01*
X145447444Y-108364571D01*
X145410817Y-108306279D01*
X145410814Y-108306277D01*
X145409967Y-108304928D01*
X145407491Y-108303919D01*
X145360388Y-108270498D01*
X145336229Y-108253356D01*
X145292742Y-108235343D01*
X145292740Y-108235342D01*
X145214102Y-108219700D01*
X145214100Y-108219700D01*
X143178572Y-108219700D01*
X143120381Y-108200793D01*
X143104067Y-108185892D01*
X142937298Y-107995299D01*
X142678885Y-107699969D01*
X142678869Y-107699951D01*
X142676618Y-107697463D01*
X142672637Y-107693208D01*
X142672636Y-107693207D01*
X142601227Y-107643758D01*
X142601221Y-107643755D01*
X142557736Y-107625743D01*
X142479096Y-107610100D01*
X142479094Y-107610100D01*
X142320096Y-107610100D01*
X142317785Y-107610046D01*
X142314661Y-107609900D01*
X142314656Y-107609900D01*
X141734144Y-107609900D01*
X141734139Y-107609900D01*
X141731015Y-107610046D01*
X141728704Y-107610100D01*
X141603297Y-107610100D01*
X141524659Y-107625742D01*
X141481171Y-107643756D01*
X141422878Y-107680383D01*
X141369957Y-107754969D01*
X141351942Y-107798459D01*
X141336300Y-107877097D01*
X141336300Y-108820902D01*
X135000500Y-108820902D01*
X135000500Y-107155201D01*
X145404953Y-107155201D01*
X145416492Y-107235459D01*
X145417500Y-107249548D01*
X145417500Y-107901520D01*
X145417501Y-107901523D01*
X145432352Y-107995299D01*
X145432354Y-107995304D01*
X145489950Y-108108342D01*
X145534784Y-108153176D01*
X145542326Y-108167979D01*
X145563685Y-108182077D01*
X145579658Y-108198050D01*
X145692696Y-108255646D01*
X145786481Y-108270500D01*
X146049518Y-108270499D01*
X146049520Y-108270499D01*
X146049521Y-108270498D01*
X146122966Y-108258867D01*
X146143299Y-108255647D01*
X146143299Y-108255646D01*
X146143304Y-108255646D01*
X146256342Y-108198050D01*
X146346050Y-108108342D01*
X146355525Y-108089746D01*
X146687500Y-108089746D01*
X146687501Y-108089758D01*
X146699132Y-108148227D01*
X146699134Y-108148233D01*
X146734254Y-108200793D01*
X146743448Y-108214552D01*
X146809769Y-108258867D01*
X146854231Y-108267711D01*
X146868241Y-108270498D01*
X146868246Y-108270498D01*
X146868252Y-108270500D01*
X146868253Y-108270500D01*
X147507747Y-108270500D01*
X147507748Y-108270500D01*
X147566231Y-108258867D01*
X147632552Y-108214552D01*
X147676867Y-108148231D01*
X147688500Y-108089748D01*
X147688500Y-108089746D01*
X147957500Y-108089746D01*
X147957501Y-108089758D01*
X147969132Y-108148227D01*
X147969134Y-108148233D01*
X148004254Y-108200793D01*
X148013448Y-108214552D01*
X148079769Y-108258867D01*
X148124231Y-108267711D01*
X148138241Y-108270498D01*
X148138246Y-108270498D01*
X148138252Y-108270500D01*
X148138253Y-108270500D01*
X148777747Y-108270500D01*
X148777748Y-108270500D01*
X148836231Y-108258867D01*
X148902552Y-108214552D01*
X148946867Y-108148231D01*
X148958500Y-108089748D01*
X148958500Y-108089746D01*
X149227500Y-108089746D01*
X149227501Y-108089758D01*
X149239132Y-108148227D01*
X149239134Y-108148233D01*
X149274254Y-108200793D01*
X149283448Y-108214552D01*
X149349769Y-108258867D01*
X149394231Y-108267711D01*
X149408241Y-108270498D01*
X149408246Y-108270498D01*
X149408252Y-108270500D01*
X149408253Y-108270500D01*
X150047747Y-108270500D01*
X150047748Y-108270500D01*
X150106231Y-108258867D01*
X150172552Y-108214552D01*
X150216867Y-108148231D01*
X150228500Y-108089748D01*
X150228500Y-108089746D01*
X150497500Y-108089746D01*
X150497501Y-108089758D01*
X150509132Y-108148227D01*
X150509134Y-108148233D01*
X150544254Y-108200793D01*
X150553448Y-108214552D01*
X150619769Y-108258867D01*
X150664231Y-108267711D01*
X150678241Y-108270498D01*
X150678246Y-108270498D01*
X150678252Y-108270500D01*
X150678253Y-108270500D01*
X151317747Y-108270500D01*
X151317748Y-108270500D01*
X151376231Y-108258867D01*
X151442552Y-108214552D01*
X151486867Y-108148231D01*
X151498500Y-108089748D01*
X151498500Y-107460000D01*
X155957830Y-107460000D01*
X155977143Y-107643755D01*
X155978057Y-107652442D01*
X156037848Y-107836458D01*
X156037854Y-107836472D01*
X156075411Y-107901521D01*
X156134598Y-108004036D01*
X156264073Y-108147833D01*
X156420615Y-108261567D01*
X156420619Y-108261569D01*
X156420621Y-108261570D01*
X156479122Y-108287616D01*
X156597383Y-108340269D01*
X156786652Y-108380500D01*
X156786654Y-108380500D01*
X156980146Y-108380500D01*
X156980148Y-108380500D01*
X157169417Y-108340269D01*
X157346185Y-108261567D01*
X157502727Y-108147833D01*
X157632202Y-108004036D01*
X157728950Y-107836463D01*
X157788744Y-107652437D01*
X157808970Y-107460000D01*
X157788744Y-107267563D01*
X157728950Y-107083537D01*
X157728947Y-107083532D01*
X157728945Y-107083527D01*
X157679242Y-106997441D01*
X157632202Y-106915964D01*
X157502727Y-106772167D01*
X157346185Y-106658433D01*
X157346181Y-106658431D01*
X157346178Y-106658429D01*
X157169419Y-106579732D01*
X157169417Y-106579731D01*
X157169414Y-106579730D01*
X157169413Y-106579730D01*
X157120107Y-106569249D01*
X156980148Y-106539500D01*
X156786652Y-106539500D01*
X156684472Y-106561219D01*
X156597386Y-106579730D01*
X156597380Y-106579732D01*
X156420621Y-106658429D01*
X156420618Y-106658431D01*
X156264071Y-106772168D01*
X156134596Y-106915966D01*
X156134596Y-106915967D01*
X156037854Y-107083527D01*
X156037848Y-107083541D01*
X155978057Y-107267557D01*
X155978056Y-107267561D01*
X155978056Y-107267563D01*
X155957830Y-107460000D01*
X151498500Y-107460000D01*
X151498500Y-107101246D01*
X151507447Y-107060119D01*
X151526565Y-107018257D01*
X151547047Y-106875800D01*
X151532147Y-106772168D01*
X151526566Y-106733347D01*
X151526565Y-106733345D01*
X151526565Y-106733343D01*
X151507446Y-106691477D01*
X151498500Y-106650352D01*
X151498500Y-105850253D01*
X151498498Y-105850241D01*
X151494801Y-105831658D01*
X151486867Y-105791769D01*
X151442552Y-105725448D01*
X151442548Y-105725445D01*
X151376233Y-105681134D01*
X151376231Y-105681133D01*
X151376228Y-105681132D01*
X151376227Y-105681132D01*
X151317758Y-105669501D01*
X151317748Y-105669500D01*
X150678252Y-105669500D01*
X150678251Y-105669500D01*
X150678241Y-105669501D01*
X150619772Y-105681132D01*
X150619766Y-105681134D01*
X150553451Y-105725445D01*
X150553445Y-105725451D01*
X150509134Y-105791766D01*
X150509132Y-105791772D01*
X150497501Y-105850241D01*
X150497500Y-105850253D01*
X150497500Y-108089746D01*
X150228500Y-108089746D01*
X150228500Y-105850252D01*
X150216867Y-105791769D01*
X150172552Y-105725448D01*
X150172548Y-105725445D01*
X150106233Y-105681134D01*
X150106231Y-105681133D01*
X150106228Y-105681132D01*
X150106227Y-105681132D01*
X150047758Y-105669501D01*
X150047748Y-105669500D01*
X149408252Y-105669500D01*
X149408251Y-105669500D01*
X149408241Y-105669501D01*
X149349772Y-105681132D01*
X149349766Y-105681134D01*
X149283451Y-105725445D01*
X149283445Y-105725451D01*
X149239134Y-105791766D01*
X149239132Y-105791772D01*
X149227501Y-105850241D01*
X149227500Y-105850253D01*
X149227500Y-108089746D01*
X148958500Y-108089746D01*
X148958500Y-105850252D01*
X148946867Y-105791769D01*
X148902552Y-105725448D01*
X148902548Y-105725445D01*
X148836233Y-105681134D01*
X148836231Y-105681133D01*
X148836228Y-105681132D01*
X148836227Y-105681132D01*
X148777758Y-105669501D01*
X148777748Y-105669500D01*
X148138252Y-105669500D01*
X148138251Y-105669500D01*
X148138241Y-105669501D01*
X148079772Y-105681132D01*
X148079766Y-105681134D01*
X148013451Y-105725445D01*
X148013445Y-105725451D01*
X147969134Y-105791766D01*
X147969132Y-105791772D01*
X147957501Y-105850241D01*
X147957500Y-105850253D01*
X147957500Y-108089746D01*
X147688500Y-108089746D01*
X147688500Y-105850252D01*
X147676867Y-105791769D01*
X147632552Y-105725448D01*
X147632548Y-105725445D01*
X147566233Y-105681134D01*
X147566231Y-105681133D01*
X147566228Y-105681132D01*
X147566227Y-105681132D01*
X147507758Y-105669501D01*
X147507748Y-105669500D01*
X146868252Y-105669500D01*
X146868251Y-105669500D01*
X146868241Y-105669501D01*
X146809772Y-105681132D01*
X146809766Y-105681134D01*
X146743451Y-105725445D01*
X146743445Y-105725451D01*
X146699134Y-105791766D01*
X146699132Y-105791772D01*
X146687501Y-105850241D01*
X146687500Y-105850253D01*
X146687500Y-108089746D01*
X146355525Y-108089746D01*
X146403646Y-107995304D01*
X146418500Y-107901519D01*
X146418499Y-106038482D01*
X146418499Y-106038481D01*
X146418499Y-106038478D01*
X146418498Y-106038476D01*
X146403647Y-105944700D01*
X146403646Y-105944698D01*
X146403646Y-105944696D01*
X146346050Y-105831658D01*
X146256342Y-105741950D01*
X146143304Y-105684354D01*
X146143305Y-105684354D01*
X146049522Y-105669500D01*
X145786479Y-105669500D01*
X145786476Y-105669501D01*
X145692700Y-105684352D01*
X145692695Y-105684354D01*
X145579659Y-105741949D01*
X145489949Y-105831659D01*
X145432354Y-105944695D01*
X145417500Y-106038478D01*
X145417500Y-107060851D01*
X145416492Y-107074940D01*
X145404953Y-107155197D01*
X145404953Y-107155201D01*
X135000500Y-107155201D01*
X135000500Y-104920000D01*
X155957830Y-104920000D01*
X155978057Y-105112442D01*
X156037848Y-105296458D01*
X156037854Y-105296472D01*
X156114715Y-105429597D01*
X156134598Y-105464036D01*
X156264073Y-105607833D01*
X156420615Y-105721567D01*
X156420619Y-105721569D01*
X156420621Y-105721570D01*
X156466394Y-105741949D01*
X156597383Y-105800269D01*
X156786652Y-105840500D01*
X156786654Y-105840500D01*
X156980146Y-105840500D01*
X156980148Y-105840500D01*
X157169417Y-105800269D01*
X157346185Y-105721567D01*
X157502727Y-105607833D01*
X157632202Y-105464036D01*
X157728950Y-105296463D01*
X157788744Y-105112437D01*
X157808970Y-104920000D01*
X157788744Y-104727563D01*
X157728950Y-104543537D01*
X157728947Y-104543532D01*
X157728945Y-104543527D01*
X157679242Y-104457441D01*
X157632202Y-104375964D01*
X157502727Y-104232167D01*
X157346185Y-104118433D01*
X157346181Y-104118431D01*
X157346178Y-104118429D01*
X157169419Y-104039732D01*
X157169417Y-104039731D01*
X157169414Y-104039730D01*
X157169413Y-104039730D01*
X157120107Y-104029249D01*
X156980148Y-103999500D01*
X156786652Y-103999500D01*
X156684472Y-104021219D01*
X156597386Y-104039730D01*
X156597380Y-104039732D01*
X156420621Y-104118429D01*
X156420618Y-104118431D01*
X156264071Y-104232168D01*
X156134596Y-104375966D01*
X156134596Y-104375967D01*
X156037854Y-104543527D01*
X156037848Y-104543541D01*
X155978057Y-104727557D01*
X155957830Y-104920000D01*
X135000500Y-104920000D01*
X135000500Y-100856002D01*
X152262667Y-100856002D01*
X152281102Y-100984225D01*
X152334917Y-101102061D01*
X152334918Y-101102063D01*
X152419751Y-101199967D01*
X152419752Y-101199968D01*
X152528726Y-101270001D01*
X152528731Y-101270004D01*
X152653028Y-101306500D01*
X152653030Y-101306500D01*
X152782570Y-101306500D01*
X152782572Y-101306500D01*
X152906869Y-101270004D01*
X153015849Y-101199967D01*
X153100682Y-101102063D01*
X153154497Y-100984226D01*
X153172933Y-100856000D01*
X153154497Y-100727774D01*
X153100682Y-100609937D01*
X153015849Y-100512033D01*
X153015848Y-100512032D01*
X153015847Y-100512031D01*
X152906873Y-100441998D01*
X152906870Y-100441996D01*
X152906869Y-100441996D01*
X152906866Y-100441995D01*
X152782574Y-100405500D01*
X152782572Y-100405500D01*
X152653028Y-100405500D01*
X152653025Y-100405500D01*
X152528733Y-100441995D01*
X152528726Y-100441998D01*
X152419752Y-100512031D01*
X152334917Y-100609938D01*
X152281102Y-100727774D01*
X152262667Y-100855997D01*
X152262667Y-100856002D01*
X135000500Y-100856002D01*
X135000500Y-99057499D01*
X135001198Y-99000621D01*
X135001228Y-98999407D01*
X135001386Y-98995093D01*
X135003968Y-98924973D01*
X135008487Y-98827235D01*
X135009601Y-98804568D01*
X135009676Y-98803355D01*
X135017655Y-98695191D01*
X146567300Y-98695191D01*
X146582787Y-98852449D01*
X146582788Y-98852455D01*
X146644001Y-99054245D01*
X146644003Y-99054250D01*
X146743402Y-99240213D01*
X146877174Y-99403215D01*
X146877179Y-99403221D01*
X146877184Y-99403225D01*
X147040186Y-99536997D01*
X147226149Y-99636396D01*
X147226155Y-99636399D01*
X147366731Y-99679042D01*
X147427944Y-99697611D01*
X147427949Y-99697612D01*
X147637797Y-99718280D01*
X147637800Y-99718280D01*
X147637803Y-99718280D01*
X147847650Y-99697612D01*
X147847655Y-99697611D01*
X147847655Y-99697610D01*
X148049445Y-99636399D01*
X148146084Y-99584744D01*
X148235413Y-99536997D01*
X148235414Y-99536995D01*
X148235416Y-99536995D01*
X148398421Y-99403221D01*
X148469284Y-99316874D01*
X151647300Y-99316874D01*
X151650153Y-99347294D01*
X151650155Y-99347303D01*
X151695007Y-99475483D01*
X151775645Y-99584744D01*
X151775647Y-99584746D01*
X151775650Y-99584750D01*
X151775653Y-99584752D01*
X151775655Y-99584754D01*
X151884916Y-99665392D01*
X151884917Y-99665392D01*
X151884918Y-99665393D01*
X152013101Y-99710246D01*
X152043525Y-99713099D01*
X152043527Y-99713100D01*
X152043534Y-99713100D01*
X153392073Y-99713100D01*
X153392073Y-99713099D01*
X153422499Y-99710246D01*
X153550682Y-99665393D01*
X153659950Y-99584750D01*
X153740593Y-99475482D01*
X153785446Y-99347299D01*
X153788299Y-99316873D01*
X153788300Y-99316872D01*
X153788300Y-97518327D01*
X153788299Y-97518325D01*
X153785446Y-97487905D01*
X153785446Y-97487901D01*
X153740593Y-97359718D01*
X153695192Y-97298202D01*
X153659954Y-97250455D01*
X153659952Y-97250453D01*
X153659950Y-97250450D01*
X153659946Y-97250447D01*
X153659944Y-97250445D01*
X153550683Y-97169807D01*
X153422503Y-97124955D01*
X153422494Y-97124953D01*
X153392074Y-97122100D01*
X153392066Y-97122100D01*
X152043534Y-97122100D01*
X152043525Y-97122100D01*
X152013105Y-97124953D01*
X152013096Y-97124955D01*
X151884916Y-97169807D01*
X151775655Y-97250445D01*
X151775645Y-97250455D01*
X151695007Y-97359716D01*
X151650155Y-97487896D01*
X151650153Y-97487905D01*
X151647300Y-97518325D01*
X151647300Y-99316874D01*
X148469284Y-99316874D01*
X148532195Y-99240216D01*
X148631599Y-99054245D01*
X148692811Y-98852455D01*
X148695269Y-98827506D01*
X148708300Y-98695191D01*
X148708300Y-98140008D01*
X148692812Y-97982750D01*
X148692811Y-97982744D01*
X148674242Y-97921532D01*
X148631599Y-97780955D01*
X148631596Y-97780949D01*
X148532197Y-97594986D01*
X148398425Y-97431984D01*
X148398421Y-97431979D01*
X148337994Y-97382388D01*
X148235413Y-97298202D01*
X148049450Y-97198803D01*
X148049445Y-97198801D01*
X147847655Y-97137588D01*
X147847650Y-97137587D01*
X147637803Y-97116920D01*
X147637797Y-97116920D01*
X147427949Y-97137587D01*
X147427944Y-97137588D01*
X147226154Y-97198801D01*
X147226149Y-97198803D01*
X147040186Y-97298202D01*
X146877184Y-97431974D01*
X146877174Y-97431984D01*
X146743402Y-97594986D01*
X146644003Y-97780949D01*
X146644001Y-97780954D01*
X146582788Y-97982744D01*
X146582787Y-97982750D01*
X146567300Y-98140008D01*
X146567300Y-98695191D01*
X135017655Y-98695191D01*
X135023968Y-98609600D01*
X135024203Y-98607205D01*
X135047916Y-98414947D01*
X135048263Y-98412610D01*
X135081383Y-98221739D01*
X135081843Y-98219429D01*
X135124286Y-98030420D01*
X135124864Y-98028109D01*
X135176538Y-97841386D01*
X135177225Y-97839123D01*
X135237997Y-97655162D01*
X135238769Y-97653004D01*
X135308511Y-97472202D01*
X135309408Y-97470036D01*
X135387902Y-97292957D01*
X135388922Y-97290800D01*
X135476015Y-97117773D01*
X135477155Y-97115641D01*
X135493378Y-97087001D01*
X135572623Y-96947116D01*
X135573844Y-96945078D01*
X135677495Y-96781394D01*
X135678800Y-96779440D01*
X135790352Y-96621049D01*
X135791760Y-96619149D01*
X135910959Y-96466411D01*
X135912472Y-96464569D01*
X136038959Y-96317934D01*
X136040590Y-96316134D01*
X136174165Y-96175835D01*
X136175835Y-96174165D01*
X136316144Y-96040580D01*
X136317934Y-96038959D01*
X136464569Y-95912472D01*
X136466411Y-95910959D01*
X136619149Y-95791760D01*
X136621049Y-95790352D01*
X136779440Y-95678800D01*
X136781394Y-95677495D01*
X136945078Y-95573844D01*
X136947116Y-95572623D01*
X137115653Y-95477147D01*
X137117741Y-95476031D01*
X137290773Y-95388935D01*
X137292930Y-95387916D01*
X137360924Y-95357775D01*
X137470022Y-95309415D01*
X137472216Y-95308506D01*
X137652949Y-95238790D01*
X137655197Y-95237987D01*
X137701439Y-95222710D01*
X137839130Y-95177223D01*
X137841380Y-95176539D01*
X138028109Y-95124864D01*
X138030420Y-95124286D01*
X138219429Y-95081843D01*
X138221739Y-95081383D01*
X138412610Y-95048263D01*
X138414947Y-95047916D01*
X138607205Y-95024203D01*
X138609600Y-95023968D01*
X138721112Y-95015742D01*
X138803370Y-95009674D01*
X138804519Y-95009603D01*
X138827099Y-95008493D01*
X138827356Y-95008481D01*
X138827358Y-95008541D01*
X138827630Y-95008469D01*
X138924977Y-95003968D01*
X138995093Y-95001386D01*
X138999407Y-95001228D01*
X139000621Y-95001198D01*
X139057500Y-95000500D01*
X160942500Y-95000500D01*
X160999378Y-95001198D01*
G37*
%TD.AperFunction*%
%TD*%
M02*
