%TF.GenerationSoftware,KiCad,Pcbnew,7.0.5-0*%
%TF.CreationDate,2024-05-23T12:43:57-03:00*%
%TF.ProjectId,F2V Chip,46325620-4368-4697-902e-6b696361645f,rev?*%
%TF.SameCoordinates,Original*%
%TF.FileFunction,Legend,Top*%
%TF.FilePolarity,Positive*%
%FSLAX46Y46*%
G04 Gerber Fmt 4.6, Leading zero omitted, Abs format (unit mm)*
G04 Created by KiCad (PCBNEW 7.0.5-0) date 2024-05-23 12:43:57*
%MOMM*%
%LPD*%
G01*
G04 APERTURE LIST*
%ADD10C,0.175000*%
%ADD11C,0.150000*%
%ADD12C,0.120000*%
%ADD13C,0.152400*%
%ADD14C,0.300000*%
G04 APERTURE END LIST*
D10*
X143451797Y-99638566D02*
X143985131Y-99638566D01*
X144685131Y-99905233D02*
X144285131Y-99905233D01*
X144485131Y-99905233D02*
X144485131Y-99205233D01*
X144485131Y-99205233D02*
X144418464Y-99305233D01*
X144418464Y-99305233D02*
X144351798Y-99371900D01*
X144351798Y-99371900D02*
X144285131Y-99405233D01*
X145318465Y-99205233D02*
X144985131Y-99205233D01*
X144985131Y-99205233D02*
X144951798Y-99538566D01*
X144951798Y-99538566D02*
X144985131Y-99505233D01*
X144985131Y-99505233D02*
X145051798Y-99471900D01*
X145051798Y-99471900D02*
X145218465Y-99471900D01*
X145218465Y-99471900D02*
X145285131Y-99505233D01*
X145285131Y-99505233D02*
X145318465Y-99538566D01*
X145318465Y-99538566D02*
X145351798Y-99605233D01*
X145351798Y-99605233D02*
X145351798Y-99771900D01*
X145351798Y-99771900D02*
X145318465Y-99838566D01*
X145318465Y-99838566D02*
X145285131Y-99871900D01*
X145285131Y-99871900D02*
X145218465Y-99905233D01*
X145218465Y-99905233D02*
X145051798Y-99905233D01*
X145051798Y-99905233D02*
X144985131Y-99871900D01*
X144985131Y-99871900D02*
X144951798Y-99838566D01*
X145551798Y-99205233D02*
X145785132Y-99905233D01*
X145785132Y-99905233D02*
X146018465Y-99205233D01*
D11*
X141118684Y-101832366D02*
X140885350Y-101832366D01*
X140885350Y-102199033D02*
X140885350Y-101499033D01*
X140885350Y-101499033D02*
X141218684Y-101499033D01*
X141452017Y-101565700D02*
X141485350Y-101532366D01*
X141485350Y-101532366D02*
X141552017Y-101499033D01*
X141552017Y-101499033D02*
X141718684Y-101499033D01*
X141718684Y-101499033D02*
X141785350Y-101532366D01*
X141785350Y-101532366D02*
X141818684Y-101565700D01*
X141818684Y-101565700D02*
X141852017Y-101632366D01*
X141852017Y-101632366D02*
X141852017Y-101699033D01*
X141852017Y-101699033D02*
X141818684Y-101799033D01*
X141818684Y-101799033D02*
X141418684Y-102199033D01*
X141418684Y-102199033D02*
X141852017Y-102199033D01*
X142052017Y-101499033D02*
X142285351Y-102199033D01*
X142285351Y-102199033D02*
X142518684Y-101499033D01*
X143185350Y-101499033D02*
X143418684Y-102199033D01*
X143418684Y-102199033D02*
X143652017Y-101499033D01*
X143818684Y-101499033D02*
X144252017Y-101499033D01*
X144252017Y-101499033D02*
X144018684Y-101765700D01*
X144018684Y-101765700D02*
X144118684Y-101765700D01*
X144118684Y-101765700D02*
X144185350Y-101799033D01*
X144185350Y-101799033D02*
X144218684Y-101832366D01*
X144218684Y-101832366D02*
X144252017Y-101899033D01*
X144252017Y-101899033D02*
X144252017Y-102065700D01*
X144252017Y-102065700D02*
X144218684Y-102132366D01*
X144218684Y-102132366D02*
X144185350Y-102165700D01*
X144185350Y-102165700D02*
X144118684Y-102199033D01*
X144118684Y-102199033D02*
X143918684Y-102199033D01*
X143918684Y-102199033D02*
X143852017Y-102165700D01*
X143852017Y-102165700D02*
X143818684Y-102132366D01*
X144552017Y-102132366D02*
X144585351Y-102165700D01*
X144585351Y-102165700D02*
X144552017Y-102199033D01*
X144552017Y-102199033D02*
X144518684Y-102165700D01*
X144518684Y-102165700D02*
X144552017Y-102132366D01*
X144552017Y-102132366D02*
X144552017Y-102199033D01*
X145252017Y-102199033D02*
X144852017Y-102199033D01*
X145052017Y-102199033D02*
X145052017Y-101499033D01*
X145052017Y-101499033D02*
X144985350Y-101599033D01*
X144985350Y-101599033D02*
X144918684Y-101665700D01*
X144918684Y-101665700D02*
X144852017Y-101699033D01*
X140885350Y-103326033D02*
X140885350Y-102626033D01*
X141285350Y-103326033D02*
X140985350Y-102926033D01*
X141285350Y-102626033D02*
X140885350Y-103026033D01*
X141585350Y-103259366D02*
X141618684Y-103292700D01*
X141618684Y-103292700D02*
X141585350Y-103326033D01*
X141585350Y-103326033D02*
X141552017Y-103292700D01*
X141552017Y-103292700D02*
X141585350Y-103259366D01*
X141585350Y-103259366D02*
X141585350Y-103326033D01*
X141885350Y-103292700D02*
X141985350Y-103326033D01*
X141985350Y-103326033D02*
X142152017Y-103326033D01*
X142152017Y-103326033D02*
X142218683Y-103292700D01*
X142218683Y-103292700D02*
X142252017Y-103259366D01*
X142252017Y-103259366D02*
X142285350Y-103192700D01*
X142285350Y-103192700D02*
X142285350Y-103126033D01*
X142285350Y-103126033D02*
X142252017Y-103059366D01*
X142252017Y-103059366D02*
X142218683Y-103026033D01*
X142218683Y-103026033D02*
X142152017Y-102992700D01*
X142152017Y-102992700D02*
X142018683Y-102959366D01*
X142018683Y-102959366D02*
X141952017Y-102926033D01*
X141952017Y-102926033D02*
X141918683Y-102892700D01*
X141918683Y-102892700D02*
X141885350Y-102826033D01*
X141885350Y-102826033D02*
X141885350Y-102759366D01*
X141885350Y-102759366D02*
X141918683Y-102692700D01*
X141918683Y-102692700D02*
X141952017Y-102659366D01*
X141952017Y-102659366D02*
X142018683Y-102626033D01*
X142018683Y-102626033D02*
X142185350Y-102626033D01*
X142185350Y-102626033D02*
X142285350Y-102659366D01*
X142585350Y-103326033D02*
X142585350Y-102626033D01*
X142885350Y-103326033D02*
X142885350Y-102959366D01*
X142885350Y-102959366D02*
X142852017Y-102892700D01*
X142852017Y-102892700D02*
X142785350Y-102859366D01*
X142785350Y-102859366D02*
X142685350Y-102859366D01*
X142685350Y-102859366D02*
X142618684Y-102892700D01*
X142618684Y-102892700D02*
X142585350Y-102926033D01*
X143518683Y-103326033D02*
X143518683Y-102959366D01*
X143518683Y-102959366D02*
X143485350Y-102892700D01*
X143485350Y-102892700D02*
X143418683Y-102859366D01*
X143418683Y-102859366D02*
X143285350Y-102859366D01*
X143285350Y-102859366D02*
X143218683Y-102892700D01*
X143518683Y-103292700D02*
X143452017Y-103326033D01*
X143452017Y-103326033D02*
X143285350Y-103326033D01*
X143285350Y-103326033D02*
X143218683Y-103292700D01*
X143218683Y-103292700D02*
X143185350Y-103226033D01*
X143185350Y-103226033D02*
X143185350Y-103159366D01*
X143185350Y-103159366D02*
X143218683Y-103092700D01*
X143218683Y-103092700D02*
X143285350Y-103059366D01*
X143285350Y-103059366D02*
X143452017Y-103059366D01*
X143452017Y-103059366D02*
X143518683Y-103026033D01*
X143952016Y-103326033D02*
X143885350Y-103292700D01*
X143885350Y-103292700D02*
X143852016Y-103226033D01*
X143852016Y-103226033D02*
X143852016Y-102626033D01*
X144518683Y-103326033D02*
X144518683Y-102959366D01*
X144518683Y-102959366D02*
X144485350Y-102892700D01*
X144485350Y-102892700D02*
X144418683Y-102859366D01*
X144418683Y-102859366D02*
X144285350Y-102859366D01*
X144285350Y-102859366D02*
X144218683Y-102892700D01*
X144518683Y-103292700D02*
X144452017Y-103326033D01*
X144452017Y-103326033D02*
X144285350Y-103326033D01*
X144285350Y-103326033D02*
X144218683Y-103292700D01*
X144218683Y-103292700D02*
X144185350Y-103226033D01*
X144185350Y-103226033D02*
X144185350Y-103159366D01*
X144185350Y-103159366D02*
X144218683Y-103092700D01*
X144218683Y-103092700D02*
X144285350Y-103059366D01*
X144285350Y-103059366D02*
X144452017Y-103059366D01*
X144452017Y-103059366D02*
X144518683Y-103026033D01*
X144852016Y-103326033D02*
X144852016Y-102626033D01*
X144852016Y-102892700D02*
X144918683Y-102859366D01*
X144918683Y-102859366D02*
X145052016Y-102859366D01*
X145052016Y-102859366D02*
X145118683Y-102892700D01*
X145118683Y-102892700D02*
X145152016Y-102926033D01*
X145152016Y-102926033D02*
X145185350Y-102992700D01*
X145185350Y-102992700D02*
X145185350Y-103192700D01*
X145185350Y-103192700D02*
X145152016Y-103259366D01*
X145152016Y-103259366D02*
X145118683Y-103292700D01*
X145118683Y-103292700D02*
X145052016Y-103326033D01*
X145052016Y-103326033D02*
X144918683Y-103326033D01*
X144918683Y-103326033D02*
X144852016Y-103292700D01*
X145418683Y-102859366D02*
X145585349Y-103326033D01*
X145752016Y-102859366D02*
X145585349Y-103326033D01*
X145585349Y-103326033D02*
X145518683Y-103492700D01*
X145518683Y-103492700D02*
X145485349Y-103526033D01*
X145485349Y-103526033D02*
X145418683Y-103559366D01*
X141018684Y-103753033D02*
X141085350Y-103753033D01*
X141085350Y-103753033D02*
X141152017Y-103786366D01*
X141152017Y-103786366D02*
X141185350Y-103819700D01*
X141185350Y-103819700D02*
X141218684Y-103886366D01*
X141218684Y-103886366D02*
X141252017Y-104019700D01*
X141252017Y-104019700D02*
X141252017Y-104186366D01*
X141252017Y-104186366D02*
X141218684Y-104319700D01*
X141218684Y-104319700D02*
X141185350Y-104386366D01*
X141185350Y-104386366D02*
X141152017Y-104419700D01*
X141152017Y-104419700D02*
X141085350Y-104453033D01*
X141085350Y-104453033D02*
X141018684Y-104453033D01*
X141018684Y-104453033D02*
X140952017Y-104419700D01*
X140952017Y-104419700D02*
X140918684Y-104386366D01*
X140918684Y-104386366D02*
X140885350Y-104319700D01*
X140885350Y-104319700D02*
X140852017Y-104186366D01*
X140852017Y-104186366D02*
X140852017Y-104019700D01*
X140852017Y-104019700D02*
X140885350Y-103886366D01*
X140885350Y-103886366D02*
X140918684Y-103819700D01*
X140918684Y-103819700D02*
X140952017Y-103786366D01*
X140952017Y-103786366D02*
X141018684Y-103753033D01*
X141885351Y-103753033D02*
X141552017Y-103753033D01*
X141552017Y-103753033D02*
X141518684Y-104086366D01*
X141518684Y-104086366D02*
X141552017Y-104053033D01*
X141552017Y-104053033D02*
X141618684Y-104019700D01*
X141618684Y-104019700D02*
X141785351Y-104019700D01*
X141785351Y-104019700D02*
X141852017Y-104053033D01*
X141852017Y-104053033D02*
X141885351Y-104086366D01*
X141885351Y-104086366D02*
X141918684Y-104153033D01*
X141918684Y-104153033D02*
X141918684Y-104319700D01*
X141918684Y-104319700D02*
X141885351Y-104386366D01*
X141885351Y-104386366D02*
X141852017Y-104419700D01*
X141852017Y-104419700D02*
X141785351Y-104453033D01*
X141785351Y-104453033D02*
X141618684Y-104453033D01*
X141618684Y-104453033D02*
X141552017Y-104419700D01*
X141552017Y-104419700D02*
X141518684Y-104386366D01*
X142718684Y-103719700D02*
X142118684Y-104619700D01*
X142918684Y-103819700D02*
X142952017Y-103786366D01*
X142952017Y-103786366D02*
X143018684Y-103753033D01*
X143018684Y-103753033D02*
X143185351Y-103753033D01*
X143185351Y-103753033D02*
X143252017Y-103786366D01*
X143252017Y-103786366D02*
X143285351Y-103819700D01*
X143285351Y-103819700D02*
X143318684Y-103886366D01*
X143318684Y-103886366D02*
X143318684Y-103953033D01*
X143318684Y-103953033D02*
X143285351Y-104053033D01*
X143285351Y-104053033D02*
X142885351Y-104453033D01*
X142885351Y-104453033D02*
X143318684Y-104453033D01*
X143752018Y-103753033D02*
X143818684Y-103753033D01*
X143818684Y-103753033D02*
X143885351Y-103786366D01*
X143885351Y-103786366D02*
X143918684Y-103819700D01*
X143918684Y-103819700D02*
X143952018Y-103886366D01*
X143952018Y-103886366D02*
X143985351Y-104019700D01*
X143985351Y-104019700D02*
X143985351Y-104186366D01*
X143985351Y-104186366D02*
X143952018Y-104319700D01*
X143952018Y-104319700D02*
X143918684Y-104386366D01*
X143918684Y-104386366D02*
X143885351Y-104419700D01*
X143885351Y-104419700D02*
X143818684Y-104453033D01*
X143818684Y-104453033D02*
X143752018Y-104453033D01*
X143752018Y-104453033D02*
X143685351Y-104419700D01*
X143685351Y-104419700D02*
X143652018Y-104386366D01*
X143652018Y-104386366D02*
X143618684Y-104319700D01*
X143618684Y-104319700D02*
X143585351Y-104186366D01*
X143585351Y-104186366D02*
X143585351Y-104019700D01*
X143585351Y-104019700D02*
X143618684Y-103886366D01*
X143618684Y-103886366D02*
X143652018Y-103819700D01*
X143652018Y-103819700D02*
X143685351Y-103786366D01*
X143685351Y-103786366D02*
X143752018Y-103753033D01*
X144252018Y-103819700D02*
X144285351Y-103786366D01*
X144285351Y-103786366D02*
X144352018Y-103753033D01*
X144352018Y-103753033D02*
X144518685Y-103753033D01*
X144518685Y-103753033D02*
X144585351Y-103786366D01*
X144585351Y-103786366D02*
X144618685Y-103819700D01*
X144618685Y-103819700D02*
X144652018Y-103886366D01*
X144652018Y-103886366D02*
X144652018Y-103953033D01*
X144652018Y-103953033D02*
X144618685Y-104053033D01*
X144618685Y-104053033D02*
X144218685Y-104453033D01*
X144218685Y-104453033D02*
X144652018Y-104453033D01*
X145252018Y-103986366D02*
X145252018Y-104453033D01*
X145085352Y-103719700D02*
X144918685Y-104219700D01*
X144918685Y-104219700D02*
X145352018Y-104219700D01*
D10*
X154721797Y-99478566D02*
X155255131Y-99478566D01*
X154988464Y-99745233D02*
X154988464Y-99211900D01*
X155955131Y-99745233D02*
X155555131Y-99745233D01*
X155755131Y-99745233D02*
X155755131Y-99045233D01*
X155755131Y-99045233D02*
X155688464Y-99145233D01*
X155688464Y-99145233D02*
X155621798Y-99211900D01*
X155621798Y-99211900D02*
X155555131Y-99245233D01*
X156588465Y-99045233D02*
X156255131Y-99045233D01*
X156255131Y-99045233D02*
X156221798Y-99378566D01*
X156221798Y-99378566D02*
X156255131Y-99345233D01*
X156255131Y-99345233D02*
X156321798Y-99311900D01*
X156321798Y-99311900D02*
X156488465Y-99311900D01*
X156488465Y-99311900D02*
X156555131Y-99345233D01*
X156555131Y-99345233D02*
X156588465Y-99378566D01*
X156588465Y-99378566D02*
X156621798Y-99445233D01*
X156621798Y-99445233D02*
X156621798Y-99611900D01*
X156621798Y-99611900D02*
X156588465Y-99678566D01*
X156588465Y-99678566D02*
X156555131Y-99711900D01*
X156555131Y-99711900D02*
X156488465Y-99745233D01*
X156488465Y-99745233D02*
X156321798Y-99745233D01*
X156321798Y-99745233D02*
X156255131Y-99711900D01*
X156255131Y-99711900D02*
X156221798Y-99678566D01*
X156821798Y-99045233D02*
X157055132Y-99745233D01*
X157055132Y-99745233D02*
X157288465Y-99045233D01*
D11*
%TO.C,R1*%
X141066033Y-108341666D02*
X140732700Y-108574999D01*
X141066033Y-108741666D02*
X140366033Y-108741666D01*
X140366033Y-108741666D02*
X140366033Y-108474999D01*
X140366033Y-108474999D02*
X140399366Y-108408333D01*
X140399366Y-108408333D02*
X140432700Y-108374999D01*
X140432700Y-108374999D02*
X140499366Y-108341666D01*
X140499366Y-108341666D02*
X140599366Y-108341666D01*
X140599366Y-108341666D02*
X140666033Y-108374999D01*
X140666033Y-108374999D02*
X140699366Y-108408333D01*
X140699366Y-108408333D02*
X140732700Y-108474999D01*
X140732700Y-108474999D02*
X140732700Y-108741666D01*
X141066033Y-107674999D02*
X141066033Y-108074999D01*
X141066033Y-107874999D02*
X140366033Y-107874999D01*
X140366033Y-107874999D02*
X140466033Y-107941666D01*
X140466033Y-107941666D02*
X140532700Y-108008333D01*
X140532700Y-108008333D02*
X140566033Y-108074999D01*
%TO.C,J1*%
X138133466Y-103545433D02*
X138133466Y-104045433D01*
X138133466Y-104045433D02*
X138100133Y-104145433D01*
X138100133Y-104145433D02*
X138033466Y-104212100D01*
X138033466Y-104212100D02*
X137933466Y-104245433D01*
X137933466Y-104245433D02*
X137866800Y-104245433D01*
X138833466Y-104245433D02*
X138433466Y-104245433D01*
X138633466Y-104245433D02*
X138633466Y-103545433D01*
X138633466Y-103545433D02*
X138566799Y-103645433D01*
X138566799Y-103645433D02*
X138500133Y-103712100D01*
X138500133Y-103712100D02*
X138433466Y-103745433D01*
%TO.C,C5*%
X150272133Y-117833733D02*
X150238800Y-117800400D01*
X150238800Y-117800400D02*
X150205466Y-117700400D01*
X150205466Y-117700400D02*
X150205466Y-117633733D01*
X150205466Y-117633733D02*
X150238800Y-117533733D01*
X150238800Y-117533733D02*
X150305466Y-117467067D01*
X150305466Y-117467067D02*
X150372133Y-117433733D01*
X150372133Y-117433733D02*
X150505466Y-117400400D01*
X150505466Y-117400400D02*
X150605466Y-117400400D01*
X150605466Y-117400400D02*
X150738800Y-117433733D01*
X150738800Y-117433733D02*
X150805466Y-117467067D01*
X150805466Y-117467067D02*
X150872133Y-117533733D01*
X150872133Y-117533733D02*
X150905466Y-117633733D01*
X150905466Y-117633733D02*
X150905466Y-117700400D01*
X150905466Y-117700400D02*
X150872133Y-117800400D01*
X150872133Y-117800400D02*
X150838800Y-117833733D01*
X150905466Y-118467067D02*
X150905466Y-118133733D01*
X150905466Y-118133733D02*
X150572133Y-118100400D01*
X150572133Y-118100400D02*
X150605466Y-118133733D01*
X150605466Y-118133733D02*
X150638800Y-118200400D01*
X150638800Y-118200400D02*
X150638800Y-118367067D01*
X150638800Y-118367067D02*
X150605466Y-118433733D01*
X150605466Y-118433733D02*
X150572133Y-118467067D01*
X150572133Y-118467067D02*
X150505466Y-118500400D01*
X150505466Y-118500400D02*
X150338800Y-118500400D01*
X150338800Y-118500400D02*
X150272133Y-118467067D01*
X150272133Y-118467067D02*
X150238800Y-118433733D01*
X150238800Y-118433733D02*
X150205466Y-118367067D01*
X150205466Y-118367067D02*
X150205466Y-118200400D01*
X150205466Y-118200400D02*
X150238800Y-118133733D01*
X150238800Y-118133733D02*
X150272133Y-118100400D01*
%TO.C,R12*%
X140990199Y-116640633D02*
X140756866Y-116307300D01*
X140590199Y-116640633D02*
X140590199Y-115940633D01*
X140590199Y-115940633D02*
X140856866Y-115940633D01*
X140856866Y-115940633D02*
X140923533Y-115973966D01*
X140923533Y-115973966D02*
X140956866Y-116007300D01*
X140956866Y-116007300D02*
X140990199Y-116073966D01*
X140990199Y-116073966D02*
X140990199Y-116173966D01*
X140990199Y-116173966D02*
X140956866Y-116240633D01*
X140956866Y-116240633D02*
X140923533Y-116273966D01*
X140923533Y-116273966D02*
X140856866Y-116307300D01*
X140856866Y-116307300D02*
X140590199Y-116307300D01*
X141656866Y-116640633D02*
X141256866Y-116640633D01*
X141456866Y-116640633D02*
X141456866Y-115940633D01*
X141456866Y-115940633D02*
X141390199Y-116040633D01*
X141390199Y-116040633D02*
X141323533Y-116107300D01*
X141323533Y-116107300D02*
X141256866Y-116140633D01*
X141923533Y-116007300D02*
X141956866Y-115973966D01*
X141956866Y-115973966D02*
X142023533Y-115940633D01*
X142023533Y-115940633D02*
X142190200Y-115940633D01*
X142190200Y-115940633D02*
X142256866Y-115973966D01*
X142256866Y-115973966D02*
X142290200Y-116007300D01*
X142290200Y-116007300D02*
X142323533Y-116073966D01*
X142323533Y-116073966D02*
X142323533Y-116140633D01*
X142323533Y-116140633D02*
X142290200Y-116240633D01*
X142290200Y-116240633D02*
X141890200Y-116640633D01*
X141890200Y-116640633D02*
X142323533Y-116640633D01*
%TO.C,R6*%
X154253033Y-104503266D02*
X153919700Y-104736599D01*
X154253033Y-104903266D02*
X153553033Y-104903266D01*
X153553033Y-104903266D02*
X153553033Y-104636599D01*
X153553033Y-104636599D02*
X153586366Y-104569933D01*
X153586366Y-104569933D02*
X153619700Y-104536599D01*
X153619700Y-104536599D02*
X153686366Y-104503266D01*
X153686366Y-104503266D02*
X153786366Y-104503266D01*
X153786366Y-104503266D02*
X153853033Y-104536599D01*
X153853033Y-104536599D02*
X153886366Y-104569933D01*
X153886366Y-104569933D02*
X153919700Y-104636599D01*
X153919700Y-104636599D02*
X153919700Y-104903266D01*
X153553033Y-103903266D02*
X153553033Y-104036599D01*
X153553033Y-104036599D02*
X153586366Y-104103266D01*
X153586366Y-104103266D02*
X153619700Y-104136599D01*
X153619700Y-104136599D02*
X153719700Y-104203266D01*
X153719700Y-104203266D02*
X153853033Y-104236599D01*
X153853033Y-104236599D02*
X154119700Y-104236599D01*
X154119700Y-104236599D02*
X154186366Y-104203266D01*
X154186366Y-104203266D02*
X154219700Y-104169933D01*
X154219700Y-104169933D02*
X154253033Y-104103266D01*
X154253033Y-104103266D02*
X154253033Y-103969933D01*
X154253033Y-103969933D02*
X154219700Y-103903266D01*
X154219700Y-103903266D02*
X154186366Y-103869933D01*
X154186366Y-103869933D02*
X154119700Y-103836599D01*
X154119700Y-103836599D02*
X153953033Y-103836599D01*
X153953033Y-103836599D02*
X153886366Y-103869933D01*
X153886366Y-103869933D02*
X153853033Y-103903266D01*
X153853033Y-103903266D02*
X153819700Y-103969933D01*
X153819700Y-103969933D02*
X153819700Y-104103266D01*
X153819700Y-104103266D02*
X153853033Y-104169933D01*
X153853033Y-104169933D02*
X153886366Y-104203266D01*
X153886366Y-104203266D02*
X153953033Y-104236599D01*
%TO.C,R8*%
X149366266Y-102311566D02*
X149599599Y-102644900D01*
X149766266Y-102311566D02*
X149766266Y-103011566D01*
X149766266Y-103011566D02*
X149499599Y-103011566D01*
X149499599Y-103011566D02*
X149432933Y-102978233D01*
X149432933Y-102978233D02*
X149399599Y-102944900D01*
X149399599Y-102944900D02*
X149366266Y-102878233D01*
X149366266Y-102878233D02*
X149366266Y-102778233D01*
X149366266Y-102778233D02*
X149399599Y-102711566D01*
X149399599Y-102711566D02*
X149432933Y-102678233D01*
X149432933Y-102678233D02*
X149499599Y-102644900D01*
X149499599Y-102644900D02*
X149766266Y-102644900D01*
X148966266Y-102711566D02*
X149032933Y-102744900D01*
X149032933Y-102744900D02*
X149066266Y-102778233D01*
X149066266Y-102778233D02*
X149099599Y-102844900D01*
X149099599Y-102844900D02*
X149099599Y-102878233D01*
X149099599Y-102878233D02*
X149066266Y-102944900D01*
X149066266Y-102944900D02*
X149032933Y-102978233D01*
X149032933Y-102978233D02*
X148966266Y-103011566D01*
X148966266Y-103011566D02*
X148832933Y-103011566D01*
X148832933Y-103011566D02*
X148766266Y-102978233D01*
X148766266Y-102978233D02*
X148732933Y-102944900D01*
X148732933Y-102944900D02*
X148699599Y-102878233D01*
X148699599Y-102878233D02*
X148699599Y-102844900D01*
X148699599Y-102844900D02*
X148732933Y-102778233D01*
X148732933Y-102778233D02*
X148766266Y-102744900D01*
X148766266Y-102744900D02*
X148832933Y-102711566D01*
X148832933Y-102711566D02*
X148966266Y-102711566D01*
X148966266Y-102711566D02*
X149032933Y-102678233D01*
X149032933Y-102678233D02*
X149066266Y-102644900D01*
X149066266Y-102644900D02*
X149099599Y-102578233D01*
X149099599Y-102578233D02*
X149099599Y-102444900D01*
X149099599Y-102444900D02*
X149066266Y-102378233D01*
X149066266Y-102378233D02*
X149032933Y-102344900D01*
X149032933Y-102344900D02*
X148966266Y-102311566D01*
X148966266Y-102311566D02*
X148832933Y-102311566D01*
X148832933Y-102311566D02*
X148766266Y-102344900D01*
X148766266Y-102344900D02*
X148732933Y-102378233D01*
X148732933Y-102378233D02*
X148699599Y-102444900D01*
X148699599Y-102444900D02*
X148699599Y-102578233D01*
X148699599Y-102578233D02*
X148732933Y-102644900D01*
X148732933Y-102644900D02*
X148766266Y-102678233D01*
X148766266Y-102678233D02*
X148832933Y-102711566D01*
%TO.C,FB2*%
X149722633Y-120016267D02*
X149722633Y-119782933D01*
X149355966Y-119782933D02*
X150055966Y-119782933D01*
X150055966Y-119782933D02*
X150055966Y-120116267D01*
X149722633Y-120616267D02*
X149689300Y-120716267D01*
X149689300Y-120716267D02*
X149655966Y-120749600D01*
X149655966Y-120749600D02*
X149589300Y-120782933D01*
X149589300Y-120782933D02*
X149489300Y-120782933D01*
X149489300Y-120782933D02*
X149422633Y-120749600D01*
X149422633Y-120749600D02*
X149389300Y-120716267D01*
X149389300Y-120716267D02*
X149355966Y-120649600D01*
X149355966Y-120649600D02*
X149355966Y-120382933D01*
X149355966Y-120382933D02*
X150055966Y-120382933D01*
X150055966Y-120382933D02*
X150055966Y-120616267D01*
X150055966Y-120616267D02*
X150022633Y-120682933D01*
X150022633Y-120682933D02*
X149989300Y-120716267D01*
X149989300Y-120716267D02*
X149922633Y-120749600D01*
X149922633Y-120749600D02*
X149855966Y-120749600D01*
X149855966Y-120749600D02*
X149789300Y-120716267D01*
X149789300Y-120716267D02*
X149755966Y-120682933D01*
X149755966Y-120682933D02*
X149722633Y-120616267D01*
X149722633Y-120616267D02*
X149722633Y-120382933D01*
X149989300Y-121049600D02*
X150022633Y-121082933D01*
X150022633Y-121082933D02*
X150055966Y-121149600D01*
X150055966Y-121149600D02*
X150055966Y-121316267D01*
X150055966Y-121316267D02*
X150022633Y-121382933D01*
X150022633Y-121382933D02*
X149989300Y-121416267D01*
X149989300Y-121416267D02*
X149922633Y-121449600D01*
X149922633Y-121449600D02*
X149855966Y-121449600D01*
X149855966Y-121449600D02*
X149755966Y-121416267D01*
X149755966Y-121416267D02*
X149355966Y-121016267D01*
X149355966Y-121016267D02*
X149355966Y-121449600D01*
%TO.C,J2*%
X161399866Y-115686633D02*
X161399866Y-116186633D01*
X161399866Y-116186633D02*
X161366533Y-116286633D01*
X161366533Y-116286633D02*
X161299866Y-116353300D01*
X161299866Y-116353300D02*
X161199866Y-116386633D01*
X161199866Y-116386633D02*
X161133200Y-116386633D01*
X161699866Y-115753300D02*
X161733199Y-115719966D01*
X161733199Y-115719966D02*
X161799866Y-115686633D01*
X161799866Y-115686633D02*
X161966533Y-115686633D01*
X161966533Y-115686633D02*
X162033199Y-115719966D01*
X162033199Y-115719966D02*
X162066533Y-115753300D01*
X162066533Y-115753300D02*
X162099866Y-115819966D01*
X162099866Y-115819966D02*
X162099866Y-115886633D01*
X162099866Y-115886633D02*
X162066533Y-115986633D01*
X162066533Y-115986633D02*
X161666533Y-116386633D01*
X161666533Y-116386633D02*
X162099866Y-116386633D01*
%TO.C,C4*%
X143279333Y-107734766D02*
X143246000Y-107768100D01*
X143246000Y-107768100D02*
X143146000Y-107801433D01*
X143146000Y-107801433D02*
X143079333Y-107801433D01*
X143079333Y-107801433D02*
X142979333Y-107768100D01*
X142979333Y-107768100D02*
X142912667Y-107701433D01*
X142912667Y-107701433D02*
X142879333Y-107634766D01*
X142879333Y-107634766D02*
X142846000Y-107501433D01*
X142846000Y-107501433D02*
X142846000Y-107401433D01*
X142846000Y-107401433D02*
X142879333Y-107268100D01*
X142879333Y-107268100D02*
X142912667Y-107201433D01*
X142912667Y-107201433D02*
X142979333Y-107134766D01*
X142979333Y-107134766D02*
X143079333Y-107101433D01*
X143079333Y-107101433D02*
X143146000Y-107101433D01*
X143146000Y-107101433D02*
X143246000Y-107134766D01*
X143246000Y-107134766D02*
X143279333Y-107168100D01*
X143879333Y-107334766D02*
X143879333Y-107801433D01*
X143712667Y-107068100D02*
X143546000Y-107568100D01*
X143546000Y-107568100D02*
X143979333Y-107568100D01*
%TO.C,D1*%
X143438133Y-120469433D02*
X143438133Y-119769433D01*
X143438133Y-119769433D02*
X143604800Y-119769433D01*
X143604800Y-119769433D02*
X143704800Y-119802766D01*
X143704800Y-119802766D02*
X143771467Y-119869433D01*
X143771467Y-119869433D02*
X143804800Y-119936100D01*
X143804800Y-119936100D02*
X143838133Y-120069433D01*
X143838133Y-120069433D02*
X143838133Y-120169433D01*
X143838133Y-120169433D02*
X143804800Y-120302766D01*
X143804800Y-120302766D02*
X143771467Y-120369433D01*
X143771467Y-120369433D02*
X143704800Y-120436100D01*
X143704800Y-120436100D02*
X143604800Y-120469433D01*
X143604800Y-120469433D02*
X143438133Y-120469433D01*
X144504800Y-120469433D02*
X144104800Y-120469433D01*
X144304800Y-120469433D02*
X144304800Y-119769433D01*
X144304800Y-119769433D02*
X144238133Y-119869433D01*
X144238133Y-119869433D02*
X144171467Y-119936100D01*
X144171467Y-119936100D02*
X144104800Y-119969433D01*
%TO.C,IC1*%
X147774666Y-112322633D02*
X147774666Y-111622633D01*
X148507999Y-112255966D02*
X148474666Y-112289300D01*
X148474666Y-112289300D02*
X148374666Y-112322633D01*
X148374666Y-112322633D02*
X148307999Y-112322633D01*
X148307999Y-112322633D02*
X148207999Y-112289300D01*
X148207999Y-112289300D02*
X148141333Y-112222633D01*
X148141333Y-112222633D02*
X148107999Y-112155966D01*
X148107999Y-112155966D02*
X148074666Y-112022633D01*
X148074666Y-112022633D02*
X148074666Y-111922633D01*
X148074666Y-111922633D02*
X148107999Y-111789300D01*
X148107999Y-111789300D02*
X148141333Y-111722633D01*
X148141333Y-111722633D02*
X148207999Y-111655966D01*
X148207999Y-111655966D02*
X148307999Y-111622633D01*
X148307999Y-111622633D02*
X148374666Y-111622633D01*
X148374666Y-111622633D02*
X148474666Y-111655966D01*
X148474666Y-111655966D02*
X148507999Y-111689300D01*
X149174666Y-112322633D02*
X148774666Y-112322633D01*
X148974666Y-112322633D02*
X148974666Y-111622633D01*
X148974666Y-111622633D02*
X148907999Y-111722633D01*
X148907999Y-111722633D02*
X148841333Y-111789300D01*
X148841333Y-111789300D02*
X148774666Y-111822633D01*
%TO.C,J3*%
X147506666Y-101976033D02*
X147506666Y-102476033D01*
X147506666Y-102476033D02*
X147473333Y-102576033D01*
X147473333Y-102576033D02*
X147406666Y-102642700D01*
X147406666Y-102642700D02*
X147306666Y-102676033D01*
X147306666Y-102676033D02*
X147240000Y-102676033D01*
X147773333Y-101976033D02*
X148206666Y-101976033D01*
X148206666Y-101976033D02*
X147973333Y-102242700D01*
X147973333Y-102242700D02*
X148073333Y-102242700D01*
X148073333Y-102242700D02*
X148139999Y-102276033D01*
X148139999Y-102276033D02*
X148173333Y-102309366D01*
X148173333Y-102309366D02*
X148206666Y-102376033D01*
X148206666Y-102376033D02*
X148206666Y-102542700D01*
X148206666Y-102542700D02*
X148173333Y-102609366D01*
X148173333Y-102609366D02*
X148139999Y-102642700D01*
X148139999Y-102642700D02*
X148073333Y-102676033D01*
X148073333Y-102676033D02*
X147873333Y-102676033D01*
X147873333Y-102676033D02*
X147806666Y-102642700D01*
X147806666Y-102642700D02*
X147773333Y-102609366D01*
%TO.C,C6*%
X142553166Y-111056466D02*
X142586500Y-111089799D01*
X142586500Y-111089799D02*
X142619833Y-111189799D01*
X142619833Y-111189799D02*
X142619833Y-111256466D01*
X142619833Y-111256466D02*
X142586500Y-111356466D01*
X142586500Y-111356466D02*
X142519833Y-111423133D01*
X142519833Y-111423133D02*
X142453166Y-111456466D01*
X142453166Y-111456466D02*
X142319833Y-111489799D01*
X142319833Y-111489799D02*
X142219833Y-111489799D01*
X142219833Y-111489799D02*
X142086500Y-111456466D01*
X142086500Y-111456466D02*
X142019833Y-111423133D01*
X142019833Y-111423133D02*
X141953166Y-111356466D01*
X141953166Y-111356466D02*
X141919833Y-111256466D01*
X141919833Y-111256466D02*
X141919833Y-111189799D01*
X141919833Y-111189799D02*
X141953166Y-111089799D01*
X141953166Y-111089799D02*
X141986500Y-111056466D01*
X141919833Y-110456466D02*
X141919833Y-110589799D01*
X141919833Y-110589799D02*
X141953166Y-110656466D01*
X141953166Y-110656466D02*
X141986500Y-110689799D01*
X141986500Y-110689799D02*
X142086500Y-110756466D01*
X142086500Y-110756466D02*
X142219833Y-110789799D01*
X142219833Y-110789799D02*
X142486500Y-110789799D01*
X142486500Y-110789799D02*
X142553166Y-110756466D01*
X142553166Y-110756466D02*
X142586500Y-110723133D01*
X142586500Y-110723133D02*
X142619833Y-110656466D01*
X142619833Y-110656466D02*
X142619833Y-110523133D01*
X142619833Y-110523133D02*
X142586500Y-110456466D01*
X142586500Y-110456466D02*
X142553166Y-110423133D01*
X142553166Y-110423133D02*
X142486500Y-110389799D01*
X142486500Y-110389799D02*
X142319833Y-110389799D01*
X142319833Y-110389799D02*
X142253166Y-110423133D01*
X142253166Y-110423133D02*
X142219833Y-110456466D01*
X142219833Y-110456466D02*
X142186500Y-110523133D01*
X142186500Y-110523133D02*
X142186500Y-110656466D01*
X142186500Y-110656466D02*
X142219833Y-110723133D01*
X142219833Y-110723133D02*
X142253166Y-110756466D01*
X142253166Y-110756466D02*
X142319833Y-110789799D01*
%TO.C,R10*%
X153538966Y-116750399D02*
X153872300Y-116517066D01*
X153538966Y-116350399D02*
X154238966Y-116350399D01*
X154238966Y-116350399D02*
X154238966Y-116617066D01*
X154238966Y-116617066D02*
X154205633Y-116683733D01*
X154205633Y-116683733D02*
X154172300Y-116717066D01*
X154172300Y-116717066D02*
X154105633Y-116750399D01*
X154105633Y-116750399D02*
X154005633Y-116750399D01*
X154005633Y-116750399D02*
X153938966Y-116717066D01*
X153938966Y-116717066D02*
X153905633Y-116683733D01*
X153905633Y-116683733D02*
X153872300Y-116617066D01*
X153872300Y-116617066D02*
X153872300Y-116350399D01*
X153538966Y-117417066D02*
X153538966Y-117017066D01*
X153538966Y-117217066D02*
X154238966Y-117217066D01*
X154238966Y-117217066D02*
X154138966Y-117150399D01*
X154138966Y-117150399D02*
X154072300Y-117083733D01*
X154072300Y-117083733D02*
X154038966Y-117017066D01*
X154238966Y-117850400D02*
X154238966Y-117917066D01*
X154238966Y-117917066D02*
X154205633Y-117983733D01*
X154205633Y-117983733D02*
X154172300Y-118017066D01*
X154172300Y-118017066D02*
X154105633Y-118050400D01*
X154105633Y-118050400D02*
X153972300Y-118083733D01*
X153972300Y-118083733D02*
X153805633Y-118083733D01*
X153805633Y-118083733D02*
X153672300Y-118050400D01*
X153672300Y-118050400D02*
X153605633Y-118017066D01*
X153605633Y-118017066D02*
X153572300Y-117983733D01*
X153572300Y-117983733D02*
X153538966Y-117917066D01*
X153538966Y-117917066D02*
X153538966Y-117850400D01*
X153538966Y-117850400D02*
X153572300Y-117783733D01*
X153572300Y-117783733D02*
X153605633Y-117750400D01*
X153605633Y-117750400D02*
X153672300Y-117717066D01*
X153672300Y-117717066D02*
X153805633Y-117683733D01*
X153805633Y-117683733D02*
X153972300Y-117683733D01*
X153972300Y-117683733D02*
X154105633Y-117717066D01*
X154105633Y-117717066D02*
X154172300Y-117750400D01*
X154172300Y-117750400D02*
X154205633Y-117783733D01*
X154205633Y-117783733D02*
X154238966Y-117850400D01*
%TO.C,R9*%
X157833333Y-118466033D02*
X157600000Y-118132700D01*
X157433333Y-118466033D02*
X157433333Y-117766033D01*
X157433333Y-117766033D02*
X157700000Y-117766033D01*
X157700000Y-117766033D02*
X157766667Y-117799366D01*
X157766667Y-117799366D02*
X157800000Y-117832700D01*
X157800000Y-117832700D02*
X157833333Y-117899366D01*
X157833333Y-117899366D02*
X157833333Y-117999366D01*
X157833333Y-117999366D02*
X157800000Y-118066033D01*
X157800000Y-118066033D02*
X157766667Y-118099366D01*
X157766667Y-118099366D02*
X157700000Y-118132700D01*
X157700000Y-118132700D02*
X157433333Y-118132700D01*
X158166667Y-118466033D02*
X158300000Y-118466033D01*
X158300000Y-118466033D02*
X158366667Y-118432700D01*
X158366667Y-118432700D02*
X158400000Y-118399366D01*
X158400000Y-118399366D02*
X158466667Y-118299366D01*
X158466667Y-118299366D02*
X158500000Y-118166033D01*
X158500000Y-118166033D02*
X158500000Y-117899366D01*
X158500000Y-117899366D02*
X158466667Y-117832700D01*
X158466667Y-117832700D02*
X158433333Y-117799366D01*
X158433333Y-117799366D02*
X158366667Y-117766033D01*
X158366667Y-117766033D02*
X158233333Y-117766033D01*
X158233333Y-117766033D02*
X158166667Y-117799366D01*
X158166667Y-117799366D02*
X158133333Y-117832700D01*
X158133333Y-117832700D02*
X158100000Y-117899366D01*
X158100000Y-117899366D02*
X158100000Y-118066033D01*
X158100000Y-118066033D02*
X158133333Y-118132700D01*
X158133333Y-118132700D02*
X158166667Y-118166033D01*
X158166667Y-118166033D02*
X158233333Y-118199366D01*
X158233333Y-118199366D02*
X158366667Y-118199366D01*
X158366667Y-118199366D02*
X158433333Y-118166033D01*
X158433333Y-118166033D02*
X158466667Y-118132700D01*
X158466667Y-118132700D02*
X158500000Y-118066033D01*
D12*
%TO.C,R1*%
X139947500Y-108834939D02*
X139947500Y-109344387D01*
X138902500Y-108834939D02*
X138902500Y-109344387D01*
%TO.C,C5*%
X148216233Y-117415000D02*
X148508767Y-117415000D01*
X148216233Y-118435000D02*
X148508767Y-118435000D01*
%TO.C,R12*%
X140892300Y-114445724D02*
X140892300Y-113936276D01*
X141937300Y-114445724D02*
X141937300Y-113936276D01*
%TO.C,R6*%
X159163400Y-103985000D02*
X157377400Y-103985000D01*
X159163400Y-103985000D02*
X159163400Y-110935000D01*
X156387400Y-103985000D02*
X154423400Y-103985000D01*
X154423400Y-103985000D02*
X154423400Y-110935000D01*
X159163400Y-110935000D02*
X157377400Y-110935000D01*
X156387400Y-110935000D02*
X154423400Y-110935000D01*
%TO.C,R8*%
X149529724Y-104572500D02*
X149020276Y-104572500D01*
X149529724Y-103527500D02*
X149020276Y-103527500D01*
%TO.C,FB2*%
X147565000Y-120886252D02*
X147565000Y-120363748D01*
X148985000Y-120886252D02*
X148985000Y-120363748D01*
%TO.C,C4*%
X142534400Y-107339133D02*
X142534400Y-107631667D01*
X141514400Y-107339133D02*
X141514400Y-107631667D01*
%TO.C,D1*%
X146314800Y-119153400D02*
X146314800Y-117153400D01*
X146314800Y-119153400D02*
X142304800Y-119153400D01*
X146314800Y-117153400D02*
X142304800Y-117153400D01*
D13*
%TO.C,IC1*%
X152958000Y-106770000D02*
X151658000Y-106770000D01*
X151658000Y-106770000D02*
X152958000Y-108070000D01*
X152958000Y-108070000D02*
X152958000Y-106770000D01*
D14*
X151108000Y-111270000D02*
G75*
G03*
X151108000Y-111270000I-150000J0D01*
G01*
D12*
%TO.C,J3*%
X154387800Y-100417600D02*
X154387800Y-96417600D01*
X154097800Y-101447600D02*
X154097800Y-95427600D01*
X154097800Y-95427600D02*
X146257800Y-95427600D01*
X153517800Y-101447600D02*
X153517800Y-100847600D01*
X153517800Y-100847600D02*
X151917800Y-100847600D01*
X152717800Y-96427600D02*
X152467800Y-96957600D01*
X152717800Y-96427600D02*
X147637800Y-96427600D01*
X152717800Y-95427600D02*
X152717800Y-96427600D01*
X152467800Y-96957600D02*
X147887800Y-96957600D01*
X152467800Y-95427600D02*
X152467800Y-96427600D01*
X151917800Y-100847600D02*
X151917800Y-101447600D01*
X150977800Y-101447600D02*
X150977800Y-100847600D01*
X150977800Y-100847600D02*
X149377800Y-100847600D01*
X149377800Y-100847600D02*
X149377800Y-101447600D01*
X148437800Y-101447600D02*
X148437800Y-100847600D01*
X148437800Y-100847600D02*
X146837800Y-100847600D01*
X147887800Y-96957600D02*
X147637800Y-96427600D01*
X147887800Y-95427600D02*
X147887800Y-96427600D01*
X147637800Y-96427600D02*
X147637800Y-95427600D01*
X146837800Y-100847600D02*
X146837800Y-101447600D01*
X146257800Y-101447600D02*
X154097800Y-101447600D01*
X146257800Y-95427600D02*
X146257800Y-101447600D01*
%TO.C,C6*%
X140396800Y-111035267D02*
X140396800Y-110742733D01*
X141416800Y-111035267D02*
X141416800Y-110742733D01*
%TO.C,R10*%
X154602500Y-117429724D02*
X154602500Y-116920276D01*
X155647500Y-117429724D02*
X155647500Y-116920276D01*
%TO.C,R9*%
X150585000Y-119395000D02*
X150585000Y-121181000D01*
X150585000Y-119395000D02*
X157535000Y-119395000D01*
X150585000Y-122171000D02*
X150585000Y-124135000D01*
X150585000Y-124135000D02*
X157535000Y-124135000D01*
X157535000Y-119395000D02*
X157535000Y-121181000D01*
X157535000Y-122171000D02*
X157535000Y-124135000D01*
%TD*%
M02*
