M48
; DRILL file {KiCad 7.0.5-0} date 2024 May 23, Thursday 12:44:12
; FORMAT={-:-/ absolute / inch / decimal}
; #@! TF.CreationDate,2024-05-23T12:44:12-03:00
; #@! TF.GenerationSoftware,Kicad,Pcbnew,7.0.5-0
; #@! TF.FileFunction,Plated,1,4,PTH
FMAT,2
INCH
; #@! TA.AperFunction,Plated,PTH,ViaDrill
T1C0.0118
; #@! TA.AperFunction,Plated,PTH,ViaDrill
T2C0.0157
; #@! TA.AperFunction,Plated,PTH,ComponentDrill
T3C0.0197
; #@! TA.AperFunction,Plated,PTH,ComponentDrill
T4C0.0315
; #@! TA.AperFunction,Plated,PTH,ComponentDrill
T5C0.0469
; #@! TA.AperFunction,Plated,PTH,ComponentDrill
T6C0.1063
%
G90
G05
T1
X5.3346Y-4.0591
X5.3346Y-4.5079
X5.3445Y-3.8504
X5.3445Y-3.8911
X5.3445Y-3.9317
X5.3445Y-3.9724
X5.3445Y-4.0131
X5.3445Y-4.6669
X5.3445Y-4.7067
X5.3445Y-4.7466
X5.3445Y-4.7865
X5.3642Y-4.0591
X5.3642Y-4.5079
X5.3839Y-3.8091
X5.3839Y-4.0129
X5.3839Y-4.678
X5.3839Y-4.8524
X5.3937Y-4.0591
X5.3937Y-4.5079
X5.4232Y-4.0591
X5.4232Y-4.5079
X5.435Y-3.7697
X5.447Y-4.8917
X5.4528Y-4.0591
X5.4528Y-4.5079
X5.4757Y-3.7697
X5.4823Y-4.0591
X5.4823Y-4.5079
X5.4869Y-4.8917
X5.5118Y-4.0591
X5.5236Y-4.4488
X5.5268Y-4.8917
X5.5294Y-3.7697
X5.5455Y-4.6017
X5.5517Y-3.8091
X5.5659Y-4.1575
X5.5666Y-4.8917
X5.5696Y-3.7697
X5.5785Y-4.5167
X5.5866Y-4.311
X5.5905Y-4.3898
X5.5915Y-3.8091
X5.6097Y-3.7697
X5.6142Y-4.7441
X5.6145Y-4.1367
X5.6314Y-3.8091
X5.6365Y-4.4307
X5.6378Y-4.8031
X5.6496Y-4.6929
X5.6498Y-3.7697
X5.6713Y-3.8091
X5.6791Y-4.2165
X5.6899Y-3.7697
X5.6929Y-4.7756
X5.7112Y-3.8091
X5.7215Y-3.8807
X5.7244Y-4.5827
X5.7244Y-4.7283
X5.7301Y-3.7697
X5.7445Y-4.0917
X5.7445Y-4.2187
X5.749Y-4.2835
X5.7515Y-3.9727
X5.7539Y-4.3671
X5.7565Y-4.0427
X5.7575Y-4.4607
X5.7702Y-3.7697
X5.8071Y-4.3209
X5.8081Y-4.4183
X5.8103Y-3.7697
X5.8432Y-4.8933
X5.8504Y-3.7697
X5.8553Y-4.0522
X5.8553Y-4.5807
X5.8583Y-4.2854
X5.8583Y-4.3671
X5.8583Y-4.4626
X5.8602Y-4.1427
X5.8629Y-4.8539
X5.8831Y-4.8933
X5.8895Y-4.0257
X5.8906Y-3.7697
X5.9031Y-4.8539
X5.923Y-4.8933
X5.9281Y-4.2854
X5.9281Y-4.3671
X5.9301Y-4.4626
X5.9307Y-3.7697
X5.9311Y-4.1398
X5.9385Y-3.9907
X5.9455Y-4.5757
X5.9465Y-4.2077
X5.9629Y-4.8933
X5.9656Y-4.0669
X5.9708Y-3.7697
X5.9764Y-4.2795
X5.9823Y-4.5295
X5.9833Y-4.6594
X6.0027Y-4.8933
X6.011Y-3.7697
X6.0157Y-4.2362
X6.0197Y-4.3307
X6.0236Y-4.7146
X6.0426Y-4.8933
X6.0511Y-3.7697
X6.0522Y-4.6565
X6.06Y-4.5453
X6.0825Y-4.8933
X6.0912Y-3.7697
X6.1033Y-4.4616
X6.1053Y-4.7067
X6.1083Y-4.5768
X6.1099Y-3.8091
X6.1145Y-4.0377
X6.1155Y-3.8747
X6.1211Y-4.3996
X6.1223Y-4.8933
X6.1313Y-3.7697
X6.1339Y-4.1732
X6.1348Y-4.4941
X6.1368Y-4.6132
X6.1497Y-3.8091
X6.1622Y-4.8933
X6.1693Y-4.437
X6.1715Y-3.7697
X6.1722Y-4.3917
X6.1875Y-4.0627
X6.1896Y-3.8091
X6.1978Y-4.5276
X6.1988Y-4.6024
X6.2008Y-4.6791
X6.2045Y-4.8917
X6.2116Y-3.7697
X6.2156Y-4.4724
X6.2295Y-3.8091
X6.2444Y-4.8917
X6.2517Y-3.7697
X6.2598Y-4.0787
X6.2598Y-4.1575
X6.2598Y-4.2913
X6.2598Y-4.3701
X6.2598Y-4.5079
X6.2598Y-4.5866
X6.2667Y-4.8524
X6.2843Y-4.8917
X6.2914Y-3.7697
X6.3189Y-4.0591
X6.3189Y-4.6063
X6.3241Y-4.8917
X6.3353Y-3.7697
X6.3484Y-4.0591
X6.3484Y-4.6063
X6.364Y-4.8917
X6.376Y-3.7697
X6.378Y-4.0591
X6.378Y-4.6063
X6.4075Y-4.0591
X6.4075Y-4.6063
X6.4272Y-3.8091
X6.4272Y-4.0129
X6.4272Y-4.8524
X6.437Y-4.0591
X6.437Y-4.6063
X6.4665Y-3.8504
X6.4665Y-3.8911
X6.4665Y-3.9317
X6.4665Y-3.9724
X6.4665Y-4.0131
X6.4665Y-4.0591
X6.4665Y-4.6063
X6.4665Y-4.6669
X6.4665Y-4.7067
X6.4665Y-4.7466
X6.4665Y-4.7865
T2
X5.8681Y-4.7795
X6.0125Y-3.9707
T3
X5.3927Y-3.8976
X5.3927Y-4.7638
X5.4161Y-3.8413
X5.4161Y-3.954
X5.4161Y-4.7074
X5.4161Y-4.8202
X5.4724Y-3.8179
X5.4724Y-3.9774
X5.4724Y-4.6841
X5.4724Y-4.8435
X5.5288Y-3.8413
X5.5288Y-3.954
X5.5288Y-4.7074
X5.5288Y-4.8202
X5.5522Y-3.8976
X5.5522Y-4.7638
X6.2589Y-3.8976
X6.2589Y-4.7638
X6.2822Y-3.8413
X6.2822Y-3.954
X6.2822Y-4.7074
X6.2822Y-4.8202
X6.3386Y-3.8179
X6.3386Y-3.9774
X6.3386Y-4.6841
X6.3386Y-4.8435
X6.395Y-3.8413
X6.395Y-3.954
X6.395Y-4.7074
X6.395Y-4.8202
X6.4183Y-3.8976
X6.4183Y-4.7638
T4
X5.9654Y-4.7904
X6.0654Y-4.7904
X6.1654Y-4.7904
X6.1765Y-4.1307
X6.1765Y-4.2307
X6.1765Y-4.3307
T5
X5.8125Y-3.8747
X5.9125Y-3.8747
X6.0125Y-3.8747
T6
X5.4724Y-3.8976
X5.4724Y-4.7638
X6.3386Y-3.8976
X6.3386Y-4.7638
T0
M30
