%TF.GenerationSoftware,KiCad,Pcbnew,7.0.5-0*%
%TF.CreationDate,2024-05-23T12:43:57-03:00*%
%TF.ProjectId,F2V Chip,46325620-4368-4697-902e-6b696361645f,rev?*%
%TF.SameCoordinates,Original*%
%TF.FileFunction,Legend,Bot*%
%TF.FilePolarity,Positive*%
%FSLAX46Y46*%
G04 Gerber Fmt 4.6, Leading zero omitted, Abs format (unit mm)*
G04 Created by KiCad (PCBNEW 7.0.5-0) date 2024-05-23 12:43:57*
%MOMM*%
%LPD*%
G01*
G04 APERTURE LIST*
%ADD10C,0.150000*%
%ADD11C,0.120000*%
G04 APERTURE END LIST*
D10*
%TO.C,C9*%
X152553766Y-119599766D02*
X152587099Y-119633100D01*
X152587099Y-119633100D02*
X152687099Y-119666433D01*
X152687099Y-119666433D02*
X152753766Y-119666433D01*
X152753766Y-119666433D02*
X152853766Y-119633100D01*
X152853766Y-119633100D02*
X152920433Y-119566433D01*
X152920433Y-119566433D02*
X152953766Y-119499766D01*
X152953766Y-119499766D02*
X152987099Y-119366433D01*
X152987099Y-119366433D02*
X152987099Y-119266433D01*
X152987099Y-119266433D02*
X152953766Y-119133100D01*
X152953766Y-119133100D02*
X152920433Y-119066433D01*
X152920433Y-119066433D02*
X152853766Y-118999766D01*
X152853766Y-118999766D02*
X152753766Y-118966433D01*
X152753766Y-118966433D02*
X152687099Y-118966433D01*
X152687099Y-118966433D02*
X152587099Y-118999766D01*
X152587099Y-118999766D02*
X152553766Y-119033100D01*
X152220433Y-119666433D02*
X152087099Y-119666433D01*
X152087099Y-119666433D02*
X152020433Y-119633100D01*
X152020433Y-119633100D02*
X151987099Y-119599766D01*
X151987099Y-119599766D02*
X151920433Y-119499766D01*
X151920433Y-119499766D02*
X151887099Y-119366433D01*
X151887099Y-119366433D02*
X151887099Y-119099766D01*
X151887099Y-119099766D02*
X151920433Y-119033100D01*
X151920433Y-119033100D02*
X151953766Y-118999766D01*
X151953766Y-118999766D02*
X152020433Y-118966433D01*
X152020433Y-118966433D02*
X152153766Y-118966433D01*
X152153766Y-118966433D02*
X152220433Y-118999766D01*
X152220433Y-118999766D02*
X152253766Y-119033100D01*
X152253766Y-119033100D02*
X152287099Y-119099766D01*
X152287099Y-119099766D02*
X152287099Y-119266433D01*
X152287099Y-119266433D02*
X152253766Y-119333100D01*
X152253766Y-119333100D02*
X152220433Y-119366433D01*
X152220433Y-119366433D02*
X152153766Y-119399766D01*
X152153766Y-119399766D02*
X152020433Y-119399766D01*
X152020433Y-119399766D02*
X151953766Y-119366433D01*
X151953766Y-119366433D02*
X151920433Y-119333100D01*
X151920433Y-119333100D02*
X151887099Y-119266433D01*
%TO.C,C12*%
X156165000Y-99301966D02*
X156198333Y-99335300D01*
X156198333Y-99335300D02*
X156298333Y-99368633D01*
X156298333Y-99368633D02*
X156365000Y-99368633D01*
X156365000Y-99368633D02*
X156465000Y-99335300D01*
X156465000Y-99335300D02*
X156531667Y-99268633D01*
X156531667Y-99268633D02*
X156565000Y-99201966D01*
X156565000Y-99201966D02*
X156598333Y-99068633D01*
X156598333Y-99068633D02*
X156598333Y-98968633D01*
X156598333Y-98968633D02*
X156565000Y-98835300D01*
X156565000Y-98835300D02*
X156531667Y-98768633D01*
X156531667Y-98768633D02*
X156465000Y-98701966D01*
X156465000Y-98701966D02*
X156365000Y-98668633D01*
X156365000Y-98668633D02*
X156298333Y-98668633D01*
X156298333Y-98668633D02*
X156198333Y-98701966D01*
X156198333Y-98701966D02*
X156165000Y-98735300D01*
X155498333Y-99368633D02*
X155898333Y-99368633D01*
X155698333Y-99368633D02*
X155698333Y-98668633D01*
X155698333Y-98668633D02*
X155765000Y-98768633D01*
X155765000Y-98768633D02*
X155831667Y-98835300D01*
X155831667Y-98835300D02*
X155898333Y-98868633D01*
X155231666Y-98735300D02*
X155198333Y-98701966D01*
X155198333Y-98701966D02*
X155131666Y-98668633D01*
X155131666Y-98668633D02*
X154965000Y-98668633D01*
X154965000Y-98668633D02*
X154898333Y-98701966D01*
X154898333Y-98701966D02*
X154865000Y-98735300D01*
X154865000Y-98735300D02*
X154831666Y-98801966D01*
X154831666Y-98801966D02*
X154831666Y-98868633D01*
X154831666Y-98868633D02*
X154865000Y-98968633D01*
X154865000Y-98968633D02*
X155265000Y-99368633D01*
X155265000Y-99368633D02*
X154831666Y-99368633D01*
%TO.C,C13*%
X144989000Y-99479766D02*
X145022333Y-99513100D01*
X145022333Y-99513100D02*
X145122333Y-99546433D01*
X145122333Y-99546433D02*
X145189000Y-99546433D01*
X145189000Y-99546433D02*
X145289000Y-99513100D01*
X145289000Y-99513100D02*
X145355667Y-99446433D01*
X145355667Y-99446433D02*
X145389000Y-99379766D01*
X145389000Y-99379766D02*
X145422333Y-99246433D01*
X145422333Y-99246433D02*
X145422333Y-99146433D01*
X145422333Y-99146433D02*
X145389000Y-99013100D01*
X145389000Y-99013100D02*
X145355667Y-98946433D01*
X145355667Y-98946433D02*
X145289000Y-98879766D01*
X145289000Y-98879766D02*
X145189000Y-98846433D01*
X145189000Y-98846433D02*
X145122333Y-98846433D01*
X145122333Y-98846433D02*
X145022333Y-98879766D01*
X145022333Y-98879766D02*
X144989000Y-98913100D01*
X144322333Y-99546433D02*
X144722333Y-99546433D01*
X144522333Y-99546433D02*
X144522333Y-98846433D01*
X144522333Y-98846433D02*
X144589000Y-98946433D01*
X144589000Y-98946433D02*
X144655667Y-99013100D01*
X144655667Y-99013100D02*
X144722333Y-99046433D01*
X144089000Y-98846433D02*
X143655666Y-98846433D01*
X143655666Y-98846433D02*
X143889000Y-99113100D01*
X143889000Y-99113100D02*
X143789000Y-99113100D01*
X143789000Y-99113100D02*
X143722333Y-99146433D01*
X143722333Y-99146433D02*
X143689000Y-99179766D01*
X143689000Y-99179766D02*
X143655666Y-99246433D01*
X143655666Y-99246433D02*
X143655666Y-99413100D01*
X143655666Y-99413100D02*
X143689000Y-99479766D01*
X143689000Y-99479766D02*
X143722333Y-99513100D01*
X143722333Y-99513100D02*
X143789000Y-99546433D01*
X143789000Y-99546433D02*
X143989000Y-99546433D01*
X143989000Y-99546433D02*
X144055666Y-99513100D01*
X144055666Y-99513100D02*
X144089000Y-99479766D01*
%TO.C,R13*%
X146099633Y-113029799D02*
X145766300Y-112796466D01*
X146099633Y-112629799D02*
X145399633Y-112629799D01*
X145399633Y-112629799D02*
X145399633Y-112896466D01*
X145399633Y-112896466D02*
X145432966Y-112963133D01*
X145432966Y-112963133D02*
X145466300Y-112996466D01*
X145466300Y-112996466D02*
X145532966Y-113029799D01*
X145532966Y-113029799D02*
X145632966Y-113029799D01*
X145632966Y-113029799D02*
X145699633Y-112996466D01*
X145699633Y-112996466D02*
X145732966Y-112963133D01*
X145732966Y-112963133D02*
X145766300Y-112896466D01*
X145766300Y-112896466D02*
X145766300Y-112629799D01*
X146099633Y-113696466D02*
X146099633Y-113296466D01*
X146099633Y-113496466D02*
X145399633Y-113496466D01*
X145399633Y-113496466D02*
X145499633Y-113429799D01*
X145499633Y-113429799D02*
X145566300Y-113363133D01*
X145566300Y-113363133D02*
X145599633Y-113296466D01*
X145399633Y-113929800D02*
X145399633Y-114363133D01*
X145399633Y-114363133D02*
X145666300Y-114129800D01*
X145666300Y-114129800D02*
X145666300Y-114229800D01*
X145666300Y-114229800D02*
X145699633Y-114296466D01*
X145699633Y-114296466D02*
X145732966Y-114329800D01*
X145732966Y-114329800D02*
X145799633Y-114363133D01*
X145799633Y-114363133D02*
X145966300Y-114363133D01*
X145966300Y-114363133D02*
X146032966Y-114329800D01*
X146032966Y-114329800D02*
X146066300Y-114296466D01*
X146066300Y-114296466D02*
X146099633Y-114229800D01*
X146099633Y-114229800D02*
X146099633Y-114029800D01*
X146099633Y-114029800D02*
X146066300Y-113963133D01*
X146066300Y-113963133D02*
X146032966Y-113929800D01*
%TO.C,R11*%
X141019633Y-113004399D02*
X140686300Y-112771066D01*
X141019633Y-112604399D02*
X140319633Y-112604399D01*
X140319633Y-112604399D02*
X140319633Y-112871066D01*
X140319633Y-112871066D02*
X140352966Y-112937733D01*
X140352966Y-112937733D02*
X140386300Y-112971066D01*
X140386300Y-112971066D02*
X140452966Y-113004399D01*
X140452966Y-113004399D02*
X140552966Y-113004399D01*
X140552966Y-113004399D02*
X140619633Y-112971066D01*
X140619633Y-112971066D02*
X140652966Y-112937733D01*
X140652966Y-112937733D02*
X140686300Y-112871066D01*
X140686300Y-112871066D02*
X140686300Y-112604399D01*
X141019633Y-113671066D02*
X141019633Y-113271066D01*
X141019633Y-113471066D02*
X140319633Y-113471066D01*
X140319633Y-113471066D02*
X140419633Y-113404399D01*
X140419633Y-113404399D02*
X140486300Y-113337733D01*
X140486300Y-113337733D02*
X140519633Y-113271066D01*
X141019633Y-114337733D02*
X141019633Y-113937733D01*
X141019633Y-114137733D02*
X140319633Y-114137733D01*
X140319633Y-114137733D02*
X140419633Y-114071066D01*
X140419633Y-114071066D02*
X140486300Y-114004400D01*
X140486300Y-114004400D02*
X140519633Y-113937733D01*
%TO.C,IC2*%
X141857833Y-117444666D02*
X141157833Y-117444666D01*
X141791166Y-118177999D02*
X141824500Y-118144666D01*
X141824500Y-118144666D02*
X141857833Y-118044666D01*
X141857833Y-118044666D02*
X141857833Y-117977999D01*
X141857833Y-117977999D02*
X141824500Y-117877999D01*
X141824500Y-117877999D02*
X141757833Y-117811333D01*
X141757833Y-117811333D02*
X141691166Y-117777999D01*
X141691166Y-117777999D02*
X141557833Y-117744666D01*
X141557833Y-117744666D02*
X141457833Y-117744666D01*
X141457833Y-117744666D02*
X141324500Y-117777999D01*
X141324500Y-117777999D02*
X141257833Y-117811333D01*
X141257833Y-117811333D02*
X141191166Y-117877999D01*
X141191166Y-117877999D02*
X141157833Y-117977999D01*
X141157833Y-117977999D02*
X141157833Y-118044666D01*
X141157833Y-118044666D02*
X141191166Y-118144666D01*
X141191166Y-118144666D02*
X141224500Y-118177999D01*
X141224500Y-118444666D02*
X141191166Y-118477999D01*
X141191166Y-118477999D02*
X141157833Y-118544666D01*
X141157833Y-118544666D02*
X141157833Y-118711333D01*
X141157833Y-118711333D02*
X141191166Y-118777999D01*
X141191166Y-118777999D02*
X141224500Y-118811333D01*
X141224500Y-118811333D02*
X141291166Y-118844666D01*
X141291166Y-118844666D02*
X141357833Y-118844666D01*
X141357833Y-118844666D02*
X141457833Y-118811333D01*
X141457833Y-118811333D02*
X141857833Y-118411333D01*
X141857833Y-118411333D02*
X141857833Y-118844666D01*
%TO.C,C2*%
X144704566Y-106174933D02*
X144737900Y-106141600D01*
X144737900Y-106141600D02*
X144771233Y-106041600D01*
X144771233Y-106041600D02*
X144771233Y-105974933D01*
X144771233Y-105974933D02*
X144737900Y-105874933D01*
X144737900Y-105874933D02*
X144671233Y-105808267D01*
X144671233Y-105808267D02*
X144604566Y-105774933D01*
X144604566Y-105774933D02*
X144471233Y-105741600D01*
X144471233Y-105741600D02*
X144371233Y-105741600D01*
X144371233Y-105741600D02*
X144237900Y-105774933D01*
X144237900Y-105774933D02*
X144171233Y-105808267D01*
X144171233Y-105808267D02*
X144104566Y-105874933D01*
X144104566Y-105874933D02*
X144071233Y-105974933D01*
X144071233Y-105974933D02*
X144071233Y-106041600D01*
X144071233Y-106041600D02*
X144104566Y-106141600D01*
X144104566Y-106141600D02*
X144137900Y-106174933D01*
X144137900Y-106441600D02*
X144104566Y-106474933D01*
X144104566Y-106474933D02*
X144071233Y-106541600D01*
X144071233Y-106541600D02*
X144071233Y-106708267D01*
X144071233Y-106708267D02*
X144104566Y-106774933D01*
X144104566Y-106774933D02*
X144137900Y-106808267D01*
X144137900Y-106808267D02*
X144204566Y-106841600D01*
X144204566Y-106841600D02*
X144271233Y-106841600D01*
X144271233Y-106841600D02*
X144371233Y-106808267D01*
X144371233Y-106808267D02*
X144771233Y-106408267D01*
X144771233Y-106408267D02*
X144771233Y-106841600D01*
%TO.C,FB1*%
X149288966Y-105530467D02*
X149288966Y-105297133D01*
X149655633Y-105297133D02*
X148955633Y-105297133D01*
X148955633Y-105297133D02*
X148955633Y-105630467D01*
X149288966Y-106130467D02*
X149322300Y-106230467D01*
X149322300Y-106230467D02*
X149355633Y-106263800D01*
X149355633Y-106263800D02*
X149422300Y-106297133D01*
X149422300Y-106297133D02*
X149522300Y-106297133D01*
X149522300Y-106297133D02*
X149588966Y-106263800D01*
X149588966Y-106263800D02*
X149622300Y-106230467D01*
X149622300Y-106230467D02*
X149655633Y-106163800D01*
X149655633Y-106163800D02*
X149655633Y-105897133D01*
X149655633Y-105897133D02*
X148955633Y-105897133D01*
X148955633Y-105897133D02*
X148955633Y-106130467D01*
X148955633Y-106130467D02*
X148988966Y-106197133D01*
X148988966Y-106197133D02*
X149022300Y-106230467D01*
X149022300Y-106230467D02*
X149088966Y-106263800D01*
X149088966Y-106263800D02*
X149155633Y-106263800D01*
X149155633Y-106263800D02*
X149222300Y-106230467D01*
X149222300Y-106230467D02*
X149255633Y-106197133D01*
X149255633Y-106197133D02*
X149288966Y-106130467D01*
X149288966Y-106130467D02*
X149288966Y-105897133D01*
X149655633Y-106963800D02*
X149655633Y-106563800D01*
X149655633Y-106763800D02*
X148955633Y-106763800D01*
X148955633Y-106763800D02*
X149055633Y-106697133D01*
X149055633Y-106697133D02*
X149122300Y-106630467D01*
X149122300Y-106630467D02*
X149155633Y-106563800D01*
%TO.C,C10*%
X149575633Y-122550000D02*
X149542300Y-122583333D01*
X149542300Y-122583333D02*
X149508966Y-122683333D01*
X149508966Y-122683333D02*
X149508966Y-122750000D01*
X149508966Y-122750000D02*
X149542300Y-122850000D01*
X149542300Y-122850000D02*
X149608966Y-122916667D01*
X149608966Y-122916667D02*
X149675633Y-122950000D01*
X149675633Y-122950000D02*
X149808966Y-122983333D01*
X149808966Y-122983333D02*
X149908966Y-122983333D01*
X149908966Y-122983333D02*
X150042300Y-122950000D01*
X150042300Y-122950000D02*
X150108966Y-122916667D01*
X150108966Y-122916667D02*
X150175633Y-122850000D01*
X150175633Y-122850000D02*
X150208966Y-122750000D01*
X150208966Y-122750000D02*
X150208966Y-122683333D01*
X150208966Y-122683333D02*
X150175633Y-122583333D01*
X150175633Y-122583333D02*
X150142300Y-122550000D01*
X149508966Y-121883333D02*
X149508966Y-122283333D01*
X149508966Y-122083333D02*
X150208966Y-122083333D01*
X150208966Y-122083333D02*
X150108966Y-122150000D01*
X150108966Y-122150000D02*
X150042300Y-122216667D01*
X150042300Y-122216667D02*
X150008966Y-122283333D01*
X150208966Y-121450000D02*
X150208966Y-121383333D01*
X150208966Y-121383333D02*
X150175633Y-121316666D01*
X150175633Y-121316666D02*
X150142300Y-121283333D01*
X150142300Y-121283333D02*
X150075633Y-121250000D01*
X150075633Y-121250000D02*
X149942300Y-121216666D01*
X149942300Y-121216666D02*
X149775633Y-121216666D01*
X149775633Y-121216666D02*
X149642300Y-121250000D01*
X149642300Y-121250000D02*
X149575633Y-121283333D01*
X149575633Y-121283333D02*
X149542300Y-121316666D01*
X149542300Y-121316666D02*
X149508966Y-121383333D01*
X149508966Y-121383333D02*
X149508966Y-121450000D01*
X149508966Y-121450000D02*
X149542300Y-121516666D01*
X149542300Y-121516666D02*
X149575633Y-121550000D01*
X149575633Y-121550000D02*
X149642300Y-121583333D01*
X149642300Y-121583333D02*
X149775633Y-121616666D01*
X149775633Y-121616666D02*
X149942300Y-121616666D01*
X149942300Y-121616666D02*
X150075633Y-121583333D01*
X150075633Y-121583333D02*
X150142300Y-121550000D01*
X150142300Y-121550000D02*
X150175633Y-121516666D01*
X150175633Y-121516666D02*
X150208966Y-121450000D01*
%TO.C,C3*%
X154583333Y-111238233D02*
X154550000Y-111204900D01*
X154550000Y-111204900D02*
X154450000Y-111171566D01*
X154450000Y-111171566D02*
X154383333Y-111171566D01*
X154383333Y-111171566D02*
X154283333Y-111204900D01*
X154283333Y-111204900D02*
X154216667Y-111271566D01*
X154216667Y-111271566D02*
X154183333Y-111338233D01*
X154183333Y-111338233D02*
X154150000Y-111471566D01*
X154150000Y-111471566D02*
X154150000Y-111571566D01*
X154150000Y-111571566D02*
X154183333Y-111704900D01*
X154183333Y-111704900D02*
X154216667Y-111771566D01*
X154216667Y-111771566D02*
X154283333Y-111838233D01*
X154283333Y-111838233D02*
X154383333Y-111871566D01*
X154383333Y-111871566D02*
X154450000Y-111871566D01*
X154450000Y-111871566D02*
X154550000Y-111838233D01*
X154550000Y-111838233D02*
X154583333Y-111804900D01*
X154816667Y-111871566D02*
X155250000Y-111871566D01*
X155250000Y-111871566D02*
X155016667Y-111604900D01*
X155016667Y-111604900D02*
X155116667Y-111604900D01*
X155116667Y-111604900D02*
X155183333Y-111571566D01*
X155183333Y-111571566D02*
X155216667Y-111538233D01*
X155216667Y-111538233D02*
X155250000Y-111471566D01*
X155250000Y-111471566D02*
X155250000Y-111304900D01*
X155250000Y-111304900D02*
X155216667Y-111238233D01*
X155216667Y-111238233D02*
X155183333Y-111204900D01*
X155183333Y-111204900D02*
X155116667Y-111171566D01*
X155116667Y-111171566D02*
X154916667Y-111171566D01*
X154916667Y-111171566D02*
X154850000Y-111204900D01*
X154850000Y-111204900D02*
X154816667Y-111238233D01*
%TO.C,C1*%
X148973666Y-102603966D02*
X149006999Y-102637300D01*
X149006999Y-102637300D02*
X149106999Y-102670633D01*
X149106999Y-102670633D02*
X149173666Y-102670633D01*
X149173666Y-102670633D02*
X149273666Y-102637300D01*
X149273666Y-102637300D02*
X149340333Y-102570633D01*
X149340333Y-102570633D02*
X149373666Y-102503966D01*
X149373666Y-102503966D02*
X149406999Y-102370633D01*
X149406999Y-102370633D02*
X149406999Y-102270633D01*
X149406999Y-102270633D02*
X149373666Y-102137300D01*
X149373666Y-102137300D02*
X149340333Y-102070633D01*
X149340333Y-102070633D02*
X149273666Y-102003966D01*
X149273666Y-102003966D02*
X149173666Y-101970633D01*
X149173666Y-101970633D02*
X149106999Y-101970633D01*
X149106999Y-101970633D02*
X149006999Y-102003966D01*
X149006999Y-102003966D02*
X148973666Y-102037300D01*
X148306999Y-102670633D02*
X148706999Y-102670633D01*
X148506999Y-102670633D02*
X148506999Y-101970633D01*
X148506999Y-101970633D02*
X148573666Y-102070633D01*
X148573666Y-102070633D02*
X148640333Y-102137300D01*
X148640333Y-102137300D02*
X148706999Y-102170633D01*
%TO.C,R7*%
X153822233Y-105429333D02*
X153488900Y-105196000D01*
X153822233Y-105029333D02*
X153122233Y-105029333D01*
X153122233Y-105029333D02*
X153122233Y-105296000D01*
X153122233Y-105296000D02*
X153155566Y-105362667D01*
X153155566Y-105362667D02*
X153188900Y-105396000D01*
X153188900Y-105396000D02*
X153255566Y-105429333D01*
X153255566Y-105429333D02*
X153355566Y-105429333D01*
X153355566Y-105429333D02*
X153422233Y-105396000D01*
X153422233Y-105396000D02*
X153455566Y-105362667D01*
X153455566Y-105362667D02*
X153488900Y-105296000D01*
X153488900Y-105296000D02*
X153488900Y-105029333D01*
X153122233Y-105662667D02*
X153122233Y-106129333D01*
X153122233Y-106129333D02*
X153822233Y-105829333D01*
%TO.C,C11*%
X147344690Y-115634660D02*
X147311357Y-115601327D01*
X147311357Y-115601327D02*
X147211357Y-115567993D01*
X147211357Y-115567993D02*
X147144690Y-115567993D01*
X147144690Y-115567993D02*
X147044690Y-115601327D01*
X147044690Y-115601327D02*
X146978024Y-115667993D01*
X146978024Y-115667993D02*
X146944690Y-115734660D01*
X146944690Y-115734660D02*
X146911357Y-115867993D01*
X146911357Y-115867993D02*
X146911357Y-115967993D01*
X146911357Y-115967993D02*
X146944690Y-116101327D01*
X146944690Y-116101327D02*
X146978024Y-116167993D01*
X146978024Y-116167993D02*
X147044690Y-116234660D01*
X147044690Y-116234660D02*
X147144690Y-116267993D01*
X147144690Y-116267993D02*
X147211357Y-116267993D01*
X147211357Y-116267993D02*
X147311357Y-116234660D01*
X147311357Y-116234660D02*
X147344690Y-116201327D01*
X148011357Y-115567993D02*
X147611357Y-115567993D01*
X147811357Y-115567993D02*
X147811357Y-116267993D01*
X147811357Y-116267993D02*
X147744690Y-116167993D01*
X147744690Y-116167993D02*
X147678024Y-116101327D01*
X147678024Y-116101327D02*
X147611357Y-116067993D01*
X148678024Y-115567993D02*
X148278024Y-115567993D01*
X148478024Y-115567993D02*
X148478024Y-116267993D01*
X148478024Y-116267993D02*
X148411357Y-116167993D01*
X148411357Y-116167993D02*
X148344691Y-116101327D01*
X148344691Y-116101327D02*
X148278024Y-116067993D01*
D11*
%TO.C,C9*%
X149141233Y-118815000D02*
X149433767Y-118815000D01*
X149141233Y-119835000D02*
X149433767Y-119835000D01*
%TO.C,C12*%
X153606748Y-99946000D02*
X155029252Y-99946000D01*
X153606748Y-101766000D02*
X155029252Y-101766000D01*
%TO.C,C13*%
X146799652Y-101816800D02*
X145377148Y-101816800D01*
X146799652Y-99996800D02*
X145377148Y-99996800D01*
%TO.C,R13*%
X144731300Y-113225076D02*
X144731300Y-113734524D01*
X143686300Y-113225076D02*
X143686300Y-113734524D01*
%TO.C,R11*%
X141578100Y-113711024D02*
X141578100Y-113201576D01*
X142623100Y-113711024D02*
X142623100Y-113201576D01*
%TO.C,IC2*%
X142258400Y-120414000D02*
X142258400Y-122364000D01*
X142258400Y-120414000D02*
X142258400Y-118464000D01*
X147378400Y-120414000D02*
X147378400Y-123864000D01*
X147378400Y-120414000D02*
X147378400Y-118464000D01*
%TO.C,C2*%
X146395200Y-106145333D02*
X146395200Y-106437867D01*
X145375200Y-106145333D02*
X145375200Y-106437867D01*
%TO.C,FB1*%
X148297000Y-105852548D02*
X148297000Y-106375052D01*
X146877000Y-105852548D02*
X146877000Y-106375052D01*
%TO.C,C10*%
X148885000Y-121578733D02*
X148885000Y-121871267D01*
X147865000Y-121578733D02*
X147865000Y-121871267D01*
%TO.C,C3*%
X155210000Y-108953733D02*
X155210000Y-109246267D01*
X154190000Y-108953733D02*
X154190000Y-109246267D01*
%TO.C,C1*%
X148304333Y-103013000D02*
X148596867Y-103013000D01*
X148304333Y-104033000D02*
X148596867Y-104033000D01*
%TO.C,R7*%
X154177500Y-106054724D02*
X154177500Y-105545276D01*
X155222500Y-106054724D02*
X155222500Y-105545276D01*
%TO.C,C11*%
X144905224Y-115399427D02*
X145197758Y-115399427D01*
X144905224Y-116419427D02*
X145197758Y-116419427D01*
%TD*%
M02*
