M48
;GenerationSoftware,Autodesk,EAGLE,9.6.2*%
;CreationDate,2022-07-13T10:28:29Z*%
FMAT,2
ICI,OFF
METRIC,TZ,000.000
T7C0.350
T6C0.500
T5C0.610
T4C1.016
T3C1.600
T2C2.794
T1C3.000
%
G90
M71
T1
X3000Y97000
X3000Y3000
X214000Y97000
X214000Y3000
T2
X220200Y94450
X220200Y5550
T3
X215120Y81750
X215120Y51270
X215120Y10630
X210040Y15710
X215120Y20790
X210040Y25870
X215120Y30950
X210040Y36030
X215120Y41110
X210040Y46190
X210040Y56350
X215120Y61430
X210040Y66510
X210040Y76670
X215120Y71590
T4
X119000Y31460
X84000Y16730
X84000Y36540
X84000Y34000
X84000Y31460
X119000Y34000
X84000Y19270
X119000Y13270
X119000Y10730
X119000Y36540
T5
X198000Y45460
X198000Y48000
X198000Y50540
X28000Y51540
X28000Y49000
X28000Y46460
X28000Y35460
X28000Y38000
X28000Y40540
X42750Y31290
X42750Y26210
X42750Y28750
T6
X44000Y63000
X55000Y64000
X8000Y57000
X26000Y57000
X44000Y57000
X55000Y57000
X61000Y57000
X47000Y96000
X59000Y88500
X84000Y94000
X84000Y83000
X84000Y77000
X66000Y73000
X66000Y64000
X84000Y62000
X8000Y43000
X8000Y37000
X8000Y23000
X8000Y17000
X22000Y45000
X32000Y49000
X35000Y52000
X46000Y53000
X40750Y47000
X35000Y42000
X41000Y39000
X47000Y42000
X49000Y46000
X50000Y50000
X57000Y51000
X61000Y41000
X60000Y34000
X53000Y32000
X37000Y31000
X46500Y30000
X53250Y27500
X43000Y22000
X25000Y27000
X31500Y22500
X30000Y15000
X20000Y12000
X20000Y5000
X43000Y5000
X43000Y15000
X57000Y15000
X65000Y14000
X65000Y5000
X76000Y10000
X59000Y23000
X62000Y28000
X74000Y37000
X84000Y25000
X88000Y5000
X91000Y18000
X93000Y32000
X93000Y41000
X84000Y48000
X71000Y50000
X108000Y48000
X108000Y41000
X108000Y36000
X101000Y30000
X101500Y23500
X108000Y28500
X101750Y14000
X108000Y16000
X108000Y5000
X114500Y12000
X119000Y17000
X129000Y5000
X129000Y18000
X47000Y73000
X114500Y23500
X115000Y26500
X129000Y30000
X129000Y41000
X129000Y48000
X108000Y62000
X108000Y77000
X108000Y83000
X108000Y94000
X129000Y94000
X129000Y83000
X129000Y77000
X129000Y62000
X151000Y5000
X151000Y18000
X151000Y30000
X151000Y41000
X151000Y48000
X151000Y62000
X151000Y77000
X151000Y83000
X151000Y94000
X172000Y94000
X172000Y83000
X172000Y77000
X172000Y62000
X172000Y48000
X172000Y41000
X172000Y30000
X172000Y18000
X172000Y5000
X193000Y5000
X193000Y18000
X193000Y30000
X203000Y38000
X192000Y51000
X201000Y59000
X203000Y75000
X193000Y83000
X193000Y94000
X203000Y89000
X66000Y19000
X193500Y66500
X6500Y81500
X6500Y78500
X13500Y81500
X13500Y78500
X17000Y78500
X17000Y83500
X19750Y83500
X19750Y79500
X24000Y78500
X123000Y24000
X24000Y84000
X32000Y85500
X32000Y78000
X36250Y85500
X36250Y82500
X36000Y78000
X40000Y81500
X43000Y81500
X43000Y86000
X36000Y75000
X39500Y74000
X43000Y76000
X43000Y72000
X49000Y76000
X51000Y70000
X47000Y87000
X57500Y71000
X59000Y78000
X61500Y78500
X64000Y79000
X66750Y81000
X70000Y82000
X70000Y93000
X8000Y70000
X26000Y70000
X8000Y63000
X26000Y63000
T7
X35000Y80000
X28000Y80000
X16000Y49000
X38500Y55000
X35000Y20000
X35000Y16000
X62000Y21000
X62000Y16000
X102000Y22000
X43500Y39000
X32000Y81000
X51000Y17000
X115000Y22000
X39000Y10000
X75000Y24000
X8000Y60000
X77000Y57000
X193000Y38000
X62000Y44000
X8000Y40000
X57250Y19500
X65000Y23000
X113500Y31000
X113500Y20750
X114000Y18000
X8000Y20000
X28000Y81000
X196000Y97000
X28000Y83000
X66000Y97000
X56000Y76250
X56000Y70250
X179000Y59000
X24000Y17000
M30